<?xml version="1.0" encoding="utf-8"?>
<!-- Generator: Adobe Illustrator 17.0.0, SVG Export Plug-In . SVG Version: 6.00 Build 0)  -->
<!DOCTYPE svg PUBLIC "-//W3C//DTD SVG 1.1//EN" "http://www.w3.org/Graphics/SVG/1.1/DTD/svg11.dtd">
<svg version="1.1" id="Layer_1" xmlns="http://www.w3.org/2000/svg" xmlns:xlink="http://www.w3.org/1999/xlink" x="0px" y="0px"
	 width="50px" height="50px" viewBox="0 0 50 50" enable-background="new 0 0 50 50" xml:space="preserve">
<g>
	<g>
		<rect x="0.479" y="35.087" fill="#9BA8B2" width="3.992" height="0.675"/>
		<path fill-rule="evenodd" clip-rule="evenodd" fill="#E9615C" d="M0.479,21.685v12.462l2.768,2.131h44.578
			c0.649-0.286,0.903-1.498,0.928-3.113c0.006-0.344,0-0.707-0.014-1.082c-0.01-0.268-0.024-0.543-0.043-0.823
			c-0.242-3.681-1.166-8.202-1.455-9.346c-0.486-1.924-1.554-2.062-1.554-2.062H1.774C1.059,19.852,0.479,20.672,0.479,21.685z"/>
		<polygon fill="#CF5353" points="0.479,21.914 0.479,34.147 3.247,36.278 19.191,36.278 19.191,32.63 3.975,29.758 3.975,21.914 		
			"/>
		<path fill="#4B6997" d="M46.064,21.914l1.267,8.62c0.062,0.418,0.421,0.727,0.843,0.727h0.499v-0.001
			c-0.342-3.681-1.651-8.202-2.059-9.346H46.064z"/>
		<g>
			<g>
				<path fill="#4B6997" d="M36.826,21.954v3.494c0,0.496,0.285,0.899,0.635,0.899h4.727c0.351,0,0.635-0.403,0.635-0.899v-3.494
					c0-0.496-0.285-0.899-0.635-0.899h-4.727C37.111,21.055,36.826,21.457,36.826,21.954z"/>
				<path fill="#6D8BB7" d="M36.826,21.954v3.494c0,0.496,0.285,0.899,0.635,0.899h4.269l-3.739-5.292h-0.53
					C37.111,21.055,36.826,21.457,36.826,21.954z"/>
			</g>
			<g>
				<path fill="#4B6997" d="M30.368,21.954v3.494c0,0.496,0.285,0.899,0.635,0.899h4.727c0.351,0,0.635-0.403,0.635-0.899v-3.494
					c0-0.496-0.285-0.899-0.635-0.899h-4.727C30.652,21.055,30.368,21.457,30.368,21.954z"/>
				<path fill="#6D8BB7" d="M30.368,21.954v3.494c0,0.496,0.285,0.899,0.635,0.899h4.269l-3.739-5.292h-0.53
					C30.652,21.055,30.368,21.457,30.368,21.954z"/>
			</g>
			<g>
				<path fill="#4B6997" d="M23.909,21.954v3.494c0,0.496,0.285,0.899,0.635,0.899h4.727c0.351,0,0.635-0.403,0.635-0.899v-3.494
					c0-0.496-0.285-0.899-0.635-0.899h-4.727C24.194,21.055,23.909,21.457,23.909,21.954z"/>
				<path fill="#6D8BB7" d="M23.909,21.954v3.494c0,0.496,0.285,0.899,0.635,0.899h4.269l-3.739-5.292h-0.53
					C24.194,21.055,23.909,21.457,23.909,21.954z"/>
			</g>
			<g>
				<path fill="#4B6997" d="M17.451,21.954v3.494c0,0.496,0.285,0.899,0.635,0.899h4.727c0.351,0,0.635-0.403,0.635-0.899v-3.494
					c0-0.496-0.285-0.899-0.635-0.899h-4.727C17.735,21.055,17.451,21.457,17.451,21.954z"/>
				<path fill="#6D8BB7" d="M17.451,21.954v3.494c0,0.496,0.285,0.899,0.635,0.899h4.269l-3.739-5.292h-0.53
					C17.735,21.055,17.451,21.457,17.451,21.954z"/>
			</g>
			<g>
				<path fill="#4B6997" d="M10.992,21.954v3.494c0,0.496,0.285,0.899,0.635,0.899h4.727c0.351,0,0.635-0.403,0.635-0.899v-3.494
					c0-0.496-0.285-0.899-0.635-0.899h-4.727C11.277,21.055,10.992,21.457,10.992,21.954z"/>
				<path fill="#6D8BB7" d="M10.992,21.954v3.494c0,0.496,0.285,0.899,0.635,0.899h4.269l-3.739-5.292h-0.53
					C11.277,21.055,10.992,21.457,10.992,21.954z"/>
			</g>
			<g>
				<path fill="#4B6997" d="M4.534,21.954v3.494c0,0.496,0.285,0.899,0.635,0.899h4.727c0.351,0,0.635-0.403,0.635-0.899v-3.494
					c0-0.496-0.285-0.899-0.635-0.899H5.169C4.818,21.055,4.534,21.457,4.534,21.954z"/>
				<path fill="#6D8BB7" d="M4.534,21.954v3.494c0,0.496,0.285,0.899,0.635,0.899h4.269l-3.739-5.292h-0.53
					C4.818,21.055,4.534,21.457,4.534,21.954z"/>
			</g>
		</g>
		<path fill="#4B6997" d="M41.277,21.055v8.144l5.131,2.062l-0.426-2.65l-0.805-5.009c-0.143-0.892-0.785-1.622-1.651-1.879
			L41.277,21.055z"/>
		<polygon fill="#CF5353" points="41.276,29.199 41.276,36.278 46.408,36.278 46.408,31.261 		"/>
		<path fill="#243549" d="M44.655,36.278h3.993c0.224,0,0.405-0.182,0.405-0.405V35.79c0-0.224-0.182-0.405-0.405-0.405h-3.993
			V36.278z"/>
		<g>
			<circle fill="#243549" cx="37.625" cy="35.991" r="2.735"/>
			<circle fill="#65707B" cx="37.625" cy="35.991" r="1.523"/>
			<path fill="#8897A3" d="M36.346,35.99c0,0.707,0.573,1.278,1.278,1.278c0.353,0,0.674-0.143,0.904-0.374
				c0.231-0.231,0.374-0.551,0.374-0.904c0-0.705-0.572-1.278-1.278-1.278c-0.352,0-0.672,0.143-0.903,0.375
				C36.489,35.318,36.346,35.639,36.346,35.99z"/>
			<path fill="#9BA8B2" d="M36.346,35.99c0,0.707,0.573,1.278,1.278,1.278c0.353,0,0.674-0.143,0.904-0.374l-1.808-1.808
				C36.489,35.318,36.346,35.639,36.346,35.99z"/>
		</g>
		<g>
			<circle fill="#243549" cx="8.952" cy="35.991" r="2.735"/>
			<circle fill="#65707B" cx="8.952" cy="35.991" r="1.523"/>
			<circle fill="#8897A3" cx="8.952" cy="35.991" r="1.279"/>
			<path fill="#9BA8B2" d="M7.674,35.99c0,0.707,0.573,1.278,1.278,1.278c0.353,0,0.674-0.143,0.904-0.374l-1.808-1.808
				C7.817,35.318,7.674,35.639,7.674,35.99z"/>
		</g>
		<path fill="#F7B119" d="M47.802,32.63c0,0.346,0.28,0.627,0.625,0.627c0.12,0,0.231-0.033,0.326-0.092
			c0.008-0.344,0-0.707-0.019-1.082c-0.091-0.051-0.195-0.08-0.307-0.08C48.082,32.003,47.802,32.283,47.802,32.63z"/>
		<path fill="#F7B119" d="M28.522,19.852h14.776V19.63c0-0.745-0.604-1.349-1.349-1.349H29.871c-0.745,0-1.349,0.604-1.349,1.349
			V19.852z"/>
		<path fill="#F7B119" d="M6.705,19.852h9.854V19.63c0-0.745-0.604-1.349-1.349-1.349H8.054c-0.745,0-1.349,0.604-1.349,1.349
			V19.852z"/>
		<path fill="#F7B119" d="M3.892,26.94h38.722c0.115,0,0.209,0.132,0.209,0.295v0.096c0,0.163-0.093,0.295-0.209,0.295H3.892
			c-0.115,0-0.209-0.132-0.209-0.295v-0.096C3.684,27.073,3.777,26.94,3.892,26.94z"/>
		<path fill="#CF5353" d="M29.388,35.455h4.144c0.317,0,0.574-0.364,0.574-0.813v-1.826c0-0.449-0.257-0.813-0.574-0.813h-4.144
			c-0.317,0-0.574,0.364-0.574,0.813v1.826C28.814,35.091,29.071,35.455,29.388,35.455z"/>
		<path fill="#CF5353" d="M22.93,35.455h4.144c0.317,0,0.574-0.364,0.574-0.813v-1.826c0-0.449-0.257-0.813-0.574-0.813H22.93
			c-0.317,0-0.574,0.364-0.574,0.813v1.826C22.355,35.091,22.612,35.455,22.93,35.455z"/>
		<ellipse fill="#F7B119" cx="1.612" cy="21.098" rx="0.291" ry="0.412"/>
		<rect x="0.819" y="23.701" fill="#6D8BB7" width="1.7" height="4.889"/>
		<polygon fill="#6D8BB7" points="41.277,23.907 41.277,29.199 46.408,31.261 45.982,28.61 		"/>
		<path fill="#CF5353" d="M44.655,27.284h0.647c0.421,0,0.762-0.341,0.762-0.762v-2.359c0-0.421-0.341-0.762-0.762-0.762h-0.647
			V27.284z"/>
		<rect x="44.93" y="22.095" fill="#CF5353" width="0.429" height="1.606"/>
	</g>
</g>
</svg>
