<svg xmlns="http://www.w3.org/2000/svg" xmlns:xlink="http://www.w3.org/1999/xlink" width="343.912" height="228.5"><style><![CDATA[.B{fill:#f5c6a6}.C{fill:#fff}.D{fill:#f9e0c9}.E{fill:#c3a288}.F{fill:#ecb757}.G{fill:#fff1e7}]]></style><defs><path id="A" d="M0 0h343.912v227.545H0z"/></defs><clipPath id="B"><use xlink:href="#A"/></clipPath><g clip-path="url(#B)"><path d="M200.31 127.834l-3.78-7.04c-1.668-3.106-5.14-7.614-7.718-10.02l-5.907-5.514c-2.577-2.405-7.213-5.763-10.3-7.462l-9.14-5.027c-3.09-1.7-8.33-2.11-11.644-.912l-.166.06c-3.316 1.197-6.87-.038-7.896-2.746s-1.41-6.145-.85-7.64 1.4-5.4 1.867-8.658.314-8.463-.34-11.544-1.876-5.602-2.716-5.602-3.003 2.478-4.806 5.507l-1.932 3.245c-1.803 3.03-5.112 7.417-7.352 9.75s-4.074 6.154-4.074 8.488v31.108c0 3.525.33 9.274.735 12.776l.568 4.92c.404 3.502 1.753 9.065 2.997 12.364l2.265 6.002c1.245 3.298 2.802 8.83 3.462 12.293l.318 1.668c.66 3.463.7 9.137.09 12.608l-3.213 18.27c-.013.075-.017.147-.027.22l-14.086 70.54h57.053l5.046-70.614c.01-.06.026-.118.035-.178l.054-.37v-.001l1.503-10.37c.506-3.49 2.6-8.253 4.654-10.587s4.5-6.23 5.432-8.658a139.15 139.15 0 0 1 3.565-8.318c1.027-2.147 3.166-6.273 4.753-9.167s3.268-7.172 3.735-9.507-.516-6.783-2.184-9.888z" class="B"/><path fill="#fce5cf" d="M163.084 175.227s-17.967 4.118-19.34-14.754c0 0-3.183 21.96 19.34 14.754z"/><path d="M184.57 18.49s5.9-6.076 10.49 0l-1.44 1.062h-6.635l-1.813-.326-.603-.736z" class="B"/><path fill="#323232" d="M215.932 36.543c0-4.788-1.55-9.38-4.307-12.764s-6.498-5.287-10.397-5.287h-41.2c-3.9 0-7.64 1.9-10.397 5.287s-4.307 7.977-4.307 12.764V154.36c0 4.788 1.55 9.38 4.307 12.764s6.498 5.287 10.397 5.287h41.2c3.9 0 7.64-1.9 10.397-5.287s4.307-7.977 4.307-12.764V36.543z"/><path d="M145.322 37.626c0-.064-.05-.117-.1-.117h-.22c-.06 0-.1.053-.1.117v3.82c0 .065.05.117.1.117h.22c.06 0 .1-.053.1-.117v-3.82zm0 4.488c0-.064-.05-.117-.1-.117h-.22c-.06 0-.1.052-.1.117v1.707c0 .065.05.117.1.117h.22c.06 0 .1-.052.1-.117v-1.707zm0 2.286c0-.065-.05-.117-.1-.117h-.22c-.06 0-.1.052-.1.117v1.707c0 .065.05.117.1.117h.22c.06 0 .1-.052.1-.117V44.4z" fill="#cacaca"/><path d="M191.756 25.025c0-.228-.174-.413-.387-.413h-19.357c-.214 0-.387.185-.387.413v.826c0 .228.174.413.387.413h19.357c.214 0 .387-.185.387-.413v-.826z" class="C"/><g fill="#e9e9e9"><ellipse cx="181.69" cy="22.016" rx=".998" ry="1.064"/><ellipse cx="167.049" cy="27.329" rx=".998" ry="1.064"/></g><g transform="translate(-5.462 3.25)"><linearGradient id="C" gradientUnits="userSpaceOnUse" x1="182.29" y1="163.294" x2="190.417" y2="157.47"><stop offset="0" stop-color="#979797"/><stop offset=".5" stop-color="#fff"/><stop offset="1" stop-color="#666"/></linearGradient><ellipse fill="url(#C)" cx="186.246" cy="160.458" rx="5.031" ry="5.365"/></g><g class="C"><ellipse cx="174.274" cy="123.508" rx="4.566" ry="4.868" transform="matrix(.907491 0 0 .907491 22.632 51.6256)"/><path d="M148.33 35.815h64.596v120.482H148.33z"/></g><path d="M215.648 107.073c.447-.76 1.508-1.194 2.36-.964l3.017.813c.85.23 1.852 1.07 2.225 1.87l1.02 2.19c.373.8.678 2.173.678 3.054v6.98c0 .88-.427 2.183-.95 2.893l-2.346 3.2a23.78 23.78 0 0 1-2.095 2.411l-5.007 4.89c-.63.616-1.867 1.12-2.75 1.12h-.87c-.88 0-1.956-.628-2.388-1.397l-1.485-2.64c-.432-.768-.786-2.118-.786-3V124.9c0-.88.413-2.193.92-2.915l2.916-4.165a20.79 20.79 0 0 0 1.578-2.773l1.738-3.852c.362-.803 1.024-2.082 1.47-2.842l.753-1.28z" class="B"/><path d="M209.2 128.68a1.72 1.72 0 0 1-.224-2.318l1.63-2.097c.54-.696 1.65-1.543 2.462-1.884l.202-.084c.813-.34 2.114-.28 2.89.137l.332.177c.777.416 1.413 1.235 1.413 1.82s-.35 1.694-.78 2.464l-.733 1.314-1.633 2.756-.187.297c-.47.746-1.396.883-2.06.304l-3.313-2.887z" class="D"/><path d="M215.695 74.796c-.013-1.057.835-1.826 1.886-1.707l5.142.58c1.05.12 2.358.956 2.904 1.862l2.64 4.37c.547.905.994 2.51.994 3.57V88.6c0 1.058-.375 2.702-.834 3.655l-2.09 4.342c-.46.953-1.42 2.37-2.134 3.15l-4.168 4.54c-.715.78-2.037.963-2.938.41l-2.245-1.382c-.9-.554-1.76-1.865-1.907-2.912l-.616-4.36c-.148-1.047.04-2.712.417-3.7l2.384-6.24c.378-.988.675-2.66.662-3.72l-.095-7.577z" class="B"/><path d="M215.17 95.13l2.48-3.636c.596-.874 1.862-1.965 2.814-2.426l.35-.17c.952-.46 2.238-.422 2.858.085s1.21 1.783 1.314 2.836l.137 1.397c.103 1.052-.228 2.673-.735 3.6l-1.125 2.056c-.508.928-1.416.976-2.02.107.001 0-2.386-3.44-6.074-3.85z" class="D"/><path d="M215.668 53.134c-.185-.85.522-1.44 1.572-1.31l1.566.196c1.05.13 2.453.632 3.12 1.113s1.813 1.496 2.548 2.256l1.363 1.408c.735.76 1.337 2.247 1.337 3.304v3.15c0 1.058-.205 2.764-.454 3.79l-.302 1.242c-.25 1.028-1.314 1.97-2.364 2.097l-2.9.35c-1.05.126-2.587-.31-3.416-.966l-.89-.705c-.83-.657-1.663-2.046-1.854-3.086l-.516-2.81a9.78 9.78 0 0 1 .181-3.74l.827-2.896c.29-1.015.377-2.543.192-3.394z" class="B"/><path d="M217.288 58.707l1.744-1.13c.888-.575 2.382-.706 3.32-.292s2.176 1.317 2.75 2.006 1.045 2.08 1.045 3.093a22.18 22.18 0 0 1-.376 3.678c-.207 1.012-.556.993-.776-.042 0 0-1.27-5.977-7.708-7.314z" class="D"/><path fill="#f15a29" d="M163.595 127.004h34.122c7.326-.16 7.326 15.557 0 15.398h-34.122c-7.404.001-7.404-15.398 0-15.398z"/><path fill="#f7941e" d="M197.717 139.064h-34.122c-3.162 0-4.97-2.81-5.43-6.03-.618 4.317 1.19 9.37 5.43 9.37h34.122c4.19.09 5.98-5.013 5.375-9.37-.452 3.258-2.24 6.098-5.375 6.03z"/><path d="M169.8 130.158c.454-.386 1.1-.58 1.905-.58 1.2 0 2.008.47 2.456 1.4.093.193.034.336-.177.43l-.514.224c-.174.08-.308.028-.4-.16-.268-.523-.722-.784-1.363-.784-.903 0-1.354.286-1.354.86 0 .305.162.526.486.663.218.093.594.168 1.13.224.716.08 1.248.227 1.597.44.517.312.775.815.775 1.512 0 .635-.227 1.14-.682 1.513-.48.386-1.14.58-1.98.58-1.32 0-2.176-.52-2.568-1.56-.075-.205-.01-.343.196-.4l.514-.187c.187-.062.32.003.402.196.243.58.728.868 1.457.868 1 0 1.485-.324 1.485-.97 0-.293-.146-.507-.44-.644-.212-.1-.557-.174-1.037-.224-.8-.087-1.357-.22-1.7-.402-.56-.3-.84-.8-.84-1.53-.003-.6.215-1.098.65-1.466zm9.532-.438c.218 0 .327.106.327.317v.458a.28.28 0 0 1-.327.317h-2.857v1.634h2.418c.212 0 .317.106.317.318v.457c0 .212-.106.318-.317.318h-2.418v1.718h2.96c.212 0 .317.106.317.317v.458c0 .212-.106.317-.317.317h-3.8c-.218 0-.327-.106-.327-.317v-5.994a.28.28 0 0 1 .327-.317h3.706zm6.256 0c.2 0 .317.106.317.317v5.994c0 .212-.106.317-.317.317h-.532c-.144 0-.246-.053-.308-.16l-2.288-3.38c-.18-.268-.358-.604-.532-1l-.233-.56h-.056c0-.043.034.165.103.626a8.42 8.42 0 0 1 .103 1.233v2.932c0 .212-.106.317-.317.317h-.495c-.218 0-.327-.106-.327-.317v-5.994a.28.28 0 0 1 .327-.317h.532c.137 0 .24.05.308.15l2.27 3.36a7.22 7.22 0 0 1 .551 1.027l.233.56h.056c0 .037-.034-.17-.103-.626a8.42 8.42 0 0 1-.103-1.26v-2.895c0-.212.106-.317.317-.317h.495zm4.032 0c.86 0 1.528.22 2.008.663.467.436.7 1.036.7 1.802v1.7c0 .766-.234 1.366-.7 1.802-.48.442-1.148.663-2.008.663h-2.1c-.218 0-.327-.106-.327-.317v-5.994a.28.28 0 0 1 .327-.317h2.1zm1.54 2.456c0-.9-.5-1.363-1.53-1.363h-1.25v4.444h1.25c1.02 0 1.53-.454 1.53-1.363v-1.718z" class="C"/><path fill="#f2b288" d="M237.272 203.67c-.388-.724-.786-2.14-.884-3.145s-.53-2.786-.963-3.957-1.397-2.55-2.146-3.062-1.937-.973-2.64-1.022-1.686-.001-2.184.106-.96-.375-1.028-1.072l-.288-2.957c-.09-.93-.506-2.52-.922-3.535s-1.384-2.407-2.15-3.095-2.075-1.327-2.9-1.422-2.103.22-2.818.7a14.21 14.21 0 0 0-2.237 1.924c-.515.578-.82.128-.675-1s.192-2.764.107-3.635-.55-2.457-1.036-3.523-2.005-2.262-3.377-2.656-3.356-.488-4.408-.2-2.682 1.685-3.62 3.125-1.924 4.127-2.19 5.97-.838 2.09-1.274.55-.997-4.892-1.246-7.447l-3.306-33.896c-.13-1.336-1.015-3.216-1.966-4.18s-2.81-1.645-4.132-1.516-3.016 1.397-3.767 2.82-1.265 6.152-1.144 10.51l.02.732.614 22.753c.115 4.36-.228 10.368-.762 13.35l-1.693 8.693c-.396 1.798-.8 2.556-.875 1.684s-.635-2.784-1.223-4.25-1.786-3.365-2.663-4.218l-3.833-3.784c-1.23-1.228-3.062-2.153-4.07-2.055s-2.528.486-3.38.863-1.504 1.16-1.447 1.74.834 2.424 1.727 4.096 1.97 6.59 2.394 10.93l1.015 10.405c.423 4.34 1.897 11.277 3.274 15.415l6.747 20.265c1.378 4.138 2.764 7.786 3.08 8.106s.87 2.522 1.227 4.89c.047.3.157.605.316.883l1.027 6.943h45.09l-3.463-15.462c-.064-1.092-.103-2.094-.1-2.727.007-1.232.463-3.483 1.013-5.002a43.93 43.93 0 0 1 2.376-5.242c.756-1.364 1.652-3.897 1.99-5.63s1.072-4.875 1.63-6.98 1.407-5.115 1.888-6.687l1.67-5.386c.436-1.39.686-3.622.556-4.958s-.555-3.02-.943-3.745z"/><path d="M167.416 189.837l-2.56-5.7s1.7-1.707 3.075-.3c1.5 1.545 2.748 4.566 2.748 4.566l-3.264 1.434zm18.928-45.567l7.012-.684s.275-4.302-.586-6.013c-1.135-2.255-4.57-1.177-6.22-.152-.96.597-.207 6.85-.207 6.85z" fill="#fbe2ca"/><g fill="#27346a"><path d="M196.38 64.056c-2.13-2.426-5.977-3.466-10.9-3.466h-14.286c-1.007 0-1.863.732-2.02 1.726l-5.95 37.727c-.118.744.458 1.418 1.212 1.418h8.82l2.146-13.6a2.04 2.04 0 0 1 2.013-1.726h4.19c8.234 0 14.68-3.344 16.564-13.02a21.13 21.13 0 0 0 .146-.837c-.238-.126-.238-.126 0 0 .562-3.575-.003-6.01-1.937-8.213"/><path d="M178.846 70.98a1.79 1.79 0 0 1 .772-.174h11.2c1.326 0 2.564.086 3.694.268l.944.18.89.228.423.13c.556.186 1.073.402 1.55.655.56-3.577-.004-6-1.938-8.213-2.13-2.426-5.977-3.466-10.9-3.466h-14.288c-1.006 0-1.862.732-2.02 1.726l-5.95 37.726c-.118.745.458 1.418 1.21 1.418h8.82l4.596-29.143a1.79 1.79 0 0 1 .994-1.337z"/></g><path fill="#2790c3" d="M198.17 73.106c-1.883 9.673-8.33 13.02-16.564 13.02h-4.192c-1.006 0-1.855.732-2.012 1.726l-2.756 17.47c-.103.65.4 1.24 1.06 1.24h7.435a1.79 1.79 0 0 0 1.766-1.509l.072-.38 1.4-8.88.1-.49a1.79 1.79 0 0 1 1.766-1.509h1.113c7.202 0 12.842-2.926 14.5-11.388.688-3.536.332-6.49-1.488-8.563-.552-.628-1.237-1.147-2.036-1.57-.04.272-.088.55-.144.835z"/><path fill="#1f264f" d="M196.346 71.484l-.89-.228-.944-.18c-1.132-.183-2.368-.27-3.695-.27h-11.2a1.77 1.77 0 0 0-.772.175c-.518.248-.9.736-.994 1.335l-2.45 15.533c.156-.993 1.006-1.726 2.012-1.726h4.192c8.234 0 14.68-3.344 16.564-13.02.056-.286.103-.563.146-.837-.477-.252-.993-.47-1.55-.654l-.423-.13"/></g><defs><path id="D" d="M492.83 0h343.912v227.545H492.83z"/></defs><clipPath id="E"><use xlink:href="#D"/></clipPath><g clip-path="url(#E)"><path d="M551.516 104.03a1.5 1.5 0 0 1-1.5-1.5l.03-2.537c.02-.828.668-1.493 1.537-1.462a1.5 1.5 0 0 1 1.462 1.537l-.03 2.463a1.5 1.5 0 0 1-1.5 1.499zm.282-7.492c-.038 0-.076-.001-.114-.004a1.5 1.5 0 0 1-1.383-1.608l.507-5.047a1.5 1.5 0 1 1 2.977.375l-.492 4.896a1.5 1.5 0 0 1-1.495 1.388zm196.65-.098a1.5 1.5 0 0 1-1.494-1.386l-.497-4.896a1.5 1.5 0 0 1 1.299-1.677c.823-.1 1.573.477 1.678 1.3l.513 5.046a1.5 1.5 0 0 1-1.382 1.609 1.17 1.17 0 0 1-.117.005zm-195.4-9.814a1.5 1.5 0 0 1-1.479-1.763l1.016-4.97a1.5 1.5 0 1 1 2.923.675l-.986 4.82a1.5 1.5 0 0 1-1.474 1.238zm194.14-.094a1.5 1.5 0 0 1-1.475-1.236l-1-4.818a1.5 1.5 0 0 1 1.122-1.8c.808-.192 1.613.314 1.8 1.122l1.02 4.967a1.5 1.5 0 0 1-1.212 1.741 1.54 1.54 0 0 1-.267.024zm-191.892-9.638a1.52 1.52 0 0 1-.413-.058 1.5 1.5 0 0 1-1.03-1.854l1.518-4.84a1.5 1.5 0 1 1 2.839.969l-1.472 4.695a1.5 1.5 0 0 1-1.442 1.088zm189.635-.1a1.5 1.5 0 0 1-1.44-1.086l-1.477-4.693a1.5 1.5 0 1 1 2.838-.972l1.52 4.837a1.5 1.5 0 0 1-1.442 1.914zM558.526 67.44a1.49 1.49 0 0 1-.556-.108 1.5 1.5 0 0 1-.836-1.949l2.002-4.66a1.5 1.5 0 1 1 2.726 1.254l-1.943 4.52a1.5 1.5 0 0 1-1.393.943zm183.172-.074a1.5 1.5 0 0 1-1.392-.941l-1.943-4.5a1.5 1.5 0 0 1 .734-1.99 1.5 1.5 0 0 1 1.99.734l2.002 4.65a1.5 1.5 0 0 1-.833 1.951 1.49 1.49 0 0 1-.558.108zm-178.997-9a1.49 1.49 0 0 1-.695-.172 1.5 1.5 0 0 1-.632-2.025l.726-1.36 1.74-3.072a1.5 1.5 0 1 1 2.585 1.524l-1.688 2.98-.705 1.32a1.5 1.5 0 0 1-1.33.805zm174.824-.055a1.5 1.5 0 0 1-1.33-.804l-2.392-4.292a1.5 1.5 0 0 1 2.584-1.525l2.464 4.425a1.5 1.5 0 0 1-.632 2.025 1.51 1.51 0 0 1-.695.171zm-169.747-8.55a1.48 1.48 0 0 1-.825-.25 1.5 1.5 0 0 1-.425-2.078l2.902-4.162a1.5 1.5 0 0 1 2.417 1.777l-2.815 4.038a1.5 1.5 0 0 1-1.254.674zm164.673-.038c-.486 0-.964-.236-1.252-.673l-2.814-4.032a1.5 1.5 0 0 1 .319-2.097c.667-.493 1.605-.35 2.097.32l2.9 4.156a1.5 1.5 0 0 1-1.25 2.327zm-158.753-8a1.5 1.5 0 0 1-1.161-2.449l3.306-3.847a1.5 1.5 0 1 1 2.226 2.012l-3.207 3.732a1.5 1.5 0 0 1-1.164.552zm152.836-.028c-.435 0-.866-.188-1.162-.55l-3.207-3.73a1.5 1.5 0 0 1 .106-2.119 1.5 1.5 0 0 1 2.118.107l3.305 3.843a1.5 1.5 0 0 1-.212 2.111 1.49 1.49 0 0 1-.948.339zM580.397 34.3a1.49 1.49 0 0 1-1.06-.44 1.5 1.5 0 0 1 0-2.122l3.675-3.495a1.5 1.5 0 1 1 2.012 2.226l-3.565 3.4c-.293.293-.677.44-1.06.44zm139.438-.023a1.49 1.49 0 0 1-1.06-.44l-3.567-3.4a1.501 1.501 0 0 1 2.012-2.227l3.677 3.495a1.5 1.5 0 0 1 0 2.121c-.293.293-.677.44-1.06.44zm-132.027-6.674a1.5 1.5 0 0 1-.95-2.661l4.007-3.106a1.5 1.5 0 0 1 1.778 2.416l-3.888 3.015a1.5 1.5 0 0 1-.947.337zm124.612-.022a1.49 1.49 0 0 1-.947-.338l-3.9-3.014a1.5 1.5 0 1 1 1.778-2.417l4 3.107a1.5 1.5 0 0 1-.95 2.662zm-116.57-5.896c-.487 0-.965-.236-1.253-.673a1.5 1.5 0 0 1 .425-2.078l4.3-2.687a1.5 1.5 0 1 1 1.524 2.584l-4.17 2.605c-.254.17-.54.25-.825.25zm108.518-.022a1.49 1.49 0 0 1-.825-.248l-4.177-2.607a1.5 1.5 0 1 1 1.524-2.585l4.306 2.688a1.5 1.5 0 0 1 .426 2.079c-.3.436-.767.673-1.254.673zm-99.92-5.05a1.5 1.5 0 0 1-.697-2.829l4.55-2.237a1.5 1.5 0 1 1 1.255 2.725l-4.412 2.17a1.49 1.49 0 0 1-.695.172zm91.307-.025c-.234 0-.473-.055-.694-.17l-4.42-2.17a1.5 1.5 0 0 1 1.254-2.725l4.558 2.238a1.5 1.5 0 0 1 .634 2.024c-.27.5-.8.804-1.33.804zm-82.24-4.15a1.5 1.5 0 0 1-.558-2.893l4.752-1.762a1.5 1.5 0 0 1 .971 2.839l-4.608 1.708a1.48 1.48 0 0 1-.557.108zm73.155-.027c-.186 0-.373-.035-.556-.107l-4.622-1.7a1.5 1.5 0 0 1-.936-1.904 1.5 1.5 0 0 1 1.904-.935l4.765 1.762a1.5 1.5 0 0 1-.555 2.893zm-63.714-3.2a1.5 1.5 0 0 1-.411-2.943l4.905-1.27a1.5 1.5 0 1 1 .677 2.923l-4.756 1.23c-.14.04-.278.06-.415.06zm54.244-.03c-.137 0-.274-.02-.412-.058l-4.764-1.226a1.5 1.5 0 0 1-1.125-1.799c.187-.807 1-1.308 1.8-1.125l4.912 1.265a1.5 1.5 0 0 1-.41 2.943zm-44.52-2.223a1.5 1.5 0 0 1-.262-2.977l5.013-.765c.822-.1 1.573.478 1.677 1.3a1.5 1.5 0 0 1-1.3 1.677l-4.863.74c-.088.016-.177.024-.265.024zm34.793-.02c-.087 0-.175-.008-.264-.023l-4.864-.736a1.5 1.5 0 0 1-1.302-1.675 1.51 1.51 0 0 1 1.675-1.302l5.014.758a1.5 1.5 0 0 1-.259 2.978zM642.588 5.7a1.5 1.5 0 0 1-.112-2.996l5.064-.255c.815-.034 1.517.633 1.538 1.46a1.5 1.5 0 0 1-1.461 1.538l-4.914.248-.115.004zm14.976-.008a1.44 1.44 0 0 1-.113-.004l-4.913-.243a1.5 1.5 0 0 1-1.463-1.536c.02-.83.75-1.5 1.536-1.463l5.063.25a1.5 1.5 0 0 1-.11 2.996zm91.174 98.337a1.5 1.5 0 0 1-1.5-1.5l-.03-2.462a1.5 1.5 0 0 1 1.463-1.537c.798-.035 1.517.634 1.537 1.462l.03 2.537a1.5 1.5 0 0 1-1.5 1.5z" fill="#9b9b9b"/><path d="M581.8 145.475l-3.297-6.14c-1.454-2.708-4.482-6.64-6.73-8.736l-5.15-4.807c-2.247-2.097-6.288-5.025-8.98-6.506l-7.968-4.382c-2.693-1.48-7.26-1.84-10.152-.795l-.145.052c-2.89 1.044-5.988-.034-6.884-2.394s-1.23-5.358-.74-6.66 1.22-4.7 1.628-7.548.274-7.378-.296-10.064-1.635-4.884-2.368-4.884-2.618 2.16-4.2 4.802l-1.684 2.83c-1.572 2.64-4.457 6.467-6.4 8.502s-3.552 5.365-3.552 7.4v27.122c0 3.073.288 8.086.64 11.14l.495 4.3c.352 3.053 1.528 7.904 2.613 10.78l1.975 5.232c1.085 2.875 2.443 7.698 3.018 10.717l.277 1.454c.575 3.02.6 7.966.078 10.993l-2.8 15.93c-.01.065-.015.128-.024.193l-12.28 61.5h49.742l4.4-61.565c.01-.052.023-.103.03-.155l.047-.323h0l1.3-9.04c.44-3.042 2.267-7.195 4.058-9.23s3.922-5.432 4.736-7.548 2.213-5.38 3.108-7.252 2.76-5.47 4.144-7.992 2.85-6.253 3.256-8.288-.45-5.917-1.905-8.625z" class="B"/><path fill="#fce5cf" d="M549.342 186.795s-15.664 3.6-16.86-12.863c.001 0-2.774 19.145 16.86 12.863z"/><path d="M568.075 50.145s5.145-5.297 9.147 0l-1.256.926h-5.785l-1.58-.285-.525-.64z" class="B"/><path fill="#323232" d="M595.418 65.882c0-4.174-1.35-8.177-3.755-11.128s-5.665-4.61-9.065-4.61h-35.92c-3.4 0-6.66 1.658-9.065 4.61s-3.755 6.954-3.755 11.128v102.72c0 4.174 1.35 8.177 3.755 11.128s5.665 4.61 9.065 4.61h35.92c3.4 0 6.66-1.658 9.065-4.61s3.755-6.954 3.755-11.128V65.882z"/><path d="M533.857 66.828c0-.056-.043-.102-.096-.102h-.192c-.053 0-.096.046-.096.102v3.332c0 .056.043.102.096.102h.192c.053 0 .096-.046.096-.102v-3.332zm0 3.912c0-.056-.043-.102-.096-.102h-.192c-.053 0-.096.046-.096.102v1.488c0 .056.043.102.096.102h.192c.053 0 .096-.046.096-.102V70.74zm0 1.993c0-.056-.043-.102-.096-.102h-.192c-.053 0-.096.046-.096.102v1.488c0 .056.043.102.096.102h.192c.053 0 .096-.046.096-.102v-1.488z" fill="#cacaca"/><path d="M574.34 55.842c0-.2-.15-.36-.338-.36h-16.876c-.187 0-.338.16-.338.36v.72c0 .2.15.36.338.36h16.876c.186 0 .338-.16.338-.36v-.72z" class="C"/><g fill="#e9e9e9"><ellipse cx="565.564" cy="53.218" rx=".87" ry=".927"/><ellipse cx="552.8" cy="57.85" rx=".87" ry=".927"/></g><g transform="translate(-5.462 3.25)"><linearGradient id="F" gradientUnits="userSpaceOnUse" x1="566.79" y1="175.974" x2="573.872" y2="170.899"><stop offset="0" stop-color="#979797"/><stop offset=".5" stop-color="#fff"/><stop offset="1" stop-color="#666"/></linearGradient><ellipse fill="url(#F)" cx="570.237" cy="173.502" rx="4.386" ry="4.677"/></g><ellipse cx="597.408" cy="137.882" rx="3.981" ry="4.244" transform="matrix(.907491 0 0 .907491 22.632 51.6256)" class="C"/><path fill="#bef3fc" d="M536.478 65.248h56.317V170.3h-56.317z"/><path d="M595.17 127.375c.39-.662 1.315-1.04 2.057-.84l2.63.71c.742.2 1.615.933 1.94 1.63l.89 1.908c.325.696.59 1.895.59 2.663v6.086a4.99 4.99 0 0 1-.828 2.522l-2.045 2.78c-.455.62-1.277 1.565-1.827 2.102l-4.365 4.264c-.55.537-1.628.976-2.396.976h-.758a2.65 2.65 0 0 1-2.082-1.218l-1.294-2.3c-.377-.67-.685-1.846-.685-2.615v-3.126c0-.768.36-1.912.8-2.54l2.542-3.63c.44-.63 1.06-1.717 1.376-2.418l1.515-3.358a31.39 31.39 0 0 1 1.283-2.478l.653-1.114z" class="B"/><path d="M589.55 146.214a1.5 1.5 0 0 1-.195-2.021l1.422-1.828c.472-.606 1.438-1.345 2.146-1.642l.176-.074c.71-.297 1.843-.243 2.52.12l.29.155c.677.362 1.232 1.077 1.232 1.587s-.306 1.477-.68 2.148l-.64 1.146-1.424 2.403-.163.26c-.41.65-1.217.77-1.796.265l-2.887-2.517z" class="D"/><path d="M595.212 99.234a1.44 1.44 0 0 1 1.645-1.488l4.483.506c.916.103 2.056.834 2.532 1.623l2.3 3.8c.477.79.866 2.19.866 3.11v4.462c0 .922-.327 2.356-.727 3.187l-1.823 3.786c-.4.83-1.237 2.066-1.86 2.745l-3.634 3.96c-.623.68-1.776.84-2.56.356l-1.957-1.205c-.785-.483-1.533-1.626-1.662-2.54l-.537-3.802c-.13-.913.035-2.365.364-3.226l2.08-5.44c.33-.86.59-2.32.577-3.242l-.085-6.604z" class="B"/><path d="M594.754 116.962l2.162-3.17c.52-.762 1.624-1.713 2.454-2.115l.306-.148c.83-.4 1.95-.368 2.492.074s1.056 1.555 1.146 2.472l.12 1.218c.1.918-.198 2.33-.64 3.14l-.98 1.792c-.443.81-1.235.85-1.76.093-.001.001-2.082-2.998-5.297-3.355z" class="D"/><path d="M595.188 80.348c-.16-.742.455-1.256 1.37-1.14l1.366.17c.915.114 2.14.55 2.72.97s1.58 1.305 2.222 1.967l1.188 1.227c.64.663 1.166 1.96 1.166 2.88v2.748c0 .922-.178 2.41-.396 3.305l-.263 1.083c-.218.896-1.145 1.72-2.06 1.83l-2.537.304c-.915.1-2.255-.27-2.978-.842l-.775-.615c-.722-.573-1.45-1.784-1.616-2.7l-.45-2.45c-.167-.907-.096-2.374.158-3.26l.72-2.525c.252-.885.327-2.218.166-2.96z" class="B"/><path d="M596.6 85.207l1.52-.984c.774-.5 2.077-.616 2.895-.255s1.897 1.148 2.398 1.75.91 1.815.91 2.696a19.38 19.38 0 0 1-.328 3.207c-.18.882-.485.865-.677-.036 0 0-1.11-5.21-6.72-6.377z" class="D"/><path d="M552.305 126.092v-1.937c-1.367-.062-2.693-.43-3.468-.877l.612-2.386c.857.47 2.06.897 3.386.897 1.162 0 1.958-.45 1.958-1.265 0-.775-.653-1.265-2.162-1.774-2.183-.734-3.672-1.754-3.672-3.733 0-1.795 1.265-3.203 3.447-3.63v-1.938h2v1.795c1.367.06 2.284.347 2.958.673l-.592 2.305c-.53-.225-1.47-.694-2.937-.694-1.326 0-1.755.57-1.755 1.142 0 .673.714 1.102 2.448 1.754 2.427.857 3.406 1.98 3.406 3.815 0 1.815-1.285 3.366-3.63 3.773v2.08l-1.998.001zm11.32 0v-1.937c-1.367-.062-2.693-.43-3.468-.877l.612-2.386c.857.47 2.06.897 3.386.897 1.162 0 1.958-.45 1.958-1.265 0-.775-.653-1.265-2.162-1.774-2.183-.734-3.672-1.754-3.672-3.733 0-1.795 1.265-3.203 3.447-3.63v-1.938h2v1.795c1.367.06 2.284.347 2.958.673l-.592 2.305c-.53-.225-1.47-.694-2.937-.694-1.326 0-1.755.57-1.755 1.142 0 .673.714 1.102 2.448 1.754 2.427.857 3.406 1.98 3.406 3.815 0 1.815-1.285 3.366-3.63 3.773v2.08l-1.997.001zm11.32 0v-1.937c-1.367-.062-2.693-.43-3.468-.877l.612-2.386c.857.47 2.06.897 3.387.897 1.162 0 1.958-.45 1.958-1.265 0-.775-.653-1.265-2.162-1.774-2.183-.734-3.672-1.754-3.672-3.733 0-1.795 1.265-3.203 3.447-3.63v-1.938h2v1.795c1.367.06 2.285.347 2.958.673l-.592 2.305c-.53-.225-1.47-.694-2.937-.694-1.326 0-1.755.57-1.755 1.142 0 .673.714 1.102 2.448 1.754 2.427.857 3.406 1.98 3.406 3.815 0 1.815-1.285 3.366-3.63 3.773v2.08l-1.998.001z" fill="#fb0"/><path fill="#f15a29" d="M549.788 144.752h29.75c6.387-.138 6.387 13.563 0 13.425h-29.75c-6.455 0-6.455-13.425 0-13.425z"/><path fill="#f7941e" d="M579.537 155.266h-29.75c-2.757 0-4.332-2.45-4.734-5.257-.54 3.764 1.036 8.168 4.734 8.168h29.75c3.654.08 5.213-4.37 4.686-8.168-.393 2.84-1.953 5.316-4.686 5.257z"/><path d="M555.2 147.502c.396-.336.95-.505 1.66-.505 1.037 0 1.75.4 2.14 1.23.08.168.03.293-.155.375l-.448.195c-.152.07-.268.024-.35-.138-.233-.456-.63-.684-1.2-.684-.787 0-1.18.25-1.18.75 0 .266.14.46.423.578.2.08.518.146.985.195.624.07 1.088.198 1.392.383.45.272.676.7.676 1.32 0 .554-.198.993-.594 1.32-.418.337-.993.505-1.726.505-1.15 0-1.897-.453-2.24-1.36a.24.24 0 0 1 .171-.358l.448-.163c.163-.054.28.003.35.17.212.505.635.757 1.27.757.863 0 1.294-.282 1.294-.847 0-.255-.128-.442-.383-.562-.185-.087-.486-.152-.904-.195-.7-.076-1.183-.193-1.48-.35-.5-.26-.733-.705-.733-1.335.001-.533.2-.96.57-1.28zm8.318-.382a.24.24 0 0 1 .285.277v.4c0 .185-.095.277-.285.277h-2.5v1.424h2.1c.184 0 .277.092.277.277v.4a.24.24 0 0 1-.277.277h-2.1v1.498h2.58c.184 0 .277.092.277.277v.4a.24.24 0 0 1-.277.277h-3.32a.24.24 0 0 1-.285-.277V147.4c0-.185.095-.277.285-.277h3.23zm5.455 0c.184 0 .277.092.277.277v5.226a.24.24 0 0 1-.277.277h-.464c-.125 0-.215-.046-.27-.138l-1.995-2.947a5.47 5.47 0 0 1-.464-.879l-.203-.488h-.05c0-.038.03.144.1.545a6.28 6.28 0 0 1 .1 1.075v2.556a.24.24 0 0 1-.277.277H565a.24.24 0 0 1-.285-.277v-5.226c0-.185.095-.277.285-.277h.464c.12 0 .2.043.27.13l1.978 2.93a6.22 6.22 0 0 1 .48.895l.203.488h.05c0 .033-.03-.15-.1-.545a6.3 6.3 0 0 1-.1-1.1v-2.524a.24.24 0 0 1 .277-.277h.432zm3.517 0c.75 0 1.332.193 1.75.578.407.38.6.904.6 1.57v1.482c0 .668-.204 1.2-.6 1.57-.418.385-1 .578-1.75.578h-1.823a.24.24 0 0 1-.285-.277v-5.226c0-.185.095-.277.285-.277h1.823zm1.344 2.14c0-.792-.445-1.188-1.335-1.188h-1.1v3.875h1.1c.9 0 1.335-.396 1.335-1.2v-1.498z" class="C"/><path fill="#f2b288" d="M614.024 211.594c-.338-.632-.685-1.865-.77-2.742s-.463-2.43-.84-3.45-1.218-2.222-1.87-2.67-1.688-.848-2.302-.89-1.47-.001-1.904.093-.837-.327-.897-.935l-.25-2.578c-.08-.8-.44-2.197-.804-3.082s-1.206-2.1-1.874-2.698-1.81-1.157-2.537-1.24-1.834.193-2.457.61-1.5 1.173-1.95 1.677-.714.11-.588-.872.168-2.4.094-3.17-.48-2.142-.904-3.072-1.748-1.972-2.944-2.315-2.926-.426-3.843-.183-2.338 1.47-3.157 2.724-1.678 3.598-1.91 5.205-.73 1.823-1.11.48-.87-4.265-1.086-6.493l-2.882-29.553c-.114-1.165-.885-2.804-1.714-3.643s-2.45-1.434-3.602-1.322-2.63 1.218-3.284 2.458-1.103 5.363-.997 9.164l.018.64.535 19.838c.1 3.8-.2 9.04-.665 11.64l-1.476 7.58c-.346 1.567-.69 2.228-.763 1.47s-.554-2.427-1.066-3.707-1.557-2.934-2.322-3.677l-3.342-3.3c-1.073-1.07-2.67-1.877-3.547-1.792s-2.204.424-2.947.752-1.31 1.01-1.262 1.517.727 2.113 1.506 3.57 1.718 5.746 2.087 9.53l.885 9.07c.37 3.784 1.654 9.832 2.855 13.44l5.883 17.668c1.2 3.607 2.4 6.788 2.687 7.068s.758 2.198 1.07 4.264c.04.27.137.528.276.77l.895 6.054h39.31l-3.02-13.48c-.056-.952-.1-1.825-.087-2.378.006-1.074.404-3.037.884-4.36s1.412-3.38 2.07-4.57 1.44-3.398 1.736-4.91.935-4.25 1.42-6.087 1.226-4.46 1.646-5.83l1.455-4.696c.38-1.213.598-3.158.485-4.322s-.485-2.633-.823-3.264z"/><path d="M553.12 199.533l-2.23-4.97s1.5-1.488 2.68-.26c1.308 1.347 2.396 3.98 2.396 3.98l-2.846 1.25zm16.502-39.728l6.113-.596s.24-3.75-.5-5.242c-1-1.966-3.986-1.026-5.422-.133-.837.52-.18 5.97-.18 5.97z" fill="#fbe2ca"/><path fill="#253b80" d="M548.78 84.254c-.188-.376-.484-.687-.853-.92-.384-.235-.838-.4-1.356-.498-.528-.096-1.137-.14-1.843-.146l-3.26.002c-.34.005-.67.268-.75.596l-2.193 9.553a.46.46 0 0 0 .472.593h1.56a.8.8 0 0 0 .749-.593l.536-2.32a.8.8 0 0 1 .748-.592h.447c1.91-.002 3.387-.392 4.45-1.173 1.068-.782 1.594-1.816 1.594-3.096-.002-.56-.094-1.032-.3-1.407zm-3.367 3.12c-.472.346-1.128.518-1.974.518h-.382c-.34 0-.548-.268-.474-.596l.47-2.028a.79.79 0 0 1 .744-.592l.512-.003c.597 0 1.053.103 1.358.304s.453.513.45.93c.008.634-.234 1.12-.704 1.467zm21.46-1.247l-6.22 10.518c-.2.33-.642.593-.98.593h-1.617c-.335 0-.446-.267-.24-.595l1.383-2.408s.11-.14.013-.924l-1.275-7.465a.46.46 0 0 1 .467-.596l1.398-.002c.43 0 .773.282.85.612l.696 4.192.26.003 2.452-4.222c.214-.324.646-.596.982-.596h1.87c.558-.01-.04.888-.04.888zm-10.566-.508c-.59-.332-1.52-.498-2.8-.498a12.29 12.29 0 0 0-1.888.147l-.8.148c-.593.13-.687.722-.687.722l-.19.786c-.108.5.18.482.3.44.26-.077.404-.157.933-.275.506-.115 1.04-.2 1.462-.196.624 0 1.102.066 1.42.2s.47.37.47.71l-.027.22-.225.14-2.302.25c-.76.106-1.426.29-1.98.545-.595.26-1.036.613-1.344 1.06-.298.45-.447.994-.447 1.633 0 .6.216 1.098.636 1.483.422.377.98.562 1.645.562.422-.002.748-.035.98-.09l.756-.26.64-.355.59-.39.008.01-.06.25-.003.01v.002c-.064.305.12.555.417.584l.006.007h1.45l.02-.01c.312-.036.604-.287.672-.584l1.138-4.926.06-.4.027-.376c.005-.7-.297-1.22-.887-1.55zm-2.517 5.54l-.243.32-.614.317c-.29.117-.563.176-.816.176-.384 0-.686-.056-.89-.17l-.3-.586c0-.317.073-.568.23-.762l.662-.45c.283-.096.63-.176 1.03-.232l1.154-.127.108.2-.32 1.322z"/><path d="M577.127 84.3c-.196-.38-.5-.684-.86-.923-.38-.236-.83-.402-1.356-.498-.517-.092-1.135-.142-1.836-.143l-3.264.002c-.34.006-.666.27-.745.593l-2.195 9.557a.46.46 0 0 0 .471.592l1.563-.002a.81.81 0 0 0 .75-.591l.53-2.32a.81.81 0 0 1 .75-.592h.447c1.9 0 3.393-.393 4.46-1.172 1.054-.788 1.587-1.82 1.587-3.1-.005-.558-.102-1.03-.3-1.402zm-3.366 3.126c-.47.34-1.128.512-1.97.512h-.4c-.335.003-.553-.27-.477-.595l.473-2.025c.07-.324.408-.596.746-.592l.506-.003c.6.003 1.05.102 1.358.302s.45.514.454.93c.001.634-.234 1.123-.702 1.47zm10.9-1.8c-.592-.332-1.52-.5-2.8-.5a11.9 11.9 0 0 0-1.887.15l-.804.144c-.592.128-.684.723-.684.723l-.2.785c-.107.5.175.48.307.44.26-.077.4-.153.925-.276.504-.114 1.04-.198 1.466-.196.622 0 1.1.067 1.417.2a.71.71 0 0 1 .47.708l-.024.22-.223.142-2.305.248c-.757.106-1.426.3-1.98.545-.592.263-1.04.614-1.344 1.062s-.448.993-.448 1.626c0 .606.214 1.103.64 1.485.424.376.976.565 1.642.565.42-.005.746-.032.98-.092l.754-.257.646-.355.584-.393.01.013-.053.252-.006.005.002.005c-.07.305.115.557.415.584l.002.006h1.45l.024-.008a.8.8 0 0 0 .664-.59l1.142-4.92.06-.404.033-.377a1.64 1.64 0 0 0-.892-1.542zm-2.5 5.54l-.254.324-.608.315c-.3.116-.564.176-.813.176-.397 0-.7-.057-.888-.17l-.305-.583c0-.318.074-.567.223-.764.15-.185.382-.338.67-.45.28-.096.625-.173 1.028-.23l1.148-.128.1.2c-.016.108-.217.94-.3 1.32zm8.362-7.77l.005.001-2.1 9.472-.075.114c-.122.266-.4.482-.673.482h-1.452l-.024-.033c-.277-.042-.457-.263-.392-.555v-.007l.064-.273 2.024-9.193.077-.12c.126-.26.384-.474.67-.474h1.398c.336-.004.54.26.47.587z" fill="#179bd7"/><path fill="#ffd6b6" d="M702.1 167.268c-2.462 3.507-1.572 8.348 1.9 10.85l55.693 40.133h20.038c.238-2.682-.928-5.424-3.267-7.1l-63.9-45.37c-3.476-2.505-8.012-2-10.473 1.497z"/><g class="B"><path d="M756.568 227.545l-31.087-31.622 55.42-27.23 28.994 58.853z"/><path d="M706.887 192.797c-2.462 3.506-.01 6.392 3.383 8.997l39.255 25.75H766l-48.256-36.648c-3.475-2.505-8.386-1.608-10.847 1.9zm-10.737-55.8c-2.68 3.148-2.264 7.88.85 10.595l54.83 47.813c3.114 2.715 7.915 2.298 10.595-.85s2.265-7.877-.85-10.594l-54.83-47.814c-3.116-2.717-7.913-2.298-10.593.85z"/></g><path d="M715.594 145.755c-.054 5.562-3.393 8.983-6.195 9.674 4.848.903 7.642-2.944 6.195-9.674z" class="E"/><path d="M798.57 217.427l-4.937 2.425-2.464-10.24-14.192-39.545c-4.12-10.637 14.867 2.586 21.32-.586l5.04 30.75c1.965 5.07-.178 14.942-4.767 17.197z" class="B"/><path d="M774.382 208.085c-.64-3.63.214-12.364 2.58-18.818l.015-18.795c1.68.69 6.73-.704 8.338-.61-.953.953 1.193 10.885 2.966 15.716-6.446 1.936-14.91 16.772-13.9 22.506z" class="E"/><path fill="#818181" d="M764.172 85.255l-37.083.028c-7.033.005-12.783 5.764-12.777 12.797l.077 97.384c.005 7.033 5.764 12.783 12.797 12.777l37.083-.028c7.033-.005 12.783-5.764 12.777-12.797l-.077-97.384c-.005-7.033-5.764-12.783-12.797-12.777z"/><path fill="#040302" d="M763.432 86.582l-35.6.028c-6.752.005-12.272 5.534-12.267 12.286l.075 95.753c.005 6.752 5.533 12.272 12.286 12.267l35.6-.028c6.752-.005 12.272-5.534 12.266-12.286l-.075-95.753c-.004-6.753-5.533-12.273-12.285-12.267z"/><circle fill="#4d4d4f" cx="745.72" cy="198.69" r="6.44"/><circle fill="#040302" cx="745.72" cy="198.69" r="4.883"/><path d="M768.058 199.692l-9.77.017a1.01 1.01 0 0 1-1.01-1.01c0-.556.454-1 1-1l9.77-.017a1.01 1.01 0 0 1 1.01 1c0 .546-.453 1-1 1zm-34.985 0l-9.77.017a1.01 1.01 0 0 1-1.01-1.01c0-.556.454-1 1-1l9.77-.017a1.01 1.01 0 0 1 1.01 1c0 .546-.454 1-1 1z" fill="#4d4d4f"/><path fill="#bef3fc" d="M771.308 99.142l-51.096.008v91.054l51.167-.03z"/><path d="M797.907 173.573l-1.748 5.23-6.28-2.73-19.057-8.274c-9.724-4.222-9.76-11.323-7.698-17.724.3-.928 1.07-1.26 1.93-.885l26.706 11.593c5 2.172 7.773 7.93 6.148 12.79z" class="B"/><path d="M763.208 149.615c.34-1.003 1.138-.797 1.58-.607l12 5.277c-2.208 4.24-8.81 2.112-12.995-1.28-.615-.5-1.018-2.1-.586-3.39z" class="G"/><path d="M774.382 208.085c-1.155-4.94 1.403-24.172 10.347-25.54-2.643-3.966-3.854-9.84-2.878-10.793-1.604-.095-2.897-.592-4.95-1.28 3.268-4.6 7.877-2.712 9.48-2.617-.976.953 3.957 13.964 5.61 18.795-4.187 3.806-9.54 22.952-17.6 21.435z" class="E"/><path d="M774.382 208.085c.13-5.13 2.584-23.556 10.347-25.54-2.74-3.966-3.724-9.84-2.77-10.793-1.606-.095-2.91-.592-4.98-1.28 3.155-4.6 7.8-2.712 9.416-2.617-.953.953 4.3 13.964 6.074 18.795-4.095 3.806-9.977 22.952-18.085 21.435z" class="B"/><g class="E"><path d="M787.235 169.894c-1.534 1.118-2.758 1.46-5.276 1.856 1.42.366 3.582.17 5.276-1.856zm6.657 12.806c-2.963-.946-5.043-.842-9.162-.157 2.017-1.303 5.48-2.115 9.162.157z"/><path d="M793.13 186.204c-2.373-2-4.334-2.713-8.4-3.66 2.363-.428 5.874.15 8.4 3.66z"/></g><path d="M706.095 189.257c-2.045 2.914-1.325 6.966 1.578 9.014l9.872 6.962a6.49 6.49 0 0 0 9.014-1.579c2.045-2.914 1.33-6.96-1.58-9.013l-9.872-6.963c-2.91-2.05-6.968-1.335-9.013 1.58z" class="B"/><path d="M715.512 195.638a5.51 5.51 0 0 0 1.339 7.646l.926.65a5.51 5.51 0 0 0 7.646-1.339 5.51 5.51 0 0 0-1.339-7.645l-.927-.65c-2.47-1.737-5.91-1.133-7.645 1.338z" class="G"/><path d="M696.933 163.956c-2.375 3.384-1.54 8.092 1.833 10.47l9.765 6.887c3.373 2.378 8.095 1.55 10.47-1.833s1.545-8.086-1.834-10.47l-9.766-6.888c-3.378-2.383-8.093-1.55-10.468 1.833z" class="B"/><path d="M707.218 171.04c-1.888 2.7-1.227 6.436 1.457 8.32l1.008.708a6 6 0 0 0 8.322-1.457c1.888-2.69 1.228-6.426-1.458-8.32l-1.01-.71a5.99 5.99 0 0 0-8.32 1.457z" class="G"/><path d="M773.692 152.946l3.097 1.338c-.762 1.464-2.14 2.14-3.787 2.26-.13-.84-.066-1.723.225-2.58a5.31 5.31 0 0 1 .465-1.017zm-66.474 18.094a5.95 5.95 0 0 0-.987 4.46c1.622-.092 3.2-.895 4.2-2.32a5.48 5.48 0 0 0 .79-4.608 5.96 5.96 0 0 0-3.995 2.468zm8.294 24.598a5.49 5.49 0 0 0-.721 4.844c1.707-.023 3.383-.833 4.432-2.328 1.026-1.462 1.233-3.26.72-4.846-1.707.023-3.38.835-4.43 2.33z" class="C"/><path fill="#797979" d="M735.665 93.342l19.93.016a.99.99 0 0 0 .985-.984.99.99 0 0 0-.984-.985l-19.93-.016c-.542 0-.985.442-.985.984a.99.99 0 0 0 .984.985z"/><path d="M802.516 212.565c-3.237 4.17-10.855 9.887-16.3 12.878 7.09-2.42 11.236-4.596 16.3-12.878z" class="E"/><radialGradient id="G" cx="340.812" cy="1004.629" r="20.417" gradientTransform="matrix(1 0 0 0.458 405.24 -315.7736)" gradientUnits="userSpaceOnUse"><stop offset="0" stop-color="#eeefef"/><stop offset=".604" stop-color="#eceded"/><stop offset=".822" stop-color="#e5e6e7"/><stop offset=".976" stop-color="#dadbdc"/><stop offset="1" stop-color="#d7d8da"/></radialGradient><path fill="url(#G)" d="M761.576 145.44v-.006h-31.892v.006l15.946 9.762z"/><path d="M761.262 139.31c.797.828.63 3.022.63 3.025s-31.892.003-31.892 0-.138-2.227.697-3.025l14.364-13.615c.5-.52 1.26-.507 1.77 0 .001 0 13.923 13.088 14.43 13.615z" class="F"/><path fill="#ddd" d="M745.947 142.654l-14.576-.001c-1.69-.001-1.69-.001-1.69-.32-.014-.227-.1-2.4.795-3.255l14.366-13.616c.6-.604 1.6-.612 2.212.005l14.435 13.62c.86.893.737 3.026.72 3.266.001.298.001.298-1.688.298l-14.575.002zm-15.638-.638h31.28c.017-.8-.082-1.993-.557-2.487-.496-.515-14.28-13.473-14.42-13.604-.393-.39-.952-.388-1.324-.01l-14.372 13.623c-.498.477-.615 1.697-.608 2.477z"/><path d="M693.17 89.835c0-5.052 2.022-9.634 5.288-13.003l-3.592-1.373c-3.3 3.885-5.284 8.9-5.284 14.376 0 5.106 1.744 9.8 4.643 13.563l3.52-1.346c-2.842-3.28-4.575-7.546-4.575-12.217zm9.268 0c0-4.195 2.755-7.756 6.548-8.978l-4.512-1.725c-3.394 2.353-5.624 6.27-5.624 10.703 0 4.015 1.83 7.6 4.696 10l4.113-1.572c-3.1-1.55-5.22-4.742-5.22-8.428zm-18.238 0a27.51 27.51 0 0 1 5.395-16.39l-3.46-1.323a31.07 31.07 0 0 0-5.523 17.714c0 6.2 1.828 12 4.964 16.87l3.427-1.3a27.51 27.51 0 0 1-4.803-15.56zm115.802-1.96c0-5.052-2.022-9.634-5.288-13.003l3.592-1.373c3.3 3.885 5.284 8.9 5.284 14.376 0 5.106-1.744 9.8-4.643 13.563l-3.52-1.346c2.842-3.28 4.575-7.546 4.575-12.217zm-9.268 0c0-4.195-2.755-7.756-6.55-8.978l4.512-1.725c3.394 2.353 5.624 6.27 5.624 10.703 0 4.015-1.83 7.6-4.696 10l-4.113-1.572c3.1-1.55 5.222-4.742 5.222-8.428zm18.236 0a27.51 27.51 0 0 0-5.395-16.39l3.46-1.323a31.07 31.07 0 0 1 5.523 17.714c0 6.2-1.828 12-4.964 16.87l-3.427-1.3a27.52 27.52 0 0 0 4.803-15.56z" fill="#9b9b9b"/><path fill="#d8cfc6" d="M755 157.05a1.44 1.44 0 0 1-1.449 1.433l-14.797-.08a1.44 1.44 0 0 1-1.433-1.449l.19-35.35a1.44 1.44 0 0 1 1.449-1.433l14.797.08a1.44 1.44 0 0 1 1.433 1.449l-.19 35.35z"/><g fill="#788221"><path d="M740.978 123.897l10.737.057-.165 30.807-10.737-.057.165-30.807m-.192-1.636a1.44 1.44 0 0 0-1.441 1.433l-.167 31.194a1.44 1.44 0 0 0 1.433 1.449l11.124.06c.8 0 1.444-.64 1.45-1.434l.167-31.194a1.44 1.44 0 0 0-1.433-1.449l-11.132-.058zm4.734 25.587c-.32.232-.742.265-1.094.084a1.05 1.05 0 0 1-.57-.938l.087-16.378a1.05 1.05 0 0 1 1.053-1.042l2.637.014c.278.002.544.113.74.3a1.05 1.05 0 0 1 .303.742l-.093 17.4a1.04 1.04 0 0 1-.311.739c-.197.196-1.235-1.83-1.513-1.833l-1.24.9z"/><ellipse transform="matrix(1 .0053 -.0053 1 .749 -3.9534)" cx="746.299" cy="139.346" rx="4.353" ry="3.028"/></g><path fill="#d8cfc6" d="M750.618 139.352c-.01 1.673-1.965 3.018-4.37 3.005s-4.346-1.38-4.337-3.052 1.965-3.018 4.37-3.005 4.346 1.38 4.337 3.052m1.022.005c.012-2.27-2.34-4.063-5.353-4.08s-5.384 1.75-5.396 4.02 2.34 4.063 5.353 4.08 5.384-1.75 5.396-4.02z"/><path d="M732.043 142.698c-.586-.363-2.042-.46-2.042-.46v19.524L745.947 152l-13.904-9.302z" class="F"/><path fill="#ddd" d="M730 162.08c-.053 0-.107-.014-.155-.04a.32.32 0 0 1-.163-.278V142.24a.32.32 0 0 1 .101-.232.33.33 0 0 1 .238-.085c.157.01 1.553.114 2.188.506.585.362 13.37 8.944 13.914 9.31.1.06.143.162.14.27a.32.32 0 0 1-.152.265l-15.946 9.762c-.05.03-.108.046-.166.046zm.318-19.494v18.607l15.04-9.206-13.482-9.02c-.332-.205-1.068-.326-1.557-.38z"/><path d="M759.833 142.698c.587-.363 2.06-.46 2.06-.46l-.018 19.524L745.93 152l13.904-9.302z" class="F"/><path fill="#ddd" d="M761.876 162.08a.32.32 0 0 1-.166-.047l-15.946-9.762c-.093-.057-.15-.157-.152-.265s.05-.21.14-.27l13.914-9.31c.635-.393 2.047-.496 2.206-.507.098-.005.175.025.238.085s.1.144.1.232l-.018 19.524c0 .116-.062.22-.163.278a.31.31 0 0 1-.155.042zm-15.358-10.093l15.04 9.207.017-18.61c-.495.055-1.24.176-1.574.382-.517.32-11.23 7.5-13.483 9.02z"/><path d="M761.887 161.76c-.003-.002.14-1.112-1.02-1.926l-12.26-8.566c-.463-.33-1.305-.598-2.687-.598s-2.188.27-2.65.598l-12.26 8.566c-1.082.74-1.015 1.924-1.02 1.926.005.01 31.89.01 31.893.01z" class="F"/><path fill="#ddd" d="M761.887 162.087h-31.892c-.176 0-.326-.145-.326-.32a.35.35 0 0 1 .007-.065c.01-.383.134-1.43 1.157-2.13l12.257-8.564c.61-.435 1.564-.655 2.833-.655 1.61 0 2.45.357 2.87.656-.001 0 11.43 7.984 12.258 8.566 1.093.767 1.17 1.774 1.156 2.143a.28.28 0 0 1 .004.05c0 .175-.15.32-.325.32zm-31.55-.636h31.225c-.043-.347-.222-.898-.875-1.357l-12.258-8.566c-.286-.203-.988-.54-2.506-.54-1.412 0-2.12.293-2.466.54l-12.265 8.57c-.605.413-.796.986-.855 1.355z"/></g></svg>