<?xml version="1.0" encoding="utf-8"?>
<!-- Generator: Adobe Illustrator 17.0.0, SVG Export Plug-In . SVG Version: 6.00 Build 0)  -->
<!DOCTYPE svg PUBLIC "-//W3C//DTD SVG 1.1//EN" "http://www.w3.org/Graphics/SVG/1.1/DTD/svg11.dtd">
<svg version="1.1" id="Layer_1" xmlns="http://www.w3.org/2000/svg" xmlns:xlink="http://www.w3.org/1999/xlink" x="0px" y="0px"
	 width="50px" height="50px" viewBox="0 0 50 50" enable-background="new 0 0 50 50" xml:space="preserve">
<g>
	<g>
		
			<rect x="18.274" y="22.616" transform="matrix(0.9561 0.2932 -0.2932 0.9561 10.6094 -4.0826)" fill="#231912" width="1.3" height="21.471"/>
		
			<rect x="31.377" y="22.616" transform="matrix(-0.9561 0.2932 -0.2932 -0.9561 72.4237 55.847)" fill="#231912" width="1.3" height="21.471"/>
		<path fill="#231912" d="M21.732,9.574L21.732,9.574c-0.727,0-1.321-0.595-1.321-1.321l0,0c0-0.727,0.595-1.321,1.321-1.321l0,0
			c0.727,0,1.321,0.595,1.321,1.321l0,0C23.053,8.979,22.458,9.574,21.732,9.574z"/>
		<path fill="#231912" d="M30.263,7.318L30.263,7.318c0.514,0.514,0.514,1.355,0,1.869l0,0c-0.514,0.514-1.355,0.514-1.869,0l0,0
			c-0.514-0.514-0.514-1.355,0-1.869l0,0C28.909,6.805,29.749,6.805,30.263,7.318z"/>
		<path fill="#E14439" d="M30.308,14.847H20.092c-1.813,0-3.297-1.484-3.297-3.297v0c0-1.813,1.484-3.297,3.297-3.297h10.216
			c1.813,0,3.297,1.484,3.297,3.297v0C33.605,13.363,32.121,14.847,30.308,14.847z"/>
		<path fill="#3CC2D1" d="M35.88,13.972c-0.11-2.092-5.615-3.413-10.68-3.413c-5.065,0-10.57,1.321-10.68,3.413
			c-0.11,2.092-1.321,18.498,0,19.819c1.321,1.321,6.166,1.762,10.68,1.762c4.514,0,9.359-0.44,10.68-1.762
			C37.202,32.47,35.99,16.064,35.88,13.972z"/>
		<path fill="#065E6C" d="M33.712,24.322H16.688c-0.468,0-0.848-0.379-0.848-0.848v-5.352c0-0.468,0.379-0.848,0.848-0.848h17.023
			c0.468,0,0.848,0.379,0.848,0.848v5.352C34.559,23.943,34.18,24.322,33.712,24.322z"/>
		<path fill="#FFFFFF" d="M33.085,23.632H17.315c-0.468,0-0.848-0.379-0.848-0.848v-3.971c0-0.468,0.379-0.848,0.848-0.848h15.769
			c0.468,0,0.848,0.379,0.848,0.848v3.971C33.932,23.252,33.553,23.632,33.085,23.632z"/>
		<circle fill="#FFFFFF" cx="18.924" cy="29.828" r="2.532"/>
		<circle fill="#FFCA0B" cx="18.924" cy="29.828" r="1.872"/>
		<circle fill="#FFFFFF" cx="32.027" cy="29.828" r="2.532"/>
		<circle fill="#FFCA0B" cx="32.027" cy="29.828" r="1.872"/>
		<path fill="#E14439" d="M27.512,28.947h-4.625c-0.363,0-0.661-0.297-0.661-0.661l0,0c0-0.363,0.297-0.661,0.661-0.661h4.625
			c0.363,0,0.661,0.297,0.661,0.661l0,0C28.173,28.649,27.876,28.947,27.512,28.947z"/>
		<path fill="#E14439" d="M28.283,15.52h-6.166c-0.363,0-0.661-0.297-0.661-0.661v-0.343c0-0.363,0.297-0.661,0.661-0.661h6.166
			c0.363,0,0.661,0.297,0.661,0.661v0.343C28.944,15.222,28.646,15.52,28.283,15.52z"/>
		<path fill="#E14439" d="M27.512,31.149h-4.625c-0.363,0-0.661-0.297-0.661-0.661l0,0c0-0.363,0.297-0.661,0.661-0.661h4.625
			c0.363,0,0.661,0.297,0.661,0.661l0,0C28.173,30.852,27.876,31.149,27.512,31.149z"/>
		<path fill="#E14439" d="M27.512,33.351h-4.625c-0.363,0-0.661-0.297-0.661-0.661l0,0c0-0.363,0.297-0.661,0.661-0.661h4.625
			c0.363,0,0.661,0.297,0.661,0.661l0,0C28.173,33.054,27.876,33.351,27.512,33.351z"/>
		<rect x="16.408" y="40.8" fill="#231912" width="17.842" height="0.958"/>
		<rect x="17.655" y="35.771" fill="#231912" width="15.346" height="0.958"/>
	</g>
</g>
</svg>
