<svg xmlns="http://www.w3.org/2000/svg" xmlns:xlink="http://www.w3.org/1999/xlink" width="343.912" height="228.5"><style><![CDATA[.B{fill:#414042}.C{fill:#9e9e9e}.D{fill:#d8cfc6}.E{fill:#788221}.F{fill:#f4ce8e}.G{fill:#dc5b3e}.H{fill:#951a45}]]></style><radialGradient id="A" cx="549.468" cy="-338.36" r="7.949" gradientTransform="matrix(0.6018 -0.0015 -0.0292 -11.6009 -240.3842 -3805.9644)" gradientUnits="userSpaceOnUse"><stop offset=".005" stop-color="#231f20" stop-opacity=".4"/><stop offset="1" stop-color="#231f20" stop-opacity="0"/></radialGradient><path fill="url(#A)" d="M105.15 118.482c.13 52.218-2.004 94.553-4.768 94.56s-5.112-42.317-5.243-94.535 2.004-94.552 4.768-94.56 5.11 42.318 5.243 94.534z"/><radialGradient id="B" cx="763.592" cy="-338.613" r="7.948" gradientTransform="matrix(0.6018 -0.0015 -0.0292 -11.6009 -240.3907 -3808.5708)" gradientUnits="userSpaceOnUse"><stop offset=".005" stop-color="#231f20" stop-opacity=".4"/><stop offset="1" stop-color="#231f20" stop-opacity="0"/></radialGradient><path fill="url(#B)" d="M234 118.482c.13 52.218-2.004 94.553-4.768 94.56s-5.112-42.317-5.243-94.535 2.004-94.552 4.768-94.56 5.112 42.318 5.243 94.534z"/><radialGradient id="C" cx="-1530.588" cy="-1134.677" r="7.944" gradientTransform="matrix(-0.0015 -0.6018 -7.8595 0.0201 -8758.0439 -878.363)" gradientUnits="userSpaceOnUse"><stop offset=".005" stop-color="#231f20" stop-opacity=".4"/><stop offset="1" stop-color="#231f20" stop-opacity="0"/></radialGradient><path fill="url(#C)" d="M162.232 15c35.378-.09 64.06 2.08 64.07 4.845s-28.666 5.078-64.044 5.166-64.06-2.08-64.068-4.845S126.855 15.09 162.232 15z"/><radialGradient id="D" cx="-1853.901" cy="-1134.114" r="7.944" gradientTransform="matrix(-0.0015 -0.6018 -7.8595 0.0201 -8754.1074 -878.3732)" gradientUnits="userSpaceOnUse"><stop offset=".005" stop-color="#231f20" stop-opacity=".4"/><stop offset="1" stop-color="#231f20" stop-opacity="0"/></radialGradient><path fill="url(#D)" d="M162.232 209.572c35.378-.088 64.06 2.08 64.07 4.845s-28.666 5.077-64.044 5.166-64.06-2.08-64.068-4.844 28.666-5.078 64.043-5.167z"/><path fill="#fff" d="M100.774 21.515h127.27V214.88h-127.27z"/><linearGradient id="E" gradientUnits="userSpaceOnUse" x1="151.073" y1="101.605" x2="223.591" y2="191.829"><stop offset=".425" stop-color="#58595b"/><stop offset=".669" stop-color="#5a5b5d" stop-opacity=".703"/><stop offset=".806" stop-color="#626365" stop-opacity=".536"/><stop offset=".916" stop-color="#707173" stop-opacity=".403"/><stop offset="1" stop-color="#808184" stop-opacity=".3"/></linearGradient><path fill="url(#E)" d="M100.774 21.515h127.27V214.88h-127.27z"/><path d="M238.748 164.48c.217 1.216-.622 2.382-1.874 2.605l-23.266 4.152c-1.252.224-2.442-.58-2.657-1.797l-9.617-53.986c-.217-1.216.623-2.38 1.874-2.605l23.266-4.152c1.252-.224 2.442.58 2.657 1.797l9.617 53.986z" class="D"/><g class="E"><path d="M207.408 117.952l16.882-3.013 8.38 47.047L215.8 165l-8.38-47.047m-.76-2.44c-1.244.23-2.078 1.4-1.862 2.602l8.486 47.638c.217 1.216 1.407 2.02 2.657 1.797l17.5-3.122c1.257-.23 2.1-1.393 1.874-2.606l-8.486-47.638c-.217-1.216-1.406-2.02-2.657-1.797l-17.503 3.126zm14.612 37.667a1.71 1.71 0 0 1-1.695.444c-.605-.176-1.05-.663-1.157-1.267l-4.457-25.012c-.158-.884.453-1.73 1.362-1.894l4.146-.74a1.7 1.7 0 0 1 1.248.26c.362.245.608.622.684 1.045l4.734 26.572a1.6 1.6 0 0 1-.28 1.217c-.255.354-2.453-2.437-2.9-2.36l-1.693 1.734z"/><ellipse transform="matrix(.9844 -.1757 .1757 .9844 -21.1749 40.857)" cx="220.099" cy="139.986" rx="6.952" ry="4.697"/></g><path d="M226.885 138.747c.455 2.555-2.24 5.172-6.02 5.846s-7.214-.85-7.67-3.404 2.24-5.172 6.02-5.846 7.214.85 7.67 3.404m1.607-.287c-.618-3.468-4.814-5.523-9.553-4.677s-7.967 4.225-7.35 7.693 4.814 5.523 9.553 4.677 7.967-4.225 7.35-7.693z" class="D"/><path fill="#e5e6e7" d="M227.8 20.787s1.688 63.15-5.345 87.647l-56.34 104.435s-21.114 1.25-65.582 1.282V20.787H227.8z"/><linearGradient id="F" gradientUnits="userSpaceOnUse" x1="209.35" y1="181.25" x2="179.218" y2="140.048"><stop offset="0" stop-color="#f0f1f1" stop-opacity=".3"/><stop offset=".005" stop-color="#cecfcf" stop-opacity=".305"/><stop offset=".011" stop-color="#afb0b0" stop-opacity=".31"/><stop offset=".018" stop-color="#939496" stop-opacity=".317"/><stop offset=".026" stop-color="#7d7e80" stop-opacity=".325"/><stop offset=".035" stop-color="#6c6d6f" stop-opacity=".333"/><stop offset=".046" stop-color="#616264" stop-opacity=".344"/><stop offset=".062" stop-color="#5a5b5d" stop-opacity=".36"/><stop offset=".105" stop-color="#58595b" stop-opacity=".4"/><stop offset=".228" stop-color="#808184" stop-opacity=".3"/><stop offset=".279" stop-color="#999a9c" stop-opacity=".3"/><stop offset=".356" stop-color="#b8b9ba" stop-opacity=".3"/><stop offset=".442" stop-color="#d2d2d4" stop-opacity=".3"/><stop offset=".535" stop-color="#e6e6e7" stop-opacity=".3"/><stop offset=".642" stop-color="#f4f4f5" stop-opacity=".3"/><stop offset=".772" stop-color="#fdfdfd" stop-opacity=".3"/><stop offset=".995" stop-color="#fff" stop-opacity=".3"/></linearGradient><path fill="url(#F)" d="M166.115 212.87s-14.167-48.143-15.38-62.452c0 0 58.387-20.667 71.72-41.983l-56.34 104.435z"/><circle cx="113.511" cy="28.929" r="2.504" class="B"/><path d="M113.784 30.722c-1.383 0-2.504-1.12-2.504-2.504 0-.17.018-.336.05-.497-.2.36-.323.767-.323 1.207 0 1.383 1.12 2.503 2.504 2.503 1.213 0 2.223-.862 2.453-2.006-.426.77-1.237 1.297-2.18 1.297z" class="C"/><circle cx="126.236" cy="28.929" r="2.504" class="B"/><path d="M126.51 30.722c-1.383 0-2.504-1.12-2.504-2.504 0-.17.018-.336.05-.497-.2.36-.323.767-.323 1.207 0 1.383 1.12 2.503 2.504 2.503 1.213 0 2.223-.862 2.453-2.006a2.49 2.49 0 0 1-2.18 1.297z" class="C"/><circle cx="138.96" cy="28.929" r="2.504" class="B"/><path d="M139.233 30.722c-1.383 0-2.504-1.12-2.504-2.504 0-.17.018-.336.05-.497-.2.36-.323.767-.323 1.207 0 1.383 1.12 2.503 2.503 2.503 1.213 0 2.223-.862 2.454-2.006a2.49 2.49 0 0 1-2.18 1.297z" class="C"/><circle cx="151.684" cy="28.929" r="2.504" class="B"/><path d="M151.957 30.722c-1.383 0-2.504-1.12-2.504-2.504 0-.17.018-.336.05-.497-.2.36-.323.767-.323 1.207 0 1.383 1.12 2.503 2.504 2.503 1.213 0 2.223-.862 2.454-2.006a2.49 2.49 0 0 1-2.181 1.297z" class="C"/><circle cx="164.409" cy="28.929" r="2.503" class="B"/><path d="M164.68 30.722c-1.382 0-2.504-1.12-2.504-2.504 0-.17.018-.336.05-.497-.2.36-.323.767-.323 1.207 0 1.383 1.12 2.503 2.504 2.503 1.212 0 2.223-.862 2.453-2.006-.426.77-1.237 1.297-2.18 1.297z" class="C"/><circle cx="177.133" cy="28.929" r="2.504" class="B"/><path d="M177.406 30.722c-1.383 0-2.504-1.12-2.504-2.504 0-.17.018-.336.05-.497-.2.36-.323.767-.323 1.207 0 1.383 1.12 2.503 2.504 2.503 1.213 0 2.223-.862 2.454-2.006-.428.77-1.238 1.297-2.18 1.297z" class="C"/><circle cx="189.857" cy="28.929" r="2.504" class="B"/><path d="M190.13 30.722c-1.383 0-2.504-1.12-2.504-2.504 0-.17.018-.336.05-.497-.2.36-.323.767-.323 1.207 0 1.383 1.12 2.503 2.504 2.503 1.212 0 2.223-.862 2.453-2.006a2.49 2.49 0 0 1-2.18 1.297z" class="C"/><circle cx="202.582" cy="28.929" r="2.504" class="B"/><path d="M202.855 30.722c-1.383 0-2.504-1.12-2.504-2.504 0-.17.018-.336.05-.497-.2.36-.323.767-.323 1.207 0 1.383 1.12 2.503 2.504 2.503 1.212 0 2.223-.862 2.454-2.006-.428.77-1.24 1.297-2.18 1.297z" class="C"/><circle cx="215.306" cy="28.929" r="2.504" class="B"/><path d="M215.58 30.722c-1.383 0-2.504-1.12-2.504-2.504 0-.17.018-.336.05-.497-.2.36-.323.767-.323 1.207 0 1.383 1.12 2.503 2.503 2.503 1.212 0 2.223-.862 2.454-2.006-.426.77-1.237 1.297-2.18 1.297z" class="C"/><linearGradient id="G" gradientUnits="userSpaceOnUse" x1="112.538" y1="15.074" x2="112.538" y2="28.881"><stop offset="0" stop-color="#8f9193"/><stop offset=".215" stop-color="#bbbdbf"/><stop offset=".441" stop-color="#fff"/><stop offset=".807" stop-color="#bbbdbf"/><stop offset="1" stop-color="#58595b"/></linearGradient><use xlink:href="#Y" fill="url(#G)"/><linearGradient id="H" gradientUnits="userSpaceOnUse" x1="111.259" y1="22.511" x2="113.277" y2="22.511"><stop offset="0" stop-color="#58595b"/><stop offset="1" stop-color="#e5e6e7" stop-opacity="0"/></linearGradient><use xlink:href="#Y" fill="url(#H)"/><linearGradient id="I" gradientUnits="userSpaceOnUse" x1="113.818" y1="22.511" x2="111.8" y2="22.511"><stop offset="0" stop-color="#58595b"/><stop offset="1" stop-color="#e5e6e7" stop-opacity="0"/></linearGradient><use xlink:href="#Z" fill="url(#I)"/><use xlink:href="#Y" x="1.999" fill="url(#G)"/><use xlink:href="#Y" x="1.999" fill="url(#H)"/><linearGradient id="J" gradientUnits="userSpaceOnUse" x1="113.817" y1="22.511" x2="111.8" y2="22.511"><stop offset="0" stop-color="#58595b"/><stop offset="1" stop-color="#e5e6e7" stop-opacity="0"/></linearGradient><use xlink:href="#Z" x="2" fill="url(#J)"/><use xlink:href="#Y" x="12.733" fill="url(#G)"/><linearGradient id="K" gradientUnits="userSpaceOnUse" x1="111.258" y1="22.511" x2="113.276" y2="22.511"><stop offset="0" stop-color="#58595b"/><stop offset="1" stop-color="#e5e6e7" stop-opacity="0"/></linearGradient><use xlink:href="#Y" x="12.733" fill="url(#K)"/><linearGradient id="L" gradientUnits="userSpaceOnUse" x1="113.817" y1="22.511" x2="111.799" y2="22.511"><stop offset="0" stop-color="#58595b"/><stop offset="1" stop-color="#e5e6e7" stop-opacity="0"/></linearGradient><use xlink:href="#Z" x="12.734" fill="url(#L)"/><use xlink:href="#Y" x="14.732" fill="url(#G)"/><linearGradient id="M" gradientUnits="userSpaceOnUse" x1="111.259" y1="22.511" x2="113.276" y2="22.511"><stop offset="0" stop-color="#58595b"/><stop offset="1" stop-color="#e5e6e7" stop-opacity="0"/></linearGradient><use xlink:href="#Y" x="14.732" fill="url(#M)"/><linearGradient id="N" gradientUnits="userSpaceOnUse" x1="113.818" y1="22.511" x2="111.799" y2="22.511"><stop offset="0" stop-color="#58595b"/><stop offset="1" stop-color="#e5e6e7" stop-opacity="0"/></linearGradient><use xlink:href="#Z" x="14.733" fill="url(#N)"/><use xlink:href="#Y" x="25.465" fill="url(#G)"/><use xlink:href="#Y" x="25.465" fill="url(#H)"/><use xlink:href="#Z" x="25.466" fill="url(#J)"/><use xlink:href="#Y" x="27.465" fill="url(#G)"/><use xlink:href="#Y" x="27.465" fill="url(#K)"/><linearGradient id="O" gradientUnits="userSpaceOnUse" x1="113.816" y1="22.511" x2="111.799" y2="22.511"><stop offset="0" stop-color="#58595b"/><stop offset="1" stop-color="#e5e6e7" stop-opacity="0"/></linearGradient><use xlink:href="#Z" x="27.466" fill="url(#O)"/><use xlink:href="#Y" x="38.198" fill="url(#G)"/><use xlink:href="#Y" x="38.198" fill="url(#M)"/><linearGradient id="P" gradientUnits="userSpaceOnUse" x1="113.817" y1="22.511" x2="111.798" y2="22.511"><stop offset="0" stop-color="#58595b"/><stop offset="1" stop-color="#e5e6e7" stop-opacity="0"/></linearGradient><use xlink:href="#Z" x="38.2" fill="url(#P)"/><use xlink:href="#Y" x="40.197" fill="url(#G)"/><use xlink:href="#Y" x="40.197" fill="url(#H)"/><linearGradient id="Q" gradientUnits="userSpaceOnUse" x1="113.816" y1="22.511" x2="111.798" y2="22.511"><stop offset="0" stop-color="#58595b"/><stop offset="1" stop-color="#e5e6e7" stop-opacity="0"/></linearGradient><use xlink:href="#Z" x="40.2" fill="url(#Q)"/><linearGradient id="R" gradientUnits="userSpaceOnUse" x1="163.469" y1="15.074" x2="163.469" y2="28.881"><stop offset="0" stop-color="#8f9193"/><stop offset=".215" stop-color="#bbbdbf"/><stop offset=".441" stop-color="#fff"/><stop offset=".807" stop-color="#bbbdbf"/><stop offset="1" stop-color="#58595b"/></linearGradient><use xlink:href="#a" fill="url(#R)"/><linearGradient id="S" gradientUnits="userSpaceOnUse" x1="162.189" y1="22.511" x2="164.207" y2="22.511"><stop offset="0" stop-color="#58595b"/><stop offset="1" stop-color="#e5e6e7" stop-opacity="0"/></linearGradient><use xlink:href="#a" fill="url(#S)"/><use xlink:href="#Z" x="50.932" fill="url(#Q)"/><use xlink:href="#Y" x="52.93" fill="url(#G)"/><use xlink:href="#Y" x="52.93" fill="url(#M)"/><linearGradient id="T" gradientUnits="userSpaceOnUse" x1="166.748" y1="22.511" x2="164.73" y2="22.511"><stop offset="0" stop-color="#58595b"/><stop offset="1" stop-color="#e5e6e7" stop-opacity="0"/></linearGradient><path fill="url(#T)" d="M164.822 28.57c0 .38.29.7.646.7s.647-.31.647-.7V16.454c0-.38-.3-.7-.647-.7s-.646.31-.646.7V28.57z"/><use xlink:href="#Y" x="63.663" fill="url(#G)"/><use xlink:href="#Y" x="63.663" fill="url(#H)"/><use xlink:href="#Z" x="63.664" fill="url(#O)"/><use xlink:href="#Y" x="65.663" fill="url(#G)"/><use xlink:href="#Y" x="65.663" fill="url(#K)"/><use xlink:href="#Z" x="65.664" fill="url(#O)"/><linearGradient id="U" gradientUnits="userSpaceOnUse" x1="112.539" y1="15.074" x2="112.539" y2="28.881"><stop offset="0" stop-color="#8f9193"/><stop offset=".215" stop-color="#bbbdbf"/><stop offset=".441" stop-color="#fff"/><stop offset=".807" stop-color="#bbbdbf"/><stop offset="1" stop-color="#58595b"/></linearGradient><use xlink:href="#Y" x="76.395" fill="url(#U)"/><use xlink:href="#Y" x="76.395" fill="url(#H)"/><use xlink:href="#Z" x="76.397" fill="url(#P)"/><use xlink:href="#Y" x="78.395" fill="url(#G)"/><use xlink:href="#Y" x="78.395" fill="url(#H)"/><linearGradient id="V" gradientUnits="userSpaceOnUse" x1="192.214" y1="22.511" x2="190.195" y2="22.511"><stop offset="0" stop-color="#58595b"/><stop offset="1" stop-color="#e5e6e7" stop-opacity="0"/></linearGradient><path fill="url(#V)" d="M190.286 28.57c0 .38.3.7.647.7s.648-.31.648-.7V16.454c0-.38-.3-.7-.648-.7s-.647.31-.647.7V28.57z"/><use xlink:href="#Y" x="89.129" fill="url(#G)"/><use xlink:href="#Y" x="89.129" fill="url(#K)"/><use xlink:href="#Z" x="89.13" fill="url(#O)"/><use xlink:href="#Y" x="91.128" fill="url(#G)"/><use xlink:href="#Y" x="91.128" fill="url(#K)"/><use xlink:href="#Z" x="91.13" fill="url(#O)"/><use xlink:href="#Y" x="101.861" fill="url(#G)"/><linearGradient id="W" gradientUnits="userSpaceOnUse" x1="111.258" y1="22.511" x2="113.277" y2="22.511"><stop offset="0" stop-color="#58595b"/><stop offset="1" stop-color="#e5e6e7" stop-opacity="0"/></linearGradient><use xlink:href="#Y" x="101.861" fill="url(#W)"/><use xlink:href="#Z" x="101.862" fill="url(#L)"/><use xlink:href="#Y" x="103.861" fill="url(#G)"/><use xlink:href="#Y" x="103.861" fill="url(#K)"/><use xlink:href="#Z" x="103.862" fill="url(#L)"/><g fill="#808184"><use xlink:href="#b"/><use xlink:href="#b" y="4.912"/><use xlink:href="#b" y="9.824"/><use xlink:href="#b" y="14.736"/><use xlink:href="#b" y="19.649"/><use xlink:href="#b" y="24.561"/><use xlink:href="#b" y="29.474"/><use xlink:href="#b" y="34.386"/><use xlink:href="#b" y="39.298"/><use xlink:href="#b" y="44.211"/><use xlink:href="#b" y="49.123"/><use xlink:href="#b" y="54.036"/><use xlink:href="#b" y="58.948"/><use xlink:href="#b" y="63.86"/><use xlink:href="#b" y="68.773"/><use xlink:href="#b" y="73.686"/><use xlink:href="#b" y="78.596"/><use xlink:href="#b" y="83.51"/><use xlink:href="#b" y="88.422"/><use xlink:href="#b" y="93.334"/><use xlink:href="#b" y="98.246"/><use xlink:href="#b" y="103.159"/><use xlink:href="#b" y="108.071"/><use xlink:href="#b" y="112.983"/><use xlink:href="#b" y="117.896"/><use xlink:href="#b" y="122.808"/><use xlink:href="#b" y="127.721"/><use xlink:href="#b" y="132.633"/><use xlink:href="#b" y="137.546"/><use xlink:href="#b" y="142.458"/><use xlink:href="#b" y="147.37"/><use xlink:href="#b" y="152.282"/></g><g class="F"><path d="M189.537 81.943l-.2.113.198-.098-.004-.007-.003-.008zm-1.664-3.03l-.002-.005-.2.1c.066-.037.132-.067.198-.098l-.005-.008zM191.2 85l.015-.004-.002-.005zm-4.98-9.1v.01-.01z"/><path d="M191.205 84.987l.004-.003-.005.001z"/><path d="M191.203 84.98h.005v.006h-.005zm-1.663-3.03h.004v.008h-.004z"/></g><path d="M189.538 81.943h.005v.007h-.005zm-1.662-3.03h.005v.008h-.005z" class="G"/><g class="H"><path d="M186.212 75.876l-.004.003h.001z"/><path d="M186.2 75.877h.005v.006h-.005zm1.662 3.03h.005v.006h-.005z"/></g><path d="M190.372 81.743h.005v3.45h-.005z" class="F"/><path d="M188.707 78.708h.004v3.448h-.004z" class="G"/><path fill="#f89830" d="M189.547 81.955l1.662 3.03L283.612 34.3l-1.665-3.037-92.404 50.686z"/><path d="M187.882 78.92l1.66 3.028 92.404-50.686-1.667-3.036-92.402 50.687z" class="G"/><path d="M186.215 75.88l1.663 3.032 92.402-50.687-1.666-3.036-92.402 50.686z" class="H"/><path fill="#f6debc" d="M189.544 81.958l-.198.098c-1.366.75-2.102 2.04-1.642 2.877.14.256.378.44.675.55l2.8-.495-1.645-3.03z"/><path d="M187.878 78.922l-.198.098c-1.366.75-2.103 2.04-1.642 2.875s1.94.9 3.307.16c.066-.034.128-.073.19-.113l-1.658-3.02z" class="G"/><g class="H"><path d="M186.212 75.884l-1.94 2.11c-.066.31-.038.61.102.866.46.837 1.94.91 3.307.16l.19-.11-1.66-3.026z"/><path d="M187.875 78.9l-1.66-3.026.004-.002 1.66 3.026z"/></g><path d="M188.38 85.484c-.297-.1-.535-.295-.675-.55-.46-.84.276-2.127 1.642-2.877-1.366.75-2.847.68-3.307-.16s.276-2.126 1.642-2.875c-1.366.75-2.847.677-3.307-.16-.14-.257-.17-.554-.102-.866l-4.975 5.43 1.832 3.338 7.25-1.278z" class="F"/><path fill="#471540" d="M181.128 86.762l-1.832-3.338-4 4.364z"/><path fill="#b3b3b3" d="M280.384 24.218l4.997 9.108-3.696 2.028-4.997-9.108z"/><path d="M283.612 34.3l4.348-2.386c1.64-.9 2.725-2.073 2.425-2.62l-3.907-7.12c-.302-.55-1.875-.264-3.515.635l-4.348 2.384 4.997 9.11z" class="F"/><path d="M208.606 213.46c.52 1.12.01 2.462-1.143 2.998l-21.422 9.98c-1.152.537-2.51.065-3.03-1.055L159.87 175.67c-.52-1.12-.01-2.46 1.143-2.998l21.422-9.98c1.152-.537 2.51-.065 3.03 1.055l23.143 49.713z" class="D"/><g class="E"><path d="M166.38 176.528l15.544-7.243 20.168 43.323-15.544 7.243-20.168-43.323m-1.36-2.164c-1.144.54-1.65 1.878-1.132 2.993l20.42 43.868c.52 1.12 1.88 1.592 3.03 1.055l16.105-7.504c1.156-.545 1.662-1.882 1.143-3l-20.42-43.868c-.52-1.12-1.877-1.592-3.03-1.055l-16.116 7.5zm23.786 32.66a1.71 1.71 0 0 1-1.524.864c-.628-.012-1.186-.372-1.443-.928l-10.723-23.032c-.38-.814-.006-1.8.83-2.18l3.818-1.78c.403-.187.86-.213 1.273-.068s.747.445.93.834l11.4 24.47c.183.4.197.84.04 1.25s-2.996-1.726-3.4-1.54l-1.193 2.1z"/><ellipse transform="matrix(.9064 -.4224 .4224 .9064 -64.9334 96.0471)" cx="184.297" cy="194.569" rx="6.952" ry="4.697"/></g><g class="D"><path d="M190.54 191.63c1.095 2.353-.84 5.573-4.32 7.195s-7.2 1.03-8.285-1.323.84-5.573 4.32-7.195 7.2-1.03 8.285 1.323m1.48-.69c-1.487-3.194-6.07-4.104-10.433-2.07s-6.616 6.127-5.13 9.32 6.07 4.104 10.433 2.07 6.617-6.126 5.13-9.32z"/><path d="M215.865 210.01c.1 1.23-.83 2.32-2.095 2.43l-23.54 2.1c-1.266.113-2.382-.792-2.5-2.022l-4.857-54.62c-.1-1.23.83-2.317 2.095-2.43l23.54-2.1c1.266-.113 2.382.792 2.5 2.022l4.857 54.62z"/></g><g class="E"><path d="M188.717 160.92l17.08-1.525 4.232 47.6-17.08 1.525-4.232-47.6m-.544-2.497c-1.26.12-2.192 1.204-2.082 2.43l4.285 48.198c.1 1.23 1.225 2.136 2.5 2.022l17.697-1.58c1.272-.12 2.203-1.205 2.095-2.432l-4.285-48.198c-.1-1.23-1.224-2.136-2.5-2.022l-17.697 1.58-.013.003zm11.26 38.802c-.475.406-1.14.52-1.727.294s-1-.753-1.042-1.363l-2.25-25.306c-.08-.895.603-1.685 1.522-1.767l4.195-.374c.442-.04.882.093 1.22.37a1.67 1.67 0 0 1 .6 1.1l2.4 26.885c.04.43-.1.857-.387 1.188s-2.23-2.642-2.673-2.603l-1.837 1.577z"/><ellipse transform="matrix(.996 -.0889 .0889 .996 -15.5695 18.4622)" cx="199.431" cy="183.979" rx="6.952" ry="4.697"/></g><g class="D"><path d="M206.3 183.34c.23 2.585-2.684 4.956-6.51 5.297s-7.112-1.477-7.34-4.062 2.684-4.956 6.51-5.297 7.11 1.477 7.34 4.062m1.626-.146c-.312-3.51-4.312-5.923-9.107-5.495s-8.306 3.51-7.993 7.02 4.312 5.923 9.107 5.495 8.305-3.51 7.993-7.02z"/><path d="M239.83 187.48c.586 1.087.153 2.458-.966 3.06l-20.802 11.217c-1.12.604-2.5.21-3.086-.876l-26.01-48.275c-.586-1.087-.153-2.456.966-3.06l20.802-11.217c1.12-.604 2.5-.21 3.086.876l26.01 48.275z"/></g><g class="E"><path d="M195.518 153.08l15.094-8.14L233.28 187l-15.094 8.14-22.667-42.07m-1.486-2.08c-1.1.606-1.54 1.97-.955 3.054l22.952 42.598c.586 1.087 1.968 1.48 3.086.876l15.638-8.433c1.12-.612 1.548-1.976.965-3.06l-22.952-42.598c-.586-1.087-1.967-1.48-3.086-.876l-15.65 8.45zm25.657 31.222a1.71 1.71 0 0 1-1.47.952c-.627.022-1.205-.3-1.495-.842l-12.052-22.365c-.426-.8-.1-1.786.702-2.225l3.707-2a1.7 1.7 0 0 1 1.267-.142c.42.12.772.4.976.778l12.803 23.76c.205.38.246.827.113 1.244s-3.092-1.548-3.483-1.338l-1.067 2.176z"/><ellipse transform="matrix(.8802 -.4747 .4747 .8802 -55.0132 122.1709)" cx="214.46" cy="170.042" rx="6.952" ry="4.697"/></g><g class="D"><path d="M220.52 166.744c1.23 2.285-.51 5.613-3.89 7.435s-7.117 1.45-8.348-.836.51-5.613 3.89-7.435 7.117-1.45 8.348.836m1.436-.775c-1.67-3.1-6.3-3.742-10.536-1.457s-6.247 6.503-4.576 9.604 6.3 3.742 10.536 1.457 6.248-6.503 4.576-9.604z"/><path d="M243.742 206.52c.866.88.832 2.318-.076 3.208l-16.854 16.567c-.906.892-2.343.9-3.208.018l-38.428-39.12c-.866-.88-.83-2.316.076-3.208l16.854-16.567c.906-.892 2.343-.9 3.208-.018l38.428 39.12z"/></g><g class="E"><path d="M191.6 185.824l12.23-12.022 33.488 34.1-12.23 12.022-33.488-34.1m-2.006-1.585c-.897.9-.93 2.322-.066 3.2l33.9 34.52c.866.88 2.303.872 3.208-.018l12.67-12.455c.906-.9.937-2.33.074-3.2l-33.9-34.52c-.866-.88-2.3-.873-3.208.018l-12.678 12.465zm33.336 22.83c-.1.615-.55 1.127-1.148 1.324s-1.242.046-1.67-.392l-17.804-18.123c-.63-.64-.604-1.685.054-2.332l3.004-2.953a1.69 1.69 0 0 1 1.177-.489c.436-.003.853.17 1.154.476l18.915 19.255a1.59 1.59 0 0 1 .455 1.163c-.01.437-3.4-.625-3.718-.314l-.42 2.385z"/><ellipse transform="matrix(.7131 -.701 .701 .7131 -76.4515 206.852)" cx="214.517" cy="196.839" rx="6.952" ry="4.697"/></g><path d="M219.418 191.983c1.82 1.85 1.072 5.533-1.666 8.225s-6.432 3.374-8.25 1.522-1.072-5.533 1.666-8.225 6.433-3.373 8.25-1.522m1.164-1.145c-2.47-2.513-7.092-1.84-10.525 1.536s-4.188 7.986-1.72 10.5 7.092 1.84 10.525-1.536 4.188-7.986 1.72-10.5z" class="D"/><path fill="#d0d2d3" d="M166.115 212.87s-14.167-48.143-15.38-62.452c0 0 52.93-17.195 71.72-41.983l-56.34 104.435z"/><defs ><path id="Y" d="M113.185 28.57c0 .38-.3.7-.647.7s-.647-.31-.647-.7V16.454c0-.38.3-.7.647-.7s.647.31.647.7V28.57z"/><path id="Z" d="M111.89 28.57c0 .38.3.7.647.7s.647-.31.647-.7V16.454c0-.38-.3-.7-.647-.7s-.647.31-.647.7V28.57z"/><path id="a" d="M164.116 28.57c0 .38-.3.7-.647.7s-.647-.31-.647-.7V16.454c0-.38.29-.7.647-.7s.647.31.647.7V28.57z"/><path id="b" d="M108.827 44.574h109.665v.226H108.827z"/></defs></svg>