<?xml version="1.0" encoding="utf-8"?>
<!-- Generator: Adobe Illustrator 17.0.0, SVG Export Plug-In . SVG Version: 6.00 Build 0)  -->
<!DOCTYPE svg PUBLIC "-//W3C//DTD SVG 1.1//EN" "http://www.w3.org/Graphics/SVG/1.1/DTD/svg11.dtd">
<svg version="1.1" id="Layer_1" xmlns="http://www.w3.org/2000/svg" xmlns:xlink="http://www.w3.org/1999/xlink" x="0px" y="0px"
	 width="50px" height="50px" viewBox="0 0 50 50" enable-background="new 0 0 50 50" xml:space="preserve">
<g>
	<path fill="#FBAA19" d="M40.901,40.782c0.11,0.259-0.008,0.436-0.244,0.554c-1.693,0.848-3.385,1.697-5.078,2.543
		c-0.153,0.077-0.355,0.19-0.473,0.004c-0.432-0.68-1.15-0.614-1.796-0.705c-1.741-0.244-3.324-0.973-4.76-1.885
		c-0.999-0.634-1.748-1.68-2.552-2.593c-0.29-0.33-0.354-0.847-0.029-1.218c0.317-0.363,0.751-0.206,1.135-0.043
		c0.792,0.336,1.36,0.994,2.071,1.447c0.245,0.156,0.488,0.324,0.752,0.443c0.46,0.207,0.683,0.018,0.608-0.465
		c-0.095-0.613-0.379-1.163-0.68-1.695c-1.407-2.485-2.726-5.015-3.963-7.589c-0.213-0.444-0.411-0.909-0.518-1.386
		c-0.162-0.724,0.272-1.066,0.957-0.791c0.509,0.204,0.835,0.616,1.118,1.068c0.883,1.406,1.777,2.805,2.652,4.216
		c0.307,0.496,0.581,0.693,1.009,0.107c0.229-0.313,0.627-0.584,0.981-0.463c0.748,0.256,1.384,0.174,2.001-0.293
		c0.084-0.064,0.246-0.111,0.332-0.073c0.999,0.436,2.085,0.353,3.122,0.552c0.318,0.061,0.564,0.307,0.743,0.581
		C39.814,35.435,40.832,37.945,40.901,40.782z"/>
	<path fill="#76BFC6" d="M21.055,20.85c2.009,0,4.018-0.001,6.027,0.002c0.262,0,0.528-0.008,0.784,0.038
		c0.456,0.081,0.73,0.374,0.734,0.841c0.003,0.428-0.26,0.708-0.659,0.821c-0.219,0.062-0.46,0.065-0.691,0.065
		c-4.106,0.004-8.211,0.003-12.317,0.002c-0.116,0-0.233-0.001-0.349-0.006c-0.573-0.026-0.964-0.284-0.966-0.894
		c-0.002-0.621,0.395-0.862,0.974-0.863c1.194-0.002,2.388-0.004,3.581-0.005C19.134,20.849,20.095,20.85,21.055,20.85z"/>
	<path fill="#76BFC6" d="M21.006,24.499c2.068,0.001,4.136-0.001,6.204,0.003c0.347,0.001,0.707-0.028,0.997,0.227
		c0.298,0.263,0.358,0.599,0.229,0.954c-0.148,0.409-0.489,0.557-0.899,0.558c-4.04,0.012-8.08,0.023-12.12,0.033
		c-0.262,0.001-0.525,0.004-0.786-0.005c-0.604-0.021-1.162-0.19-1.167-0.897c-0.005-0.723,0.554-0.872,1.163-0.872
		c1.893,0,3.787-0.001,5.68-0.002C20.54,24.499,20.773,24.499,21.006,24.499z"/>
	<path fill="#76BFC6" d="M18.929,29.974c-1.399,0-2.798-0.004-4.197,0.002c-0.634,0.003-1.258-0.111-1.26-0.872
		c-0.002-0.794,0.682-0.84,1.28-0.843c2.681-0.01,5.363-0.008,8.044-0.003c0.673,0.001,1.339,0.794,1.225,1.439
		c-0.071,0.398-0.406,0.265-0.633,0.268C21.902,29.981,20.416,29.974,18.929,29.974z"/>
	<path fill="#76BFC6" d="M20.278,15.444c0,0.872-0.009,1.745,0.004,2.617c0.007,0.506-0.199,0.743-0.724,0.738
		c-1.599-0.013-3.199-0.014-4.798,0.002c-0.547,0.005-0.804-0.208-0.8-0.767c0.01-1.716,0.009-3.431,0-5.147
		c-0.003-0.544,0.227-0.794,0.784-0.79c1.599,0.013,3.199,0.012,4.798,0.001c0.511-0.003,0.747,0.212,0.74,0.728
		C20.269,13.699,20.277,14.571,20.278,15.444z"/>
	<path fill="#76BFC6" d="M32.173,30.624c0.005-7.521,0.008-15.043,0.001-22.564c-0.002-2.252-1.071-3.312-3.333-3.316
		c-5.218-0.008-10.437-0.007-15.655-0.001C10.845,4.746,9.762,5.83,9.761,8.172c-0.004,10.903-0.004,21.806,0,32.709
		c0.001,2.198,1.043,3.339,3.237,3.356c5.305,0.041,10.611,0.023,15.917,0c0.613-0.003,1.281,0.017,1.939-0.549
		c-1.1-0.322-1.8-1.106-2.737-1.512c-0.685-0.297-1.206-0.773-1.592-1.436c-0.32-0.55-0.733-1.052-1.146-1.54
		c-0.394-0.465-0.702-0.998-0.656-1.578c0.065-0.834-0.356-0.847-0.98-0.844c-3.527,0.021-7.055,0.011-10.582,0.009
		c-1.173-0.001-1.178-0.003-1.178-1.132c-0.002-8.338,0.009-16.675-0.017-25.013c-0.003-0.82,0.208-1.115,1.071-1.109
		c5.306,0.034,10.611,0.033,15.917,0.001c0.835-0.005,1.094,0.232,1.089,1.082c-0.034,5.976,0.002,11.953-0.037,17.929
		c-0.007,1.037,0.252,1.931,0.724,2.824c0.253,0.48,0.52,0.509,0.976,0.346C32.29,31.506,32.173,31.04,32.173,30.624z M18.84,39.059
		c0.726,0,1.451,0,2.177,0c0,0.001,0,0.002,0,0.004c0.929,0,1.858,0.021,2.786-0.007c0.721-0.022,0.715,0.456,0.672,0.93
		c-0.044,0.484,0.281,1.212-0.652,1.216c-1.915,0.009-3.831,0-5.746,0.005c-0.437,0.001-0.594-0.199-0.628-0.634
		C17.337,39.111,17.37,39.059,18.84,39.059z M24.753,7.257c-0.03,0.431-0.408,0.342-0.675,0.346
		c-1.046,0.014-2.092,0.006-3.139,0.006c-1.046,0-2.092,0.006-3.139-0.004c-0.28-0.003-0.641,0.038-0.623-0.403
		c0.016-0.372,0.338-0.348,0.592-0.349c2.121-0.006,4.243-0.007,6.364,0.002C24.408,6.855,24.785,6.81,24.753,7.257z M27.419,8.003
		c-0.399-0.04-0.665-0.243-0.682-0.653c-0.019-0.453,0.245-0.727,0.686-0.726c0.441,0.001,0.701,0.272,0.68,0.729
		C28.084,7.77,27.817,7.964,27.419,8.003z"/>
	<path fill="#F5F5F5" d="M19.941,13.134c0.002-0.466-0.199-0.695-0.678-0.692c-1.424,0.006-2.848,0.011-4.271-0.004
		c-0.539-0.006-0.709,0.252-0.695,0.751c0.02,0.726,0.005,1.453,0.005,2.179c0,0.785,0.016,1.57-0.006,2.354
		c-0.014,0.511,0.177,0.743,0.706,0.737c1.395-0.016,2.79-0.013,4.184-0.001c0.496,0.004,0.76-0.17,0.756-0.704
		C19.932,16.214,19.935,14.674,19.941,13.134z M19.714,17.993c-0.029,0.05-0.058,0.143-0.086,0.143
		c-1.661,0.001-3.325,0.125-4.984-0.06c0-1.754,0.001-3.507,0.001-5.261c1.63-0.16,3.264-0.042,4.896-0.065
		c0.121-0.002,0.122,0.099,0.173,0.159C19.639,14.604,19.639,16.299,19.714,17.993z"/>
	<path fill="#F0F0F0" d="M19.714,12.91c-1.685-0.268-3.379-0.109-5.069-0.094C16.339,12.597,18.033,12.436,19.714,12.91z"/>
	<path fill="#F0F0F0" d="M14.644,18.076c1.691,0.022,3.383,0.161,5.07-0.083c-0.122,0.072-0.243,0.205-0.366,0.206
		C17.778,18.216,16.203,18.431,14.644,18.076z"/>
</g>
</svg>
