<?xml version="1.0" encoding="utf-8"?>
<!-- Generator: Adobe Illustrator 17.0.0, SVG Export Plug-In . SVG Version: 6.00 Build 0)  -->
<!DOCTYPE svg PUBLIC "-//W3C//DTD SVG 1.1//EN" "http://www.w3.org/Graphics/SVG/1.1/DTD/svg11.dtd">
<svg version="1.1" id="Layer_1" xmlns="http://www.w3.org/2000/svg" xmlns:xlink="http://www.w3.org/1999/xlink" x="0px" y="0px"
	 width="50px" height="50px" viewBox="0 0 50 50" enable-background="new 0 0 50 50" xml:space="preserve">
<g id="XMLID_1_">
	<g id="XMLID_37_">
		<polygon fill="#B9DBF1" points="38.412,27.705 11.566,27.705 12.159,24.17 33.312,23.199 36.33,23.315 36.999,24.599 		"/>
	</g>
	<g id="XMLID_36_">
		<path fill="#2A84B8" d="M2.063,31.243c-0.188-0.875-0.411-1.741-0.411-1.741v-1.595c0,0,6.063-0.156,9.591-0.195
			c3.528-0.04,3.699-1.284,4.623-1.284c0.925,0,9.967-0.389,13.392-0.467c3.425-0.078,5.411-1.362,5.411-1.362l14.557,0.273
			c0,0-1.13,1.245-3.425,3.502c-2.295,2.257-4.641,5.097-4.641,5.097s-3.545,0.175-11.148,0c-7.603-0.175-27.793-0.89-27.793-0.89
			S2.252,32.117,2.063,31.243z"/>
	</g>
	<g id="XMLID_35_">
		<path fill="#F2F3F3" d="M37.821,23.374l-0.719-2.101c0,0-1.413-0.117-3.442-0.175c-2.028-0.058-4.237,0.011-6.319,0.156
			c-2.081,0.145-13.486,0.603-13.486,0.603s-1.643-4.494-1.875-5.107s-1.337-0.263-1.285,0c0.052,0.263,0.874,5.311,0.874,5.311
			l-9.607,0.525l-0.154,2.061l31.505-1.449L37.821,23.374z"/>
	</g>
	<g id="XMLID_34_">
		<polygon fill="#223442" points="34.835,23.257 35.528,24.615 36.502,24.633 35.919,23.299 		"/>
	</g>
	<g id="XMLID_33_">
		<polygon fill="#223442" points="33.312,23.199 34.304,24.801 35.285,24.61 34.493,23.244 		"/>
	</g>
	<g id="XMLID_32_">
		<polygon fill="#223442" points="28.847,23.404 28.342,25.338 30.526,25.338 30.782,23.315 		"/>
	</g>
	<g id="XMLID_31_">
		<polygon fill="#223442" points="25.069,23.588 24.498,25.523 26.964,25.523 27.254,23.499 		"/>
	</g>
	<g id="XMLID_30_">
		<polygon fill="#223442" points="21.524,23.724 20.952,25.659 23.419,25.659 23.709,23.635 		"/>
	</g>
	<g id="XMLID_29_">
		<polygon fill="#223442" points="18.031,23.901 17.459,25.863 19.926,25.863 20.215,23.8 		"/>
	</g>
	<g id="XMLID_28_">
		<polygon fill="#223442" points="14.777,24.065 14.205,25.999 16.672,25.999 16.961,23.976 		"/>
	</g>
	<g id="XMLID_21_">
		<g id="XMLID_25_">
			<path fill="#9A2022" d="M12.249,25.497c0,0.541,0.293,0.978,0.655,0.978c0.362,0,0.655-0.438,0.655-0.978
				c0-0.541-0.293-0.978-0.655-0.978C12.542,24.519,12.249,24.956,12.249,25.497z M12.39,25.495c0-0.382,0.207-0.692,0.463-0.692
				s0.463,0.31,0.463,0.692c0,0.382-0.207,0.692-0.463,0.692C12.598,26.187,12.389,25.879,12.39,25.495z"/>
		</g>
		<g id="XMLID_22_">
			<g id="XMLID_24_">
				<path fill="#9A2022" d="M12.519,25.974c-0.08-0.124-0.129-0.292-0.129-0.477c0-0.382,0.207-0.692,0.463-0.692
					c0.121,0,0.229,0.068,0.312,0.181c-0.085-0.132-0.203-0.215-0.335-0.215c-0.256,0-0.463,0.31-0.463,0.692
					C12.367,25.666,12.425,25.846,12.519,25.974z"/>
			</g>
			<g id="XMLID_23_">
				<path fill="#9A2022" d="M12.433,26.177c0.12,0.184,0.286,0.298,0.471,0.298c0.362,0,0.655-0.438,0.655-0.978
					c0-0.281-0.08-0.535-0.207-0.712c0.114,0.175,0.185,0.414,0.185,0.679c0,0.541-0.293,0.978-0.655,0.978
					C12.708,26.441,12.55,26.34,12.433,26.177z"/>
			</g>
		</g>
	</g>
	<g id="XMLID_20_">
		<path fill="#174669" d="M1.734,29.82c0,0,13.346-0.435,23.256-0.591c9.91-0.156,9.44-0.292,9.398-0.496
			c-0.043-0.204-0.343-0.282-1.371-0.282s-31.365,1.05-31.365,1.05L1.734,29.82z"/>
	</g>
	<g id="XMLID_19_">
		<path fill="#E2E4E3" d="M35.123,21.151c-0.654-0.034-2.542-0.071-2.542-0.071l1.001,2.117l4.239,0.175l-0.719-2.101
			C37.101,21.272,35.777,21.185,35.123,21.151z"/>
	</g>
	<g id="XMLID_18_">
		<path fill="#174669" d="M2.219,32.58c0,0,20.19,0.715,27.793,0.89c7.603,0.175,11.148,0,11.148,0s0.297-0.359,0.781-0.923l0,0
			L2.217,32.344C2.224,32.499,2.219,32.58,2.219,32.58z"/>
	</g>
	<g id="XMLID_17_">
		<polygon fill="#E2E4E3" points="21.407,21.572 21.407,17.741 27.366,17.449 32.196,17.771 30.904,21.109 		"/>
	</g>
	<g id="XMLID_16_">
		<polygon fill="#323437" points="29.561,17.596 28.753,19.871 31.013,19.871 31.837,17.747 		"/>
	</g>
	<g id="XMLID_15_">
		<polygon fill="#323437" points="27.481,17.449 26.673,19.871 28.565,19.871 29.388,17.583 		"/>
	</g>
	<g id="XMLID_14_">
		<polygon fill="#323437" points="24.686,17.581 24.686,19.871 26.176,19.794 27.117,17.461 		"/>
	</g>
	<g id="XMLID_13_">
		<polygon fill="#323437" points="22.991,21.49 22.991,17.811 23.882,17.737 23.882,21.443 		"/>
	</g>
	<g id="XMLID_12_">
		<polygon fill="#2F5279" points="12.683,18.66 27.366,17.449 32.752,17.907 32.936,17.05 27.512,16.661 12.434,17.979 		"/>
	</g>
	<g id="XMLID_11_">
		<polygon fill="#F2F3F3" points="19.814,21.609 21.407,19.51 21.407,21.572 		"/>
	</g>
	<g id="XMLID_10_">
		<polygon fill="#FFFFFF" points="19.814,21.609 20.61,20.559 13.499,20.885 13.854,21.855 		"/>
	</g>
	<g id="XMLID_9_">
		<polygon fill="#F2F3F3" points="21.327,20.507 13.196,20.935 13.139,19.536 21.27,19.108 		"/>
	</g>
	<g id="XMLID_8_">
		<path fill="#F2F3F3" d="M1.19,21.634c-0.012-0.387,0.254-0.712,0.594-0.726l9.76-0.401c0.33-0.024,0.626,0.287,0.639,0.674
			c0.012,0.387-0.254,0.712-0.594,0.726l-9.76,0.401C1.822,22.31,1.814,22.31,1.807,22.31C1.476,22.31,1.202,22.013,1.19,21.634z"/>
	</g>
	<g id="XMLID_7_">
		<rect x="9.823" y="24.25" fill="#B9DBF1" width="1.233" height="3.454"/>
	</g>
	<g id="XMLID_6_">
		<rect x="8.315" y="24.319" fill="#B9DBF1" width="1.233" height="3.426"/>
	</g>
	<g id="XMLID_5_">
		<polygon fill="#B9DBF1" points="7.726,27.777 6.493,27.8 6.444,24.425 7.677,24.402 		"/>
	</g>
	<g id="XMLID_4_">
		<polygon fill="#B9DBF1" points="6.22,27.794 4.987,27.819 4.935,24.481 6.168,24.456 		"/>
	</g>
	<g id="XMLID_3_">
		<polygon fill="#B9DBF1" points="2.676,24.635 2.625,27.897 1.392,27.872 1.443,24.61 		"/>
	</g>
	<g id="XMLID_2_">
		<path fill="#56ADD4" d="M1.653,27.908v0.252c0,0,6.063-0.156,9.591-0.195c3.528-0.04,3.699-1.284,4.623-1.284
			c0.925,0,9.967-0.389,13.392-0.467c3.425-0.078,5.411-1.362,5.411-1.362l14.327,0.268c0.152-0.165,0.229-0.249,0.229-0.249
			L34.67,24.598c0,0-1.986,1.284-5.411,1.362s-12.468,0.467-13.392,0.467c-0.924,0-1.096,1.246-4.623,1.284
			C7.715,27.75,1.653,27.905,1.653,27.908z"/>
	</g>
</g>
</svg>
