<?xml version="1.0" encoding="utf-8"?>
<!-- Generator: Adobe Illustrator 17.0.0, SVG Export Plug-In . SVG Version: 6.00 Build 0)  -->
<!DOCTYPE svg PUBLIC "-//W3C//DTD SVG 1.1//EN" "http://www.w3.org/Graphics/SVG/1.1/DTD/svg11.dtd">
<svg version="1.1" id="Layer_1" xmlns="http://www.w3.org/2000/svg" xmlns:xlink="http://www.w3.org/1999/xlink" x="0px" y="0px"
	 width="50px" height="50px" viewBox="0 0 50 50" enable-background="new 0 0 50 50" xml:space="preserve">
<g>
	<g>
		<path fill="#D0E4E5" d="M3.145,29.285c0,0,3.522,0.595,9.31,0.978c0.07,0.073,0.158,0.17,0.254,0.294
			c0.227,0.291-0.254-0.294-0.254-0.294c6.761,0.319,11.931,0.401,21.836-0.951c1.878-0.256,3.58-0.516,5.122-0.777
			c0.001,0,0.001,0,0.002,0c8.409-1.424,7.307-2.246,8.906-3.358c1.343-0.935,1.223-1.623,1.218-1.843
			c-0.008-0.289-0.277-0.559-0.808-0.871l-0.001,0c-0.428-0.251-1.024-0.527-1.789-0.861c-0.016-0.007-0.034-0.015-0.051-0.022
			c-0.229-0.099-0.524-0.193-0.903-0.274l0-0.001c-2.518-0.544-3.96-1.219-18.907,0.822c-11.015,1.504-13.921,3.476-19.333,4.683
			L7.741,26.81c-3.031,0.677-4.775,1.12-4.775,1.12L3.145,29.285z"/>
		<path fill="#4B6997" d="M14.757,28.838l0.005,0.035c0.014,0.104-2.602,0.024-2.498,0.01l27.225-4.118l-0.056-0.411l-27.225,4.118
			C12.104,28.485,14.743,28.734,14.757,28.838z"/>
		<path fill="#A8D7D7" d="M3.145,29.285c0,0,3.522,0.595,9.31,0.978c0.07,0.073,0.158,0.17,0.254,0.294
			c0.227,0.291-0.254-0.294-0.254-0.294c6.761,0.319,11.931,0.401,21.836-0.951c1.878-0.256,3.58-0.516,5.122-0.777
			C31.532,29.414,2.966,27.93,2.966,27.93L3.145,29.285z"/>
		<path fill="#4B6997" d="M26.005,29.174l-0.189-1.381c0,0,5.453-2.151,8.449-1.348c0,0,0.882,0.958,0.262,1.922
			C34.527,28.368,31.442,30.105,26.005,29.174z"/>
		<polygon fill="#FBAA19" points="0.296,17.758 0.302,17.768 2.966,25.191 3.364,27.831 12.489,25.093 3.026,17.385 		"/>
		<path fill="#DC9327" d="M0.22,17.205l0.077,0.563l3.567-0.487c0.156-0.021,0.264-0.165,0.243-0.32
			c-0.011-0.078-0.052-0.144-0.11-0.188c-0.058-0.044-0.132-0.066-0.211-0.055L0.22,17.205z"/>
		<polygon fill="#DC9327" points="0.302,17.768 2.966,25.191 9.661,24.776 2.067,17.527 		"/>
		<path fill="#36537D" d="M17.681,30.992l-0.228-1.673c0,0,6.609-2.607,10.239-1.633c0,0,1.07,1.161,0.318,2.329
			C32.565,27.449,27.243,32.629,17.681,30.992z"/>
		<path fill="#A8D7D7" d="M48.321,25.177c1.343-0.935,1.223-1.623,1.218-1.843c-0.008-0.289-0.277-0.559-0.808-0.871
			c0,0,0,0-0.001,0C48.673,22.474,47.023,22.823,48.321,25.177z"/>
		<path fill="#FBAA19" d="M14.418,31.208l3.564-0.101c0,0,6.071-1.739,19.103-5.301c0,0-4.663,0.002-9.517,0.593
			c-2.863,0.347-5.792,0.901-7.869,1.781l-4.424,2.627L14.418,31.208z"/>
		<path fill="#DC9327" d="M14.137,30.874l0.122,0.893l7.095-0.969c0.247-0.034-2.403,0.51-2.437,0.264
			c-0.017-0.124-0.082-0.229-0.174-0.298c-0.091-0.069-0.21-0.104-0.334-0.087L14.137,30.874z"/>
		<path fill="#DC9327" d="M15.274,30.807l1.672-0.021l10.621-4.386c-2.863,0.347-5.792,0.901-7.869,1.781L15.274,30.807z"/>
		<path fill="#4B6997" d="M44.775,22.451c0.02,0.15,0.099,0.277,0.212,0.363c0.11,0.084,0.255,0.126,0.405,0.106l3.339-0.456
			c-0.428-0.251-1.024-0.527-1.789-0.861l-1.698,0.232C44.943,21.875,44.734,22.151,44.775,22.451z"/>
		<path fill="#36537D" d="M44.775,22.451c0.02,0.15,0.099,0.277,0.212,0.363c0.11,0.084,0.255,0.126,0.405,0.106l1.534-0.209
			l-1.233-0.937l-0.449,0.061C44.943,21.875,44.734,22.151,44.775,22.451z"/>
		<g>
			<g>
				<path fill="#4B6997" d="M37.631,23.142l0.081,0.591c0.019,0.136,0.145,0.232,0.281,0.213l0.574-0.078
					c0.066-0.009,0.121-0.042,0.159-0.091c0.042-0.05,0.064-0.119,0.054-0.19l-0.081-0.591c-0.019-0.136-0.145-0.232-0.281-0.213
					l-0.574,0.078c-0.075,0.01-0.137,0.053-0.175,0.112C37.637,23.021,37.623,23.08,37.631,23.142z"/>
				<path fill="#36537D" d="M37.631,23.142l0.081,0.591c0.019,0.136,0.145,0.232,0.281,0.213l0.574-0.078
					c0.066-0.009,0.121-0.042,0.159-0.091l-1.056-0.803C37.637,23.021,37.623,23.08,37.631,23.142z"/>
			</g>
			<g>
				<path fill="#4B6997" d="M35.67,23.409L35.75,24c0.019,0.136,0.145,0.232,0.281,0.213l0.574-0.078
					c0.066-0.009,0.121-0.042,0.159-0.091c0.042-0.05,0.064-0.119,0.054-0.19l-0.081-0.591c-0.019-0.136-0.145-0.232-0.281-0.213
					l-0.574,0.078c-0.075,0.01-0.137,0.053-0.175,0.112C35.675,23.289,35.661,23.348,35.67,23.409z"/>
				<path fill="#36537D" d="M35.67,23.409L35.75,24c0.019,0.136,0.145,0.232,0.281,0.213l0.574-0.078
					c0.066-0.009,0.121-0.042,0.159-0.091l-1.056-0.803C35.675,23.289,35.661,23.348,35.67,23.409z"/>
			</g>
			<g>
				<path fill="#4B6997" d="M33.708,23.677l0.081,0.591c0.019,0.136,0.145,0.232,0.281,0.213l0.574-0.078
					c0.066-0.009,0.121-0.042,0.159-0.091c0.042-0.05,0.064-0.119,0.054-0.19l-0.081-0.591c-0.019-0.136-0.145-0.232-0.281-0.213
					l-0.574,0.078c-0.075,0.01-0.137,0.053-0.175,0.112C33.714,23.556,33.7,23.616,33.708,23.677z"/>
				<path fill="#36537D" d="M33.708,23.677l0.081,0.591c0.019,0.136,0.145,0.232,0.281,0.213l0.574-0.078
					c0.066-0.009,0.121-0.042,0.159-0.091l-1.056-0.803C33.714,23.556,33.7,23.616,33.708,23.677z"/>
			</g>
			<g>
				<path fill="#4B6997" d="M31.747,23.945l0.081,0.591c0.019,0.136,0.145,0.232,0.281,0.213l0.574-0.078
					c0.066-0.009,0.121-0.042,0.159-0.091c0.042-0.05,0.064-0.119,0.054-0.19l-0.081-0.591c-0.019-0.136-0.145-0.232-0.281-0.213
					l-0.574,0.078c-0.075,0.01-0.137,0.053-0.175,0.112C31.752,23.824,31.738,23.884,31.747,23.945z"/>
				<path fill="#36537D" d="M31.747,23.945l0.081,0.591c0.019,0.136,0.145,0.232,0.281,0.213l0.574-0.078
					c0.066-0.009,0.121-0.042,0.159-0.091l-1.056-0.803C31.752,23.824,31.738,23.884,31.747,23.945z"/>
			</g>
			<g>
				<path fill="#4B6997" d="M29.785,24.213l0.081,0.591c0.019,0.136,0.145,0.232,0.281,0.213l0.574-0.078
					c0.066-0.009,0.121-0.042,0.159-0.091c0.042-0.05,0.064-0.119,0.054-0.19l-0.081-0.591c-0.019-0.136-0.145-0.232-0.281-0.213
					l-0.574,0.078c-0.075,0.01-0.137,0.053-0.175,0.112C29.791,24.092,29.777,24.152,29.785,24.213z"/>
				<path fill="#36537D" d="M29.785,24.213l0.081,0.591c0.019,0.136,0.145,0.232,0.281,0.213l0.574-0.078
					c0.066-0.009,0.121-0.042,0.159-0.091l-1.056-0.803C29.791,24.092,29.777,24.152,29.785,24.213z"/>
			</g>
			<g>
				<path fill="#4B6997" d="M27.824,24.481l0.081,0.591c0.019,0.136,0.145,0.232,0.281,0.213l0.574-0.078
					c0.066-0.009,0.121-0.042,0.159-0.091c0.042-0.05,0.064-0.119,0.054-0.19l-0.081-0.591c-0.019-0.136-0.145-0.232-0.281-0.213
					L28.037,24.2c-0.075,0.01-0.137,0.053-0.175,0.112C27.829,24.36,27.815,24.419,27.824,24.481z"/>
				<path fill="#36537D" d="M27.824,24.481l0.081,0.591c0.019,0.136,0.145,0.232,0.281,0.213l0.574-0.078
					c0.066-0.009,0.121-0.042,0.159-0.091l-1.056-0.803C27.829,24.36,27.815,24.419,27.824,24.481z"/>
			</g>
			<g>
				<path fill="#4B6997" d="M25.862,24.748l0.081,0.591c0.019,0.136,0.145,0.232,0.281,0.213l0.574-0.078
					c0.066-0.009,0.121-0.042,0.159-0.091c0.042-0.05,0.064-0.119,0.054-0.19l-0.081-0.591c-0.019-0.136-0.145-0.232-0.281-0.213
					l-0.574,0.078C26,24.478,25.938,24.521,25.9,24.58C25.868,24.628,25.854,24.687,25.862,24.748z"/>
				<path fill="#36537D" d="M25.862,24.748l0.081,0.591c0.019,0.136,0.145,0.232,0.281,0.213l0.574-0.078
					c0.066-0.009,0.121-0.042,0.159-0.091L25.9,24.58C25.868,24.628,25.854,24.687,25.862,24.748z"/>
			</g>
			<g>
				<path fill="#4B6997" d="M23.901,25.016l0.081,0.591c0.019,0.136,0.145,0.232,0.281,0.213l0.574-0.078
					c0.066-0.009,0.121-0.042,0.159-0.091c0.042-0.05,0.064-0.119,0.054-0.19l-0.081-0.591c-0.019-0.136-0.145-0.232-0.281-0.213
					l-0.574,0.078c-0.075,0.01-0.137,0.053-0.175,0.112C23.906,24.896,23.892,24.955,23.901,25.016z"/>
				<path fill="#36537D" d="M23.901,25.016l0.081,0.591c0.019,0.136,0.145,0.232,0.281,0.213l0.574-0.078
					c0.066-0.009,0.121-0.042,0.159-0.091l-1.056-0.803C23.906,24.896,23.892,24.955,23.901,25.016z"/>
			</g>
			<g>
				<path fill="#4B6997" d="M21.939,25.284l0.081,0.591c0.019,0.136,0.145,0.232,0.281,0.213l0.574-0.078
					c0.066-0.009,0.121-0.042,0.159-0.091c0.042-0.05,0.064-0.119,0.054-0.19l-0.081-0.591c-0.019-0.136-0.145-0.232-0.281-0.213
					l-0.574,0.078c-0.075,0.01-0.137,0.053-0.175,0.112C21.945,25.163,21.931,25.223,21.939,25.284z"/>
				<path fill="#36537D" d="M21.939,25.284l0.081,0.591c0.019,0.136,0.145,0.232,0.281,0.213l0.574-0.078
					c0.066-0.009,0.121-0.042,0.159-0.091l-1.056-0.803C21.945,25.163,21.931,25.223,21.939,25.284z"/>
			</g>
			<g>
				<path fill="#4B6997" d="M19.978,25.552l0.081,0.591c0.019,0.136,0.145,0.232,0.281,0.213l0.574-0.078
					c0.066-0.009,0.121-0.042,0.159-0.091c0.042-0.05,0.064-0.119,0.054-0.19l-0.081-0.591c-0.019-0.136-0.145-0.232-0.281-0.213
					l-0.574,0.078c-0.075,0.01-0.137,0.053-0.175,0.112C19.983,25.431,19.969,25.491,19.978,25.552z"/>
				<path fill="#36537D" d="M19.978,25.552l0.081,0.591c0.019,0.136,0.145,0.232,0.281,0.213l0.574-0.078
					c0.066-0.009,0.121-0.042,0.159-0.091l-1.056-0.803C19.983,25.431,19.969,25.491,19.978,25.552z"/>
			</g>
			<g>
				<path fill="#4B6997" d="M18.016,25.82l0.081,0.591c0.019,0.136,0.145,0.232,0.281,0.213l0.574-0.078
					c0.066-0.009,0.121-0.042,0.159-0.091c0.042-0.05,0.064-0.119,0.054-0.19l-0.081-0.591c-0.019-0.136-0.145-0.232-0.281-0.213
					l-0.574,0.078c-0.075,0.01-0.137,0.053-0.175,0.112C18.022,25.699,18.008,25.759,18.016,25.82z"/>
				<path fill="#36537D" d="M18.016,25.82l0.081,0.591c0.019,0.136,0.145,0.232,0.281,0.213l0.574-0.078
					c0.066-0.009,0.121-0.042,0.159-0.091l-1.056-0.803C18.022,25.699,18.008,25.759,18.016,25.82z"/>
			</g>
			<g>
				<path fill="#4B6997" d="M16.055,26.088l0.081,0.591c0.019,0.136,0.145,0.232,0.281,0.213l0.574-0.078
					c0.066-0.009,0.121-0.042,0.159-0.091c0.042-0.05,0.064-0.119,0.054-0.19l-0.081-0.591c-0.019-0.136-0.145-0.232-0.281-0.213
					l-0.574,0.078c-0.075,0.01-0.137,0.053-0.175,0.112C16.06,25.967,16.046,26.026,16.055,26.088z"/>
				<path fill="#36537D" d="M16.055,26.088l0.081,0.591c0.019,0.136,0.145,0.232,0.281,0.213l0.574-0.078
					c0.066-0.009,0.121-0.042,0.159-0.091l-1.056-0.803C16.06,25.967,16.046,26.026,16.055,26.088z"/>
			</g>
			<g>
				<path fill="#4B6997" d="M14.093,26.355l0.081,0.591c0.019,0.136,0.145,0.232,0.281,0.213l0.574-0.078
					c0.066-0.009,0.121-0.042,0.159-0.091c0.042-0.05,0.064-0.119,0.054-0.19l-0.081-0.591c-0.019-0.136-0.145-0.232-0.281-0.213
					l-0.574,0.078c-0.075,0.01-0.137,0.053-0.175,0.112C14.099,26.235,14.085,26.294,14.093,26.355z"/>
				<path fill="#36537D" d="M14.093,26.355l0.081,0.591c0.019,0.136,0.145,0.232,0.281,0.213l0.574-0.078
					c0.066-0.009,0.121-0.042,0.159-0.091l-1.056-0.803C14.099,26.235,14.085,26.294,14.093,26.355z"/>
			</g>
		</g>
		<path fill="#4B6997" d="M43.703,23.754l-1.356,0.202l0.056,0.411l1.356-0.202c0.104-0.014,0.177-0.11,0.162-0.214l-0.005-0.035
			C43.903,23.812,43.807,23.739,43.703,23.754z"/>
		<path fill="#A8D7D7" d="M41.051,21.855l-0.999,0.136c-0.372,0.051-0.632,0.393-0.581,0.765l0.427,3.125
			c0.051,0.372,0.393,0.632,0.765,0.581l0.999-0.136c0.372-0.051,0.632-0.393,0.581-0.765l-0.427-3.125
			C41.766,22.064,41.423,21.804,41.051,21.855z"/>
		<path fill="#FFFFFF" d="M7.747,26.809c0.569-0.101,1.162-0.209,1.778-0.324c34.238-6.359,36.462-5.179,36.462-5.179l0-0.001
			c-2.518-0.544-3.96-1.219-18.907,0.822C16.065,23.63,13.159,25.602,7.747,26.809z"/>
	</g>
</g>
<g>
	<g>
		<rect x="-27.656" y="-13.723" fill="#9BA8B2" width="3.334" height="0.563"/>
		<path fill-rule="evenodd" clip-rule="evenodd" fill="#E9615C" d="M-27.656-24.916v10.407l3.272,1.779h52.691
			c0.767-0.239,1.068-1.251,1.097-2.6c0.007-0.287,0-0.59-0.016-0.903c-0.011-0.224-0.029-0.453-0.051-0.688
			c-0.286-3.074-1.379-6.85-1.72-7.805c-0.574-1.607-1.837-1.722-1.837-1.722h-51.906C-26.97-26.447-27.656-25.762-27.656-24.916z"
			/>
		<polygon fill="#CF5353" points="-27.656,-24.725 -27.656,-14.509 -24.384,-12.729 -5.538,-12.729 -5.538,-15.776 -23.523,-18.174 
			-23.523,-24.725 		"/>
		<path fill="#4B6997" d="M27.159-24.725l1.058,7.199c0.052,0.349,0.351,0.607,0.704,0.607h0.417v-0.001
			c-0.286-3.074-1.379-6.85-1.72-7.805H27.159z"/>
		<g>
			<g>
				<path fill="#4B6997" d="M15.306-24.692v2.918c0,0.414,0.336,0.751,0.751,0.751h5.587c0.414,0,0.751-0.336,0.751-0.751v-2.918
					c0-0.414-0.336-0.751-0.751-0.751h-5.587C15.643-25.443,15.306-25.106,15.306-24.692z"/>
				<path fill="#6D8BB7" d="M15.306-24.692v2.918c0,0.414,0.336,0.751,0.751,0.751h5.046l-4.42-4.42h-0.627
					C15.643-25.443,15.306-25.106,15.306-24.692z"/>
			</g>
			<g>
				<path fill="#4B6997" d="M7.672-24.692v2.918c0,0.414,0.336,0.751,0.751,0.751h5.587c0.414,0,0.751-0.336,0.751-0.751v-2.918
					c0-0.414-0.336-0.751-0.751-0.751H8.423C8.009-25.443,7.672-25.106,7.672-24.692z"/>
				<path fill="#6D8BB7" d="M7.672-24.692v2.918c0,0.414,0.336,0.751,0.751,0.751h5.046l-4.42-4.42H8.423
					C8.009-25.443,7.672-25.106,7.672-24.692z"/>
			</g>
			<g>
				<path fill="#4B6997" d="M0.039-24.692v2.918c0,0.414,0.336,0.751,0.751,0.751h5.587c0.414,0,0.751-0.336,0.751-0.751v-2.918
					c0-0.414-0.336-0.751-0.751-0.751H0.789C0.375-25.443,0.039-25.106,0.039-24.692z"/>
				<path fill="#6D8BB7" d="M0.039-24.692v2.918c0,0.414,0.336,0.751,0.751,0.751h5.046l-4.42-4.42H0.789
					C0.375-25.443,0.039-25.106,0.039-24.692z"/>
			</g>
			<g>
				<path fill="#4B6997" d="M-7.595-24.692v2.918c0,0.414,0.336,0.751,0.751,0.751h5.587c0.414,0,0.751-0.336,0.751-0.751v-2.918
					c0-0.414-0.336-0.751-0.751-0.751h-5.587C-7.259-25.443-7.595-25.106-7.595-24.692z"/>
				<path fill="#6D8BB7" d="M-7.595-24.692v2.918c0,0.414,0.336,0.751,0.751,0.751h5.046l-4.42-4.42h-0.627
					C-7.259-25.443-7.595-25.106-7.595-24.692z"/>
			</g>
			<g>
				<path fill="#4B6997" d="M-15.229-24.692v2.918c0,0.414,0.336,0.751,0.751,0.751h5.587c0.414,0,0.751-0.336,0.751-0.751v-2.918
					c0-0.414-0.336-0.751-0.751-0.751h-5.587C-14.893-25.443-15.229-25.106-15.229-24.692z"/>
				<path fill="#6D8BB7" d="M-15.229-24.692v2.918c0,0.414,0.336,0.751,0.751,0.751h5.046l-4.42-4.42h-0.627
					C-14.893-25.443-15.229-25.106-15.229-24.692z"/>
			</g>
			<g>
				<path fill="#4B6997" d="M-22.863-24.692v2.918c0,0.414,0.336,0.751,0.751,0.751h5.587c0.414,0,0.751-0.336,0.751-0.751v-2.918
					c0-0.414-0.336-0.751-0.751-0.751h-5.587C-22.527-25.443-22.863-25.106-22.863-24.692z"/>
				<path fill="#6D8BB7" d="M-22.863-24.692v2.918c0,0.414,0.336,0.751,0.751,0.751h5.046l-4.42-4.42h-0.627
					C-22.527-25.443-22.863-25.106-22.863-24.692z"/>
			</g>
		</g>
		<path fill="#4B6997" d="M23.161-25.443v6.802l4.285,1.722l-0.356-2.213l-0.673-4.183c-0.119-0.745-0.655-1.355-1.379-1.569
			L23.161-25.443z"/>
		<polygon fill="#CF5353" points="23.16,-18.641 23.16,-12.729 27.446,-12.729 27.446,-16.919 		"/>
		<path fill="#243549" d="M25.982-12.729h3.335c0.187,0,0.339-0.152,0.339-0.339v-0.069c0-0.187-0.152-0.339-0.339-0.339h-3.335
			V-12.729z"/>
		<g>
			<circle fill="#243549" cx="20.111" cy="-12.969" r="2.284"/>
			<circle fill="#65707B" cx="20.111" cy="-12.969" r="1.272"/>
			<path fill="#8897A3" d="M19.043-12.969c0,0.59,0.479,1.068,1.068,1.068c0.295,0,0.562-0.119,0.755-0.312
				c0.193-0.193,0.312-0.46,0.312-0.755c0-0.589-0.478-1.068-1.068-1.068c-0.294,0-0.561,0.119-0.754,0.313
				C19.162-13.531,19.043-13.263,19.043-12.969z"/>
			<path fill="#9BA8B2" d="M19.043-12.969c0,0.59,0.479,1.068,1.068,1.068c0.295,0,0.562-0.119,0.755-0.312l-1.51-1.51
				C19.162-13.531,19.043-13.263,19.043-12.969z"/>
		</g>
		<g>
			<circle fill="#243549" cx="-20.579" cy="-12.969" r="2.284"/>
			<circle fill="#65707B" cx="-20.579" cy="-12.969" r="1.272"/>
			<circle fill="#8897A3" cx="-20.579" cy="-12.969" r="1.068"/>
			<path fill="#9BA8B2" d="M-21.647-12.969c0,0.59,0.479,1.068,1.068,1.068c0.295,0,0.562-0.119,0.755-0.312l-1.51-1.51
				C-21.527-13.531-21.647-13.263-21.647-12.969z"/>
		</g>
		<path fill="#F7B119" d="M28.61-15.776c0,0.289,0.234,0.523,0.522,0.523c0.1,0,0.193-0.028,0.272-0.077
			c0.007-0.287,0-0.59-0.016-0.903c-0.076-0.042-0.163-0.067-0.256-0.067C28.844-16.299,28.61-16.065,28.61-15.776z"/>
		<path fill="#F7B119" d="M2.421-26.447h12.341v-0.185c0-0.622-0.504-1.127-1.127-1.127H3.547c-0.622,0-1.127,0.504-1.127,1.127
			V-26.447z"/>
		<path fill="#F7B119" d="M-15.8-26.447h8.23v-0.185c0-0.622-0.504-1.127-1.127-1.127h-5.976c-0.622,0-1.127,0.504-1.127,1.127
			V-26.447z"/>
		<path fill="#F7B119" d="M-23.621-20.527h45.769c0.136,0,0.247,0.11,0.247,0.247v0.08c0,0.136-0.11,0.247-0.247,0.247h-45.769
			c-0.136,0-0.247-0.11-0.247-0.247v-0.08C-23.868-20.417-23.757-20.527-23.621-20.527z"/>
		<path fill="#CF5353" d="M8.768-13.417h4.898c0.375,0,0.679-0.304,0.679-0.679v-1.525c0-0.375-0.304-0.679-0.679-0.679H8.768
			c-0.375,0-0.679,0.304-0.679,0.679v1.525C8.089-13.721,8.393-13.417,8.768-13.417z"/>
		<path fill="#CF5353" d="M1.134-13.417h4.898c0.375,0,0.679-0.304,0.679-0.679v-1.525c0-0.375-0.304-0.679-0.679-0.679H1.134
			c-0.375,0-0.679,0.304-0.679,0.679v1.525C0.455-13.721,0.759-13.417,1.134-13.417z"/>
		<circle fill="#F7B119" cx="-26.317" cy="-25.406" r="0.344"/>
		<rect x="-27.254" y="-23.233" fill="#6D8BB7" width="2.009" height="4.083"/>
		<polygon fill="#6D8BB7" points="23.161,-23.061 23.161,-18.641 27.446,-16.919 27.09,-19.133 		"/>
		<path fill="#CF5353" d="M25.982-20.24h0.54c0.352,0,0.637-0.285,0.637-0.637v-1.97c0-0.352-0.285-0.637-0.637-0.637h-0.54V-20.24z
			"/>
		<rect x="26.212" y="-24.574" fill="#CF5353" width="0.359" height="1.341"/>
	</g>
</g>
</svg>
