<?xml version="1.0" encoding="utf-8"?>
<!-- Generator: Adobe Illustrator 17.0.0, SVG Export Plug-In . SVG Version: 6.00 Build 0)  -->
<!DOCTYPE svg PUBLIC "-//W3C//DTD SVG 1.1//EN" "http://www.w3.org/Graphics/SVG/1.1/DTD/svg11.dtd">
<svg version="1.1" id="Layer_1" xmlns="http://www.w3.org/2000/svg" xmlns:xlink="http://www.w3.org/1999/xlink" x="0px" y="0px"
	 width="50px" height="50px" viewBox="0 0 50 50" enable-background="new 0 0 50 50" xml:space="preserve">
<g>
	<g>
		<path fill="#76BFC6" d="M13.656,10.725h28.07c1.462,0,2.647,1.185,2.647,2.647V31.83c0,1.462-1.185,2.647-2.647,2.647h-28.07
			c-1.462,0-2.647-1.185-2.647-2.647V13.372C11.009,11.91,12.194,10.725,13.656,10.725z"/>
		<rect x="11.009" y="14.763" fill="#414141" width="33.364" height="4.065"/>
	</g>
	<g>
		<path fill="#B2D2D3" d="M36.103,40.548H8.033c-1.462,0-2.647-1.185-2.647-2.647V19.442c0-1.462,1.185-2.647,2.647-2.647h28.07
			c1.462,0,2.647,1.185,2.647,2.647v18.458C38.75,39.362,37.565,40.548,36.103,40.548z"/>
		<g>
			<path fill="#D9513B" d="M32.393,19.055c-0.702,0-1.359,0.191-1.926,0.52c1.15,0.666,1.926,1.907,1.926,3.332
				c0,1.425-0.776,2.666-1.926,3.332c0.567,0.328,1.223,0.52,1.926,0.52c2.127,0,3.852-1.725,3.852-3.852
				C36.245,20.779,34.521,19.055,32.393,19.055z"/>
			<path fill="#E6563F" d="M28.542,22.907c0-1.425,0.776-2.666,1.926-3.332c-0.567-0.328-1.223-0.52-1.926-0.52
				c-2.127,0-3.852,1.725-3.852,3.852c0,2.127,1.725,3.852,3.852,3.852c0.702,0,1.359-0.191,1.926-0.52
				C29.317,25.573,28.542,24.332,28.542,22.907z"/>
			<path fill="#CC4C37" d="M32.393,22.907c0-1.425-0.776-2.666-1.926-3.332c-1.15,0.666-1.926,1.907-1.926,3.332
				c0,1.425,0.776,2.666,1.926,3.332C31.618,25.573,32.393,24.332,32.393,22.907z"/>
		</g>
		<path fill="#FBAA19" d="M14.221,30.318H9.399c-0.627,0-1.134-0.508-1.134-1.134v-2.34c0-0.627,0.508-1.134,1.134-1.134h4.821
			c0.626,0,1.134,0.508,1.134,1.134v2.34C15.355,29.81,14.847,30.318,14.221,30.318z"/>
		<line fill="none" stroke="#414141" stroke-miterlimit="10" x1="8.265" y1="28.013" x2="15.355" y2="28.013"/>
		<line fill="none" stroke="#414141" stroke-miterlimit="10" x1="13.951" y1="25.709" x2="13.951" y2="30.318"/>
		<line fill="none" stroke="#414141" stroke-miterlimit="10" x1="11.81" y1="25.709" x2="11.81" y2="30.318"/>
		<line fill="none" stroke="#414141" stroke-miterlimit="10" x1="9.669" y1="25.709" x2="9.669" y2="30.318"/>
		<line fill="none" stroke="#414141" stroke-width="3" stroke-miterlimit="10" x1="8.264" y1="37.291" x2="26.124" y2="37.291"/>
		<g>
			<line fill="none" stroke="#414141" stroke-width="3" stroke-miterlimit="10" x1="8.264" y1="34.621" x2="13.822" y2="34.621"/>
			<line fill="none" stroke="#414141" stroke-width="3" stroke-miterlimit="10" x1="15.614" y1="34.621" x2="21.172" y2="34.621"/>
			<line fill="none" stroke="#414141" stroke-width="3" stroke-miterlimit="10" x1="22.964" y1="34.621" x2="28.522" y2="34.621"/>
			<line fill="none" stroke="#414141" stroke-width="3" stroke-miterlimit="10" x1="30.313" y1="34.621" x2="35.872" y2="34.621"/>
		</g>
	</g>
</g>
</svg>
