<?xml version="1.0" encoding="utf-8"?>
<!-- Generator: Adobe Illustrator 17.0.0, SVG Export Plug-In . SVG Version: 6.00 Build 0)  -->
<!DOCTYPE svg PUBLIC "-//W3C//DTD SVG 1.1//EN" "http://www.w3.org/Graphics/SVG/1.1/DTD/svg11.dtd">
<svg version="1.1" id="Layer_1" xmlns="http://www.w3.org/2000/svg" xmlns:xlink="http://www.w3.org/1999/xlink" x="0px" y="0px"
	 width="50px" height="50px" viewBox="0 0 50 50" enable-background="new 0 0 50 50" xml:space="preserve">
<g>
	<g>
		<path fill="#276284" d="M40.005,42.601c0,0.257-0.208,0.465-0.465,0.465H10.145c-0.257,0-0.465-0.208-0.465-0.465V21.305h30.325
			V42.601z"/>
	</g>
	<g>
		<polygon fill="#276284" points="24.843,6.934 40.005,21.305 9.68,21.305 		"/>
	</g>
	<g>
		<g>
			<g>
				<rect x="12.385" y="10.819" fill="#FFFFFF" width="24.915" height="27.046"/>
				<path fill="#17AFBE" d="M37.4,37.964H12.285V10.719H37.4V37.964z M12.485,37.765h24.716V10.919H12.485V37.765z"/>
			</g>
		</g>
		<g>
			<rect x="22.131" y="13.752" fill="#17AFBE" width="12.361" height="0.22"/>
		</g>
		<g>
			<rect x="22.131" y="16.525" fill="#17AFBE" width="12.361" height="0.22"/>
		</g>
		<g>
			<rect x="15.194" y="19.298" fill="#17AFBE" width="19.298" height="0.22"/>
		</g>
		<g>
			<rect x="15.194" y="22.071" fill="#17AFBE" width="19.298" height="0.22"/>
		</g>
		<g>
			<rect x="15.194" y="24.843" fill="#17AFBE" width="19.298" height="0.221"/>
		</g>
		<g>
			<rect x="15.194" y="27.616" fill="#17AFBE" width="19.298" height="0.22"/>
		</g>
		<g>
			<rect x="15.194" y="30.388" fill="#17AFBE" width="19.298" height="0.22"/>
		</g>
		<g>
			<rect x="15.194" y="13.64" fill="#17AFBE" width="4.065" height="2.995"/>
		</g>
	</g>
	<g>
		<g>
			<path fill="#17AFBE" d="M40.005,42.601v-0.641l-11.027-9.231h-8.293L9.68,41.936v0.665c0,0.257,0.208,0.465,0.465,0.465H39.54
				C39.797,43.066,40.005,42.858,40.005,42.601z"/>
		</g>
		<g>
			<polygon fill="#1794A3" points="40.005,41.959 40.005,21.389 28.978,32.728 			"/>
		</g>
		<g>
			<polygon fill="#1794A3" points="9.68,41.959 9.68,21.389 20.707,32.728 			"/>
		</g>
	</g>
</g>
</svg>
