<svg xmlns="http://www.w3.org/2000/svg" xmlns:xlink="http://www.w3.org/1999/xlink" width="343.912" height="228.5"><style><![CDATA[.B{fill:#726657}.C{fill:#8c8e90}.D{fill:#4b6b98}.E{fill:#37547f}.F{fill:#fff}.G{fill:#c2986c}.H{fill:#6caa75}.I{fill:#4c6a98}.J{fill:#6e8bb7}.K{fill-rule:evenodd}.L{fill:#d05454}.M{fill:#5e5050}.N{fill:#a9d5d5}.O{fill:#e6e6e6}.P{fill:#b3b3b3}.Q{fill:#ffae00}.R{fill:#f2f3f3}.S{fill:#f2caa9}.T{fill:#9ba8b2}]]></style><path fill="#eaf3fb" d="M263.596 187.56c17.677-19.704 28.35-45.242 28.35-73.15 0-62.354-53.253-112.9-118.944-112.9S54.058 52.054 54.058 114.41c0 27.908 10.674 53.446 28.35 73.15h181.188z"/><path d="M188.867 60.837s.642-4.7 6.898-5.47 8.342.313 10.267 1.094 3.7 4.378 3.7 4.378h-20.855zm.476-14.932s.756-8.13-10.78-7.035c0 0-1.324-12.976-18.912-10.32 0 0-4.16-14.226-26.477-13.758S112.938 36.68 112.938 36.68s-7.754 2.502-4.54 9.224h80.944zm-70.607 42.612h.387c-.096.148-.152.32-.152.507 0 .527.44.952.977.952h6.302c.54 0 .977-.427.977-.952 0-.187-.058-.36-.154-.507h1.144a1.41 1.41 0 0 0-.299.867c0 .8.664 1.446 1.48 1.446.8 0 1.45-.618 1.48-1.4h4.125c.03.77.68 1.4 1.48 1.4.817 0 1.48-.647 1.48-1.446a1.41 1.41 0 0 0-.299-.867h.682v1.5h9.17v-.385h2.044v.568h3.495v-.608h.604v.385h.457v-.365h3.288v-1.094h.47a1.41 1.41 0 0 0-.299.867c0 .8.664 1.446 1.48 1.446.8 0 1.45-.618 1.48-1.4h4.125c.03.77.68 1.4 1.48 1.4.82 0 1.483-.647 1.483-1.446a1.41 1.41 0 0 0-.299-.867h5.08c.068 0 .124-.054.124-.12v-.087h.867v.202h.62v-.202h.833v.017c0 .105.088.2.195.2h6.236a1.41 1.41 0 0 0-.299.867c0 .8.664 1.446 1.48 1.446.8 0 1.45-.618 1.48-1.4h4.125c.03.77.68 1.4 1.48 1.4.82 0 1.48-.647 1.48-1.446a1.41 1.41 0 0 0-.299-.867h20.204a1.41 1.41 0 0 0-.299.867c0 .8.664 1.446 1.48 1.446.8 0 1.45-.618 1.48-1.4h4.125c.03.77.68 1.4 1.48 1.4.82 0 1.48-.647 1.48-1.446a1.41 1.41 0 0 0-.299-.867h6.236c.108 0 .197-.086.197-.2v-.017h.85v.202h.62v-.202h.85v.017c0 .105.088.2.195.2h6.236a1.41 1.41 0 0 0-.299.867c0 .8.664 1.446 1.48 1.446.8 0 1.45-.618 1.48-1.4h4.125c.03.77.68 1.4 1.48 1.4.82 0 1.48-.647 1.48-1.446a1.41 1.41 0 0 0-.299-.867h20.204a1.41 1.41 0 0 0-.299.867c0 .8.664 1.446 1.48 1.446.8 0 1.45-.618 1.48-1.4h4.125c.03.77.68 1.4 1.48 1.4.82 0 1.48-.647 1.48-1.446a1.41 1.41 0 0 0-.299-.867h6.236c.108 0 .197-.086.197-.2v-9.42c0-.107-.088-.192-.197-.192h-51.578c-.108 0-.195.086-.195.192v9.163h-.85v-.202h-.62v.202h-.85v-9.163c0-.107-.088-.192-.197-.192h-51.578c-.108 0-.195.086-.195.192v9.16H174v-.202h-.62v.202h-.867v-9.22c0-.068-.056-.122-.124-.122h-46.04c-.606 0-1.228.113-1.852.313-3.337 1.07-6.683 4.663-7.32 7.108-.347 1.428 1.144 2.37 1.563 2.37zm152.857 0l-.287.447h-2.694l-.22-.344-.07-.107 3.272.004zm-32.924 0l3.272-.006-.004.006-.066.1-.22.344h-2.694l-.287-.445zm-21.367 0l-.287.447h-2.694l-.22-.344-.07-.107 3.272.004zm-32.925 0l3.272-.006-.004.006-.066.1-.22.344h-2.694l-.287-.445zm-23.408 0h3.268l-.287.447h-2.696l-.285-.447zm-38.943-7.743c1.184-.674 2.7-1.005 2.893-1a.66.66 0 0 1 .156.019h.058v2.283c0 .074.004.132-.094.132h-1.465c-.155 0-2.402.942-2.684.942h-1.64c-.144.001 1.244-1.503 2.775-2.375z" class="F"/><path d="M229.145 88.327v-2.062h51.97v2.06c0 .105-.088.2-.197.2h-9.326l-3.272-.006.004.006H241.94l.004-.006-3.272.006h-9.326a.19.19 0 0 1-.2-.188zm-54.292 0v-2.062h51.97v2.062c0 .105-.088.2-.197.2H217.3l-3.272-.006.004.006h-26.386l.004-.006-3.272.006h-9.326c-.1 0-.2-.085-.2-.2z" fill="#dd4a5f"/><g fill="#5c4871"><use xlink:href="#B"/><use xlink:href="#C"/><use xlink:href="#B" x="-19.086"/><use xlink:href="#B" x="-28.63"/><use xlink:href="#B" x="-38.172"/><use xlink:href="#B" x="-54.622"/><use xlink:href="#B" x="-64.166"/><use xlink:href="#C" x="-64.166"/><use xlink:href="#B" x="-83.252"/><path d="M177.25 82.933a.84.84 0 0 0 .851.83h6.633a.84.84 0 0 0 .851-.83.84.84 0 0 0-.851-.83H178.1c-.468 0-.85.37-.85.83z"/><use xlink:href="#B" x="-108.158"/><use xlink:href="#C" x="-108.158"/><use xlink:href="#B" x="-127.244"/><use xlink:href="#C" x="-127.244"/></g><path fill="#dd4a5f" d="M117.175 86.265h55.358v2.132c0 .068-.056.12-.124.12h-53.673c-.407 0-1.822-.892-1.56-2.252z"/><g fill="#5c4871"><path d="M125.04 82.208h-1.465c-.155 0-2.402.942-2.684.942h-1.64c-.146 0 1.242-1.504 2.775-2.376 1.184-.674 2.7-1.005 2.893-1a.66.66 0 0 1 .156.019h.058v2.283c0 .075.004.133-.094.133zM229.145 80v-.458h51.97v.5h-51.97zm-54.292 0v-.458h51.97v.5h-51.97zm-47.363-.46h45.042v.5H127.5z"/><path d="M127.49 79.53h.512v5.637h-.512z"/><path d="M117.827 84.666h10.176v.5h-10.437l.26-.5z"/></g><path d="M230.62 109.548c0 .98-.693 1.776-1.546 1.776h-.774c-.855 0-1.546-.795-1.546-1.776V66.8c0-.98.69-1.776 1.546-1.776h.774c.853 0 1.546.796 1.546 1.776v42.758z" class="M"/><path fill="#d0e3e4" d="M158.9 40.43s4.856-.17 12.67-1.226a5.5 5.5 0 0 1 .419.314c.382.316-.42-.314-.42-.314 9.095-1.397 16.004-2.678 28.826-7.087l6.6-2.382c10.812-4.102 9.118-4.874 10.943-6.746 1.532-1.574 1.184-2.434 1.115-2.72-.1-.373-.523-.652-1.316-.914h-.002c-.64-.2-1.508-.4-2.62-.64-.024-.004-.05-.01-.075-.015-.333-.067-.752-.1-1.278-.115v-.002c-3.504-.03-5.6-.52-24.962 6.134-14.26 4.905-17.59 8.243-24.466 11.262l-.01.002-6.052 2.734.614 1.713z"/><path d="M174.247 36.738l.017.044c.047.13-3.46.73-3.324.683l35.135-12.642-.188-.518-35.135 12.642c-.137.043 3.448-.342 3.495-.21z" class="D"/><path d="M158.9 40.43s4.856-.17 12.67-1.226a5.5 5.5 0 0 1 .419.314c.382.316-.42-.314-.42-.314 9.095-1.397 16.004-2.678 28.826-7.087l6.6-2.382c-10.257 3.254-48.72 8.982-48.72 8.982l.612 1.713z" class="N"/><path d="M189.324 34.158l-.632-1.743s6.672-4.254 10.885-4.014c0 0 1.438 1.008.878 2.426-.001.002-3.633 3.084-11.13 3.33z" class="D"/><path fill="#f9a91d" d="M151.934 26.228l.01.012 5.59 8.922 1.256 3.32 11.404-6-14.726-7.47z"/><g fill="#da9228"><path d="M151.682 25.53l.256.7 4.62-1.59c.203-.07.306-.285.235-.48-.036-.098-.11-.173-.2-.214s-.194-.05-.297-.015l-4.614 1.59z"/><path d="M151.945 26.24l5.59 8.922 8.804-2.332-12.11-7.377z"/></g><path d="M178.733 38.75l-.765-2.11s8.086-5.155 13.2-4.864c0 0 1.745 1.22 1.064 2.938 5.365-4.55-.3 3.6-13.49 4.037z" class="E"/><path d="M217.95 22.988c1.532-1.574 1.184-2.434 1.115-2.72-.1-.373-.523-.652-1.316-.914-.072.03-2.174.926.2 3.633z" class="N"/><path fill="#f9a91d" d="M174.446 39.905l4.72-1.087 24-12s-6.21 1.25-12.515 3.32c-3.72 1.218-7.47 2.72-9.992 4.42l-5.17 4.597-1.032.75z"/><g fill="#da9228"><path d="M173.98 39.547l.408 1.126 9.184-3.16c.32-.1-3.06 1.305-3.175.995a.6.6 0 0 0-.314-.339c-.14-.065-.308-.08-.468-.023l-5.635 1.402z"/><path d="M175.478 39.155l2.222-.475 12.942-8.54c-3.72 1.218-7.47 2.72-9.992 4.42l-5.172 4.596z"/></g><path d="M212.478 20.4c.068.19.207.333.382.414a.76.76 0 0 0 .568.029l4.322-1.487c-.64-.2-1.508-.4-2.62-.64l-2.198.756c-.39.134-.592.548-.455.927z" class="D"/><path d="M212.478 20.4c.068.19.207.333.382.414a.76.76 0 0 0 .568.029l1.987-.683-1.9-.887-.58.2a.72.72 0 0 0-.457.927z" class="E"/><use xlink:href="#D" class="D"/><use xlink:href="#E" class="E"/><path d="M200.612 24.083l.27.745c.062.17.256.262.434.202l.743-.256a.32.32 0 0 0 .186-.16c.043-.077.053-.17.02-.26l-.27-.745c-.062-.17-.256-.262-.434-.202l-.743.256c-.096.033-.17.106-.203.192-.025.072-.027.15 0 .228z" class="D"/><path d="M200.612 24.083l.27.745c.062.17.256.262.434.202l.743-.256a.32.32 0 0 0 .186-.16l-1.628-.76c-.03.073-.03.152-.004.23z" class="E"/><path d="M198.072 24.958l.27.745c.062.17.256.262.434.202l.743-.256a.32.32 0 0 0 .186-.16c.043-.077.053-.17.02-.26l-.27-.745c-.062-.17-.256-.262-.434-.202l-.743.256c-.096.033-.17.106-.203.192-.027.07-.03.15-.002.228z" class="D"/><use xlink:href="#F" class="E"/><path d="M195.534 25.832l.27.745c.062.17.256.262.434.202l.743-.256a.32.32 0 0 0 .186-.16c.043-.077.053-.17.02-.26l-.27-.745c-.062-.17-.256-.262-.434-.202l-.743.256c-.096.033-.17.106-.203.192-.027.068-.03.15-.002.228z" class="D"/><use xlink:href="#F" x="-2.538" y="0.874" class="E"/><use xlink:href="#D" x="-10.159" y="3.495" class="D"/><use xlink:href="#E" x="-10.159" y="3.495" class="E"/><use xlink:href="#G" class="D"/><path d="M190.456 27.58l.27.745c.062.17.256.262.434.202l.743-.256a.32.32 0 0 0 .186-.16l-1.628-.76c-.034.07-.036.15-.006.23z" class="E"/><path d="M187.916 28.45l.27.745c.062.17.256.262.434.202l.743-.256a.32.32 0 0 0 .186-.16c.043-.077.053-.17.02-.26l-.27-.745c-.062-.17-.256-.262-.434-.202l-.743.256c-.096.035-.167.106-.203.194-.028.068-.03.15-.002.226z" class="D"/><use xlink:href="#E" x="-15.237" y="5.24" class="E"/><use xlink:href="#G" x="-5.078" y="1.744" class="D"/><path d="M185.378 29.324l.27.745c.062.17.256.262.434.202l.743-.256a.32.32 0 0 0 .186-.16l-1.628-.76c-.034.073-.036.152-.006.23z" class="E"/><use xlink:href="#D" x="-20.315" y="6.988" class="D"/><use xlink:href="#E" x="-20.315" y="6.988" class="E"/><path d="M180.297 31.07l.27.745c.062.17.256.262.434.202l.743-.256a.32.32 0 0 0 .186-.16c.043-.077.053-.17.02-.26l-.27-.745c-.062-.17-.256-.262-.434-.202l-.743.256c-.096.033-.17.106-.203.192a.33.33 0 0 0-.002.228z" class="D"/><path d="M180.297 31.07l.27.745c.062.17.256.262.434.202l.743-.256a.32.32 0 0 0 .186-.16l-1.628-.76c-.03.07-.033.154-.006.23z" class="E"/><path d="M177.757 31.945l.27.745c.062.17.256.262.434.202l.743-.256a.32.32 0 0 0 .186-.16c.043-.077.053-.17.02-.26l-.27-.745c-.062-.17-.256-.262-.434-.202l-.743.256c-.096.033-.17.106-.203.192-.025.07-.027.15-.002.228z" class="D"/><path d="M177.757 31.945l.27.745c.062.17.256.262.434.202l.743-.256a.32.32 0 0 0 .186-.16l-1.628-.76c-.03.07-.03.152-.006.23z" class="E"/><use xlink:href="#D" x="-27.933" y="9.61" class="D"/><path d="M175.22 32.82l.27.745c.062.17.256.262.434.202l.743-.256a.32.32 0 0 0 .186-.16l-1.628-.76c-.032.07-.034.15-.006.23z" class="E"/><use xlink:href="#D" x="-30.473" y="10.482" class="D"/><use xlink:href="#E" x="-30.473" y="10.482" class="E"/><path d="M211.4 22.378l-1.752.627.188.518 1.752-.627c.135-.046.205-.19.156-.32l-.017-.044c-.045-.13-.193-.2-.327-.153z" class="D"/><path d="M207.355 20.625l-1.293.443c-.48.167-.733.68-.564 1.15l1.43 3.943c.17.468.696.714 1.18.55l1.293-.443c.48-.167.735-.68.564-1.15l-1.43-3.943a.93.93 0 0 0-1.179-.55z" class="N"/><path d="M164.35 35.982l2.28-.897c43.863-17.43 47.148-16.496 47.148-16.496v-.002c-3.504-.03-5.6-.52-24.962 6.134-14.26 4.905-17.59 8.242-24.466 11.26z" class="F"/><g class="K"><g fill="#254659"><path d="M254.386 181.965c4.25 2.723 18.19 13.84 20.107 15.876s.298 4.99-.465 6.127-2.318.556-1.027-1.368 1.822-3.078.56-4.096-18.708-14.157-19.942-15.035-.036-2.12.767-1.504z"/><path d="M278.412 198.086c-4.13-2.902-19.703-11.587-22.313-12.59s-4.73 1.616-5.494 2.753.364 2.356 1.655.432 2.158-2.853 3.578-2.07 20.192 11.945 21.472 12.755 1.975-.77 1.102-1.28z"/></g><path d="M267.645 202.295l.373.224c3.55 2.01 5.277 1.132 6.79-.43 1.663-1.714 2.124-2.4 2.783-2.21.483.133.86-.247 1.17-.775s.328-.596-.196-1.26c-.413-.522-3.145-2.715-5.385-4.043l-.346.53c1.76 1.06 3.282 2.364 3.575 2.977.67 1.398-1.653 4.396-3.56 5.372-1.324.677-3.354.11-4.88-.887l-.325.5zm-1.597-11.807c-.758-.485-3.287-3.377-5.347-5.02l-.455-.35-.347.53c1.717 1.265 3.306 2.874 3.375 4.19.113 2.157-3.968 4.492-6.134 4.166-.658-.1-1.402-.424-2.11-.892l-.326.5c2.92 1.975 5.244.706 6.02.283 1.462-.797 2.4-2.62 4.074-1.496s.393 2.67.2 4.327c-.1.894-.446 3.605 2.635 5.566l.325-.498c-.758-.494-1.39-1.094-1.752-1.7-1.123-1.88-.51-6.542 1.53-7.255 1.23-.43 3.283.404 5.09 1.493l.346-.53-.414-.238c-2.06-1.15-4.937-1.938-6.72-3.08zm-5.802-5.37c-2.075-1.553-5.073-3.2-5.705-3.392-.812-.234-.868-.192-1.24.296s-.58.98-.274 1.377c.418.54-.033 1.224-.99 3.412-.87 1.993-1.03 3.926 2.178 6.447l.488.356.326-.5c-1.553-1.027-2.926-2.743-2.798-4.266.18-2.135 2.073-5.42 3.62-5.33.67.04 2.415.93 4.046 2.132l.346-.53z"/><path fill="#b0cad9" d="M255.854 183.518c1.375.08 7.285 3.756 7.42 6.323.113 2.157-3.968 4.492-6.134 4.166-2.102-.317-5.094-2.94-4.907-5.157.18-2.136 2.074-5.422 3.62-5.332zm20.557 13.794c-.595-1.243-6.237-5.318-8.664-4.47-2.04.713-2.652 5.374-1.53 7.255 1.1 1.825 4.653 3.6 6.633 2.586 1.908-.975 4.23-3.973 3.56-5.37z"/><path d="M256.536 183.697c2.042.776 6.62 3.888 6.738 6.144.08 1.513-1.904 3.113-3.844 3.82l-2.894-9.965zm12.59 9.085l2.948 10.15c.276-.046.537-.127.775-.248 1.908-.975 4.23-3.974 3.56-5.372-.5-1.044-4.56-4.085-7.284-4.53z" fill="#d1e2eb"/><path fill="#617f91" d="M275.263 196.067l-5.134-3.03c-.58-.193-1.128-.307-1.613-.3h-.1l-.026.001h-.026l-.013.001h-.002-.01-.013l-.012.001h-.001l-.026.002-.008.001-.004.001-.026.002h-.004l-.008.001h-.013-.003l-.02.002h-.001l-.012.002-.01.001h-.002l-.012.001-.012.002-.007.001-.126.02h-.005l-.03.005h-.002l-.03.006h-.003l-.002.001-.02.005-.007.002-.004.001-.022.006-.004.001-.007.002-.044.012-.01.003-.002.001-.022.006-.006.002-.005.001-.022.007-.033.01-.01.004-.004.001-.008.003-.007.003-.004.002-.022.008-.003.001-.008.003-.007.003-.015.006h-.001l-.01.005-.002.001-.01.004-.006.002h-.005l-.01.004-.002.001-.01.005a2.14 2.14 0 0 0-.703.537l6.662 5.066c1.262 1.018.73 2.173-.56 4.096l-.003.004c.824-.46 1.71-1.275 2.387-2.16.06-.9-.154-1.82-.892-2.605l-.453-.445 2.307 1.383c.206-.56.252-1.076.065-1.467-.143-.29-.56-.74-1.15-1.244zm-17.82-11.957l4.746 3.6c.4.463.714.93.9 1.378l.005.012h.001l.023.06.003.007.002.005.01.024.001.004.003.008.008.024v.001l.004.01.004.012.003.01.001.002.028.084.01.036.004.012.015.06.001.002.002.01.003.012.003.01v.001l.01.036.004.024.001.005.001.007.004.024v.002l.002.01.002.012.002.01v.002l.002.01v.012l.001.007.001.005.004.024v.004l.001.008.001.012v.01.001l.002.022.001.01v.002l.001.012.002.018v.005l.002.023v.003.008.023l.001.012v.11l-.001.024v.024c-.013.28-.094.564-.23.843l-7.207-4.24c-1.42-.782-2.287.148-3.578 2.07l-.012.017c.1-.938.527-2.068 1.09-3.033.814-.402 1.75-.557 2.762-.17l.584.25-2.16-1.615c.44-.403.9-.64 1.332-.616.328.013.902.23 1.593.586z"/><path d="M256.536 183.697l1.16 3.993 5.35 3.16a2.16 2.16 0 0 0 .23-.843v-.024l.001-.024v-.1l-.001-.012-.001-.023-.001-.008v-.003l-.002-.023v-.023l-.001-.012v-.002-.01l-.002-.022v-.001h-.002l-.001-.012-.001-.008v-.004l-.004-.024v-.005l-.001-.007-.002-.012-.002-.01v-.012l-.002-.012-.002-.01v-.002l-.004-.024v-.012l-.004-.024-.01-.036-.003-.01-.003-.012-.002-.01-.001-.002-.015-.06-.004-.012-.01-.036-.028-.084v-.002l-.003-.01-.004-.012-.004-.01v-.001l-.008-.024-.003-.008-.001-.004-.01-.024-.002-.005-.003-.007-.023-.06-.001-.002-.005-.012c-.186-.45-.502-.915-.9-1.378l-4.746-3.6-.9-.405zm18.727 12.37l-5.134-3.03c-.347-.116-.684-.203-1.002-.255l.87 3 3.563 2.722c1.262 1.018.73 2.173-.56 4.096l-.003.004c.824-.46 1.7-1.275 2.387-2.16.06-.9-.154-1.82-.892-2.605l-.453-.445 2.307 1.383c.206-.56.252-1.076.065-1.467-.14-.3-.56-.738-1.15-1.243z" fill="#8097a6"/><circle cx="229.647" cy="187.209" r="10.334" class="F"/><circle cx="229.647" cy="187.209" r="9.698" class="O"/><path d="M217.708 190.445l-.146-.677a.81.81 0 0 1 .619-.961l4.965-1.075a.81.81 0 0 1 .961.619l.146.677a.81.81 0 0 1-.619.961l-4.965 1.075a.81.81 0 0 1-.961-.619z" class="F"/><path d="M218.075 190.236l-.093-.43c-.06-.276.117-.55.393-.6l4.66-1c.276-.06.55.117.6.393l.093.43c.06.276-.117.55-.393.6l-4.66 1c-.276.06-.55-.117-.6-.393z" class="O"/><circle cx="229.647" cy="187.209" r="8.14" class="F"/><circle cx="229.647" cy="187.209" r="7.332" class="P"/><circle fill="#886734" cx="229.647" cy="187.209" r="6.235"/><circle fill="#694f28" cx="229.647" cy="187.209" r="4.503"/><path fill="#bd9d6e" d="M225.37 183.684c.765-.93 1.836-1.617 3.103-1.89 2.992-.648 5.942 1.252 6.6 4.243a5.52 5.52 0 0 1-.437 3.607c.37-.98.473-2.078.235-3.18a5.63 5.63 0 0 0-6.692-4.309c-1.104.24-2.06.785-2.8 1.53z"/></g><g class="M"><path d="M111.768 107.4c0 .914-.692 1.655-1.546 1.655h-.774c-.854 0-1.546-.74-1.546-1.655V67.57c0-.914.692-1.655 1.546-1.655h.774c.854 0 1.546.74 1.546 1.655v39.83zm7.482-35.483h.603V89.35h-.603zm9.6 3.043h.603v14.4h-.603zm19.952.62h.603v13.772h-.603zm9.054-2.25h.603v16.02h-.603zm-19.404 2.774h.603v13.248h-.603zm40.588-3.17h.603v16.418h-.603zm9.6 2.866h.603v13.55h-.603zm19.95.582h.603v12.97h-.603zm9.054-2.712h.603v15.68h-.603zm-19.404 3.206h.603v12.476h-.603zm-27.632 12.677c0 .515-.693.932-1.546.932h-.774c-.855 0-1.546-.417-1.546-.932V67.115c0-.515.7-.932 1.546-.932h.774c.853 0 1.546.417 1.546.932v22.438z"/><path d="M200.333 77.136c-4.578 0-8.782-.583-12.377-1.375-10.422-2.292-17.943-6.735-19.103-7.446-27.38 18.166-58.842.094-59.158-.09l.28-.548c.313.183 31.596 18.145 58.716.01l.152-.102.153.1c.31.2 31.342 19.677 59.53.006l.32.524c-9.76 6.813-19.81 8.923-28.512 8.923z"/><use xlink:href="#H"/><path d="M109.482 67.835c-27.38 18.166-45.395 2.602-45.7 2.417l.28-.548c.313.183 18.15 15.638 45.27-2.5l.152-.102.153.1c.31.2 1.014 1.344-.146.633z"/></g><path d="M156.97 112.814c-2.4-1.068-4.783-2.7-6.933-3.906-2.924-1.352-6.115-.9-9.04-2.254-.797-.45-1.596-1.803-2.66-2.254-2.66-1.352-5.317 3.605-7.976.902-3.722-3.605-7.976-6.3-12.23-5.408-3.988.902-16.786 6.242-18.5 10.082s-7.9 1.307-16.624 1.702l-.33 1.138 38.325 2.516 35.955-2.518zm96.898-.158c-3.537-1.598-6.838-2.798-10.374-3.198-9.43 0-18.627-.4-28.06-.4-3.537 0-16.377 3.947-19 4.527l-1.35 2.98 71.354.018c-3.408-1.342-6.815-2.72-10.223-4.73-.707-.798-1.887.8-2.358.8z" fill="#e0d4c0"/><g class="G"><use xlink:href="#I"/><use xlink:href="#I" y="-1.257"/><use xlink:href="#I" y="-2.515"/><use xlink:href="#I" y="-3.773"/><use xlink:href="#I" y="-5.03"/><use xlink:href="#I" y="-6.29"/><path d="M270.25 108.003h-.52l-.182-1.26h.884z"/></g><g class="H"><path d="M269.936 106.704s-2.123-1.09-2.994 2.806c-.082-.67-.63-2.2.928-3.686 1.413-1.346 2.066.88 2.066.88z"/><use xlink:href="#J"/><use xlink:href="#K"/><use xlink:href="#L"/></g><g class="G"><use xlink:href="#M"/><use xlink:href="#M" y="-1.257"/><use xlink:href="#M" y="-2.515"/><use xlink:href="#M" y="-3.773"/><use xlink:href="#M" y="-5.03"/><use xlink:href="#M" y="-6.29"/><path d="M261.274 108.003h-.522l-.18-1.26h.884z"/></g><g class="H"><use xlink:href="#N"/><use xlink:href="#O"/><path d="M261.065 106.704s2.123-1.09 2.995 2.806c.082-.67.63-2.2-.93-3.686-1.414-1.346-2.066.88-2.066.88z"/><use xlink:href="#P"/></g><g class="G"><use xlink:href="#Q"/><use xlink:href="#Q" y="-1.257"/><use xlink:href="#Q" y="-2.515"/><use xlink:href="#Q" y="-3.773"/><use xlink:href="#Q" y="-5.03"/><use xlink:href="#Q" y="-6.29"/><path d="M252.298 108.003h-.52l-.183-1.26h.885z"/></g><g class="H"><use xlink:href="#N" x="-8.975"/><use xlink:href="#J" x="-17.951"/><path d="M252.1 106.704s2.123-1.09 2.994 2.806c.082-.67.63-2.2-.93-3.686-1.413-1.346-2.065.88-2.065.88z"/><use xlink:href="#L" x="-17.95"/></g><g class="G"><use xlink:href="#R"/><use xlink:href="#R" y="-1.257"/><use xlink:href="#R" y="-2.515"/><use xlink:href="#R" y="-3.773"/><use xlink:href="#R" y="-5.03"/><use xlink:href="#R" y="-6.29"/><path d="M243.323 108.003h-.52l-.18-1.26h.883z"/></g><g class="H"><use xlink:href="#S"/><use xlink:href="#O" x="-17.95"/><use xlink:href="#T"/><use xlink:href="#U"/></g><g class="G"><use xlink:href="#V"/><use xlink:href="#V" y="-1.257"/><use xlink:href="#V" y="-2.515"/><use xlink:href="#V" y="-3.773"/><use xlink:href="#V" y="-5.03"/><use xlink:href="#V" y="-6.29"/><path d="M234.348 108.003h-.52l-.182-1.26h.885z"/></g><g class="H"><use xlink:href="#S" x="-8.975"/><use xlink:href="#O" x="-26.926"/><use xlink:href="#K" x="-35.9"/><use xlink:href="#U" x="-8.975"/></g><g class="G"><use xlink:href="#I" x="-44.877"/><use xlink:href="#I" x="-44.877" y="-1.257"/><use xlink:href="#I" x="-44.877" y="-2.515"/><use xlink:href="#I" x="-44.877" y="-3.773"/><use xlink:href="#I" x="-44.877" y="-5.03"/><use xlink:href="#I" x="-44.877" y="-6.29"/><path d="M225.373 108.003h-.52l-.182-1.26h.884z"/></g><g class="H"><use xlink:href="#N" x="-35.9"/><use xlink:href="#O" x="-35.901"/><use xlink:href="#T" x="-17.95"/><use xlink:href="#P" x="-35.901"/></g><g class="G"><use xlink:href="#Q" x="-35.901"/><use xlink:href="#Q" x="-35.901" y="-1.257"/><use xlink:href="#Q" x="-35.901" y="-2.515"/><use xlink:href="#Q" x="-35.901" y="-3.773"/><use xlink:href="#Q" x="-35.901" y="-5.03"/><use xlink:href="#Q" x="-35.901" y="-6.29"/><path d="M216.397 108.003h-.52l-.183-1.26h.885z"/></g><g class="H"><use xlink:href="#N" x="-44.876"/><use xlink:href="#O" x="-44.878"/><use xlink:href="#T" x="-26.924"/><use xlink:href="#U" x="-26.925"/></g><defs><path id="A" d="M263.596 187.56c17.677-19.704 28.35-45.242 28.35-73.15 0-62.354-53.253-112.9-118.944-112.9S54.058 52.054 54.058 114.41c0 27.908 10.674 53.446 28.35 73.15h181.188z"/><path id="B" d="M270.046 82.933a.84.84 0 0 0 .851.83h6.633a.84.84 0 0 0 .851-.83.84.84 0 0 0-.851-.83h-6.633a.84.84 0 0 0-.851.83z"/><path id="C" d="M260.502 82.933a.84.84 0 0 0 .851.83h6.633a.84.84 0 0 0 .851-.83.84.84 0 0 0-.851-.83h-6.633c-.468 0-.85.37-.85.83z"/><path id="D" d="M203.153 23.21l.27.745c.062.17.256.262.434.202l.743-.256a.32.32 0 0 0 .186-.16c.043-.077.053-.17.02-.26l-.27-.745c-.062-.17-.256-.262-.434-.202l-.743.256c-.096.033-.17.106-.203.192a.32.32 0 0 0-.002.228z"/><path id="E" d="M203.153 23.21l.27.745c.062.17.256.262.434.202l.743-.256a.32.32 0 0 0 .186-.16l-1.628-.76c-.032.07-.034.152-.006.23z"/><path id="F" d="M198.072 24.958l.27.745c.062.17.256.262.434.202l.743-.256a.32.32 0 0 0 .186-.16l-1.628-.76c-.03.07-.034.152-.006.23z"/><path id="G" d="M190.456 27.58l.27.745c.062.17.256.262.434.202l.743-.256a.32.32 0 0 0 .186-.16c.043-.077.053-.17.02-.26l-.27-.745c-.062-.17-.256-.262-.434-.202l-.743.256c-.096.033-.17.106-.203.192a.3.3 0 0 0-.002.228z"/><path id="H" d="M279.666 67.835c-27.38 18.166-49.712.575-50.027.4l.28-.548c.313.183 22.467 17.665 49.587-.472l.152-.102.153.1c.3.2 1.014 1.344-.146.633z"/><path id="I" d="M270.25 115.55h-.52l-.182-1.258h.884z"/><path id="J" d="M269.953 106.704s-1.03-3.05-3.42-1.188c.245-.568.547-2.252 2.34-1.652 1.624.544 1.082 2.84 1.082 2.84z"/><path id="K" d="M270.04 106.704s2.123-1.09 2.994 2.806c.082-.67.63-2.2-.93-3.686-1.412-1.346-2.065.88-2.065.88z"/><path id="L" d="M270.023 106.704s1.03-3.05 3.42-1.188c-.244-.568-.546-2.252-2.34-1.652-1.624.544-1.082 2.84-1.082 2.84z"/><path id="M" d="M261.274 115.55h-.522l-.18-1.258h.884z"/><path id="N" d="M260.96 106.704s-2.123-1.09-2.994 2.806c-.082-.67-.63-2.2.93-3.686 1.413-1.346 2.065.88 2.065.88z"/><path id="O" d="M260.978 106.704s-1.03-3.05-3.42-1.188c.244-.568.546-2.252 2.34-1.652 1.624.544 1.082 2.84 1.082 2.84z"/><path id="P" d="M261.047 106.704s1.03-3.05 3.42-1.188c-.245-.568-.547-2.252-2.34-1.652-1.623.544-1.082 2.84-1.082 2.84z"/><path id="Q" d="M252.298 115.55h-.52l-.183-1.258h.885z"/><path id="R" d="M243.323 115.55h-.52l-.18-1.258h.883z"/><path id="S" d="M243.01 106.704s-2.123-1.09-2.994 2.806c-.082-.67-.63-2.2.93-3.686 1.412-1.346 2.065.88 2.065.88z"/><path id="T" d="M243.114 106.704s2.123-1.09 2.994 2.806c.082-.67.63-2.2-.928-3.686-1.414-1.346-2.066.88-2.066.88z"/><path id="U" d="M243.097 106.704s1.03-3.05 3.42-1.188c-.245-.568-.547-2.252-2.34-1.652-1.624.544-1.082 2.84-1.082 2.84z"/><path id="V" d="M234.348 115.55h-.52l-.182-1.258h.885z"/><path id="W" d="M43.318 126.565l10.748-.286 28.333-.54 18.93-.25 21.127-.195 22.593-.126c7.695-.017-85.245-.033-77.43-.05l23.325.048 22.593.124 21.127.193 18.93.25 28.333.543 7.938.21 2.8.08-2.8.08-7.938.21-28.333.543-18.93.25-21.127.193-22.593.124-23.325.048c-7.815-.017 85.122-.033 77.43-.05l-22.593-.126-21.127-.195-18.93-.25-28.333-.54-10.748-.282z"/><path id="X" d="M121.733 133.926l4.276-.286 11.27-.54 7.53-.25 8.403-.203 18.265-.168 9.28.042 8.986.12 8.403.203 7.53.25 11.27.543 4.276.288-4.276.288-11.27.543-7.53.25-8.403.203-8.986.12-9.28.042-18.265-.168-8.403-.203-7.53-.25-11.27-.54-4.276-.282z"/><path id="Y" d="M187.482 129.952l5.836-.286 15.387-.54 10.28-.25 11.474-.195 12.27-.126 12.666-.05c4.245.015-237.2.033-233.033.048l12.27.124 11.474.193 10.28.25 15.387.543 5.836.288-5.836.288-15.387.543-10.28.25-11.474.193-12.27.124c-4.18.015 237.275.033 233.033.048l-12.666-.05-12.27-.126-11.474-.195-10.28-.25-15.387-.54-5.836-.282z"/><path id="Z" d="M68.96 134.92l4.164-.286 10.978-.54c9.083-.384 21.195-.614 33.307-.62 12.112.002 24.224.23 33.307.616l10.978.543 4.164.288-4.164.288-10.978.543c-9.083.386-21.195.614-33.307.616-12.112-.006-24.224-.236-33.307-.62l-10.978-.54-4.164-.286z"/><path id="a" d="M187.772 139.617l5.08-.286 13.393-.54 8.95-.25 9.987-.195 10.68-.13 11.027-.044 11.027.042 10.68.13 9.987.193 8.95.25 13.393.543 5.08.288-5.08.288-13.393.543-8.95.25-9.987.193-10.68.13-11.027.042-11.027-.044-10.68-.13-9.987-.195-8.95-.25-13.393-.54-5.08-.282z"/><path id="b" d="M108.737 183.01a.61.61 0 0 0-.211-.195.61.61 0 0 1 .218 1.104c-.196.13-.44.13-.632.023.152.03.315.003.454-.09a.61.61 0 0 0 .171-.843z"/><path id="c" d="M102.788 176.67l-15.986 10.585-.028-.042 15.986-10.585z"/><path id="d" d="M109.908 182.233c-.056-.084-.087-.177-.098-.27a.61.61 0 0 0 .932.631.61.61 0 0 0 .268-.573.61.61 0 0 1-1.102.212z"/><path id="e" d="M103.6 171.953c.1.152.086.333-.034.412l-.468.3-.094-.142.468-.3c.034-.022.035-.103-.014-.177s-.123-.104-.157-.082l-.468.3-.094-.142.468-.3c.12-.078.293-.02.393.13zm-.502.722l-.47.31c-.12.08-.29.022-.392-.13s-.086-.333.033-.412l.47-.31.094.142-.47.31c-.033.022-.034.102.015.176s.123.104.156.083l.47-.31.094.14z"/><path id="f" d="M99.955 164.555l15.986-10.585.028.043-15.986 10.585z"/><path id="g" d="M100.596 165.524l15.986-10.585.028.042-15.986 10.585z"/><path id="h" d="M101.88 167.462l15.986-10.585.027.04-15.986 10.585z"/><path id="i" d="M138.578 148.788h4.34v2.48a.41.41 0 0 1-.408.408h-3.524a.41.41 0 0 1-.408-.408v-2.48z"/><path id="j" d="M204.267 159.15h2.196a.61.61 0 0 1 .61.61v2.434a.61.61 0 0 1-.61.61h-2.196a.61.61 0 0 1-.61-.61v-2.434a.61.61 0 0 1 .61-.61z"/><path id="k" d="M199.885 155.724h2.418a.5.5 0 0 1 .499.499v1.797a.5.5 0 0 1-.499.499h-2.418a.5.5 0 0 1-.499-.499v-1.797a.5.5 0 0 1 .499-.499z"/><path id="l" d="M195.94 155.724h2.09a.5.5 0 0 1 .499.499v1.797a.5.5 0 0 1-.499.499h-2.09a.5.5 0 0 1-.5-.499v-1.797a.5.5 0 0 1 .5-.499z"/><path id="m" d="M191.932 155.724h2.09a.5.5 0 0 1 .499.499v1.797a.5.5 0 0 1-.499.499h-2.09a.5.5 0 0 1-.499-.499v-1.797a.5.5 0 0 1 .499-.499z"/><path id="n" d="M179.905 155.724h2.09a.5.5 0 0 1 .5.499v1.797a.5.5 0 0 1-.5.499h-2.09a.5.5 0 0 1-.5-.499v-1.797a.5.5 0 0 1 .5-.499z"/><path id="o" d="M191.77 159.15h2.155a.6.6 0 0 1 .599.599v2.456a.6.6 0 0 1-.599.599h-2.155a.6.6 0 0 1-.599-.599v-2.456a.6.6 0 0 1 .599-.599z"/><path id="p" d="M145.83 163.437h2.308c.353 0 .642.29.642.642v2.37c0 .353-.29.642-.642.642h-2.308c-.353 0-.642-.29-.642-.642v-2.37c0-.353.29-.642.642-.642z"/><path id="q" d="M150.26 163.437h2.308c.353 0 .64.29.64.642v2.37c0 .353-.29.642-.64.642h-2.308c-.353 0-.642-.29-.642-.642v-2.37c0-.353.29-.642.642-.642z"/><path id="r" d="M159.123 163.437h2.308c.353 0 .642.29.642.642v2.37c0 .353-.29.642-.642.642h-2.308c-.353 0-.642-.29-.642-.642v-2.37c.001-.353.29-.642.642-.642z"/><path id="s" d="M167.986 163.437h2.308c.353 0 .642.29.642.642v2.37c0 .353-.29.642-.642.642h-2.308c-.353 0-.64-.29-.64-.642v-2.37c-.001-.353.288-.642.64-.642z"/><path id="t" d="M176.848 163.437h2.308c.353 0 .642.29.642.642v2.37c0 .353-.29.642-.642.642h-2.308c-.353 0-.64-.29-.64-.642v-2.37c0-.353.288-.642.64-.642z"/><path id="u" d="M147.062 167.723h2.308c.353 0 .64.29.64.642v2.37c0 .353-.29.642-.64.642h-2.308c-.353 0-.642-.29-.642-.642v-2.37c.001-.353.3-.642.642-.642z"/><path id="v" d="M169.218 167.723h2.308c.353 0 .642.29.642.642v2.37c0 .353-.29.642-.642.642h-2.308c-.353 0-.642-.29-.642-.642v-2.37c.001-.353.3-.642.642-.642z"/><path id="w" d="M136.747 103.087v2.883c0 .4.342.743.763.743h5.117l-4.483-4.37h-.636c-.42-.001-.76.333-.76.743z"/><path id="x" d="M129.006 103.087v2.883c0 .4.342.743.763.743h5.666c.42 0 .763-.333.763-.743v-2.883c0-.4-.342-.743-.763-.743h-5.666c-.42-.001-.763.333-.763.743z"/><path id="y" d="M121.267 103.087v2.883c0 .4.342.743.763.743h5.666c.42 0 .763-.333.763-.743v-2.883c0-.4-.342-.743-.763-.743h-5.666c-.424-.001-.763.333-.763.743z"/><path id="z" d="M121.267 103.087v2.883c0 .4.342.743.763.743h5.117l-4.483-4.37h-.636a.75.75 0 0 0-.761.743z"/><path id="AA" d="M140.538 114.672a1.07 1.07 0 0 0 1.082 1.055c.3 0 .57-.117.765-.31l-1.53-1.492c-.196.19-.316.454-.316.746z"/></defs><clipPath id="AB"><use xlink:href="#A"/></clipPath><g clip-path="url(#AB)"><g fill="#cccbcb"><path d="M352.678 117.54l-29.726.238-78.368.42-52.358.164-58.438.137-62.49.035c-21.28-.014 202.8-.03 181.185-.042l-127.004-.353-58.435-.303c-18.578-.112 64.614-.218 48.4-.317l-44.248-.34-34.115-.307-29.723-.324 29.726-.24 34.117-.21 44.25-.212c16.213-.052-66.975-.106-48.396-.166l58.438-.135 62.49-.033 64.515.044c21.618.048-202.463.097-181.185.143l62.49.214 58.435.303 52.353.315 78.363.645 29.723.323z"/><use xlink:href="#W"/><use xlink:href="#X"/><path d="M147.22 142.53l4.088-.286c2.603-.162-94.435-.37-89.973-.54 8.92-.384 20.818-.614 32.714-.62 11.895.002 23.8.23 32.714.616l10.782.543 4.088.288-4.088.288-10.782.543c-8.92.386-20.818.614-32.714.616-11.895-.006-23.8-.236-32.714-.62-4.462-.17 92.576-.38 89.973-.54l-4.088-.286zm-104.683-5.294l5.4-.286 14.2-.54 9.493-.25 10.596-.195 11.33-.13 11.7-.044 11.7.042 11.33.13 10.596.193 9.493.25c5.88.17-89.973.38-86.544.543l5.4.288-5.4.288c-3.43.162 92.425.373 86.544.543l-9.493.25-10.596.193-11.33.13-11.7.042-11.7-.044-11.33-.13-10.596-.195-9.493-.25-14.2-.54-5.4-.282z"/><path d="M182.3 145.626l3.698-.286 9.752-.54c8.07-.384 18.832-.614 29.593-.62 10.76.002 21.522.23 29.593.616 4.036.17-238.303.38-235.948.543l3.698.288s-1.346.126-3.698.288 239.983.373 235.948.543c-8.07.386-18.832.614-29.593.616-10.76-.006-21.522-.236-29.593-.62l-9.752-.54-3.698-.286zm35.472-7.068l2.974-.286 7.84-.54c6.487-.384 15.14-.614 23.8-.62 8.65.002-228.397.23-221.9.616 3.244.17 5.95.38 7.84.543l2.974.288s-1.082.126-2.974.288a236.79 236.79 0 0 1-7.84.543c-6.487.386 230.56.614 221.9.616-8.65-.006-17.303-.236-23.8-.62a240.85 240.85 0 0 1-7.841-.541l-2.974-.286z"/><use xlink:href="#Y"/><path d="M189.212 121.678l5.985-.286 15.78-.54 10.54-.25 11.767-.195 12.583-.126 13-.05c4.352.015-236.993.033-232.71.048l12.583.124 11.767.193 10.54.25 15.78.543 5.985.288-5.985.288-15.78.543-10.54.25-11.767.193-12.583.124c-4.284.015 237.06.033 232.71.048l-13-.05-12.583-.126-11.767-.195-10.54-.25-15.78-.54-5.985-.282z"/><use xlink:href="#Z"/><path d="M60.308 145.18l4.757-.286 12.543-.54 8.382-.25 9.355-.203 20.33-.168 10.327.042 10.003.12 9.355.203 8.382.25 12.543.543 4.757.288-4.757.288-12.543.543-8.382.25-9.355.203-10.003.12-10.327.042-20.33-.168-9.355-.203-8.382-.25-12.543-.54-4.757-.282zm115.064-18.868l4.292-.286 11.312-.54 7.556-.25 8.435-.203 18.333-.168 9.313.042 9.02.12 8.435.203 7.556.25 11.312.543 4.292.288-4.292.288-11.312.543-7.556.25-8.435.203-9.02.12-9.313.042-18.333-.168-8.435-.203-7.556-.25-11.312-.54-4.292-.282z"/><use xlink:href="#X" x="-0.865" y="-14.236"/><use xlink:href="#a"/><use xlink:href="#W" y="21.953"/><use xlink:href="#Y" y="21.955"/><use xlink:href="#Z" y="21.952"/><use xlink:href="#a" y="12.29"/><path d="M191.808 130.284l4.906-.286 12.935-.54 8.644-.25 9.647-.203 20.967-.168 10.65.042 10.316.12 9.647.203 8.644.25 12.935.543 4.906.288-4.906.288-12.935.543-8.644.25-9.647.203-10.316.12-10.65.042-20.967-.168-9.647-.203-8.644-.25-12.935-.54-4.906-.282zM48.196 125.98l3.53-.286 9.3-.54c7.705-.384 17.98-.614 28.252-.62 10.275.002 20.547.23 28.252.616l9.3.543 3.53.288s-1.283.126-3.53.288l-9.3.543c-7.705.386-17.98.614-28.252.616-10.275-.006-20.547-.236-28.252-.62l-9.3-.54-3.53-.286z"/></g><g class="M"><path d="M52.42 89.243H168.1v1.675H52.42z"/><path d="M168.1 89.188h123.845v1.675H168.1zm-126.408 4.54H168.1v1.064H41.692z"/><path d="M168.1 93.693h126.4v1.064H168.1zm-105.984 19.35c0 1.038-.692 1.88-1.546 1.88h-.774c-.854 0-1.546-.842-1.546-1.88V67.796c0-1.038.692-1.88 1.546-1.88h.774c.854 0 1.546.842 1.546 1.88v45.246z"/><path d="M282.24 111.798c0 1.03-.693 1.866-1.546 1.866h-.774c-.855 0-1.546-.836-1.546-1.866V66.88c0-1.03.69-1.866 1.546-1.866h.774c.853 0 1.546.836 1.546 1.866v44.918z"/><path d="M330.487 67.835c-27.38 18.166-49.712.575-50.027.4l.28-.548c.312.183 22.467 17.665 49.587-.472l.152-.102.153.1c.3.2 1.014 1.344-.146.633z"/><use xlink:href="#H" x="-219.621"/></g><path fill="#e0d4c0" d="M48.29 111.325h250.344v5.263H48.29z"/></g><path d="M73.574 175.547l43.564-28.846 18.398 27.785-43.564 28.846z" class="Q"/><path d="M113.235 188.877L93.67 201.832l-18.087-27.316 19.565-12.955z" class="F"/><circle cx="109.755" cy="185.446" r=".609" class="B"/><path d="M110.084 185.044c-.055-.084-.13-.148-.21-.195a.61.61 0 0 1 .218 1.104.61.61 0 0 1-.632.024.61.61 0 0 0 .625-.933z" class="C"/><circle cx="108.407" cy="183.41" r=".609" class="B"/><use xlink:href="#b" class="C"/><circle cx="107.059" cy="181.374" r=".609" class="B"/><path d="M107.388 180.973c-.055-.084-.13-.15-.21-.195a.61.61 0 0 1 .218 1.104c-.196.13-.44.13-.632.023.152.03.315.003.454-.09a.61.61 0 0 0 .171-.843z" class="C"/><circle cx="105.711" cy="179.338" r=".609" class="B"/><path d="M106.04 178.937a.62.62 0 0 0-.211-.195.61.61 0 0 1 .218 1.104c-.196.13-.44.13-.632.023a.61.61 0 0 0 .625-.932z" class="C"/><circle cx="104.363" cy="177.302" r=".608" class="B"/><use xlink:href="#b" x="-4.044" y="-6.11" class="C"/><circle cx="103.015" cy="175.267" r=".609" class="B"/><path d="M103.344 174.865a.62.62 0 0 0-.21-.195.61.61 0 0 1 .218 1.104c-.196.13-.44.13-.632.023.152.03.315.003.454-.09a.61.61 0 0 0 .17-.843z" class="C"/><circle cx="101.667" cy="173.231" r=".608" class="B"/><path d="M101.996 172.83c-.055-.084-.13-.15-.21-.195a.61.61 0 0 1 .218 1.104.61.61 0 0 1-.633.023c.152.03.315.003.454-.09.28-.185.358-.563.172-.843z" class="C"/><circle cx="100.319" cy="171.195" r=".609" class="B"/><path d="M100.648 170.793a.62.62 0 0 0-.211-.195.61.61 0 0 1 .218 1.104c-.196.13-.44.13-.632.023.152.03.315.002.454-.1.28-.184.357-.562.17-.842z" class="C"/><circle cx="98.971" cy="169.159" r=".609" class="B"/><path d="M99.3 168.758a.61.61 0 0 0-.211-.195.61.61 0 0 1 .218 1.104.61.61 0 0 1-.633.023c.152.03.315.003.454-.09.28-.186.358-.564.172-.843z" class="C"/><circle cx="97.623" cy="167.123" r=".608" class="B"/><path d="M97.952 166.722a.62.62 0 0 0-.21-.195c.153.03.296.12.39.26a.61.61 0 0 1-.171.843c-.196.13-.44.13-.632.024.152.03.315.002.454-.1a.61.61 0 0 0 .17-.843z" class="C"/><circle cx="96.275" cy="165.087" r=".609" class="B"/><path d="M96.604 164.686a.61.61 0 0 0-.211-.195c.153.03.295.12.388.26a.61.61 0 0 1-.171.843c-.196.13-.44.13-.632.023.152.03.315.003.454-.09.28-.185.358-.563.172-.843z" class="C"/><path d="M96.877 164.385l.47-.3c.12-.08.3-.022.4.13s.086.333-.033.4l-.47.3-.094-.142.47-.3c.033-.022.034-.102-.015-.176s-.123-.104-.156-.082l-.47.3-.093-.14zm-.468.3l.468-.3.094.142-.468.3c-.034.022-.035.103.014.176s.123.104.157.082l.468-.3.094.142-.468.3c-.12.08-.3.023-.392-.13s-.087-.333.033-.412zm1.807 1.713l.47-.3c.12-.08.3-.02.392.13s.086.333-.033.4l-.47.3-.094-.142.47-.3c.033-.022.034-.102-.015-.176s-.123-.104-.156-.082l-.47.3-.094-.14zm-.468.3l.468-.3.094.142-.468.3c-.034.022-.034.103.014.176s.123.104.157.082l.468-.3.094.142-.468.3c-.12.08-.3.022-.392-.13s-.087-.333.033-.412zm1.807 1.722l.47-.3c.12-.08.3-.022.4.13s.086.333-.033.4l-.47.3-.094-.142.47-.3c.033-.022.034-.102-.015-.176s-.123-.104-.156-.083l-.47.3-.093-.14zm-.468.3l.468-.3.094.142-.468.3c-.034.022-.035.103.014.176s.123.104.157.082l.468-.3.094.142-.468.3c-.12.08-.3.022-.392-.13s-.087-.332.033-.412zm1.807 1.722l.47-.3c.12-.08.3-.02.392.13s.086.332-.033.4l-.47.3-.094-.14.47-.3c.033-.022.033-.102-.015-.176s-.123-.105-.156-.083l-.47.3-.094-.142zm-.468.3l.468-.3.094.142-.468.3c-.034.022-.035.103.014.177s.123.104.157.082l.468-.3.094.14-.468.3c-.12.08-.3.022-.392-.13s-.087-.332.033-.412zm1.807 1.723l.47-.3c.12-.08.3-.02.4.13s.086.333-.033.4l-.47.3-.094-.142.47-.3c.033-.022.034-.102-.015-.176s-.123-.104-.156-.082l-.47.3-.093-.14zm-.468.3l.468-.3.094.142-.468.3c-.034.022-.035.103.014.176s.123.104.157.082l.468-.3.094.142-.468.3c-.12.08-.3.022-.392-.13s-.087-.333.033-.412zm1.807 1.722l.47-.3c.12-.08.3-.02.4.13s.086.333-.033.4l-.47.3-.094-.142.47-.3c.033-.022.034-.102-.015-.176s-.123-.104-.156-.083l-.47.3-.093-.14zm-.468.3l.468-.3.094.142-.468.3c-.034.022-.035.103.014.176s.123.104.157.082l.468-.3.094.142-.468.3c-.12.08-.3.022-.392-.13s-.087-.333.033-.412zm1.806 1.723l.47-.3c.12-.08.3-.02.392.13s.086.333-.033.4l-.47.3-.094-.142.47-.3c.033-.022.034-.102-.015-.176s-.123-.104-.156-.082l-.47.3-.094-.14zm-.468.3l.468-.3.094.142-.468.3c-.034.022-.035.103.014.176s.123.104.157.082l.468-.3.094.142-.468.3c-.12.08-.3.022-.392-.13s-.087-.332.033-.412zm1.808 1.722l.47-.3c.12-.08.3-.02.392.13s.086.333-.033.4l-.47.3-.094-.142.47-.3c.033-.022.034-.102-.015-.176s-.123-.104-.156-.082l-.47.3-.094-.14zm-.47.3l.468-.3.094.142-.468.3c-.034.022-.035.102.014.176s.123.104.157.082l.468-.3.094.142-.468.3c-.12.08-.3.022-.392-.13s-.086-.333.033-.412zm1.82 1.722l.47-.3c.12-.08.3-.022.392.13s.086.333-.033.4l-.47.3-.094-.142.47-.3c.033-.022.034-.102-.015-.176s-.123-.104-.156-.082l-.47.3-.094-.14zm-.47.3l.468-.3.094.142-.468.3c-.034.022-.035.102.014.176s.123.104.157.082l.468-.3.094.142-.468.3c-.12.08-.3.022-.392-.13s-.086-.332.033-.412zm1.8 1.722l.47-.3c.12-.08.3-.02.392.13s.086.333-.033.4l-.47.3-.094-.14.47-.3c.033-.022.034-.102-.015-.176s-.123-.105-.156-.083l-.47.3-.094-.142zm-.47.3l.468-.3.094.142-.468.3c-.034.022-.035.103.014.176s.123.104.157.082l.468-.3.094.14-.468.3c-.12.08-.3.022-.392-.13s-.086-.332.033-.4zm1.808 1.714l.47-.3c.12-.08.3-.022.392.13s.086.333-.033.4l-.47.3-.094-.14.47-.3c.033-.022.034-.102-.015-.176s-.123-.104-.156-.082l-.47.3-.094-.142zm-.47.3l.468-.3.094.142-.468.3c-.034.022-.035.102.014.176s.123.104.157.082l.468-.3.094.14-.468.3c-.12.08-.3.023-.392-.13s-.086-.332.033-.4z" fill="#343434"/><g fill="#5d5e60"><path d="M96.373 166.982l-15.986 10.585-.028-.043 15.986-10.585zm.642.968L81.03 178.535l-.028-.042 15.986-10.585zm.64.97L81.67 179.504l-.028-.042 15.986-10.585zm.642.967L82.3 180.472l-.027-.04 15.986-10.585zm.64.97L82.953 181.44l-.028-.043L98.9 170.814zm.642.968L83.595 182.4l-.028-.043 15.986-10.585zm.642.97L84.236 183.38l-.028-.042 15.986-10.585zm.64.97l-15.986 10.585-.028-.043 15.986-10.585zm.64.967L85.52 185.316l-.027-.04 15.986-10.585zm.642.97L86.16 186.285l-.028-.042 15.986-10.585z"/><use xlink:href="#c"/><path d="M103.43 177.638l-15.986 10.585-.027-.04 15.986-10.585z"/><use xlink:href="#c" x="1.282" y="1.937"/><path d="M104.712 179.576L88.726 190.16l-.028-.043 15.986-10.585zm.642.97L89.368 191.13l-.028-.042 15.986-10.585zm.64.967l-15.986 10.585-.027-.04 15.986-10.585zm.643.97L90.65 193.067l-.028-.042 15.986-10.585z"/><use xlink:href="#c" x="4.489" y="6.78"/><use xlink:href="#c" x="5.132" y="7.75"/><use xlink:href="#c" x="5.772" y="8.718"/><path d="M109.2 186.357L96.283 194.9l-.028-.042 12.918-8.554z"/></g><path fill="#2c577d" d="M118.93 154.863l.48-.317c.746-.494 1.007-1.41.585-2.05l-2.633-3.976c-.423-.64-1.37-.756-2.116-.262l-.48.317 4.164 6.288z"/><path fill="#da4622" d="M121.897 159.345l.48-.317c.746-.494 1.007-1.41.584-2.05l-2.632-3.975c-.423-.64-1.37-.757-2.116-.263l-.48.317 4.164 6.288z"/><path fill="#ffcf66" d="M124.845 163.798l.48-.317c.746-.494 1.007-1.412.584-2.05l-2.632-3.976c-.423-.638-1.37-.756-2.115-.262l-.48.317 4.163 6.288z"/><path d="M95.47 161.353l19.565-12.955 18.087 27.316-19.565 12.955z" class="P"/><path d="M115.032 148.398l-19.565 12.955 18.087 27.316 14.46-9.575 2.913-6.688z" class="F"/><path d="M128.015 179.094s.437-2.35-1.142-4.163c0 0 2.72-.808 4.055-2.525l-2.913 6.688z" class="O"/><circle cx="111.755" cy="184.122" r=".609" class="B"/><path d="M111.256 184.27a.62.62 0 0 1-.097-.27.61.61 0 0 0 .932.631.61.61 0 0 0 .268-.573.61.61 0 0 1-1.103.212z" class="C"/><circle cx="110.407" cy="182.086" r=".609" class="B"/><use xlink:href="#d" class="C"/><circle cx="109.059" cy="180.05" r=".609" class="B"/><path d="M108.56 180.197c-.055-.084-.087-.177-.098-.27a.61.61 0 0 0 .932.631.61.61 0 0 0 .268-.573.6.6 0 0 1-.259.383.61.61 0 0 1-.843-.171z" class="C"/><circle cx="107.711" cy="178.014" r=".609" class="B"/><path d="M107.212 178.16c-.056-.084-.086-.177-.098-.27a.61.61 0 0 0 .932.631.61.61 0 0 0 .268-.573.61.61 0 0 1-1.102.212z" class="C"/><circle cx="106.363" cy="175.979" r=".608" class="B"/><use xlink:href="#d" x="-4.044" y="-6.108" class="C"/><circle cx="105.015" cy="173.943" r=".609" class="B"/><path d="M104.516 174.09a.62.62 0 0 1-.097-.27.61.61 0 0 0 .932.631.61.61 0 0 0 .268-.573c-.032.152-.12.29-.26.383a.61.61 0 0 1-.844-.171z" class="C"/><circle cx="103.667" cy="171.907" r=".608" class="B"/><path d="M103.168 172.053c-.055-.084-.087-.177-.097-.27a.61.61 0 0 0 .932.631.61.61 0 0 0 .268-.573c-.032.152-.12.29-.26.383a.61.61 0 0 1-.844-.171z" class="C"/><circle cx="102.319" cy="169.871" r=".609" class="B"/><path d="M101.82 170.018c-.056-.084-.086-.176-.098-.27a.61.61 0 0 0 .932.631.61.61 0 0 0 .268-.573.61.61 0 0 1-1.102.212z" class="C"/><circle cx="100.971" cy="167.835" r=".609" class="B"/><path d="M100.472 167.982c-.056-.084-.086-.177-.098-.27a.61.61 0 0 0 .933.632.61.61 0 0 0 .268-.573c-.032.152-.12.29-.26.383a.61.61 0 0 1-.844-.172z" class="C"/><circle cx="99.623" cy="165.799" r=".608" class="B"/><path d="M99.124 165.946a.62.62 0 0 1-.097-.27.61.61 0 0 0 .931.63c.196-.13.292-.353.268-.572a.61.61 0 0 1-.26.382c-.28.186-.656.1-.842-.17z" class="C"/><circle cx="98.275" cy="163.764" r=".609" class="B"/><path d="M97.776 163.9a.6.6 0 0 1-.097-.27.61.61 0 0 0 .932.631.61.61 0 0 0 .268-.573c-.032.152-.12.29-.26.383a.61.61 0 0 1-.844-.171z" class="C"/><g fill="#343434"><path d="M98.254 163.864c.1.152.086.333-.034.412l-.468.3-.094-.142.468-.3c.034-.022.035-.103-.014-.176s-.123-.104-.157-.082l-.468.3-.094-.142.468-.3c.12-.08.292-.022.393.13zm-.502.72l-.47.3c-.12.08-.3.023-.392-.13s-.086-.333.033-.412l.47-.3.094.142-.47.3c-.033.022-.034.102.015.176s.123.104.156.082l.47-.3.094.142zm1.84 1.302c.1.152.086.333-.034.412l-.468.3-.094-.142.468-.3c.034-.022.035-.103-.014-.177s-.123-.104-.157-.082l-.468.3-.094-.142.468-.3c.12-.078.292-.02.393.13zm-.502.722l-.47.3c-.12.08-.3.022-.392-.13s-.086-.333.033-.412l.47-.3.094.142-.47.3c-.033.022-.034.102.015.176s.123.105.156.083l.47-.3.094.14zm1.84 1.3c.1.152.086.333-.034.412l-.468.3-.094-.142.468-.3c.034-.022.035-.103-.014-.177s-.123-.104-.157-.082l-.468.3-.094-.142.468-.3c.12-.077.292-.02.393.13zm-.502.722l-.47.3c-.12.08-.3.022-.392-.13s-.086-.333.033-.412l.47-.3.094.142-.47.3c-.033.022-.034.102.015.176s.123.104.156.083l.47-.3.094.14zm1.84 1.3c.1.152.086.333-.034.412l-.468.3-.094-.14.468-.3c.034-.022.035-.103-.014-.177s-.123-.105-.157-.082l-.468.3-.094-.142.468-.3c.12-.08.292-.022.393.13zm-.502.722l-.47.3c-.12.08-.3.022-.392-.13s-.086-.333.033-.412l.47-.3.094.142-.47.3c-.033.022-.034.102.015.176s.123.104.156.082l.47-.3.094.142z"/><use xlink:href="#e"/><use xlink:href="#e" x="1.35" y="2.022"/><path d="M106.288 175.998c.1.152.086.333-.034.412l-.468.3-.094-.142.468-.3c.034-.022.035-.103-.014-.177s-.123-.104-.157-.082l-.468.3-.094-.142.468-.3c.12-.078.293-.02.393.13zm-.502.72l-.47.3c-.12.08-.3.022-.392-.13s-.086-.333.033-.412l.47-.3.094.142-.47.3c-.033.022-.034.102.015.176s.123.104.156.083l.47-.3.094.14zm1.84 1.302c.1.152.086.333-.034.412l-.468.3-.094-.142.468-.3c.034-.022.035-.103-.014-.177s-.123-.104-.157-.082l-.468.3-.094-.142.468-.3c.12-.078.293-.02.393.13zm-.502.722l-.47.3c-.12.08-.3.022-.392-.13s-.086-.333.033-.412l.47-.3.094.142-.47.3c-.033.022-.034.102.015.176s.123.104.156.082l.47-.3.094.142zm1.84 1.3c.1.152.086.333-.034.412l-.468.3-.094-.142.468-.3c.034-.022.035-.103-.014-.176s-.123-.104-.157-.082l-.468.3-.094-.142.468-.3c.12-.08.293-.022.393.13zm-.502.722l-.47.3c-.12.08-.3.022-.392-.13s-.086-.333.033-.412l.47-.3.094.142-.47.3c-.033.022-.034.102.015.176s.123.104.156.082l.47-.3.094.142zm1.842 1.3c.1.152.086.333-.034.412l-.468.3-.094-.14.468-.3c.034-.022.035-.103-.014-.177s-.123-.104-.157-.082l-.468.3-.094-.142.468-.3c.12-.08.292-.022.393.13zm-.503.722l-.47.3c-.12.08-.3.022-.392-.13s-.086-.333.033-.412l.47-.3.094.142-.47.3c-.033.022-.034.102.015.176s.123.104.156.082l.47-.3.094.142zm1.842 1.3c.1.152.086.333-.034.412l-.468.3-.094-.14.468-.3c.034-.022.035-.103-.014-.177s-.123-.104-.157-.082l-.468.3-.094-.142.468-.3c.12-.08.292-.022.393.13zm-.503.722l-.47.3c-.12.08-.3.023-.392-.13s-.086-.333.033-.412l.47-.3.094.142-.47.3c-.033.022-.034.102.015.176s.123.104.156.082l.47-.3.094.142z"/></g><g fill="#5d5e60"><use xlink:href="#f"/><use xlink:href="#g"/><use xlink:href="#g" x="0.642" y="0.969"/><use xlink:href="#h"/><use xlink:href="#f" x="2.565" y="3.875"/><use xlink:href="#f" x="3.207" y="4.845"/><use xlink:href="#g" x="3.208" y="4.844"/><use xlink:href="#f" x="4.49" y="6.782"/><use xlink:href="#h" x="3.208" y="4.844"/><use xlink:href="#g" x="5.134" y="7.751"/><use xlink:href="#g" x="5.774" y="8.719"/><use xlink:href="#h" x="5.132" y="7.751"/><use xlink:href="#g" x="7.057" y="10.656"/><use xlink:href="#f" x="8.339" y="12.595"/><use xlink:href="#g" x="8.34" y="12.594"/><use xlink:href="#h" x="7.698" y="11.626"/><use xlink:href="#g" x="9.624" y="14.532"/><use xlink:href="#g" x="10.264" y="15.501"/><use xlink:href="#g" x="10.906" y="16.47"/><use xlink:href="#g" x="11.548" y="17.439"/><path d="M112.785 183.93l12.918-8.554.028.042-12.918 8.554z"/></g><g class="K"><path fill="#3e565b" d="M135.18 148.788h74.855a1.75 1.75 0 0 1 1.746 1.746v48.55a1.75 1.75 0 0 1-1.746 1.746H135.18a1.75 1.75 0 0 1-1.746-1.746v-48.55a1.75 1.75 0 0 1 1.746-1.746z"/><g class="P"><use xlink:href="#i"/><use xlink:href="#i" x="63.717"/></g><path fill="#283638" d="M127.944 133.812h89.174c2.145 0 2.797 1 1.917 2.38l-7.46 11.705h-78.142l-6.647-10.505c-1.492-2.358-1.203-3.58 1.16-3.58z"/><path fill="#1eb9c1" d="M214.47 137.38l-5.426 8.943h-73.02l-5.482-8.943z"/><path fill="#3e565b" d="M127.452 134.14h90.38a.35.35 0 0 1 .349.349.35.35 0 0 1-.349.349h-90.38a.35.35 0 0 1-.349-.349.35.35 0 0 1 .349-.349z"/><path d="M139.194 146.54h3.107a.36.36 0 0 1 .36.36v3.672a.36.36 0 0 1-.36.36h-3.107a.36.36 0 0 1-.36-.36V146.9c.001-.198.162-.36.36-.36zm63.716 0h3.107a.36.36 0 0 1 .36.36v3.672a.36.36 0 0 1-.36.36H202.9a.36.36 0 0 1-.36-.36V146.9a.36.36 0 0 1 .36-.36z" class="F"/><g fill="#ccc"><path d="M204.156 155.724h2.418a.5.5 0 0 1 .499.499v1.797a.5.5 0 0 1-.499.499h-2.418a.5.5 0 0 1-.5-.499v-1.797a.5.5 0 0 1 .5-.499z"/><use xlink:href="#j"/><use xlink:href="#j" y="4.287"/><use xlink:href="#j" y="8.573"/><use xlink:href="#j" y="12.86"/><use xlink:href="#j" y="17.145"/><use xlink:href="#k"/><path d="M196.094 159.15h6.055c.36 0 .653.294.653.653v2.348c0 .36-.294.653-.653.653h-6.055c-.36 0-.653-.294-.653-.653v-2.348c0-.36.294-.653.653-.653zm2.78 4.287h3.275c.36 0 .653.294.653.653v2.348c0 .36-.294.653-.653.653h-3.275c-.36 0-.653-.294-.653-.653V164.1c0-.36.294-.653.653-.653zm-3.26 4.286h6.537c.36 0 .653.294.653.653v2.348c0 .36-.294.653-.653.653h-6.537c-.36 0-.653-.294-.653-.653v-2.348c0-.36.293-.653.653-.653z"/><use xlink:href="#j" x="-4.271" y="12.86"/><use xlink:href="#j" x="-4.271" y="17.145"/><use xlink:href="#l"/><use xlink:href="#m"/><use xlink:href="#l" x="-8.017"/><path d="M183.914 155.724h2.092a.5.5 0 0 1 .499.499v1.797a.5.5 0 0 1-.499.499h-2.092a.5.5 0 0 1-.499-.499v-1.797a.5.5 0 0 1 .499-.499z"/><use xlink:href="#n"/><use xlink:href="#m" x="-16.036"/><use xlink:href="#l" x="-24.053"/><path d="M167.878 155.724h2.09a.5.5 0 0 1 .5.499v1.797a.5.5 0 0 1-.5.499h-2.09a.5.5 0 0 1-.499-.499v-1.797a.5.5 0 0 1 .499-.499z"/><use xlink:href="#m" x="-28.062"/><use xlink:href="#m" x="-32.072"/><use xlink:href="#m" x="-36.082"/><use xlink:href="#m" x="-40.09"/><use xlink:href="#m" x="-44.099"/><use xlink:href="#n" x="-36.081"/><use xlink:href="#k" x="-60.565"/><use xlink:href="#o"/><use xlink:href="#o" x="-4.35"/><use xlink:href="#o" x="-8.7"/><use xlink:href="#o" x="-13.05"/><use xlink:href="#o" x="-17.4"/><use xlink:href="#o" x="-21.75"/><use xlink:href="#o" x="-26.1"/><use xlink:href="#o" x="-30.448"/><use xlink:href="#o" x="-34.798"/><use xlink:href="#o" x="-39.147"/><use xlink:href="#o" x="-43.497"/><use xlink:href="#o" x="-47.846"/><use xlink:href="#j" x="-64.835"/><path d="M139.474 163.437h4.518c.36 0 .653.294.653.653v2.348c0 .36-.294.653-.653.653h-4.518c-.36 0-.653-.294-.653-.653V164.1c0-.36.294-.653.653-.653zm0 4.286h5.372c.36 0 .653.294.653.653v2.348c0 .36-.294.653-.653.653h-5.372c-.36 0-.653-.294-.653-.653v-2.348c0-.36.294-.653.653-.653zm0 4.287h7.7c.36 0 .653.294.653.653V175c0 .36-.294.653-.653.653h-7.7c-.36 0-.653-.294-.653-.653v-2.348c0-.36.294-.653.653-.653zm0 4.285h3.198c.36 0 .653.294.653.653v2.348c0 .36-.294.653-.653.653h-3.198c-.36 0-.653-.294-.653-.653v-2.348c0-.36.294-.653.653-.653z"/><use xlink:href="#p"/><use xlink:href="#q"/><path d="M154.692 163.437H157c.353 0 .642.29.642.642v2.37c0 .353-.29.642-.642.642h-2.308c-.353 0-.642-.29-.642-.642v-2.37c.001-.353.29-.642.642-.642z"/><use xlink:href="#r"/><use xlink:href="#p" x="17.725"/><use xlink:href="#s"/><use xlink:href="#s" x="4.431"/><use xlink:href="#t"/><path d="M181.28 163.437h2.308c.353 0 .64.3.64.642v2.37c0 .353-.3.642-.64.642h-2.308c-.353 0-.64-.3-.64-.642v-2.37c0-.353.288-.642.64-.642zm4.42 0h2.308c.353 0 .642.3.642.642v2.37c0 .353-.3.642-.642.642H185.7c-.353 0-.642-.3-.642-.642v-2.37c.001-.353.3-.642.642-.642z"/><use xlink:href="#p" x="44.312"/><use xlink:href="#p" x="48.743"/><use xlink:href="#u"/><use xlink:href="#q" x="1.234" y="4.286"/><use xlink:href="#p" x="10.095" y="4.286"/><use xlink:href="#q" x="10.096" y="4.286"/><use xlink:href="#r" x="5.664" y="4.286"/><use xlink:href="#v"/><use xlink:href="#p" x="27.82" y="4.286"/><use xlink:href="#p" x="32.25" y="4.286"/><path d="M182.512 167.723h2.308c.353 0 .64.29.64.642v2.37c0 .353-.29.642-.64.642h-2.308c-.353 0-.64-.29-.64-.642v-2.37c-.001-.353.288-.642.64-.642z"/><use xlink:href="#r" x="27.82" y="4.286"/><use xlink:href="#u" x="44.312"/><use xlink:href="#p" x="3.553" y="8.573"/><path d="M153.813 172.01h2.308c.353 0 .642.29.642.642v2.37c0 .353-.29.642-.642.642h-2.308c-.353 0-.64-.29-.64-.642v-2.37c0-.353.29-.642.64-.642z"/><use xlink:href="#p" x="12.415" y="8.573"/><use xlink:href="#p" x="16.846" y="8.573"/><use xlink:href="#r" x="7.984" y="8.573"/><use xlink:href="#v" x="2.32" y="4.287"/><use xlink:href="#p" x="30.14" y="8.573"/><path d="M180.4 172.01h2.308c.353 0 .64.29.64.642v2.37c0 .353-.29.642-.64.642H180.4c-.353 0-.64-.29-.64-.642v-2.37c-.001-.353.288-.642.64-.642z"/><use xlink:href="#s" x="16.846" y="8.573"/><use xlink:href="#r" x="30.14" y="8.573"/><path d="M193.706 172.01h4.173c.36 0 .653.294.653.653V175c0 .36-.294.653-.653.653h-4.173c-.36 0-.653-.294-.653-.653v-2.348c0-.36.293-.653.653-.653z"/><use xlink:href="#t" x="-31.968" y="12.858"/><path d="M149.3 176.295h2.308c.353 0 .642.29.642.642v2.37c0 .353-.29.642-.642.642H149.3c-.353 0-.642-.29-.642-.642v-2.37c.001-.353.29-.642.642-.642z"/><use xlink:href="#v" x="-15.478" y="8.572"/><use xlink:href="#p" x="12.343" y="12.858"/><use xlink:href="#p" x="16.774" y="12.858"/><use xlink:href="#q" x="16.775" y="12.858"/><path d="M171.466 176.295h2.308c.353 0 .64.3.64.642v2.37c0 .353-.3.642-.64.642h-2.308c-.353 0-.642-.3-.642-.642v-2.37c.001-.353.3-.642.642-.642zm4.43 0h2.308c.353 0 .64.3.64.642v2.37c0 .353-.3.642-.64.642h-2.308c-.353 0-.64-.3-.64-.642v-2.37c0-.353.3-.642.64-.642z"/><use xlink:href="#p" x="34.5" y="12.858"/><use xlink:href="#p" x="38.93" y="12.858"/><path d="M189.202 176.295h4.173c.36 0 .653.294.653.653v2.348c0 .36-.294.653-.653.653h-4.173c-.36 0-.653-.294-.653-.653v-2.348c0-.36.294-.653.653-.653zm6.523 0h2.196a.61.61 0 0 1 .61.61v2.434a.61.61 0 0 1-.61.61h-2.196a.61.61 0 0 1-.61-.61v-2.434a.6.6 0 0 1 .6-.6zm-34.632 6.728h23.026a.64.64 0 0 1 .639.638v11.072a.64.64 0 0 1-.639.638h-23.026a.64.64 0 0 1-.639-.638V183.66a.64.64 0 0 1 .639-.638zm-.506 13.177h11.452c.073 0 .132.06.132.133v2.3c0 .073-.06.133-.132.133h-11.452c-.073 0-.133-.06-.133-.133v-2.3c0-.073.06-.133.133-.133zm12.586 0h11.452c.073 0 .133.06.133.133v2.3c0 .073-.06.133-.133.133h-11.452c-.073 0-.133-.06-.133-.133v-2.3c.001-.073.06-.133.133-.133z"/></g><path fill="#1ec6d8" d="M130.543 137.38l78.502 8.944 5.426-8.944z"/><path fill="#f85a68" d="M88.624 187.793l1.68-2.142.448 2.684-5.02 19.684a.6.6 0 0 1-.728.432l-.967-.247a.6.6 0 0 1-.432-.728l5.02-19.683z"/><path fill="#c62229" d="M88.624 187.793l1.68-2.142-.64 2.5-5.144 20.168-.483-.123a.6.6 0 0 1-.432-.728l5.02-19.685z"/><path d="M88.624 187.793l1.68-2.142.448 2.684-4.803 18.83c-.782-.064-1.484-.25-2.127-.543l4.803-18.828z" class="F"/><path fill="#d0d0d0" d="M88.624 187.793l1.68-2.142-.64 2.5-4.802 18.826a6.06 6.06 0 0 1-1.04-.365l4.803-18.83z"/><path fill="#f5e6b6" d="M88.624 187.793l1.68-2.142.448 2.684-4.63 18.15c-.788-.056-1.5-.24-2.127-.543l4.63-18.15z"/><path fill="#f9a818" d="M88.624 187.793l1.68-2.142-.64 2.5-4.63 18.154c-.365-.092-.7-.216-1.038-.37l4.63-18.15z"/><path fill="#f0b16c" d="M88.624 187.793l1.68-2.142.448 2.684a5.99 5.99 0 0 1-1.088-.175c-.37-.094-.717-.218-1.04-.367z"/><path fill="#c78b4c" d="M88.624 187.793l1.68-2.142-.64 2.5a6.09 6.09 0 0 1-1.039-.368z"/><path fill="#1e1e1e" d="M89.748 186.358l.555-.708.148.887c-.117-.008-.238-.027-.36-.058a1.88 1.88 0 0 1-.343-.121z"/></g><path fill="#b9dbf1" d="M235.09 126.17l.864-1.424 3.902-.13 27.35 1.077.767 3.92h-34.7z"/><path fill="#2a84b8" d="M280.06 135.022l-35.935.987c-9.83.195-14.414 0-14.414 0s-3.034-3.15-6-5.654-4.43-3.884-4.43-3.884l18.82-.302s2.568 1.424 6.996 1.51l17.315.518c1.195 0 1.417 1.38 5.978 1.424l12.4.216v1.77s-.288.96-.532 1.93-.2 1.483-.2 1.483z"/><path d="M239.857 124.617l40.734 1.607-.2-2.287-12.422-.582 1.13-5.89c.067-.292-1.362-.68-1.66 0l-2.424 5.665-17.437-.67-8.17-.173s-4.45.195-4.45.195l-.93 2.33 5.832-.196z" class="R"/><path d="M236.487 124.728l-.754 1.48 1.26-.02.895-1.506zm1.843-.06l-1.023 1.515 1.268.212 1.282-1.777zm4.8.08l.33 2.244h2.823l-.653-2.146zm4.57.204l.375 2.245h3.188l-.738-2.147zm4.573.15l.375 2.245h3.2l-.74-2.146zm4.517.184l.373 2.288h3.2l-.74-2.176zm4.208.196l.373 2.244h3.2l-.74-2.146z" fill="#223442"/><g fill="#9a2022"><path d="M266.244 126.08c-.468 0-.846.485-.846 1.085s.38 1.085.846 1.085.846-.485.846-1.085-.378-1.085-.846-1.085zm.065 1.85c-.33 0-.6-.344-.6-.768s.268-.768.6-.768.6.344.6.768-.268.768-.6.768z"/><path d="M266.938 127.128c0-.424-.268-.768-.6-.768-.17 0-.324.092-.433.24a.53.53 0 0 1 .403-.201c.33 0 .6.344.6.768 0 .205-.063.392-.167.53a.88.88 0 0 0 .197-.567zm-.665 1.085c-.468 0-.846-.485-.846-1.085a1.25 1.25 0 0 1 .24-.753 1.24 1.24 0 0 0-.268.79c0 .598.38 1.085.846 1.085.24 0 .454-.127.608-.33a.76.76 0 0 1-.58.293z"/></g><path fill="#174669" d="M280.79 131.607l-40.552-1.165c-1.33 0-1.716.087-1.772.313s-.662.377 12.15.55l30.068.656.105-.354z"/><path fill="#e2e4e3" d="M234.958 122.48l-.93 2.33 5.48-.195 1.295-2.348-3.287.08-2.558.133z"/><path fill="#174669" d="M280.06 134.76l-51.362.225 1 1.023s4.583.195 14.414 0l35.935-.987s-.005-.09.003-.26z"/><path fill="#e2e4e3" d="M242.97 122.3l-1.67-3.703 6.244-.357 7.705.324v4.25z"/><path d="M241.765 118.57l1.065 2.355h2.922l-1.045-2.523zm3.165-.182l1.064 2.537h2.446l-1.045-2.686zm2.937-.136l1.217 2.588 1.926.085v-2.54zm4.183 4.418v-4.1l1.153.08v4.082z" fill="#323437"/><path fill="#2f5279" d="M266.85 118.827l-19.494-1.462-7.013.432.238.95 6.963-.508 18.984 1.343z"/><path d="M255.25 122.812v-2.286l2.06 2.328z" class="R"/><path d="M265.015 123.127l.46-1.077-9.195-.36 1.03 1.165z" class="F"/><path d="M255.426 120.08l10.514.475-.074 1.552-10.513-.475zm25.164 3.55c-.01 0-.02 0-.03-.001l-12.62-.445c-.44-.015-.783-.376-.768-.805a.79.79 0 0 1 .826-.748l12.62.445c.44.015.783.376.768.805a.79.79 0 0 1-.797.75z" class="R"/><path d="M268.633 125.782h1.594v3.83h-1.594zm1.95.078h1.594v3.8h-1.594zm3.945 3.85l-1.594-.026.06-3.745 1.594.026zm1.946.012l-1.594-.027.064-3.703 1.594.027zm3.046.112l-.067-3.618 1.594-.03.067 3.618z" fill="#b9dbf1"/><path fill="#56add4" d="M268.39 129.623c-4.56-.043-4.783-1.424-5.978-1.424s-12.887-.432-17.315-.518-6.996-1.51-6.996-1.51l-18.82.302.297.276 18.524-.297s2.568 1.424 6.996 1.51l17.315.518c1.195 0 1.417 1.38 5.978 1.424l12.4.216v-.28c0-.003-7.84-.175-12.4-.217z"/><g class="K"><path fill="#ffd7b7" d="M204.58 217.925l11.717-3.725-2.927-9.205.515-11.062-16.368 1.776z"/><g class="S"><path d="M211.246 185.024c1.51-.09 2.8 1.07 2.908 2.576l1.554 21.645c.1 1.506-1.068 2.817-2.576 2.91-.142.008-.282.006-.42-.007l.12 1.624c.115 1.575-1.117 2.948-2.696 3.044-1.1.067-2.087-.502-2.624-1.386a3.11 3.11 0 0 1-1.842.749c-1.706.103-3.166-1.21-3.29-2.914l-2.174-30c-.123-1.705 1.208-3.186 2.914-3.29 1.627-.098 3.03 1.09 3.264 2.68.384-.23.826-.372 1.3-.4 1.58-.095 2.928 1.12 3.044 2.696l.01.155c.164-.043.334-.07.508-.08z"/><path d="M211.03 221.73l1.497-.476-6.778-16.26c-1.253-3.007-3.493-2.76-5.45-2.137l7.114 17.068c.598 1.435 2.226 2.248 3.617 1.806z"/></g><path d="M219.1 217.687l-14.806 4.707-2.384-7.5 14.806-4.707z" class="Q"/><path fill="#f06358" d="M202.87 221.388l16.716-5.314 3.955 12.28h-18.423z"/><path fill="#ee4e42" d="M211.228 218.73l8.358-2.657 3.955 12.28h-9.21z"/><g class="S"><path d="M193.232 188.16c1.158-.516 2.513.017 3.042 1.166l2.92 6.358 5.527 4.014 7.958 4.607-3.915 7.92-5.684-3.964c-2.005.637-4.157-2.13-4.885-3.715l-6.13-13.345c-.53-1.15.008-2.526 1.166-3.042zm-61.564 35.75l-11.762-6.122 8.544-16.414 11.762 6.122z"/><path d="M146.982 196.484l-2.68 5.072 7.113-4.038c3.01-1.71 4.81.783 5.147 2.44l-15.213 10.196c-2.12 1.42-5.887.72-9.066-.824-6.57-3.19-8.333-9.467-3.83-18.416l2.114-7.57c.918-3.185 5.407-1.855 4.454 1.352l-.937 3.156c.194-.1.452-.145.69-.183l2.487-5.998c1.25-3.107 5.39-.988 4.36 1.632l-1.97 5.013c.134.036.384.16.475.203l3.017-6.145c1.36-2.77 5.53-.677 4.17 2.07l-3.5 7.118a8.58 8.58 0 0 1 .388.597l8.453-13.476c1.61-2.565 5.6-.183 3.933 2.5l-9.604 15.31z"/></g><path d="M123.43 207.74l14.432 7.512-6.625 13.102h-7.714l-8.325-4.333z" class="Q"/><path fill="#f06358" d="M132.91 228.355l3.243-6.3-17.3-9.01-7.888 15.3z"/><path fill="#ee4e42" d="M132.91 228.355l3.243-6.3-8.655-4.504-5.566 10.794z"/></g><path d="M93.184 113.926h3.38v.557h-3.38z" class="T"/><path fill="#e9625c" d="M93.184 102.865v10.285l3.317 1.757h53.432c.777-.235 1.082-1.235 1.113-2.57l-.017-.894-.05-.68c-.29-3.04-1.4-6.768-1.744-7.714-.583-1.588-1.862-1.702-1.862-1.702H94.738c-.858.003-1.554.68-1.554 1.517z"/><path d="M93.184 103.054v10.096l3.317 1.757h19.11v-3.01l-18.24-2.37v-6.473z" class="L"/><path d="M148.767 103.054l1.074 7.115c.053.344.356.6.715.6h.423c-.3-3.04-1.4-6.768-1.744-7.714h-.468v-.002zm-12.02.033v2.883a.76.76 0 0 0 .763.743h5.666c.42 0 .763-.333.763-.743v-2.883a.76.76 0 0 0-.763-.743H137.5c-.42-.001-.763.333-.763.743z" class="I"/><use xlink:href="#w" class="J"/><use xlink:href="#x" class="I"/><path d="M129.006 103.087v2.883c0 .4.342.743.763.743h5.117l-4.483-4.37h-.634c-.42-.001-.763.333-.763.743z" class="J"/><use xlink:href="#y" class="I"/><use xlink:href="#z" class="J"/><use xlink:href="#y" x="-7.741" class="I"/><use xlink:href="#z" x="-7.741" class="J"/><use xlink:href="#y" x="-15.482" class="I"/><use xlink:href="#z" x="-15.482" class="J"/><use xlink:href="#x" x="-30.963" class="I"/><use xlink:href="#w" x="-38.704" class="J"/><path d="M144.712 102.343v6.722l4.346 1.702-.362-2.186-.68-4.134c-.12-.735-.665-1.34-1.4-1.55l-1.904-.555z" class="I"/><path d="M144.712 109.065v5.842h4.346v-4.14z" class="L"/><g fill="#243549"><path d="M147.575 114.907h3.38a.34.34 0 0 0 .345-.336v-.068a.34.34 0 0 0-.345-.336h-3.38v.74z"/><ellipse cx="141.62" cy="114.672" rx="2.316" ry="2.257"/></g><ellipse fill="#66717c" cx="141.62" cy="114.672" rx="1.29" ry="1.257"/><path fill="#8897a3" d="M140.538 114.672a1.07 1.07 0 0 0 1.082 1.055c.3 0 .57-.117.765-.31s.317-.454.317-.746a1.07 1.07 0 0 0-1.082-1.055 1.09 1.09 0 0 0-.765.309 1.03 1.03 0 0 0-.317.746z"/><use xlink:href="#AA" class="T"/><ellipse fill="#243549" cx="100.359" cy="114.672" rx="2.316" ry="2.257"/><ellipse fill="#66717c" cx="100.359" cy="114.672" rx="1.29" ry="1.257"/><ellipse fill="#8897a3" cx="100.359" cy="114.672" rx="1.082" ry="1.055"/><use xlink:href="#AA" x="-41.261" class="T"/><path d="M150.24 111.896c0 .287.238.516.53.516.1 0 .196-.027.275-.077l-.017-.894a.55.55 0 0 0-.261-.066.53.53 0 0 0-.527.52zm-26.56-10.546h12.513v-.183c0-.615-.5-1.115-1.144-1.115H124.82c-.63 0-1.144.497-1.144 1.115l.003.183zm-18.476 0h8.347v-.183c0-.615-.5-1.115-1.144-1.115h-6.06c-.63 0-1.144.497-1.144 1.115v.183zm-7.93 5.852h46.4c.137 0 .25.1.25.243v.08c0 .134-.112.243-.25.243h-46.4c-.137 0-.25-.1-.25-.243v-.08c0-.134.113-.243.25-.243z" fill="#f5b11b"/><path d="M130.12 114.23h4.966c.38 0 .7-.3.7-.672v-1.508a.68.68 0 0 0-.69-.672h-4.966c-.38 0-.7.3-.7.672v1.508a.68.68 0 0 0 .69.672zm-7.743 0h4.966c.38 0 .7-.3.7-.672v-1.508a.68.68 0 0 0-.69-.672h-4.966c-.38 0-.7.3-.7.672v1.508c.001.37.3.672.7.672z" class="L"/><ellipse fill="#f5b11b" cx="94.541" cy="102.382" rx=".348" ry=".339"/><path d="M93.6 104.53h2.038v4.036H93.6zm51.122.17v4.366l4.346 1.703-.36-2.2z" class="J"/><g class="L"><path d="M147.575 107.486h.547c.356 0 .645-.28.645-.628v-1.946c0-.347-.29-.628-.645-.628h-.547v3.202z"/><path d="M147.808 103.204h.365v1.325h-.365z"/></g><path d="M197.22 170.666c1.34-.617 2.924-.018 3.557 1.312l9.12 21.188.2.134-6.025.076-8.154-19.154c-.634-1.33-.027-2.94 1.313-3.556z" class="K S"/></svg>