<?xml version="1.0" encoding="utf-8"?>
<!-- Generator: Adobe Illustrator 17.0.0, SVG Export Plug-In . SVG Version: 6.00 Build 0)  -->
<!DOCTYPE svg PUBLIC "-//W3C//DTD SVG 1.1//EN" "http://www.w3.org/Graphics/SVG/1.1/DTD/svg11.dtd">
<svg version="1.1" id="Layer_1" xmlns="http://www.w3.org/2000/svg" xmlns:xlink="http://www.w3.org/1999/xlink" x="0px" y="0px"
	 width="50px" height="50px" viewBox="0 0 50 50" enable-background="new 0 0 50 50" xml:space="preserve">
<circle fill="#F69421" cx="38.015" cy="10.224" r="4.134"/>
<path fill="#F69421" d="M45.516,30.313v-1.459c0.61-0.305,0.979-0.975,0.872-1.686c-1.372-9.127-5.698-11.81-5.705-11.813
	C40.19,15,39.624,14.74,39.045,14.598c0,0-0.438-0.093-0.988-0.093s-1.04,0.08-1.04,0.08c-0.003,0.001-0.007,0.001-0.01,0.003
	c-0.571,0.136-1.129,0.388-1.617,0.732c-0.03,0.016-4.927,3.182-5.776,11.848c-0.087,0.882,0.453,1.699,1.328,1.841
	c0.087,0.014,0.173,0.02,0.258,0.02c0.774,0,1.455-0.56,1.582-1.348c0.317-1.962,0.637-3.519,1.003-4.776v4.411
	c0,0.432,0.135,0.99,0.282,1.359l-0.018,15.467c0,1.048,0.849,1.897,1.897,1.897c1.047,0,1.897-0.85,1.897-1.897l-0.001-13.189
	c0.075,0.004,0.15,0.01,0.226,0.01c0.014,0,0.029-0.001,0.044-0.002L38.11,44.142c0,1.047,0.849,1.897,1.897,1.897
	c0.001,0,0.001,0,0.001,0c1.047,0,1.896-0.85,1.896-1.897l0.001-15.446c0.249-0.461,0.341-0.809,0.341-1.38v-4.312
	c0.353,1.24,0.664,2.766,0.974,4.677c0.106,0.657,0.599,1.151,1.208,1.299v1.333h-0.762v8.491h2.741v-8.49h-0.891V30.313z"/>
<path fill="#3CC2D1" d="M31.757,17.929l-2.133-3.339l-4.827,3.084l0.883,1.382c-1.153,0.264-2.163-0.524-3.978-2.745
	c-0.88-1.077-2.277-2.381-2.877-2.748l-6.573,11.416h7.966v-5.118c1.312,1.377,2.979,2.726,5.071,2.726
	c0.742,0,1.539-0.17,2.391-0.568c0.792-0.37,1.166-1.26,0.921-2.073L31.757,17.929z M26.313,18.835l-0.614-0.961l3.727-2.38
	l1.43,2.237l-2.557,1.633C27.832,18.779,27.031,18.553,26.313,18.835z"/>
<path fill="#3CC2D1" d="M7.175,24.979h3.438c-0.085-2.633,0.446-3.526,0.446-3.526v2.98l6.666-11.577
	c-0.28-0.133-0.572-0.237-0.867-0.316c1.69-0.577,2.876-2.301,3.173-4.079c0.311-0.323,0.287-0.678,0.178-0.958
	c0.693-0.132,0.959-0.312,0.959-0.603c0-0.32-0.323-0.506-1.182-0.641L19.911,6.01c1.112-0.309,1.802-0.736,1.802-1.209
	c0-0.94-2.719-1.703-6.075-1.703c-3.355,0-6.075,0.762-6.075,1.703c0,0.473,0.689,0.9,1.802,1.209l-0.082,0.27
	c-0.765,0.134-1.058,0.316-1.058,0.62c0,0.276,0.239,0.451,0.851,0.581c-0.115,0.282-0.15,0.647,0.169,0.98
	c0.297,1.78,1.487,3.506,3.179,4.081c-0.536,0.143-1.059,0.375-1.528,0.687C11.23,14.217,7.305,17.69,7.175,24.979z M12.069,9.109
	c0.86,0.309,2.035,0.458,3.57,0.458c1.533,0,2.709-0.149,3.569-0.457c-0.525,1.605-1.846,2.981-3.569,2.981
	C13.915,12.09,12.594,10.715,12.069,9.109z"/>
<g>
	<path fill="#231912" d="M20.463,35.443c-0.285,0-0.427,0.172-0.427,0.515v2.826c0,0.345,0.143,0.518,0.427,0.518
		s0.427-0.173,0.427-0.518v-2.826C20.89,35.615,20.748,35.443,20.463,35.443z"/>
	<polygon fill="#231912" points="12.913,38.327 13.709,38.327 13.311,35.681 	"/>
	<path fill="#231912" d="M4.096,25.904v4.305h1.042v15.463H26.35V30.209h1.151v-4.305H4.096z"/>
</g>
</svg>
