<svg xmlns="http://www.w3.org/2000/svg" xmlns:xlink="http://www.w3.org/1999/xlink" width="343.912" height="228.5"><style><![CDATA[.B{stroke-miterlimit:10}.C{fill:#eb8518}]]></style><path d="M204.573 150.18c-.374.42-.9.64-1.547.666 1.16.693 1.27 1.876 2.14 2.723-.426-1.13.814-2.478-.594-3.4m-9.678-7.71h-.512c.187.266.417.512.7.73l-.177-.73m2.738 5.85c.417-.565.158-.783-.77-.666.235.24.493.458.77.666m-10.62-21c.024-.698-.024-1.4-.345-2.062 2.84.075 4.042-3.096 4.918-4.694.953-1.748 5.584-2.813 7.562-1.85.972.474 2.53.245 3.563-.037 1.365-.368 2.438.25 3.86-.202 2.572-.815 4.05 2.243 5.196.464.172 2.787 4.44.837 5.862 2.686.694.906 3.1.948 2.864-.426-.125-.762-2.294-1.694-1-2.403.546-.298 1.077.304 1.25-.4.14-.565.752-.368 1.307-.405.694-.048.6-.8 1.173-.837.785-.053 1.576.794 2.14 1.114 2.466 1.4 5.785-.645 7.03-2.195.01.512.148 1.098-.08 1.593-.254.544-1.322.8-1.054 1.503.26.66.034 1.348.26 2.014.24.698.886 1.524 1.24 2.2.862 1.668 2.165 2.313 1.528 4.305-.292.9-.915 1.732-.484 2.67.335.725 1 1.417 1.106 2.2.096.75-.35 1.817-.742 2.494-.532.9-.8-.272-1.7.107-1.125.474-1.858 1.348-2.92 1.876-1.537.762-2.763.634-4.502.97.757.7.053 1.62.594 2.392-.972-.15-3.515-1.487-4.28-.565-.498.602-1.556.693-1.34 1.476.225.826.6 1.758 1.15 2.483.646.853 2.624.895 2.84 2.126-1.12.128-.144.735-.168 1.46-.795-.197-1.724-.176-2.447-.544-.623-.32-.9-1.295-1.83-1.156-1.753.266-4.027 1.583-5.65.368-.905.73.206 1.7-.963 2.616-1.14.88-2.17.437-3.5.847-.972.304-1.1.8-2.313.4-1.183-.4-3.606-.666-4.2-1.6.32.986-1.427 1.662-2.347 1.018-1.216-.853-.105-1.034.603-1.62.828-.682-.182-2.5-.948-2.984-1.374-.853-1.532 1.38-1.758 1.924-.848-.554-1.37.25-2.15-.043-1.178-.448-.465-1.902-.747-2.654-.26-.687.608-1.668-.306-2.17-.637-.346-2.007-1.556-.402-1.716-.68-.277-1.14-.01-1.283.533.22-1.135-1.03-2.142-1.532-3.128-.56-1.098.172-2.638-.704-3.618-1.877-2.083-3.276-4.066-4.353-6.543" fill="#83ae9b" stroke="#fff" stroke-width="5.066" class="B"/><g fill="#704914"><ellipse cx="116.641" cy="80.786" rx=".75" ry=".523"/><ellipse cx="118.902" cy="81.705" rx=".75" ry=".523"/></g><g fill="#83ae9b" stroke="#fff" class="B"><g stroke-width="2.533"><path d="M154.314 168.2c-.44 1.114-.192 2.323.33 3.4 1.28-.794 1.135-2.765-.33-3.4m2.13.598c.26.464.57.916.77 1.396.048-.57-.2-1.034-.77-1.396m5.483 5.185c-.1-.533-.383-1.002-.857-1.396.072.544.36 1.007.857 1.396m5.478 6.047c-.603.47-.67 1.167.345 1.332l-.345-1.332m1.466-22.933c-.6.42-.565.815.08 1.2.575-.416.546-.815-.08-1.2m-.177-1.727c-.263.474.23.67.77.666a5.77 5.77 0 0 0-.77-.666m19.015-17.684l.843.064c.01-.538-.42-.964-1.02-1.2a4 4 0 0 0 .177 1.135m2.654 1.993c-.273.517-.13.96.426 1.332.168-.506.03-.948-.426-1.332"/><path d="M136.154 85.1c.527.79 2.734.762 3.458.18.876-.698-.857-2.6-.627-3.506.125-.506.646-.858.68-1.396.048-.83-.82-1.37-.527-2.254.182-.565 1.504-2.472 2.002-2.403 1.45.208 2.873.698 4.363.442.71-.117 1.384-.746 2.088-.735.714.01.996.554 1.6-.165.594-.71-.512-2.05.886-2.33 1.006-.202 4.837.405 2.782-1.662 1.47-.06 5.416-2.078 5.402.4.805-.176 1.063-1.07 2.002-.847.42.096 1.844 1.567 2.18 1.865.828.73-.335 1.828-.58 2.563-.34 1.034.58 1.838 1.542 2.45 1.35.853 3.328-.863 4.87-.512.94.213 1.805.218 1.288 1.188-.498.932 1.178 2.27 1.38 3.138.168.73-.45 1.46-.32 2.233.177 1.034-1.015 1.567-.958 2.43.03.416.99.66 1.097 1.2.172.9.235 1.694-.196 2.547-1.044 2.078-1.987 3.272 1.14 4.146 1.293-1.567 4.583-2.733 4.707-4.785 1.45.677 1.566-1.162 2.677-1.178.766-.01 1.8 1.15 2.505 1.423.55.213 1.815.288 2.15.725 1.063 1.38 2.3-.645 3.64-.437.723.112.982-2.137 2.14-2.26-2.002-1.716 4.138-.602 4.803-.458 3.73.805 5.057 4.844 8.5 6.25 2.86 1.162 1.46 5.26 1.992 7.31.326 1.242 1.748 1.886 2.653 2.867 1.45 1.567 2.12 1.56 4.39 2.254-1.935 1.023.948 1.726 1.82 2.265 1.02.63-.972 3.25.402 3.053-.374.66-1.226 1.295-.637 2.046.335.42 1.006.613.934 1.188-.196 1.588.603 3.15-1.432 4.135-1.36.655-2.098 2.03-3.15.55-1.087-1.52-4.18-.016-5.785-.39-1.116-.26-2.184.053-3.28.17-1.173.128-1.72-.437-2.758-.5-1.427-.09-3.2.416-4.51.815-2.07.634-2.232 2.536-3.28 3.82-.488.597-1.758 1.087-1.652 1.838.115.794-1.216.5-1.858.485.66 1.353.94 2.82 1.58 4.193.536 1.15.455 2.686 1.882 3.463 1.604.874 1.216 1.844 1.355 3.154.172 1.61 2.433 2.915 2.112 4.545-.024-.815-.896-1.258-1.355-1.908-.694-.98-.603-2.217-2.318-2.616.038.4.067.8.08 1.2-.474-.88-4.305-1.295-2.06-2.462-.618.288-1.054-.02-1.283-.464 0 1.433-2.184-.783-2.567-1.465 0 1.258-1.226-1.295-2.754-.75-.742.266-1.5.757-2.385.618-1.087-.17-2.347-.634-3.472-.416-2.203.42-.967-1.348-1.116-2.403-.086-.618-.1-1.242-.22-1.854-.153-.853.656-1.513.44-2.302-.934.58-3.424.043-3.77-.863.407 1.822-6.72.213-4.68 3.043 1.015 1.412.37 2.307.005 3.783-.383 1.567 1.116 3.032.737 4.604-.153.623-.747 1.098-1.154 1.625-.498.645-.182 1.423-.752 2.062-1.073 1.2-1.24 3.043-1.633 4.44-.474 1.705-.8 2.936-1.714 4.497-.326.56.364 2.094-1.006 1.94 1.552 1.455-.096 4.146.886 5.9.47.837 1.16 1.39.618 2.243-.608.964 1.643 1.178 2.294.91 2.29-.938 3.692-.96 4.037 1.455.115.794 1.56 6.5 3.046 4.652.905 1.62 1.058 3.426 1.748 5.1.618 1.497 1.576 3.075 1.595 4.673-1.422-.202-1.7-5.04-3.237-4.204-1.106.602.54 2.494.977 2.98.517.575 1.125 1.018 1.786 1.487.55.39 1.35.24 1.887.634 1.24.906 1.48 1.85 3.53 1.897 1.504.032 3.185-.432 4.51.357 1.456.863 1.767 2.446 3.175 3.362 1.494.97 2.452 1.433 1.7 2.968-.345.703-.943 2.13-2.07 2.318-.867.144-1.04-.96-1.7-1.162-1.738-.533-2.7 1.844-3.812 1.844-2.145-.01-1.614-1.646-.862-2.558.814-.99-.646-1.897-1.58-2.078-1.327-.256-.8-1.72-2.495-1.902-1.566-.16-2.47-.213-3.477-1.23-1.403-1.428-.905 1.04-1.508 1.678-.13-1.886-6.192-3.65-3.77-5.648-2.04.948-1.22-1.52-2.222-1.993.105.97-.948.762-1.403.17-.584-.762-.455-1.918-1.303-2.552-.56-.42-1.686.128-1.796-.565-.1-.63.067-.858-.412-1.38-.718-.79-.632-.73-1.7-.885-.666-.096-.54-.948-.752-1.305-.34-.58-.728-1.47-1.796-1.263-1.14.224-.67 1.034-1.034 1.662-2.864-.458-2.29-3.783-1.963-5.387.66-3.234 1.542-6.517 2.423-9.714.34-1.242 1.662-2.893 1.643-4.12-.024-1.44.7-1.52 1.403-2.797.89-1.61 6.34-5.936 4.497-7.705-.8-.757-1.446-2.808-1.73-3.735-.43-1.412-1.1-1.892-1.997-3.085-.517-.687-1.68-2.616-1.508-3.362.42-1.812.32-3.128-.632-4.87-1.552-2.835-5.158-4.55-7.495-6.975-1.025-1.06-2.026-2.1-2.24-3.48-.125-.773.168-2.547 1.61-1.535-.31-.938 1.12-.74 1.418-1.396.417-.938-.345-3.122-.532-4.13-.31-1.662 1.365-.8 2.117-1.742.484-.597.508-1.886-.254-2.376-.215.522-.56.99-1.034 1.396-1.446-1.385-1.858-3.01-2.476-4.652-.388-1.044-2.38-2.083-3.323-2.893-1.45-1.252-3.362-2.584-4.583-3.948-.675-.757-.364-1.47-.685-2.29-.292-.735-1.298-1.32-1.092-2.17-1.78.378-2.562-1.433-2.92-2.42"/><g stroke-linecap="round" stroke-linejoin="round"><path d="M92.825 70.27c-.057.34.14.586.594.73l-.594-.73m1.882 3.528a8.91 8.91 0 0 1 1.034 1.396c-.25-.757-.666-1.497-1.38-2.062l.345.666m4.378.4c-.302.533.584 1.135 1.025 1.396-.034-.57-.455-1.066-1.025-1.396m3.328 8.503c-.47.02-.896.128-1.283.33 2.778 2.488 2.8-.373 1.283-.33m2.318-3.85c-.503-.783-1.743-.8-2.404-1.46-1.24.98 1.25 2.813 2.404 1.46m9.932 24.93c-.575.5-2.687 2.03-1.46 2.728.876-.725 2.155-1.63 1.46-2.728m1.973 2.6c-.23.314-.412.218 0 .666v-.666m23.552-4.65c-.465.16-.608 1.593-.02 1.593 1.16 0 1.12-1.48.02-1.593m8.385 33.637c.244-.208.388-.448.426-.73-1.015-.133-1.16.112-.426.73m1.116 5.05c.03-.5-.172-.943-.608-1.327a8.58 8.58 0 0 1 .608 1.327"/><path d="M149.424 136.353h.512a3.97 3.97 0 0 0-.77-.73l.26.73m1.2-6.447c.54-.533.24-1.076-.512-1.327l.512 1.327m1.882 18.014c-.1-.778-.6-1.492-1.45-1.93a2.18 2.18 0 0 0-.512.666c1.173-.437 1.6.66 1.963 1.263m-1.61-5.85c1.44-.075 1.303-2.105.68-2.728-.297.9-.522 1.812-.68 2.728m.583-7.3c.436.485 2.375-2.483-.345-2.062.168.682.527 1.353.345 2.062m.417 18.948l.168.666c.532-.266.8-.64.77-1.13-.33.128-.642.282-.94.464m1.132-12.9c.2.384.57.58 1.106.597.426-2.158-2.672-2.568-1.106-.597m-.096-3.122l.7.932c.335-.155.623-.357.857-.597-.7-.208-1.26-.544-1.714-.996l.168.66"/><path d="M152.853 134.36c.172-.357.465-.224.08-.73l-.08.73m-66.37-70.068c.086-.512-.048-1.806.924-1.892 1.207-.107 1.983 1.3 3.2 1.028-.637-1.188-1.082-2.44-1.245-3.725.038-.528-.034-1.044-.215-1.556-.254-.496.757-1.002.6-1.567.872.24 1.355 1.678 2.433 1.412.77-.186.417-1.364.565-1.812 1.796.815 1.03-1.236.7-1.844-.924-1.716-.737-3.053-1.044-4.87 1.767 1.018 1.834-1.076 1.8-1.94-.08-2.13-.6-3.964-1.542-5.968.412-.02.776.07 1.092.277.814.42.76.112 1.734-.02s3.87.8 4.62 1.273c-.034-3.053 5.378-8.488 2.327-10.865-1.62-1.263 1.8-3.016 2.18-4.28.426-1.465 1-2.318.057-3.613-.776-1.07-1-3.122.488-3.916.465-.245 1.877.08 1.963-.56.077-.597 1.614-1 2.203-1.428.747-.554 1.154-1.12 1.657-1.812.848-1.178 3.055-1.007 4.535-1.183.714-.085 1.58-.474 2.208-.005.848.63 1.72 2.1 3.276 1.6-.24-1.023-1.532-1.513-2.327-2.243-1.456-1.332-.48-2.355.824-3.368 1.872-1.455.996-1.162.996-2.733 0-.554.9-.773.833-1.284-.08-.64.25-1.242.273-1.87 1.6 1.38 4.813 1.604 6.1 3.368.47.64.326 1.428.742 2.083.565.885 1.408 1.64 1.973 2.526.666-.18 1.03-.597.68-1.13 3.553 1.284 3.635 4.13 4.607 6.852.48 1.348.805 2.478.527 3.868-.115.57 1.216 2.483-.675 1.908.292.575 2.734 2.808.306 2.243-.436-.1-1.207 1.337-1.135 1.6.235.87-1.236.298-1.825.266-.177.5-.316 4.135-2.318 2.728.086 1.23-.747 2.147.177 3.325-1.595.096-1.6 1-1.523 1.96.067 1.007 1.125 1.018 1.576 1.796.196.34.9 1.284.714 1.662-.345.666-1.657 1.615-.565 2.28.512.314 3.434-1.487 3.932-1.705 2.16-.943 4.74.57 6.82-.618.33 1.04-1.413 1.45-.967 2.478.25.586.757.88 1.27 1.3.65.544-.158 1.156.297 1.455 1.22.815.757 2.323 2.337 2.947 2.155.853 3.903-.224 4.774 1.774-2.212-.07-1.006 1.998-.848 2.93.163.98-2.53 2.9-.244 3.474 1.556.4 4.846-.416 6.15.506 1.427 1.012-.565 2.963 2.308 3-.393.464-.08 1.316.326 1.7.666.64 1.293-.75 2.217-.288 1.9.96 4.4-1.385 5.852-2.217.105 1.156 1.245 1.806-.144 2.77-.637.442-2.107.698-2.485 1.215-.292.405-2.126 3.868-.374 3.064-.134.986-2.165.5-2.912.932-1.303.773-.862 2.313-1.202 3.4-1.734-1.32-3.108.186-5.22.266.556.56.55 1.487-.383 1.812-.924.325-1.5-.432-2.35-.378-1.073.07-.82 1.876-1.015 2.424-.22.613-.675.538-1.24.24-.556-.293-1.983.98-2.8.916-.412-.032-4.45-.5-4.45-.575 0 1.082-1.116 1.8-1.48 2.877-.177.528.335 1.162.488 1.652.206.66-.642 1.364-.752 2.025-.144.863 1.556 1.86.785 2.755-.7.805-2.854 1.044-3.5.08.36.986 1.14 2.797 2.912 2.392-.153.63.383 1.13.766 1.625.565.74.254 1.47.603 2.233.608 1.316 3.03 2.877 4.238 3.9.737.634 1.5 1.252 2.098 1.972.55.66 1.58.517 1.973 1.56.618 1.64 1.03 3.266 2.476 4.652.474-.405.82-.874 1.034-1.396 1.082.693.694 2.094-.263 2.728-1.27.842-1.987-.032-1.532 1.705.26.986.532 2.558.397 3.55-.105.8-1.657.73-1.35 1.657-.828-.58-1.5-.128-1.67.58-.263 1.012.445 2.297 1.068 3.165 1.662 2.318 4.698 3.964 6.982 5.856 2.155 1.78 2.548 4.193 2.835 6.5.13 1.06-.7.938-.057 2.13.618 1.135.7 1.785 1.877 2.68 1.1.842.9 1.785 1.365 2.835.46 1.066 1.317 1.966 1.72 3.064.57 1.56-1.327 3.66-2.24 5.083-.953 1.487-2.17 3.208-3.726 4.204-1.077.698.105 1.48-.417 2.297-.776 1.2-.915 2.568-1.825 3.762-1.025-1.252-.503-3.085-.93-4.492-.172-.575-.57-1.066.163-1.423.896-.432.2-.687.642-1.22.924-1.15 1.125-2.526.77-3.874-.168-.64-.675-2.76.814-2.755-.235-.3-.35-.64-.345-.996-.417.448-1.02.794-1.7.932-.215-.948 1.47-1.465-.263-1.327 1.983-.735-.924-1.892.7-2.595-.7.144-1.307-.14-1.547-.666a3.41 3.41 0 0 0 1.283-.4c-.776-.325-1.312-1.044-.08-1.263-1.058-.272-.417-1.07-.58-1.806-.268-1.226-.867-2.52-1.475-3.666-.642-1.2-1.585-2.366-2.342-3.538-.718-1.114-.785-2.467-1.767-3.485.455.948 1.02 3.122.08 3.986.33-.8-.54-1.492-.627-2.25-.08-.714-.1-1.886-.32-2.536-.2-.618-3.472-4.982-1.45-4.124a1.93 1.93 0 0 0-.426-.73l-.857.4c-1.475-2.856-1.145-6.058-2.495-8.904-.263-.55-.896-.853-1.212-1.36-.278-.453.038-1 .005-1.465-.057-.874-.857-2.574.613-3.027-.948.117-2.6.623-3.32-.1-1.288-1.3-2.308-2.75-2.428-4.428-.843.437-.68-.522-1.398-1.034-.623-.442-1.422-.826-1.68-1.492-.172.17.134 1.604.13 1.93-.024 1.124.857 2.275.086 3.453-.556.853-1.27 2.035-2.687 2.126-1.456.096-3.127-1.433-2.054-2.462-1.7.33-.23 1.295.225 2.105.627 1.12-.896 2.398-2.198 1.353 1.398.762-1.374 2.115-2.404 1.327.35 1.018-.694 4.48-2.85 3.847-1.1-.325-.077-2.627-.316-3.314-.053.064-1.168 3.23-.594 1.13-.35.57-.493 1.167-.426 1.796-1.068-.4-1.365-2.217-.522-2.728-1.264-.64-.766 4-2.47 2.84-.8-.55-.105-3.554.6-3.836-1.25.384-1.6 2.366-2.222 3.256-.374-.17-.685-.394-.94-.666 1.05-.34 1.188-1.183 1.45-1.93-.493.65-.7 1.63-1.877 1.726 1.288-1.348.704-3.048.94-4.588a4.11 4.11 0 0 1-.512 0c.666 1.108-1.274 3.6-2.605 4.007-1.925.602-.364-5.723-.12-6.42.25-.703-.024-2.78.474-3.15 1.274-.938-.115-3.57-.718-4.604-.77-1.327-.512-3.346-1.78-4.433-.536-.464-.848-1.06-1.197-1.615-.522-.826-1.93-1.316-.484-1.54-1-.544-2.222-.725-2.222-1.87 0-.853.062-2.227-.522-2.984.14.623.493 2.05-.94 1.263.66.63 1.197 1.88.7 2.66-2.074-.655-3.338-2.318-4.554-3.682-.335-.373.718-.75 1.073-.245.268.384.967.512 1.46.623 1.1.25 2.538-.208 1.513-1.263-.58-.597-3.175-1.364-1.633-2.2a13.11 13.11 0 0 1-2.054-.197 2.65 2.65 0 0 0 .25-1.396c-.785.298-1.868-.42-2.303-.847-.814-.794-1.513-.234-2.653-.618.397.7.9 1.385 1.202 2.126a24.98 24.98 0 0 1-1.034-1.396c-.153.485-.038.927.345 1.332-1.02-1.092-1.576-1.774-.68-3.06-.397.06-.795.08-1.202.064.235-.474.488-.938.76-1.396-.168.027-.306.096-.417.197a2.33 2.33 0 0 1 0-1.53c-.594 1.114-.498 2.366-1.202 3.458-1.145-.4-.618-.874-.488-1.572.148-.815-1.054-1.487-1.566-2.083.148.677.66 1.4.08 2.062-.43-1.23-2.07-1.828-2.98-2.803-1.087-1.162-1.738-2.835-2.572-4.15M223.924 155.7c.283.7.82 1.433 1.796 1.662-.7-.485-1.317-1.04-1.796-1.662m5.484-7.3c.2.73-.455 1.46.512 1.993.436-.703.14-1.45-.512-1.993m1.452 1.184c-.072.218-.072.442 0 .666v-.666m19.8-16.95c.14.314.42.512.843.597l-.843-.597"/><path d="M173.32 54.647c1.604.06 1.274-1.753 1.877-2.467.982-1.162 3.654.645 4.406 1.23 1.346 1.044 2.327.186 3.16-.916 1.14-1.52 1.667-.096 2.543.693.326-.586.31-2.02 1.49-1.103.733.565 1.408 1.263 2.29 1.694.55.272.93-2.536 2.476-2.584-.44 1.865 4.018.18 4.74-.39.896-.703-.168-1.178.03-1.796.316-1.002 3.084-1.098 3.702-2.206 1.27 1.364 2.873 2.435 4.813 3.165 1.518.57 2.916-.522 4.018.522 1.1 1.05 2.81-.575 4.152.464.68.528 1.508 2.675-.388 2.17-.01 1.817 1.236 3.15 1.963 4.918.675-.453 3.175.165 3.175.932 0 1.15 2.854.895 3.247 1.993l.857-.4c.46.943 1.274.24 2.28 0 1.26-.298 2.318.805 3.204 1.327-1.03.698-1.26-.634-2.308.048-.953.613-1.26 1.492-2.543 1.646-1.38.165-.292 1.14-.795 1.85-.493.687-3.27 1.353-1.877.117-.896-.17-2.098.9-2.14 1.263-.757-.33-1.05-1.417-2.14-1.13.34.282.733.506 1.188.666-.757.687-.187 1.028.388 1.758.48.607-1.25.59-1.576.437.388.63.608 2.387-.263 2.86a.63.63 0 0 0 .345 0c-.09.5-2.763 2.765-3.343 2.195-1.44.56-1.906 2.233-2.045 3.352-.192 1.54.642 2.58-.383 4.028-1.164 1.64 1.097 2.014 1.226 3.522.512-1.04.814.528 1.37 1.092.742.762 1.61 1.353 2.615 1.897l2.782 1.678c1.23.9.7 1.85 1.106 2.98-.527-.32-1.125-.496-1.796-.533 2.14.282 3.146 2.355 4.822 3.394 1.22.757 5.086 2.238 4.1 3.852 1.307-.586 3.39 1.444 4.114 2.062-.364-.128-.737-.24-1.116-.33 1.6.773 3.06 1.625 4.114 2.86 1.422-1.327 4.305 1.646 3.5 2.33.752-.4-.412-1.69 1.116-1.066-2.294 1.535 4.746 5.09 4.88 6.447.584-1.156.852-.192 1.322.34.733.83-.393.5-.206 1.124.345 1.178 1.576 2.227 2.18 3.325.82 1.492 1.245 3.106 2.107 4.604.35.602.723 1.215.915 1.865.09.32.13 1.993-.407.378-.03.9 1.336 3.517 0 1.93.302.533.728 1.002 1.283 1.396-1.595.17-.31.79-.057 1.492.364 1.018.78 1.7 1.475 2.606.283.368.302 2.195.2 2.755-.484-.378-.824-.82-1.02-1.332-1.62.735-.1 2.26.426 3.128-.536-.245-1.106-.42-1.7-.533.766.538 1.542 3.384 1.116 4.188-.005-.48-.177-.922-.512-1.327.536.66.08 1.348-.177 1.993.967-.02 1.015.528.76 1.098-.273.607-1.413.895-1.49 1.098-.45 1.247.182 1.284-1.57 1.982a13.2 13.2 0 0 1-1.561.89c-.76.24-1 1.098-1.585 1.236-.967.224-1.96.55-2.806.975-.397.202-.99 1.69-1.298 1.61-.872-.23-2.332.607-2.988.99-.89.522-2.653.98-3.31 1.62-.603-.91-2.193-.885-2.308-2.062l-.345 1.396c-.14-.373-.335-.73-.594-1.066.445.767.297.725-.44-.133.963 0-.958-.47-.94-.464.297.805-.125 1.844-1.45 1.6.31.746 1.7-.384 2.007.666.402 1.337-2.672.682-3.3.666 1.068.67 2.82.544 3.5 1.6-1.034.123-1.092 1.385-2.28.74-.785-.426-1.307-1.716-2.347-1.806.666.602 3.97 2.728 3.424 3.39-2.107-.666-3.213-2.29-4.96-3.325.374 1.066 6.652 4.337 3.836 5.526-1.848.783-4.98-3.032-6.32-3.666.915 1.167 4.29 2.968 3.71 4.52-.445 1.2-3.074 1.53-4.315 2.01-2.098.815-2.17 2.035-3.453 3.336-.876.9-3.15 2.36-4.588 1.305.44-.432 1.015-.698 1.714-.8-.163-.277-.273-.565-.345-.863-.364.133-.733.24-1.116.33.057-1.678-.388-3.34-.407-5.014-.005-.826.067-1.673.407-2.462.225-.533 1.743-2.792 2.06-1.167-.01-2.61-6.417-2.227-5.814-4.455-.125.394-.354.373-.7-.07.575-.155.93-.863 1.57-.863.685 0 1.456.144 2.107-.096.546-.202 1.16-.826 1.528-1.194.71-.703-.584-1.407.278-2.1 1.623 1.215 3.898-.1 5.65-.368.608-.096.958.32 1.236.67.67.847 1.978.762 3.046 1.028.024-.73-.953-1.337.168-1.46-.215-1.226-2.193-1.273-2.84-2.126-.556-.73-.924-1.662-1.15-2.483-.215-.783.843-.87 1.34-1.476.76-.922 3.304.42 4.28.565-.54-.773.163-1.684-.594-2.392.828-.16 1.743.17 2.552-.107.685-.23 2.07-.938 2.73-1.3.77-.416.934-1.012 1.91-1.23.757-.165 1.772-.1 2.38-.55 1.638-1.2-.867-4.497-.66-6.037.177-1.316.81-2.265-.034-3.538l-.838-1.167c-.474-.693-.177-1.188-.517-1.833-.474-.91-1.135-.826-1.25-2.035-.14-1.465 1.063-2.323 1.168-3.618.024-.314.034-1.945-.196-2.094-1.427-.922-.067-.693.474-1.657.833-1.487-1.44-2.952-2.816-3.64-.632-.314-2.256-.986-2.174-1.716.096-.87 1.963-1.226 2.404-1.993-1.197-.352-2.75-1.076-3.515-1.892-.57-.607-1.1-.1-1.734-.938-.852-1.124-1.322-.08-2.375-.56-.613-.282-1.312-1.48-1.432-2.02-.364-1.678-1.264-3.112-3.036-4.3-.498-.336-1.638-.554-2.337-1.124-1.317-1.076-2.897-2.17-4.008-3.368-.714-.773-1.025-1.72-1.772-2.478-.297-.298-.795-.655-1.298-.34-.522-.623-1.5-.847-1.997-1.492-.364-.474-1.398-1.593-.714-2.126.862-.666-3.175-1.31-3.443-1.36-2.69-.48-4.53-2.872-7.078-3.416-.737-.155-2.725-.885-1.125-1.465 2.27-.83-.59-1.316-.187-2.243.215-.5 3.304.234 3.61.272 1.255.15 4.66-1.476 2.897-1.865.383-.453 1.532-.687 1.532-1.332 0-.8-1.154-1.535-2.165-1.428-.7.07-.77-.277-.972-.72-.44-.986-1.753-.72-2.763-1.04.235-.703 1.547-.565 1.62-1.146.125-.99-1.283-1.364-2.112-1.828-.987-.554-1.652-1.226-3.04-1.028-2.155.304-1.676 1.2-2.64 2.206-.958-.458-2.37-1.316-3.424-1.162-1.197.18-3.438-1.492-4.023-2.163-.666-.767-1.274-2.595-.934-3.51.6-1.62-1.13-1.268-1.552-2.536.263.522.148.986-.345 1.396-1.125-.266-1.38-1.812-2.347-2.408-1.336-.826-3.496-2.26-4.176-3.463"/><path d="M217.42 67.084c.1-.32-.057-.538-.512-.666l.512.666m.772.064c.374.416.857.725 1.45.932.714-.853-.68-1.087-1.45-.932m4.28-3.522c-.24.586-.383 1.183-.426 1.796.896-.416 1.887-1.332.426-1.796m1.202 1.93c-.44.298-.785.655-1.034 1.06.623-.155 1.058-.533 1.034-1.06m2.223-2.793a.88.88 0 0 0 .857-.133l-.857.133"/></g><path d="M171.7 182.23c.47-.496.388-1.412.704-1.988.546-1.007 1.8 1.12 2.466 1.417.82.373 1.56.123 2.404.304.8.17.843.9 1.255 1.332.814.874 2.92.693 2.313 2.392-.292.82-1.657 3.154 1.05 2.66 1.216-.224 1.475-1.796 2.883-1.966 1.173-.144 1.667 1.636 2.754 1.3.88-.266 2.2-3.202 2.15-3.927 1.097.272 2.102.352 2.83 1.13.723.767 1 1.705 2.002 2.323 2.476 1.54 4.65 2.952 6.12 5.174 1.485 2.243 2.524 4.513 2.36 7.08-.062.986-.23 2.078-.474 3.048-.345 1.375-.024 1.476.512 2.712.795 1.85-.66 4.092.757 5.952 1.097 1.44 3.596 2.206 4.195 3.948.704 2.062 2.452 3.8 3.122 5.877.9 2.797-3.18 1.263-1.307.25-.718.02-1.327-.304-1.628-.8.13.192.8 2.062-.196 1.508-1-.56-3.338.677-4.253 1.018-.963-2.44-4.784-3.112-7.064-4.6-.6-.4-1.034-.853-1.6-1.258-.9-.645-2.332-.63-3.328-1.183-1-.56-2.596-1.753-3.146-2.558-.383-.554-.972-.607-1.686-.757-1.1-.23-1.6-1.002-2.485-1.48-.848-.458-.67-.586-.2-1.087.512-.56-.163-1.694-.46-2.222-.94-1.64-3.3-2.776-4.17-4.433-.417-.8-2.667-1.242-.1-1.892-1.518.17-3.04-2.286-2.64-3.15.78-1.678-.37-3.485-1.667-4.732-1.15-1.098-.9-4.55-.915-5.947 0-2.04-1.6-3.65-2.557-5.45m-2.485-.263c-.417.357-.9.645-1.45.863.92 1.37 2.854.016 1.45-.863m4.626 8.1c-1.044-.357-1.15.4-1.087.996.13 1.242 1.28-.18 1.087-.996m36.132 20.61c-.35.165-.517.405-.512.73.987.14 1.154-.107.512-.73"/></g><path stroke-width=".5" d="M158.072 71.004c.34-1.078-.1-2.62 1.202-3.39.747-.44 2.777.056 2.913-.93-1.76.81-.356-1.626-.133-2.068.367-.73.357-1.13 1.38-1.482.862-.297 2.525-.98 2.26-1.9 1.47.64.233 3.704 2.826 2.878 1.516-.483 1.554.068 2.873.462 1.86.555.188-1.204.144-1.318-.363-.923.328-1.594.177-2.446s-1.053-1.66-1.7-2.32c-.73-.745-1.375-1.462-1.453-2.437-.018-.22.896-2.63 1.406-2.142s.403.782 1.543.554c1.758-.353 1.945.63 2.953 1.413 1.067.83 2.294 1.608 3.422 2.396.865.603.762 1.954 1.937 2.23.492-.41.608-.874.345-1.396.275.826 1.5.65 1.76 1.583s-.48 2.015-.12 3.088c1.05 3.135 5.297 3.276 8.293 4.704.743-.78.47-1.507 1.796-1.928 1.585-.503 2.762-.03 4.054.692.75.42 1.85.887 2.003 1.672.135.693-1.453.677-1.68 1.36.793.25 2.263.067 2.573.875.237.62.835.596 1.447.853 2.59 1.08 1.638 1.274.345 2.792 1.76.392-1.64 2.014-2.897 1.866-.306-.036-3.394-.77-3.608-.27-.207.478 1.098 1.298.856 2.128-1.007.007-2 .876-.587 1.217 2.38.572 4.942 2.308 7.038 3.448.827.45 4.792.5 4.685 1.624-.083.874-.817 1.127.167 1.962.723.615 1.948 1.576 2.816 1.592.892.016 1.45 1.225 1.758 1.72.704 1.13 1.763 1.968 2.867 2.863.635.515 2.934 2.956 3.9 2.733.94-.215 1.697 2.182 2.625 2.5 1.095.364.66 2.114 1.357 2.823.23.235.786 1.14 1.2 1.192.503.062 1.044-.354 1.538-.13 1 .452.664 1.2 1.952 1.432 1.214.22 2.536 1.63 3.876 2.025-.45.794-1.816 1.154-2.204 1.976-.42.893 2.722 2.04 3.178 2.688.692 1 2.18.986 1.437 2.423-.22.427-.836.89-.854 1.372-.015.45.627.758.62 1.29-.024 1.507-.48 1.74-2.05 2.03-1.35.248-1.707 1.634-3.56 1.656-1.788.02-2.134-1.812-3.25-1.932-.74-.08-.367.705-.857.865s-1.048.195-1.557.3c-.596.12-2.32.793-1.912 1.374.542.77 1.87 1.64.884 2.513-1.207 1.068-4.026-1.912-6.005-1.35-1.113.317-2.876-1.223-1.795-1.928.81-.526 2.3-1.016 2.167-1.996-.124-.91.334-2.26.082-3.034-.17-.516-1.284-.577-1.284-1.163 0-.54.594-1.03.858-1.497-.335.126-.633.11-.893-.043-.172-.746 2.056-1.722.6-2.868-.79-.62-3.913-1.355-1.93-2.406-3.302-1.006-6.68-2.73-7.203-5.767-.407-2.36.63-5.664-2.494-7.1-3.184-1.466-4.266-5.025-7.96-5.637-.477-.08-6.81-1.523-4.7.29-1.5.162-1.05 1.808-1.713 2.327-.26.205-1.753.227-2.348.643-.92.645-1.276-.05-1.93-.428-1.093-.63-2.88-1.536-4.18-1.853-1.323-.322-1.37 1.77-2.935 1.04-.114 1.827-2.94 3.1-4.304 4.366-.63.584-1.524.26-2.207-.292-.76-.616-.152-1.75.2-2.398.534-1.01.697-1.69.496-2.786-.12-.654-.95-1.777-.847-2.347.214-.33.484-.632.81-.904.435-.566-.016-.584.034-1.158.11-1.258.647-1.984-.17-3.187-1.15-1.697.036-4.277-3.66-3.488-.44-.002-.77.133-.988.407-.36.644-.463.086-1.164.194-1.227.2-1.79-.193-2.394-1.1-.86-1.305 1.394-2.885.4-3.854-.404-.398-1.582-1.66-2.133-1.86-1.098-.397-1.304.6-2.224.798l-.18-.668"/></g><g fill="none" stroke="#ed144c" stroke-width="2" class="B"><path d="M204.148 219.038l1.326-.702"/><path stroke-dasharray="3.0209,3.0209" d="M208.12 216.877c58.527-33.168 17.505-71.906 17.505-71.906s-29.74-40.096-102.967-43.964"/><path d="M121.15 100.933l-1.5-.063m-.085-2.45l1.214-.874"/><path stroke-dasharray="2.9453,2.9453" d="M123.21 95.892c8.676-5.744 31.48-19.226 53.49-18.546"/><path d="M178.18 77.413l1.496.113"/></g><path d="M201.28 39.407c0 15.367-21.604 38.12-21.604 38.12s-21.604-22.752-21.604-38.12 9.672-23.322 21.604-23.322 21.604 7.954 21.604 23.322z" class="C"/><g fill="#fff"><circle cx="179.676" cy="37.99" r="16.57"/><use xlink:href="#B" opacity=".1"/></g><path d="M226.872 180.918c0 15.367-21.604 38.12-21.604 38.12s-21.604-22.752-21.604-38.12 9.672-23.322 21.604-23.322 21.604 7.955 21.604 23.322z" class="C"/><g fill="#fff"><circle cx="205.269" cy="179.502" r="16.57"/><use xlink:href="#B" x="25.594" y="141.512" opacity=".3"/></g><path d="M247.23 106.85c0 15.367-21.604 38.12-21.604 38.12s-21.604-22.75-21.604-38.12 9.672-23.322 21.604-23.322 21.604 7.955 21.604 23.322z" class="C"/><g fill="#fff"><circle cx="225.626" cy="105.435" r="16.57"/><use xlink:href="#B" x="45.95" y="67.445" opacity=".1"/></g><path d="M141.566 62.874c0 15.367-21.604 38.12-21.604 38.12S98.36 78.24 98.36 62.874s9.672-23.322 21.604-23.322 21.603 7.954 21.603 23.322z" class="C"/><g fill="#fff"><circle cx="119.963" cy="61.457" r="16.57"/><use xlink:href="#B" x="-59.713" y="23.467" opacity=".1"/></g><path d="M184.458 46.806H174.7V42.62h2.8V31.456h-2.8V27.27h6.977v15.35h2.8v4.186zm-65.174 19.646h6.8v4.187H114.93v-3.963c0-.67.195-1.256.558-1.73l6.42-8.232V55.3h-2.8v2.093h-4.187v-3.488c0-.753.28-1.423.8-1.98.53-.53 1.2-.8 1.98-.8h5.582c.753 0 1.423.28 1.98.8.53.56.8 1.23.8 1.98v2.82c0 .67-.195 1.256-.56 1.73l-6.25 8zM231.6 112.58c0 .754-.28 1.424-.8 1.98-.558.53-1.228.8-1.98.8h-5.58c-.754 0-1.424-.28-1.98-.8a2.81 2.81 0 0 1-.81-1.981v-3.488h4.187v2.093h2.8V107.5h-3.488v-4.187h3.488v-3.293h-2.8v2.093h-4.187v-3.488c0-.753.28-1.423.8-1.98a2.81 2.81 0 0 1 1.981-.81h5.58c.754 0 1.424.28 1.98.8.53.56.8 1.23.8 1.98v4.66c0 1.144-.475 1.842-1.396 2.12.92.278 1.396 1.004 1.396 2.148v5.025zm-21.078 72.913h-1.396v3.488h-4.186v-3.488h-6.28v-4.187l6.28-11.86h4.186v11.86h1.396v4.187zm-5.58-4.186v-4.13l-2.12 4.13h2.12z" class="C"/><defs ><path id="B" d="M179.676 16.085v61.44s21.604-22.752 21.604-38.12-9.673-23.322-21.604-23.322z"/></defs></svg>