<?xml version="1.0" encoding="utf-8"?>
<!-- Generator: Adobe Illustrator 22.0.0, SVG Export Plug-In . SVG Version: 6.00 Build 0)  -->
<svg version="1.1" id="Layer_1" xmlns="http://www.w3.org/2000/svg" xmlns:xlink="http://www.w3.org/1999/xlink" x="0px" y="0px"
	 viewBox="0 0 100 100" style="enable-background:new 0 0 100 100;" xml:space="preserve">
<style type="text/css">
	.st0{opacity:0.5;fill:url(#SVGID_1_);}
	.st1{fill:#1A3A67;}
	.st2{fill:#BEDBE0;}
	.st3{fill:#FFFFFF;}
	.st4{clip-path:url(#SVGID_3_);}
	.st5{fill:#41AACE;}
	.st6{fill:#056F9A;}
	.st7{opacity:0.4;fill:url(#SVGID_4_);}
	.st8{fill:#1A6093;}
	.st9{fill:#A9CDD3;}
	.st10{opacity:0.4;fill:url(#SVGID_5_);}
</style>
<g>
	<g>
		<linearGradient id="SVGID_1_" gradientUnits="userSpaceOnUse" x1="45.4077" y1="65.3675" x2="76.8168" y2="27.9355">
			<stop  offset="0.2033" style="stop-color:#FFFFFF"/>
			<stop  offset="0.3038" style="stop-color:#E6E6E6"/>
			<stop  offset="0.5181" style="stop-color:#A5A5A5"/>
			<stop  offset="0.8264" style="stop-color:#3E3E3E"/>
			<stop  offset="1" style="stop-color:#010101"/>
		</linearGradient>
		<polygon class="st0" points="91.7,65.5 57.4,86.5 23.5,36.2 62.6,13.4 		"/>
		<g>
			<path class="st1" d="M91,53.6v-0.2c-1.1-7.4-3-8.4-14-13.7L62.5,40c-11.1,3.8-13.9,6.3-14.9,14.6l-1.2,11H92L91,53.6z"/>
			<g>
				<polygon class="st2" points="63.3,36.2 62.3,39.9 69.1,45.4 68.9,36.8 				"/>
				<polygon class="st3" points="74.6,36.3 75.6,40 68.8,45.5 69,36.9 				"/>
			</g>
			<path class="st3" d="M64.1,39.5c2.1,1.6,3.4,3.1,5.4,2.9c2.1-0.2,4.8-2.4,5.5-3.9c0.6,0.6,2.7,2.1,2.7,2.1L74,46.3l-5.2,14.9
				L63.9,46l-3.6-5.1L64.1,39.5z"/>
			<polygon class="st3" points="62.7,38.1 60.2,41 61.2,46.9 66.7,41.3 			"/>
			<polygon class="st3" points="75.6,38.1 78.4,41.4 77.3,47.3 72,41.6 			"/>
			<g>
				<defs>
					<polygon id="SVGID_2_" points="62.2,40.9 68.8,61.4 75.8,41.1 					"/>
				</defs>
				<clipPath id="SVGID_3_">
					<use xlink:href="#SVGID_2_"  style="overflow:visible;"/>
				</clipPath>
				<g class="st4">
					<g>
						<g>
							<g>
								<polygon class="st5" points="70.8,46.8 69.3,46.8 69.3,42.8 72.3,42.8 72.3,44.5 								"/>
								<polygon class="st5" points="71,46.2 73.6,71 69.5,74.2 69.4,74.2 69.2,46.2 								"/>
								<polygon class="st6" points="68.2,46.8 69.4,46.8 69.4,42.8 66.4,42.8 66.4,44.5 								"/>
								<polygon class="st6" points="68,46.2 65.3,71 69.5,74.2 69.4,46.2 								"/>
							</g>
							<polygon class="st6" points="71.1,46.7 67.9,46.7 67.9,46.4 71,46.4 							"/>
						</g>
					</g>
				</g>
			</g>
			
				<linearGradient id="SVGID_4_" gradientUnits="userSpaceOnUse" x1="284.0225" y1="26.3445" x2="296.4499" y2="13.0178" gradientTransform="matrix(0.463 -0.5924 0.9498 0.7424 -85.2685 200.2619)">
				<stop  offset="0.1044" style="stop-color:#FFFFFF"/>
				<stop  offset="0.2062" style="stop-color:#FBFBFB"/>
				<stop  offset="0.2971" style="stop-color:#F1F1F1"/>
				<stop  offset="0.3837" style="stop-color:#DEDEDE"/>
				<stop  offset="0.4679" style="stop-color:#C5C5C5"/>
				<stop  offset="0.5502" style="stop-color:#A4A4A4"/>
				<stop  offset="0.6312" style="stop-color:#7B7B7B"/>
				<stop  offset="0.7111" style="stop-color:#4B4B4B"/>
				<stop  offset="0.7881" style="stop-color:#141414"/>
				<stop  offset="0.8132" style="stop-color:#010101"/>
			</linearGradient>
			<polygon class="st7" points="75.1,37 61.2,50.8 60,41 62.7,38.1 64,34.3 			"/>
			<g>
				<g>
					<g>
						<g>
							<path class="st3" d="M62.5,36.3c0.3,0.4,0.6,0.7,0.9,1c0,0,0,0,0,0C63.1,37,62.8,36.6,62.5,36.3z"/>
						</g>
						<path class="st2" d="M80,26.9c0-1.2-0.4-1.7-1-2c0.1-2.5,0.5-5.2-0.4-7.1c-1.8-3.6-6.7-5.7-10-5.7c-3.2,0-7.3,1.9-9.1,5.2
							c-1.1,2-0.5,4.7-0.4,7.5c-0.7,0.2-1.1,0.7-1.1,2c0,2,0.9,5,2.3,5.5c0.2,0.5,0.4,0.9,0.6,1.4c0,0,0,0.1,0,0.1
							c0.5,1,1,1.8,1.6,2.6c0.3,0.4,0.6,0.7,0.9,1c0,0,0,0,0,0c1.7,1.8,3.6,2.9,5.7,2.9c3.2,0,6.1-2.4,8.1-6.3
							c0.2-0.3,0.3-0.5,0.5-0.8c0.1-0.3,0.2-0.6,0.3-0.9C79.3,31.5,80,28.7,80,26.9z"/>
					</g>
				</g>
				<g>
					<g>
						<path class="st3" d="M77.2,33.9c0.2-0.3,0.3-0.5,0.5-0.8c0.1-0.3,0.2-0.6,0.3-0.9c1.2-0.7,2-3.5,2-5.3c0-1.2-0.4-1.7-1-2
							c0.1-2.5,0.5-5.2-0.4-7.1c-1.8-3.5-6.6-5.7-9.9-5.7v28.1c0.1,0,0.3,0,0.4,0C72.4,40.2,75.3,37.7,77.2,33.9z"/>
					</g>
				</g>
				<g>
					<path class="st1" d="M75,16.7c0.2,1.6-2.9,1.6-4.9,1.2c-2-0.3-3.2,0.1-5.2,0.6c-1.9,0.6-3.8,2.5-4.1,3.5c-0.2,0.6,0,3.5,0,3.5
						l-1.7-0.8c0,0-0.8-4.2-0.2-6.9c0.6-2.6,2.1-4.7,6.9-5.7c4.4-0.9,7.5-0.4,7.6,0.7c0.3,0.1,0.6-0.2,1-0.2c1,0,3,1.2,3.9,2.6
						c0.9,1.4,1.7,4.1,1.1,8.5c-0.1,1.2-0.4,1.5-0.4,1.5L77.7,26c0,0,0.6-5.6-1.7-7.2C75.3,18.3,75,16.7,75,16.7z"/>
					<g>
						<g>
							<g>
								<path class="st8" d="M76,18.7c2.3,1.6,1.7,7.2,1.7,7.2l1.4-0.8c0,0,0.2-0.3,0.4-1.5c0.6-4.4-0.2-7.1-1.1-8.5
									c-0.9-1.4-2.8-2.6-3.9-2.6c-0.2,0-0.8,0.1-0.9,0.2c0.4,1.4,1.4,3.5,1.4,3.9C75,16.6,75.2,18.2,76,18.7z"/>
							</g>
							<g>
								<path class="st8" d="M75,16.6c0,0.1,0,0.2,0,0.4C75,16.9,75,16.8,75,16.6z"/>
							</g>
						</g>
					</g>
				</g>
			</g>
			<g>
				<g>
					<path class="st1" d="M84.1,25.5c-0.2-0.6-0.4-1.2-0.7-1.6c0.1-0.7,0.2-1.5,0.2-2.3c0-8-6.4-14.4-14.2-14.4
						c-7.9,0-14.2,6.5-14.2,14.4c0,0.8,0.1,1.6,0.2,2.3c-0.2,0.4-0.4,0.9-0.7,1.5c-0.3,0.9-0.1,5.3,0.3,5.9c0.8,1.1,2.8,1.9,4.1,2.1
						c0.2,0.2,0.4,0.3,0.6,0.3c0.4,0,0.7-0.4,0.7-0.8l-0.7-7.8c0-0.4-0.4-0.7-0.8-0.7c-0.2,0-0.4,0.1-0.5,0.2c-0.1,0-0.1,0-0.2,0
						c-0.4,0-1.1-0.5-1.3-1c-0.1-0.6-0.2-1.3-0.2-1.9c0-7.1,5.7-12,12.7-12c7,0,12.7,4.9,12.7,12c0,0.7-0.1,1.3-0.2,2
						c-0.3,0.5-0.9,0.9-1.3,0.9c-0.1,0-0.1,0-0.2,0c-0.1-0.1-0.3-0.2-0.5-0.2c-0.4,0-0.8,0.3-0.8,0.7l-0.7,7.9
						c0,0.4,0.3,0.8,0.7,0.8c0.3,0,0.5-0.1,0.6-0.3c1.3-0.2,3.4-1,4.1-2.1C84.2,30.8,84.4,26.4,84.1,25.5z"/>
					<path class="st1" d="M83.4,28.4c-0.9-0.7-1.1,0-1.1,0c-0.4,0.8-3.1,4.5-8.8,6.1c-0.4-0.4-1.1-0.7-2-0.7c-1.3,0-2.3,0.6-2.3,1.4
						s1,1.4,2.3,1.4c1.3,0,2.3-0.6,2.3-1.4C75.7,34.6,80.7,32.7,83.4,28.4z"/>
				</g>
			</g>
		</g>
	</g>
	<g>
		<polygon class="st1" points="50.2,32.3 60.7,71.2 41.8,67.7 41.6,47.8 		"/>
		<polygon class="st1" points="23,34.6 14.7,70.4 33.8,81.8 32.5,39.3 		"/>
		<g>
			<path class="st2" d="M30.8,55.2c-0.1,2.5-1.7,7.5-4,9.2c2.5,4.3,8,8.9,10.5,9.2c-0.2-9.4,0-18.5,0-18.5H30.8z"/>
			<path class="st3" d="M43.6,55.2c0.2,2.5,1.7,7.5,4,9.2c-2.5,4.3-8,8.9-10.5,9.2c0.2-9.4,0-18.5,0-18.5H43.6z"/>
		</g>
		<path class="st2" d="M64.7,79.5v-0.3c-1.4-9.2-3.8-9.5-17.6-17.1l-10.5,6.8L29,62.4c-13.6,6-17.4,7.8-18.7,18.3L8.8,92.5h57.2
			L64.7,79.5z"/>
		<polygon class="st3" points="45.1,60.2 49.6,63.4 45.2,71.7 38.8,64.8 		"/>
		<g>
			<path class="st9" d="M28.9,62c-13.6,6-17,7.4-18.2,17.9L8.8,92.5h28.3v-24l-0.5,0.4L28.9,62z"/>
		</g>
		<path class="st3" d="M31,61.8c2.6,2,4.2,3.9,6.8,3.6c2.6-0.3,6-3,6.9-4.8c0.7,0.8,3.3,2.6,3.3,2.6l-4.9,6.2l-5.7,8.8l-6.3-9.7
			l-4.8-4.9L31,61.8z"/>
		<polygon class="st3" points="29.3,60.1 25.9,63.3 29.6,72.2 36.5,64.9 		"/>
		
			<linearGradient id="SVGID_5_" gradientUnits="userSpaceOnUse" x1="235.8816" y1="17.2562" x2="248.9464" y2="3.2459" gradientTransform="matrix(0.463 -0.5924 0.9498 0.7424 -85.2685 200.2619)">
			<stop  offset="0.1044" style="stop-color:#FFFFFF"/>
			<stop  offset="0.2062" style="stop-color:#FBFBFB"/>
			<stop  offset="0.2971" style="stop-color:#F1F1F1"/>
			<stop  offset="0.3837" style="stop-color:#DEDEDE"/>
			<stop  offset="0.4679" style="stop-color:#C5C5C5"/>
			<stop  offset="0.5502" style="stop-color:#A4A4A4"/>
			<stop  offset="0.6312" style="stop-color:#7B7B7B"/>
			<stop  offset="0.7111" style="stop-color:#4B4B4B"/>
			<stop  offset="0.7881" style="stop-color:#141414"/>
			<stop  offset="0.8132" style="stop-color:#010101"/>
		</linearGradient>
		<polygon class="st10" points="44,56 29.9,72.6 25.7,63.5 29.7,59.6 30.9,55.2 		"/>
		<g>
			<g>
				<path class="st2" d="M26,31.1c-1.4,2.6-0.7,5.9-0.5,9.4c-0.9,0.2-1.4,0.8-1.4,2.5c0,2.5,1.1,6.3,2.8,6.9
					c0.2,0.6,0.5,1.2,0.7,1.7c0,0,0,0.1,0.1,0.1c0.6,1.2,1.3,2.3,2,3.3c0.3,0.5,0.7,0.9,1.1,1.3c1.9,2.1,4.1,3.3,6.5,3.5V24.5
					C33.4,24.6,28.3,26.9,26,31.1z"/>
				<path class="st3" d="M37.3,24.5v35.2c2.4-0.2,4.6-1.5,6.5-3.5c0.4-0.4,0.7-0.8,1.1-1.3c0.7-1,1.4-2.1,2-3.3c0,0,0-0.1,0.1-0.1
					c0.3-0.6,0.5-1.1,0.7-1.7c1.7-0.6,2.8-4.4,2.8-6.9c0-1.7-0.5-2.3-1.4-2.5c0.2-3.5,0.9-6.8-0.5-9.4
					C46.4,26.9,41.3,24.6,37.3,24.5z"/>
			</g>
			<path class="st1" d="M37.3,24.2c-2.8-0.9-8.8,0.7-11.5,4.2c-4,5.1-4,13.8-4,13.8l5.1-0.7c0,0,1.5-6.3,7-8.4
				C38,31.4,37.3,24.2,37.3,24.2z"/>
			<path class="st8" d="M31.7,29.6c0.9,4.6,9.9,4.2,13,5.8c3.1,1.5,3,6,3,6l2.6-0.8c0,0,2.6-7.6-3.1-12.7
				c-5.5-4.9-12.2-4.2-14.7-3.6C30.1,25,31.7,29.6,31.7,29.6z"/>
		</g>
		<g>
			<g>
				<path class="st1" d="M53.3,44c-1-0.8-1.4,0-1.4,0c-0.5,1-3.7,5.4-10.6,7.4c-0.5-0.5-1.4-0.9-2.5-0.9c-1.5,0-2.8,0.7-2.8,1.7
					c0,0.9,1.2,1.6,2.8,1.6c1.5,0,2.8-0.7,2.8-1.6C44.1,51.5,50,49.3,53.3,44z"/>
				<path class="st3" d="M54.9,41c-0.3-0.8-0.5-1.4-0.8-1.9c0.1-0.9,0.2-1.8,0.2-2.7c0-9.6-7.7-17.4-17.1-17.4S20,26.8,20,36.4
					c0,1,0.1,1.9,0.2,2.8c-0.3,0.5-0.5,1.1-0.8,1.9c-0.4,1.1-0.1,6.3,0.4,7.1c0.9,1.3,3.4,2.3,5,2.5c0.2,0.2,0.5,0.3,0.8,0.3
					c0.5,0,0.9-0.5,0.9-1l-0.9-9.5c0-0.5-0.5-0.9-1-0.8c-0.2,0-0.4,0.1-0.6,0.3c-0.1,0-0.2,0-0.3,0c-0.5,0-1.3-0.6-1.6-1.2
					c-0.1-0.8-0.2-1.5-0.2-2.3c0-8.6,6.8-14.5,15.3-14.5c8.4,0,15.3,5.9,15.3,14.5c0,0.8-0.1,1.6-0.2,2.4c-0.3,0.6-1.1,1.1-1.6,1.1
					c-0.1,0-0.2,0-0.3,0c-0.2-0.2-0.4-0.3-0.6-0.3c-0.5,0-1,0.3-1,0.8L48,49.9c0,0.5,0.3,0.9,0.9,1c0.3,0,0.6-0.1,0.8-0.3
					c1.6-0.2,4-1.2,5-2.5C55.1,47.3,55.4,42.1,54.9,41z"/>
			</g>
		</g>
	</g>
</g>
</svg>
