<?xml version="1.0" encoding="UTF-8"?>
<svg xmlns="http://www.w3.org/2000/svg" xmlns:xlink="http://www.w3.org/1999/xlink" version="1.2" >
<font id="Panton SemiBold">
<font-face  font-family="Panton" units-per-em="1000" ascent="740" descent="-260" font-style="normal" font-weight="600" font-stretch="normal" cap-height="710" x-height="516" underline-position="-75" underline-thickness="50" />
<missing-glyph  horiz-adv-x="686" d="M610 27 Q610 0 584 0 L107 0 Q81 0 81 27 L81 683 Q81 710 107 710 L584 710 Q610 710 610 683 L610 27 Z M177 90 L514 90 L514 620 L177 620 L177 90 Z " />
<glyph glyph-name="nonmarkingreturn" unicode="&#x20;" horiz-adv-x="228" d="" />
<glyph glyph-name="A" unicode="A" horiz-adv-x="649" d="M636 26 Q645 0 618 0 L579 0 Q539 0 531 23 L469 186 L173 186 L111 23 Q102 0 63 0 L28 0 Q1 0 10 26 L270 690 Q277 712 303 712 L343 712 Q369 712 376 691 L636 26 Z M342 528 Q324 581 324 622 L318 622 Q319 624 315 592 Q311 557 301 529 L200 265 L442 265 L342 528 Z " />
<glyph glyph-name="Aacute" unicode="&#xc1;" horiz-adv-x="649" d="M370 900 Q399 916 414 899 L434 875 Q449 855 430 847 L255 764 Q233 755 225 765 L213 780 Q200 797 215 805 L370 900 Z M636 26 Q645 0 618 0 L579 0 Q539 0 531 23 L469 186 L173 186 L111 23 Q102 0 63 0 L28 0 Q1 0 10 26 L270 690 Q277 712 303 712 L343 712 Q369 712 376 691 L636 26 Z M342 528 Q324 581 324 622 L318 622 Q319 624 315 592 Q311 557 301 529 L200 265 L442 265 L342 528 Z " />
<glyph glyph-name="Abreve" unicode="&#x102;" horiz-adv-x="649" d="M477 867 Q441 762 323 762 Q203 762 171 867 Q166 884 181 890 L212 902 Q231 907 237 893 Q255 827 323 827 Q391 827 410 893 Q416 907 430 902 L466 890 Q482 882 477 867 Z M636 26 Q645 0 618 0 L579 0 Q539 0 531 23 L469 186 L173 186 L111 23 Q102 0 63 0 L28 0 Q1 0 10 26 L270 690 Q277 712 303 712 L343 712 Q369 712 376 691 L636 26 Z M342 528 Q324 581 324 622 L318 622 Q319 624 315 592 Q311 557 301 529 L200 265 L442 265 L342 528 Z " />
<glyph glyph-name="Acircumflex" unicode="&#xc2;" horiz-adv-x="649" d="M330 905 Q353 905 374 884 L487 781 Q503 761 475 761 L440 761 Q414 761 401 775 L323 846 L242 775 Q229 761 205 761 L172 761 Q143 761 161 781 L274 884 Q294 905 320 905 L330 905 Z M636 26 Q645 0 618 0 L579 0 Q539 0 531 23 L469 186 L173 186 L111 23 Q102 0 63 0 L28 0 Q1 0 10 26 L270 690 Q277 712 303 712 L343 712 Q369 712 376 691 L636 26 Z M342 528 Q324 581 324 622 L318 622 Q319 624 315 592 Q311 557 301 529 L200 265 L442 265 L342 528 Z " />
<glyph glyph-name="Adieresis" unicode="&#xc4;" horiz-adv-x="649" d="M228 875 Q270 875 270 834 L270 825 Q270 784 228 784 L221 784 Q180 784 180 825 L180 834 Q180 875 221 875 L228 875 Z M425 875 Q466 875 466 834 L466 825 Q466 784 425 784 L418 784 Q376 784 376 825 L376 834 Q376 875 418 875 L425 875 Z M636 26 Q645 0 618 0 L579 0 Q539 0 531 23 L469 186 L173 186 L111 23 Q102 0 63 0 L28 0 Q1 0 10 26 L270 690 Q277 712 303 712 L343 712 Q369 712 376 691 L636 26 Z M342 528 Q324 581 324 622 L318 622 Q319 624 315 592 Q311 557 301 529 L200 265 L442 265 L342 528 Z " />
<glyph glyph-name="Agrave" unicode="&#xc0;" horiz-adv-x="649" d="M234 895 Q249 913 278 897 L435 804 Q451 795 436 779 L425 764 Q418 755 394 762 L218 844 Q197 852 214 871 L234 895 Z M636 26 Q645 0 618 0 L579 0 Q539 0 531 23 L469 186 L173 186 L111 23 Q102 0 63 0 L28 0 Q1 0 10 26 L270 690 Q277 712 303 712 L343 712 Q369 712 376 691 L636 26 Z M342 528 Q324 581 324 622 L318 622 Q319 624 315 592 Q311 557 301 529 L200 265 L442 265 L342 528 Z " />
<glyph glyph-name="Amacron" unicode="&#x100;" horiz-adv-x="649" d="M440 859 Q462 859 462 837 L462 817 Q462 794 440 794 L206 794 Q184 794 184 817 L184 837 Q184 859 206 859 L440 859 Z M636 26 Q645 0 618 0 L579 0 Q539 0 531 23 L469 186 L173 186 L111 23 Q102 0 63 0 L28 0 Q1 0 10 26 L270 690 Q277 712 303 712 L343 712 Q369 712 376 691 L636 26 Z M342 528 Q324 581 324 622 L318 622 Q319 624 315 592 Q311 557 301 529 L200 265 L442 265 L342 528 Z " />
<glyph glyph-name="Aogonek" unicode="&#x104;" horiz-adv-x="648" d="M345 712 Q371 712 378 691 L637 25 Q643 9 635 1 Q589 -41 565 -87 Q543 -131 551 -155 Q559 -180 583 -180 Q607 -180 624 -163 Q636 -156 639 -167 L650 -193 Q655 -203 649 -211 Q611 -246 556 -246 Q487 -246 474 -191 Q451 -98 567 2 Q539 4 531 26 L469 189 L176 189 L112 23 Q104 0 65 0 L29 0 Q1 0 12 26 L271 690 Q280 712 304 712 L345 712 Z M372 459 Q358 498 343 557 Q330 612 326 621 L320 621 Q316 612 303 557 Q289 499 274 459 L204 269 L442 269 L372 459 Z " />
<glyph glyph-name="Aring" unicode="&#xc5;" horiz-adv-x="649" d="M208 772 Q208 823 240 855 Q273 886 325 886 Q376 886 407 855 Q438 823 438 772 Q438 703 381 678 L636 26 Q645 0 618 0 L579 0 Q539 0 531 23 L469 186 L173 186 L111 23 Q102 0 63 0 L28 0 Q1 0 10 26 L265 680 Q208 704 208 772 Z M384 772 Q384 832 325 832 Q262 832 262 772 Q262 714 325 714 Q384 714 384 772 Z M342 528 Q324 581 324 622 L318 622 Q319 624 315 592 Q311 557 301 529 L200 265 L442 265 L342 528 Z " />
<glyph glyph-name="Aringacute" unicode="&#x1fa;" horiz-adv-x="648" d="M373 959 Q400 972 415 958 L433 939 Q447 925 429 920 L264 860 Q243 853 236 861 L225 872 Q213 885 233 895 L373 959 Z M216 745 Q216 790 246 819 Q277 848 324 848 Q370 848 399 819 Q429 790 429 745 Q429 692 381 670 L635 26 Q646 0 618 0 L578 0 Q538 0 530 23 L467 189 L174 189 L110 23 Q102 0 62 0 L27 0 Q-1 0 10 26 L265 670 Q216 693 216 745 Z M379 748 Q379 802 324 802 Q266 802 266 748 Q266 726 282 712 Q299 697 324 697 Q348 697 364 712 Q379 726 379 748 Z M360 484 Q347 518 336 569 L323 620 L317 620 Q316 619 306 569 Q295 520 283 485 L202 269 L439 269 L360 484 Z " />
<glyph glyph-name="Atilde" unicode="&#xc3;" horiz-adv-x="649" d="M458 888 Q473 888 473 873 Q473 768 392 768 Q357 768 316 800 Q276 831 254 831 Q221 831 221 783 Q221 768 206 768 L181 768 Q166 768 166 783 Q166 888 246 888 Q284 888 325 857 Q365 825 386 825 Q418 825 418 873 Q418 888 433 888 L458 888 Z M636 26 Q645 0 618 0 L579 0 Q539 0 531 23 L469 186 L173 186 L111 23 Q102 0 63 0 L28 0 Q1 0 10 26 L270 690 Q277 712 303 712 L343 712 Q369 712 376 691 L636 26 Z M342 528 Q324 581 324 622 L318 622 Q319 624 315 592 Q311 557 301 529 L200 265 L442 265 L342 528 Z " />
<glyph glyph-name="AE" unicode="&#xc6;" horiz-adv-x="843" d="M781 90 Q807 90 807 64 L807 26 Q807 0 781 0 L447 0 Q420 0 420 26 L420 163 L188 163 L105 23 Q91 0 56 0 L15 0 Q-12 0 -3 26 L409 688 Q423 710 442 710 L769 710 Q795 710 795 684 L795 646 Q795 620 769 620 L514 620 L514 404 L723 404 Q749 404 749 378 L749 341 Q749 314 723 314 L514 314 L514 90 L781 90 Z M236 243 L420 243 L420 548 L236 243 Z " />
<glyph glyph-name="AEacute" unicode="&#x1fc;" horiz-adv-x="843" d="M652 900 Q682 917 696 899 L716 875 Q732 856 713 847 L537 764 Q515 755 507 765 L496 780 Q482 796 497 805 L652 900 Z M781 90 Q807 90 807 64 L807 26 Q807 0 781 0 L447 0 Q420 0 420 26 L420 163 L188 163 L105 23 Q91 0 56 0 L15 0 Q-12 0 -3 26 L409 688 Q423 710 442 710 L769 710 Q795 710 795 684 L795 646 Q795 620 769 620 L514 620 L514 404 L723 404 Q749 404 749 378 L749 341 Q749 314 723 314 L514 314 L514 90 L781 90 Z M236 243 L420 243 L420 548 L236 243 Z " />
<glyph glyph-name="B" unicode="B" horiz-adv-x="647" d="M380 710 Q474 710 526 663 Q579 615 579 526 Q579 412 493 370 L493 367 Q605 334 605 193 Q605 101 545 50 Q487 0 389 0 L100 0 Q74 0 74 26 L74 684 Q74 710 100 710 L380 710 Z M480 512 Q480 620 369 620 L171 620 L171 405 L369 405 Q480 405 480 512 Z M502 203 Q502 317 386 317 L171 317 L171 90 L386 90 Q502 90 502 203 Z " />
<glyph glyph-name="C" unicode="C" horiz-adv-x="638" d="M53 469 Q53 589 125 656 Q199 725 333 725 Q546 725 602 555 Q610 530 585 521 L544 507 Q519 499 510 523 Q473 635 333 635 Q150 635 150 470 L150 240 Q150 162 197 119 Q245 75 333 75 Q473 75 511 189 Q520 215 545 206 L586 191 Q612 183 603 157 Q547 -15 333 -15 Q199 -15 126 54 Q53 121 53 241 L53 469 Z " />
<glyph glyph-name="Cacute" unicode="&#x106;" horiz-adv-x="638" d="M384 900 Q412 917 428 899 L447 875 Q464 856 444 847 L269 764 Q246 755 238 765 L227 780 Q213 796 228 805 L384 900 Z M53 469 Q53 589 125 656 Q199 725 333 725 Q546 725 602 555 Q610 530 585 521 L544 507 Q519 499 510 523 Q473 635 333 635 Q150 635 150 470 L150 240 Q150 162 197 119 Q245 75 333 75 Q473 75 511 189 Q520 215 545 206 L586 191 Q612 183 603 157 Q547 -15 333 -15 Q199 -15 126 54 Q53 121 53 241 L53 469 Z " />
<glyph glyph-name="Ccaron" unicode="&#x10c;" horiz-adv-x="638" d="M486 904 Q516 904 498 884 L385 781 Q364 760 341 760 L332 760 Q306 760 285 781 L172 884 Q154 904 184 904 L217 904 Q240 904 254 890 L334 819 L412 890 Q425 904 451 904 L486 904 Z M53 469 Q53 589 125 656 Q199 725 333 725 Q546 725 602 555 Q610 530 585 521 L544 507 Q519 499 510 523 Q473 635 333 635 Q150 635 150 470 L150 240 Q150 162 197 119 Q245 75 333 75 Q473 75 511 189 Q520 215 545 206 L586 191 Q612 183 603 157 Q547 -15 333 -15 Q199 -15 126 54 Q53 121 53 241 L53 469 Z " />
<glyph glyph-name="Ccedilla" unicode="&#xc7;" horiz-adv-x="638" d="M586 191 Q612 183 603 157 Q550 -6 354 -14 L334 -66 Q344 -64 354 -64 Q393 -64 417 -88 Q441 -112 438 -149 Q431 -245 312 -245 Q264 -245 235 -229 Q221 -223 221 -206 L221 -182 Q221 -165 233 -172 Q264 -192 301 -192 Q361 -192 361 -145 Q361 -110 309 -109 Q293 -109 279 -112 Q258 -114 267 -92 L299 -13 Q181 -5 117 63 Q53 129 53 241 L53 469 Q53 589 125 656 Q199 725 333 725 Q546 725 602 555 Q610 530 585 521 L544 507 Q519 499 510 523 Q473 635 333 635 Q150 635 150 470 L150 240 Q150 162 197 119 Q245 75 333 75 Q473 75 511 189 Q520 215 545 206 L586 191 Z " />
<glyph glyph-name="Ccircumflex" unicode="&#x108;" horiz-adv-x="638" d="M344 905 Q366 905 388 884 L500 781 Q518 761 489 761 L454 761 Q428 761 415 775 L337 846 L256 775 Q243 761 219 761 L186 761 Q158 761 174 781 L288 884 Q308 905 334 905 L344 905 Z M53 469 Q53 589 125 656 Q199 725 333 725 Q546 725 602 555 Q610 530 585 521 L544 507 Q519 499 510 523 Q473 635 333 635 Q150 635 150 470 L150 240 Q150 162 197 119 Q245 75 333 75 Q473 75 511 189 Q520 215 545 206 L586 191 Q612 183 603 157 Q547 -15 333 -15 Q199 -15 126 54 Q53 121 53 241 L53 469 Z " />
<glyph glyph-name="Cdotaccent" unicode="&#x10a;" horiz-adv-x="638" d="M339 874 Q364 874 373 865 Q382 856 382 831 L382 824 Q382 799 373 790 Q364 781 339 781 L334 781 Q309 781 300 790 Q291 799 291 824 L291 831 Q291 856 300 865 Q309 874 334 874 L339 874 Z M53 469 Q53 589 125 656 Q199 725 333 725 Q546 725 602 555 Q610 530 585 521 L544 507 Q519 499 510 523 Q473 635 333 635 Q150 635 150 470 L150 240 Q150 162 197 119 Q245 75 333 75 Q473 75 511 189 Q520 215 545 206 L586 191 Q612 183 603 157 Q547 -15 333 -15 Q199 -15 126 54 Q53 121 53 241 L53 469 Z " />
<glyph glyph-name="D" unicode="D" horiz-adv-x="659" d="M318 710 Q456 710 533 639 Q608 569 608 446 L608 264 Q608 141 533 71 Q456 0 318 0 L100 0 Q74 0 74 26 L74 684 Q74 710 100 710 L318 710 Z M511 447 Q511 530 461 575 Q411 620 318 620 L171 620 L171 90 L318 90 Q411 90 461 135 Q511 180 511 263 L511 447 Z " />
<glyph glyph-name="Eth" unicode="&#xd0;" horiz-adv-x="672" d="M331 710 Q469 710 546 639 Q621 569 621 446 L621 264 Q621 141 546 71 Q469 0 331 0 L113 0 Q87 0 87 26 L87 332 L20 332 Q4 332 4 349 L4 378 Q4 395 20 395 L87 395 L87 684 Q87 710 113 710 L331 710 Z M524 447 Q524 530 474 575 Q424 620 331 620 L184 620 L184 395 L338 395 Q354 395 354 378 L354 349 Q354 332 338 332 L184 332 L184 90 L331 90 Q424 90 474 135 Q524 180 524 263 L524 447 Z " />
<glyph glyph-name="Dcaron" unicode="&#x10e;" horiz-adv-x="659" d="M462 904 Q493 904 473 884 L361 781 Q339 760 317 760 L307 760 Q281 760 261 781 L148 884 Q128 904 159 904 L192 904 Q216 904 229 890 L310 819 L388 890 Q401 904 427 904 L462 904 Z M318 710 Q456 710 533 639 Q608 569 608 446 L608 264 Q608 141 533 71 Q456 0 318 0 L100 0 Q74 0 74 26 L74 684 Q74 710 100 710 L318 710 Z M511 447 Q511 530 461 575 Q411 620 318 620 L171 620 L171 90 L318 90 Q411 90 461 135 Q511 180 511 263 L511 447 Z " />
<glyph glyph-name="Dcroat" unicode="&#x110;" horiz-adv-x="672" d="M331 710 Q469 710 546 639 Q621 569 621 446 L621 264 Q621 141 546 71 Q469 0 331 0 L113 0 Q87 0 87 26 L87 332 L20 332 Q4 332 4 349 L4 378 Q4 395 20 395 L87 395 L87 684 Q87 710 113 710 L331 710 Z M524 447 Q524 530 474 575 Q424 620 331 620 L184 620 L184 395 L338 395 Q354 395 354 378 L354 349 Q354 332 338 332 L184 332 L184 90 L331 90 Q424 90 474 135 Q524 180 524 263 L524 447 Z " />
<glyph glyph-name="E" unicode="E" horiz-adv-x="576" d="M502 710 Q528 710 528 684 L528 646 Q528 620 502 620 L171 620 L171 405 L456 405 Q482 405 482 378 L482 341 Q482 315 456 315 L171 315 L171 90 L514 90 Q540 90 540 64 L540 26 Q540 0 514 0 L100 0 Q74 0 74 26 L74 684 Q74 710 100 710 L502 710 Z " />
<glyph glyph-name="Eacute" unicode="&#xc9;" horiz-adv-x="576" d="M349 900 Q377 917 393 899 L413 875 Q428 855 409 847 L234 764 Q211 755 203 765 L192 780 Q178 796 193 805 L349 900 Z M502 710 Q528 710 528 684 L528 646 Q528 620 502 620 L171 620 L171 405 L456 405 Q482 405 482 378 L482 341 Q482 315 456 315 L171 315 L171 90 L514 90 Q540 90 540 64 L540 26 Q540 0 514 0 L100 0 Q74 0 74 26 L74 684 Q74 710 100 710 L502 710 Z " />
<glyph glyph-name="Ebreve" unicode="&#x114;" horiz-adv-x="576" d="M455 867 Q421 762 302 762 Q183 762 149 867 Q144 883 160 890 L191 902 Q210 907 215 893 Q235 827 302 827 Q368 827 389 893 Q394 907 409 902 L445 890 Q460 883 455 867 Z M502 710 Q528 710 528 684 L528 646 Q528 620 502 620 L171 620 L171 405 L456 405 Q482 405 482 378 L482 341 Q482 315 456 315 L171 315 L171 90 L514 90 Q540 90 540 64 L540 26 Q540 0 514 0 L100 0 Q74 0 74 26 L74 684 Q74 710 100 710 L502 710 Z " />
<glyph glyph-name="Ecaron" unicode="&#x11a;" horiz-adv-x="576" d="M451 904 Q481 904 463 884 L350 781 Q329 760 306 760 L297 760 Q271 760 250 781 L137 884 Q119 904 149 904 L182 904 Q205 904 219 890 L299 819 L378 890 Q391 904 416 904 L451 904 Z M502 710 Q528 710 528 684 L528 646 Q528 620 502 620 L171 620 L171 405 L456 405 Q482 405 482 378 L482 341 Q482 315 456 315 L171 315 L171 90 L514 90 Q540 90 540 64 L540 26 Q540 0 514 0 L100 0 Q74 0 74 26 L74 684 Q74 710 100 710 L502 710 Z " />
<glyph glyph-name="Ecircumflex" unicode="&#xca;" horiz-adv-x="576" d="M309 905 Q331 905 353 884 L466 781 Q482 761 454 761 L419 761 Q393 761 380 775 L302 846 L221 775 Q208 761 184 761 L151 761 Q123 761 139 781 L253 884 Q273 905 299 905 L309 905 Z M502 710 Q528 710 528 684 L528 646 Q528 620 502 620 L171 620 L171 405 L456 405 Q482 405 482 378 L482 341 Q482 315 456 315 L171 315 L171 90 L514 90 Q540 90 540 64 L540 26 Q540 0 514 0 L100 0 Q74 0 74 26 L74 684 Q74 710 100 710 L502 710 Z " />
<glyph glyph-name="Edieresis" unicode="&#xcb;" horiz-adv-x="576" d="M206 875 Q248 875 248 834 L248 825 Q248 802 239 793 Q231 784 206 784 L200 784 Q158 784 158 825 L158 834 Q158 875 200 875 L206 875 Z M403 875 Q445 875 445 834 L445 825 Q445 784 403 784 L397 784 Q355 784 355 825 L355 834 Q355 875 397 875 L403 875 Z M502 710 Q528 710 528 684 L528 646 Q528 620 502 620 L171 620 L171 405 L456 405 Q482 405 482 378 L482 341 Q482 315 456 315 L171 315 L171 90 L514 90 Q540 90 540 64 L540 26 Q540 0 514 0 L100 0 Q74 0 74 26 L74 684 Q74 710 100 710 L502 710 Z " />
<glyph glyph-name="Edotaccent" unicode="&#x116;" horiz-adv-x="576" d="M304 874 Q329 874 338 865 Q347 856 347 831 L347 824 Q347 799 338 790 Q329 781 304 781 L299 781 Q274 781 265 790 Q256 799 256 824 L256 831 Q256 856 265 865 Q274 874 299 874 L304 874 Z M502 710 Q528 710 528 684 L528 646 Q528 620 502 620 L171 620 L171 405 L456 405 Q482 405 482 378 L482 341 Q482 315 456 315 L171 315 L171 90 L514 90 Q540 90 540 64 L540 26 Q540 0 514 0 L100 0 Q74 0 74 26 L74 684 Q74 710 100 710 L502 710 Z " />
<glyph glyph-name="Egrave" unicode="&#xc8;" horiz-adv-x="576" d="M213 895 Q227 914 257 897 L413 804 Q429 796 415 779 L404 764 Q396 754 373 762 L196 844 Q177 852 193 871 L213 895 Z M502 710 Q528 710 528 684 L528 646 Q528 620 502 620 L171 620 L171 405 L456 405 Q482 405 482 378 L482 341 Q482 315 456 315 L171 315 L171 90 L514 90 Q540 90 540 64 L540 26 Q540 0 514 0 L100 0 Q74 0 74 26 L74 684 Q74 710 100 710 L502 710 Z " />
<glyph glyph-name="Emacron" unicode="&#x112;" horiz-adv-x="576" d="M419 859 Q441 859 441 837 L441 817 Q441 794 419 794 L185 794 Q162 794 162 817 L162 837 Q162 859 185 859 L419 859 Z M502 710 Q528 710 528 684 L528 646 Q528 620 502 620 L171 620 L171 405 L456 405 Q482 405 482 378 L482 341 Q482 315 456 315 L171 315 L171 90 L514 90 Q540 90 540 64 L540 26 Q540 0 514 0 L100 0 Q74 0 74 26 L74 684 Q74 710 100 710 L502 710 Z " />
<glyph glyph-name="Eogonek" unicode="&#x118;" horiz-adv-x="576" d="M502 710 Q528 710 528 684 L528 646 Q528 620 502 620 L171 620 L171 404 L456 404 Q482 404 482 378 L482 341 Q482 314 456 314 L171 314 L171 90 L514 90 Q540 90 540 64 L540 26 Q540 12 531 3 Q422 -93 443 -153 Q451 -177 476 -177 Q496 -177 514 -161 Q524 -153 529 -165 L540 -191 Q544 -203 538 -208 Q501 -244 447 -244 Q379 -244 365 -189 Q339 -100 463 0 L100 0 Q74 0 74 26 L74 684 Q74 710 100 710 L502 710 Z " />
<glyph glyph-name="F" unicode="F" horiz-adv-x="559" d="M502 710 Q528 710 528 684 L528 646 Q528 620 502 620 L171 620 L171 395 L453 395 Q479 395 479 369 L479 331 Q479 305 453 305 L171 305 L171 26 Q171 0 144 0 L100 0 Q74 0 74 26 L74 684 Q74 710 100 710 L502 710 Z " />
<glyph glyph-name="G" unicode="G" horiz-adv-x="658" d="M586 378 Q613 378 613 351 L613 223 Q613 115 541 52 Q466 -15 333 -15 Q199 -15 125 54 Q53 121 53 241 L53 469 Q53 589 125 656 Q199 725 333 725 Q546 725 602 555 Q610 530 585 521 L544 507 Q519 498 510 523 Q473 635 333 635 Q150 635 150 470 L150 241 Q150 162 197 119 Q245 75 333 75 Q420 75 469 116 Q517 156 517 223 L517 288 L344 288 Q318 288 318 314 L318 352 Q318 378 344 378 L586 378 Z " />
<glyph glyph-name="Gbreve" unicode="&#x11e;" horiz-adv-x="658" d="M487 877 Q451 772 333 772 Q213 772 181 877 Q176 894 191 900 L222 912 Q241 917 247 903 Q265 837 333 837 Q401 837 420 903 Q426 917 440 912 L476 900 Q492 892 487 877 Z M586 378 Q613 378 613 351 L613 223 Q613 115 541 52 Q466 -15 333 -15 Q199 -15 125 54 Q53 121 53 241 L53 469 Q53 589 125 656 Q199 725 333 725 Q546 725 602 555 Q610 530 585 521 L544 507 Q519 498 510 523 Q473 635 333 635 Q150 635 150 470 L150 241 Q150 162 197 119 Q245 75 333 75 Q420 75 469 116 Q517 156 517 223 L517 288 L344 288 Q318 288 318 314 L318 352 Q318 378 344 378 L586 378 Z " />
<glyph glyph-name="Gcircumflex" unicode="&#x11c;" horiz-adv-x="658" d="M340 915 Q363 915 384 894 L497 791 Q513 771 485 771 L450 771 Q424 771 411 785 L333 856 L252 785 Q239 771 215 771 L182 771 Q153 771 171 791 L284 894 Q304 915 330 915 L340 915 Z M586 378 Q613 378 613 351 L613 223 Q613 115 541 52 Q466 -15 333 -15 Q199 -15 125 54 Q53 121 53 241 L53 469 Q53 589 125 656 Q199 725 333 725 Q546 725 602 555 Q610 530 585 521 L544 507 Q519 498 510 523 Q473 635 333 635 Q150 635 150 470 L150 241 Q150 162 197 119 Q245 75 333 75 Q420 75 469 116 Q517 156 517 223 L517 288 L344 288 Q318 288 318 314 L318 352 Q318 378 344 378 L586 378 Z " />
<glyph glyph-name="uni0122" unicode="&#x122;" horiz-adv-x="658" d="M586 378 Q613 378 613 351 L613 223 Q613 115 541 52 Q466 -15 333 -15 Q199 -15 125 54 Q53 121 53 241 L53 469 Q53 589 125 656 Q199 725 333 725 Q546 725 602 555 Q610 530 585 521 L544 507 Q519 498 510 523 Q473 635 333 635 Q150 635 150 470 L150 241 Q150 162 197 119 Q245 75 333 75 Q420 75 469 116 Q517 156 517 223 L517 288 L344 288 Q318 288 318 314 L318 352 Q318 378 344 378 L586 378 Z M350 -230 Q342 -253 322 -253 L293 -253 Q276 -253 277 -235 L305 -92 Q308 -67 334 -67 L374 -67 Q405 -67 396 -92 L350 -230 Z " />
<glyph glyph-name="Gdotaccent" unicode="&#x120;" horiz-adv-x="658" d="M336 884 Q361 884 369 875 Q378 866 378 841 L378 834 Q378 809 369 800 Q361 791 336 791 L330 791 Q305 791 296 800 Q287 809 287 834 L287 841 Q287 866 296 875 Q305 884 330 884 L336 884 Z M586 378 Q613 378 613 351 L613 223 Q613 115 541 52 Q466 -15 333 -15 Q199 -15 125 54 Q53 121 53 241 L53 469 Q53 589 125 656 Q199 725 333 725 Q546 725 602 555 Q610 530 585 521 L544 507 Q519 498 510 523 Q473 635 333 635 Q150 635 150 470 L150 241 Q150 162 197 119 Q245 75 333 75 Q420 75 469 116 Q517 156 517 223 L517 288 L344 288 Q318 288 318 314 L318 352 Q318 378 344 378 L586 378 Z " />
<glyph glyph-name="H" unicode="H" horiz-adv-x="683" d="M583 710 Q609 710 609 684 L609 26 Q609 0 583 0 L539 0 Q513 0 513 26 L513 315 L171 315 L171 26 Q171 0 144 0 L100 0 Q74 0 74 26 L74 684 Q74 710 100 710 L144 710 Q171 710 171 684 L171 405 L513 405 L513 684 Q513 710 539 710 L583 710 Z " />
<glyph glyph-name="Hbar" unicode="&#x126;" horiz-adv-x="694" d="M669 599 Q685 599 685 582 L685 560 Q685 542 669 542 L614 542 L614 26 Q614 0 588 0 L544 0 Q518 0 518 26 L518 315 L176 315 L176 26 Q176 0 149 0 L105 0 Q79 0 79 26 L79 542 L26 542 Q10 542 10 560 L10 582 Q10 599 26 599 L79 599 L79 684 Q79 710 105 710 L149 710 Q176 710 176 684 L176 599 L518 599 L518 684 Q518 710 544 710 L588 710 Q614 710 614 684 L614 599 L669 599 Z M176 405 L518 405 L518 542 L176 542 L176 405 Z " />
<glyph glyph-name="Hcircumflex" unicode="&#x124;" horiz-adv-x="683" d="M349 905 Q371 905 393 884 L506 781 Q522 761 494 761 L459 761 Q433 761 420 775 L342 846 L261 775 Q248 761 224 761 L191 761 Q163 761 179 781 L293 884 Q313 905 339 905 L349 905 Z M583 710 Q609 710 609 684 L609 26 Q609 0 583 0 L539 0 Q513 0 513 26 L513 315 L171 315 L171 26 Q171 0 144 0 L100 0 Q74 0 74 26 L74 684 Q74 710 100 710 L144 710 Q171 710 171 684 L171 405 L513 405 L513 684 Q513 710 539 710 L583 710 Z " />
<glyph glyph-name="I" unicode="I" horiz-adv-x="245" d="M74 684 Q74 710 100 710 L144 710 Q171 710 171 684 L171 26 Q171 0 144 0 L100 0 Q74 0 74 26 L74 684 Z " />
<glyph glyph-name="IJ" unicode="&#x132;" horiz-adv-x="821" d="M74 684 Q74 710 100 710 L144 710 Q171 710 171 684 L171 26 Q171 0 144 0 L100 0 Q74 0 74 26 L74 684 Z M726 710 Q752 710 752 684 L752 228 Q752 114 689 50 Q624 -15 504 -15 Q314 -15 265 163 Q257 188 281 197 L323 212 Q348 220 357 195 Q388 75 504 75 Q655 75 655 227 L655 684 Q655 710 681 710 L726 710 Z " />
<glyph glyph-name="Iacute" unicode="&#xcd;" horiz-adv-x="245" d="M167 900 Q197 917 212 899 L231 875 Q248 856 228 847 L53 764 Q30 755 22 765 L11 780 Q-3 796 12 805 L167 900 Z M72 684 Q72 710 98 710 L142 710 Q169 710 169 684 L169 26 Q169 0 142 0 L98 0 Q72 0 72 26 L72 684 Z " />
<glyph glyph-name="Ibreve" unicode="&#x12c;" horiz-adv-x="245" d="M275 867 Q241 762 121 762 Q3 762 -31 867 Q-36 883 -20 890 L11 902 Q28 907 35 893 Q55 827 121 827 Q189 827 208 893 Q214 907 229 902 L264 890 Q280 882 275 867 Z M73 684 Q73 710 99 710 L143 710 Q170 710 170 684 L170 26 Q170 0 143 0 L99 0 Q73 0 73 26 L73 684 Z " />
<glyph glyph-name="Icircumflex" unicode="&#xce;" horiz-adv-x="245" d="M130 905 Q152 905 173 884 L286 781 Q304 761 275 761 L239 761 Q214 761 201 775 L122 846 L42 775 Q29 761 5 761 L-28 761 Q-56 761 -40 781 L73 884 Q94 905 120 905 L130 905 Z M74 684 Q74 710 100 710 L144 710 Q171 710 171 684 L171 26 Q171 0 144 0 L100 0 Q74 0 74 26 L74 684 Z " />
<glyph glyph-name="Idieresis" unicode="&#xcf;" horiz-adv-x="245" d="M27 875 Q69 875 69 834 L69 825 Q69 784 27 784 L20 784 Q-21 784 -21 825 L-21 834 Q-21 875 20 875 L27 875 Z M224 875 Q266 875 266 834 L266 825 Q266 784 224 784 L218 784 Q175 784 175 825 L175 834 Q175 875 218 875 L224 875 Z M74 684 Q74 710 100 710 L144 710 Q171 710 171 684 L171 26 Q171 0 144 0 L100 0 Q74 0 74 26 L74 684 Z " />
<glyph glyph-name="Idotaccent" unicode="&#x130;" horiz-adv-x="245" d="M125 874 Q150 874 159 865 Q168 856 168 831 L168 824 Q168 799 159 790 Q150 781 125 781 L120 781 Q95 781 86 790 Q77 799 77 824 L77 831 Q77 856 86 865 Q95 874 120 874 L125 874 Z M74 684 Q74 710 100 710 L144 710 Q171 710 171 684 L171 26 Q171 0 144 0 L100 0 Q74 0 74 26 L74 684 Z " />
<glyph glyph-name="Igrave" unicode="&#xcc;" horiz-adv-x="245" d="M32 895 Q47 913 76 897 L233 804 Q249 795 234 779 L223 764 Q215 754 192 762 L15 844 Q-4 852 12 871 L32 895 Z M72 684 Q72 710 99 710 L143 710 Q169 710 169 684 L169 26 Q169 0 143 0 L99 0 Q72 0 72 26 L72 684 Z " />
<glyph glyph-name="Imacron" unicode="&#x12a;" horiz-adv-x="245" d="M239 859 Q262 859 262 837 L262 817 Q262 794 239 794 L6 794 Q-17 794 -17 817 L-17 837 Q-17 859 6 859 L239 859 Z M74 684 Q74 710 100 710 L144 710 Q171 710 171 684 L171 26 Q171 0 144 0 L100 0 Q74 0 74 26 L74 684 Z " />
<glyph glyph-name="Iogonek" unicode="&#x12e;" horiz-adv-x="245" d="M206 -193 Q211 -204 205 -210 Q168 -246 113 -246 Q42 -246 30 -191 Q10 -110 102 0 Q74 0 74 26 L74 684 Q74 710 100 710 L144 710 Q171 710 171 684 L171 26 Q171 11 164 3 Q89 -93 107 -155 Q116 -179 141 -179 Q164 -179 181 -163 Q191 -155 196 -167 L206 -193 Z " />
<glyph glyph-name="Itilde" unicode="&#x128;" horiz-adv-x="245" d="M258 888 Q273 888 273 873 Q273 768 192 768 Q157 768 116 800 Q75 831 53 831 Q20 831 20 783 Q20 768 6 768 L-20 768 Q-35 768 -35 783 Q-35 888 45 888 Q83 888 124 857 Q165 825 186 825 Q218 825 218 873 Q218 888 232 888 L258 888 Z M74 684 Q74 710 100 710 L144 710 Q171 710 171 684 L171 26 Q171 0 144 0 L100 0 Q74 0 74 26 L74 684 Z " />
<glyph glyph-name="J" unicode="J" horiz-adv-x="574" d="M478 710 Q503 710 503 684 L503 228 Q503 114 440 50 Q376 -15 256 -15 Q66 -15 17 163 Q9 188 33 197 L75 212 Q100 220 109 195 Q140 75 256 75 Q407 75 407 227 L407 684 Q407 710 433 710 L478 710 Z " />
<glyph glyph-name="Jcircumflex" unicode="&#x134;" horiz-adv-x="574" d="M462 905 Q485 905 506 884 L619 781 Q637 761 607 761 L572 761 Q547 761 534 775 L455 846 L375 775 Q362 761 338 761 L305 761 Q277 761 293 781 L406 884 Q427 905 453 905 L462 905 Z M478 710 Q503 710 503 684 L503 228 Q503 114 440 50 Q376 -15 256 -15 Q66 -15 17 163 Q9 188 33 197 L75 212 Q100 220 109 195 Q140 75 256 75 Q407 75 407 227 L407 684 Q407 710 433 710 L478 710 Z " />
<glyph glyph-name="K" unicode="K" horiz-adv-x="617" d="M598 27 Q612 0 584 0 L540 0 Q499 0 488 23 L382 237 Q359 282 332 299 Q304 316 249 316 L171 316 L171 26 Q171 0 144 0 L100 0 Q74 0 74 26 L74 684 Q74 710 100 710 L144 710 Q171 710 171 684 L171 404 L259 404 L472 688 Q489 710 525 710 L574 710 Q587 710 591 702 Q595 694 587 685 L356 385 Q427 361 471 272 L598 27 Z " />
<glyph glyph-name="uni0136" unicode="&#x136;" horiz-adv-x="617" d="M598 27 Q612 0 584 0 L540 0 Q499 0 488 23 L382 237 Q359 282 332 299 Q304 316 249 316 L171 316 L171 26 Q171 0 144 0 L100 0 Q74 0 74 26 L74 684 Q74 710 100 710 L144 710 Q171 710 171 684 L171 404 L259 404 L472 688 Q489 710 525 710 L574 710 Q587 710 591 702 Q595 694 587 685 L356 385 Q427 361 471 272 L598 27 Z M328 -230 Q321 -253 300 -253 L272 -253 Q253 -253 256 -235 L283 -92 Q286 -67 312 -67 L352 -67 Q384 -67 375 -92 L328 -230 Z " />
<glyph glyph-name="L" unicode="L" horiz-adv-x="525" d="M144 710 Q171 710 171 684 L171 90 L485 90 Q512 90 512 64 L512 26 Q512 0 485 0 L100 0 Q74 0 74 26 L74 684 Q74 710 100 710 L144 710 Z " />
<glyph glyph-name="Lacute" unicode="&#x139;" horiz-adv-x="525" d="M168 900 Q196 917 212 899 L232 875 Q247 855 228 847 L53 764 Q30 755 22 765 L11 780 Q-2 797 13 805 L168 900 Z M142 710 Q169 710 169 684 L169 90 L483 90 Q510 90 510 64 L510 26 Q510 0 483 0 L98 0 Q72 0 72 26 L72 684 Q72 710 98 710 L142 710 Z " />
<glyph glyph-name="Lcaron" unicode="&#x13d;" horiz-adv-x="525" d="M144 710 Q171 710 171 684 L171 90 L485 90 Q512 90 512 64 L512 26 Q512 0 485 0 L100 0 Q74 0 74 26 L74 684 Q74 710 100 710 L144 710 Z M382 505 Q375 484 355 484 L333 484 Q317 484 318 500 L348 686 Q351 710 376 710 L413 710 Q443 710 434 685 L382 505 Z " />
<glyph glyph-name="uni013B" unicode="&#x13b;" horiz-adv-x="525" d="M144 710 Q171 710 171 684 L171 90 L485 90 Q512 90 512 64 L512 26 Q512 0 485 0 L100 0 Q74 0 74 26 L74 684 Q74 710 100 710 L144 710 Z M291 -230 Q284 -253 264 -253 L235 -253 Q216 -253 219 -235 L246 -92 Q249 -67 275 -67 L315 -67 Q347 -67 338 -92 L291 -230 Z " />
<glyph glyph-name="Ldot" unicode="&#x13f;" horiz-adv-x="525" d="M144 710 Q171 710 171 684 L171 90 L485 90 Q512 90 512 64 L512 26 Q512 0 485 0 L100 0 Q74 0 74 26 L74 684 Q74 710 100 710 L144 710 Z M361 426 Q390 426 400 415 Q411 405 411 376 L411 368 Q411 339 400 328 Q390 317 361 317 L354 317 Q325 317 315 328 Q304 339 304 368 L304 376 Q304 405 315 415 Q326 426 354 426 L361 426 Z " />
<glyph glyph-name="Lslash" unicode="&#x141;" horiz-adv-x="556" d="M515 90 Q542 90 542 64 L542 26 Q542 0 515 0 L130 0 Q104 0 104 26 L104 273 L36 242 Q20 232 11 250 L-3 278 Q-12 294 4 301 L104 348 L104 684 Q104 710 130 710 L174 710 Q200 710 200 684 L200 392 L384 479 Q401 486 411 470 L424 441 Q432 425 415 419 L200 317 L200 90 L515 90 Z " />
<glyph glyph-name="M" unicode="M" horiz-adv-x="805" d="M705 710 Q731 710 731 684 L731 26 Q731 0 705 0 L665 0 Q639 0 639 26 L639 387 Q639 470 657 575 L652 575 Q623 497 572 407 L445 181 Q434 162 414 162 L389 162 Q369 162 358 181 L229 409 Q185 484 154 575 L148 575 Q164 480 164 387 L164 26 Q164 0 138 0 L100 0 Q74 0 74 26 L74 684 Q74 710 100 710 L135 710 Q161 710 172 690 L402 281 L631 689 Q642 710 667 710 L705 710 Z " />
<glyph glyph-name="N" unicode="N" horiz-adv-x="693" d="M593 710 Q619 710 619 684 L619 26 Q619 0 593 0 L549 0 Q531 0 522 13 L237 428 Q213 464 185 523 Q158 579 156 582 L151 582 L160 513 Q168 446 168 396 L168 26 Q168 0 141 0 L100 0 Q74 0 74 26 L74 684 Q74 710 100 710 L144 710 Q162 710 170 697 L451 289 Q478 249 507 190 Q535 132 537 129 L542 129 L534 200 Q526 269 526 322 L526 684 Q526 710 552 710 L593 710 Z " />
<glyph glyph-name="Nacute" unicode="&#x143;" horiz-adv-x="693" d="M394 900 Q424 917 438 899 L458 875 Q474 856 455 847 L279 764 Q257 755 249 765 L237 780 Q224 796 239 805 L394 900 Z M593 710 Q619 710 619 684 L619 26 Q619 0 593 0 L549 0 Q531 0 522 13 L237 428 Q213 464 185 523 Q158 579 156 582 L151 582 L160 513 Q168 446 168 396 L168 26 Q168 0 141 0 L100 0 Q74 0 74 26 L74 684 Q74 710 100 710 L144 710 Q162 710 170 697 L451 289 Q478 249 507 190 Q535 132 537 129 L542 129 L534 200 Q526 269 526 322 L526 684 Q526 710 552 710 L593 710 Z " />
<glyph glyph-name="Ncaron" unicode="&#x147;" horiz-adv-x="693" d="M497 904 Q528 904 508 884 L396 781 Q375 760 352 760 L342 760 Q316 760 296 781 L183 884 Q163 904 194 904 L227 904 Q251 904 264 890 L345 819 L423 890 Q436 904 462 904 L497 904 Z M593 710 Q619 710 619 684 L619 26 Q619 0 593 0 L549 0 Q531 0 522 13 L237 428 Q213 464 185 523 Q158 579 156 582 L151 582 L160 513 Q168 446 168 396 L168 26 Q168 0 141 0 L100 0 Q74 0 74 26 L74 684 Q74 710 100 710 L144 710 Q162 710 170 697 L451 289 Q478 249 507 190 Q535 132 537 129 L542 129 L534 200 Q526 269 526 322 L526 684 Q526 710 552 710 L593 710 Z " />
<glyph glyph-name="uni0145" unicode="&#x145;" horiz-adv-x="693" d="M593 710 Q619 710 619 684 L619 26 Q619 0 593 0 L549 0 Q531 0 522 13 L237 428 Q213 464 185 523 Q158 579 156 582 L151 582 L160 513 Q168 446 168 396 L168 26 Q168 0 141 0 L100 0 Q74 0 74 26 L74 684 Q74 710 100 710 L144 710 Q162 710 170 697 L451 289 Q478 249 507 190 Q535 132 537 129 L542 129 L534 200 Q526 269 526 322 L526 684 Q526 710 552 710 L593 710 Z M354 -230 Q347 -253 326 -253 L298 -253 Q279 -253 282 -235 L309 -92 Q312 -67 338 -67 L378 -67 Q410 -67 401 -92 L354 -230 Z " />
<glyph glyph-name="Eng" unicode="&#x14a;" horiz-adv-x="693" d="M593 710 Q619 710 619 684 L619 -10 Q619 -115 561 -172 Q502 -230 390 -230 Q365 -230 365 -206 L365 -171 Q365 -147 390 -147 Q526 -147 526 -7 L526 9 L237 428 Q213 464 185 523 Q158 579 156 582 L151 582 L160 517 Q168 453 168 404 L168 26 Q168 0 141 0 L100 0 Q74 0 74 26 L74 684 Q74 710 100 710 L144 710 Q162 710 170 697 L451 289 Q478 249 507 190 Q535 132 537 129 L542 129 L534 200 Q526 269 526 322 L526 684 Q526 710 552 710 L593 710 Z " />
<glyph glyph-name="Ntilde" unicode="&#xd1;" horiz-adv-x="693" d="M482 888 Q498 888 498 873 Q498 768 417 768 Q382 768 341 800 Q300 831 278 831 Q245 831 245 783 Q245 768 231 768 L205 768 Q190 768 190 783 Q190 888 270 888 Q308 888 349 857 Q390 825 411 825 Q443 825 443 873 Q443 888 457 888 L482 888 Z M593 710 Q619 710 619 684 L619 26 Q619 0 593 0 L549 0 Q531 0 522 13 L237 428 Q213 464 185 523 Q158 579 156 582 L151 582 L160 513 Q168 446 168 396 L168 26 Q168 0 141 0 L100 0 Q74 0 74 26 L74 684 Q74 710 100 710 L144 710 Q162 710 170 697 L451 289 Q478 249 507 190 Q535 132 537 129 L542 129 L534 200 Q526 269 526 322 L526 684 Q526 710 552 710 L593 710 Z " />
<glyph glyph-name="O" unicode="O" horiz-adv-x="666" d="M53 469 Q53 589 125 656 Q199 725 333 725 Q467 725 541 656 Q613 589 613 469 L613 241 Q613 121 541 54 Q467 -15 333 -15 Q199 -15 125 54 Q53 121 53 241 L53 469 Z M516 469 Q516 549 469 592 Q421 635 333 635 Q245 635 197 592 Q150 549 150 469 L150 241 Q150 161 197 118 Q245 75 333 75 Q421 75 469 118 Q516 161 516 241 L516 469 Z " />
<glyph glyph-name="Oacute" unicode="&#xd3;" horiz-adv-x="666" d="M380 910 Q410 927 424 909 L444 885 Q460 866 441 857 L265 774 Q243 765 235 775 L223 790 Q210 806 225 815 L380 910 Z M53 469 Q53 589 125 656 Q199 725 333 725 Q467 725 541 656 Q613 589 613 469 L613 241 Q613 121 541 54 Q467 -15 333 -15 Q199 -15 125 54 Q53 121 53 241 L53 469 Z M516 469 Q516 549 469 592 Q421 635 333 635 Q245 635 197 592 Q150 549 150 469 L150 241 Q150 161 197 118 Q245 75 333 75 Q421 75 469 118 Q516 161 516 241 L516 469 Z " />
<glyph glyph-name="Obreve" unicode="&#x14e;" horiz-adv-x="666" d="M487 877 Q453 772 333 772 Q215 772 181 877 Q176 893 192 900 L223 912 Q240 917 247 903 Q267 837 333 837 Q401 837 420 903 Q426 917 441 912 L476 900 Q492 892 487 877 Z M53 469 Q53 589 125 656 Q199 725 333 725 Q467 725 541 656 Q613 589 613 469 L613 241 Q613 121 541 54 Q467 -15 333 -15 Q199 -15 125 54 Q53 121 53 241 L53 469 Z M516 469 Q516 549 469 592 Q421 635 333 635 Q245 635 197 592 Q150 549 150 469 L150 241 Q150 161 197 118 Q245 75 333 75 Q421 75 469 118 Q516 161 516 241 L516 469 Z " />
<glyph glyph-name="Ocircumflex" unicode="&#xd4;" horiz-adv-x="666" d="M341 915 Q363 915 384 894 L497 791 Q515 771 485 771 L450 771 Q425 771 412 785 L333 856 L253 785 Q240 771 216 771 L183 771 Q155 771 171 791 L284 894 Q305 915 331 915 L341 915 Z M53 469 Q53 589 125 656 Q199 725 333 725 Q467 725 541 656 Q613 589 613 469 L613 241 Q613 121 541 54 Q467 -15 333 -15 Q199 -15 125 54 Q53 121 53 241 L53 469 Z M516 469 Q516 549 469 592 Q421 635 333 635 Q245 635 197 592 Q150 549 150 469 L150 241 Q150 161 197 118 Q245 75 333 75 Q421 75 469 118 Q516 161 516 241 L516 469 Z " />
<glyph glyph-name="Odieresis" unicode="&#xd6;" horiz-adv-x="666" d="M238 885 Q280 885 280 844 L280 835 Q280 794 238 794 L231 794 Q190 794 190 835 L190 844 Q190 885 231 885 L238 885 Z M435 885 Q477 885 477 844 L477 835 Q477 794 435 794 L429 794 Q386 794 386 835 L386 844 Q386 885 429 885 L435 885 Z M53 469 Q53 589 125 656 Q199 725 333 725 Q467 725 541 656 Q613 589 613 469 L613 241 Q613 121 541 54 Q467 -15 333 -15 Q199 -15 125 54 Q53 121 53 241 L53 469 Z M516 469 Q516 549 469 592 Q421 635 333 635 Q245 635 197 592 Q150 549 150 469 L150 241 Q150 161 197 118 Q245 75 333 75 Q421 75 469 118 Q516 161 516 241 L516 469 Z " />
<glyph glyph-name="Ograve" unicode="&#xd2;" horiz-adv-x="666" d="M244 905 Q260 924 288 907 L445 814 Q460 805 447 789 L435 774 Q428 764 405 772 L228 854 Q209 861 224 881 L244 905 Z M53 469 Q53 589 125 656 Q199 725 333 725 Q467 725 541 656 Q613 589 613 469 L613 241 Q613 121 541 54 Q467 -15 333 -15 Q199 -15 125 54 Q53 121 53 241 L53 469 Z M516 469 Q516 549 469 592 Q421 635 333 635 Q245 635 197 592 Q150 549 150 469 L150 241 Q150 161 197 118 Q245 75 333 75 Q421 75 469 118 Q516 161 516 241 L516 469 Z " />
<glyph glyph-name="Ohungarumlaut" unicode="&#x150;" horiz-adv-x="666" d="M272 902 Q287 925 312 918 L340 909 Q365 900 347 882 L241 782 Q225 767 213 772 L199 777 Q178 783 191 801 L272 902 Z M443 902 Q460 925 483 918 L513 909 Q540 899 521 882 L408 779 Q391 765 379 769 L365 774 Q343 779 357 798 L443 902 Z M53 469 Q53 589 125 656 Q199 725 333 725 Q467 725 541 656 Q613 589 613 469 L613 241 Q613 121 541 54 Q467 -15 333 -15 Q199 -15 125 54 Q53 121 53 241 L53 469 Z M516 469 Q516 549 469 592 Q421 635 333 635 Q245 635 197 592 Q150 549 150 469 L150 241 Q150 161 197 118 Q245 75 333 75 Q421 75 469 118 Q516 161 516 241 L516 469 Z " />
<glyph glyph-name="Omacron" unicode="&#x14c;" horiz-adv-x="666" d="M450 869 Q473 869 473 847 L473 827 Q473 804 450 804 L216 804 Q194 804 194 827 L194 847 Q194 869 216 869 L450 869 Z M53 469 Q53 589 125 656 Q199 725 333 725 Q467 725 541 656 Q613 589 613 469 L613 241 Q613 121 541 54 Q467 -15 333 -15 Q199 -15 125 54 Q53 121 53 241 L53 469 Z M516 469 Q516 549 469 592 Q421 635 333 635 Q245 635 197 592 Q150 549 150 469 L150 241 Q150 161 197 118 Q245 75 333 75 Q421 75 469 118 Q516 161 516 241 L516 469 Z " />
<glyph glyph-name="Oslash" unicode="&#xd8;" horiz-adv-x="666" d="M617 752 Q627 752 622 743 L556 640 Q613 574 613 469 L613 241 Q613 121 541 55 Q468 -14 333 -15 Q229 -15 164 26 L127 -33 Q121 -41 109 -41 L58 -41 Q48 -41 53 -31 L114 65 Q53 129 53 241 L53 469 Q53 589 125 656 Q199 725 333 725 Q439 725 507 680 L548 744 Q554 752 565 752 L617 752 Z M457 600 Q408 635 333 635 Q245 635 197 592 Q150 549 150 469 L150 241 Q150 190 175 159 L457 600 Z M215 106 Q262 75 333 75 Q421 75 469 118 Q516 161 516 241 L516 469 Q516 515 495 545 L215 106 Z " />
<glyph glyph-name="Oslashacute" unicode="&#x1fe;" horiz-adv-x="666" d="M383 910 Q413 927 428 909 L447 885 Q463 866 444 857 L268 774 Q246 765 238 775 L227 790 Q213 806 228 815 L383 910 Z M617 752 Q627 752 622 743 L556 640 Q613 574 613 469 L613 241 Q613 121 541 55 Q468 -14 333 -15 Q229 -15 164 26 L127 -33 Q121 -41 109 -41 L58 -41 Q48 -41 53 -31 L114 65 Q53 129 53 241 L53 469 Q53 589 125 656 Q199 725 333 725 Q439 725 507 680 L548 744 Q554 752 565 752 L617 752 Z M457 600 Q408 635 333 635 Q245 635 197 592 Q150 549 150 469 L150 241 Q150 190 175 159 L457 600 Z M215 106 Q262 75 333 75 Q421 75 469 118 Q516 161 516 241 L516 469 Q516 515 495 545 L215 106 Z " />
<glyph glyph-name="Otilde" unicode="&#xd5;" horiz-adv-x="666" d="M468 898 Q484 898 484 883 Q484 778 403 778 Q368 778 327 810 Q286 841 264 841 Q231 841 231 793 Q231 778 217 778 L191 778 Q176 778 176 793 Q176 898 256 898 Q294 898 335 867 Q376 835 397 835 Q429 835 429 883 Q429 898 443 898 L468 898 Z M53 469 Q53 589 125 656 Q199 725 333 725 Q467 725 541 656 Q613 589 613 469 L613 241 Q613 121 541 54 Q467 -15 333 -15 Q199 -15 125 54 Q53 121 53 241 L53 469 Z M516 469 Q516 549 469 592 Q421 635 333 635 Q245 635 197 592 Q150 549 150 469 L150 241 Q150 161 197 118 Q245 75 333 75 Q421 75 469 118 Q516 161 516 241 L516 469 Z " />
<glyph glyph-name="OE" unicode="&#x152;" horiz-adv-x="851" d="M789 90 Q816 90 816 64 L816 26 Q816 0 789 0 L445 0 Q396 -15 333 -15 Q199 -15 125 54 Q53 121 53 241 L53 469 Q53 589 125 656 Q199 725 333 725 Q397 725 445 710 L778 710 Q804 710 804 684 L804 646 Q804 620 778 620 L515 620 L515 404 L731 404 Q757 404 757 378 L757 341 Q757 314 731 314 L515 314 L515 90 L789 90 Z M150 241 Q150 161 197 118 Q245 75 333 75 Q386 75 418 88 L418 622 Q383 635 333 635 Q245 635 197 592 Q150 549 150 469 L150 241 Z " />
<glyph glyph-name="P" unicode="P" horiz-adv-x="627" d="M367 710 Q473 710 535 650 Q597 589 597 483 Q597 378 535 318 Q474 258 367 258 L171 258 L171 26 Q171 0 144 0 L100 0 Q74 0 74 26 L74 684 Q74 710 100 710 L367 710 Z M358 348 Q423 348 459 383 Q496 419 496 483 Q496 547 459 584 Q423 620 358 620 L171 620 L171 348 L358 348 Z " />
<glyph glyph-name="Thorn" unicode="&#xde;" horiz-adv-x="625" d="M357 596 Q467 596 532 533 Q597 469 597 359 Q597 250 532 187 Q467 124 357 124 L171 124 L171 26 Q171 0 144 0 L100 0 Q74 0 74 26 L74 684 Q74 710 100 710 L144 710 Q171 710 171 684 L171 596 L357 596 Z M348 214 Q416 214 456 254 Q496 293 496 359 Q496 425 456 466 Q416 506 348 506 L171 506 L171 214 L348 214 Z " />
<glyph glyph-name="Q" unicode="Q" horiz-adv-x="679" d="M623 -3 Q640 -24 620 -41 L591 -65 Q570 -82 554 -62 L485 19 Q425 -15 333 -15 Q199 -15 125 54 Q53 121 53 241 L53 469 Q53 589 125 656 Q199 725 333 725 Q467 725 541 656 Q613 589 613 469 L613 241 Q613 137 558 73 L623 -3 Z M150 241 Q150 161 197 118 Q245 75 333 75 Q421 75 469 118 Q516 161 516 241 L516 469 Q516 549 469 592 Q421 635 333 635 Q245 635 197 592 Q150 549 150 469 L150 241 Z " />
<glyph glyph-name="R" unicode="R" horiz-adv-x="647" d="M381 710 Q482 710 539 654 Q597 598 597 497 Q597 332 450 298 Q477 283 500 242 L611 27 Q625 0 597 0 L553 0 Q512 0 501 23 L410 206 Q388 251 361 268 Q333 285 278 285 L171 285 L171 26 Q171 0 144 0 L100 0 Q74 0 74 26 L74 684 Q74 710 100 710 L381 710 Z M496 497 Q496 620 372 620 L171 620 L171 375 L372 375 Q496 375 496 497 Z " />
<glyph glyph-name="Racute" unicode="&#x154;" horiz-adv-x="647" d="M367 900 Q396 916 411 899 L431 875 Q446 855 427 847 L252 764 Q230 755 222 765 L210 780 Q197 797 212 805 L367 900 Z M381 710 Q482 710 539 654 Q597 598 597 497 Q597 332 450 298 Q477 283 500 242 L611 27 Q625 0 597 0 L553 0 Q512 0 501 23 L410 206 Q388 251 361 268 Q333 285 278 285 L171 285 L171 26 Q171 0 144 0 L100 0 Q74 0 74 26 L74 684 Q74 710 100 710 L381 710 Z M496 497 Q496 620 372 620 L171 620 L171 375 L372 375 Q496 375 496 497 Z " />
<glyph glyph-name="Rcaron" unicode="&#x158;" horiz-adv-x="647" d="M470 904 Q499 904 481 884 L368 781 Q347 760 325 760 L315 760 Q289 760 268 781 L156 884 Q136 904 167 904 L200 904 Q224 904 237 890 L318 819 L396 890 Q409 904 434 904 L470 904 Z M381 710 Q482 710 539 654 Q597 598 597 497 Q597 332 450 298 Q477 283 500 242 L611 27 Q625 0 597 0 L553 0 Q512 0 501 23 L410 206 Q388 251 361 268 Q333 285 278 285 L171 285 L171 26 Q171 0 144 0 L100 0 Q74 0 74 26 L74 684 Q74 710 100 710 L381 710 Z M496 497 Q496 620 372 620 L171 620 L171 375 L372 375 Q496 375 496 497 Z " />
<glyph glyph-name="uni0156" unicode="&#x156;" horiz-adv-x="647" d="M381 710 Q482 710 539 654 Q597 598 597 497 Q597 332 450 298 Q477 283 500 242 L611 27 Q625 0 597 0 L553 0 Q512 0 501 23 L410 206 Q388 251 361 268 Q333 285 278 285 L171 285 L171 26 Q171 0 144 0 L100 0 Q74 0 74 26 L74 684 Q74 710 100 710 L381 710 Z M496 497 Q496 620 372 620 L171 620 L171 375 L372 375 Q496 375 496 497 Z M342 -230 Q334 -253 314 -253 L285 -253 Q267 -253 270 -235 L297 -92 Q300 -67 326 -67 L366 -67 Q397 -67 388 -92 L342 -230 Z " />
<glyph glyph-name="S" unicode="S" horiz-adv-x="629" d="M47 513 Q47 609 115 666 Q186 725 313 725 Q502 725 575 572 Q587 548 561 537 L519 518 Q497 508 485 531 Q433 632 313 632 Q146 632 146 519 Q146 459 205 432 Q244 414 338 404 Q455 390 508 359 Q589 310 589 202 Q589 101 518 44 Q445 -15 312 -15 Q106 -15 39 156 Q30 180 56 190 L97 205 Q121 213 131 189 Q180 76 312 76 Q492 76 492 200 Q492 258 438 284 Q402 302 315 312 Q189 325 135 354 Q47 401 47 513 Z " />
<glyph glyph-name="Sacute" unicode="&#x15a;" horiz-adv-x="629" d="M363 910 Q393 927 407 908 L427 884 Q443 865 424 857 L248 773 Q226 764 218 775 L206 789 Q193 806 208 815 L363 910 Z M47 513 Q47 609 115 666 Q186 725 313 725 Q502 725 575 572 Q587 548 561 537 L519 518 Q497 508 485 531 Q433 632 313 632 Q146 632 146 519 Q146 459 205 432 Q244 414 338 404 Q455 390 508 359 Q589 310 589 202 Q589 101 518 44 Q445 -15 312 -15 Q106 -15 39 156 Q30 180 56 190 L97 205 Q121 213 131 189 Q180 76 312 76 Q492 76 492 200 Q492 258 438 284 Q402 302 315 312 Q189 325 135 354 Q47 401 47 513 Z " />
<glyph glyph-name="Scaron" unicode="&#x160;" horiz-adv-x="629" d="M466 914 Q497 914 477 894 L365 791 Q345 770 321 770 L311 770 Q285 770 265 791 L152 894 Q144 901 146 907 Q149 914 163 914 L196 914 Q220 914 233 900 L314 829 L392 900 Q405 914 431 914 L466 914 Z M47 513 Q47 609 115 666 Q186 725 313 725 Q502 725 575 572 Q587 548 561 537 L519 518 Q497 508 485 531 Q433 632 313 632 Q146 632 146 519 Q146 459 205 432 Q244 414 338 404 Q455 390 508 359 Q589 310 589 202 Q589 101 518 44 Q445 -15 312 -15 Q106 -15 39 156 Q30 180 56 190 L97 205 Q121 213 131 189 Q180 76 312 76 Q492 76 492 200 Q492 258 438 284 Q402 302 315 312 Q189 325 135 354 Q47 401 47 513 Z " />
<glyph glyph-name="Scedilla" unicode="&#x15e;" horiz-adv-x="629" d="M336 404 Q453 390 507 359 Q588 310 588 202 Q588 109 527 53 Q465 -4 349 -13 L329 -67 Q335 -66 349 -66 Q389 -66 412 -90 Q436 -114 433 -151 Q426 -247 307 -247 Q262 -247 231 -230 Q217 -224 217 -207 L216 -183 Q216 -166 229 -173 Q260 -193 296 -193 Q356 -193 356 -146 Q356 -111 304 -110 Q287 -110 275 -113 Q254 -114 263 -93 L294 -15 Q101 -9 38 156 Q29 181 54 190 L95 205 Q119 213 129 189 Q178 76 310 76 Q491 76 491 200 Q491 258 437 284 Q401 302 313 312 Q187 325 133 354 Q45 401 45 513 Q45 609 114 666 Q185 725 311 725 Q499 725 574 572 Q585 548 559 537 L517 518 Q496 508 483 531 Q433 632 311 632 Q144 632 144 519 Q144 459 203 432 Q242 414 336 404 Z " />
<glyph glyph-name="Scircumflex" unicode="&#x15c;" horiz-adv-x="629" d="M324 914 Q347 914 367 893 L480 790 Q499 771 468 771 L433 771 Q407 771 395 784 L316 855 L236 784 Q223 771 199 771 L166 771 Q137 771 154 790 L267 893 Q288 914 314 914 L324 914 Z M47 513 Q47 609 115 666 Q186 725 313 725 Q502 725 575 572 Q587 548 561 537 L519 518 Q497 508 485 531 Q433 632 313 632 Q146 632 146 519 Q146 459 205 432 Q244 414 338 404 Q455 390 508 359 Q589 310 589 202 Q589 101 518 44 Q445 -15 312 -15 Q106 -15 39 156 Q30 180 56 190 L97 205 Q121 213 131 189 Q180 76 312 76 Q492 76 492 200 Q492 258 438 284 Q402 302 315 312 Q189 325 135 354 Q47 401 47 513 Z " />
<glyph glyph-name="uni0218" unicode="&#x218;" horiz-adv-x="629" d="M47 513 Q47 609 115 666 Q186 725 313 725 Q502 725 575 572 Q587 548 561 537 L519 518 Q497 508 485 531 Q433 632 313 632 Q146 632 146 519 Q146 459 205 432 Q244 414 338 404 Q455 390 508 359 Q589 310 589 202 Q589 101 518 44 Q445 -15 312 -15 Q106 -15 39 156 Q30 180 56 190 L97 205 Q121 213 131 189 Q180 76 312 76 Q492 76 492 200 Q492 258 438 284 Q402 302 315 312 Q189 325 135 354 Q47 401 47 513 Z M328 -234 Q320 -256 300 -256 L271 -256 Q253 -256 256 -239 L283 -96 Q285 -71 312 -71 L352 -71 Q382 -71 375 -96 L328 -234 Z " />
<glyph glyph-name="T" unicode="T" horiz-adv-x="554" d="M514 710 Q540 710 540 684 L540 646 Q540 620 514 620 L325 620 L325 26 Q325 0 299 0 L255 0 Q229 0 229 26 L229 620 L40 620 Q14 620 14 646 L14 684 Q14 710 40 710 L514 710 Z " />
<glyph glyph-name="Tbar" unicode="&#x166;" horiz-adv-x="573" d="M524 710 Q550 710 550 684 L550 646 Q550 620 524 620 L335 620 L335 363 L466 363 Q482 363 482 346 L482 311 Q482 293 466 293 L335 293 L335 26 Q335 0 309 0 L265 0 Q238 0 238 26 L238 293 L108 293 Q92 293 92 311 L92 346 Q92 363 108 363 L238 363 L238 620 L50 620 Q24 620 24 646 L24 684 Q24 710 50 710 L524 710 Z " />
<glyph glyph-name="Tcaron" unicode="&#x164;" horiz-adv-x="554" d="M427 904 Q458 904 438 884 L326 781 Q305 760 282 760 L272 760 Q246 760 226 781 L113 884 Q93 904 124 904 L157 904 Q181 904 194 890 L275 819 L353 890 Q366 904 392 904 L427 904 Z M514 710 Q540 710 540 684 L540 646 Q540 620 514 620 L325 620 L325 26 Q325 0 299 0 L255 0 Q229 0 229 26 L229 620 L40 620 Q14 620 14 646 L14 684 Q14 710 40 710 L514 710 Z " />
<glyph glyph-name="uni021A" unicode="&#x21a;" horiz-adv-x="554" d="M514 710 Q540 710 540 684 L540 646 Q540 620 514 620 L325 620 L325 26 Q325 0 299 0 L255 0 Q229 0 229 26 L229 620 L40 620 Q14 620 14 646 L14 684 Q14 710 40 710 L514 710 Z M280 -230 Q273 -253 252 -253 L224 -253 Q205 -253 208 -235 L235 -92 Q238 -67 264 -67 L304 -67 Q336 -67 327 -92 L280 -230 Z " />
<glyph glyph-name="U" unicode="U" horiz-adv-x="685" d="M165 242 Q165 75 342 75 Q519 75 519 242 L519 684 Q519 710 546 710 L590 710 Q616 710 616 684 L616 243 Q616 123 547 55 Q476 -15 342 -15 Q209 -15 138 55 Q69 123 69 243 L69 684 Q69 710 95 710 L139 710 Q165 710 165 684 L165 242 Z " />
<glyph glyph-name="Uacute" unicode="&#xda;" horiz-adv-x="685" d="M389 900 Q419 917 433 899 L453 875 Q469 856 450 847 L274 764 Q252 755 244 765 L232 780 Q219 796 234 805 L389 900 Z M165 242 Q165 75 342 75 Q519 75 519 242 L519 684 Q519 710 546 710 L590 710 Q616 710 616 684 L616 243 Q616 123 547 55 Q476 -15 342 -15 Q209 -15 138 55 Q69 123 69 243 L69 684 Q69 710 95 710 L139 710 Q165 710 165 684 L165 242 Z " />
<glyph glyph-name="Ubreve" unicode="&#x16c;" horiz-adv-x="685" d="M496 867 Q462 762 342 762 Q224 762 190 867 Q185 883 201 890 L232 902 Q249 907 256 893 Q276 827 342 827 Q410 827 429 893 Q435 907 450 902 L485 890 Q501 882 496 867 Z M165 242 Q165 75 342 75 Q519 75 519 242 L519 684 Q519 710 546 710 L590 710 Q616 710 616 684 L616 243 Q616 123 547 55 Q476 -15 342 -15 Q209 -15 138 55 Q69 123 69 243 L69 684 Q69 710 95 710 L139 710 Q165 710 165 684 L165 242 Z " />
<glyph glyph-name="Ucircumflex" unicode="&#xdb;" horiz-adv-x="685" d="M350 905 Q372 905 393 884 L506 781 Q524 761 494 761 L459 761 Q434 761 421 775 L342 846 L262 775 Q249 761 225 761 L192 761 Q164 761 180 781 L293 884 Q314 905 340 905 L350 905 Z M165 242 Q165 75 342 75 Q519 75 519 242 L519 684 Q519 710 546 710 L590 710 Q616 710 616 684 L616 243 Q616 123 547 55 Q476 -15 342 -15 Q209 -15 138 55 Q69 123 69 243 L69 684 Q69 710 95 710 L139 710 Q165 710 165 684 L165 242 Z " />
<glyph glyph-name="Udieresis" unicode="&#xdc;" horiz-adv-x="685" d="M247 875 Q289 875 289 834 L289 825 Q289 784 247 784 L240 784 Q199 784 199 825 L199 834 Q199 875 240 875 L247 875 Z M444 875 Q486 875 486 834 L486 825 Q486 784 444 784 L438 784 Q395 784 395 825 L395 834 Q395 875 438 875 L444 875 Z M165 242 Q165 75 342 75 Q519 75 519 242 L519 684 Q519 710 546 710 L590 710 Q616 710 616 684 L616 243 Q616 123 547 55 Q476 -15 342 -15 Q209 -15 138 55 Q69 123 69 243 L69 684 Q69 710 95 710 L139 710 Q165 710 165 684 L165 242 Z " />
<glyph glyph-name="Ugrave" unicode="&#xd9;" horiz-adv-x="685" d="M253 895 Q269 914 297 897 L454 804 Q469 795 456 779 L444 764 Q437 754 414 762 L237 844 Q218 851 233 871 L253 895 Z M165 242 Q165 75 342 75 Q519 75 519 242 L519 684 Q519 710 546 710 L590 710 Q616 710 616 684 L616 243 Q616 123 547 55 Q476 -15 342 -15 Q209 -15 138 55 Q69 123 69 243 L69 684 Q69 710 95 710 L139 710 Q165 710 165 684 L165 242 Z " />
<glyph glyph-name="Uhungarumlaut" unicode="&#x170;" horiz-adv-x="685" d="M281 892 Q296 915 321 908 L349 899 Q374 890 356 872 L250 772 Q234 757 222 762 L208 767 Q187 773 200 791 L281 892 Z M452 892 Q469 915 492 908 L522 899 Q549 889 530 872 L417 769 Q400 755 388 759 L374 764 Q352 769 366 788 L452 892 Z M165 242 Q165 75 342 75 Q519 75 519 242 L519 684 Q519 710 546 710 L590 710 Q616 710 616 684 L616 243 Q616 123 547 55 Q476 -15 342 -15 Q209 -15 138 55 Q69 123 69 243 L69 684 Q69 710 95 710 L139 710 Q165 710 165 684 L165 242 Z " />
<glyph glyph-name="Umacron" unicode="&#x16a;" horiz-adv-x="685" d="M459 859 Q482 859 482 837 L482 817 Q482 794 459 794 L225 794 Q203 794 203 817 L203 837 Q203 859 225 859 L459 859 Z M165 242 Q165 75 342 75 Q519 75 519 242 L519 684 Q519 710 546 710 L590 710 Q616 710 616 684 L616 243 Q616 123 547 55 Q476 -15 342 -15 Q209 -15 138 55 Q69 123 69 243 L69 684 Q69 710 95 710 L139 710 Q165 710 165 684 L165 242 Z " />
<glyph glyph-name="Uogonek" unicode="&#x172;" horiz-adv-x="685" d="M590 710 Q616 710 616 684 L616 243 Q616 108 530 40 Q465 -19 432 -77 Q402 -129 409 -155 Q418 -179 443 -179 Q466 -179 483 -163 Q493 -155 498 -167 L508 -193 Q513 -204 507 -210 Q470 -246 415 -246 Q345 -246 332 -191 Q314 -114 418 -6 Q385 -15 342 -15 Q209 -15 138 55 Q69 123 69 243 L69 684 Q69 710 95 710 L139 710 Q165 710 165 684 L165 242 Q165 75 342 75 Q519 75 519 242 L519 684 Q519 710 546 710 L590 710 Z " />
<glyph glyph-name="Uring" unicode="&#x16e;" horiz-adv-x="685" d="M241 844 Q241 890 270 918 Q300 946 347 946 Q393 946 421 918 Q449 890 449 844 Q449 799 421 771 Q393 743 347 743 Q300 743 270 771 Q241 799 241 844 Z M403 844 Q403 901 347 901 Q287 901 287 844 Q287 788 347 788 Q403 788 403 844 Z M165 242 Q165 75 342 75 Q519 75 519 242 L519 684 Q519 710 546 710 L590 710 Q616 710 616 684 L616 243 Q616 123 547 55 Q476 -15 342 -15 Q209 -15 138 55 Q69 123 69 243 L69 684 Q69 710 95 710 L139 710 Q165 710 165 684 L165 242 Z " />
<glyph glyph-name="Utilde" unicode="&#x168;" horiz-adv-x="685" d="M477 888 Q493 888 493 873 Q493 768 412 768 Q377 768 336 800 Q295 831 273 831 Q240 831 240 783 Q240 768 226 768 L200 768 Q185 768 185 783 Q185 888 265 888 Q303 888 344 857 Q385 825 406 825 Q438 825 438 873 Q438 888 452 888 L477 888 Z M165 242 Q165 75 342 75 Q519 75 519 242 L519 684 Q519 710 546 710 L590 710 Q616 710 616 684 L616 243 Q616 123 547 55 Q476 -15 342 -15 Q209 -15 138 55 Q69 123 69 243 L69 684 Q69 710 95 710 L139 710 Q165 710 165 684 L165 242 Z " />
<glyph glyph-name="V" unicode="V" horiz-adv-x="630" d="M600 710 Q628 710 617 684 L367 22 Q360 0 335 0 L294 0 Q268 0 261 21 L11 684 Q2 710 29 710 L68 710 Q107 710 115 687 L289 207 Q296 185 305 149 Q313 117 314 115 L318 115 Q319 117 326 148 Q335 183 343 206 L515 687 Q523 710 563 710 L600 710 Z " />
<glyph glyph-name="W" unicode="W" horiz-adv-x="890" d="M848 710 Q872 710 866 684 L693 22 Q688 0 660 0 L618 0 Q590 0 585 21 L465 466 Q452 516 447 570 L441 570 Q437 518 422 466 L301 22 Q295 0 268 0 L226 0 Q198 0 193 21 L21 684 Q14 710 38 710 L91 710 Q121 710 126 687 L230 254 Q239 209 247 134 L252 134 Q264 221 273 253 L391 679 Q398 702 426 702 L468 702 Q497 702 503 679 L620 253 Q635 195 641 134 L646 134 Q654 210 664 252 L767 687 Q772 710 802 710 L848 710 Z " />
<glyph glyph-name="Wacute" unicode="&#x1e82;" horiz-adv-x="890" d="M495 900 Q523 917 539 899 L559 875 Q574 855 555 847 L380 764 Q357 755 349 765 L338 780 Q325 797 340 805 L495 900 Z M848 710 Q872 710 866 684 L693 22 Q688 0 660 0 L618 0 Q590 0 585 21 L465 466 Q452 516 447 570 L441 570 Q437 518 422 466 L301 22 Q295 0 268 0 L226 0 Q198 0 193 21 L21 684 Q14 710 38 710 L91 710 Q121 710 126 687 L230 254 Q239 209 247 134 L252 134 Q264 221 273 253 L391 679 Q398 702 426 702 L468 702 Q497 702 503 679 L620 253 Q635 195 641 134 L646 134 Q654 210 664 252 L767 687 Q772 710 802 710 L848 710 Z " />
<glyph glyph-name="Wcircumflex" unicode="&#x174;" horiz-adv-x="890" d="M455 905 Q478 905 499 884 L612 781 Q628 761 600 761 L565 761 Q539 761 526 775 L448 846 L367 775 Q354 761 330 761 L297 761 Q269 761 285 781 L399 884 Q419 905 445 905 L455 905 Z M848 710 Q872 710 866 684 L693 22 Q688 0 660 0 L618 0 Q590 0 585 21 L465 466 Q452 516 447 570 L441 570 Q437 518 422 466 L301 22 Q295 0 268 0 L226 0 Q198 0 193 21 L21 684 Q14 710 38 710 L91 710 Q121 710 126 687 L230 254 Q239 209 247 134 L252 134 Q264 221 273 253 L391 679 Q398 702 426 702 L468 702 Q497 702 503 679 L620 253 Q635 195 641 134 L646 134 Q654 210 664 252 L767 687 Q772 710 802 710 L848 710 Z " />
<glyph glyph-name="Wdieresis" unicode="&#x1e84;" horiz-adv-x="890" d="M352 875 Q394 875 394 834 L394 825 Q394 802 385 793 Q377 784 352 784 L346 784 Q322 784 314 793 Q305 802 305 825 L305 834 Q305 875 346 875 L352 875 Z M549 875 Q591 875 591 834 L591 825 Q591 784 549 784 L543 784 Q501 784 501 825 L501 834 Q501 875 543 875 L549 875 Z M848 710 Q872 710 866 684 L693 22 Q688 0 660 0 L618 0 Q590 0 585 21 L465 466 Q452 516 447 570 L441 570 Q437 518 422 466 L301 22 Q295 0 268 0 L226 0 Q198 0 193 21 L21 684 Q14 710 38 710 L91 710 Q121 710 126 687 L230 254 Q239 209 247 134 L252 134 Q264 221 273 253 L391 679 Q398 702 426 702 L468 702 Q497 702 503 679 L620 253 Q635 195 641 134 L646 134 Q654 210 664 252 L767 687 Q772 710 802 710 L848 710 Z " />
<glyph glyph-name="Wgrave" unicode="&#x1e80;" horiz-adv-x="890" d="M359 895 Q373 914 403 897 L559 804 Q576 795 561 779 L550 764 Q542 754 519 762 L342 844 Q323 852 339 871 L359 895 Z M848 710 Q872 710 866 684 L693 22 Q688 0 660 0 L618 0 Q590 0 585 21 L465 466 Q452 516 447 570 L441 570 Q437 518 422 466 L301 22 Q295 0 268 0 L226 0 Q198 0 193 21 L21 684 Q14 710 38 710 L91 710 Q121 710 126 687 L230 254 Q239 209 247 134 L252 134 Q264 221 273 253 L391 679 Q398 702 426 702 L468 702 Q497 702 503 679 L620 253 Q635 195 641 134 L646 134 Q654 210 664 252 L767 687 Q772 710 802 710 L848 710 Z " />
<glyph glyph-name="X" unicode="X" horiz-adv-x="627" d="M609 27 Q618 17 614 9 Q611 0 596 0 L542 0 Q506 0 491 23 L309 287 L132 23 Q117 0 81 0 L31 0 Q17 0 13 8 Q10 16 18 27 L252 361 L26 685 Q18 694 22 702 Q26 710 39 710 L91 710 Q126 710 142 688 L314 438 L486 688 Q502 710 534 710 L588 710 Q601 710 605 702 Q608 694 601 685 L374 362 L609 27 Z " />
<glyph glyph-name="Y" unicode="Y" horiz-adv-x="634" d="M605 710 Q634 710 619 684 L365 284 L365 26 Q365 0 339 0 L295 0 Q269 0 269 26 L269 286 L15 684 Q0 710 29 710 L83 710 Q121 710 134 687 L318 384 L504 687 Q517 710 555 710 L605 710 Z " />
<glyph glyph-name="Yacute" unicode="&#xdd;" horiz-adv-x="634" d="M366 900 Q395 916 410 899 L430 875 Q446 856 427 847 L251 764 Q229 755 221 765 L209 780 Q196 796 211 805 L366 900 Z M605 710 Q634 710 619 684 L365 284 L365 26 Q365 0 339 0 L295 0 Q269 0 269 26 L269 286 L15 684 Q0 710 29 710 L83 710 Q121 710 134 687 L318 384 L504 687 Q517 710 555 710 L605 710 Z " />
<glyph glyph-name="Ycircumflex" unicode="&#x176;" horiz-adv-x="634" d="M326 905 Q349 905 370 884 L483 781 Q499 761 471 761 L436 761 Q411 761 397 775 L319 846 L239 775 Q225 761 202 761 L169 761 Q139 761 157 781 L270 884 Q291 905 317 905 L326 905 Z M605 710 Q634 710 619 684 L365 284 L365 26 Q365 0 339 0 L295 0 Q269 0 269 26 L269 286 L15 684 Q0 710 29 710 L83 710 Q121 710 134 687 L318 384 L504 687 Q517 710 555 710 L605 710 Z " />
<glyph glyph-name="Ydieresis" unicode="&#x178;" horiz-adv-x="634" d="M224 875 Q266 875 266 834 L266 825 Q266 784 224 784 L217 784 Q176 784 176 825 L176 834 Q176 875 217 875 L224 875 Z M421 875 Q462 875 462 834 L462 825 Q462 784 421 784 L415 784 Q372 784 372 825 L372 834 Q372 875 415 875 L421 875 Z M605 710 Q634 710 619 684 L365 284 L365 26 Q365 0 339 0 L295 0 Q269 0 269 26 L269 286 L15 684 Q0 710 29 710 L83 710 Q121 710 134 687 L318 384 L504 687 Q517 710 555 710 L605 710 Z " />
<glyph glyph-name="Ygrave" unicode="&#x1ef2;" horiz-adv-x="634" d="M230 895 Q246 914 274 897 L431 804 Q446 795 433 779 L421 764 Q414 754 391 762 L214 844 Q195 851 210 871 L230 895 Z M605 710 Q634 710 619 684 L365 284 L365 26 Q365 0 339 0 L295 0 Q269 0 269 26 L269 286 L15 684 Q0 710 29 710 L83 710 Q121 710 134 687 L318 384 L504 687 Q517 710 555 710 L605 710 Z " />
<glyph glyph-name="Z" unicode="Z" horiz-adv-x="576" d="M510 710 Q536 710 536 684 L536 647 Q536 629 527 619 L154 90 L518 90 Q544 90 544 64 L544 26 Q544 0 518 0 L60 0 Q33 0 33 26 L33 63 Q33 79 43 92 L415 620 L64 620 Q38 620 38 646 L38 684 Q38 710 64 710 L510 710 Z " />
<glyph glyph-name="Zacute" unicode="&#x179;" horiz-adv-x="576" d="M340 900 Q369 916 384 899 L404 875 Q420 856 401 847 L225 764 Q203 755 195 765 L183 780 Q170 796 185 805 L340 900 Z M510 710 Q536 710 536 684 L536 647 Q536 629 527 619 L154 90 L518 90 Q544 90 544 64 L544 26 Q544 0 518 0 L60 0 Q33 0 33 26 L33 63 Q33 79 43 92 L415 620 L64 620 Q38 620 38 646 L38 684 Q38 710 64 710 L510 710 Z " />
<glyph glyph-name="Zcaron" unicode="&#x17d;" horiz-adv-x="576" d="M443 904 Q474 904 454 884 L342 781 Q320 760 298 760 L288 760 Q262 760 242 781 L129 884 Q109 904 140 904 L173 904 Q197 904 210 890 L291 819 L369 890 Q382 904 408 904 L443 904 Z M510 710 Q536 710 536 684 L536 647 Q536 629 527 619 L154 90 L518 90 Q544 90 544 64 L544 26 Q544 0 518 0 L60 0 Q33 0 33 26 L33 63 Q33 79 43 92 L415 620 L64 620 Q38 620 38 646 L38 684 Q38 710 64 710 L510 710 Z " />
<glyph glyph-name="Zdotaccent" unicode="&#x17b;" horiz-adv-x="576" d="M296 874 Q321 874 330 865 Q339 856 339 831 L339 824 Q339 799 330 790 Q321 781 296 781 L291 781 Q266 781 257 790 Q248 799 248 824 L248 831 Q248 856 257 865 Q266 874 291 874 L296 874 Z M510 710 Q536 710 536 684 L536 647 Q536 629 527 619 L154 90 L518 90 Q544 90 544 64 L544 26 Q544 0 518 0 L60 0 Q33 0 33 26 L33 63 Q33 79 43 92 L415 620 L64 620 Q38 620 38 646 L38 684 Q38 710 64 710 L510 710 Z " />
<glyph glyph-name="a" unicode="a" horiz-adv-x="516" d="M52 426 Q106 531 255 531 Q462 531 462 329 L462 68 Q462 26 426 11 Q366 -15 254 -15 Q129 -15 79 26 Q35 62 35 144 Q35 231 87 266 Q137 301 258 301 Q313 301 372 294 L372 332 Q372 451 253 451 Q166 451 129 390 Q116 370 96 378 L65 392 Q40 402 52 426 Z M372 220 Q292 228 248 228 Q179 228 151 207 Q125 188 125 144 Q125 101 148 83 Q176 60 246 60 Q323 60 357 72 Q372 78 372 94 L372 220 Z " />
<glyph glyph-name="aacute" unicode="&#xe1;" horiz-adv-x="516" d="M301 724 Q330 739 345 722 L365 698 Q380 678 361 671 L186 587 Q164 578 156 588 L144 603 Q130 621 146 629 L301 724 Z M52 426 Q106 531 255 531 Q462 531 462 329 L462 68 Q462 26 426 11 Q366 -15 254 -15 Q129 -15 79 26 Q35 62 35 144 Q35 231 87 266 Q137 301 258 301 Q313 301 372 294 L372 332 Q372 451 253 451 Q166 451 129 390 Q116 370 96 378 L65 392 Q40 402 52 426 Z M372 220 Q292 228 248 228 Q179 228 151 207 Q125 188 125 144 Q125 101 148 83 Q176 60 246 60 Q323 60 357 72 Q372 78 372 94 L372 220 Z " />
<glyph glyph-name="abreve" unicode="&#x103;" horiz-adv-x="516" d="M408 689 Q373 584 254 584 Q134 584 102 689 Q97 706 112 712 L143 724 Q162 729 168 715 Q186 649 254 649 Q322 649 341 715 Q347 729 361 724 L397 712 Q413 704 408 689 Z M52 426 Q106 531 255 531 Q462 531 462 329 L462 68 Q462 26 426 11 Q366 -15 254 -15 Q129 -15 79 26 Q35 62 35 144 Q35 231 87 266 Q137 301 258 301 Q313 301 372 294 L372 332 Q372 451 253 451 Q166 451 129 390 Q116 370 96 378 L65 392 Q40 402 52 426 Z M372 220 Q292 228 248 228 Q179 228 151 207 Q125 188 125 144 Q125 101 148 83 Q176 60 246 60 Q323 60 357 72 Q372 78 372 94 L372 220 Z " />
<glyph glyph-name="acircumflex" unicode="&#xe2;" horiz-adv-x="516" d="M261 725 Q284 725 305 704 L418 601 Q436 581 406 581 L371 581 Q345 581 332 595 L254 666 L173 595 Q160 581 136 581 L103 581 Q72 581 92 601 L205 704 Q225 725 251 725 L261 725 Z M52 426 Q106 531 255 531 Q462 531 462 329 L462 68 Q462 26 426 11 Q366 -15 254 -15 Q129 -15 79 26 Q35 62 35 144 Q35 231 87 266 Q137 301 258 301 Q313 301 372 294 L372 332 Q372 451 253 451 Q166 451 129 390 Q116 370 96 378 L65 392 Q40 402 52 426 Z M372 220 Q292 228 248 228 Q179 228 151 207 Q125 188 125 144 Q125 101 148 83 Q176 60 246 60 Q323 60 357 72 Q372 78 372 94 L372 220 Z " />
<glyph glyph-name="adieresis" unicode="&#xe4;" horiz-adv-x="516" d="M159 697 Q201 697 201 656 L201 647 Q201 606 159 606 L152 606 Q111 606 111 647 L111 656 Q111 697 152 697 L159 697 Z M356 697 Q397 697 397 656 L397 647 Q397 606 356 606 L349 606 Q307 606 307 647 L307 656 Q307 697 349 697 L356 697 Z M52 426 Q106 531 255 531 Q462 531 462 329 L462 68 Q462 26 426 11 Q366 -15 254 -15 Q129 -15 79 26 Q35 62 35 144 Q35 231 87 266 Q137 301 258 301 Q313 301 372 294 L372 332 Q372 451 253 451 Q166 451 129 390 Q116 370 96 378 L65 392 Q40 402 52 426 Z M372 220 Q292 228 248 228 Q179 228 151 207 Q125 188 125 144 Q125 101 148 83 Q176 60 246 60 Q323 60 357 72 Q372 78 372 94 L372 220 Z " />
<glyph glyph-name="agrave" unicode="&#xe0;" horiz-adv-x="516" d="M166 722 Q180 739 210 724 L365 629 Q380 620 366 603 L355 588 Q347 578 325 587 L149 671 Q130 679 146 698 L166 722 Z M52 426 Q106 531 255 531 Q462 531 462 329 L462 68 Q462 26 426 11 Q366 -15 254 -15 Q129 -15 79 26 Q35 62 35 144 Q35 231 87 266 Q137 301 258 301 Q313 301 372 294 L372 332 Q372 451 253 451 Q166 451 129 390 Q116 370 96 378 L65 392 Q40 402 52 426 Z M372 220 Q292 228 248 228 Q179 228 151 207 Q125 188 125 144 Q125 101 148 83 Q176 60 246 60 Q323 60 357 72 Q372 78 372 94 L372 220 Z " />
<glyph glyph-name="amacron" unicode="&#x101;" horiz-adv-x="516" d="M371 682 Q393 682 393 659 L393 639 Q393 617 371 617 L137 617 Q114 617 114 639 L114 659 Q114 682 137 682 L371 682 Z M52 426 Q106 531 255 531 Q462 531 462 329 L462 68 Q462 26 426 11 Q366 -15 254 -15 Q129 -15 79 26 Q35 62 35 144 Q35 231 87 266 Q137 301 258 301 Q313 301 372 294 L372 332 Q372 451 253 451 Q166 451 129 390 Q116 370 96 378 L65 392 Q40 402 52 426 Z M372 220 Q292 228 248 228 Q179 228 151 207 Q125 188 125 144 Q125 101 148 83 Q176 60 246 60 Q323 60 357 72 Q372 78 372 94 L372 220 Z " />
<glyph glyph-name="aogonek" unicode="&#x105;" horiz-adv-x="518" d="M52 426 Q106 531 255 531 Q462 531 462 329 L462 68 Q462 40 450 26 Q343 -91 364 -155 Q372 -179 397 -179 Q421 -179 437 -163 Q449 -155 452 -167 L463 -193 Q467 -205 462 -210 Q425 -246 370 -246 Q299 -246 287 -191 Q266 -104 366 -4 Q317 -15 254 -15 Q129 -15 79 26 Q35 62 35 144 Q35 231 87 266 Q137 301 258 301 Q313 301 372 294 L372 332 Q372 451 253 451 Q166 451 129 390 Q116 370 96 378 L65 392 Q40 402 52 426 Z M372 220 Q292 228 248 228 Q179 228 151 207 Q125 188 125 144 Q125 101 148 83 Q176 60 246 60 Q323 60 357 72 Q372 78 372 94 L372 220 Z " />
<glyph glyph-name="aring" unicode="&#xe5;" horiz-adv-x="516" d="M152 680 Q152 726 181 754 Q211 783 258 783 Q304 783 332 754 Q361 726 361 680 Q361 635 332 607 Q304 579 258 579 Q211 579 181 607 Q152 635 152 680 Z M315 680 Q315 737 258 737 Q198 737 198 680 Q198 624 258 624 Q315 624 315 680 Z M52 426 Q106 531 255 531 Q462 531 462 329 L462 68 Q462 26 426 11 Q366 -15 254 -15 Q129 -15 79 26 Q35 62 35 144 Q35 231 87 266 Q137 301 258 301 Q313 301 372 294 L372 332 Q372 451 253 451 Q166 451 129 390 Q116 370 96 378 L65 392 Q40 402 52 426 Z M372 220 Q292 228 248 228 Q179 228 151 207 Q125 188 125 144 Q125 101 148 83 Q176 60 246 60 Q323 60 357 72 Q372 78 372 94 L372 220 Z " />
<glyph glyph-name="aringacute" unicode="&#x1fb;" horiz-adv-x="516" d="M300 895 Q327 907 341 893 L359 876 Q374 861 356 855 L192 793 Q171 787 164 794 L153 805 Q140 818 154 824 L300 895 Z M152 671 Q152 717 181 745 Q211 773 258 773 Q304 773 332 745 Q361 717 361 671 Q361 626 332 598 Q304 570 258 570 Q211 570 181 598 Q152 626 152 671 Z M315 671 Q315 728 258 728 Q198 728 198 671 Q198 615 258 615 Q315 615 315 671 Z M52 426 Q106 531 255 531 Q462 531 462 329 L462 68 Q462 26 426 11 Q366 -15 254 -15 Q129 -15 79 26 Q35 62 35 144 Q35 231 87 266 Q137 301 258 301 Q313 301 372 294 L372 332 Q372 451 253 451 Q166 451 129 390 Q116 370 96 378 L65 392 Q40 402 52 426 Z M372 220 Q292 228 248 228 Q179 228 151 207 Q125 188 125 144 Q125 101 148 83 Q176 60 246 60 Q323 60 357 72 Q372 78 372 94 L372 220 Z " />
<glyph glyph-name="atilde" unicode="&#xe3;" horiz-adv-x="516" d="M389 714 Q404 714 404 699 Q404 594 323 594 Q288 594 247 625 Q207 656 185 656 Q152 656 152 609 Q152 594 137 594 L112 594 Q96 594 96 609 Q96 714 177 714 Q215 714 255 683 Q296 651 317 651 Q349 651 349 699 Q349 714 364 714 L389 714 Z M52 426 Q106 531 255 531 Q462 531 462 329 L462 68 Q462 26 426 11 Q366 -15 254 -15 Q129 -15 79 26 Q35 62 35 144 Q35 231 87 266 Q137 301 258 301 Q313 301 372 294 L372 332 Q372 451 253 451 Q166 451 129 390 Q116 370 96 378 L65 392 Q40 402 52 426 Z M372 220 Q292 228 248 228 Q179 228 151 207 Q125 188 125 144 Q125 101 148 83 Q176 60 246 60 Q323 60 357 72 Q372 78 372 94 L372 220 Z " />
<glyph glyph-name="ae" unicode="&#xe6;" horiz-adv-x="793" d="M53 426 Q107 531 240 531 Q348 531 390 458 Q437 531 548 531 Q653 531 707 472 Q755 419 755 325 L755 266 Q755 231 719 231 L431 231 L431 182 Q431 63 547 63 Q626 63 666 131 Q681 152 704 141 L732 126 Q758 113 741 87 Q682 -15 546 -15 Q453 -15 406 35 Q342 -15 238 -15 Q122 -15 76 26 Q35 61 35 143 Q35 230 83 265 Q129 300 242 300 Q278 300 341 293 L341 342 Q341 395 321 420 Q297 451 238 451 Q167 451 130 390 Q116 371 97 379 L66 392 Q40 403 53 426 Z M666 330 Q666 455 548 455 Q431 455 431 330 L431 300 L666 300 L666 330 Z M341 220 Q268 227 233 227 Q172 227 148 206 Q126 187 126 143 Q126 100 145 82 Q169 60 230 60 Q333 60 345 100 Q341 124 341 158 L341 220 Z " />
<glyph glyph-name="aeacute" unicode="&#x1fd;" horiz-adv-x="793" d="M438 727 Q466 744 482 726 L501 702 Q518 683 498 674 L323 591 Q300 582 292 592 L281 607 Q267 624 282 633 L438 727 Z M53 426 Q107 531 240 531 Q348 531 390 458 Q437 531 548 531 Q653 531 707 472 Q755 419 755 325 L755 266 Q755 231 719 231 L431 231 L431 182 Q431 63 547 63 Q626 63 666 131 Q681 152 704 141 L732 126 Q758 113 741 87 Q682 -15 546 -15 Q453 -15 406 35 Q342 -15 238 -15 Q122 -15 76 26 Q35 61 35 143 Q35 230 83 265 Q129 300 242 300 Q278 300 341 293 L341 342 Q341 395 321 420 Q297 451 238 451 Q167 451 130 390 Q116 371 97 379 L66 392 Q40 403 53 426 Z M666 330 Q666 455 548 455 Q431 455 431 330 L431 300 L666 300 L666 330 Z M341 220 Q268 227 233 227 Q172 227 148 206 Q126 187 126 143 Q126 100 145 82 Q169 60 230 60 Q333 60 345 100 Q341 124 341 158 L341 220 Z " />
<glyph glyph-name="b" unicode="b" horiz-adv-x="539" d="M126 740 Q150 740 150 716 L150 506 Q228 531 291 531 Q493 531 493 333 L493 193 Q493 -15 273 -15 Q172 -15 98 16 Q74 27 68 37 Q61 47 61 71 L61 716 Q61 740 84 740 L126 740 Z M403 330 Q403 449 278 449 Q219 449 150 423 L150 102 Q150 88 164 83 Q208 67 267 67 Q403 67 403 196 L403 330 Z " />
<glyph glyph-name="c" unicode="c" horiz-adv-x="516" d="M45 330 Q45 531 269 531 Q438 531 480 397 Q489 372 464 363 L429 352 Q405 341 395 368 Q368 452 265 452 Q135 452 135 334 L135 183 Q135 64 265 64 Q368 64 396 151 Q406 175 430 167 L465 157 Q491 147 482 123 Q432 -15 263 -15 Q45 -15 45 187 L45 330 Z " />
<glyph glyph-name="cacute" unicode="&#x107;" horiz-adv-x="516" d="M316 724 Q345 739 360 722 L380 698 Q395 678 376 671 L201 587 Q179 578 171 588 L159 603 Q145 621 161 629 L316 724 Z M45 330 Q45 531 269 531 Q438 531 480 397 Q489 372 464 363 L429 352 Q405 341 395 368 Q368 452 265 452 Q135 452 135 334 L135 183 Q135 64 265 64 Q368 64 396 151 Q406 175 430 167 L465 157 Q491 147 482 123 Q432 -15 263 -15 Q45 -15 45 187 L45 330 Z " />
<glyph glyph-name="ccaron" unicode="&#x10d;" horiz-adv-x="516" d="M406 708 Q434 708 416 690 L313 595 Q294 575 273 575 L264 575 Q241 575 222 595 L118 690 Q102 708 128 708 L159 708 Q181 708 193 696 L267 630 L338 696 Q350 708 374 708 L406 708 Z M45 330 Q45 531 269 531 Q438 531 480 397 Q489 372 464 363 L429 352 Q405 341 395 368 Q368 452 265 452 Q135 452 135 334 L135 183 Q135 64 265 64 Q368 64 396 151 Q406 175 430 167 L465 157 Q491 147 482 123 Q432 -15 263 -15 Q45 -15 45 187 L45 330 Z " />
<glyph glyph-name="ccedilla" unicode="&#xe7;" horiz-adv-x="515" d="M465 157 Q491 147 482 123 Q437 -2 296 -13 L276 -66 Q286 -64 295 -64 Q335 -64 359 -88 Q383 -112 380 -149 Q372 -245 254 -245 Q206 -245 177 -229 Q163 -223 163 -206 L163 -182 Q163 -165 175 -172 Q206 -192 243 -192 Q303 -192 303 -145 Q303 -110 251 -109 Q235 -109 221 -112 Q200 -114 209 -92 L241 -14 Q45 -4 45 187 L45 330 Q45 531 269 531 Q438 531 480 397 Q489 372 464 363 L429 352 Q405 341 395 368 Q368 452 265 452 Q135 452 135 334 L135 183 Q135 64 265 64 Q368 64 396 151 Q406 175 430 167 L465 157 Z " />
<glyph glyph-name="ccircumflex" unicode="&#x109;" horiz-adv-x="516" d="M276 720 Q299 720 319 700 L429 599 Q446 580 418 580 L383 580 Q357 580 345 593 L269 662 L190 593 Q177 580 154 580 L121 580 Q93 580 110 599 L221 700 Q241 720 266 720 L276 720 Z M45 330 Q45 531 269 531 Q438 531 480 397 Q489 372 464 363 L429 352 Q405 341 395 368 Q368 452 265 452 Q135 452 135 334 L135 183 Q135 64 265 64 Q368 64 396 151 Q406 175 430 167 L465 157 Q491 147 482 123 Q432 -15 263 -15 Q45 -15 45 187 L45 330 Z " />
<glyph glyph-name="cdotaccent" unicode="&#x10b;" horiz-adv-x="516" d="M272 696 Q297 696 305 687 Q314 678 314 653 L314 646 Q314 621 305 612 Q297 603 272 603 L266 603 Q241 603 232 612 Q223 621 223 646 L223 653 Q223 678 232 687 Q241 696 266 696 L272 696 Z M45 330 Q45 531 269 531 Q438 531 480 397 Q489 372 464 363 L429 352 Q405 341 395 368 Q368 452 265 452 Q135 452 135 334 L135 183 Q135 64 265 64 Q368 64 396 151 Q406 175 430 167 L465 157 Q491 147 482 123 Q432 -15 263 -15 Q45 -15 45 187 L45 330 Z " />
<glyph glyph-name="d" unicode="d" horiz-adv-x="539" d="M46 327 Q46 531 249 531 Q307 531 389 509 L389 716 Q389 740 413 740 L455 740 Q478 740 478 716 L478 71 Q478 32 439 16 Q358 -15 260 -15 Q46 -15 46 186 L46 327 Z M389 427 Q317 449 266 449 Q136 449 136 324 L136 189 Q136 67 268 67 Q329 67 375 83 Q389 88 389 102 L389 427 Z " />
<glyph glyph-name="eth" unicode="&#xf0;" horiz-adv-x="552" d="M405 747 Q413 756 423 748 L448 730 Q458 722 449 711 L408 668 Q495 588 495 398 L495 183 Q495 89 438 38 Q380 -15 270 -15 Q160 -15 102 38 Q45 89 45 183 L45 306 Q45 398 101 452 Q156 505 252 505 Q370 505 410 437 Q407 549 350 602 L295 543 Q287 534 276 542 L254 557 Q244 566 253 576 L303 630 Q246 660 148 660 Q123 660 122 683 L122 718 Q122 742 145 742 Q282 742 361 699 L405 747 Z M405 307 Q405 424 270 424 Q135 424 135 306 L135 184 Q135 66 270 66 Q405 66 405 184 L405 307 Z " />
<glyph glyph-name="dcaron" unicode="&#x10f;" horiz-adv-x="589" d="M46 327 Q46 531 249 531 Q307 531 389 509 L389 716 Q389 740 413 740 L455 740 Q478 740 478 716 L478 71 Q478 32 439 16 Q358 -15 260 -15 Q46 -15 46 186 L46 327 Z M608 531 Q601 509 583 509 L559 509 Q543 509 544 526 L576 716 Q580 740 604 740 L638 740 Q668 740 659 716 L608 531 Z M389 427 Q317 449 266 449 Q136 449 136 324 L136 189 Q136 67 268 67 Q329 67 375 83 Q389 88 389 102 L389 427 Z " />
<glyph glyph-name="dslash" unicode="&#x111;" horiz-adv-x="540" d="M540 660 Q556 660 556 643 L556 621 Q556 604 540 604 L479 604 L479 71 Q479 32 440 16 Q359 -15 260 -15 Q47 -15 47 186 L47 327 Q47 530 250 530 Q309 530 390 509 L390 604 L252 604 Q235 604 235 621 L235 643 Q235 660 252 660 L390 660 L390 716 Q390 740 414 740 L455 740 Q479 740 479 716 L479 660 L540 660 Z M390 427 Q318 449 266 449 Q136 449 136 324 L136 189 Q136 67 268 67 Q328 67 376 83 Q390 88 390 102 L390 427 Z " />
<glyph glyph-name="e" unicode="e" horiz-adv-x="534" d="M44 317 Q44 419 102 475 Q160 531 270 531 Q381 531 441 472 Q496 417 496 324 L496 266 Q496 231 459 231 L133 231 L133 183 Q133 63 267 63 Q365 63 406 132 Q422 154 445 141 L472 127 Q498 114 481 88 Q422 -15 266 -15 Q154 -15 97 43 Q44 97 44 193 L44 317 Z M407 329 Q407 455 270 455 Q133 455 133 329 L133 300 L407 300 L407 329 Z " />
<glyph glyph-name="eacute" unicode="&#xe9;" horiz-adv-x="534" d="M317 724 Q346 740 361 722 L381 698 Q396 678 377 671 L202 587 Q179 579 172 589 L160 603 Q146 621 162 629 L317 724 Z M44 317 Q44 419 102 475 Q160 531 270 531 Q381 531 441 472 Q496 417 496 324 L496 266 Q496 231 459 231 L133 231 L133 183 Q133 63 267 63 Q365 63 406 132 Q422 154 445 141 L472 127 Q498 114 481 88 Q422 -15 266 -15 Q154 -15 97 43 Q44 97 44 193 L44 317 Z M407 329 Q407 455 270 455 Q133 455 133 329 L133 300 L407 300 L407 329 Z " />
<glyph glyph-name="ebreve" unicode="&#x115;" horiz-adv-x="534" d="M424 690 Q389 584 270 584 Q150 584 118 690 Q113 706 128 712 L159 724 Q178 729 184 715 Q202 649 270 649 Q338 649 357 715 Q363 729 377 725 L413 712 Q429 705 424 690 Z M44 317 Q44 419 102 475 Q160 531 270 531 Q381 531 441 472 Q496 417 496 324 L496 266 Q496 231 459 231 L133 231 L133 183 Q133 63 267 63 Q365 63 406 132 Q422 154 445 141 L472 127 Q498 114 481 88 Q422 -15 266 -15 Q154 -15 97 43 Q44 97 44 193 L44 317 Z M407 329 Q407 455 270 455 Q133 455 133 329 L133 300 L407 300 L407 329 Z " />
<glyph glyph-name="ecaron" unicode="&#x11b;" horiz-adv-x="534" d="M407 709 Q434 709 417 690 L314 595 Q296 576 274 576 L265 576 Q242 576 223 595 L119 691 Q101 709 129 709 L160 709 Q182 709 194 696 L268 630 L339 696 Q352 709 375 709 L407 709 Z M44 317 Q44 419 102 475 Q160 531 270 531 Q381 531 441 472 Q496 417 496 324 L496 266 Q496 231 459 231 L133 231 L133 183 Q133 63 267 63 Q365 63 406 132 Q422 154 445 141 L472 127 Q498 114 481 88 Q422 -15 266 -15 Q154 -15 97 43 Q44 97 44 193 L44 317 Z M407 329 Q407 455 270 455 Q133 455 133 329 L133 300 L407 300 L407 329 Z " />
<glyph glyph-name="ecircumflex" unicode="&#xea;" horiz-adv-x="534" d="M277 721 Q299 721 320 700 L430 599 Q447 580 419 580 L384 580 Q359 580 346 593 L270 663 L191 593 Q178 580 155 580 L122 580 Q94 580 111 599 L222 700 Q243 721 267 721 L277 721 Z M44 317 Q44 419 102 475 Q160 531 270 531 Q381 531 441 472 Q496 417 496 324 L496 266 Q496 231 459 231 L133 231 L133 183 Q133 63 267 63 Q365 63 406 132 Q422 154 445 141 L472 127 Q498 114 481 88 Q422 -15 266 -15 Q154 -15 97 43 Q44 97 44 193 L44 317 Z M407 329 Q407 455 270 455 Q133 455 133 329 L133 300 L407 300 L407 329 Z " />
<glyph glyph-name="edieresis" unicode="&#xeb;" horiz-adv-x="534" d="M175 697 Q217 697 217 656 L217 648 Q217 606 175 606 L168 606 Q127 606 127 648 L127 656 Q127 697 168 697 L175 697 Z M372 697 Q413 697 413 656 L413 648 Q413 606 372 606 L365 606 Q323 606 323 648 L323 656 Q323 697 365 697 L372 697 Z M44 317 Q44 419 102 475 Q160 531 270 531 Q381 531 441 472 Q496 417 496 324 L496 266 Q496 231 459 231 L133 231 L133 183 Q133 63 267 63 Q365 63 406 132 Q422 154 445 141 L472 127 Q498 114 481 88 Q422 -15 266 -15 Q154 -15 97 43 Q44 97 44 193 L44 317 Z M407 329 Q407 455 270 455 Q133 455 133 329 L133 300 L407 300 L407 329 Z " />
<glyph glyph-name="edotaccent" unicode="&#x117;" horiz-adv-x="534" d="M273 696 Q298 696 306 687 Q315 678 315 653 L315 647 Q315 622 306 613 Q298 604 273 604 L267 604 Q242 604 233 613 Q224 622 224 647 L224 653 Q224 678 233 687 Q242 696 267 696 L273 696 Z M44 317 Q44 419 102 475 Q160 531 270 531 Q381 531 441 472 Q496 417 496 324 L496 266 Q496 231 459 231 L133 231 L133 183 Q133 63 267 63 Q365 63 406 132 Q422 154 445 141 L472 127 Q498 114 481 88 Q422 -15 266 -15 Q154 -15 97 43 Q44 97 44 193 L44 317 Z M407 329 Q407 455 270 455 Q133 455 133 329 L133 300 L407 300 L407 329 Z " />
<glyph glyph-name="egrave" unicode="&#xe8;" horiz-adv-x="534" d="M182 722 Q196 741 226 724 L381 629 Q396 620 382 603 L371 589 Q364 579 341 587 L165 671 Q146 679 162 698 L182 722 Z M44 317 Q44 419 102 475 Q160 531 270 531 Q381 531 441 472 Q496 417 496 324 L496 266 Q496 231 459 231 L133 231 L133 183 Q133 63 267 63 Q365 63 406 132 Q422 154 445 141 L472 127 Q498 114 481 88 Q422 -15 266 -15 Q154 -15 97 43 Q44 97 44 193 L44 317 Z M407 329 Q407 455 270 455 Q133 455 133 329 L133 300 L407 300 L407 329 Z " />
<glyph glyph-name="emacron" unicode="&#x113;" horiz-adv-x="534" d="M377 675 Q398 675 398 654 L398 635 Q398 613 377 613 L163 613 Q142 613 142 635 L142 654 Q142 675 163 675 L377 675 Z M44 317 Q44 419 102 475 Q160 531 270 531 Q381 531 441 472 Q496 417 496 324 L496 266 Q496 231 459 231 L133 231 L133 183 Q133 63 267 63 Q365 63 406 132 Q422 154 445 141 L472 127 Q498 114 481 88 Q422 -15 266 -15 Q154 -15 97 43 Q44 97 44 193 L44 317 Z M407 329 Q407 455 270 455 Q133 455 133 329 L133 300 L407 300 L407 329 Z " />
<glyph glyph-name="eogonek" unicode="&#x119;" horiz-adv-x="534" d="M44 317 Q44 419 102 475 Q160 531 270 531 Q381 531 441 472 Q496 417 496 324 L496 266 Q496 231 459 231 L133 231 L133 183 Q133 63 267 63 Q365 63 406 132 Q422 154 445 141 L472 127 Q498 114 481 88 Q469 63 449 45 Q398 -13 371 -74 Q348 -129 356 -155 Q364 -180 389 -180 Q412 -180 429 -163 Q439 -155 444 -167 L455 -193 Q459 -205 453 -210 Q417 -246 361 -246 Q291 -246 279 -191 Q258 -111 358 -2 Q316 -15 266 -15 Q154 -15 97 43 Q44 97 44 193 L44 317 Z M407 329 Q407 455 270 455 Q133 455 133 329 L133 300 L407 300 L407 329 Z " />
<glyph glyph-name="f" unicode="f" horiz-adv-x="361" d="M328 740 Q352 740 352 716 L352 681 Q352 657 328 657 Q255 657 227 630 Q199 604 199 534 L199 516 L330 516 Q353 516 353 492 L353 457 Q353 433 330 433 L199 433 L199 24 Q199 0 174 0 L134 0 Q109 0 109 24 L109 433 L33 433 Q10 433 10 457 L10 492 Q10 516 33 516 L109 516 L109 534 Q109 640 159 689 Q209 739 319 740 L328 740 Z " />
<glyph glyph-name="g" unicode="g" horiz-adv-x="538" d="M46 324 Q46 531 266 531 Q372 531 440 500 Q464 489 471 480 Q478 470 478 445 L478 -25 Q478 -241 263 -241 Q117 -241 61 -139 Q44 -114 70 -101 L99 -85 Q123 -72 138 -94 Q177 -161 261 -161 Q388 -161 388 -29 L388 28 Q310 3 248 3 Q46 3 46 201 L46 324 Z M374 434 Q327 449 272 449 Q135 449 135 321 L135 203 Q135 85 260 85 Q313 85 388 107 L388 414 Q388 428 374 434 Z " />
<glyph glyph-name="gbreve" unicode="&#x11f;" horiz-adv-x="538" d="M429 689 Q396 584 276 584 Q156 584 123 689 Q118 705 134 712 L165 724 Q184 729 189 715 Q209 649 276 649 Q342 649 363 715 Q368 729 383 724 L419 712 Q434 705 429 689 Z M46 324 Q46 531 266 531 Q372 531 440 500 Q464 489 471 480 Q478 470 478 445 L478 -25 Q478 -241 263 -241 Q117 -241 61 -139 Q44 -114 70 -101 L99 -85 Q123 -72 138 -94 Q177 -161 261 -161 Q388 -161 388 -29 L388 28 Q310 3 248 3 Q46 3 46 201 L46 324 Z M374 434 Q327 449 272 449 Q135 449 135 321 L135 203 Q135 85 260 85 Q313 85 388 107 L388 414 Q388 428 374 434 Z " />
<glyph glyph-name="gcircumflex" unicode="&#x11d;" horiz-adv-x="538" d="M283 720 Q306 720 325 700 L436 599 Q453 580 424 580 L390 580 Q364 580 352 593 L276 662 L197 593 Q184 580 161 580 L128 580 Q100 580 117 599 L228 700 Q248 720 273 720 L283 720 Z M46 324 Q46 531 266 531 Q372 531 440 500 Q464 489 471 480 Q478 470 478 445 L478 -25 Q478 -241 263 -241 Q117 -241 61 -139 Q44 -114 70 -101 L99 -85 Q123 -72 138 -94 Q177 -161 261 -161 Q388 -161 388 -29 L388 28 Q310 3 248 3 Q46 3 46 201 L46 324 Z M374 434 Q327 449 272 449 Q135 449 135 321 L135 203 Q135 85 260 85 Q313 85 388 107 L388 414 Q388 428 374 434 Z " />
<glyph glyph-name="uni0123" unicode="&#x123;" horiz-adv-x="539" d="M268 715 Q275 737 298 737 L321 737 Q341 737 338 719 L309 601 Q305 573 277 573 L244 573 Q213 573 223 601 L268 715 Z M46 324 Q46 531 266 531 Q372 531 440 500 Q464 489 471 480 Q478 470 478 445 L478 -25 Q478 -241 263 -241 Q117 -241 61 -139 Q44 -114 70 -101 L99 -85 Q123 -72 138 -94 Q177 -161 261 -161 Q388 -161 388 -29 L388 28 Q310 3 248 3 Q46 3 46 201 L46 324 Z M374 434 Q327 449 272 449 Q135 449 135 321 L135 203 Q135 85 260 85 Q313 85 388 107 L388 414 Q388 428 374 434 Z " />
<glyph glyph-name="gdotaccent" unicode="&#x121;" horiz-adv-x="538" d="M278 696 Q303 696 312 687 Q321 678 321 653 L321 646 Q321 621 312 612 Q303 603 278 603 L273 603 Q248 603 239 612 Q230 621 230 646 L230 653 Q230 678 239 687 Q248 696 273 696 L278 696 Z M46 324 Q46 531 266 531 Q372 531 440 500 Q464 489 471 480 Q478 470 478 445 L478 -25 Q478 -241 263 -241 Q117 -241 61 -139 Q44 -114 70 -101 L99 -85 Q123 -72 138 -94 Q177 -161 261 -161 Q388 -161 388 -29 L388 28 Q310 3 248 3 Q46 3 46 201 L46 324 Z M374 434 Q327 449 272 449 Q135 449 135 321 L135 203 Q135 85 260 85 Q313 85 388 107 L388 414 Q388 428 374 434 Z " />
<glyph glyph-name="h" unicode="h" horiz-adv-x="553" d="M129 740 Q152 740 152 716 L152 509 Q198 531 292 531 Q495 531 495 333 L495 24 Q495 0 471 0 L430 0 Q406 0 406 24 L406 330 Q406 449 280 449 Q198 449 152 426 L152 24 Q152 0 129 0 L87 0 Q63 0 63 24 L63 716 Q63 740 87 740 L129 740 Z " />
<glyph glyph-name="hbar" unicode="&#x127;" horiz-adv-x="553" d="M152 509 Q198 531 292 531 Q495 531 495 333 L495 24 Q495 0 471 0 L429 0 Q405 0 405 24 L405 330 Q405 449 280 449 Q198 449 152 426 L152 24 Q152 0 128 0 L86 0 Q63 0 63 24 L63 607 L19 607 Q3 607 3 625 L3 644 Q3 661 19 661 L63 661 L63 716 Q63 740 86 740 L128 740 Q152 740 152 716 L152 661 L299 661 Q315 661 315 644 L315 625 Q315 607 299 607 L152 607 L152 509 Z " />
<glyph glyph-name="hcircumflex" unicode="&#x125;" horiz-adv-x="553" d="M114 927 Q136 927 156 907 L264 807 Q281 788 253 788 L219 788 Q195 788 182 801 L107 870 L30 801 Q17 788 -6 788 L-38 788 Q-66 788 -49 807 L60 907 Q80 927 105 927 L114 927 Z M128 740 Q152 740 152 716 L152 509 Q196 531 292 531 Q495 531 495 333 L495 24 Q495 0 471 0 L429 0 Q405 0 405 24 L405 330 Q405 449 279 449 Q198 449 152 426 L152 24 Q152 0 128 0 L86 0 Q62 0 62 24 L62 716 Q62 740 86 740 L128 740 Z " />
<glyph glyph-name="i" unicode="i" horiz-adv-x="214" d="M110 705 Q138 705 148 695 Q158 684 158 657 L158 649 Q158 622 148 612 Q138 601 110 601 L104 601 Q77 601 67 611 Q56 621 56 649 L56 657 Q56 705 104 705 L110 705 Z M128 516 Q152 516 152 492 L152 24 Q152 0 128 0 L86 0 Q62 0 62 24 L62 492 Q62 516 86 516 L128 516 Z " />
<glyph glyph-name="dotlessi" unicode="&#x131;" horiz-adv-x="214" d="M128 516 Q152 516 152 492 L152 24 Q152 0 128 0 L86 0 Q62 0 62 24 L62 492 Q62 516 86 516 L128 516 Z " />
<glyph glyph-name="iacute" unicode="&#xed;" horiz-adv-x="213" d="M137 722 Q164 740 181 720 L200 696 Q216 676 197 668 L49 587 Q26 578 19 588 L8 602 Q-6 619 10 628 L137 722 Z M126 516 Q149 516 149 492 L149 24 Q149 0 126 0 L84 0 Q60 0 60 24 L60 492 Q60 516 84 516 L126 516 Z " />
<glyph glyph-name="ibreve" unicode="&#x12d;" horiz-adv-x="213" d="M230 711 Q246 704 241 689 Q211 585 106 585 Q0 585 -28 689 Q-33 705 -18 711 L13 722 Q32 727 37 714 Q51 652 106 652 Q159 652 175 714 Q180 729 195 723 L230 711 Z M127 516 Q150 516 150 492 L150 24 Q150 0 127 0 L85 0 Q61 0 61 24 L61 492 Q61 516 85 516 L127 516 Z " />
<glyph glyph-name="icircumflex" unicode="&#xee;" horiz-adv-x="213" d="M242 603 Q259 584 230 584 L199 584 Q169 584 161 597 L106 664 L49 597 Q41 584 13 584 L-17 584 Q-44 584 -29 603 L58 701 Q75 722 103 722 L113 722 Q138 722 155 701 L242 603 Z M128 516 Q151 516 151 492 L151 24 Q151 0 128 0 L86 0 Q62 0 62 24 L62 492 Q62 516 86 516 L128 516 Z " />
<glyph glyph-name="idieresis" unicode="&#xef;" horiz-adv-x="213" d="M30 705 Q72 705 72 663 L72 655 Q72 614 30 614 L23 614 Q-18 614 -18 655 L-18 663 Q-18 705 23 705 L30 705 Z M190 705 Q232 705 232 663 L232 655 Q232 614 190 614 L184 614 Q142 614 142 655 L142 663 Q142 705 184 705 L190 705 Z M128 516 Q151 516 151 492 L151 24 Q151 0 128 0 L86 0 Q62 0 62 24 L62 492 Q62 516 86 516 L128 516 Z " />
<glyph glyph-name="igrave" unicode="&#xec;" horiz-adv-x="213" d="M32 720 Q49 739 76 722 L203 629 Q218 619 205 603 L194 588 Q185 578 163 587 L16 668 Q-3 676 12 696 L32 720 Z M126 516 Q150 516 150 492 L150 24 Q150 0 126 0 L84 0 Q60 0 60 24 L60 492 Q60 516 84 516 L126 516 Z " />
<glyph glyph-name="ij" unicode="&#x133;" horiz-adv-x="457" d="M110 705 Q138 705 148 695 Q158 684 158 657 L158 649 Q158 622 148 612 Q138 601 110 601 L104 601 Q77 601 67 611 Q56 621 56 649 L56 657 Q56 705 104 705 L110 705 Z M353 705 Q380 705 390 695 Q400 684 400 657 L400 649 Q400 622 390 612 Q380 601 353 601 L346 601 Q319 601 309 611 Q298 621 298 649 L298 657 Q298 705 346 705 L353 705 Z M128 516 Q152 516 152 492 L152 24 Q152 0 128 0 L86 0 Q62 0 62 24 L62 492 Q62 516 86 516 L128 516 Z M370 516 Q394 516 394 492 L394 -8 Q394 -230 177 -230 Q153 -230 153 -206 L153 -171 Q153 -147 177 -147 Q305 -147 305 -6 L305 492 Q305 516 329 516 L370 516 Z " />
<glyph glyph-name="imacron" unicode="&#x12b;" horiz-adv-x="213" d="M179 679 Q193 679 193 657 L193 638 Q193 616 179 616 L34 616 Q20 616 20 638 L20 657 Q20 679 34 679 L179 679 Z M128 516 Q151 516 151 492 L151 24 Q151 0 128 0 L86 0 Q62 0 62 24 L62 492 Q62 516 86 516 L128 516 Z " />
<glyph glyph-name="iogonek" unicode="&#x12f;" horiz-adv-x="214" d="M104 601 Q77 601 67 611 Q56 621 56 649 L56 657 Q56 705 104 705 L110 705 Q138 705 148 695 Q158 684 158 657 L158 649 Q158 622 148 612 Q138 601 110 601 L104 601 Z M187 -191 Q193 -202 187 -209 Q157 -245 106 -245 Q34 -245 25 -184 Q13 -95 83 1 Q62 1 62 24 L62 492 Q62 516 86 516 L128 516 Q152 516 152 492 L152 24 Q152 10 147 5 Q94 -82 102 -151 Q105 -180 132 -180 Q150 -180 162 -164 Q172 -158 178 -167 L187 -191 Z " />
<glyph glyph-name="itilde" unicode="&#x129;" horiz-adv-x="213" d="M212 720 Q225 720 225 705 Q225 600 159 600 Q130 600 103 630 Q76 659 58 659 Q31 659 31 616 Q31 600 19 600 L-5 600 Q-18 600 -18 616 Q-18 720 49 720 Q80 720 107 690 Q134 660 151 660 Q177 660 177 705 Q177 720 189 720 L212 720 Z M128 516 Q151 516 151 492 L151 24 Q151 0 128 0 L86 0 Q62 0 62 24 L62 492 Q62 516 86 516 L128 516 Z " />
<glyph glyph-name="j" unicode="j" horiz-adv-x="215" d="M111 705 Q159 705 159 657 L159 649 Q159 601 111 601 L104 601 Q77 601 67 611 Q57 621 57 649 L57 657 Q57 684 67 695 Q77 705 104 705 L111 705 Z M128 516 Q152 516 152 492 L152 -8 Q152 -230 -65 -230 Q-89 -230 -89 -206 L-89 -171 Q-89 -147 -65 -147 Q63 -147 63 -6 L63 492 Q63 516 87 516 L128 516 Z " />
<glyph glyph-name="uni0237" unicode="&#x237;" horiz-adv-x="215" d="M128 516 Q152 516 152 492 L152 -8 Q152 -230 -65 -230 Q-89 -230 -89 -206 L-89 -171 Q-89 -147 -65 -147 Q63 -147 63 -6 L63 492 Q63 516 87 516 L128 516 Z " />
<glyph glyph-name="jcircumflex" unicode="&#x135;" horiz-adv-x="215" d="M114 720 Q138 720 157 700 L256 599 Q273 580 244 580 L210 580 Q184 580 172 593 L107 663 L40 593 Q27 580 4 580 L-29 580 Q-57 580 -40 599 L59 700 Q78 720 105 720 L114 720 Z M128 516 Q152 516 152 492 L152 -8 Q152 -230 -65 -230 Q-89 -230 -89 -206 L-89 -171 Q-89 -147 -65 -147 Q63 -147 63 -6 L63 492 Q63 516 87 516 L128 516 Z " />
<glyph glyph-name="k" unicode="k" horiz-adv-x="514" d="M490 28 Q505 0 475 0 L436 0 Q405 0 395 22 L326 167 Q299 222 236 222 L152 222 L152 25 Q152 0 127 0 L88 0 Q63 0 63 25 L63 716 Q63 740 88 740 L127 740 Q152 740 152 716 L152 305 L233 305 L382 498 Q395 516 429 516 L467 516 Q504 516 482 488 L322 288 Q370 270 402 206 L490 28 Z " />
<glyph glyph-name="uni0137" unicode="&#x137;" horiz-adv-x="514" d="M490 28 Q505 0 475 0 L436 0 Q405 0 395 22 L326 167 Q299 222 236 222 L152 222 L152 25 Q152 0 127 0 L88 0 Q63 0 63 25 L63 716 Q63 740 88 740 L127 740 Q152 740 152 716 L152 305 L233 305 L382 498 Q395 516 429 516 L467 516 Q504 516 482 488 L322 288 Q370 270 402 206 L490 28 Z M284 -207 Q276 -229 254 -229 L231 -229 Q211 -229 214 -210 L237 -79 Q241 -52 268 -52 L302 -52 Q332 -52 323 -79 L284 -207 Z " />
<glyph glyph-name="kgreenlandic" unicode="&#x138;" horiz-adv-x="488" d="M466 29 Q487 0 451 0 L412 0 Q375 0 362 19 L221 218 L152 141 L152 25 Q152 0 127 0 L87 0 Q62 0 62 25 L62 492 Q62 516 87 516 L127 516 Q152 516 152 492 L152 265 L358 498 Q373 516 405 516 L443 516 Q481 516 458 488 L280 287 L466 29 Z " />
<glyph glyph-name="l" unicode="l" horiz-adv-x="221" d="M155 24 Q155 0 131 0 L90 0 Q66 0 66 24 L66 716 Q66 740 90 740 L131 740 Q155 740 155 716 L155 24 Z " />
<glyph glyph-name="lacute" unicode="&#x13a;" horiz-adv-x="221" d="M140 895 Q166 910 181 891 L203 864 Q218 843 199 836 L51 773 Q28 764 21 775 L7 793 Q-5 811 10 819 L140 895 Z M153 24 Q153 0 129 0 L87 0 Q63 0 63 24 L63 716 Q63 740 87 740 L129 740 Q153 740 153 716 L153 24 Z " />
<glyph glyph-name="lcaron" unicode="&#x13e;" horiz-adv-x="228" d="M155 24 Q155 0 131 0 L90 0 Q66 0 66 24 L66 716 Q66 740 90 740 L131 740 Q155 740 155 716 L155 24 Z M291 558 Q283 537 264 537 L243 537 Q226 537 227 553 L252 716 Q256 740 280 740 L317 740 Q348 740 339 715 L291 558 Z " />
<glyph glyph-name="uni013C" unicode="&#x13c;" horiz-adv-x="221" d="M154 24 Q154 0 130 0 L89 0 Q65 0 65 24 L65 716 Q65 740 89 740 L130 740 Q154 740 154 716 L154 24 Z M112 -198 Q104 -220 82 -220 L59 -220 Q41 -220 42 -201 L66 -66 Q69 -39 97 -39 L130 -39 Q160 -39 151 -66 L112 -198 Z " />
<glyph glyph-name="ldot" unicode="&#x140;" horiz-adv-x="354" d="M155 24 Q155 0 131 0 L90 0 Q66 0 66 24 L66 716 Q66 740 90 740 L131 740 Q155 740 155 716 L155 24 Z M292 430 Q321 430 332 419 Q343 408 343 379 L343 372 Q343 343 332 332 Q321 321 292 321 L286 321 Q257 321 246 332 Q235 343 235 372 L235 379 Q235 408 246 419 Q257 430 286 430 L292 430 Z " />
<glyph glyph-name="lslash" unicode="&#x142;" horiz-adv-x="307" d="M296 437 Q306 422 290 414 L195 360 L195 24 Q195 0 171 0 L129 0 Q106 0 106 24 L106 312 L51 280 Q33 271 24 286 L9 312 Q2 328 16 336 L106 387 L106 716 Q106 740 129 740 L171 740 Q195 740 195 716 L195 435 L255 470 Q271 478 282 463 L296 437 Z " />
<glyph glyph-name="m" unicode="m" horiz-adv-x="822" d="M396 493 Q489 531 574 531 Q763 531 763 337 L763 24 Q763 0 740 0 L698 0 Q674 0 674 24 L674 334 Q674 449 562 449 Q507 449 444 422 Q459 391 459 337 L459 24 Q459 0 436 0 L394 0 Q370 0 370 24 L370 334 Q370 449 256 449 Q207 449 162 433 Q150 426 150 412 L150 24 Q150 0 126 0 L84 0 Q61 0 61 24 L61 441 Q61 482 99 498 Q175 531 268 531 Q350 531 396 493 Z " />
<glyph glyph-name="n" unicode="n" horiz-adv-x="551" d="M99 497 Q182 531 290 531 Q493 531 493 333 L493 24 Q493 0 469 0 L427 0 Q403 0 403 24 L403 330 Q403 449 278 449 Q218 449 162 431 Q150 426 150 413 L150 24 Q150 0 126 0 L84 0 Q61 0 61 24 L61 441 Q61 481 99 497 Z " />
<glyph glyph-name="nacute" unicode="&#x144;" horiz-adv-x="551" d="M323 724 Q351 741 367 722 L387 698 Q402 678 383 671 L208 587 Q185 579 177 589 L166 603 Q152 621 168 629 L323 724 Z M99 497 Q182 531 290 531 Q493 531 493 333 L493 24 Q493 0 469 0 L427 0 Q403 0 403 24 L403 330 Q403 449 278 449 Q218 449 162 431 Q150 426 150 413 L150 24 Q150 0 126 0 L84 0 Q61 0 61 24 L61 441 Q61 481 99 497 Z " />
<glyph glyph-name="napostrophe" unicode="&#x149;" horiz-adv-x="551" d="M101 556 Q90 539 72 539 L50 539 Q33 539 38 556 L103 719 Q110 740 131 740 L173 740 Q206 740 189 715 L101 556 Z M98 497 Q181 531 289 531 Q492 531 492 333 L492 24 Q492 0 468 0 L426 0 Q402 0 402 24 L402 330 Q402 449 277 449 Q217 449 161 431 Q149 426 149 413 L149 24 Q149 0 125 0 L83 0 Q60 0 60 24 L60 441 Q60 481 98 497 Z " />
<glyph glyph-name="ncaron" unicode="&#x148;" horiz-adv-x="551" d="M413 709 Q440 709 423 690 L320 595 Q302 576 280 576 L271 576 Q248 576 229 595 L125 691 Q107 709 135 709 L166 709 Q188 709 200 696 L274 630 L345 696 Q357 709 381 709 L413 709 Z M99 497 Q182 531 290 531 Q493 531 493 333 L493 24 Q493 0 469 0 L427 0 Q403 0 403 24 L403 330 Q403 449 278 449 Q218 449 162 431 Q150 426 150 413 L150 24 Q150 0 126 0 L84 0 Q61 0 61 24 L61 441 Q61 481 99 497 Z " />
<glyph glyph-name="uni0146" unicode="&#x146;" horiz-adv-x="551" d="M99 497 Q182 531 290 531 Q493 531 493 333 L493 24 Q493 0 469 0 L427 0 Q403 0 403 24 L403 330 Q403 449 278 449 Q218 449 162 431 Q150 426 150 413 L150 24 Q150 0 126 0 L84 0 Q61 0 61 24 L61 441 Q61 481 99 497 Z M287 -196 Q280 -218 257 -218 L234 -218 Q214 -218 217 -200 L240 -66 Q244 -39 271 -39 L305 -39 Q335 -39 326 -66 L287 -196 Z " />
<glyph glyph-name="eng" unicode="&#x14b;" horiz-adv-x="551" d="M99 497 Q182 531 290 531 Q493 531 493 333 L493 -16 Q493 -118 437 -173 Q379 -230 270 -230 Q247 -230 247 -207 L247 -174 Q247 -150 270 -150 Q403 -150 403 -13 L403 330 Q403 449 278 449 Q218 449 162 431 Q150 426 150 413 L150 24 Q150 0 126 0 L84 0 Q61 0 61 24 L61 441 Q61 481 99 497 Z " />
<glyph glyph-name="ntilde" unicode="&#xf1;" horiz-adv-x="551" d="M411 714 Q426 714 426 699 Q426 594 345 594 Q310 594 269 626 Q228 657 206 657 Q174 657 174 609 Q174 594 159 594 L133 594 Q118 594 118 609 Q118 714 198 714 Q236 714 277 683 Q318 652 339 652 Q371 652 371 699 Q371 714 386 714 L411 714 Z M99 497 Q182 531 290 531 Q493 531 493 333 L493 24 Q493 0 469 0 L427 0 Q403 0 403 24 L403 330 Q403 449 278 449 Q218 449 162 431 Q150 426 150 413 L150 24 Q150 0 126 0 L84 0 Q61 0 61 24 L61 441 Q61 481 99 497 Z " />
<glyph glyph-name="o" unicode="o" horiz-adv-x="541" d="M46 339 Q46 429 105 480 Q165 531 270 531 Q377 531 437 480 Q495 429 495 339 L495 176 Q495 87 437 36 Q377 -15 270 -15 Q165 -15 105 36 Q46 87 46 176 L46 339 Z M406 340 Q406 392 370 421 Q334 450 270 450 Q207 450 171 421 Q135 392 135 340 L135 176 Q135 124 171 95 Q207 66 270 66 Q334 66 370 95 Q406 124 406 176 L406 340 Z " />
<glyph glyph-name="oacute" unicode="&#xf3;" horiz-adv-x="541" d="M317 724 Q346 739 361 722 L381 698 Q398 679 377 671 L202 587 Q180 578 172 588 L160 603 Q147 620 162 629 L317 724 Z M46 339 Q46 429 105 480 Q165 531 270 531 Q377 531 437 480 Q495 429 495 339 L495 176 Q495 87 437 36 Q377 -15 270 -15 Q165 -15 105 36 Q46 87 46 176 L46 339 Z M406 340 Q406 392 370 421 Q334 450 270 450 Q207 450 171 421 Q135 392 135 340 L135 176 Q135 124 171 95 Q207 66 270 66 Q334 66 370 95 Q406 124 406 176 L406 340 Z " />
<glyph glyph-name="obreve" unicode="&#x14f;" horiz-adv-x="541" d="M424 689 Q389 584 270 584 Q150 584 118 689 Q113 705 128 712 L160 724 Q177 729 184 715 Q204 649 270 649 Q338 649 357 715 Q363 729 378 724 L413 712 Q429 704 424 689 Z M46 339 Q46 429 105 480 Q165 531 270 531 Q377 531 437 480 Q495 429 495 339 L495 176 Q495 87 437 36 Q377 -15 270 -15 Q165 -15 105 36 Q46 87 46 176 L46 339 Z M406 340 Q406 392 370 421 Q334 450 270 450 Q207 450 171 421 Q135 392 135 340 L135 176 Q135 124 171 95 Q207 66 270 66 Q334 66 370 95 Q406 124 406 176 L406 340 Z " />
<glyph glyph-name="ocircumflex" unicode="&#xf4;" horiz-adv-x="541" d="M277 720 Q300 720 320 700 L430 599 Q447 580 419 580 L384 580 Q358 580 346 593 L270 662 L191 593 Q178 580 155 580 L123 580 Q94 580 111 599 L222 700 Q242 720 267 720 L277 720 Z M46 339 Q46 429 105 480 Q165 531 270 531 Q377 531 437 480 Q495 429 495 339 L495 176 Q495 87 437 36 Q377 -15 270 -15 Q165 -15 105 36 Q46 87 46 176 L46 339 Z M406 340 Q406 392 370 421 Q334 450 270 450 Q207 450 171 421 Q135 392 135 340 L135 176 Q135 124 171 95 Q207 66 270 66 Q334 66 370 95 Q406 124 406 176 L406 340 Z " />
<glyph glyph-name="odieresis" unicode="&#xf6;" horiz-adv-x="541" d="M175 697 Q217 697 217 656 L217 647 Q217 606 175 606 L168 606 Q127 606 127 647 L127 656 Q127 697 168 697 L175 697 Z M372 697 Q413 697 413 656 L413 647 Q413 606 372 606 L365 606 Q323 606 323 647 L323 656 Q323 697 365 697 L372 697 Z M46 339 Q46 429 105 480 Q165 531 270 531 Q377 531 437 480 Q495 429 495 339 L495 176 Q495 87 437 36 Q377 -15 270 -15 Q165 -15 105 36 Q46 87 46 176 L46 339 Z M406 340 Q406 392 370 421 Q334 450 270 450 Q207 450 171 421 Q135 392 135 340 L135 176 Q135 124 171 95 Q207 66 270 66 Q334 66 370 95 Q406 124 406 176 L406 340 Z " />
<glyph glyph-name="ograve" unicode="&#xf2;" horiz-adv-x="541" d="M182 722 Q197 739 226 724 L381 629 Q396 620 383 603 L371 588 Q363 578 341 587 L165 671 Q146 679 162 698 L182 722 Z M46 339 Q46 429 105 480 Q165 531 270 531 Q377 531 437 480 Q495 429 495 339 L495 176 Q495 87 437 36 Q377 -15 270 -15 Q165 -15 105 36 Q46 87 46 176 L46 339 Z M406 340 Q406 392 370 421 Q334 450 270 450 Q207 450 171 421 Q135 392 135 340 L135 176 Q135 124 171 95 Q207 66 270 66 Q334 66 370 95 Q406 124 406 176 L406 340 Z " />
<glyph glyph-name="ohungarumlaut" unicode="&#x151;" horiz-adv-x="541" d="M213 693 Q228 713 250 708 L276 699 Q298 692 283 675 L185 583 Q170 570 159 574 L146 578 Q128 584 139 600 L213 693 Z M372 692 Q387 713 409 707 L436 699 Q462 689 443 674 L338 581 Q322 568 312 572 L299 576 Q279 581 292 598 L372 692 Z M46 339 Q46 429 105 480 Q165 531 270 531 Q377 531 437 480 Q495 429 495 339 L495 176 Q495 87 437 36 Q377 -15 270 -15 Q165 -15 105 36 Q46 87 46 176 L46 339 Z M406 340 Q406 392 370 421 Q334 450 270 450 Q207 450 171 421 Q135 392 135 340 L135 176 Q135 124 171 95 Q207 66 270 66 Q334 66 370 95 Q406 124 406 176 L406 340 Z " />
<glyph glyph-name="omacron" unicode="&#x14d;" horiz-adv-x="541" d="M377 675 Q398 675 398 653 L398 634 Q398 613 377 613 L163 613 Q142 613 142 634 L142 653 Q142 675 163 675 L377 675 Z M46 339 Q46 429 105 480 Q165 531 270 531 Q377 531 437 480 Q495 429 495 339 L495 176 Q495 87 437 36 Q377 -15 270 -15 Q165 -15 105 36 Q46 87 46 176 L46 339 Z M406 340 Q406 392 370 421 Q334 450 270 450 Q207 450 171 421 Q135 392 135 340 L135 176 Q135 124 171 95 Q207 66 270 66 Q334 66 370 95 Q406 124 406 176 L406 340 Z " />
<glyph glyph-name="oslash" unicode="&#xf8;" horiz-adv-x="541" d="M476 552 Q485 552 480 543 L439 478 Q495 427 495 339 L495 176 Q495 87 437 36 Q377 -15 270 -15 Q198 -15 144 12 L119 -27 Q113 -35 101 -35 L66 -35 Q55 -35 62 -26 L103 39 Q46 88 46 176 L46 339 Q46 429 105 480 Q165 531 270 531 Q347 531 398 504 L424 544 Q430 552 440 552 L476 552 Z M352 431 Q317 450 270 450 Q207 450 171 421 Q135 392 135 340 L135 176 Q135 145 157 123 L352 431 Z M189 85 Q224 66 270 66 Q334 66 370 95 Q406 124 406 176 L406 340 Q406 372 385 393 L189 85 Z " />
<glyph glyph-name="oslashacute" unicode="&#x1ff;" horiz-adv-x="541" d="M317 724 Q346 739 361 722 L381 698 Q398 679 377 671 L202 587 Q180 578 172 588 L160 603 Q147 620 162 629 L317 724 Z M476 552 Q485 552 480 543 L439 478 Q495 427 495 339 L495 176 Q495 87 437 36 Q377 -15 270 -15 Q198 -15 144 12 L119 -27 Q113 -35 101 -35 L66 -35 Q55 -35 62 -26 L103 39 Q46 88 46 176 L46 339 Q46 429 105 480 Q165 531 270 531 Q347 531 398 504 L424 544 Q430 552 440 552 L476 552 Z M352 431 Q317 450 270 450 Q207 450 171 421 Q135 392 135 340 L135 176 Q135 145 157 123 L352 431 Z M189 85 Q224 66 270 66 Q334 66 370 95 Q406 124 406 176 L406 340 Q406 372 385 393 L189 85 Z " />
<glyph glyph-name="otilde" unicode="&#xf5;" horiz-adv-x="541" d="M405 714 Q420 714 420 699 Q420 594 339 594 Q304 594 263 625 Q223 656 201 656 Q168 656 168 609 Q168 594 154 594 L128 594 Q113 594 113 609 Q113 714 193 714 Q231 714 272 683 Q312 651 333 651 Q366 651 366 699 Q366 714 380 714 L405 714 Z M46 339 Q46 429 105 480 Q165 531 270 531 Q377 531 437 480 Q495 429 495 339 L495 176 Q495 87 437 36 Q377 -15 270 -15 Q165 -15 105 36 Q46 87 46 176 L46 339 Z M406 340 Q406 392 370 421 Q334 450 270 450 Q207 450 171 421 Q135 392 135 340 L135 176 Q135 124 171 95 Q207 66 270 66 Q334 66 370 95 Q406 124 406 176 L406 340 Z " />
<glyph glyph-name="oe" unicode="&#x153;" horiz-adv-x="823" d="M417 456 Q464 531 577 531 Q682 531 736 472 Q785 419 785 325 L785 266 Q785 231 748 231 L460 231 L460 182 Q460 63 576 63 Q655 63 695 131 Q710 153 734 141 L761 126 Q787 113 770 87 Q711 -15 575 -15 Q462 -15 416 58 Q368 -15 253 -15 Q155 -15 101 36 Q47 86 47 176 L47 340 Q47 429 101 480 Q155 531 253 531 Q370 531 417 456 Z M695 330 Q695 455 577 455 Q460 455 460 330 L460 300 L695 300 L695 330 Z M370 340 Q370 450 253 450 Q137 450 137 340 L137 176 Q137 124 168 95 Q198 66 253 66 Q370 66 370 176 L370 340 Z " />
<glyph glyph-name="p" unicode="p" horiz-adv-x="539" d="M100 502 Q175 531 284 531 Q493 531 493 330 L493 189 Q493 -15 280 -15 Q228 -15 150 12 L150 -196 Q150 -220 126 -220 L84 -220 Q61 -220 61 -196 L61 445 Q61 486 100 502 Z M403 327 Q403 449 271 449 Q216 449 165 434 Q150 427 150 413 L150 93 Q225 67 273 67 Q403 67 403 192 L403 327 Z " />
<glyph glyph-name="thorn" unicode="&#xfe;" horiz-adv-x="541" d="M63 716 Q63 739 87 739 L129 739 Q152 739 152 716 L152 506 Q223 527 286 527 Q495 527 495 326 L495 189 Q495 -15 282 -15 Q230 -15 152 12 L152 -196 Q152 -220 129 -220 L87 -220 Q63 -220 63 -196 L63 716 Z M406 324 Q406 446 274 446 Q224 446 152 422 L152 92 Q227 67 276 67 Q406 67 406 191 L406 324 Z " />
<glyph glyph-name="q" unicode="q" horiz-adv-x="539" d="M266 531 Q371 531 441 500 Q465 490 472 480 Q478 470 478 445 L478 -196 Q478 -220 455 -220 L413 -220 Q389 -220 389 -196 L389 13 Q311 -15 248 -15 Q46 -15 46 183 L46 324 Q46 531 266 531 Z M136 186 Q136 67 261 67 Q308 67 389 93 L389 413 Q389 427 373 434 Q324 449 273 449 Q136 449 136 321 L136 186 Z " />
<glyph glyph-name="r" unicode="r" horiz-adv-x="346" d="M314 531 Q338 531 338 507 L338 473 Q338 449 314 449 L279 449 Q219 449 164 432 Q150 427 150 412 L150 24 Q150 0 126 0 L84 0 Q61 0 61 24 L61 444 Q61 484 99 500 Q174 529 282 531 L314 531 Z " />
<glyph glyph-name="racute" unicode="&#x155;" horiz-adv-x="346" d="M252 724 Q282 739 297 722 L316 698 Q333 678 313 671 L137 587 Q115 578 107 588 L96 603 Q82 620 97 629 L252 724 Z M314 531 Q338 531 338 507 L338 473 Q338 449 314 449 L279 449 Q219 449 164 432 Q150 427 150 412 L150 24 Q150 0 126 0 L84 0 Q61 0 61 24 L61 444 Q61 484 99 500 Q174 529 282 531 L314 531 Z " />
<glyph glyph-name="rcaron" unicode="&#x159;" horiz-adv-x="346" d="M342 708 Q368 708 352 690 L249 595 Q229 575 209 575 L200 575 Q176 575 157 595 L53 690 Q39 708 63 708 L94 708 Q116 708 128 696 L202 630 L274 696 Q285 708 309 708 L342 708 Z M313 531 Q337 531 337 507 L337 473 Q337 449 313 449 L278 449 Q218 449 163 432 Q149 427 149 412 L149 24 Q149 0 125 0 L83 0 Q60 0 60 24 L60 444 Q60 484 98 500 Q173 529 281 531 L313 531 Z " />
<glyph glyph-name="uni0157" unicode="&#x157;" horiz-adv-x="346" d="M313 531 Q337 531 337 507 L337 473 Q337 449 313 449 L278 449 Q218 449 163 432 Q149 427 149 412 L149 24 Q149 0 125 0 L83 0 Q60 0 60 24 L60 444 Q60 484 98 500 Q173 529 281 531 L313 531 Z M109 -201 Q103 -224 79 -224 L55 -224 Q37 -224 38 -205 L61 -68 Q63 -41 92 -41 L126 -41 Q156 -41 147 -68 L109 -201 Z " />
<glyph glyph-name="s" unicode="s" horiz-adv-x="500" d="M41 376 Q41 448 92 488 Q144 531 242 531 Q401 531 451 423 Q463 399 439 388 L405 374 Q385 365 372 385 Q340 450 244 450 Q130 450 130 378 Q130 334 167 317 Q193 305 266 299 Q365 289 408 262 Q464 226 464 145 Q464 71 412 29 Q357 -15 255 -15 Q83 -15 36 108 Q26 132 51 140 L85 152 Q107 159 117 137 Q145 65 252 65 Q377 65 377 141 Q377 183 342 200 Q315 213 244 220 Q147 230 105 253 Q41 290 41 376 Z " />
<glyph glyph-name="sacute" unicode="&#x15b;" horiz-adv-x="500" d="M296 724 Q326 741 341 722 L360 698 Q377 678 357 671 L182 587 Q159 579 151 589 L140 603 Q126 620 141 629 L296 724 Z M41 376 Q41 448 92 488 Q144 531 242 531 Q401 531 451 423 Q463 399 439 388 L405 374 Q385 365 372 385 Q340 450 244 450 Q130 450 130 378 Q130 334 167 317 Q193 305 266 299 Q365 289 408 262 Q464 226 464 145 Q464 71 412 29 Q357 -15 255 -15 Q83 -15 36 108 Q26 132 51 140 L85 152 Q107 159 117 137 Q145 65 252 65 Q377 65 377 141 Q377 183 342 200 Q315 213 244 220 Q147 230 105 253 Q41 290 41 376 Z " />
<glyph glyph-name="scaron" unicode="&#x161;" horiz-adv-x="500" d="M385 705 Q413 705 395 687 L293 594 Q275 575 254 575 L245 575 Q222 575 203 594 L101 687 Q83 705 110 705 L141 705 Q162 705 175 693 L247 628 L318 693 Q330 705 353 705 L385 705 Z M41 376 Q41 448 92 488 Q144 531 242 531 Q401 531 451 423 Q463 399 439 388 L405 374 Q385 365 372 385 Q340 450 244 450 Q130 450 130 378 Q130 334 167 317 Q193 305 266 299 Q365 289 408 262 Q464 226 464 145 Q464 71 412 29 Q357 -15 255 -15 Q83 -15 36 108 Q26 132 51 140 L85 152 Q107 159 117 137 Q145 65 252 65 Q377 65 377 141 Q377 183 342 200 Q315 213 244 220 Q147 230 105 253 Q41 290 41 376 Z " />
<glyph glyph-name="scedilla" unicode="&#x15f;" horiz-adv-x="500" d="M41 376 Q41 448 92 488 Q144 531 242 531 Q401 531 451 423 Q463 399 439 388 L405 374 Q385 365 372 385 Q340 450 244 450 Q130 450 130 378 Q130 334 167 317 Q193 305 266 299 Q365 289 408 262 Q464 226 464 145 Q464 -1 282 -13 L260 -71 Q270 -69 279 -69 Q317 -69 341 -92 Q364 -115 362 -151 Q355 -243 239 -243 Q195 -243 163 -228 Q150 -220 150 -205 L149 -182 Q149 -165 161 -173 Q193 -192 228 -192 Q286 -192 286 -147 Q286 -113 235 -112 Q220 -112 206 -115 Q186 -117 195 -95 L229 -14 Q79 -5 36 108 Q26 132 51 140 L85 152 Q107 159 117 137 Q145 65 252 65 Q377 65 377 141 Q377 183 342 200 Q315 213 244 220 Q147 230 105 253 Q41 290 41 376 Z " />
<glyph glyph-name="scircumflex" unicode="&#x15d;" horiz-adv-x="500" d="M256 721 Q278 721 299 700 L410 599 Q427 580 398 580 L364 580 Q339 580 326 593 L249 663 L171 593 Q158 580 134 580 L102 580 Q72 580 91 599 L201 700 Q223 721 247 721 L256 721 Z M41 376 Q41 448 92 488 Q144 531 242 531 Q401 531 451 423 Q463 399 439 388 L405 374 Q385 365 372 385 Q340 450 244 450 Q130 450 130 378 Q130 334 167 317 Q193 305 266 299 Q365 289 408 262 Q464 226 464 145 Q464 71 412 29 Q357 -15 255 -15 Q83 -15 36 108 Q26 132 51 140 L85 152 Q107 159 117 137 Q145 65 252 65 Q377 65 377 141 Q377 183 342 200 Q315 213 244 220 Q147 230 105 253 Q41 290 41 376 Z " />
<glyph glyph-name="uni0219" unicode="&#x219;" horiz-adv-x="500" d="M41 376 Q41 448 92 488 Q144 531 242 531 Q401 531 451 423 Q463 399 439 388 L405 374 Q385 365 372 385 Q340 450 244 450 Q130 450 130 378 Q130 334 167 317 Q193 305 266 299 Q365 289 408 262 Q464 226 464 145 Q464 71 412 29 Q357 -15 255 -15 Q83 -15 36 108 Q26 132 51 140 L85 152 Q107 159 117 137 Q145 65 252 65 Q377 65 377 141 Q377 183 342 200 Q315 213 244 220 Q147 230 105 253 Q41 290 41 376 Z M266 -200 Q258 -222 236 -222 L212 -222 Q194 -222 195 -203 L219 -75 Q223 -47 250 -47 L284 -47 Q314 -47 304 -75 L266 -200 Z " />
<glyph glyph-name="germandbls" unicode="&#xdf;" horiz-adv-x="551" d="M63 528 Q63 629 117 688 Q172 750 272 750 Q377 750 433 696 Q486 643 486 547 Q486 432 403 391 L403 388 Q512 350 512 205 Q512 106 457 53 Q402 0 302 0 L235 0 Q208 0 208 26 L208 63 Q208 90 235 90 L293 90 Q414 90 414 216 Q414 272 384 305 Q353 338 297 338 L237 338 Q210 338 210 364 L210 399 Q210 425 237 425 L289 425 Q339 425 367 460 Q392 491 392 538 Q392 660 271 660 Q215 660 183 624 Q152 589 152 529 L152 26 Q152 0 126 0 L89 0 Q63 0 63 26 L63 528 Z " />
<glyph glyph-name="longs" unicode="&#x17f;" horiz-adv-x="276" d="M103 535 Q103 641 156 690 Q208 740 322 740 Q346 740 346 716 L346 681 Q346 657 322 657 Q250 657 221 627 Q193 598 193 528 L193 24 Q193 0 168 0 L128 0 Q103 0 103 24 L103 433 L34 433 Q11 433 11 457 L11 492 Q11 516 34 516 L103 516 L103 535 Z " />
<glyph glyph-name="t" unicode="t" horiz-adv-x="372" d="M179 636 Q203 636 203 612 L203 516 L334 516 Q357 516 357 492 L357 457 Q357 433 334 433 L203 433 L203 200 Q203 121 231 94 Q257 70 332 70 Q357 70 357 46 L357 10 Q357 -13 332 -14 Q211 -17 163 28 Q114 74 114 198 L114 433 L31 433 Q7 433 7 457 L7 492 Q7 516 31 516 L114 516 L114 612 Q114 636 137 636 L179 636 Z " />
<glyph glyph-name="tbar" unicode="&#x167;" horiz-adv-x="378" d="M184 637 Q208 637 208 613 L208 517 L338 517 Q362 517 362 493 L362 458 Q362 434 338 434 L208 434 L208 297 L312 297 Q328 297 328 280 L328 251 Q328 234 312 234 L208 234 L208 199 Q208 120 236 95 Q262 71 337 71 Q361 71 361 47 L361 11 Q361 -13 337 -13 Q216 -16 168 28 Q118 75 118 198 L118 234 L43 234 Q27 234 27 251 L27 280 Q27 297 43 297 L118 297 L118 434 L36 434 Q12 434 12 458 L12 493 Q12 517 36 517 L118 517 L118 613 Q118 637 142 637 L184 637 Z " />
<glyph glyph-name="tcaron" unicode="&#x165;" horiz-adv-x="372" d="M339 577 Q332 555 312 555 L291 555 Q275 555 276 572 L297 716 Q300 740 325 740 L362 740 Q392 740 383 716 L339 577 Z M179 636 Q203 636 203 612 L203 516 L334 516 Q357 516 357 492 L357 457 Q357 433 334 433 L203 433 L203 200 Q203 121 231 94 Q257 70 332 70 Q357 70 357 46 L357 10 Q357 -13 332 -14 Q211 -17 163 28 Q114 74 114 198 L114 433 L31 433 Q7 433 7 457 L7 492 Q7 516 31 516 L114 516 L114 612 Q114 636 137 636 L179 636 Z " />
<glyph glyph-name="uni021B" unicode="&#x21b;" horiz-adv-x="372" d="M179 636 Q203 636 203 612 L203 516 L334 516 Q357 516 357 492 L357 457 Q357 433 334 433 L203 433 L203 200 Q203 121 231 94 Q257 70 332 70 Q357 70 357 46 L357 10 Q357 -13 332 -14 Q211 -17 163 28 Q114 74 114 198 L114 433 L31 433 Q7 433 7 457 L7 492 Q7 516 31 516 L114 516 L114 612 Q114 636 137 636 L179 636 Z M227 -230 Q219 -253 199 -253 L170 -253 Q153 -253 154 -235 L182 -92 Q185 -67 211 -67 L251 -67 Q282 -67 273 -92 L227 -230 Z " />
<glyph glyph-name="u" unicode="u" horiz-adv-x="551" d="M466 516 Q490 516 490 492 L490 75 Q490 35 452 19 Q361 -15 261 -15 Q58 -15 58 183 L58 492 Q58 516 82 516 L124 516 Q147 516 147 492 L147 186 Q147 67 273 67 Q331 67 386 84 Q401 91 401 107 L401 492 Q401 516 425 516 L466 516 Z " />
<glyph glyph-name="uacute" unicode="&#xfa;" horiz-adv-x="551" d="M321 724 Q350 739 365 722 L385 698 Q402 679 381 671 L206 587 Q184 578 176 588 L164 603 Q151 620 166 629 L321 724 Z M466 516 Q490 516 490 492 L490 75 Q490 35 452 19 Q361 -15 261 -15 Q58 -15 58 183 L58 492 Q58 516 82 516 L124 516 Q147 516 147 492 L147 186 Q147 67 273 67 Q331 67 386 84 Q401 91 401 107 L401 492 Q401 516 425 516 L466 516 Z " />
<glyph glyph-name="ubreve" unicode="&#x16d;" horiz-adv-x="551" d="M428 689 Q393 584 274 584 Q154 584 122 689 Q117 705 132 712 L164 724 Q181 729 188 715 Q208 649 274 649 Q342 649 361 715 Q367 729 382 724 L417 712 Q433 704 428 689 Z M466 516 Q490 516 490 492 L490 75 Q490 35 452 19 Q361 -15 261 -15 Q58 -15 58 183 L58 492 Q58 516 82 516 L124 516 Q147 516 147 492 L147 186 Q147 67 273 67 Q331 67 386 84 Q401 91 401 107 L401 492 Q401 516 425 516 L466 516 Z " />
<glyph glyph-name="ucircumflex" unicode="&#xfb;" horiz-adv-x="551" d="M281 725 Q304 725 325 704 L438 601 Q456 581 426 581 L391 581 Q365 581 352 595 L274 666 L194 595 Q180 581 157 581 L123 581 Q92 581 112 601 L225 704 Q246 725 271 725 L281 725 Z M466 516 Q490 516 490 492 L490 75 Q490 35 452 19 Q361 -15 261 -15 Q58 -15 58 183 L58 492 Q58 516 82 516 L124 516 Q147 516 147 492 L147 186 Q147 67 273 67 Q331 67 386 84 Q401 91 401 107 L401 492 Q401 516 425 516 L466 516 Z " />
<glyph glyph-name="udieresis" unicode="&#xfc;" horiz-adv-x="551" d="M179 697 Q221 697 221 656 L221 647 Q221 606 179 606 L172 606 Q131 606 131 647 L131 656 Q131 697 172 697 L179 697 Z M376 697 Q417 697 417 656 L417 647 Q417 606 376 606 L369 606 Q327 606 327 647 L327 656 Q327 697 369 697 L376 697 Z M466 516 Q490 516 490 492 L490 75 Q490 35 452 19 Q361 -15 261 -15 Q58 -15 58 183 L58 492 Q58 516 82 516 L124 516 Q147 516 147 492 L147 186 Q147 67 273 67 Q331 67 386 84 Q401 91 401 107 L401 492 Q401 516 425 516 L466 516 Z " />
<glyph glyph-name="ugrave" unicode="&#xf9;" horiz-adv-x="551" d="M186 722 Q201 739 230 724 L385 629 Q400 620 387 603 L375 588 Q367 578 345 587 L169 671 Q150 679 166 698 L186 722 Z M466 516 Q490 516 490 492 L490 75 Q490 35 452 19 Q361 -15 261 -15 Q58 -15 58 183 L58 492 Q58 516 82 516 L124 516 Q147 516 147 492 L147 186 Q147 67 273 67 Q331 67 386 84 Q401 91 401 107 L401 492 Q401 516 425 516 L466 516 Z " />
<glyph glyph-name="uhungarumlaut" unicode="&#x171;" horiz-adv-x="551" d="M212 708 Q229 732 253 724 L281 715 Q304 707 288 689 L182 589 Q166 574 154 579 L140 583 Q119 589 132 607 L212 708 Z M385 708 Q402 730 425 724 L455 715 Q482 705 462 688 L348 587 Q331 572 319 577 L305 581 Q283 588 297 605 L385 708 Z M466 516 Q490 516 490 492 L490 75 Q490 35 452 19 Q361 -15 261 -15 Q58 -15 58 183 L58 492 Q58 516 82 516 L124 516 Q147 516 147 492 L147 186 Q147 67 273 67 Q331 67 386 84 Q401 91 401 107 L401 492 Q401 516 425 516 L466 516 Z " />
<glyph glyph-name="umacron" unicode="&#x16b;" horiz-adv-x="551" d="M391 682 Q414 682 414 659 L414 639 Q414 617 391 617 L157 617 Q135 617 135 639 L135 659 Q135 682 157 682 L391 682 Z M466 516 Q490 516 490 492 L490 75 Q490 35 452 19 Q361 -15 261 -15 Q58 -15 58 183 L58 492 Q58 516 82 516 L124 516 Q147 516 147 492 L147 186 Q147 67 273 67 Q331 67 386 84 Q401 91 401 107 L401 492 Q401 516 425 516 L466 516 Z " />
<glyph glyph-name="uogonek" unicode="&#x173;" horiz-adv-x="551" d="M466 516 Q490 516 490 492 L490 75 Q490 47 477 34 Q429 -19 404 -77 Q382 -129 390 -155 Q398 -179 423 -179 Q446 -179 463 -163 Q473 -155 478 -167 L489 -193 Q493 -205 487 -210 Q451 -246 395 -246 Q325 -246 313 -191 Q290 -104 392 2 Q336 -15 261 -15 Q58 -15 58 183 L58 492 Q58 516 82 516 L124 516 Q147 516 147 492 L147 186 Q147 67 273 67 Q331 67 386 84 Q401 91 401 107 L401 492 Q401 516 425 516 L466 516 Z " />
<glyph glyph-name="uring" unicode="&#x16f;" horiz-adv-x="551" d="M171 647 Q171 693 200 721 Q230 750 277 750 Q323 750 351 721 Q380 693 380 647 Q380 602 351 574 Q323 546 277 546 Q230 546 200 574 Q171 602 171 647 Z M334 647 Q334 704 277 704 Q217 704 217 647 Q217 591 277 591 Q334 591 334 647 Z M466 516 Q490 516 490 492 L490 75 Q490 35 452 19 Q361 -15 261 -15 Q58 -15 58 183 L58 492 Q58 516 82 516 L124 516 Q147 516 147 492 L147 186 Q147 67 273 67 Q331 67 386 84 Q401 91 401 107 L401 492 Q401 516 425 516 L466 516 Z " />
<glyph glyph-name="utilde" unicode="&#x169;" horiz-adv-x="551" d="M409 714 Q424 714 424 699 Q424 594 343 594 Q308 594 267 625 Q227 656 205 656 Q172 656 172 609 Q172 594 158 594 L132 594 Q117 594 117 609 Q117 714 197 714 Q235 714 276 683 Q316 651 337 651 Q370 651 370 699 Q370 714 384 714 L409 714 Z M466 516 Q490 516 490 492 L490 75 Q490 35 452 19 Q361 -15 261 -15 Q58 -15 58 183 L58 492 Q58 516 82 516 L124 516 Q147 516 147 492 L147 186 Q147 67 273 67 Q331 67 386 84 Q401 91 401 107 L401 492 Q401 516 425 516 L466 516 Z " />
<glyph glyph-name="v" unicode="v" horiz-adv-x="509" d="M473 516 Q503 516 492 489 L299 20 Q290 -2 266 -2 L241 -2 Q217 -2 208 20 L15 488 Q8 504 13 510 Q17 516 35 516 L65 516 Q98 516 107 492 L224 203 Q233 180 242 143 L252 107 L256 107 L265 142 Q274 177 283 202 L399 492 Q408 516 441 516 L473 516 Z " />
<glyph glyph-name="w" unicode="w" horiz-adv-x="733" d="M689 516 Q706 516 710 510 Q714 505 709 488 L567 19 Q562 -2 535 -2 L508 -2 Q482 -2 474 19 L385 314 Q379 337 373 373 L366 407 L362 407 L356 373 Q350 339 343 314 L254 19 Q248 -2 221 -2 L195 -2 Q168 -2 162 19 L22 488 Q17 505 20 510 Q24 516 42 516 L72 516 Q109 516 114 492 L189 221 Q195 198 202 154 Q208 112 209 109 L213 109 L222 154 Q229 198 236 222 L318 484 Q326 509 358 509 L376 509 Q407 509 415 485 L498 224 Q506 197 513 153 L521 109 L526 109 Q527 111 532 151 Q538 194 545 223 L620 492 Q626 516 663 516 L689 516 Z " />
<glyph glyph-name="wacute" unicode="&#x1e83;" horiz-adv-x="733" d="M414 724 Q444 739 458 722 L478 698 Q494 679 475 671 L299 587 Q277 578 269 588 L257 603 Q244 620 259 629 L414 724 Z M689 516 Q706 516 710 510 Q714 505 709 488 L567 19 Q562 -2 535 -2 L508 -2 Q482 -2 474 19 L385 314 Q379 337 373 373 L366 407 L362 407 L356 373 Q350 339 343 314 L254 19 Q248 -2 221 -2 L195 -2 Q168 -2 162 19 L22 488 Q17 505 20 510 Q24 516 42 516 L72 516 Q109 516 114 492 L189 221 Q195 198 202 154 Q208 112 209 109 L213 109 L222 154 Q229 198 236 222 L318 484 Q326 509 358 509 L376 509 Q407 509 415 485 L498 224 Q506 197 513 153 L521 109 L526 109 Q527 111 532 151 Q538 194 545 223 L620 492 Q626 516 663 516 L689 516 Z " />
<glyph glyph-name="wcircumflex" unicode="&#x175;" horiz-adv-x="733" d="M374 720 Q397 720 417 700 L527 599 Q546 580 516 580 L482 580 Q455 580 444 593 L367 662 L288 593 Q275 580 252 580 L220 580 Q191 580 208 599 L319 700 Q339 720 365 720 L374 720 Z M689 516 Q706 516 710 510 Q714 505 709 488 L567 19 Q562 -2 535 -2 L508 -2 Q482 -2 474 19 L385 314 Q379 337 373 373 L366 407 L362 407 L356 373 Q350 339 343 314 L254 19 Q248 -2 221 -2 L195 -2 Q168 -2 162 19 L22 488 Q17 505 20 510 Q24 516 42 516 L72 516 Q109 516 114 492 L189 221 Q195 198 202 154 Q208 112 209 109 L213 109 L222 154 Q229 198 236 222 L318 484 Q326 509 358 509 L376 509 Q407 509 415 485 L498 224 Q506 197 513 153 L521 109 L526 109 Q527 111 532 151 Q538 194 545 223 L620 492 Q626 516 663 516 L689 516 Z " />
<glyph glyph-name="wdieresis" unicode="&#x1e85;" horiz-adv-x="733" d="M272 697 Q314 697 314 656 L314 647 Q314 606 272 606 L265 606 Q224 606 224 647 L224 656 Q224 697 265 697 L272 697 Z M469 697 Q511 697 511 656 L511 647 Q511 606 469 606 L463 606 Q420 606 420 647 L420 656 Q420 697 463 697 L469 697 Z M689 516 Q706 516 710 510 Q714 505 709 488 L567 19 Q562 -2 535 -2 L508 -2 Q482 -2 474 19 L385 314 Q379 337 373 373 L366 407 L362 407 L356 373 Q350 339 343 314 L254 19 Q248 -2 221 -2 L195 -2 Q168 -2 162 19 L22 488 Q17 505 20 510 Q24 516 42 516 L72 516 Q109 516 114 492 L189 221 Q195 198 202 154 Q208 112 209 109 L213 109 L222 154 Q229 198 236 222 L318 484 Q326 509 358 509 L376 509 Q407 509 415 485 L498 224 Q506 197 513 153 L521 109 L526 109 Q527 111 532 151 Q538 194 545 223 L620 492 Q626 516 663 516 L689 516 Z " />
<glyph glyph-name="wgrave" unicode="&#x1e81;" horiz-adv-x="733" d="M279 722 Q294 739 323 724 L478 629 Q494 621 480 603 L468 588 Q461 578 438 587 L263 671 Q244 678 259 698 L279 722 Z M689 516 Q706 516 710 510 Q714 505 709 488 L567 19 Q562 -2 535 -2 L508 -2 Q482 -2 474 19 L385 314 Q379 337 373 373 L366 407 L362 407 L356 373 Q350 339 343 314 L254 19 Q248 -2 221 -2 L195 -2 Q168 -2 162 19 L22 488 Q17 505 20 510 Q24 516 42 516 L72 516 Q109 516 114 492 L189 221 Q195 198 202 154 Q208 112 209 109 L213 109 L222 154 Q229 198 236 222 L318 484 Q326 509 358 509 L376 509 Q407 509 415 485 L498 224 Q506 197 513 153 L521 109 L526 109 Q527 111 532 151 Q538 194 545 223 L620 492 Q626 516 663 516 L689 516 Z " />
<glyph glyph-name="x" unicode="x" horiz-adv-x="497" d="M447 516 Q482 516 464 488 L302 265 L474 28 Q493 0 457 0 L419 0 Q390 0 376 20 L245 201 L117 20 Q105 0 74 0 L37 0 Q1 0 20 28 L192 265 L27 488 Q9 516 46 516 L82 516 Q112 516 126 496 L247 330 L368 496 Q381 516 409 516 L447 516 Z " />
<glyph glyph-name="y" unicode="y" horiz-adv-x="553" d="M466 516 Q490 516 490 492 L490 -25 Q490 -241 274 -241 Q129 -241 71 -139 Q55 -114 81 -101 L110 -85 Q133 -73 149 -94 Q188 -161 273 -161 Q401 -161 401 -29 L401 25 Q324 4 261 4 Q58 4 58 202 L58 492 Q58 516 82 516 L124 516 Q147 516 147 492 L147 205 Q147 86 273 86 Q333 86 401 107 L401 492 Q401 516 425 516 L466 516 Z " />
<glyph glyph-name="yacute" unicode="&#xfd;" horiz-adv-x="553" d="M321 724 Q350 739 365 722 L385 698 Q402 679 381 671 L206 587 Q184 578 176 588 L164 603 Q151 620 166 629 L321 724 Z M466 516 Q490 516 490 492 L490 -25 Q490 -241 274 -241 Q129 -241 71 -139 Q55 -114 81 -101 L110 -85 Q133 -73 149 -94 Q188 -161 273 -161 Q401 -161 401 -29 L401 25 Q324 4 261 4 Q58 4 58 202 L58 492 Q58 516 82 516 L124 516 Q147 516 147 492 L147 205 Q147 86 273 86 Q333 86 401 107 L401 492 Q401 516 425 516 L466 516 Z " />
<glyph glyph-name="ycircumflex" unicode="&#x177;" horiz-adv-x="553" d="M281 720 Q304 720 324 700 L434 599 Q451 580 423 580 L388 580 Q362 580 350 593 L274 662 L195 593 Q182 580 159 580 L127 580 Q98 580 115 599 L226 700 Q246 720 271 720 L281 720 Z M466 516 Q490 516 490 492 L490 -25 Q490 -241 274 -241 Q129 -241 71 -139 Q55 -114 81 -101 L110 -85 Q133 -73 149 -94 Q188 -161 273 -161 Q401 -161 401 -29 L401 25 Q324 4 261 4 Q58 4 58 202 L58 492 Q58 516 82 516 L124 516 Q147 516 147 492 L147 205 Q147 86 273 86 Q333 86 401 107 L401 492 Q401 516 425 516 L466 516 Z " />
<glyph glyph-name="ydieresis" unicode="&#xff;" horiz-adv-x="553" d="M179 697 Q221 697 221 656 L221 647 Q221 606 179 606 L172 606 Q131 606 131 647 L131 656 Q131 697 172 697 L179 697 Z M376 697 Q417 697 417 656 L417 647 Q417 606 376 606 L369 606 Q327 606 327 647 L327 656 Q327 697 369 697 L376 697 Z M466 516 Q490 516 490 492 L490 -25 Q490 -241 274 -241 Q129 -241 71 -139 Q55 -114 81 -101 L110 -85 Q133 -73 149 -94 Q188 -161 273 -161 Q401 -161 401 -29 L401 25 Q324 4 261 4 Q58 4 58 202 L58 492 Q58 516 82 516 L124 516 Q147 516 147 492 L147 205 Q147 86 273 86 Q333 86 401 107 L401 492 Q401 516 425 516 L466 516 Z " />
<glyph glyph-name="ygrave" unicode="&#x1ef3;" horiz-adv-x="553" d="M186 722 Q201 739 230 724 L385 629 Q400 620 387 603 L375 588 Q367 578 345 587 L169 671 Q150 679 166 698 L186 722 Z M466 516 Q490 516 490 492 L490 -25 Q490 -241 274 -241 Q129 -241 71 -139 Q55 -114 81 -101 L110 -85 Q133 -73 149 -94 Q188 -161 273 -161 Q401 -161 401 -29 L401 25 Q324 4 261 4 Q58 4 58 202 L58 492 Q58 516 82 516 L124 516 Q147 516 147 492 L147 205 Q147 86 273 86 Q333 86 401 107 L401 492 Q401 516 425 516 L466 516 Z " />
<glyph glyph-name="z" unicode="z" horiz-adv-x="463" d="M409 81 Q432 81 432 57 L432 24 Q432 0 409 0 L54 0 Q30 0 30 24 L30 57 Q30 70 39 82 L312 435 L58 435 Q35 435 35 459 L35 492 Q35 516 58 516 L404 516 Q428 516 428 492 L428 459 Q428 447 419 432 L144 81 L409 81 Z " />
<glyph glyph-name="zacute" unicode="&#x17a;" horiz-adv-x="463" d="M278 724 Q308 739 323 722 L342 698 Q358 679 339 671 L163 587 Q141 578 133 588 L122 603 Q108 620 123 629 L278 724 Z M409 81 Q432 81 432 57 L432 24 Q432 0 409 0 L54 0 Q30 0 30 24 L30 57 Q30 70 39 82 L312 435 L58 435 Q35 435 35 459 L35 492 Q35 516 58 516 L404 516 Q428 516 428 492 L428 459 Q428 447 419 432 L144 81 L409 81 Z " />
<glyph glyph-name="zcaron" unicode="&#x17e;" horiz-adv-x="463" d="M366 704 Q394 704 376 686 L275 593 Q257 574 236 574 L227 574 Q203 574 185 593 L83 686 Q67 704 93 704 L123 704 Q144 704 157 692 L229 627 L300 692 Q311 704 334 704 L366 704 Z M409 81 Q432 81 432 57 L432 24 Q432 0 409 0 L54 0 Q30 0 30 24 L30 57 Q30 70 39 82 L312 435 L58 435 Q35 435 35 459 L35 492 Q35 516 58 516 L404 516 Q428 516 428 492 L428 459 Q428 447 419 432 L144 81 L409 81 Z " />
<glyph glyph-name="zdotaccent" unicode="&#x17c;" horiz-adv-x="463" d="M234 696 Q259 696 268 687 Q277 678 277 653 L277 646 Q277 621 268 612 Q259 603 234 603 L229 603 Q204 603 195 612 Q186 621 186 646 L186 653 Q186 678 195 687 Q204 696 229 696 L234 696 Z M409 81 Q432 81 432 57 L432 24 Q432 0 409 0 L54 0 Q30 0 30 24 L30 57 Q30 70 39 82 L312 435 L58 435 Q35 435 35 459 L35 492 Q35 516 58 516 L404 516 Q428 516 428 492 L428 459 Q428 447 419 432 L144 81 L409 81 Z " />
<glyph glyph-name="uniFB01" unicode="&#xfb01;" horiz-adv-x="580" d="M494 740 Q518 740 518 716 L518 682 Q518 657 494 657 L328 657 Q257 657 228 630 Q199 602 199 535 L199 516 L494 516 Q518 516 518 492 L518 24 Q518 0 494 0 L452 0 Q428 0 428 24 L428 433 L199 433 L199 24 Q199 0 174 0 L134 0 Q109 0 109 24 L109 433 L33 433 Q10 433 10 457 L10 492 Q10 516 33 516 L109 516 L109 535 Q109 642 162 691 Q214 740 328 740 L494 740 Z " />
<glyph glyph-name="uniFB02" unicode="&#xfb02;" horiz-adv-x="553" d="M463 740 Q487 740 487 716 L487 24 Q487 0 463 0 L421 0 Q397 0 397 24 L397 657 L328 657 Q257 657 228 630 Q199 603 199 535 L199 516 L297 516 Q321 516 321 492 L321 457 Q321 433 297 433 L199 433 L199 24 Q199 0 174 0 L134 0 Q109 0 109 24 L109 433 L33 433 Q10 433 10 457 L10 492 Q10 516 33 516 L109 516 L109 536 Q109 641 162 691 Q214 740 328 740 L463 740 Z " />
<glyph glyph-name="ordfeminine" unicode="&#xaa;" horiz-adv-x="364" d="M61 614 Q101 670 183 670 Q309 670 309 546 L309 420 Q309 384 277 370 Q242 355 179 355 Q50 355 50 445 Q50 539 181 539 Q218 539 240 535 L240 552 Q240 611 181 611 Q143 611 116 579 Q106 570 92 575 L73 585 Q48 595 61 614 Z M240 485 Q201 488 177 488 Q118 488 118 447 Q118 409 176 409 Q213 409 229 415 Q240 420 240 433 L240 485 Z " />
<glyph glyph-name="ordmasculine" unicode="&#xba;" horiz-adv-x="369" d="M49 549 Q49 670 184 670 Q319 670 319 549 L319 476 Q319 356 184 356 Q49 356 49 476 L49 549 Z M247 552 Q247 607 184 607 Q122 607 122 552 L122 474 Q122 419 184 419 Q247 419 247 474 L247 552 Z " />
<glyph glyph-name="uni0410" unicode="&#x410;" horiz-adv-x="649" d="M636 26 Q645 0 618 0 L579 0 Q539 0 531 23 L469 186 L173 186 L111 23 Q102 0 63 0 L28 0 Q1 0 10 26 L270 690 Q277 712 303 712 L343 712 Q369 712 376 691 L636 26 Z M342 528 Q324 581 324 622 L318 622 Q319 624 315 592 Q311 557 301 529 L200 265 L442 265 L342 528 Z " />
<glyph glyph-name="uni0411" unicode="&#x411;" horiz-adv-x="631" d="M523 710 Q550 710 550 684 L550 646 Q550 620 523 620 L171 620 L171 421 L386 421 Q485 421 542 366 Q600 309 600 211 Q600 113 542 56 Q485 0 386 0 L100 0 Q74 0 74 25 L74 684 Q74 710 100 710 L523 710 Z M499 211 Q499 267 466 299 Q434 331 376 331 L171 331 L171 90 L376 90 Q434 90 466 122 Q499 155 499 211 Z " />
<glyph glyph-name="uni0412" unicode="&#x412;" horiz-adv-x="647" d="M380 710 Q474 710 526 663 Q579 615 579 526 Q579 412 493 370 L493 367 Q605 334 605 193 Q605 101 545 50 Q487 0 389 0 L100 0 Q74 0 74 26 L74 684 Q74 710 100 710 L380 710 Z M480 512 Q480 620 369 620 L171 620 L171 405 L369 405 Q480 405 480 512 Z M502 203 Q502 317 386 317 L171 317 L171 90 L386 90 Q502 90 502 203 Z " />
<glyph glyph-name="uni0413" unicode="&#x413;" horiz-adv-x="515" d="M474 710 Q500 710 500 684 L500 646 Q500 620 474 620 L171 620 L171 26 Q171 0 144 0 L100 0 Q74 0 74 26 L74 684 Q74 710 100 710 L474 710 Z " />
<glyph glyph-name="uni0414" unicode="&#x414;" horiz-adv-x="724" d="M594 710 Q621 710 621 684 L621 90 L679 90 Q705 90 705 64 L705 -127 Q705 -153 679 -153 L637 -153 Q610 -153 610 -127 L610 0 L111 0 L111 -127 Q111 -153 85 -153 L43 -153 Q17 -153 17 -127 L17 64 Q17 90 43 90 L73 90 Q171 157 171 479 L171 684 Q171 710 197 710 L594 710 Z M264 479 Q264 190 187 90 L524 90 L524 620 L264 620 L264 479 Z " />
<glyph glyph-name="uni0415" unicode="&#x415;" horiz-adv-x="576" d="M502 710 Q528 710 528 684 L528 646 Q528 620 502 620 L171 620 L171 405 L456 405 Q482 405 482 378 L482 341 Q482 315 456 315 L171 315 L171 90 L514 90 Q540 90 540 64 L540 26 Q540 0 514 0 L100 0 Q74 0 74 26 L74 684 Q74 710 100 710 L502 710 Z " />
<glyph glyph-name="uni0401" unicode="&#x401;" horiz-adv-x="576" d="M208 867 Q250 867 250 826 L250 817 Q250 776 208 776 L201 776 Q160 776 160 817 L160 826 Q160 867 201 867 L208 867 Z M405 867 Q447 867 447 826 L447 817 Q447 776 405 776 L399 776 Q356 776 356 817 L356 826 Q356 867 399 867 L405 867 Z M502 710 Q528 710 528 684 L528 646 Q528 620 502 620 L171 620 L171 405 L456 405 Q482 405 482 378 L482 341 Q482 315 456 315 L171 315 L171 90 L514 90 Q540 90 540 64 L540 26 Q540 0 514 0 L100 0 Q74 0 74 26 L74 684 Q74 710 100 710 L502 710 Z " />
<glyph glyph-name="uni0416" unicode="&#x416;" horiz-adv-x="928" d="M884 710 Q898 710 901 702 Q905 694 897 685 L689 374 Q744 347 782 272 L908 27 Q922 0 895 0 L851 0 Q810 0 798 23 L692 237 Q670 282 643 299 Q614 316 559 316 L512 316 L512 26 Q512 0 486 0 L442 0 Q416 0 416 26 L416 316 L369 316 Q314 316 285 299 Q258 282 236 237 L130 23 Q118 0 77 0 L33 0 Q6 0 20 27 L147 272 Q183 346 239 374 L31 685 Q14 710 44 710 L93 710 Q132 710 146 688 L331 402 Q344 404 369 404 L416 404 L416 684 Q416 710 442 710 L486 710 Q512 710 512 684 L512 404 L559 404 Q585 404 597 402 L783 688 Q796 710 835 710 L884 710 Z " />
<glyph glyph-name="uni0417" unicode="&#x417;" horiz-adv-x="627" d="M561 523 Q561 409 475 369 Q583 328 583 196 Q583 -15 325 -15 Q92 -15 36 157 Q27 181 52 191 L94 206 Q118 214 127 189 Q165 75 325 75 Q481 75 481 200 Q481 318 366 318 L209 318 Q182 318 182 344 L182 379 Q182 405 209 405 L355 405 Q408 405 436 436 Q463 466 463 515 Q463 635 319 635 Q170 635 133 523 Q125 500 100 507 L58 522 Q32 531 42 555 Q98 725 325 725 Q440 725 501 672 Q561 619 561 523 Z " />
<glyph glyph-name="uni0418" unicode="&#x418;" horiz-adv-x="696" d="M596 710 Q622 710 622 684 L622 26 Q622 0 596 0 L552 0 Q526 0 526 26 L526 374 Q526 486 544 589 L540 589 Q506 513 437 406 L172 13 Q163 0 145 0 L100 0 Q74 0 74 26 L74 684 Q74 710 100 710 L144 710 Q171 710 171 684 L171 343 Q171 235 153 121 L156 121 Q197 210 265 313 L525 697 Q533 710 551 710 L596 710 Z " />
<glyph glyph-name="uni0419" unicode="&#x419;" horiz-adv-x="696" d="M519 871 Q482 764 351 764 Q221 764 184 871 Q179 887 196 894 L230 906 Q249 911 257 897 Q278 830 351 830 Q424 830 447 897 Q453 911 469 907 L508 894 Q525 886 519 871 Z M596 710 Q622 710 622 684 L622 26 Q622 0 596 0 L552 0 Q526 0 526 26 L526 374 Q526 486 544 589 L540 589 Q506 513 437 406 L172 13 Q163 0 145 0 L100 0 Q74 0 74 26 L74 684 Q74 710 100 710 L144 710 Q171 710 171 684 L171 343 Q171 235 153 121 L156 121 Q197 210 265 313 L525 697 Q533 710 551 710 L596 710 Z " />
<glyph glyph-name="uni041A" unicode="&#x41a;" horiz-adv-x="617" d="M598 27 Q612 0 584 0 L540 0 Q499 0 488 23 L382 237 Q359 282 332 299 Q304 316 249 316 L171 316 L171 26 Q171 0 144 0 L100 0 Q74 0 74 26 L74 684 Q74 710 100 710 L144 710 Q171 710 171 684 L171 404 L259 404 L472 688 Q489 710 525 710 L574 710 Q587 710 591 702 Q595 694 587 685 L356 385 Q427 361 471 272 L598 27 Z " />
<glyph glyph-name="uni041B" unicode="&#x41b;" horiz-adv-x="665" d="M563 710 Q590 710 590 684 L590 26 Q590 0 563 0 L519 0 Q493 0 493 26 L493 620 L240 620 L240 464 Q240 214 186 105 Q150 34 61 -10 Q36 -21 26 2 L6 40 Q-6 65 19 76 Q81 107 105 162 Q145 251 145 464 L145 684 Q145 710 171 710 L563 710 Z " />
<glyph glyph-name="uni041C" unicode="&#x41c;" horiz-adv-x="805" d="M705 710 Q731 710 731 684 L731 26 Q731 0 705 0 L665 0 Q639 0 639 26 L639 387 Q639 470 657 575 L652 575 Q623 497 572 407 L445 181 Q434 162 414 162 L389 162 Q369 162 358 181 L229 409 Q185 484 154 575 L148 575 Q164 480 164 387 L164 26 Q164 0 138 0 L100 0 Q74 0 74 26 L74 684 Q74 710 100 710 L135 710 Q161 710 172 690 L402 281 L631 689 Q642 710 667 710 L705 710 Z " />
<glyph glyph-name="uni041D" unicode="&#x41d;" horiz-adv-x="683" d="M583 710 Q609 710 609 684 L609 26 Q609 0 583 0 L539 0 Q513 0 513 26 L513 315 L171 315 L171 26 Q171 0 144 0 L100 0 Q74 0 74 26 L74 684 Q74 710 100 710 L144 710 Q171 710 171 684 L171 405 L513 405 L513 684 Q513 710 539 710 L583 710 Z " />
<glyph glyph-name="uni041E" unicode="&#x41e;" horiz-adv-x="666" d="M53 469 Q53 589 125 656 Q199 725 333 725 Q467 725 541 656 Q613 589 613 469 L613 241 Q613 121 541 54 Q467 -15 333 -15 Q199 -15 125 54 Q53 121 53 241 L53 469 Z M516 469 Q516 549 469 592 Q421 635 333 635 Q245 635 197 592 Q150 549 150 469 L150 241 Q150 161 197 118 Q245 75 333 75 Q421 75 469 118 Q516 161 516 241 L516 469 Z " />
<glyph glyph-name="uni041F" unicode="&#x41f;" horiz-adv-x="678" d="M577 710 Q604 710 604 684 L604 26 Q604 0 577 0 L533 0 Q507 0 507 26 L507 620 L171 620 L171 26 Q171 0 144 0 L100 0 Q74 0 74 26 L74 684 Q74 710 100 710 L577 710 Z " />
<glyph glyph-name="uni0420" unicode="&#x420;" horiz-adv-x="627" d="M367 710 Q473 710 535 650 Q597 589 597 483 Q597 378 535 318 Q474 258 367 258 L171 258 L171 26 Q171 0 144 0 L100 0 Q74 0 74 26 L74 684 Q74 710 100 710 L367 710 Z M358 348 Q423 348 459 383 Q496 419 496 483 Q496 547 459 584 Q423 620 358 620 L171 620 L171 348 L358 348 Z " />
<glyph glyph-name="uni0421" unicode="&#x421;" horiz-adv-x="638" d="M53 469 Q53 589 125 656 Q199 725 333 725 Q546 725 602 555 Q610 530 585 521 L544 507 Q519 499 510 523 Q473 635 333 635 Q150 635 150 470 L150 240 Q150 162 197 119 Q245 75 333 75 Q473 75 511 189 Q520 215 545 206 L586 191 Q612 183 603 157 Q547 -15 333 -15 Q199 -15 126 54 Q53 121 53 241 L53 469 Z " />
<glyph glyph-name="uni0422" unicode="&#x422;" horiz-adv-x="554" d="M514 710 Q540 710 540 684 L540 646 Q540 620 514 620 L325 620 L325 26 Q325 0 299 0 L255 0 Q229 0 229 26 L229 620 L40 620 Q14 620 14 646 L14 684 Q14 710 40 710 L514 710 Z " />
<glyph glyph-name="uni0423" unicode="&#x423;" horiz-adv-x="602" d="M577 710 Q601 710 591 684 L275 23 Q265 0 232 0 L180 0 Q153 0 167 26 L257 205 L8 684 Q-6 710 21 710 L66 710 Q106 710 117 687 L308 313 L486 687 Q493 703 502 707 Q509 710 533 710 L577 710 Z " />
<glyph glyph-name="uni0424" unicode="&#x424;" horiz-adv-x="831" d="M438 735 Q464 735 464 709 L464 650 L522 650 Q653 650 723 582 Q792 516 792 396 L792 319 Q792 199 723 133 Q653 65 522 65 L464 65 L464 6 Q464 -20 438 -20 L394 -20 Q367 -20 367 6 L367 65 L309 65 Q178 65 108 133 Q39 199 39 319 L39 396 Q39 516 108 582 Q178 650 309 650 L367 650 L367 709 Q367 735 394 735 L438 735 Z M309 563 Q136 563 136 400 L136 315 Q136 152 309 152 L367 152 L367 563 L309 563 Z M695 400 Q695 563 522 563 L464 563 L464 152 L522 152 Q695 152 695 315 L695 400 Z " />
<glyph glyph-name="uni0425" unicode="&#x425;" horiz-adv-x="627" d="M609 27 Q618 17 614 9 Q611 0 596 0 L542 0 Q506 0 491 23 L309 287 L132 23 Q117 0 81 0 L31 0 Q17 0 13 8 Q10 16 18 27 L252 361 L26 685 Q18 694 22 702 Q26 710 39 710 L91 710 Q126 710 142 688 L314 438 L486 688 Q502 710 534 710 L588 710 Q601 710 605 702 Q608 694 601 685 L374 362 L609 27 Z " />
<glyph glyph-name="uni0427" unicode="&#x427;" horiz-adv-x="635" d="M535 710 Q561 710 561 684 L561 26 Q561 0 535 0 L490 0 Q464 0 464 26 L464 280 Q392 263 295 263 Q38 263 38 508 L38 684 Q38 710 65 710 L109 710 Q135 710 135 684 L135 508 Q135 353 300 353 Q403 353 464 372 L464 684 Q464 710 490 710 L535 710 Z " />
<glyph glyph-name="uni0426" unicode="&#x426;" horiz-adv-x="703" d="M656 90 Q682 90 682 64 L682 -127 Q682 -153 656 -153 L615 -153 Q589 -153 589 -127 L589 0 L100 0 Q74 0 74 26 L74 684 Q74 710 100 710 L144 710 Q171 710 171 684 L171 90 L503 90 L503 684 Q503 710 529 710 L573 710 Q599 710 599 684 L599 90 L656 90 Z " />
<glyph glyph-name="uni0428" unicode="&#x428;" horiz-adv-x="918" d="M818 710 Q844 710 844 684 L844 26 Q844 0 818 0 L100 0 Q74 0 74 26 L74 684 Q74 710 100 710 L144 710 Q171 710 171 684 L171 90 L411 90 L411 684 Q411 710 437 710 L481 710 Q508 710 508 684 L508 90 L748 90 L748 684 Q748 710 774 710 L818 710 Z " />
<glyph glyph-name="uni0429" unicode="&#x429;" horiz-adv-x="948" d="M902 90 Q928 90 928 64 L928 -127 Q928 -153 902 -153 L861 -153 Q835 -153 835 -127 L835 0 L100 0 Q74 0 74 26 L74 684 Q74 710 100 710 L144 710 Q171 710 171 684 L171 90 L411 90 L411 684 Q411 710 437 710 L481 710 Q508 710 508 684 L508 90 L748 90 L748 684 Q748 710 774 710 L818 710 Q844 710 844 684 L844 90 L902 90 Z " />
<glyph glyph-name="uni042F" unicode="&#x42f;" horiz-adv-x="646" d="M48 497 Q48 598 106 654 Q163 710 265 710 L545 710 Q571 710 571 684 L571 26 Q571 0 545 0 L501 0 Q475 0 475 26 L475 285 L364 285 Q309 285 281 268 Q253 251 233 206 L149 23 Q140 0 97 0 L53 0 Q27 0 39 27 L143 242 Q164 283 190 299 Q48 335 48 497 Z M274 620 Q149 620 149 497 Q149 375 274 375 L475 375 L475 620 L274 620 Z " />
<glyph glyph-name="uni042C" unicode="&#x42c;" horiz-adv-x="627" d="M100 0 Q74 0 74 26 L74 684 Q74 710 100 710 L144 710 Q171 710 171 684 L171 452 L367 452 Q474 452 535 392 Q597 332 597 227 Q597 121 535 60 Q473 0 367 0 L100 0 Z M171 90 L358 90 Q423 90 459 126 Q496 163 496 227 Q496 291 459 327 Q423 362 358 362 L171 362 L171 90 Z " />
<glyph glyph-name="uni042A" unicode="&#x42a;" horiz-adv-x="736" d="M476 452 Q583 452 644 392 Q706 332 706 227 Q706 121 644 60 Q582 0 476 0 L209 0 Q183 0 183 26 L183 620 L40 620 Q14 620 14 646 L14 684 Q14 710 40 710 L253 710 Q280 710 280 684 L280 452 L476 452 Z M467 90 Q532 90 569 126 Q606 163 606 227 Q606 291 569 327 Q532 362 467 362 L280 362 L280 90 L467 90 Z " />
<glyph glyph-name="uni042B" unicode="&#x42b;" horiz-adv-x="882" d="M100 0 Q74 0 74 26 L74 684 Q74 710 100 710 L144 710 Q171 710 171 684 L171 452 L367 452 Q474 452 535 392 Q597 332 597 227 Q597 121 535 60 Q473 0 367 0 L100 0 Z M712 684 Q712 710 738 710 L782 710 Q808 710 808 684 L808 26 Q808 0 782 0 L738 0 Q712 0 712 26 L712 684 Z M171 90 L358 90 Q423 90 459 126 Q496 163 496 227 Q496 291 459 327 Q423 362 358 362 L171 362 L171 90 Z " />
<glyph glyph-name="uni042D" unicode="&#x42d;" horiz-adv-x="642" d="M39 555 Q96 725 308 725 Q443 725 516 656 Q588 589 588 470 L588 241 Q588 121 516 54 Q442 -15 308 -15 Q96 -15 38 157 Q30 182 55 191 L96 206 Q121 214 130 189 Q168 75 308 75 Q396 75 444 119 Q491 162 491 240 L491 314 L217 314 Q191 314 191 341 L191 378 Q191 404 217 404 L491 404 L491 471 Q491 635 308 635 Q168 635 131 523 Q123 500 97 507 L56 522 Q31 530 39 555 Z " />
<glyph glyph-name="uni042E" unicode="&#x42e;" horiz-adv-x="929" d="M328 470 Q328 589 398 656 Q470 725 602 725 Q734 725 806 656 Q876 589 876 470 L876 240 Q876 121 806 54 Q734 -15 602 -15 Q470 -15 398 54 Q328 121 328 240 L328 315 L171 315 L171 26 Q171 0 144 0 L100 0 Q74 0 74 26 L74 684 Q74 710 100 710 L144 710 Q171 710 171 684 L171 405 L328 405 L328 470 Z M779 470 Q779 635 602 635 Q425 635 425 470 L425 240 Q425 75 602 75 Q779 75 779 240 L779 470 Z " />
<glyph glyph-name="uni0430" unicode="&#x430;" horiz-adv-x="516" d="M52 426 Q106 531 255 531 Q462 531 462 329 L462 68 Q462 26 426 11 Q366 -15 254 -15 Q129 -15 79 26 Q35 62 35 144 Q35 231 87 266 Q137 301 258 301 Q313 301 372 294 L372 332 Q372 451 253 451 Q166 451 129 390 Q116 370 96 378 L65 392 Q40 402 52 426 Z M372 220 Q292 228 248 228 Q179 228 151 207 Q125 188 125 144 Q125 101 148 83 Q176 60 246 60 Q323 60 357 72 Q372 78 372 94 L372 220 Z " />
<glyph glyph-name="uni0431" unicode="&#x431;" horiz-adv-x="554" d="M364 731 Q413 731 439 743 Q463 755 473 728 L484 697 Q491 675 469 664 Q438 648 366 648 L332 648 Q221 648 180 604 Q141 563 141 452 L141 433 Q189 505 302 505 Q400 505 455 452 Q509 399 509 305 L509 184 Q509 90 452 38 Q394 -15 283 -15 Q174 -15 115 38 Q58 90 58 184 L58 428 Q58 590 117 659 Q180 731 331 731 L364 731 Z M419 305 Q419 424 283 424 Q222 424 184 392 Q151 365 148 329 L148 185 Q148 66 283 66 Q419 66 419 185 L419 305 Z " />
<glyph glyph-name="uni0432" unicode="&#x432;" horiz-adv-x="534" d="M477 378 Q477 302 422 269 Q495 235 495 144 Q495 78 454 39 Q413 0 343 0 L87 0 Q62 0 62 24 L62 492 Q62 516 87 516 L329 516 Q399 516 438 479 Q477 442 477 378 Z M317 302 Q387 302 387 371 Q387 440 314 440 L152 440 L152 302 L317 302 Z M325 76 Q402 76 402 153 Q402 228 324 228 L152 228 L152 76 L325 76 Z " />
<glyph glyph-name="uni0433" unicode="&#x433;" horiz-adv-x="427" d="M389 516 Q413 516 413 492 L413 457 Q413 433 389 433 L152 433 L152 24 Q152 0 128 0 L86 0 Q62 0 62 24 L62 492 Q62 516 86 516 L389 516 Z " />
<glyph glyph-name="uni0434" unicode="&#x434;" horiz-adv-x="605" d="M564 83 Q588 83 588 58 L588 -115 Q588 -139 564 -139 L525 -139 Q501 -139 501 -115 L501 0 L106 0 L106 -115 Q106 -139 81 -139 L42 -139 Q19 -139 19 -115 L19 58 Q19 83 42 83 L69 83 Q135 137 135 341 L135 492 Q135 516 159 516 L489 516 Q513 516 513 492 L513 83 L564 83 Z M222 336 Q222 155 172 83 L423 83 L423 433 L222 433 L222 336 Z " />
<glyph glyph-name="uni0435" unicode="&#x435;" horiz-adv-x="534" d="M44 317 Q44 419 102 475 Q160 531 270 531 Q381 531 441 472 Q496 417 496 324 L496 266 Q496 231 459 231 L133 231 L133 183 Q133 63 267 63 Q365 63 406 132 Q422 154 445 141 L472 127 Q498 114 481 88 Q422 -15 266 -15 Q154 -15 97 43 Q44 97 44 193 L44 317 Z M407 329 Q407 455 270 455 Q133 455 133 329 L133 300 L407 300 L407 329 Z " />
<glyph glyph-name="uni0451" unicode="&#x451;" horiz-adv-x="534" d="M175 697 Q217 697 217 656 L217 648 Q217 606 175 606 L168 606 Q127 606 127 648 L127 656 Q127 697 168 697 L175 697 Z M372 697 Q413 697 413 656 L413 648 Q413 606 372 606 L365 606 Q323 606 323 648 L323 656 Q323 697 365 697 L372 697 Z M44 317 Q44 419 102 475 Q160 531 270 531 Q381 531 441 472 Q496 417 496 324 L496 266 Q496 231 459 231 L133 231 L133 183 Q133 63 267 63 Q365 63 406 132 Q422 154 445 141 L472 127 Q498 114 481 88 Q422 -15 266 -15 Q154 -15 97 43 Q44 97 44 193 L44 317 Z M407 329 Q407 455 270 455 Q133 455 133 329 L133 300 L407 300 L407 329 Z " />
<glyph glyph-name="uni0436" unicode="&#x436;" horiz-adv-x="748" d="M393 516 Q418 516 418 492 L418 305 L485 305 L614 498 Q626 516 660 516 L698 516 Q732 516 714 488 L567 281 Q606 262 633 206 L722 28 Q736 0 707 0 L668 0 Q636 0 626 22 L557 167 Q532 222 468 222 L418 222 L418 25 Q418 0 393 0 L353 0 Q328 0 328 25 L328 222 L278 222 Q214 222 189 167 L120 22 Q110 0 78 0 L39 0 Q10 0 24 28 L113 206 Q140 262 179 281 L32 488 Q13 516 48 516 L86 516 Q120 516 132 498 L261 305 L328 305 L328 492 Q328 516 353 516 L393 516 Z " />
<glyph glyph-name="uni0437" unicode="&#x437;" horiz-adv-x="514" d="M38 400 Q54 447 100 482 Q163 531 258 531 Q463 531 463 378 Q463 295 397 269 L397 265 Q474 237 474 140 Q474 -15 261 -15 Q87 -15 30 120 Q19 147 47 154 L81 165 Q106 173 115 149 Q153 64 262 64 Q382 64 382 149 Q382 225 297 225 L194 225 Q170 225 170 249 L170 275 Q170 299 194 299 L291 299 Q372 299 372 370 Q372 452 258 452 Q154 452 123 371 Q113 346 88 354 L54 366 Q29 374 38 400 Z " />
<glyph glyph-name="uni0438" unicode="&#x438;" horiz-adv-x="562" d="M128 516 Q152 516 152 492 L152 248 Q152 182 136 118 L139 118 Q160 164 193 208 L411 504 Q419 516 434 516 L476 516 Q500 516 500 492 L500 24 Q500 0 476 0 L434 0 Q410 0 410 24 L410 264 Q410 319 426 397 L423 397 Q402 354 367 305 L152 12 Q143 0 128 0 L86 0 Q62 0 62 24 L62 492 Q62 516 86 516 L128 516 Z " />
<glyph glyph-name="uni0439" unicode="&#x439;" horiz-adv-x="562" d="M439 693 Q405 587 285 587 Q167 587 133 693 Q128 710 144 715 L175 727 Q193 732 199 719 Q219 653 285 653 Q353 653 372 719 Q378 732 393 728 L428 715 Q444 708 439 693 Z M128 516 Q152 516 152 492 L152 248 Q152 182 136 118 L139 118 Q160 164 193 208 L411 504 Q419 516 434 516 L476 516 Q500 516 500 492 L500 24 Q500 0 476 0 L434 0 Q410 0 410 24 L410 264 Q410 319 426 397 L423 397 Q402 354 367 305 L152 12 Q143 0 128 0 L86 0 Q62 0 62 24 L62 492 Q62 516 86 516 L128 516 Z " />
<glyph glyph-name="uni043A" unicode="&#x43a;" horiz-adv-x="521" d="M497 28 Q512 0 482 0 L443 0 Q412 0 402 22 L333 167 Q306 222 243 222 L152 222 L152 25 Q152 0 127 0 L87 0 Q62 0 62 25 L62 492 Q62 516 87 516 L127 516 Q152 516 152 492 L152 305 L240 305 L389 498 Q402 516 436 516 L474 516 Q511 516 489 488 L329 288 Q377 270 409 206 L497 28 Z " />
<glyph glyph-name="uni043B" unicode="&#x43b;" horiz-adv-x="540" d="M452 516 Q476 516 476 492 L476 24 Q476 0 452 0 L411 0 Q387 0 387 24 L387 433 L194 433 L194 330 Q194 158 150 76 Q120 19 53 -12 Q34 -20 24 0 L3 40 Q-5 58 12 68 Q57 90 76 127 Q107 190 107 336 L107 492 Q107 516 131 516 L452 516 Z " />
<glyph glyph-name="uni043C" unicode="&#x43c;" horiz-adv-x="640" d="M552 516 Q578 516 578 490 L578 24 Q578 0 554 0 L518 0 Q494 0 494 24 L494 255 Q494 314 510 392 L506 392 Q487 338 456 287 L361 119 Q350 101 331 101 L309 101 Q290 101 279 119 L184 284 Q155 335 133 392 L130 392 Q145 298 145 251 L145 24 Q145 0 122 0 L87 0 Q62 0 62 24 L62 490 Q62 516 89 516 L120 516 Q144 516 154 496 L321 200 L485 496 Q496 516 518 516 L552 516 Z " />
<glyph glyph-name="uni043D" unicode="&#x43d;" horiz-adv-x="557" d="M471 516 Q495 516 495 492 L495 24 Q495 0 471 0 L429 0 Q405 0 405 24 L405 222 L152 222 L152 24 Q152 0 128 0 L86 0 Q62 0 62 24 L62 492 Q62 516 86 516 L128 516 Q152 516 152 492 L152 305 L405 305 L405 492 Q405 516 429 516 L471 516 Z " />
<glyph glyph-name="uni043E" unicode="&#x43e;" horiz-adv-x="541" d="M46 339 Q46 429 105 480 Q165 531 270 531 Q377 531 437 480 Q495 429 495 339 L495 176 Q495 87 437 36 Q377 -15 270 -15 Q165 -15 105 36 Q46 87 46 176 L46 339 Z M406 340 Q406 392 370 421 Q334 450 270 450 Q207 450 171 421 Q135 392 135 340 L135 176 Q135 124 171 95 Q207 66 270 66 Q334 66 370 95 Q406 124 406 176 L406 340 Z " />
<glyph glyph-name="uni043F" unicode="&#x43f;" horiz-adv-x="553" d="M466 516 Q490 516 490 492 L490 24 Q490 0 466 0 L425 0 Q401 0 401 24 L401 433 L152 433 L152 24 Q152 0 128 0 L86 0 Q62 0 62 24 L62 492 Q62 516 86 516 L466 516 Z " />
<glyph glyph-name="uni0440" unicode="&#x440;" horiz-adv-x="539" d="M100 502 Q175 531 284 531 Q493 531 493 330 L493 189 Q493 -15 280 -15 Q228 -15 150 12 L150 -196 Q150 -220 126 -220 L84 -220 Q61 -220 61 -196 L61 445 Q61 486 100 502 Z M403 327 Q403 449 271 449 Q216 449 165 434 Q150 427 150 413 L150 93 Q225 67 273 67 Q403 67 403 192 L403 327 Z " />
<glyph glyph-name="uni0441" unicode="&#x441;" horiz-adv-x="516" d="M45 330 Q45 531 269 531 Q438 531 480 397 Q489 372 464 363 L429 352 Q405 341 395 368 Q368 452 265 452 Q135 452 135 334 L135 183 Q135 64 265 64 Q368 64 396 151 Q406 175 430 167 L465 157 Q491 147 482 123 Q432 -15 263 -15 Q45 -15 45 187 L45 330 Z " />
<glyph glyph-name="uni0442" unicode="&#x442;" horiz-adv-x="457" d="M419 516 Q443 516 443 492 L443 457 Q443 433 419 433 L273 433 L273 24 Q273 0 250 0 L208 0 Q184 0 184 24 L184 433 L38 433 Q14 433 14 457 L14 492 Q14 516 38 516 L419 516 Z " />
<glyph glyph-name="uni0443" unicode="&#x443;" horiz-adv-x="553" d="M466 516 Q490 516 490 492 L490 -25 Q490 -241 274 -241 Q129 -241 71 -139 Q55 -114 81 -101 L110 -85 Q133 -73 149 -94 Q188 -161 273 -161 Q401 -161 401 -29 L401 25 Q324 4 261 4 Q58 4 58 202 L58 492 Q58 516 82 516 L124 516 Q147 516 147 492 L147 205 Q147 86 273 86 Q333 86 401 107 L401 492 Q401 516 425 516 L466 516 Z " />
<glyph glyph-name="uni0444" unicode="&#x444;" horiz-adv-x="740" d="M415 526 Q437 529 478 531 Q695 531 695 318 L695 199 Q695 -15 478 -15 Q437 -13 415 -10 L415 -196 Q415 -220 391 -220 L349 -220 Q326 -220 326 -196 L326 -10 Q304 -13 261 -15 Q44 -15 44 199 L44 314 Q44 531 261 531 Q304 529 326 526 L326 716 Q326 739 349 739 L391 739 Q415 739 415 716 L415 526 Z M134 201 Q134 67 267 67 Q288 67 328 71 L328 445 Q288 449 267 449 Q134 449 134 311 L134 201 Z M606 315 Q606 449 473 449 Q452 449 412 445 L412 71 Q452 67 473 67 Q606 67 606 201 L606 315 Z " />
<glyph glyph-name="uni0445" unicode="&#x445;" horiz-adv-x="497" d="M447 516 Q482 516 464 488 L302 265 L474 28 Q493 0 457 0 L419 0 Q390 0 376 20 L245 201 L117 20 Q105 0 74 0 L37 0 Q1 0 20 28 L192 265 L27 488 Q9 516 46 516 L82 516 Q112 516 126 496 L247 330 L368 496 Q381 516 409 516 L447 516 Z " />
<glyph glyph-name="uni0447" unicode="&#x447;" horiz-adv-x="513" d="M32 492 Q32 516 56 516 L98 516 Q121 516 121 492 L121 373 Q121 262 247 262 Q316 262 361 280 L361 492 Q361 516 385 516 L427 516 Q451 516 451 492 L451 24 Q451 0 427 0 L385 0 Q361 0 361 24 L361 196 Q324 181 235 181 Q32 181 32 371 L32 492 Z " />
<glyph glyph-name="uni0446" unicode="&#x446;" horiz-adv-x="577" d="M536 83 Q560 83 560 58 L560 -115 Q560 -139 536 -139 L497 -139 Q473 -139 473 -115 L473 0 L86 0 Q62 0 62 24 L62 492 Q62 516 86 516 L128 516 Q152 516 152 492 L152 83 L395 83 L395 492 Q395 516 419 516 L461 516 Q485 516 485 492 L485 83 L536 83 Z " />
<glyph glyph-name="uni0448" unicode="&#x448;" horiz-adv-x="766" d="M680 516 Q704 516 704 492 L704 24 Q704 0 680 0 L86 0 Q62 0 62 24 L62 492 Q62 516 86 516 L128 516 Q152 516 152 492 L152 83 L338 83 L338 492 Q338 516 362 516 L404 516 Q428 516 428 492 L428 83 L615 83 L615 492 Q615 516 638 516 L680 516 Z " />
<glyph glyph-name="uni0449" unicode="&#x449;" horiz-adv-x="796" d="M754 83 Q778 83 778 58 L778 -115 Q778 -139 754 -139 L716 -139 Q691 -139 691 -115 L691 0 L86 0 Q62 0 62 24 L62 492 Q62 516 86 516 L128 516 Q152 516 152 492 L152 83 L338 83 L338 492 Q338 516 362 516 L404 516 Q428 516 428 492 L428 83 L615 83 L615 492 Q615 516 638 516 L680 516 Q704 516 704 492 L704 83 L754 83 Z " />
<glyph glyph-name="uni044F" unicode="&#x44f;" horiz-adv-x="528" d="M439 516 Q464 516 464 492 L464 24 Q464 0 440 0 L398 0 Q374 0 374 24 L374 177 L239 177 L140 21 Q128 0 96 0 L59 0 Q22 0 41 28 L148 189 Q38 221 38 346 Q38 425 85 471 Q131 516 211 516 L439 516 Z M222 436 Q180 436 156 411 Q131 387 131 346 Q131 305 156 282 Q180 258 222 258 L374 258 L374 436 L222 436 Z " />
<glyph glyph-name="uni044C" unicode="&#x44c;" horiz-adv-x="518" d="M307 360 Q393 360 442 313 Q491 265 491 181 Q491 96 442 48 Q393 0 307 0 L86 0 Q62 0 62 24 L62 492 Q62 516 86 516 L128 516 Q152 516 152 492 L152 360 L307 360 Z M296 80 Q343 80 370 107 Q397 134 397 181 Q397 279 296 279 L152 279 L152 80 L296 80 Z " />
<glyph glyph-name="uni044A" unicode="&#x44a;" horiz-adv-x="611" d="M400 360 Q486 360 535 313 Q584 265 584 181 Q584 96 535 48 Q486 0 400 0 L179 0 Q156 0 156 24 L156 433 L38 433 Q14 433 14 457 L14 492 Q14 516 38 516 L221 516 Q245 516 245 492 L245 360 L400 360 Z M389 80 Q437 80 464 107 Q491 134 491 181 Q491 279 389 279 L245 279 L245 80 L389 80 Z " />
<glyph glyph-name="uni044B" unicode="&#x44b;" horiz-adv-x="708" d="M307 360 Q393 360 442 313 Q491 265 491 181 Q491 96 442 48 Q393 0 307 0 L86 0 Q62 0 62 24 L62 492 Q62 516 86 516 L128 516 Q152 516 152 492 L152 360 L307 360 Z M622 516 Q646 516 646 492 L646 24 Q646 0 622 0 L580 0 Q556 0 556 24 L556 492 Q556 516 580 516 L622 516 Z M296 80 Q343 80 370 107 Q397 134 397 181 Q397 279 296 279 L152 279 L152 80 L296 80 Z " />
<glyph glyph-name="uni044D" unicode="&#x44d;" horiz-adv-x="512" d="M34 397 Q76 531 244 531 Q466 531 466 330 L466 187 Q466 -15 250 -15 Q82 -15 32 123 Q22 148 48 157 L83 168 Q108 176 117 152 Q146 65 247 65 Q376 65 376 183 L376 222 L197 223 Q174 223 174 247 L174 278 Q174 302 197 302 L376 302 L376 334 Q376 452 247 452 Q147 452 118 368 Q108 342 84 352 L50 363 Q25 371 34 397 Z " />
<glyph glyph-name="uni044E" unicode="&#x44e;" horiz-adv-x="750" d="M265 341 Q265 430 322 480 Q380 531 484 531 Q589 531 647 480 Q704 430 704 341 L704 175 Q704 86 647 36 Q589 -15 484 -15 Q380 -15 322 36 Q265 86 265 175 L265 220 L152 220 L152 24 Q152 0 128 0 L86 0 Q62 0 62 24 L62 492 Q62 516 86 516 L128 516 Q152 516 152 492 L152 303 L265 303 L265 341 Z M614 341 Q614 450 484 450 Q355 450 355 341 L355 175 Q355 124 389 95 Q423 66 484 66 Q545 66 580 95 Q614 124 614 175 L614 341 Z " />
<glyph glyph-name="increment" unicode="&#x2206;" horiz-adv-x="629" d="M337 710 Q363 710 370 689 L589 107 Q602 71 602 58 L602 26 Q602 0 576 0 L54 0 Q28 0 28 26 L28 58 Q28 75 41 107 L259 689 Q266 710 292 710 L337 710 Z M366 453 Q350 498 335 559 Q321 618 318 625 L312 625 Q308 616 294 559 Q278 496 263 453 L131 80 L499 80 L366 453 Z " />
<glyph glyph-name="Omega" unicode="&#x2126;" horiz-adv-x="766" d="M55 377 Q55 529 146 627 Q238 725 381 725 Q527 725 619 628 Q712 531 712 379 Q712 194 570 94 L692 94 Q718 94 718 67 L718 26 Q718 0 692 0 L447 0 Q427 0 427 20 L427 55 Q427 71 443 78 Q523 117 571 194 Q619 271 619 362 Q619 482 559 555 Q495 633 381 633 Q272 633 209 555 Q148 481 148 363 Q148 163 321 77 Q337 70 337 54 L337 20 Q337 0 317 0 L73 0 Q47 0 47 26 L47 67 Q47 94 73 94 L194 94 Q55 195 55 377 Z " />
<glyph glyph-name="mu" unicode="&#xb5;" horiz-adv-x="553" d="M470 516 Q493 516 493 492 L493 75 Q493 35 455 19 Q368 -15 284 -15 Q191 -15 150 39 L151 -196 Q151 -220 127 -220 L85 -220 Q61 -220 61 -196 L61 492 Q61 516 85 516 L127 516 Q151 516 151 492 L151 186 Q151 67 276 67 Q335 67 390 84 Q404 90 404 106 L404 492 Q404 516 428 516 L470 516 Z " />
<glyph glyph-name="pi" unicode="&#x3c0;" horiz-adv-x="629" d="M581 516 Q605 516 605 492 L605 458 Q605 434 581 434 L536 434 L536 148 Q536 92 558 50 Q570 25 545 14 L511 0 Q487 -9 477 13 Q447 69 447 152 L447 434 L223 434 L223 24 Q223 0 199 0 L157 0 Q134 0 134 24 L134 434 Q97 433 53 411 Q30 401 22 421 L8 454 Q-3 475 19 485 Q79 516 165 516 L581 516 Z " />
<glyph glyph-name="zero" unicode="0" horiz-adv-x="629" d="M55 488 Q55 598 123 661 Q192 725 315 725 Q437 725 506 661 Q574 598 574 488 L574 222 Q574 112 506 49 Q437 -15 315 -15 Q192 -15 123 49 Q55 112 55 222 L55 488 Z M477 488 Q477 558 435 596 Q392 635 315 635 Q237 635 195 596 Q152 558 152 488 L152 222 Q152 153 195 114 Q237 75 315 75 Q392 75 435 114 Q477 153 477 222 L477 488 Z " />
<glyph glyph-name="one" unicode="1" horiz-adv-x="442" d="M332 710 Q358 710 358 684 L358 26 Q358 0 332 0 L288 0 Q262 0 262 26 L262 593 L83 494 Q57 478 44 503 L24 538 Q12 560 36 574 L258 699 Q275 710 295 710 L332 710 Z " />
<glyph glyph-name="two" unicode="2" horiz-adv-x="594" d="M52 561 Q120 725 312 725 Q418 725 484 659 Q547 597 547 506 Q547 400 480 339 Q426 290 278 232 Q213 207 191 192 Q149 162 149 119 L149 90 L512 90 Q538 90 538 64 L538 26 Q538 0 512 0 L75 0 Q48 0 48 27 L48 100 Q48 190 111 246 Q152 281 251 320 Q352 359 385 384 Q446 428 446 502 Q446 558 408 596 Q369 635 309 635 Q192 635 144 529 Q134 504 111 512 L68 528 Q42 537 52 561 Z " />
<glyph glyph-name="three" unicode="3" horiz-adv-x="606" d="M536 524 Q536 410 452 370 Q559 327 559 199 Q559 100 498 44 Q433 -15 309 -15 Q102 -15 44 157 Q36 182 61 191 L102 206 Q127 214 136 189 Q156 129 191 104 Q231 75 309 75 Q458 75 458 200 Q458 318 338 318 L211 318 Q185 318 185 344 L185 379 Q185 405 211 405 L324 405 Q379 405 410 436 Q440 466 440 515 Q440 635 307 635 Q233 635 195 607 Q162 582 142 523 Q134 500 108 507 L67 522 Q42 530 50 555 Q107 725 309 725 Q418 725 478 671 Q536 619 536 524 Z " />
<glyph glyph-name="four" unicode="4" horiz-adv-x="620" d="M567 266 Q593 266 593 240 L593 206 Q593 180 567 180 L485 180 L485 26 Q485 0 459 0 L421 0 Q395 0 395 26 L395 180 L50 180 Q24 180 24 206 L24 234 Q24 255 33 266 L379 696 Q394 715 416 715 L458 715 Q485 715 485 689 L485 266 L567 266 Z M137 266 L395 266 L395 584 L137 266 Z " />
<glyph glyph-name="five" unicode="5" horiz-adv-x="590" d="M495 710 Q521 710 521 684 L521 646 Q521 620 495 620 L185 620 L167 437 L312 437 Q427 437 490 372 Q548 312 548 216 Q548 118 484 54 Q416 -15 303 -15 Q95 -15 38 145 Q29 170 53 179 L96 194 Q120 203 129 178 Q167 75 302 75 Q368 75 408 114 Q447 152 447 216 Q447 275 410 310 Q372 347 307 347 L92 347 Q61 347 64 379 L94 671 Q98 710 138 710 L495 710 Z " />
<glyph glyph-name="six" unicode="6" horiz-adv-x="627" d="M151 404 Q232 430 327 430 Q581 430 581 208 Q581 104 511 45 Q441 -15 318 -15 Q190 -15 121 54 Q54 121 54 242 L54 468 Q54 591 122 658 Q190 725 318 725 Q511 725 570 569 Q580 546 554 536 L513 521 Q489 512 480 537 Q440 635 318 635 Q151 635 151 469 L151 404 Z M151 241 Q151 75 318 75 Q484 75 484 208 Q484 340 321 340 Q207 340 151 310 L151 241 Z " />
<glyph glyph-name="seven" unicode="7" horiz-adv-x="528" d="M488 710 Q514 710 514 684 L514 657 Q514 637 506 620 L240 23 Q230 0 192 0 L149 0 Q125 0 136 26 L403 620 L51 620 Q25 620 25 646 L25 684 Q25 710 51 710 L488 710 Z " />
<glyph glyph-name="eight" unicode="8" horiz-adv-x="621" d="M67 532 Q67 624 132 675 Q196 725 310 725 Q554 725 554 539 Q554 424 431 369 Q576 312 576 187 Q576 -15 310 -15 Q45 -15 45 173 Q45 298 189 357 Q67 416 67 532 Z M460 531 Q460 641 310 641 Q164 641 164 531 Q164 476 208 446 Q237 425 311 406 L343 398 Q460 440 460 531 Z M475 185 Q475 250 415 281 Q387 296 275 324 Q143 286 143 182 Q143 69 310 69 Q475 69 475 185 Z " />
<glyph glyph-name="nine" unicode="9" horiz-adv-x="627" d="M476 306 Q395 280 300 280 Q46 280 46 502 Q46 606 116 665 Q186 725 309 725 Q437 725 505 656 Q572 589 572 468 L572 242 Q572 119 505 52 Q437 -15 309 -15 Q117 -15 56 141 Q47 164 73 174 L114 189 Q137 198 147 173 Q187 75 309 75 Q476 75 476 241 L476 306 Z M476 469 Q476 635 309 635 Q142 635 142 502 Q142 370 306 370 Q420 370 476 400 L476 469 Z " />
<glyph glyph-name="fraction" unicode="&#x2044;" horiz-adv-x="176" d="M285 688 Q301 710 333 710 L368 710 Q381 710 385 702 Q388 695 381 685 L-105 24 Q-123 0 -157 0 L-188 0 Q-221 0 -201 27 L285 688 Z " />
<glyph glyph-name="onehalf" unicode="&#xbd;" horiz-adv-x="839" d="M215 717 Q241 717 241 690 L241 347 Q241 321 215 321 L192 321 Q165 321 165 347 L165 622 L80 574 Q56 561 43 583 L32 602 Q19 624 44 638 L169 709 Q182 717 200 717 L215 717 Z M673 710 Q686 710 690 702 Q694 695 686 685 L200 24 Q183 0 148 0 L117 0 Q86 0 104 27 L591 688 Q607 710 639 710 L673 710 Z M513 301 Q551 404 658 404 Q724 404 762 368 Q797 334 797 279 Q797 226 768 196 Q743 170 683 151 L626 133 Q583 119 583 87 L583 69 L769 69 Q792 69 792 46 L792 23 Q792 0 769 0 L535 0 Q510 0 510 24 L510 59 Q510 155 592 186 L648 208 Q687 222 699 231 Q719 246 719 276 Q719 332 657 332 Q613 332 585 277 Q573 252 551 260 L529 268 Q502 277 513 301 Z " />
<glyph glyph-name="onethird" unicode="&#x2153;" horiz-adv-x="856" d="M215 713 Q241 713 241 687 L241 344 Q241 318 215 318 L192 318 Q165 318 165 344 L165 619 L80 571 Q56 558 43 580 L32 599 Q20 620 44 634 L169 706 Q181 713 200 713 L215 713 Z M681 710 Q694 710 698 702 Q702 695 694 685 L208 24 Q190 0 156 0 L125 0 Q94 0 112 27 L599 688 Q615 710 647 710 L681 710 Z M522 301 Q555 404 675 404 Q737 404 773 373 Q807 343 807 291 Q807 230 762 206 Q819 179 819 105 Q819 -8 675 -8 Q553 -8 521 93 Q511 119 533 126 L556 133 Q579 141 589 117 Q609 60 675 60 Q744 60 744 114 Q744 166 693 166 L643 166 Q628 166 624 170 Q620 175 620 189 L620 209 Q620 226 624 230 Q629 234 645 234 L688 234 Q736 234 736 283 Q736 336 676 336 Q611 336 592 279 Q582 251 553 261 L538 267 Q514 276 522 301 Z " />
<glyph glyph-name="twothirds" unicode="&#x2154;" horiz-adv-x="891" d="M45 622 Q83 725 190 725 Q256 725 294 689 Q329 655 329 600 Q329 546 300 516 Q276 491 215 471 L158 454 Q115 440 115 407 L115 390 L301 390 Q324 390 324 367 L324 343 Q324 321 301 321 L67 321 Q42 321 42 344 L42 379 Q42 475 124 506 L180 528 Q220 544 231 552 Q251 568 251 597 Q251 653 189 653 Q142 653 117 597 Q105 573 83 581 L61 588 Q35 597 45 622 Z M734 710 Q748 710 751 702 Q755 695 747 685 L261 24 Q244 0 209 0 L179 0 Q146 0 166 27 L652 688 Q668 710 700 710 L734 710 Z M560 301 Q593 404 712 404 Q774 404 810 373 Q844 343 844 291 Q844 230 799 206 Q856 179 856 105 Q856 -8 712 -8 Q592 -8 558 93 Q550 119 571 126 L593 133 Q617 141 627 117 Q645 60 712 60 Q781 60 781 114 Q781 166 730 166 L680 166 Q657 166 657 189 L657 209 Q657 226 661 230 Q666 234 682 234 L726 234 Q773 234 773 283 Q773 336 714 336 Q648 336 630 279 Q619 251 590 261 L575 267 Q551 276 560 301 Z " />
<glyph glyph-name="onequarter" unicode="&#xbc;" horiz-adv-x="794" d="M214 712 Q241 712 241 685 L241 342 Q241 316 214 316 L191 316 Q165 316 165 342 L165 617 L79 569 Q55 556 42 578 L31 597 Q20 620 43 633 L168 704 Q181 712 200 712 L214 712 Z M678 710 Q691 710 695 702 Q699 695 691 685 L205 24 Q187 0 153 0 L122 0 Q91 0 109 27 L595 688 Q612 710 644 710 L678 710 Z M682 396 Q697 396 701 392 Q705 387 705 372 L705 157 L736 157 Q758 157 758 136 L758 114 Q758 93 736 93 L705 93 L705 22 Q705 0 684 0 L655 0 Q634 0 634 22 L634 93 L453 93 Q431 93 431 116 L431 135 Q431 151 438 160 L618 382 Q630 396 650 396 L682 396 Z M634 157 L634 302 L516 157 L634 157 Z " />
<glyph glyph-name="threequarters" unicode="&#xbe;" horiz-adv-x="828" d="M40 622 Q73 725 192 725 Q254 725 290 694 Q324 664 324 612 Q324 551 279 527 Q336 500 336 426 Q336 313 192 313 Q72 313 38 414 Q30 440 51 447 L73 455 Q97 463 107 438 Q125 381 192 381 Q261 381 261 435 Q261 488 210 488 L160 488 Q146 488 141 492 Q137 496 137 511 L137 531 Q137 548 141 552 Q146 556 162 556 L206 556 Q253 556 253 604 Q253 658 194 658 Q128 658 110 601 Q98 572 70 582 L55 588 Q31 598 40 622 Z M716 710 Q729 710 733 702 Q737 695 729 685 L243 24 Q226 0 191 0 L160 0 Q129 0 147 27 L634 688 Q650 710 682 710 L716 710 Z M720 396 Q735 396 739 392 Q743 387 743 372 L743 157 L773 157 Q796 157 796 136 L796 114 Q796 93 773 93 L743 93 L743 22 Q743 0 722 0 L692 0 Q672 0 672 22 L672 93 L491 93 Q468 93 468 116 L468 135 Q468 150 476 160 L656 382 Q667 396 687 396 L720 396 Z M672 302 L553 157 L672 157 L672 302 Z " />
<glyph glyph-name="oneeighth" unicode="&#x215b;" horiz-adv-x="863" d="M215 717 Q242 717 242 690 L242 347 Q242 321 215 321 L192 321 Q166 321 166 347 L166 622 L80 574 Q56 561 43 583 L32 602 Q20 625 44 638 L169 709 Q182 717 201 717 L215 717 Z M681 710 Q694 710 698 702 Q702 695 694 685 L208 24 Q190 0 156 0 L125 0 Q111 0 107 8 Q104 16 112 27 L598 688 Q615 710 647 710 L681 710 Z M522 291 Q522 344 561 374 Q600 404 668 404 Q738 404 776 376 Q814 349 814 300 Q814 235 753 208 Q826 181 826 112 Q826 -8 668 -8 Q511 -8 511 98 Q511 168 585 197 Q522 226 522 291 Z M739 292 Q739 344 668 344 Q597 344 597 291 Q597 247 684 231 Q739 254 739 292 Z M747 110 Q747 136 725 149 Q705 161 655 170 Q590 141 590 107 Q590 53 670 53 Q747 53 747 110 Z " />
<glyph glyph-name="threeeighths" unicode="&#x215c;" horiz-adv-x="888" d="M39 622 Q72 725 192 725 Q254 725 290 694 Q324 664 324 612 Q324 551 279 527 Q336 500 336 426 Q336 313 192 313 Q70 313 38 414 Q29 440 50 447 L73 455 Q96 463 106 438 Q126 381 192 381 Q261 381 261 435 Q261 488 210 488 L160 488 Q145 488 141 492 Q137 496 137 511 L137 531 Q137 548 141 552 Q146 556 162 556 L205 556 Q253 556 253 604 Q253 658 193 658 Q128 658 109 601 Q98 572 70 582 L55 588 Q32 598 39 622 Z M718 709 Q749 709 731 684 L245 23 Q228 -1 193 -1 L163 -1 Q148 -1 145 7 Q141 15 149 26 L636 687 Q651 709 684 709 L718 709 Z M549 291 Q549 344 588 374 Q627 404 695 404 Q841 404 841 300 Q841 236 781 208 Q853 181 853 112 Q853 -8 695 -8 Q538 -8 538 98 Q538 168 612 197 Q549 226 549 291 Z M766 292 Q766 344 695 344 Q625 344 625 291 Q625 247 711 231 Q766 252 766 292 Z M774 110 Q774 136 752 149 Q732 161 682 170 Q617 141 617 107 Q617 53 697 53 Q774 53 774 110 Z " />
<glyph glyph-name="fiveeighths" unicode="&#x215d;" horiz-adv-x="887" d="M294 716 Q312 716 312 698 L312 669 Q312 651 294 651 L127 651 L118 572 L185 572 Q327 572 327 447 Q327 389 291 352 Q253 312 185 312 Q65 312 33 414 Q25 439 45 446 L67 454 Q89 462 99 441 Q120 379 182 379 Q255 379 255 445 Q255 509 182 509 L67 509 Q44 509 46 532 L62 695 Q64 716 88 716 L294 716 Z M707 710 Q720 710 724 702 Q728 695 720 685 L234 24 Q217 0 182 0 L151 0 Q120 0 138 27 L625 688 Q641 710 673 710 L707 710 Z M548 291 Q548 344 587 374 Q626 404 694 404 Q764 404 802 376 Q840 349 840 300 Q840 236 779 208 Q852 181 852 112 Q852 -8 694 -8 Q537 -8 537 98 Q537 168 611 197 Q548 226 548 291 Z M765 292 Q765 344 694 344 Q623 344 623 291 Q623 247 710 231 Q765 254 765 292 Z M773 110 Q773 136 751 149 Q731 161 681 170 Q616 141 616 107 Q616 53 696 53 Q773 53 773 110 Z " />
<glyph glyph-name="seveneighths" unicode="&#x215e;" horiz-adv-x="847" d="M294 717 Q314 717 314 697 L314 678 Q314 665 308 653 L170 337 Q163 321 138 321 L108 321 Q82 321 94 348 L227 647 L51 647 Q31 647 31 666 L31 696 Q31 717 51 717 L294 717 Z M649 710 Q662 710 666 702 Q670 695 662 685 L176 24 Q159 0 124 0 L93 0 Q62 0 80 27 L567 688 Q583 710 615 710 L649 710 Z M509 291 Q509 344 548 374 Q587 404 655 404 Q725 404 763 376 Q801 349 801 300 Q801 236 740 208 Q813 181 813 112 Q813 -8 655 -8 Q497 -8 497 98 Q497 167 572 197 Q509 226 509 291 Z M726 292 Q726 344 655 344 Q584 344 584 291 Q584 247 670 231 Q726 253 726 292 Z M734 110 Q734 136 712 149 Q692 161 641 170 Q606 153 603 151 Q577 134 577 107 Q577 53 656 53 Q734 53 734 110 Z " />
<glyph glyph-name="uni2080" unicode="&#x2080;" horiz-adv-x="376" d="M39 146 Q39 210 78 247 Q118 285 188 285 Q258 285 298 247 Q337 210 337 146 L337 11 Q337 -53 298 -90 Q259 -127 188 -127 Q117 -127 78 -90 Q39 -53 39 11 L39 146 Z M261 146 Q261 212 188 212 Q115 212 115 146 L115 11 Q115 -55 188 -55 Q261 -55 261 11 L261 146 Z " />
<glyph glyph-name="uni2081" unicode="&#x2081;" horiz-adv-x="283" d="M201 277 Q228 277 228 251 L228 -93 Q228 -119 201 -119 L178 -119 Q152 -119 152 -93 L152 182 L66 134 Q43 122 29 143 L19 162 Q6 185 30 198 L156 269 Q169 277 187 277 L201 277 Z " />
<glyph glyph-name="uni2082" unicode="&#x2082;" horiz-adv-x="359" d="M39 182 Q77 285 184 285 Q250 285 288 249 Q323 215 323 160 Q323 107 294 77 Q269 51 209 32 L153 14 Q109 0 109 -32 L109 -50 L295 -50 Q318 -50 318 -73 L318 -96 Q318 -119 295 -119 L61 -119 Q36 -119 36 -95 L36 -60 Q36 35 118 67 L175 89 Q214 104 226 112 Q246 128 246 157 Q246 213 183 213 Q139 213 111 158 Q99 133 77 141 L55 149 Q30 158 39 182 Z " />
<glyph glyph-name="uni2083" unicode="&#x2083;" horiz-adv-x="366" d="M34 182 Q67 285 187 285 Q249 285 285 254 Q319 224 319 172 Q319 111 274 87 Q331 60 331 -14 Q331 -127 187 -127 Q67 -127 33 -26 Q23 0 45 7 L68 14 Q92 22 101 -2 Q121 -59 187 -59 Q256 -59 256 -5 Q256 47 205 47 L155 47 Q140 47 136 51 Q132 56 132 70 L132 90 Q132 107 136 111 Q141 115 157 115 L200 115 Q248 115 248 164 Q248 217 188 217 Q123 217 105 160 Q94 132 65 142 L50 148 Q26 157 34 182 Z " />
<glyph glyph-name="uni2084" unicode="&#x2084;" horiz-adv-x="372" d="M324 38 Q339 38 343 34 Q346 30 346 17 L346 -5 Q346 -18 343 -22 Q339 -26 324 -26 L294 -26 L294 -97 Q294 -119 273 -119 L243 -119 Q223 -119 223 -97 L223 -26 L42 -26 Q19 -26 19 -3 L19 16 Q19 31 27 41 L207 263 Q218 277 239 277 L271 277 Q286 277 290 273 Q294 268 294 253 L294 38 L324 38 Z M105 38 L223 38 L223 183 L105 38 Z " />
<glyph glyph-name="uni2085" unicode="&#x2085;" horiz-adv-x="357" d="M291 277 Q309 277 309 259 L309 230 Q309 212 291 212 L123 212 L115 132 L181 132 Q324 132 324 7 Q324 -50 288 -87 Q249 -127 181 -127 Q62 -127 30 -25 Q21 0 42 7 L63 15 Q87 22 95 2 Q116 -60 178 -60 Q252 -60 252 6 Q252 70 179 70 L64 70 Q41 70 43 93 L59 256 Q61 277 85 277 L291 277 Z " />
<glyph glyph-name="uni2086" unicode="&#x2086;" horiz-adv-x="376" d="M114 107 Q160 125 207 125 Q343 125 343 1 Q343 -127 189 -127 Q38 -127 38 21 L38 134 Q38 285 194 285 Q296 285 332 212 Q341 198 321 188 L291 173 Q274 165 264 178 Q242 216 194 216 Q114 216 114 137 L114 107 Z M114 20 Q114 -58 189 -58 Q267 -58 267 0 Q267 56 195 56 Q157 56 114 38 L114 20 Z " />
<glyph glyph-name="uni2087" unicode="&#x2087;" horiz-adv-x="320" d="M284 277 Q304 277 304 257 L304 239 Q304 225 298 213 L160 -103 Q152 -119 128 -119 L98 -119 Q72 -119 84 -92 L217 207 L41 207 Q21 207 21 227 L21 257 Q21 277 41 277 L284 277 Z " />
<glyph glyph-name="uni2088" unicode="&#x2088;" horiz-adv-x="382" d="M45 172 Q45 225 84 255 Q123 285 191 285 Q336 285 336 181 Q336 117 276 89 Q349 61 349 -7 Q349 -127 191 -127 Q33 -127 33 -21 Q33 48 107 78 Q45 107 45 172 Z M261 173 Q261 225 190 225 Q120 225 120 172 Q120 128 206 112 Q261 133 261 173 Z M269 -9 Q269 17 247 30 Q228 42 177 51 Q113 23 113 -12 Q113 -66 192 -66 Q269 -66 269 -9 Z " />
<glyph glyph-name="uni2089" unicode="&#x2089;" horiz-adv-x="376" d="M262 50 Q208 33 169 33 Q33 33 33 157 Q33 285 186 285 Q337 285 337 136 L337 24 Q337 -127 182 -127 Q81 -127 44 -55 Q35 -39 54 -30 L84 -15 Q102 -7 112 -20 Q132 -58 182 -58 Q262 -58 262 21 L262 50 Z M262 138 Q262 216 186 216 Q109 216 109 158 Q109 102 180 102 Q226 102 262 120 L262 138 Z " />
<glyph glyph-name="uni2070" unicode="&#x2070;" horiz-adv-x="376" d="M39 681 Q39 745 78 782 Q118 819 188 819 Q258 819 298 782 Q337 745 337 681 L337 545 Q337 481 298 444 Q259 407 188 407 Q117 407 78 444 Q39 481 39 545 L39 681 Z M261 681 Q261 746 188 746 Q115 746 115 681 L115 545 Q115 479 188 479 Q261 479 261 545 L261 681 Z " />
<glyph glyph-name="uni00B9" unicode="&#xb9;" horiz-adv-x="283" d="M201 811 Q228 811 228 784 L228 441 Q228 415 201 415 L178 415 Q152 415 152 441 L152 716 L66 668 Q42 655 29 677 L19 696 Q6 719 30 732 L156 803 Q169 811 187 811 L201 811 Z " />
<glyph glyph-name="uni00B2" unicode="&#xb2;" horiz-adv-x="359" d="M39 716 Q77 819 184 819 Q250 819 288 783 Q323 749 323 694 Q323 641 294 611 Q269 585 209 565 L153 548 Q109 534 109 501 L109 484 L295 484 Q318 484 318 461 L318 437 Q318 415 295 415 L61 415 Q36 415 36 439 L36 474 Q36 568 118 600 L175 623 Q214 638 226 646 Q246 662 246 691 Q246 747 183 747 Q139 747 111 692 Q99 667 77 675 L55 682 Q30 692 39 716 Z " />
<glyph glyph-name="uni00B3" unicode="&#xb3;" horiz-adv-x="365" d="M34 715 Q67 819 186 819 Q248 819 284 788 Q318 758 318 706 Q318 645 273 621 Q330 593 330 520 Q330 407 186 407 Q66 407 32 507 Q24 533 45 541 L67 548 Q91 556 101 532 Q119 475 186 475 Q255 475 255 528 Q255 581 205 581 L155 581 Q131 581 131 604 L131 624 Q131 641 135 645 Q140 649 156 649 L200 649 Q247 649 247 698 Q247 751 188 751 Q123 751 104 694 Q93 664 65 676 L49 682 Q25 691 34 715 Z " />
<glyph glyph-name="uni2074" unicode="&#x2074;" horiz-adv-x="370" d="M322 572 Q344 572 344 551 L344 529 Q344 508 322 508 L291 508 L291 437 Q291 415 270 415 L243 415 Q223 415 223 437 L223 508 L42 508 Q19 508 19 531 L19 550 Q19 565 27 575 L207 797 Q218 811 239 811 L268 811 Q283 811 287 807 Q291 802 291 787 L291 572 L322 572 Z M105 572 L223 572 L223 717 L105 572 Z " />
<glyph glyph-name="uni2075" unicode="&#x2075;" horiz-adv-x="356" d="M291 811 Q309 811 309 792 L309 764 Q309 746 291 746 L123 746 L115 666 L181 666 Q324 666 324 541 Q324 484 288 447 Q249 407 181 407 Q62 407 30 509 Q20 534 42 541 L63 549 Q86 556 95 536 Q117 473 178 473 Q252 473 252 540 Q252 604 179 604 L64 604 Q42 604 43 626 L59 789 Q61 811 85 811 L291 811 Z " />
<glyph glyph-name="uni2076" unicode="&#x2076;" horiz-adv-x="376" d="M114 641 Q160 659 207 659 Q343 659 343 535 Q343 407 189 407 Q38 407 38 555 L38 668 Q38 819 194 819 Q296 819 332 746 Q341 730 321 722 L291 707 Q275 698 264 712 Q241 749 194 749 Q114 749 114 671 L114 641 Z M114 553 Q114 476 189 476 Q267 476 267 534 Q267 590 195 590 Q157 590 114 572 L114 553 Z " />
<glyph glyph-name="uni2077" unicode="&#x2077;" horiz-adv-x="320" d="M284 811 Q304 811 304 791 L304 772 Q304 757 299 747 L160 431 Q154 415 128 415 L99 415 Q72 415 85 442 L217 741 L42 741 Q22 741 22 760 L22 791 Q22 811 42 811 L284 811 Z " />
<glyph glyph-name="uni2078" unicode="&#x2078;" horiz-adv-x="382" d="M45 706 Q45 759 84 789 Q123 819 191 819 Q336 819 336 715 Q336 651 276 623 Q349 595 349 527 Q349 407 191 407 Q33 407 33 513 Q33 580 107 612 Q45 641 45 706 Z M261 706 Q261 759 190 759 Q120 759 120 705 Q120 662 206 646 Q261 667 261 706 Z M269 525 Q269 551 247 564 Q228 576 177 585 Q113 557 113 522 Q113 467 192 467 Q269 467 269 525 Z " />
<glyph glyph-name="uni2079" unicode="&#x2079;" horiz-adv-x="376" d="M262 584 Q205 566 169 566 Q33 566 33 691 Q33 819 186 819 Q337 819 337 670 L337 558 Q337 407 182 407 Q80 407 44 479 Q35 495 54 504 L84 519 Q102 527 112 514 Q132 476 182 476 Q262 476 262 555 L262 584 Z M262 672 Q262 749 186 749 Q109 749 109 692 Q109 636 180 636 Q226 636 262 654 L262 672 Z " />
<glyph glyph-name="asterisk" unicode="&#x2a;" horiz-adv-x="372" d="M199 673 Q215 673 212 658 L203 561 L292 600 Q307 607 312 592 L320 566 Q325 551 309 548 L214 528 L278 454 Q290 444 277 434 L255 418 Q241 408 234 423 L185 506 L136 423 Q129 408 115 417 L93 434 Q80 444 92 455 L157 528 L63 548 Q47 551 51 567 L60 592 Q66 608 79 600 L168 561 L159 658 Q155 673 171 673 L199 673 Z " />
<glyph glyph-name="backslash" unicode="&#x5c;" horiz-adv-x="422" d="M28 688 Q21 710 44 710 L88 710 Q111 710 120 688 L390 -38 Q399 -60 374 -60 L330 -60 Q307 -60 298 -38 L28 688 Z " />
<glyph glyph-name="middot" unicode="&#xb7;" horiz-adv-x="230" d="M118 332 Q147 332 158 321 Q169 311 169 282 L169 274 Q169 245 158 234 Q147 223 118 223 L112 223 Q83 223 72 234 Q61 245 61 274 L61 282 Q61 311 72 321 Q83 332 112 332 L118 332 Z " />
<glyph glyph-name="bullet" unicode="&#x2022;" horiz-adv-x="332" d="M166 172 Q127 172 101 199 Q75 225 75 264 Q75 302 101 328 Q127 354 166 354 Q205 354 231 328 Q256 302 256 264 Q256 225 231 199 Q205 172 166 172 Z " />
<glyph glyph-name="colon" unicode="&#x3a;" horiz-adv-x="227" d="M117 491 Q146 491 156 480 Q167 469 167 440 L167 432 Q167 404 156 393 Q146 382 117 382 L110 382 Q82 382 71 393 Q60 404 60 432 L60 440 Q60 469 71 480 Q81 491 110 491 L117 491 Z M117 103 Q145 103 156 92 Q167 81 167 52 L167 44 Q167 16 156 5 Q146 -6 117 -6 L110 -6 Q81 -6 71 4 Q60 15 60 44 L60 52 Q60 81 71 92 Q82 103 110 103 L117 103 Z " />
<glyph glyph-name="comma" unicode="&#x2c;" horiz-adv-x="199" d="M89 -98 Q81 -122 59 -122 L43 -122 Q23 -122 26 -103 L56 71 Q60 100 89 100 L123 100 Q159 100 148 71 L89 -98 Z " />
<glyph glyph-name="ellipsis" unicode="&#x2026;" horiz-adv-x="651" d="M105 103 Q134 103 145 92 Q156 81 156 52 L156 44 Q156 15 145 5 Q134 -6 105 -6 L99 -6 Q70 -6 59 4 Q48 15 48 44 L48 52 Q48 81 59 92 Q70 103 99 103 L105 103 Z M329 103 Q357 103 368 92 Q379 81 379 52 L379 44 Q379 16 368 5 Q358 -6 329 -6 L322 -6 Q293 -6 282 4 Q271 15 271 44 L271 52 Q271 103 322 103 L329 103 Z M552 103 Q603 103 603 52 L603 44 Q603 16 592 5 Q581 -6 552 -6 L545 -6 Q516 -6 506 4 Q495 15 495 44 L495 52 Q495 81 506 92 Q517 103 545 103 L552 103 Z " />
<glyph glyph-name="exclam" unicode="&#x21;" horiz-adv-x="222" d="M134 740 Q159 740 158 716 L147 208 Q146 184 123 184 L99 184 Q76 184 75 208 L65 716 Q64 740 89 740 L134 740 Z M114 103 Q143 103 154 92 Q165 81 165 52 L165 44 Q165 15 154 5 Q143 -6 114 -6 L108 -6 Q79 -6 68 4 Q57 15 57 44 L57 52 Q57 81 68 92 Q79 103 108 103 L114 103 Z " />
<glyph glyph-name="exclamdown" unicode="&#xa1;" horiz-adv-x="213" d="M103 412 Q74 412 63 423 Q52 434 52 463 L52 470 Q52 499 63 510 Q74 521 103 521 L109 521 Q138 521 149 510 Q160 499 160 470 L160 463 Q160 434 149 423 Q138 412 109 412 L103 412 Z M84 -225 Q59 -225 60 -202 L71 306 Q71 330 94 330 L118 330 Q141 330 142 306 L153 -202 Q154 -225 129 -225 L84 -225 Z " />
<glyph glyph-name="numbersign" unicode="&#x23;" horiz-adv-x="694" d="M643 490 Q666 490 661 466 L650 430 Q644 408 619 408 L525 408 L482 263 L576 263 Q601 263 594 239 L583 203 Q575 181 551 181 L457 181 L410 24 Q403 0 380 0 L341 0 Q316 0 323 24 L370 181 L230 181 L183 24 Q176 0 152 0 L113 0 Q89 0 96 24 L143 181 L51 181 Q26 181 33 204 L44 241 Q50 263 76 263 L168 263 L211 408 L118 408 Q93 408 100 431 L111 468 Q117 490 143 490 L235 490 L279 636 Q286 660 309 660 L348 660 Q373 660 366 636 L321 490 L462 490 L506 636 Q514 660 536 660 L575 660 Q600 660 593 636 L549 490 L643 490 Z M254 263 L395 263 L438 408 L298 408 L254 263 Z " />
<glyph glyph-name="period" unicode="&#x2e;" horiz-adv-x="205" d="M105 103 Q134 103 145 92 Q156 81 156 52 L156 44 Q156 15 145 5 Q134 -6 105 -6 L99 -6 Q70 -6 59 4 Q48 15 48 44 L48 52 Q48 81 59 92 Q70 103 99 103 L105 103 Z " />
<glyph glyph-name="question" unicode="&#x3f;" horiz-adv-x="563" d="M31 574 Q94 739 287 739 Q399 739 466 679 Q529 622 529 533 Q529 439 475 380 Q453 355 373 305 Q296 256 296 194 Q296 169 271 169 L240 169 Q215 169 215 194 Q215 298 319 367 Q380 407 398 427 Q434 468 434 529 Q434 584 396 618 Q356 654 285 654 Q163 654 117 544 Q107 519 84 528 L47 541 Q21 551 31 574 Z M259 103 Q288 103 299 92 Q310 81 310 52 L310 44 Q310 15 299 5 Q288 -6 259 -6 L253 -6 Q224 -6 213 4 Q202 15 202 44 L202 52 Q202 81 213 92 Q224 103 253 103 L259 103 Z " />
<glyph glyph-name="questiondown" unicode="&#xbf;" horiz-adv-x="558" d="M300 412 Q272 412 261 423 Q250 434 250 462 L250 470 Q250 499 261 510 Q271 521 300 521 L307 521 Q336 521 347 510 Q358 499 358 470 L358 462 Q358 434 347 423 Q336 412 307 412 L300 412 Z M529 -60 Q464 -225 272 -225 Q161 -225 94 -164 Q30 -107 30 -19 Q30 75 84 134 Q106 158 187 210 Q264 260 264 321 Q264 346 289 346 L320 346 Q345 346 345 321 Q345 216 241 147 Q181 108 162 87 Q126 47 126 -14 Q126 -69 164 -104 Q204 -140 274 -140 Q395 -140 442 -30 Q453 -6 476 -13 L513 -27 Q539 -36 529 -60 Z " />
<glyph glyph-name="quotedbl" unicode="&#x22;" horiz-adv-x="319" d="M131 485 Q129 465 107 465 L83 465 Q69 465 65 468 Q61 472 61 485 L61 689 Q61 710 83 710 L120 710 Q143 710 142 689 L131 485 Z M254 485 Q253 465 231 465 L206 465 Q192 465 188 468 Q184 472 184 485 L184 689 Q184 710 206 710 L243 710 Q266 710 265 689 L254 485 Z " />
<glyph glyph-name="quotesingle" unicode="&#x27;" horiz-adv-x="196" d="M131 485 Q129 465 107 465 L83 465 Q69 465 65 468 Q61 472 61 485 L61 689 Q61 710 83 710 L120 710 Q143 710 142 689 L131 485 Z " />
<glyph glyph-name="semicolon" unicode="&#x3b;" horiz-adv-x="248" d="M136 491 Q165 491 176 480 Q187 469 187 440 L187 432 Q187 403 176 393 Q165 382 136 382 L130 382 Q101 382 90 393 Q79 403 79 432 L79 440 Q79 469 90 480 Q101 491 130 491 L136 491 Z M113 -98 Q105 -122 83 -122 L66 -122 Q47 -122 50 -103 L80 71 Q84 100 112 100 L147 100 Q182 100 171 71 L113 -98 Z " />
<glyph glyph-name="slash" unicode="&#x2f;" horiz-adv-x="422" d="M122 -38 Q113 -60 90 -60 L47 -60 Q22 -60 31 -38 L301 689 Q309 711 333 711 L376 711 Q401 711 392 689 L122 -38 Z " />
<glyph glyph-name="underscore" unicode="&#x5f;" horiz-adv-x="501" d="M450 0 Q477 0 477 -26 L477 -60 Q477 -86 450 -86 L51 -86 Q25 -86 25 -60 L25 -26 Q25 0 51 0 L450 0 Z " />
<glyph glyph-name="braceleft" unicode="&#x7b;" horiz-adv-x="333" d="M292 856 Q316 856 316 832 L316 798 Q316 775 292 775 L247 775 Q196 775 196 721 L196 477 Q196 388 127 353 Q196 327 196 229 L196 -12 Q196 -66 247 -66 L292 -66 Q316 -66 316 -89 L316 -123 Q316 -147 292 -147 L245 -147 Q172 -147 141 -115 Q111 -85 111 -17 L111 217 Q111 307 36 307 L28 307 Q8 307 8 331 L8 375 Q8 398 27 398 L36 398 Q111 398 111 489 L111 725 Q111 794 141 824 Q172 856 244 856 L292 856 Z " />
<glyph glyph-name="braceright" unicode="&#x7d;" horiz-adv-x="333" d="M89 856 Q161 856 192 824 Q222 794 222 725 L222 489 Q222 398 297 398 L306 398 Q325 398 325 375 L325 331 Q325 307 305 307 L297 307 Q222 307 222 217 L222 -17 Q222 -85 193 -115 Q161 -147 88 -147 L40 -147 Q17 -147 17 -123 L17 -89 Q17 -66 40 -66 L86 -66 Q137 -66 137 -12 L137 229 Q137 327 206 353 Q137 388 137 477 L137 721 Q137 775 86 775 L40 775 Q17 775 17 798 L17 832 Q17 856 40 856 L89 856 Z " />
<glyph glyph-name="bracketleft" unicode="&#x5b;" horiz-adv-x="286" d="M244 856 Q259 856 263 852 Q267 848 267 833 L267 799 Q267 784 263 780 Q259 776 244 776 L150 776 L150 -65 L244 -65 Q259 -65 263 -69 Q267 -74 267 -88 L267 -123 Q267 -138 263 -142 Q259 -146 244 -146 L89 -146 Q74 -146 70 -141 Q65 -137 65 -122 L65 832 Q65 847 70 852 Q74 856 89 856 L244 856 Z " />
<glyph glyph-name="bracketright" unicode="&#x5d;" horiz-adv-x="286" d="M197 856 Q212 856 217 852 Q221 847 221 832 L221 -122 Q221 -137 217 -141 Q212 -146 197 -146 L42 -146 Q27 -146 23 -142 Q19 -138 19 -123 L19 -88 Q19 -74 23 -69 Q27 -65 42 -65 L136 -65 L136 776 L42 776 Q27 776 23 780 Q19 784 19 799 L19 833 Q19 848 23 852 Q27 856 42 856 L197 856 Z " />
<glyph glyph-name="parenleft" unicode="&#x28;" horiz-adv-x="270" d="M57 610 Q57 782 198 848 Q219 856 231 833 L247 800 Q255 779 234 768 Q145 724 145 617 L145 93 Q145 -14 234 -58 Q258 -71 247 -90 L231 -123 Q219 -146 198 -138 Q57 -72 57 100 L57 610 Z " />
<glyph glyph-name="parenright" unicode="&#x29;" horiz-adv-x="270" d="M37 833 Q49 856 70 848 Q211 782 211 610 L211 100 Q211 -72 70 -138 Q49 -146 37 -123 L21 -90 Q13 -69 34 -58 Q123 -14 123 93 L123 617 Q123 724 34 768 Q13 779 21 800 L37 833 Z " />
<glyph glyph-name="emdash" unicode="&#x2014;" horiz-adv-x="770" d="M685 310 Q711 310 711 284 L711 250 Q711 223 685 223 L85 223 Q59 223 59 250 L59 284 Q59 310 85 310 L685 310 Z " />
<glyph glyph-name="endash" unicode="&#x2013;" horiz-adv-x="572" d="M486 310 Q512 310 512 284 L512 250 Q512 224 486 224 L86 224 Q60 224 60 250 L60 284 Q60 310 86 310 L486 310 Z " />
<glyph glyph-name="hyphen" unicode="&#x2d;" horiz-adv-x="417" d="M331 308 Q358 308 358 282 L358 248 Q358 222 331 222 L86 222 Q60 222 60 248 L60 282 Q60 308 86 308 L331 308 Z " />
<glyph glyph-name="guillemotleft" unicode="&#xab;" horiz-adv-x="576" d="M287 113 Q303 99 287 83 L259 55 Q243 41 229 55 L36 248 Q23 263 36 277 L232 474 Q248 490 262 474 L289 447 Q304 433 289 418 L137 264 L287 113 Z M520 113 Q534 99 520 83 L492 55 Q475 41 461 55 L269 248 Q253 263 269 277 L465 474 Q479 490 495 474 L521 447 Q536 433 521 418 L368 264 L520 113 Z " />
<glyph glyph-name="guillemotright" unicode="&#xbb;" horiz-adv-x="576" d="M283 418 Q268 432 283 447 L309 474 Q325 491 339 474 L535 277 Q550 263 535 248 L343 55 Q328 41 312 55 L284 83 Q269 99 284 113 L435 264 L283 418 Z M51 418 Q36 433 51 447 L77 474 Q91 490 107 474 L303 277 Q318 263 303 248 L110 55 Q95 40 80 55 L52 83 Q37 99 52 113 L203 264 L51 418 Z " />
<glyph glyph-name="guilsinglleft" unicode="&#x2039;" horiz-adv-x="344" d="M287 113 Q303 99 287 83 L259 55 Q243 41 229 55 L36 248 Q23 263 36 277 L232 474 Q248 491 262 474 L289 447 Q304 433 289 418 L137 264 L287 113 Z " />
<glyph glyph-name="guilsinglright" unicode="&#x203a;" horiz-adv-x="344" d="M52 418 Q36 433 52 447 L78 474 Q93 490 108 474 L304 277 Q319 263 304 248 L111 55 Q97 41 81 55 L53 83 Q38 99 53 113 L204 264 L52 418 Z " />
<glyph glyph-name="quotedblbase" unicode="&#x201e;" horiz-adv-x="334" d="M89 -98 Q81 -122 59 -122 L43 -122 Q23 -122 26 -103 L56 71 Q60 100 89 100 L123 100 Q159 100 148 71 L89 -98 Z M224 -98 Q216 -122 195 -122 L178 -122 Q160 -122 161 -103 L192 71 Q196 100 224 100 L258 100 Q294 100 283 71 L224 -98 Z " />
<glyph glyph-name="quotedblleft" unicode="&#x201c;" horiz-adv-x="346" d="M105 686 Q113 710 135 710 L151 710 Q171 710 168 692 L138 517 Q134 488 105 488 L71 488 Q35 488 46 517 L105 686 Z M240 686 Q248 710 270 710 L287 710 Q306 710 303 692 L273 517 Q269 488 241 488 L206 488 Q171 488 182 517 L240 686 Z " />
<glyph glyph-name="quotedblright" unicode="&#x201d;" horiz-adv-x="340" d="M114 512 Q106 488 84 488 L68 488 Q48 488 51 507 L81 681 Q85 710 114 710 L148 710 Q183 710 173 681 L114 512 Z M249 512 Q242 488 220 488 L203 488 Q184 488 187 507 L217 681 Q221 710 249 710 L284 710 Q318 710 308 681 L249 512 Z " />
<glyph glyph-name="quoteleft" unicode="&#x2018;" horiz-adv-x="210" d="M105 686 Q113 710 135 710 L151 710 Q171 710 168 692 L138 517 Q134 488 105 488 L71 488 Q35 488 46 517 L105 686 Z " />
<glyph glyph-name="quoteright" unicode="&#x2019;" horiz-adv-x="205" d="M114 512 Q106 488 84 488 L68 488 Q48 488 51 507 L81 681 Q85 710 114 710 L148 710 Q183 710 173 681 L114 512 Z " />
<glyph glyph-name="quotesinglbase" unicode="&#x201a;" horiz-adv-x="187" d="M122 -111 Q119 -135 97 -135 L76 -135 Q52 -135 52 -111 L52 86 Q52 110 76 110 L113 110 Q140 110 137 86 L122 -111 Z " />
<glyph glyph-name="Euro" unicode="&#x20ac;" horiz-adv-x="731" d="M144 484 Q144 596 218 660 Q293 725 424 725 Q606 725 671 610 Q690 580 660 564 L630 549 Q602 535 585 560 Q548 635 424 635 Q339 635 291 596 Q242 557 242 487 L242 460 L526 460 Q551 460 544 437 L536 412 Q529 390 504 390 L239 390 L239 310 L481 310 Q507 310 499 287 L492 262 Q484 240 460 240 L242 240 L242 220 Q248 75 424 75 Q554 75 587 154 Q606 179 632 165 L662 150 Q693 134 674 104 Q608 -15 424 -15 Q293 -15 222 45 Q149 105 145 220 L145 240 L48 240 Q24 240 29 263 L37 289 Q43 310 68 310 L145 310 L145 390 L88 390 Q63 390 70 413 L78 439 Q84 460 109 460 L144 460 L144 484 Z " />
<glyph glyph-name="uni20BD" unicode="&#x20bd;" horiz-adv-x="658" d="M523 194 Q547 194 547 170 L547 148 Q547 124 523 124 L200 124 L200 26 Q200 0 173 0 L129 0 Q103 0 103 26 L103 124 L60 124 Q36 124 36 148 L36 170 Q36 194 60 194 L103 194 L103 684 Q103 710 129 710 L402 710 Q506 710 566 653 Q626 595 626 493 Q626 392 566 335 Q506 278 402 278 L200 278 L200 194 L523 194 Z M393 368 Q455 368 490 402 Q525 435 525 493 Q525 552 490 586 Q455 620 393 620 L200 620 L200 368 L393 368 Z " />
<glyph glyph-name="cent" unicode="&#xa2;" horiz-adv-x="535" d="M472 157 Q498 146 488 123 Q448 6 318 -10 L318 -60 Q318 -84 294 -84 L252 -84 Q228 -84 228 -60 L228 -12 Q52 7 52 187 L52 330 Q52 506 228 527 L228 586 Q228 610 252 610 L294 610 Q318 610 318 586 L318 527 Q452 512 486 397 Q495 371 470 363 L436 352 Q412 342 402 368 Q373 452 272 452 Q141 452 141 334 L141 183 Q141 64 272 64 Q373 64 403 151 Q412 175 437 167 L472 157 Z " />
<glyph glyph-name="currency" unicode="&#xa4;" horiz-adv-x="606" d="M541 161 Q559 145 541 128 L512 98 Q496 82 478 98 L427 150 Q373 110 303 110 Q234 110 178 149 L127 97 Q109 81 93 97 L63 126 Q47 144 63 160 L116 212 Q76 266 76 337 Q76 405 115 460 L63 512 Q45 530 63 546 L92 575 Q109 592 126 575 L177 524 Q235 564 303 564 Q369 564 426 525 L477 576 Q494 593 511 576 L540 547 Q557 530 540 513 L489 462 Q530 407 530 337 Q530 271 491 212 L541 161 Z M303 482 Q242 482 200 440 Q157 398 156 337 Q157 276 200 234 Q242 191 303 191 Q364 191 406 234 Q448 276 448 337 Q448 398 406 440 Q364 482 303 482 Z " />
<glyph glyph-name="dollar" unicode="&#x24;" horiz-adv-x="591" d="M315 779 Q339 779 339 755 L339 698 Q472 683 536 552 Q548 526 521 514 L483 497 Q460 487 447 511 Q397 609 290 609 Q146 609 146 502 Q146 450 195 427 Q227 413 308 404 Q422 393 471 365 Q550 320 550 212 Q550 35 339 14 L339 -45 Q339 -69 315 -69 L273 -69 Q249 -69 249 -45 L249 13 Q97 28 40 174 Q30 200 57 210 L95 224 Q121 233 131 207 Q175 100 293 100 Q453 100 453 210 Q453 266 404 289 Q372 303 290 312 Q177 324 127 353 Q48 398 48 502 Q48 680 249 698 L249 755 Q249 779 273 779 L315 779 Z " />
<glyph glyph-name="florin" unicode="&#x192;" horiz-adv-x="452" d="M192 530 Q215 740 415 740 Q439 740 439 716 L439 681 Q439 657 415 657 Q348 657 317 622 Q289 591 282 526 L268 399 L390 399 Q414 399 414 375 L414 340 Q414 316 390 316 L260 316 L225 -9 Q204 -220 3 -220 Q-22 -220 -22 -196 L-22 -161 Q-22 -137 3 -137 Q121 -137 136 -6 L170 316 L55 316 Q31 316 31 340 L31 375 Q31 399 55 399 L179 399 L192 530 Z " />
<glyph glyph-name="sterling" unicode="&#xa3;" horiz-adv-x="640" d="M132 525 Q132 610 187 665 Q247 725 354 725 Q535 725 592 571 Q602 546 575 538 L534 523 Q512 515 500 540 Q460 635 358 635 Q297 635 263 602 Q232 571 232 521 L232 380 L472 380 Q498 380 498 354 L498 322 Q498 296 472 296 L232 296 L232 191 Q232 120 182 85 L182 81 Q275 90 323 90 L562 90 Q588 90 588 64 L588 26 Q588 0 562 0 L65 0 Q40 0 40 26 L40 65 Q40 86 55 86 L67 86 Q132 98 132 190 L132 296 L72 296 Q46 296 46 322 L46 354 Q46 380 72 380 L132 380 L132 525 Z " />
<glyph glyph-name="yen" unicode="&#xa5;" horiz-adv-x="646" d="M602 710 Q632 710 615 684 L407 359 L509 359 Q532 359 532 336 L532 313 Q532 290 509 290 L371 290 L371 213 L509 213 Q532 213 532 190 L532 166 Q532 143 509 143 L371 143 L371 26 Q371 0 345 0 L301 0 Q275 0 275 26 L275 143 L136 143 Q113 143 113 166 L113 190 Q113 213 136 213 L275 213 L275 290 L136 290 Q113 290 113 313 L113 336 Q113 359 136 359 L241 359 L31 684 Q16 710 45 710 L93 710 Q131 710 144 687 L325 392 L507 687 Q519 710 557 710 L602 710 Z " />
<glyph glyph-name="approxequal" unicode="&#x2248;" horiz-adv-x="563" d="M67 436 Q120 484 186 484 Q223 485 279 465 Q335 445 362 446 Q400 447 431 475 Q449 491 466 474 L493 449 Q512 428 493 412 Q440 366 378 363 Q337 361 283 381 Q227 401 200 401 Q160 400 129 372 Q111 356 94 373 L67 399 Q47 417 67 436 Z M69 252 Q120 300 186 301 Q224 302 279 282 Q334 263 361 263 Q401 263 433 292 Q451 307 468 291 L494 265 Q515 246 494 228 Q445 182 380 179 Q340 178 286 197 Q230 217 202 217 Q164 217 130 188 Q112 173 96 189 L69 215 Q49 235 69 252 Z " />
<glyph glyph-name="asciitilde" unicode="&#x7e;" horiz-adv-x="558" d="M67 335 Q123 384 188 384 Q229 384 280 365 Q331 346 358 346 Q397 346 431 375 Q449 390 466 374 L490 351 Q510 331 490 314 Q438 265 369 265 Q328 265 277 284 Q226 303 199 303 Q160 303 126 274 Q108 259 92 275 L67 298 Q47 318 67 335 Z " />
<glyph glyph-name="divide" unicode="&#xf7;" horiz-adv-x="566" d="M286 570 Q315 570 326 559 Q337 549 337 520 L337 512 Q337 483 326 472 Q315 461 286 461 L280 461 Q251 461 240 472 Q229 483 229 512 L229 520 Q229 548 240 559 Q251 570 280 570 L286 570 Z M493 368 Q519 368 519 342 L519 308 Q519 282 493 282 L74 282 Q48 282 48 308 L48 342 Q48 368 74 368 L493 368 Z M286 190 Q315 190 326 179 Q337 168 337 139 L337 131 Q337 102 326 92 Q315 81 286 81 L280 81 Q251 81 240 91 Q229 102 229 131 L229 139 Q229 190 280 190 L286 190 Z " />
<glyph glyph-name="equal" unicode="&#x3d;" horiz-adv-x="593" d="M506 469 Q533 469 533 443 L533 408 Q533 382 506 382 L87 382 Q61 382 61 408 L61 443 Q61 469 87 469 L506 469 Z M506 271 Q533 271 533 245 L533 211 Q533 185 506 185 L87 185 Q61 185 61 211 L61 245 Q61 271 87 271 L506 271 Z " />
<glyph glyph-name="greater" unicode="&#x3e;" horiz-adv-x="490" d="M58 543 Q58 578 86 562 L436 372 Q458 360 458 339 L458 314 Q458 291 436 281 L86 91 Q58 76 58 111 L58 144 Q58 176 82 187 L345 323 L345 327 L83 462 Q58 475 58 505 L58 543 Z " />
<glyph glyph-name="greaterequal" unicode="&#x2265;" horiz-adv-x="547" d="M75 610 Q75 642 103 630 L461 466 Q482 456 482 433 L482 408 Q482 386 461 375 L103 211 Q75 198 75 231 L75 266 Q75 300 100 309 L366 420 L366 424 L99 535 Q75 545 75 578 L75 610 Z M455 152 Q482 152 482 125 L482 94 Q482 68 455 68 L102 68 Q75 68 75 94 L75 126 Q75 152 102 152 L455 152 Z " />
<glyph glyph-name="infinity" unicode="&#x221e;" horiz-adv-x="711" d="M357 345 Q416 446 508 446 Q577 446 621 401 Q664 356 664 285 Q664 216 617 170 Q571 125 506 125 Q409 125 356 222 Q300 125 203 125 Q138 125 93 171 Q48 216 48 283 Q48 354 93 400 Q137 446 207 446 Q299 446 357 345 Z M296 307 Q285 323 276 334 Q245 367 207 367 Q169 367 147 344 Q125 321 125 285 Q125 251 147 228 Q170 204 205 204 Q254 204 310 286 L296 307 Z M588 285 Q588 320 566 343 Q543 367 506 367 Q467 367 437 334 Q427 324 416 308 L402 286 Q433 242 439 235 Q469 204 508 204 Q543 204 566 228 Q588 252 588 285 Z " />
<glyph glyph-name="integral" unicode="&#x222b;" horiz-adv-x="377" d="M143 544 Q143 644 188 690 Q235 740 343 740 Q367 740 367 716 L367 681 Q367 657 343 657 Q279 657 254 628 Q233 603 233 542 L233 -24 Q233 -124 189 -170 Q142 -220 33 -220 Q9 -220 9 -196 L9 -161 Q9 -137 33 -137 Q98 -137 122 -108 Q143 -84 143 -22 L143 544 Z " />
<glyph glyph-name="less" unicode="&#x3c;" horiz-adv-x="490" d="M404 562 Q432 577 432 542 L432 508 Q432 478 408 465 L145 329 L145 325 L407 191 Q432 179 432 147 L432 110 Q432 75 404 90 L54 281 Q32 292 32 313 L32 339 Q32 360 54 372 L404 562 Z " />
<glyph glyph-name="lessequal" unicode="&#x2264;" horiz-adv-x="548" d="M473 578 Q473 545 448 535 L181 424 L181 420 L448 309 Q473 300 473 266 L473 231 Q473 198 445 211 L87 375 Q66 385 66 408 L66 433 Q66 456 87 466 L445 630 Q473 642 473 610 L473 578 Z M446 152 Q473 152 473 126 L473 94 Q473 68 446 68 L92 68 Q66 68 66 94 L66 125 Q66 152 92 152 L446 152 Z " />
<glyph glyph-name="logicalnot" unicode="&#xac;" horiz-adv-x="584" d="M497 399 Q521 399 521 375 L521 163 Q521 139 497 139 L456 139 Q432 139 432 163 L432 315 L82 315 Q58 315 58 339 L58 375 Q58 399 82 399 L497 399 Z " />
<glyph glyph-name="minus" unicode="&#x2212;" horiz-adv-x="593" d="M506 369 Q533 369 533 343 L533 308 Q533 282 506 282 L87 282 Q61 282 61 308 L61 343 Q61 369 87 369 L506 369 Z " />
<glyph glyph-name="multiply" unicode="&#xd7;" horiz-adv-x="510" d="M444 191 Q461 172 444 155 L423 134 Q405 116 387 134 L252 268 L119 134 Q101 116 83 134 L62 155 Q45 172 62 191 L195 325 L62 458 Q45 477 62 494 L83 515 Q101 534 119 515 L252 382 L387 516 Q405 533 423 516 L444 495 Q461 476 444 459 L309 325 L444 191 Z " />
<glyph glyph-name="notequal" unicode="&#x2260;" horiz-adv-x="598" d="M508 271 Q534 271 534 245 L534 211 Q534 185 508 185 L251 185 L196 77 Q192 69 178 69 L145 69 Q138 69 141 78 L196 185 L89 185 Q62 185 62 211 L62 245 Q62 271 89 271 L240 271 L297 382 L89 382 Q62 382 62 408 L62 443 Q62 469 89 469 L341 469 L396 575 Q400 583 412 583 L446 583 Q455 583 450 574 L396 469 L508 469 Q534 469 534 443 L534 408 Q534 382 508 382 L352 382 L295 271 L508 271 Z " />
<glyph glyph-name="partialdiff" unicode="&#x2202;" horiz-adv-x="552" d="M122 718 Q122 742 145 742 Q334 742 416 659 Q495 579 495 398 L495 183 Q495 89 438 38 Q380 -15 270 -15 Q160 -15 102 38 Q45 89 45 183 L45 306 Q45 398 101 452 Q156 505 252 505 Q370 505 410 437 Q405 551 347 604 Q285 660 148 660 Q123 660 122 683 L122 718 Z M405 307 Q405 424 270 424 Q135 424 135 306 L135 184 Q135 66 270 66 Q405 66 405 184 L405 307 Z " />
<glyph glyph-name="percent" unicode="&#x25;" horiz-adv-x="816" d="M34 578 Q34 647 76 686 Q118 726 196 726 Q274 726 316 686 Q358 647 358 578 L358 505 Q358 437 316 398 Q274 359 196 359 Q118 359 76 398 Q34 437 34 505 L34 578 Z M687 710 Q700 710 704 702 Q707 695 699 685 L213 23 Q197 0 161 0 L131 0 Q116 0 113 8 Q109 16 117 27 L604 688 Q619 710 652 710 L687 710 Z M282 574 Q282 654 196 654 Q109 654 109 574 L109 510 Q109 430 196 430 Q282 430 282 510 L282 574 Z M457 203 Q457 272 499 311 Q541 351 619 351 Q697 351 740 311 Q781 272 781 203 L781 131 Q781 62 740 23 Q697 -16 619 -16 Q541 -16 499 23 Q457 62 457 131 L457 203 Z M706 199 Q706 279 619 279 Q533 279 533 199 L533 136 Q533 56 619 56 Q706 56 706 136 L706 199 Z " />
<glyph glyph-name="perthousand" unicode="&#x2030;" horiz-adv-x="1185" d="M34 578 Q34 647 76 686 Q118 726 196 726 Q274 726 316 686 Q358 647 358 578 L358 505 Q358 437 316 398 Q274 359 196 359 Q118 359 76 398 Q34 437 34 505 L34 578 Z M687 710 Q700 710 704 702 Q707 695 699 685 L213 23 Q197 0 161 0 L131 0 Q116 0 113 8 Q109 16 117 27 L604 688 Q619 710 652 710 L687 710 Z M282 574 Q282 654 196 654 Q109 654 109 574 L109 510 Q109 430 196 430 Q282 430 282 510 L282 574 Z M457 203 Q457 272 499 311 Q541 351 619 351 Q697 351 740 311 Q781 272 781 203 L781 131 Q781 62 740 23 Q697 -16 619 -16 Q541 -16 499 23 Q457 62 457 131 L457 203 Z M829 203 Q829 272 871 311 Q913 351 991 351 Q1069 351 1112 311 Q1153 272 1153 203 L1153 131 Q1153 62 1112 23 Q1069 -16 991 -16 Q913 -16 871 23 Q829 62 829 131 L829 203 Z M706 199 Q706 279 619 279 Q533 279 533 199 L533 136 Q533 56 619 56 Q706 56 706 136 L706 199 Z M1078 199 Q1078 279 991 279 Q905 279 905 199 L905 136 Q905 56 991 56 Q1078 56 1078 136 L1078 199 Z " />
<glyph glyph-name="plus" unicode="&#x2b;" horiz-adv-x="556" d="M488 369 Q514 369 514 343 L514 312 Q514 285 488 285 L320 285 L320 117 Q320 91 293 91 L262 91 Q236 91 236 117 L236 285 L68 285 Q42 285 42 312 L42 343 Q42 369 68 369 L236 369 L236 537 Q236 563 262 563 L293 563 Q320 563 320 537 L320 369 L488 369 Z " />
<glyph glyph-name="plusminus" unicode="&#xb1;" horiz-adv-x="618" d="M519 434 Q545 434 545 408 L545 383 Q545 357 519 357 L350 357 L350 260 Q350 234 324 234 L295 234 Q269 234 269 260 L269 357 L99 357 Q73 357 73 383 L73 408 Q73 434 99 434 L269 434 L269 535 Q269 561 295 561 L324 561 Q350 561 350 535 L350 434 L519 434 Z M519 190 Q545 190 545 164 L545 139 Q545 113 519 113 L99 113 Q73 113 73 139 L73 164 Q73 190 99 190 L519 190 Z " />
<glyph glyph-name="product" unicode="&#x220f;" horiz-adv-x="679" d="M623 710 Q649 710 649 684 L649 646 Q649 620 623 620 L565 620 L565 -74 Q565 -100 538 -100 L494 -100 Q468 -100 468 -74 L468 620 L213 620 L213 -74 Q213 -100 186 -100 L142 -100 Q116 -100 116 -74 L116 620 L57 620 Q30 620 30 646 L30 684 Q30 710 57 710 L623 710 Z " />
<glyph glyph-name="radical" unicode="&#x221a;" horiz-adv-x="699" d="M674 751 Q698 751 691 725 L440 -84 Q433 -106 407 -106 L368 -106 Q344 -106 336 -86 L180 353 L50 353 Q23 353 23 379 L23 413 Q23 440 50 440 L210 440 Q250 440 258 416 L354 132 Q366 94 376 41 Q385 -12 386 -14 L392 -14 L401 41 Q409 93 420 131 L594 728 Q600 751 638 751 L674 751 Z " />
<glyph glyph-name="summation" unicode="&#x2211;" horiz-adv-x="583" d="M331 339 Q351 310 331 279 L154 -10 L514 -10 Q541 -10 541 -36 L541 -74 Q541 -100 514 -100 L62 -100 Q36 -100 36 -74 L36 -37 Q36 -21 44 -10 L241 309 L49 619 Q40 629 40 647 L40 683 Q40 710 66 710 L510 710 Q536 710 536 683 L536 646 Q536 620 510 620 L157 620 L331 339 Z " />
<glyph glyph-name="uni2215" unicode="&#x2215;" horiz-adv-x="596" d="M492 688 Q507 710 541 710 L575 710 Q605 710 588 684 L102 24 Q85 0 50 0 L19 0 Q5 0 1 8 Q-2 16 6 27 L492 688 Z " />
<glyph glyph-name="uni2219" unicode="&#x2219;" horiz-adv-x="225" d="M116 296 Q144 296 155 285 Q166 274 166 245 L166 237 Q166 209 155 198 Q145 187 116 187 L109 187 Q80 187 69 197 Q58 208 58 237 L58 245 Q58 296 109 296 L116 296 Z " />
<glyph glyph-name="arrowup" unicode="&#x2191;" horiz-adv-x="745" d="M621 427 Q637 412 622 397 L599 375 Q584 361 571 375 L410 535 L410 19 Q410 -2 388 -2 L356 -2 Q334 -2 334 19 L334 535 L173 374 Q159 360 145 374 L121 397 Q106 411 121 427 L351 657 Q372 678 391 657 L621 427 Z " />
<glyph glyph-name="uni2197" unicode="&#x2197;" horiz-adv-x="745" d="M490 576 Q511 576 511 556 L511 523 Q511 503 492 503 L263 503 L628 138 Q644 123 628 107 L605 85 Q589 69 575 85 L210 449 L210 223 Q210 202 192 202 L157 202 Q137 202 137 222 L137 548 Q137 576 165 576 L490 576 Z " />
<glyph glyph-name="arrowright" unicode="&#x2192;" horiz-adv-x="745" d="M701 354 Q723 335 701 314 L471 84 Q456 69 442 84 L420 107 Q407 122 420 135 L580 297 L64 297 Q43 297 43 319 L43 349 Q43 370 64 370 L581 370 L419 533 Q406 546 419 561 L442 585 Q456 599 471 584 L701 354 Z " />
<glyph glyph-name="uni2198" unicode="&#x2198;" horiz-adv-x="745" d="M138 565 Q154 579 168 565 L533 201 L533 427 Q533 448 551 448 L586 448 Q606 448 606 427 L606 102 Q606 73 578 73 L253 73 Q232 73 232 94 L232 127 Q232 147 252 147 L480 147 L115 512 Q100 528 115 543 L138 565 Z " />
<glyph glyph-name="arrowdown" unicode="&#x2193;" horiz-adv-x="745" d="M387 663 Q409 663 409 642 L409 126 L570 286 Q583 300 598 286 L621 264 Q636 249 620 235 L390 5 Q371 -17 350 5 L120 235 Q106 251 120 264 L144 287 Q158 301 172 287 L333 126 L333 642 Q333 663 355 663 L387 663 Z " />
<glyph glyph-name="uni2199" unicode="&#x2199;" horiz-adv-x="745" d="M575 565 Q589 579 605 565 L628 543 Q644 528 628 512 L263 147 L491 147 Q511 147 511 127 L511 94 Q511 73 490 73 L165 73 Q137 73 137 102 L137 427 Q137 448 157 448 L192 448 Q210 448 210 427 L210 201 L575 565 Z " />
<glyph glyph-name="arrowleft" unicode="&#x2190;" horiz-adv-x="745" d="M680 370 Q701 370 701 349 L701 319 Q701 297 680 297 L164 297 L324 135 Q337 122 324 107 L302 84 Q288 69 273 84 L43 314 Q21 335 43 354 L273 584 Q288 599 302 585 L325 561 Q338 546 325 533 L163 370 L680 370 Z " />
<glyph glyph-name="uni2196" unicode="&#x2196;" horiz-adv-x="745" d="M578 576 Q606 576 606 548 L606 222 Q606 202 586 202 L551 202 Q533 202 533 223 L533 449 L168 85 Q154 69 138 85 L115 107 Q100 123 115 138 L480 503 L251 503 Q232 503 232 523 L232 556 Q232 576 253 576 L578 576 Z " />
<glyph glyph-name="lozenge" unicode="&#x25ca;" horiz-adv-x="538" d="M282 710 Q302 710 315 689 L503 374 Q514 353 503 336 L315 21 Q301 0 282 0 L257 0 Q237 0 224 21 L36 336 Q24 354 36 374 L224 689 Q237 710 256 710 L282 710 Z M129 355 L268 108 L272 108 L413 355 L273 602 L269 602 L129 355 Z " />
<glyph glyph-name="bar" unicode="&#x7c;" horiz-adv-x="215" d="M127 856 Q150 856 150 832 L150 -123 Q150 -147 127 -147 L89 -147 Q65 -147 65 -123 L65 832 Q65 856 89 856 L127 856 Z " />
<glyph glyph-name="brokenbar" unicode="&#xa6;" horiz-adv-x="224" d="M131 856 Q155 856 155 832 L155 455 Q155 431 131 431 L93 431 Q69 431 69 455 L69 832 Q69 856 93 856 L131 856 Z M131 279 Q155 279 155 255 L155 -122 Q155 -146 131 -146 L93 -146 Q69 -146 69 -122 L69 255 Q69 279 93 279 L131 279 Z " />
<glyph glyph-name="at" unicode="&#x40;" horiz-adv-x="901" d="M46 329 Q46 512 150 617 Q257 725 448 725 Q642 725 749 616 Q852 511 852 329 L852 256 Q852 155 801 97 Q753 43 680 43 Q630 43 602 83 Q513 51 421 51 Q247 51 247 217 L247 366 Q247 533 421 533 Q526 533 602 503 Q636 489 636 455 L636 150 Q636 109 681 109 Q723 109 750 142 Q781 180 781 254 L781 330 Q781 484 697 571 Q609 661 448 661 Q290 661 203 573 Q117 486 117 330 L117 254 Q117 98 203 15 Q288 -69 448 -69 Q529 -69 664 -43 Q678 -39 678 -51 L678 -86 Q678 -102 664 -106 Q560 -132 448 -132 Q255 -132 150 -29 Q46 72 46 256 L46 329 Z M547 447 Q504 463 431 463 Q323 463 323 364 L323 219 Q323 120 431 120 Q502 120 560 144 L560 429 Q560 442 547 447 Z " />
<glyph glyph-name="ampersand" unicode="&#x26;" horiz-adv-x="669" d="M105 548 Q105 621 154 671 Q206 725 292 725 Q369 725 421 675 Q473 625 473 554 Q473 436 326 369 L316 364 L470 211 L536 275 Q551 292 568 275 L598 244 Q611 230 596 216 L528 149 L652 24 Q673 0 641 0 L585 0 Q563 0 549 15 L470 93 Q354 -15 245 -15 Q156 -15 98 42 Q40 100 40 189 Q40 317 183 388 Q105 470 105 548 Z M389 553 Q389 591 362 618 Q333 646 292 646 Q246 646 217 616 Q190 588 190 547 Q190 494 259 425 L289 440 Q342 465 362 484 Q389 510 389 553 Z M241 326 Q131 276 131 187 Q131 137 165 103 Q200 70 250 70 Q319 70 412 156 L241 326 Z " />
<glyph glyph-name="paragraph" unicode="&#xb6;" horiz-adv-x="495" d="M401 710 Q425 710 425 686 L425 -65 Q425 -89 401 -89 L365 -89 Q341 -89 341 -65 L341 620 L286 620 L286 -65 Q286 -89 262 -89 L226 -89 Q203 -89 203 -65 L203 372 Q129 374 84 420 Q39 467 39 540 Q39 616 86 663 Q132 710 208 710 L401 710 Z " />
<glyph glyph-name="copyright" unicode="&#xa9;" horiz-adv-x="804" d="M43 351 Q43 502 147 606 Q251 710 403 710 Q553 710 657 606 Q760 502 760 351 Q760 200 657 96 Q553 -8 403 -8 Q252 -8 147 97 Q43 201 43 351 Z M698 351 Q698 477 613 562 Q528 647 403 647 Q277 647 192 562 Q106 477 106 351 Q106 226 192 140 Q277 54 403 54 Q527 54 613 140 Q698 226 698 351 Z M247 404 Q247 470 286 507 Q327 545 400 545 Q516 545 548 450 Q555 430 536 425 L514 417 Q497 411 490 429 Q472 486 400 486 Q309 486 309 404 L309 293 Q309 211 400 211 Q472 211 490 269 Q498 288 516 282 L537 274 Q556 267 549 249 Q516 152 400 152 Q327 152 287 190 Q247 227 247 293 L247 404 Z " />
<glyph glyph-name="registered" unicode="&#xae;" horiz-adv-x="475" d="M43 516 Q43 596 100 653 Q158 710 238 710 Q317 710 374 653 Q431 596 431 516 Q431 436 374 379 Q318 322 238 322 Q158 322 100 379 Q43 436 43 516 Z M85 516 Q85 452 130 407 Q175 361 239 361 Q303 361 347 407 Q392 452 392 516 Q392 580 347 625 Q303 670 239 670 Q175 670 130 625 Q85 580 85 516 Z M258 615 Q328 615 328 549 Q328 502 285 489 L320 431 Q329 417 313 417 L295 417 Q283 417 279 425 L244 485 L198 485 L198 426 Q198 417 189 417 L171 417 Q161 417 161 426 L161 604 Q161 615 173 615 L258 615 Z M257 519 Q289 519 289 549 Q289 580 257 580 L198 580 L198 519 L257 519 Z " />
<glyph glyph-name="uni2117" unicode="&#x2117;" horiz-adv-x="804" d="M43 351 Q43 501 148 606 Q252 710 403 710 Q553 710 657 606 Q761 501 761 351 Q761 200 657 96 Q553 -8 403 -8 Q253 -8 148 97 Q43 202 43 351 Z M106 351 Q106 226 192 140 Q277 54 403 54 Q527 54 613 140 Q698 226 698 351 Q698 477 613 562 Q528 647 403 647 Q277 647 192 562 Q106 477 106 351 Z M431 538 Q494 538 531 502 Q568 466 568 404 Q568 342 531 306 Q494 271 431 271 L339 271 L339 176 Q339 158 320 158 L297 158 Q279 158 279 176 L279 520 Q279 538 298 538 L431 538 Z M428 328 Q506 328 506 404 Q506 481 428 481 L339 481 L339 328 L428 328 Z " />
<glyph glyph-name="section" unicode="&#xa7;" horiz-adv-x="601" d="M59 535 Q59 622 118 673 Q181 728 300 728 Q478 728 541 574 Q553 549 525 537 L488 520 Q464 510 451 534 Q411 636 300 636 Q158 636 158 535 Q158 484 205 462 Q234 448 311 438 Q422 424 468 398 Q545 356 545 259 Q545 175 467 120 Q552 78 552 -29 Q552 -116 490 -167 Q423 -221 301 -221 Q106 -221 49 -60 Q39 -34 67 -24 L105 -11 Q131 -2 141 -28 Q178 -131 301 -131 Q455 -131 455 -30 Q455 22 408 43 Q379 56 300 65 Q179 78 133 101 Q50 141 50 242 Q50 335 145 388 Q59 431 59 535 Z M227 357 Q149 320 149 254 Q149 199 198 177 Q230 163 312 155 L346 151 Q367 149 379 147 Q449 187 449 250 Q449 299 400 323 Q367 339 291 347 L227 357 Z " />
<glyph glyph-name="trademark" unicode="&#x2122;" horiz-adv-x="625" d="M257 695 Q274 695 274 678 L274 662 Q274 645 257 645 L184 645 L184 460 Q184 443 165 443 L150 443 Q132 443 132 460 L132 645 L57 645 Q45 645 43 648 Q41 650 41 662 L41 678 Q41 690 43 692 Q45 695 57 695 L257 695 Z M538 695 Q557 695 557 678 L557 460 Q557 443 540 443 L523 443 Q506 443 506 460 L506 550 Q506 572 509 602 L492 574 L451 514 Q442 501 431 501 L423 501 Q412 501 404 511 L346 596 Q347 579 347 550 L347 460 Q347 443 331 443 L314 443 Q297 443 297 460 L297 678 Q297 695 316 695 L325 695 Q339 695 346 683 L427 560 L507 682 Q515 695 528 695 L538 695 Z " />
<glyph glyph-name="degree" unicode="&#xb0;" horiz-adv-x="392" d="M353 555 Q353 491 307 444 Q260 397 196 397 Q131 397 85 443 Q39 489 39 555 Q39 621 85 667 Q130 712 196 712 Q262 712 307 667 Q353 621 353 555 Z M111 554 Q111 519 136 494 Q161 469 196 469 Q231 469 257 494 Q282 519 282 554 Q282 589 257 615 Q231 640 196 640 Q161 640 136 615 Q111 589 111 554 Z " />
</font>
</svg>
