<?xml version="1.0" encoding="UTF-8"?>
<svg xmlns="http://www.w3.org/2000/svg" xmlns:xlink="http://www.w3.org/1999/xlink" version="1.2" >
<font id="Refrigerator Deluxe">
<font-face  font-family="Refrigerator Deluxe" units-per-em="1000" ascent="850" descent="-150" font-style="normal" font-weight="400" font-stretch="condensed" cap-height="700" x-height="470" underline-position="-82" underline-thickness="68" />
<missing-glyph  horiz-adv-x="500" d="M125 738 L375 738 L375 63 L125 63 L125 738 Z M438 0 L438 800 L63 800 L63 0 L438 0 Z " />
<glyph glyph-name=".null" d="" />
<glyph glyph-name="space" unicode="&#x20;" horiz-adv-x="200" d="" />
<glyph glyph-name="exclam" unicode="&#x21;" horiz-adv-x="222" d="M149 700 L74 700 L74 175 L149 175 L149 700 Z M76 76 C66 66 61 54 61 40 C61 26 66 14 76 5 C85 -5 97 -10 111 -10 C125 -10 137 -5 147 5 C156 14 161 26 161 40 C161 54 156 66 147 76 C137 85 125 90 111 90 C97 90 85 85 76 76 L76 76 Z " />
<glyph glyph-name="quotedbl" unicode="&#x22;" horiz-adv-x="361" d="M65 700 L93 499 L129 499 L156 700 L65 700 Z M205 700 L232 499 L268 499 L296 700 L205 700 Z " />
<glyph glyph-name="numbersign" unicode="&#x23;" horiz-adv-x="513" d="M113 448 L182 448 L117 252 L30 252 L30 207 L102 207 L34 0 L82 0 L150 207 L265 207 L197 0 L245 0 L313 207 L400 207 L400 252 L328 252 L393 448 L483 448 L483 493 L408 493 L477 700 L429 700 L360 493 L245 493 L314 700 L266 700 L197 493 L113 493 L113 448 Z M230 448 L345 448 L280 252 L165 252 L230 448 Z " />
<glyph glyph-name="dollar" unicode="&#x24;" horiz-adv-x="435" d="M305 190 C305 173 297 165 280 165 L155 165 C138 165 130 173 130 190 L130 251 L55 251 L55 190 C55 163 65 139 84 119 C104 100 128 90 155 90 L185 90 L185 0 L250 0 L250 90 L280 90 C307 90 331 100 351 119 C370 139 380 163 380 190 L380 251 C380 290 359 321 318 342 L144 432 C135 437 130 446 130 459 L130 510 C130 527 138 535 155 535 L280 535 C297 535 305 527 305 510 L305 452 L380 452 L380 510 C380 537 370 561 351 581 C331 600 307 610 280 610 L250 610 L250 700 L185 700 L185 610 L155 610 C128 610 104 600 84 581 C65 561 55 537 55 510 L55 456 C55 414 76 382 119 360 L291 271 C300 266 305 257 305 244 L305 190 Z " />
<glyph glyph-name="percent" unicode="&#x25;" horiz-adv-x="629" d="M212 416 C212 405 207 399 196 399 L123 399 C112 399 107 405 107 416 L107 633 C107 644 112 649 123 649 L196 649 C207 649 212 644 212 633 L212 416 Z M407 700 L175 0 L223 0 L454 700 L407 700 Z M264 633 C264 652 257 667 244 680 C231 693 215 700 196 700 L123 700 C104 700 88 693 75 680 C62 667 55 652 55 633 L55 416 C55 397 62 382 75 369 C88 356 104 349 123 349 L196 349 C215 349 231 356 244 369 C257 382 264 397 264 416 L264 633 Z M522 67 C522 56 517 50 506 50 L433 50 C422 50 417 56 417 67 L417 284 C417 295 422 300 433 300 L506 300 C517 300 522 295 522 284 L522 67 Z M574 284 C574 303 567 318 554 331 C541 344 525 351 506 351 L433 351 C414 351 398 344 385 331 C372 318 365 303 365 284 L365 67 C365 48 372 33 385 20 C398 7 414 0 433 0 L506 0 C525 0 541 7 554 20 C567 33 574 48 574 67 L574 284 Z " />
<glyph glyph-name="ampersand" unicode="&#x26;" horiz-adv-x="586" d="M532 -7 L586 47 L396 235 L487 416 L407 416 L342 288 L144 484 C135 493 130 507 130 524 L130 600 C130 617 138 625 155 625 L280 625 C297 625 305 617 305 600 L305 513 L380 513 L380 600 C380 627 370 651 351 671 C331 690 307 700 280 700 L155 700 C128 700 104 690 84 671 C65 651 55 627 55 600 L55 524 C55 485 66 455 89 432 L136 385 L91 339 C67 315 55 288 55 257 L55 100 C55 73 65 49 84 29 C104 10 128 0 155 0 L212 0 C256 0 287 18 305 54 L360 163 L532 -7 Z M155 75 C138 75 130 83 130 100 L130 252 C130 266 135 278 144 287 L189 333 L306 217 L243 91 C238 80 227 75 212 75 L155 75 Z " />
<glyph glyph-name="quotesingle" unicode="&#x27;" horiz-adv-x="221" d="M65 700 L93 499 L129 499 L156 700 L65 700 Z " />
<glyph glyph-name="parenleft" unicode="&#x28;" horiz-adv-x="220" d="M201 -151 C148 -31 121 128 121 325 C121 522 148 680 201 800 L160 800 C89 683 54 525 54 325 C54 124 89 -34 160 -151 L201 -151 Z " />
<glyph glyph-name="parenright" unicode="&#x29;" horiz-adv-x="220" d="M19 800 C72 680 99 521 99 324 C99 127 72 -31 19 -151 L60 -151 C131 -34 166 124 166 324 C166 525 131 683 60 800 L19 800 Z " />
<glyph glyph-name="asterisk" unicode="&#x2a;" horiz-adv-x="342" d="M283 457 L312 508 L206 555 L312 602 L283 653 L189 584 L201 700 L143 700 L155 584 L61 653 L32 602 L138 555 L32 508 L61 457 L155 525 L143 410 L201 410 L189 525 L283 457 Z " />
<glyph glyph-name="plus" unicode="&#x2b;" horiz-adv-x="460" d="M430 268 L261 268 L261 435 L194 435 L194 268 L30 268 L30 201 L194 201 L194 35 L261 35 L261 201 L430 201 L430 268 Z " />
<glyph glyph-name="comma" unicode="&#x2c;" horiz-adv-x="182" d="M137 20 C140 27 141 33 141 40 C141 54 136 66 127 76 C117 85 105 90 91 90 C77 90 65 85 56 76 C46 66 41 54 41 40 C41 27 45 16 53 7 C60 -1 68 -6 77 -7 L46 -100 L81 -100 L137 20 L137 20 Z " />
<glyph glyph-name="hyphen" unicode="&#x2d;" horiz-adv-x="271" d="M241 269 L30 269 L30 201 L241 201 L241 269 Z " />
<glyph glyph-name="period" unicode="&#x2e;" horiz-adv-x="190" d="M60 76 C50 66 45 54 45 40 C45 26 50 14 60 5 C69 -5 81 -10 95 -10 C109 -10 121 -5 131 5 C140 14 145 26 145 40 C145 54 140 66 131 76 C121 85 109 90 95 90 C81 90 69 85 60 76 L60 76 Z " />
<glyph glyph-name="slash" unicode="&#x2f;" horiz-adv-x="307" d="M246 800 L14 -151 L62 -151 L293 800 L246 800 Z " />
<glyph glyph-name="zero" unicode="0" horiz-adv-x="435" d="M305 100 C305 83 297 75 280 75 L155 75 C138 75 130 83 130 100 L130 600 C130 617 138 625 155 625 L280 625 C297 625 305 617 305 600 L305 100 Z M380 600 C380 627 370 651 351 671 C331 690 307 700 280 700 L155 700 C128 700 104 690 84 671 C65 651 55 627 55 600 L55 100 C55 73 65 49 84 29 C104 10 128 0 155 0 L280 0 C307 0 331 10 351 29 C370 49 380 73 380 100 L380 600 Z " />
<glyph glyph-name="one" unicode="1" horiz-adv-x="343" d="M316 75 L216 75 L216 700 L41 700 L41 625 L141 625 L141 75 L41 75 L41 0 L316 0 L316 75 Z " />
<glyph glyph-name="two" unicode="2" horiz-adv-x="435" d="M76 213 C62 196 55 170 55 137 L55 0 L380 0 L380 75 L130 75 L130 137 C130 149 132 158 137 163 L359 447 C373 464 380 490 380 523 L380 600 C380 627 370 651 351 671 C331 690 307 700 280 700 L155 700 C128 700 104 690 84 671 C65 651 55 627 55 600 L55 500 L130 500 L130 600 C130 617 138 625 155 625 L280 625 C297 625 305 617 305 600 L305 523 C305 511 303 502 298 497 L76 213 Z " />
<glyph glyph-name="three" unicode="3" horiz-adv-x="435" d="M380 292 C380 333 363 359 330 369 C363 379 380 405 380 446 L380 600 C380 627 370 651 351 671 C331 690 307 700 280 700 L155 700 C128 700 104 690 84 671 C65 651 55 627 55 600 L55 513 L130 513 L130 600 C130 617 138 625 155 625 L280 625 C297 625 305 617 305 600 L305 433 C305 416 297 408 280 408 L130 408 L130 333 L280 333 C297 333 305 324 305 307 L305 100 C305 83 297 75 280 75 L155 75 C138 75 130 83 130 100 L130 187 L55 187 L55 100 C55 73 65 49 84 29 C104 10 128 0 155 0 L280 0 C307 0 331 10 351 29 C370 49 380 73 380 100 L380 292 Z " />
<glyph glyph-name="four" unicode="4" horiz-adv-x="432" d="M121 238 L266 556 L266 238 L121 238 Z M391 238 L341 238 L341 700 L266 700 L41 225 L41 163 L266 163 L266 0 L341 0 L341 163 L391 163 L391 238 Z " />
<glyph glyph-name="five" unicode="5" horiz-adv-x="435" d="M380 370 C380 397 370 421 351 441 C331 460 307 470 280 470 L208 470 C169 470 143 453 130 420 L130 625 L370 625 L370 700 L55 700 L55 332 L130 332 L130 370 C130 387 138 395 155 395 L280 395 C297 395 305 387 305 370 L305 100 C305 83 297 75 280 75 L155 75 C138 75 130 83 130 100 L130 188 L55 188 L55 100 C55 73 65 49 84 29 C104 10 128 0 155 0 L280 0 C307 0 331 10 351 29 C370 49 380 73 380 100 L380 370 Z " />
<glyph glyph-name="six" unicode="6" horiz-adv-x="435" d="M305 100 C305 83 297 75 280 75 L155 75 C138 75 130 83 130 100 L130 308 C130 325 138 333 155 333 L280 333 C297 333 305 325 305 308 L305 100 Z M380 308 C380 335 370 359 351 379 C332 398 308 408 280 408 L208 408 C169 408 143 391 130 358 L130 600 C130 617 138 625 155 625 L280 625 C297 625 305 617 305 600 L305 525 L380 525 L380 600 C380 627 370 651 351 671 C331 690 307 700 280 700 L155 700 C128 700 104 690 84 671 C65 651 55 627 55 600 L55 100 C55 73 65 49 84 29 C104 10 128 0 155 0 L280 0 C308 0 332 10 351 29 C370 49 380 73 380 100 L380 308 Z " />
<glyph glyph-name="seven" unicode="7" horiz-adv-x="393" d="M352 700 L27 700 L27 512 L102 512 L102 625 L277 625 L127 0 L208 0 L352 625 L352 700 Z " />
<glyph glyph-name="eight" unicode="8" horiz-adv-x="435" d="M305 100 C305 83 297 75 280 75 L155 75 C138 75 130 83 130 100 L130 308 C130 325 138 333 155 333 L280 333 C297 333 305 325 305 308 L305 100 Z M305 433 C305 416 297 408 280 408 L155 408 C138 408 130 416 130 433 L130 600 C130 617 138 625 155 625 L280 625 C297 625 305 617 305 600 L305 433 Z M55 100 C55 73 65 49 84 29 C104 10 128 0 155 0 L280 0 C307 0 331 10 351 29 C370 49 380 73 380 100 L380 295 C380 335 363 360 330 370 C363 380 380 405 380 445 L380 600 C380 627 370 651 351 671 C331 690 307 700 280 700 L155 700 C128 700 104 690 84 671 C65 651 55 627 55 600 L55 445 C55 405 72 380 105 370 C72 360 55 335 55 295 L55 100 Z " />
<glyph glyph-name="nine" unicode="9" horiz-adv-x="435" d="M130 600 C130 617 138 625 155 625 L280 625 C297 625 305 617 305 600 L305 392 C305 375 297 367 280 367 L155 367 C138 367 130 375 130 392 L130 600 Z M55 392 C55 365 65 341 84 321 C103 302 127 292 155 292 L227 292 C266 292 292 309 305 342 L305 100 C305 83 297 75 280 75 L155 75 C138 75 130 83 130 100 L130 175 L55 175 L55 100 C55 73 65 49 84 29 C104 10 128 0 155 0 L280 0 C307 0 331 10 351 29 C370 49 380 73 380 100 L380 600 C380 627 370 651 351 671 C331 690 307 700 280 700 L155 700 C127 700 103 690 84 671 C65 651 55 627 55 600 L55 392 Z " />
<glyph glyph-name="colon" unicode="&#x3a;" horiz-adv-x="190" d="M60 76 C50 66 45 54 45 40 C45 26 50 14 60 5 C69 -5 81 -10 95 -10 C109 -10 121 -5 131 5 C140 14 145 26 145 40 C145 54 140 66 131 76 C121 85 109 90 95 90 C81 90 69 85 60 76 L60 76 Z M60 466 C50 456 45 444 45 430 C45 416 50 404 60 395 C69 385 81 380 95 380 C109 380 121 385 131 395 C140 404 145 416 145 430 C145 444 140 456 131 466 C121 475 109 480 95 480 C81 480 69 475 60 466 L60 466 Z " />
<glyph glyph-name="semicolon" unicode="&#x3b;" horiz-adv-x="190" d="M60 466 C50 456 45 444 45 430 C45 416 50 404 60 395 C69 385 81 380 95 380 C109 380 121 385 131 395 C140 404 145 416 145 430 C145 444 140 456 131 466 C121 475 109 480 95 480 C81 480 69 475 60 466 L60 466 Z M141 20 C144 27 145 33 145 40 C145 54 140 66 131 76 C121 85 109 90 95 90 C81 90 69 85 60 76 C50 66 45 54 45 40 C45 27 49 16 57 7 C64 -1 72 -6 81 -7 L50 -100 L85 -100 L141 20 L141 20 Z " />
<glyph glyph-name="less" unicode="&#x3c;" horiz-adv-x="460" d="M430 369 L430 441 L30 278 L30 189 L430 26 L430 98 L99 233 L430 369 Z " />
<glyph glyph-name="equal" unicode="&#x3d;" horiz-adv-x="460" d="M430 178 L30 178 L30 111 L430 111 L430 178 Z M430 358 L30 358 L30 291 L430 291 L430 358 Z " />
<glyph glyph-name="greater" unicode="&#x3e;" horiz-adv-x="460" d="M30 26 L430 189 L430 278 L30 441 L30 369 L361 233 L30 98 L30 26 Z " />
<glyph glyph-name="question" unicode="&#x3f;" horiz-adv-x="385" d="M355 600 C355 627 345 651 326 671 C306 690 282 700 255 700 L130 700 C103 700 79 690 59 671 C40 651 30 627 30 600 L30 512 L105 512 L105 600 C105 617 113 625 130 625 L255 625 C272 625 280 617 280 600 L280 521 C280 508 276 497 268 489 L146 368 C126 349 116 323 116 291 C116 264 126 240 145 221 L196 172 L249 224 L196 277 C191 282 188 289 188 296 C188 303 191 310 196 315 L316 437 C342 464 355 492 355 523 L355 600 Z M158 76 C148 66 143 54 143 40 C143 26 148 14 158 5 C167 -5 179 -10 193 -10 C207 -10 219 -5 229 5 C238 14 243 26 243 40 C243 54 238 66 229 76 C219 85 207 90 193 90 C179 90 167 85 158 76 L158 76 Z " />
<glyph glyph-name="at" unicode="&#x40;" horiz-adv-x="574" d="M356 90 C356 75 349 68 334 68 L236 68 C221 68 214 75 214 90 L214 380 C214 395 221 402 236 402 L334 402 C349 402 356 395 356 380 L356 90 Z M466 0 C501 0 519 17 519 52 L519 362 C519 425 496 480 451 525 C406 571 351 594 287 594 C223 594 168 571 123 526 C78 481 55 426 55 362 L55 110 C55 46 78 -9 123 -54 C168 -99 223 -122 287 -122 C328 -122 367 -111 403 -90 L390 -63 C359 -82 324 -91 287 -91 C232 -91 184 -71 145 -32 C106 7 86 55 86 110 L86 362 C86 417 106 465 145 504 C184 543 232 563 287 563 C342 563 390 543 429 504 C468 465 488 417 488 362 L488 53 C488 38 481 31 466 31 L446 31 C431 31 424 38 424 53 L424 470 L356 470 L356 425 C347 455 323 470 284 470 L236 470 C211 470 190 461 173 443 C155 426 146 405 146 380 L146 90 C146 65 155 44 173 27 C190 9 211 0 236 0 L284 0 C322 0 346 15 356 45 C366 15 390 0 428 0 L466 0 Z " />
<glyph glyph-name="A" unicode="A" horiz-adv-x="425" d="M332 0 L408 0 L258 700 L167 700 L17 0 L93 0 L116 113 L309 113 L332 0 Z M212 583 L293 188 L131 188 L212 583 Z " />
<glyph glyph-name="B" unicode="B" horiz-adv-x="435" d="M305 100 C305 83 297 75 280 75 L130 75 L130 333 L280 333 C297 333 305 325 305 308 L305 100 Z M305 432 C305 415 297 407 280 407 L130 407 L130 625 L280 625 C297 625 305 617 305 600 L305 432 Z M380 308 C380 339 363 360 330 370 C363 380 380 401 380 432 L380 600 C380 627 370 651 351 671 C331 690 307 700 280 700 L55 700 L55 0 L280 0 C307 0 331 10 351 29 C370 49 380 73 380 100 L380 308 Z " />
<glyph glyph-name="C" unicode="C" horiz-adv-x="435" d="M380 188 L305 188 L305 100 C305 83 297 75 280 75 L155 75 C138 75 130 83 130 100 L130 600 C130 617 138 625 155 625 L280 625 C297 625 305 617 305 600 L305 512 L380 512 L380 600 C380 627 370 651 351 671 C331 690 307 700 280 700 L155 700 C128 700 104 690 84 671 C65 651 55 627 55 600 L55 100 C55 73 65 49 84 29 C104 10 128 0 155 0 L280 0 C307 0 331 10 351 29 C370 49 380 73 380 100 L380 188 Z " />
<glyph glyph-name="D" unicode="D" horiz-adv-x="435" d="M305 100 C305 83 297 75 280 75 L130 75 L130 625 L280 625 C297 625 305 617 305 600 L305 100 Z M380 600 C380 627 370 651 351 671 C331 690 307 700 280 700 L55 700 L55 0 L280 0 C307 0 331 10 351 29 C370 49 380 73 380 100 L380 600 Z " />
<glyph glyph-name="E" unicode="E" horiz-adv-x="360" d="M330 75 L130 75 L130 333 L280 333 L280 408 L130 408 L130 625 L330 625 L330 700 L55 700 L55 0 L330 0 L330 75 Z " />
<glyph glyph-name="F" unicode="F" horiz-adv-x="360" d="M330 700 L55 700 L55 0 L130 0 L130 332 L280 332 L280 408 L130 408 L130 625 L330 625 L330 700 Z " />
<glyph glyph-name="G" unicode="G" horiz-adv-x="435" d="M380 358 L217 358 L217 283 L305 283 L305 100 C305 83 297 75 280 75 L155 75 C138 75 130 83 130 100 L130 600 C130 617 138 625 155 625 L280 625 C297 625 305 617 305 600 L305 500 L380 500 L380 600 C380 627 370 651 351 671 C331 690 307 700 280 700 L155 700 C128 700 104 690 84 671 C65 651 55 627 55 600 L55 100 C55 73 65 49 84 29 C104 10 128 0 155 0 L280 0 C307 0 331 10 351 29 C370 49 380 73 380 100 L380 358 Z " />
<glyph glyph-name="H" unicode="H" horiz-adv-x="435" d="M380 700 L305 700 L305 408 L130 408 L130 700 L55 700 L55 0 L130 0 L130 333 L305 333 L305 0 L380 0 L380 700 Z " />
<glyph glyph-name="I" unicode="I" horiz-adv-x="185" d="M130 700 L55 700 L55 0 L130 0 L130 700 Z " />
<glyph glyph-name="J" unicode="J" horiz-adv-x="386" d="M331 700 L256 700 L256 100 C256 83 248 75 231 75 L131 75 C114 75 106 83 106 100 L106 200 L31 200 L31 100 C31 73 41 49 60 29 C80 10 104 0 131 0 L231 0 C258 0 282 10 302 29 C321 49 331 73 331 100 L331 700 Z " />
<glyph glyph-name="K" unicode="K" horiz-adv-x="437" d="M420 700 L337 700 L130 291 L130 700 L55 700 L55 0 L130 0 L130 150 L209 299 L345 0 L431 0 L251 379 L420 700 Z " />
<glyph glyph-name="L" unicode="L" horiz-adv-x="360" d="M330 75 L130 75 L130 700 L55 700 L55 0 L330 0 L330 75 Z " />
<glyph glyph-name="M" unicode="M" horiz-adv-x="553" d="M498 700 L397 700 L275 258 L156 700 L55 700 L55 0 L130 0 L130 532 L259 50 L291 50 L423 532 L423 0 L498 0 L498 700 Z " />
<glyph glyph-name="N" unicode="N" horiz-adv-x="435" d="M380 700 L305 700 L305 228 L138 700 L55 700 L55 0 L130 0 L130 518 L317 0 L380 0 L380 700 Z " />
<glyph glyph-name="O" unicode="O" horiz-adv-x="435" d="M305 100 C305 83 297 75 280 75 L155 75 C138 75 130 83 130 100 L130 600 C130 617 138 625 155 625 L280 625 C297 625 305 617 305 600 L305 100 Z M380 600 C380 627 370 651 351 671 C331 690 307 700 280 700 L155 700 C128 700 104 690 84 671 C65 651 55 627 55 600 L55 100 C55 73 65 49 84 29 C104 10 128 0 155 0 L280 0 C307 0 331 10 351 29 C370 49 380 73 380 100 L380 600 Z " />
<glyph glyph-name="P" unicode="P" horiz-adv-x="410" d="M305 368 C305 351 297 343 280 343 L130 343 L130 625 L280 625 C297 625 305 617 305 600 L305 368 Z M380 600 C380 627 370 651 351 671 C331 690 307 700 280 700 L55 700 L55 0 L130 0 L130 268 L280 268 C308 268 332 278 351 297 C370 317 380 341 380 368 L380 600 Z " />
<glyph glyph-name="Q" unicode="Q" horiz-adv-x="435" d="M305 100 C305 83 297 75 280 75 L155 75 C138 75 130 83 130 100 L130 600 C130 617 138 625 155 625 L280 625 C297 625 305 617 305 600 L305 100 Z M380 600 C380 627 370 651 351 671 C331 690 307 700 280 700 L155 700 C128 700 104 690 84 671 C65 651 55 627 55 600 L55 100 C55 73 65 49 84 29 C104 10 128 0 155 0 L180 0 L180 -50 C180 -77 190 -101 209 -121 C229 -140 253 -150 280 -150 L305 -150 L305 -75 L280 -75 C263 -75 255 -67 255 -50 L255 0 L280 0 C307 0 331 10 351 29 C370 49 380 73 380 100 L380 600 Z " />
<glyph glyph-name="R" unicode="R" horiz-adv-x="435" d="M380 600 C380 627 370 651 351 671 C332 690 308 700 280 700 L55 700 L55 0 L130 0 L130 293 L235 293 L299 0 L379 0 L308 297 C329 303 347 315 360 332 C373 350 380 370 380 393 L380 600 Z M305 393 C305 376 297 368 280 368 L130 368 L130 625 L280 625 C297 625 305 617 305 600 L305 393 Z " />
<glyph glyph-name="S" unicode="S" horiz-adv-x="435" d="M305 100 C305 83 297 75 280 75 L155 75 C138 75 130 83 130 100 L130 200 L55 200 L55 100 C55 73 65 49 84 29 C104 10 128 0 155 0 L280 0 C307 0 331 10 351 29 C370 49 380 73 380 100 L380 200 C380 237 369 267 346 288 L142 491 C134 499 130 510 130 523 L130 600 C130 617 138 625 155 625 L280 625 C297 625 305 617 305 600 L305 500 L380 500 L380 600 C380 627 370 651 351 671 C331 690 307 700 280 700 L155 700 C128 700 104 690 84 671 C65 651 55 627 55 600 L55 523 C55 486 66 457 89 436 L293 233 C301 225 305 214 305 200 L305 100 Z " />
<glyph glyph-name="T" unicode="T" horiz-adv-x="385" d="M355 700 L30 700 L30 625 L155 625 L155 0 L230 0 L230 625 L355 625 L355 700 Z " />
<glyph glyph-name="U" unicode="U" horiz-adv-x="435" d="M380 700 L305 700 L305 100 C305 83 297 75 280 75 L155 75 C138 75 130 83 130 100 L130 700 L55 700 L55 100 C55 73 65 49 84 29 C104 10 128 0 155 0 L280 0 C307 0 331 10 351 29 C370 49 380 73 380 100 L380 700 Z " />
<glyph glyph-name="V" unicode="V" horiz-adv-x="425" d="M93 700 L17 700 L167 0 L258 0 L408 700 L332 700 L213 117 L93 700 Z " />
<glyph glyph-name="W" unicode="W" horiz-adv-x="639" d="M549 700 L450 122 L354 700 L286 700 L189 122 L92 700 L17 700 L137 0 L233 0 L319 506 L406 0 L502 0 L622 700 L549 700 Z " />
<glyph glyph-name="X" unicode="X" horiz-adv-x="432" d="M259 366 L409 700 L328 700 L216 437 L105 700 L23 700 L174 366 L7 0 L93 0 L216 295 L340 0 L425 0 L259 366 Z " />
<glyph glyph-name="Y" unicode="Y" horiz-adv-x="384" d="M301 700 L192 355 L84 700 L5 700 L154 270 L154 0 L228 0 L228 270 L379 700 L301 700 Z " />
<glyph glyph-name="Z" unicode="Z" horiz-adv-x="393" d="M363 75 L112 75 L355 625 L355 700 L38 700 L38 625 L272 625 L30 75 L30 0 L363 0 L363 75 Z " />
<glyph glyph-name="bracketleft" unicode="&#x5b;" horiz-adv-x="237" d="M210 -102 L103 -102 L103 751 L210 751 L210 800 L55 800 L55 -151 L210 -151 L210 -102 Z " />
<glyph glyph-name="backslash" unicode="&#x5c;" horiz-adv-x="307" d="M14 800 L245 -151 L293 -151 L61 800 L14 800 Z " />
<glyph glyph-name="bracketright" unicode="&#x5d;" horiz-adv-x="284" d="M27 751 L134 751 L134 -102 L27 -102 L27 -151 L182 -151 L182 800 L27 800 L27 751 Z " />
<glyph glyph-name="asciicircum" unicode="&#x5e;" horiz-adv-x="290" d="M145 671 L24 551 L60 515 L145 601 L230 515 L266 551 L145 671 Z " />
<glyph glyph-name="underscore" unicode="&#x5f;" horiz-adv-x="450" d="M450 0 L0 0 L0 -68 L450 -68 L450 0 Z " />
<glyph glyph-name="grave" unicode="&#x60;" horiz-adv-x="388" d="M149 688 L114 653 L239 528 L274 563 L149 688 Z " />
<glyph glyph-name="A001" unicode="a" horiz-adv-x="388" d="M265 90 C265 75 258 68 243 68 L146 68 C131 68 124 75 124 90 L124 190 C124 205 131 212 146 212 L243 212 C258 212 265 205 265 190 L265 90 Z M333 380 C333 405 324 426 307 443 C290 461 268 470 243 470 L89 470 L89 402 L243 402 C258 402 265 395 265 380 L265 242 C258 267 239 280 206 280 L145 280 C119 280 98 272 81 255 C64 238 55 216 55 190 L55 90 C55 65 64 44 83 27 C101 9 122 0 147 0 L206 0 C239 0 258 13 265 38 L265 0 L333 0 L333 380 Z " />
<glyph glyph-name="B027" unicode="b" horiz-adv-x="388" d="M265 90 C265 75 258 68 243 68 L145 68 C130 68 123 75 123 90 L123 380 C123 395 130 402 145 402 L243 402 C258 402 265 395 265 380 L265 90 Z M333 380 C333 405 324 426 307 443 C290 461 268 470 243 470 L195 470 C157 470 133 455 123 425 L123 700 L55 700 L55 0 L123 0 L123 45 C134 15 158 0 195 0 L243 0 C268 0 290 9 307 27 C324 44 333 65 333 90 L333 380 Z " />
<glyph glyph-name="C028" unicode="c" horiz-adv-x="388" d="M333 169 L265 169 L265 90 C265 75 258 68 243 68 L145 68 C130 68 123 75 123 90 L123 380 C123 395 130 402 145 402 L243 402 C258 402 265 395 265 380 L265 302 L333 302 L333 380 C333 405 324 426 307 443 C290 461 268 470 243 470 L145 470 C120 470 99 461 82 443 C64 426 55 405 55 380 L55 90 C55 65 64 44 82 27 C99 9 120 0 145 0 L243 0 C268 0 290 9 307 27 C324 44 333 65 333 90 L333 169 Z " />
<glyph glyph-name="D040" unicode="d" horiz-adv-x="388" d="M265 90 C265 75 258 68 243 68 L145 68 C130 68 123 75 123 90 L123 380 C123 395 130 402 145 402 L243 402 C258 402 265 395 265 380 L265 90 Z M333 700 L265 700 L265 425 C256 455 232 470 193 470 L145 470 C120 470 99 461 82 443 C64 426 55 405 55 380 L55 90 C55 65 64 44 82 27 C99 9 120 0 145 0 L193 0 C231 0 255 15 265 45 L265 0 L333 0 L333 700 Z " />
<glyph glyph-name="E043" unicode="e" horiz-adv-x="388" d="M123 259 L123 380 C123 395 130 402 145 402 L243 402 C258 402 265 395 265 380 L265 259 L123 259 Z M333 380 C333 405 324 426 307 443 C290 461 268 470 243 470 L145 470 C120 470 99 461 82 443 C64 426 55 405 55 380 L55 90 C55 65 64 44 82 27 C99 9 120 0 145 0 L300 0 L300 68 L145 68 C130 68 123 75 123 90 L123 192 L333 192 L333 380 Z " />
<glyph glyph-name="F062" unicode="f" horiz-adv-x="269" d="M242 470 L152 470 L152 610 C152 625 159 632 174 632 L242 632 L242 700 L174 700 C149 700 127 691 110 673 C93 656 84 635 84 610 L84 470 L14 470 L14 402 L84 402 L84 0 L152 0 L152 402 L242 402 L242 470 Z " />
<glyph glyph-name="G063" unicode="g" horiz-adv-x="388" d="M265 90 C265 75 258 68 243 68 L145 68 C130 68 123 75 123 90 L123 380 C123 395 130 402 145 402 L243 402 C258 402 265 395 265 380 L265 90 Z M333 470 L265 470 L265 425 C256 455 232 470 193 470 L145 470 C120 470 99 461 82 443 C64 426 55 405 55 380 L55 90 C55 65 64 44 82 27 C99 9 120 0 145 0 L193 0 C231 0 255 15 265 45 L265 -60 C265 -75 258 -82 243 -82 L111 -82 L111 -150 L243 -150 C268 -150 289 -141 306 -123 C324 -105 333 -84 333 -60 L333 470 Z " />
<glyph glyph-name="H068" unicode="h" horiz-adv-x="388" d="M333 380 C333 405 324 427 307 444 C290 461 268 470 243 470 L195 470 C157 470 133 455 123 425 L123 700 L55 700 L55 0 L123 0 L123 380 C123 395 130 402 145 402 L243 402 C258 402 265 395 265 380 L265 0 L333 0 L333 380 Z " />
<glyph glyph-name="I071" unicode="i" horiz-adv-x="178" d="M123 470 L55 470 L55 0 L123 0 L123 470 Z M58 640 C49 631 44 621 44 608 C44 595 49 585 58 576 C67 567 77 562 90 562 C103 562 113 567 122 576 C131 585 136 595 136 608 C136 621 131 631 122 640 C113 649 103 654 90 654 C77 654 67 649 58 640 L58 640 Z " />
<glyph glyph-name="J082" unicode="j" horiz-adv-x="178" d="M123 470 L55 470 L55 -60 C55 -75 48 -82 33 -82 L-35 -82 L-35 -150 L33 -150 C58 -150 79 -141 96 -123 C114 -105 123 -84 123 -60 L123 470 Z M58 640 C49 631 44 621 44 608 C44 595 49 585 58 576 C67 567 77 562 90 562 C103 562 113 567 122 576 C131 585 136 595 136 608 C136 621 131 631 122 640 C113 649 103 654 90 654 C77 654 67 649 58 640 L58 640 Z " />
<glyph glyph-name="K086" unicode="k" horiz-adv-x="348" d="M339 470 L265 470 L123 214 L123 700 L55 700 L55 0 L123 0 L123 99 L187 209 L265 0 L343 0 L227 279 L339 470 Z " />
<glyph glyph-name="L090" unicode="l" horiz-adv-x="178" d="M123 700 L55 700 L55 0 L123 0 L123 700 Z " />
<glyph glyph-name="M096" unicode="m" horiz-adv-x="568" d="M513 380 C513 405 504 427 487 444 C470 461 448 470 423 470 L380 470 C339 470 315 455 308 424 C301 455 275 470 228 470 L195 470 C157 470 133 455 123 425 L123 470 L55 470 L55 0 L123 0 L123 380 C123 395 130 402 145 402 L228 402 C243 402 250 395 250 380 L250 0 L318 0 L318 380 C318 395 325 402 340 402 L423 402 C438 402 445 395 445 380 L445 0 L513 0 L513 380 Z " />
<glyph glyph-name="N097" unicode="n" horiz-adv-x="388" d="M333 380 C333 405 324 427 307 444 C290 461 268 470 243 470 L195 470 C157 470 133 455 123 425 L123 470 L55 470 L55 0 L123 0 L123 380 C123 395 130 402 145 402 L243 402 C258 402 265 395 265 380 L265 0 L333 0 L333 380 Z " />
<glyph glyph-name="O103" unicode="o" horiz-adv-x="388" d="M265 90 C265 75 258 68 243 68 L145 68 C130 68 123 75 123 90 L123 380 C123 395 130 402 145 402 L243 402 C258 402 265 395 265 380 L265 90 Z M333 380 C333 405 324 427 307 444 C290 461 268 470 243 470 L145 470 C120 470 99 461 82 444 C64 427 55 405 55 380 L55 90 C55 65 64 44 82 27 C99 9 120 0 145 0 L243 0 C268 0 290 9 307 27 C324 44 333 65 333 90 L333 380 Z " />
<glyph glyph-name="P116" unicode="p" horiz-adv-x="388" d="M265 90 C265 75 258 68 243 68 L145 68 C130 68 123 75 123 90 L123 380 C123 395 130 402 145 402 L243 402 C258 402 265 395 265 380 L265 90 Z M333 380 C333 405 324 426 307 443 C290 461 268 470 243 470 L195 470 C157 470 133 455 123 425 L123 470 L55 470 L55 -150 L123 -150 L123 45 C134 15 158 0 195 0 L243 0 C268 0 290 9 307 27 C324 44 333 65 333 90 L333 380 Z " />
<glyph glyph-name="Q117" unicode="q" horiz-adv-x="388" d="M265 90 C265 75 258 68 243 68 L145 68 C130 68 123 75 123 90 L123 380 C123 395 130 402 145 402 L243 402 C258 402 265 395 265 380 L265 90 Z M333 470 L265 470 L265 425 C256 455 232 470 193 470 L145 470 C120 470 99 461 82 443 C64 426 55 405 55 380 L55 90 C55 65 64 44 82 27 C99 9 120 0 145 0 L193 0 C231 0 255 15 265 45 L265 -150 L333 -150 L333 470 Z " />
<glyph glyph-name="R118" unicode="r" horiz-adv-x="256" d="M243 470 L195 470 C157 470 133 455 123 425 L123 470 L55 470 L55 0 L123 0 L123 380 C123 395 130 402 145 402 L243 402 L243 470 Z " />
<glyph glyph-name="S126" unicode="s" horiz-adv-x="388" d="M265 90 C265 75 258 68 243 68 L145 68 C130 68 123 75 123 90 L123 148 L55 148 L55 90 C55 65 64 44 82 27 C99 9 120 0 145 0 L243 0 C268 0 290 9 307 27 C324 44 333 65 333 90 L333 156 C333 175 327 192 315 206 C306 217 294 226 278 234 L137 302 C128 307 123 315 123 327 L123 380 C123 395 130 402 145 402 L243 402 C258 402 265 395 265 380 L265 322 L333 322 L333 380 C333 405 324 426 307 443 C290 461 268 470 243 470 L145 470 C120 470 99 461 82 443 C64 426 55 405 55 380 L55 318 C55 299 61 282 73 268 C82 257 94 248 110 240 L251 172 C260 167 265 159 265 148 L265 90 Z " />
<glyph glyph-name="T144" unicode="t" horiz-adv-x="269" d="M242 68 L174 68 C159 68 152 75 152 90 L152 402 L242 402 L242 470 L152 470 L152 610 L84 610 L84 470 L14 470 L14 402 L84 402 L84 90 C84 65 93 44 111 27 C128 9 149 0 174 0 L242 0 L242 68 Z " />
<glyph glyph-name="U149" unicode="u" horiz-adv-x="388" d="M333 470 L265 470 L265 90 C265 75 258 68 243 68 L145 68 C130 68 123 75 123 90 L123 470 L55 470 L55 90 C55 65 64 44 82 27 C99 9 120 0 145 0 L193 0 C231 0 255 15 265 45 L265 0 L333 0 L333 470 Z " />
<glyph glyph-name="V160" unicode="v" horiz-adv-x="364" d="M276 470 L182 78 L88 470 L17 470 L135 0 L229 0 L347 470 L276 470 Z " />
<glyph glyph-name="W161" unicode="w" horiz-adv-x="520" d="M432 470 L359 99 L285 470 L235 470 L161 99 L88 470 L17 470 L115 0 L195 0 L260 311 L325 0 L405 0 L503 470 L432 470 Z " />
<glyph glyph-name="X171" unicode="x" horiz-adv-x="364" d="M225 232 L347 470 L268 470 L182 281 L95 470 L17 470 L139 232 L17 0 L95 0 L182 186 L268 0 L347 0 L225 232 Z " />
<glyph glyph-name="Y173" unicode="y" horiz-adv-x="363" d="M275 470 L181 96 L87 470 L17 470 L145 0 L98 -150 L172 -150 L346 470 L275 470 Z " />
<glyph glyph-name="Z183" unicode="z" horiz-adv-x="332" d="M305 68 L109 68 L298 402 L298 470 L35 470 L35 402 L218 402 L27 68 L27 0 L305 0 L305 68 Z " />
<glyph glyph-name="braceleft" unicode="&#x7b;" horiz-adv-x="251" d="M128 272 C128 301 116 319 91 325 C116 331 128 348 128 377 L128 739 C128 747 132 751 140 751 L235 751 L235 800 L143 800 C126 800 111 794 98 781 C86 768 80 753 80 736 L80 362 C80 353 76 349 67 349 L16 349 L16 301 L67 301 C76 301 80 297 80 288 L80 -87 C80 -104 86 -119 98 -132 C111 -145 126 -151 143 -151 L235 -151 L235 -102 L140 -102 C132 -102 128 -98 128 -90 L128 272 Z " />
<glyph glyph-name="bar" unicode="&#x7c;" horiz-adv-x="130" d="M80 -200 L80 800 L50 800 L50 -200 L80 -200 Z " />
<glyph glyph-name="braceright" unicode="&#x7d;" horiz-adv-x="251" d="M123 -90 C123 -98 119 -102 111 -102 L16 -102 L16 -151 L108 -151 C125 -151 140 -145 153 -132 C165 -119 171 -104 171 -87 L171 287 C171 296 175 300 184 300 L235 300 L235 348 L184 348 C175 348 171 352 171 361 L171 736 C171 753 165 768 153 781 C140 794 125 800 108 800 L16 800 L16 751 L111 751 C119 751 123 747 123 739 L123 377 C123 348 135 330 160 324 C135 318 123 301 123 272 L123 -90 Z " />
<glyph glyph-name="asciitilde" unicode="&#x7e;" horiz-adv-x="324" d="M59 536 L118 594 L173 540 C183 530 195 525 209 525 C223 525 234 530 243 540 L300 598 L266 633 L208 576 L153 630 C143 640 131 645 117 645 C104 645 92 640 83 630 L24 570 L59 536 Z " />
<glyph glyph-name="nbspace" unicode="&#xa0;" horiz-adv-x="200" d="" />
<glyph glyph-name="exclamdown" unicode="&#xa1;" horiz-adv-x="211" d="M68 -230 L143 -230 L143 295 L68 295 L68 -230 Z M142 395 C151 404 156 416 156 430 C156 444 151 456 142 466 C132 475 120 480 106 480 C92 480 80 475 71 466 C61 456 56 444 56 430 C56 416 61 404 71 395 C80 385 92 380 106 380 C120 380 132 385 142 395 L142 395 Z " />
<glyph glyph-name="cent" unicode="&#xa2;" horiz-adv-x="435" d="M130 510 C130 527 138 535 155 535 L280 535 C297 535 305 527 305 510 L305 431 L380 431 L380 510 C380 537 370 561 351 581 C331 600 307 610 280 610 L250 610 L250 700 L185 700 L185 610 L155 610 C128 610 104 600 84 581 C65 561 55 537 55 510 L55 190 C55 163 65 139 84 119 C104 100 128 90 155 90 L185 90 L185 0 L250 0 L250 90 L280 90 C307 90 331 100 351 119 C370 139 380 163 380 190 L380 272 L305 272 L305 190 C305 173 297 165 280 165 L155 165 C138 165 130 173 130 190 L130 510 Z " />
<glyph glyph-name="sterling" unicode="&#xa3;" horiz-adv-x="454" d="M408 175 L334 175 L334 100 C334 83 326 75 309 75 L158 75 L158 333 L233 333 L233 408 L158 408 L158 600 C158 617 166 625 183 625 L259 625 C276 625 284 617 284 600 L284 525 L358 525 L358 600 C358 627 348 651 329 671 C310 690 286 700 258 700 L184 700 C156 700 132 690 113 671 C94 651 84 627 84 600 L84 408 L34 408 L34 333 L84 333 L84 75 L31 75 L31 0 L308 0 C336 0 360 10 379 29 C398 49 408 73 408 100 L408 175 Z " />
<glyph glyph-name="currency" unicode="&#xa4;" horiz-adv-x="571" d="M356 294 C356 279 349 272 334 272 L236 272 C221 272 214 279 214 294 L214 392 C214 407 221 414 236 414 L334 414 C349 414 356 407 356 392 L356 294 Z M70 510 L153 427 C148 417 146 405 146 392 L146 294 C146 280 148 268 153 258 L72 177 L120 129 L202 211 C211 206 223 204 236 204 L334 204 C347 204 359 206 369 211 L453 127 L501 175 L417 259 C422 272 424 283 424 294 L424 392 C424 403 422 415 417 426 L503 512 L455 560 L370 475 C357 480 345 482 334 482 L236 482 C225 482 214 480 201 475 L118 558 L70 510 Z " />
<glyph glyph-name="yen" unicode="&#xa5;" horiz-adv-x="426" d="M17 340 L151 340 L175 270 L175 220 L17 220 L17 160 L175 160 L175 0 L250 0 L250 160 L409 160 L409 220 L250 220 L250 270 L274 340 L409 340 L409 400 L295 400 L401 700 L323 700 L214 355 L105 700 L26 700 L130 400 L17 400 L17 340 Z " />
<glyph glyph-name="brokenbar" unicode="&#xa6;" horiz-adv-x="130" d="M80 400 L80 800 L50 800 L50 400 L80 400 Z M50 -200 L80 -200 L80 200 L50 200 L50 -200 Z " />
<glyph glyph-name="section" unicode="&#xa7;" horiz-adv-x="388" d="M333 386 C333 421 315 447 280 464 L160 524 C151 528 146 536 146 548 L146 610 C146 625 153 632 168 632 L220 632 C235 632 242 625 242 610 L242 552 L310 552 L310 610 C310 635 301 657 284 674 C267 691 245 700 220 700 L168 700 C143 700 122 691 104 674 C87 657 78 635 78 610 L78 546 C78 509 89 481 112 464 C74 449 55 421 55 380 L55 328 C55 289 78 258 125 237 L229 190 C238 186 242 179 242 169 L242 90 C242 75 235 68 220 68 L168 68 C153 68 146 75 146 90 L146 149 L78 149 L78 90 C78 65 87 44 104 26 C122 9 143 0 168 0 L220 0 C245 0 267 9 284 26 C301 44 310 65 310 90 L310 168 C310 205 302 229 285 241 C317 258 333 284 333 320 L333 386 Z M265 275 C265 269 263 265 259 263 C255 260 251 260 246 262 L138 313 C128 318 123 326 123 336 L123 438 C123 444 125 448 130 450 C134 452 138 452 143 450 L253 397 C257 395 260 392 262 388 C264 385 265 381 265 378 L265 275 Z " />
<glyph glyph-name="dieresis" unicode="&#xa8;" horiz-adv-x="388" d="M91 640 C82 631 77 621 77 608 C77 595 82 585 91 576 C100 567 110 562 123 562 C136 562 146 567 155 576 C164 585 169 595 169 608 C169 621 164 631 155 640 C146 649 136 654 123 654 C110 654 100 649 91 640 L91 640 Z M233 640 C224 631 219 621 219 608 C219 595 224 585 233 576 C242 567 252 562 265 562 C278 562 288 567 297 576 C306 585 311 595 311 608 C311 621 306 631 297 640 C288 649 278 654 265 654 C252 654 242 649 233 640 L233 640 Z " />
<glyph glyph-name="copyright" unicode="&#xa9;" horiz-adv-x="797" d="M548 266 L500 266 L500 206 C500 199 496 195 488 195 L310 195 C302 195 298 199 298 206 L298 494 C298 501 302 505 310 505 L488 505 C496 505 500 501 500 494 L500 434 L548 434 L548 490 C548 507 542 522 530 535 C517 548 502 554 484 554 L314 554 C296 554 281 548 269 535 C256 522 250 507 250 490 L250 210 C250 193 256 178 269 165 C281 152 296 146 314 146 L484 146 C502 146 517 152 530 165 C542 178 548 193 548 210 L548 266 Z M652 96 C722 167 757 251 757 350 C757 449 722 534 652 604 C582 674 497 709 398 709 C299 709 215 674 145 604 C75 534 40 449 40 350 C40 251 75 166 145 96 C215 26 299 -9 398 -9 C497 -9 582 26 652 96 L652 96 Z M165 117 C101 182 69 259 69 350 C69 441 101 519 165 583 C230 647 307 679 398 679 C489 679 567 647 631 583 C695 519 727 441 727 350 C727 259 695 182 631 117 C567 53 489 21 398 21 C307 21 230 53 165 117 L165 117 Z " />
<glyph glyph-name="ordfeminine" unicode="&#xaa;" horiz-adv-x="362" d="M243 280 L307 280 L307 610 C307 635 298 657 281 674 C264 691 242 700 217 700 L100 700 L100 636 L217 636 C234 636 243 627 243 610 L243 496 C240 507 233 517 222 524 C211 531 198 534 184 534 L145 534 C120 534 99 526 82 510 C64 493 55 471 55 444 L55 370 C55 345 64 324 83 307 C101 289 122 280 147 280 L184 280 C198 280 211 283 222 290 C233 297 240 307 243 318 L243 280 Z M243 370 C243 353 234 344 217 344 L146 344 C129 344 120 353 120 370 L120 444 C120 461 129 470 146 470 L217 470 C234 470 243 461 243 444 L243 370 Z M55 132 L307 132 L307 196 L55 196 L55 132 Z " />
<glyph glyph-name="guillemotleft" unicode="&#xab;" horiz-adv-x="373" d="M101 235 L186 320 L152 356 L31 235 L152 114 L186 150 L101 235 Z M257 235 L342 320 L307 356 L186 235 L307 114 L342 150 L257 235 Z " />
<glyph glyph-name="logicalnot" unicode="&#xac;" horiz-adv-x="460" d="M430 358 L30 358 L30 291 L363 291 L363 111 L430 111 L430 358 Z " />
<glyph glyph-name="softhyphen" unicode="&#xad;" horiz-adv-x="271" d="M241 269 L30 269 L30 201 L241 201 L241 269 Z " />
<glyph glyph-name="registered" unicode="&#xae;" horiz-adv-x="438" d="M176 533 L176 597 L263 597 L263 533 L176 533 Z M250 501 L267 501 C286 501 295 512 295 534 L295 601 C295 620 286 629 267 629 L144 629 L144 430 L176 430 L176 501 L215 501 L260 430 L295 430 L250 501 Z M346 403 C381 438 398 480 398 529 C398 579 381 622 346 657 C311 692 268 709 219 709 C170 709 127 692 92 657 C57 622 40 579 40 529 C40 480 57 438 92 403 C127 368 170 350 219 350 C268 350 311 368 346 403 L346 403 Z M329 639 C359 609 374 572 374 529 C374 486 359 450 329 420 C298 390 262 375 219 375 C176 375 140 390 110 420 C79 450 64 486 64 529 C64 572 79 608 110 639 C140 669 176 684 219 684 C262 684 299 669 329 639 L329 639 Z " />
<glyph glyph-name="macron" unicode="&#xaf;" horiz-adv-x="388" d="M298 631 L90 631 L90 581 L298 581 L298 631 Z " />
<glyph glyph-name="degree" unicode="&#xb0;" horiz-adv-x="248" d="M167 659 C179 647 185 633 185 616 C185 599 179 585 167 574 C156 562 142 556 125 556 C108 556 94 562 82 574 C71 585 65 599 65 616 C65 633 71 648 82 659 C94 670 108 676 125 676 C142 676 156 670 167 659 L167 659 Z M192 549 C211 568 220 590 220 616 C220 643 211 666 192 685 C173 704 151 713 125 713 C98 713 75 704 56 685 C37 666 28 643 28 616 C28 590 37 568 56 549 C75 530 98 521 125 521 C151 521 173 530 192 549 L192 549 Z " />
<glyph glyph-name="plusminus" unicode="&#xb1;" horiz-adv-x="460" d="M30 -1 L430 -1 L430 66 L261 66 L261 212 L430 212 L430 279 L261 279 L261 446 L194 446 L194 279 L30 279 L30 212 L194 212 L194 66 L30 66 L30 -1 Z " />
<glyph glyph-name="twosuperior" unicode="&#xb2;" horiz-adv-x="305" d="M105 360 C105 369 107 376 110 380 L238 543 C249 558 255 575 255 596 L255 635 C255 654 249 670 237 682 C225 694 209 700 190 700 L115 700 C96 700 81 694 68 682 C56 670 50 654 50 635 L50 581 L105 581 L105 635 C105 642 108 645 115 645 L190 645 C197 645 200 642 200 635 L200 596 C200 587 198 580 195 576 L67 413 C56 398 50 381 50 360 L50 280 L250 280 L250 335 L105 335 L105 360 Z " />
<glyph glyph-name="threesuperior" unicode="&#xb3;" horiz-adv-x="305" d="M255 455 C255 480 243 495 220 501 C243 508 255 524 255 548 L255 635 C255 654 249 670 237 682 C225 694 209 700 190 700 L115 700 C96 700 81 694 68 682 C56 670 50 654 50 635 L50 595 L105 595 L105 635 C105 642 108 645 115 645 L190 645 C197 645 200 642 200 635 L200 540 C200 533 197 530 190 530 L100 530 L100 475 L190 475 C197 475 200 472 200 465 L200 345 C200 338 197 335 190 335 L115 335 C108 335 105 338 105 345 L105 385 L50 385 L50 345 C50 326 56 311 68 298 C81 286 96 280 115 280 L190 280 C209 280 225 286 237 298 C249 311 255 326 255 345 L255 455 Z " />
<glyph glyph-name="acute" unicode="&#xb4;" horiz-adv-x="388" d="M114 563 L149 528 L274 653 L239 688 L114 563 Z " />
<glyph glyph-name="mu" unicode="&#xb5;" horiz-adv-x="388" d="M123 -150 L123 45 C133 15 157 0 195 0 C232 0 255 15 265 45 L265 0 L333 0 L333 470 L265 470 L265 90 C265 75 258 68 243 68 L145 68 C130 68 123 75 123 90 L123 470 L55 470 L55 -150 L123 -150 Z " />
<glyph glyph-name="paragraph" unicode="&#xb6;" horiz-adv-x="437" d="M412 662 L412 700 L195 700 C148 700 108 683 75 650 C42 617 25 578 25 531 C25 484 42 444 75 411 C108 378 148 361 195 361 L195 -151 L233 -151 L233 662 L296 662 L296 -151 L334 -151 L334 662 L412 662 Z " />
<glyph glyph-name="periodcentered" unicode="&#xb7;" horiz-adv-x="190" d="M60 271 C50 261 45 249 45 235 C45 221 50 209 60 200 C69 190 81 185 95 185 C109 185 121 190 131 200 C140 209 145 221 145 235 C145 249 140 261 131 271 C121 280 109 285 95 285 C81 285 69 280 60 271 L60 271 Z " />
<glyph glyph-name="cedilla" unicode="&#xb8;" horiz-adv-x="388" d="M262 -30 L201 -30 L201 5 L151 5 L151 -75 L212 -75 L212 -105 L126 -105 L126 -155 L223 -155 C234 -155 243 -151 250 -143 C258 -135 262 -126 262 -115 L262 -30 Z " />
<glyph glyph-name="onesuperior" unicode="&#xb9;" horiz-adv-x="259" d="M222 335 L157 335 L157 700 L37 700 L37 645 L102 645 L102 335 L37 335 L37 280 L222 280 L222 335 Z " />
<glyph glyph-name="ordmasculine" unicode="&#xba;" horiz-adv-x="363" d="M308 610 C308 635 299 657 282 674 C265 691 243 700 218 700 L145 700 C120 700 99 691 81 674 C64 657 55 635 55 610 L55 370 C55 345 64 324 81 306 C99 289 120 280 145 280 L218 280 C243 280 265 289 282 306 C299 324 308 345 308 370 L308 610 Z M243 370 C243 353 235 345 218 345 L145 345 C128 345 120 353 120 370 L120 610 C120 627 128 635 145 635 L218 635 C235 635 243 627 243 610 L243 370 Z M55 132 L307 132 L307 196 L55 196 L55 132 Z " />
<glyph glyph-name="guillemotright" unicode="&#xbb;" horiz-adv-x="373" d="M272 235 L187 150 L221 114 L342 235 L221 356 L187 320 L272 235 Z M116 235 L31 150 L66 114 L187 235 L66 356 L31 320 L116 235 Z " />
<glyph glyph-name="onequarter" unicode="&#xbc;" horiz-adv-x="587" d="M222 335 L157 335 L157 700 L37 700 L37 645 L102 645 L102 335 L37 335 L37 280 L222 280 L222 335 Z M385 700 L153 0 L206 0 L438 700 L385 700 Z M387 147 L465 319 L465 147 L387 147 Z M550 147 L520 147 L520 420 L462 420 L330 143 L330 92 L465 92 L465 0 L520 0 L520 92 L550 92 L550 147 Z " />
<glyph glyph-name="onehalf" unicode="&#xbd;" horiz-adv-x="638" d="M222 335 L157 335 L157 700 L37 700 L37 645 L102 645 L102 335 L37 335 L37 280 L222 280 L222 335 Z M385 700 L153 0 L206 0 L438 700 L385 700 Z M438 80 C438 89 440 96 443 100 L571 263 C582 278 588 295 588 316 L588 355 C588 374 582 390 570 402 C558 414 542 420 523 420 L448 420 C429 420 414 414 401 402 C389 390 383 374 383 355 L383 301 L438 301 L438 355 C438 362 441 365 448 365 L523 365 C530 365 533 362 533 355 L533 316 C533 307 531 300 528 296 L400 133 C389 118 383 101 383 80 L383 0 L583 0 L583 55 L438 55 L438 80 Z " />
<glyph glyph-name="threequarters" unicode="&#xbe;" horiz-adv-x="633" d="M255 455 C255 480 243 495 220 501 C243 508 255 524 255 548 L255 635 C255 654 249 670 237 682 C225 694 209 700 190 700 L115 700 C96 700 81 694 68 682 C56 670 50 654 50 635 L50 595 L105 595 L105 635 C105 642 108 645 115 645 L190 645 C197 645 200 642 200 635 L200 540 C200 533 197 530 190 530 L100 530 L100 475 L190 475 C197 475 200 472 200 465 L200 345 C200 338 197 335 190 335 L115 335 C108 335 105 338 105 345 L105 385 L50 385 L50 345 C50 326 56 311 68 298 C81 286 96 280 115 280 L190 280 C209 280 225 286 237 298 C249 311 255 326 255 345 L255 455 Z M431 700 L199 0 L252 0 L484 700 L431 700 Z M433 147 L511 319 L511 147 L433 147 Z M596 147 L566 147 L566 420 L508 420 L376 143 L376 92 L511 92 L511 0 L566 0 L566 92 L596 92 L596 147 Z " />
<glyph glyph-name="questiondown" unicode="&#xbf;" horiz-adv-x="385" d="M30 -130 C30 -157 40 -181 59 -201 C79 -220 103 -230 130 -230 L255 -230 C282 -230 306 -220 326 -201 C345 -181 355 -157 355 -130 L355 -42 L280 -42 L280 -130 C280 -147 272 -155 255 -155 L130 -155 C113 -155 105 -147 105 -130 L105 -51 C105 -38 109 -27 117 -19 L239 102 C259 121 269 147 269 179 C269 206 259 230 240 249 L189 298 L136 246 L189 193 C194 188 197 181 197 174 C197 167 194 160 189 155 L69 33 C43 6 30 -22 30 -53 L30 -130 Z M228 395 C237 404 242 416 242 430 C242 444 237 456 228 466 C218 475 206 480 192 480 C178 480 166 475 157 466 C147 456 142 444 142 430 C142 416 147 404 157 395 C166 385 178 380 192 380 C206 380 218 385 228 395 L228 395 Z " />
<glyph glyph-name="Agrave" unicode="&#xc0;" horiz-adv-x="425" d="M332 0 L408 0 L258 700 L167 700 L17 0 L93 0 L116 113 L309 113 L332 0 Z M212 583 L293 188 L131 188 L212 583 Z M167 918 L132 883 L257 758 L292 793 L167 918 Z " />
<glyph glyph-name="Aacute" unicode="&#xc1;" horiz-adv-x="425" d="M332 0 L408 0 L258 700 L167 700 L17 0 L93 0 L116 113 L309 113 L332 0 Z M212 583 L293 188 L131 188 L212 583 Z M132 793 L167 758 L292 883 L257 918 L132 793 Z " />
<glyph glyph-name="Acircumflex" unicode="&#xc2;" horiz-adv-x="425" d="M332 0 L408 0 L258 700 L167 700 L17 0 L93 0 L116 113 L309 113 L332 0 Z M212 583 L293 188 L131 188 L212 583 Z M212 900 L91 780 L127 744 L212 830 L297 744 L333 780 L212 900 Z " />
<glyph glyph-name="Atilde" unicode="&#xc3;" horiz-adv-x="425" d="M332 0 L408 0 L258 700 L167 700 L17 0 L93 0 L116 113 L309 113 L332 0 Z M212 583 L293 188 L131 188 L212 583 Z M109 788 L168 846 L223 792 C233 782 245 777 259 777 C273 777 284 782 293 792 L350 850 L316 885 L258 828 L203 882 C193 892 181 897 167 897 C154 897 142 892 133 882 L74 822 L109 788 Z " />
<glyph glyph-name="Adieresis" unicode="&#xc4;" horiz-adv-x="425" d="M332 0 L408 0 L258 700 L167 700 L17 0 L93 0 L116 113 L309 113 L332 0 Z M212 583 L293 188 L131 188 L212 583 Z M109 870 C100 861 95 851 95 838 C95 825 100 815 109 806 C118 797 128 792 141 792 C154 792 164 797 173 806 C182 815 187 825 187 838 C187 851 182 861 173 870 C164 879 154 884 141 884 C128 884 118 879 109 870 L109 870 Z M251 870 C242 861 237 851 237 838 C237 825 242 815 251 806 C260 797 270 792 283 792 C296 792 306 797 315 806 C324 815 329 825 329 838 C329 851 324 861 315 870 C306 879 296 884 283 884 C270 884 260 879 251 870 L251 870 Z " />
<glyph glyph-name="Aring" unicode="&#xc5;" horiz-adv-x="425" d="M332 0 L408 0 L258 700 L167 700 L17 0 L93 0 L116 113 L309 113 L332 0 Z M212 583 L293 188 L131 188 L212 583 Z M268 772 C283 787 290 806 290 827 C290 848 282 866 267 881 C252 896 234 904 213 904 C192 904 173 896 158 881 C143 866 135 848 135 827 C135 806 143 787 158 772 C173 757 192 749 213 749 C234 749 253 757 268 772 L268 772 Z M184 798 C176 807 172 816 172 827 C172 838 176 848 184 856 C193 864 202 868 213 868 C224 868 234 864 242 856 C250 848 254 838 254 827 C254 816 250 807 242 798 C234 790 224 786 213 786 C202 786 193 790 184 798 L184 798 Z " />
<glyph glyph-name="AE" unicode="&#xc6;" horiz-adv-x="645" d="M175 188 L339 580 L339 188 L175 188 Z M614 75 L414 75 L414 333 L564 333 L564 408 L414 408 L414 625 L614 625 L614 700 L316 700 L9 0 L92 0 L142 113 L339 113 L339 0 L614 0 L614 75 Z " />
<glyph glyph-name="Ccedilla" unicode="&#xc7;" horiz-adv-x="435" d="M285 -30 L224 -30 L224 0 L280 0 C307 0 331 10 351 29 C370 49 380 73 380 100 L380 188 L305 188 L305 100 C305 83 297 75 280 75 L155 75 C138 75 130 83 130 100 L130 600 C130 617 138 625 155 625 L280 625 C297 625 305 617 305 600 L305 512 L380 512 L380 600 C380 627 370 651 351 671 C331 690 307 700 280 700 L155 700 C128 700 104 690 84 671 C65 651 55 627 55 600 L55 100 C55 73 65 49 84 29 C104 10 128 0 155 0 L174 0 L174 -75 L235 -75 L235 -105 L149 -105 L149 -155 L246 -155 C257 -155 266 -151 273 -143 C281 -135 285 -126 285 -115 L285 -30 Z " />
<glyph glyph-name="Egrave" unicode="&#xc8;" horiz-adv-x="360" d="M330 75 L130 75 L130 333 L280 333 L280 408 L130 408 L130 625 L330 625 L330 700 L55 700 L55 0 L330 0 L330 75 Z M147 918 L112 883 L237 758 L272 793 L147 918 Z " />
<glyph glyph-name="Eacute" unicode="&#xc9;" horiz-adv-x="360" d="M330 75 L130 75 L130 333 L280 333 L280 408 L130 408 L130 625 L330 625 L330 700 L55 700 L55 0 L330 0 L330 75 Z M112 793 L147 758 L272 883 L237 918 L112 793 Z " />
<glyph glyph-name="Ecircumflex" unicode="&#xca;" horiz-adv-x="360" d="M330 75 L130 75 L130 333 L280 333 L280 408 L130 408 L130 625 L330 625 L330 700 L55 700 L55 0 L330 0 L330 75 Z M192 914 L71 794 L107 758 L192 844 L277 758 L313 794 L192 914 Z " />
<glyph glyph-name="Edieresis" unicode="&#xcb;" horiz-adv-x="360" d="M330 75 L130 75 L130 333 L280 333 L280 408 L130 408 L130 625 L330 625 L330 700 L55 700 L55 0 L330 0 L330 75 Z M89 870 C80 861 75 851 75 838 C75 825 80 815 89 806 C98 797 108 792 121 792 C134 792 144 797 153 806 C162 815 167 825 167 838 C167 851 162 861 153 870 C144 879 134 884 121 884 C108 884 98 879 89 870 L89 870 Z M231 870 C222 861 217 851 217 838 C217 825 222 815 231 806 C240 797 250 792 263 792 C276 792 286 797 295 806 C304 815 309 825 309 838 C309 851 304 861 295 870 C286 879 276 884 263 884 C250 884 240 879 231 870 L231 870 Z " />
<glyph glyph-name="Igrave" unicode="&#xcc;" horiz-adv-x="185" d="M130 700 L55 700 L55 0 L130 0 L130 700 Z M47 918 L12 883 L137 758 L172 793 L47 918 Z " />
<glyph glyph-name="Iacute" unicode="&#xcd;" horiz-adv-x="185" d="M130 700 L55 700 L55 0 L130 0 L130 700 Z M12 793 L47 758 L172 883 L137 918 L12 793 Z " />
<glyph glyph-name="Icircumflex" unicode="&#xce;" horiz-adv-x="185" d="M130 700 L55 700 L55 0 L130 0 L130 700 Z M92 914 L-29 794 L7 758 L92 844 L177 758 L213 794 L92 914 Z " />
<glyph glyph-name="Idieresis" unicode="&#xcf;" horiz-adv-x="185" d="M130 700 L55 700 L55 0 L130 0 L130 700 Z M-11 870 C-20 861 -25 851 -25 838 C-25 825 -20 815 -11 806 C-2 797 8 792 21 792 C34 792 44 797 53 806 C62 815 67 825 67 838 C67 851 62 861 53 870 C44 879 34 884 21 884 C8 884 -2 879 -11 870 L-11 870 Z M131 870 C122 861 117 851 117 838 C117 825 122 815 131 806 C140 797 150 792 163 792 C176 792 186 797 195 806 C204 815 209 825 209 838 C209 851 204 861 195 870 C186 879 176 884 163 884 C150 884 140 879 131 870 L131 870 Z " />
<glyph glyph-name="Eth" unicode="&#xd0;" horiz-adv-x="435" d="M380 600 C380 627 370 651 351 671 C331 690 307 700 280 700 L55 700 L55 395 L-10 395 L-10 345 L55 345 L55 0 L280 0 C307 0 331 10 351 29 C370 49 380 73 380 100 L380 600 Z M198 395 L130 395 L130 625 L280 625 C297 625 305 617 305 600 L305 100 C305 83 297 75 280 75 L130 75 L130 345 L198 345 L198 395 Z " />
<glyph glyph-name="Ntilde" unicode="&#xd1;" horiz-adv-x="435" d="M380 700 L305 700 L305 228 L138 700 L55 700 L55 0 L130 0 L130 518 L317 0 L380 0 L380 700 Z M114 788 L173 846 L228 792 C238 782 250 777 264 777 C278 777 289 782 298 792 L355 850 L321 885 L263 828 L208 882 C198 892 186 897 172 897 C159 897 147 892 138 882 L79 822 L114 788 Z " />
<glyph glyph-name="Ograve" unicode="&#xd2;" horiz-adv-x="435" d="M305 100 C305 83 297 75 280 75 L155 75 C138 75 130 83 130 100 L130 600 C130 617 138 625 155 625 L280 625 C297 625 305 617 305 600 L305 100 Z M380 600 C380 627 370 651 351 671 C331 690 307 700 280 700 L155 700 C128 700 104 690 84 671 C65 651 55 627 55 600 L55 100 C55 73 65 49 84 29 C104 10 128 0 155 0 L280 0 C307 0 331 10 351 29 C370 49 380 73 380 100 L380 600 Z M172 918 L137 883 L262 758 L297 793 L172 918 Z " />
<glyph glyph-name="Oacute" unicode="&#xd3;" horiz-adv-x="435" d="M305 100 C305 83 297 75 280 75 L155 75 C138 75 130 83 130 100 L130 600 C130 617 138 625 155 625 L280 625 C297 625 305 617 305 600 L305 100 Z M380 600 C380 627 370 651 351 671 C331 690 307 700 280 700 L155 700 C128 700 104 690 84 671 C65 651 55 627 55 600 L55 100 C55 73 65 49 84 29 C104 10 128 0 155 0 L280 0 C307 0 331 10 351 29 C370 49 380 73 380 100 L380 600 Z M137 793 L172 758 L297 883 L262 918 L137 793 Z " />
<glyph glyph-name="Ocircumflex" unicode="&#xd4;" horiz-adv-x="435" d="M305 100 C305 83 297 75 280 75 L155 75 C138 75 130 83 130 100 L130 600 C130 617 138 625 155 625 L280 625 C297 625 305 617 305 600 L305 100 Z M380 600 C380 627 370 651 351 671 C331 690 307 700 280 700 L155 700 C128 700 104 690 84 671 C65 651 55 627 55 600 L55 100 C55 73 65 49 84 29 C104 10 128 0 155 0 L280 0 C307 0 331 10 351 29 C370 49 380 73 380 100 L380 600 Z M217 914 L96 794 L132 758 L217 844 L302 758 L338 794 L217 914 Z " />
<glyph glyph-name="Otilde" unicode="&#xd5;" horiz-adv-x="435" d="M305 100 C305 83 297 75 280 75 L155 75 C138 75 130 83 130 100 L130 600 C130 617 138 625 155 625 L280 625 C297 625 305 617 305 600 L305 100 Z M380 600 C380 627 370 651 351 671 C331 690 307 700 280 700 L155 700 C128 700 104 690 84 671 C65 651 55 627 55 600 L55 100 C55 73 65 49 84 29 C104 10 128 0 155 0 L280 0 C307 0 331 10 351 29 C370 49 380 73 380 100 L380 600 Z M114 788 L173 846 L228 792 C238 782 250 777 264 777 C278 777 289 782 298 792 L355 850 L321 885 L263 828 L208 882 C198 892 186 897 172 897 C159 897 147 892 138 882 L79 822 L114 788 Z " />
<glyph glyph-name="Odieresis" unicode="&#xd6;" horiz-adv-x="435" d="M305 100 C305 83 297 75 280 75 L155 75 C138 75 130 83 130 100 L130 600 C130 617 138 625 155 625 L280 625 C297 625 305 617 305 600 L305 100 Z M380 600 C380 627 370 651 351 671 C331 690 307 700 280 700 L155 700 C128 700 104 690 84 671 C65 651 55 627 55 600 L55 100 C55 73 65 49 84 29 C104 10 128 0 155 0 L280 0 C307 0 331 10 351 29 C370 49 380 73 380 100 L380 600 Z M114 870 C105 861 100 851 100 838 C100 825 105 815 114 806 C123 797 133 792 146 792 C159 792 169 797 178 806 C187 815 192 825 192 838 C192 851 187 861 178 870 C169 879 159 884 146 884 C133 884 123 879 114 870 L114 870 Z M256 870 C247 861 242 851 242 838 C242 825 247 815 256 806 C265 797 275 792 288 792 C301 792 311 797 320 806 C329 815 334 825 334 838 C334 851 329 861 320 870 C311 879 301 884 288 884 C275 884 265 879 256 870 L256 870 Z " />
<glyph glyph-name="multiply" unicode="&#xd7;" horiz-adv-x="461" d="M349 401 L230 282 L112 400 L64 352 L182 234 L66 118 L114 70 L230 186 L347 69 L395 117 L277 234 L397 353 L349 401 Z " />
<glyph glyph-name="Oslash" unicode="&#xd8;" horiz-adv-x="435" d="M364 773 L330 687 C314 696 297 700 280 700 L155 700 C128 700 104 690 84 671 C65 651 55 627 55 600 L55 100 C55 80 61 61 73 42 L27 -74 L71 -74 L105 13 C120 4 136 0 155 0 L280 0 C307 0 331 10 351 29 C370 49 380 73 380 100 L380 600 C380 621 374 640 362 657 L408 773 L364 773 Z M130 600 C130 617 138 625 155 625 L280 625 C290 625 297 621 301 614 L130 184 L130 600 Z M305 100 C305 83 297 75 280 75 L155 75 C145 75 138 78 134 85 L305 514 L305 100 Z " />
<glyph glyph-name="Ugrave" unicode="&#xd9;" horiz-adv-x="435" d="M380 700 L305 700 L305 100 C305 83 297 75 280 75 L155 75 C138 75 130 83 130 100 L130 700 L55 700 L55 100 C55 73 65 49 84 29 C104 10 128 0 155 0 L280 0 C307 0 331 10 351 29 C370 49 380 73 380 100 L380 700 Z M172 918 L137 883 L262 758 L297 793 L172 918 Z " />
<glyph glyph-name="Uacute" unicode="&#xda;" horiz-adv-x="435" d="M380 700 L305 700 L305 100 C305 83 297 75 280 75 L155 75 C138 75 130 83 130 100 L130 700 L55 700 L55 100 C55 73 65 49 84 29 C104 10 128 0 155 0 L280 0 C307 0 331 10 351 29 C370 49 380 73 380 100 L380 700 Z M137 793 L172 758 L297 883 L262 918 L137 793 Z " />
<glyph glyph-name="Ucircumflex" unicode="&#xdb;" horiz-adv-x="435" d="M380 700 L305 700 L305 100 C305 83 297 75 280 75 L155 75 C138 75 130 83 130 100 L130 700 L55 700 L55 100 C55 73 65 49 84 29 C104 10 128 0 155 0 L280 0 C307 0 331 10 351 29 C370 49 380 73 380 100 L380 700 Z M217 914 L96 794 L132 758 L217 844 L302 758 L338 794 L217 914 Z " />
<glyph glyph-name="Udieresis" unicode="&#xdc;" horiz-adv-x="435" d="M380 700 L305 700 L305 100 C305 83 297 75 280 75 L155 75 C138 75 130 83 130 100 L130 700 L55 700 L55 100 C55 73 65 49 84 29 C104 10 128 0 155 0 L280 0 C307 0 331 10 351 29 C370 49 380 73 380 100 L380 700 Z M114 870 C105 861 100 851 100 838 C100 825 105 815 114 806 C123 797 133 792 146 792 C159 792 169 797 178 806 C187 815 192 825 192 838 C192 851 187 861 178 870 C169 879 159 884 146 884 C133 884 123 879 114 870 L114 870 Z M256 870 C247 861 242 851 242 838 C242 825 247 815 256 806 C265 797 275 792 288 792 C301 792 311 797 320 806 C329 815 334 825 334 838 C334 851 329 861 320 870 C311 879 301 884 288 884 C275 884 265 879 256 870 L256 870 Z " />
<glyph glyph-name="Yacute" unicode="&#xdd;" horiz-adv-x="384" d="M301 700 L192 355 L84 700 L5 700 L154 270 L154 0 L228 0 L228 270 L379 700 L301 700 Z M112 793 L147 758 L272 883 L237 918 L112 793 Z " />
<glyph glyph-name="Thorn" unicode="&#xde;" horiz-adv-x="410" d="M305 230 C305 213 297 205 280 205 L130 205 L130 487 L280 487 C297 487 305 479 305 462 L305 230 Z M380 462 C380 490 370 514 351 533 C331 552 307 562 280 562 L130 562 L130 700 L55 700 L55 0 L130 0 L130 130 L280 130 C308 130 332 140 351 159 C370 179 380 203 380 230 L380 462 Z " />
<glyph glyph-name="germandbls" unicode="&#xdf;" horiz-adv-x="388" d="M333 359 C333 382 327 401 316 416 C305 430 292 437 277 437 C292 437 305 444 316 458 C327 473 333 492 333 515 L333 610 C333 635 324 656 307 673 C290 691 268 700 243 700 L145 700 C120 700 99 691 82 673 C64 656 55 635 55 610 L55 0 L123 0 L123 610 C123 625 130 632 145 632 L243 632 C258 632 265 625 265 610 L265 492 C265 477 258 470 243 470 L194 470 L194 403 L243 403 C258 403 265 395 265 380 L265 90 C265 75 258 68 243 68 L194 68 L194 0 L243 0 C268 0 290 9 307 26 C324 43 333 65 333 90 L333 359 Z " />
<glyph glyph-name="Agrave006" unicode="&#xe0;" horiz-adv-x="388" d="M265 90 C265 75 258 68 243 68 L146 68 C131 68 124 75 124 90 L124 190 C124 205 131 212 146 212 L243 212 C258 212 265 205 265 190 L265 90 Z M333 380 C333 405 324 426 307 443 C290 461 268 470 243 470 L89 470 L89 402 L243 402 C258 402 265 395 265 380 L265 242 C258 267 239 280 206 280 L145 280 C119 280 98 272 81 255 C64 238 55 216 55 190 L55 90 C55 65 64 44 83 27 C101 9 122 0 147 0 L206 0 C239 0 258 13 265 38 L265 0 L333 0 L333 380 Z M149 688 L114 653 L239 528 L274 563 L149 688 Z " />
<glyph glyph-name="Aacute002" unicode="&#xe1;" horiz-adv-x="388" d="M265 90 C265 75 258 68 243 68 L146 68 C131 68 124 75 124 90 L124 190 C124 205 131 212 146 212 L243 212 C258 212 265 205 265 190 L265 90 Z M333 380 C333 405 324 426 307 443 C290 461 268 470 243 470 L89 470 L89 402 L243 402 C258 402 265 395 265 380 L265 242 C258 267 239 280 206 280 L145 280 C119 280 98 272 81 255 C64 238 55 216 55 190 L55 90 C55 65 64 44 83 27 C101 9 122 0 147 0 L206 0 C239 0 258 13 265 38 L265 0 L333 0 L333 380 Z M114 563 L149 528 L274 653 L239 688 L114 563 Z " />
<glyph glyph-name="Acircumflex004" unicode="&#xe2;" horiz-adv-x="388" d="M265 90 C265 75 258 68 243 68 L146 68 C131 68 124 75 124 90 L124 190 C124 205 131 212 146 212 L243 212 C258 212 265 205 265 190 L265 90 Z M333 380 C333 405 324 426 307 443 C290 461 268 470 243 470 L89 470 L89 402 L243 402 C258 402 265 395 265 380 L265 242 C258 267 239 280 206 280 L145 280 C119 280 98 272 81 255 C64 238 55 216 55 190 L55 90 C55 65 64 44 83 27 C101 9 122 0 147 0 L206 0 C239 0 258 13 265 38 L265 0 L333 0 L333 380 Z M194 684 L73 564 L109 528 L194 614 L279 528 L315 564 L194 684 Z " />
<glyph glyph-name="Atilde009" unicode="&#xe3;" horiz-adv-x="388" d="M265 90 C265 75 258 68 243 68 L146 68 C131 68 124 75 124 90 L124 190 C124 205 131 212 146 212 L243 212 C258 212 265 205 265 190 L265 90 Z M333 380 C333 405 324 426 307 443 C290 461 268 470 243 470 L89 470 L89 402 L243 402 C258 402 265 395 265 380 L265 242 C258 267 239 280 206 280 L145 280 C119 280 98 272 81 255 C64 238 55 216 55 190 L55 90 C55 65 64 44 83 27 C101 9 122 0 147 0 L206 0 C239 0 258 13 265 38 L265 0 L333 0 L333 380 Z M91 558 L150 616 L205 562 C215 552 227 547 241 547 C255 547 266 552 275 562 L332 620 L298 655 L240 598 L185 652 C175 662 163 667 149 667 C136 667 124 662 115 652 L56 592 L91 558 Z " />
<glyph glyph-name="Adieresis005" unicode="&#xe4;" horiz-adv-x="388" d="M265 90 C265 75 258 68 243 68 L146 68 C131 68 124 75 124 90 L124 190 C124 205 131 212 146 212 L243 212 C258 212 265 205 265 190 L265 90 Z M333 380 C333 405 324 426 307 443 C290 461 268 470 243 470 L89 470 L89 402 L243 402 C258 402 265 395 265 380 L265 242 C258 267 239 280 206 280 L145 280 C119 280 98 272 81 255 C64 238 55 216 55 190 L55 90 C55 65 64 44 83 27 C101 9 122 0 147 0 L206 0 C239 0 258 13 265 38 L265 0 L333 0 L333 380 Z M91 640 C82 631 77 621 77 608 C77 595 82 585 91 576 C100 567 110 562 123 562 C136 562 146 567 155 576 C164 585 169 595 169 608 C169 621 164 631 155 640 C146 649 136 654 123 654 C110 654 100 649 91 640 L91 640 Z M233 640 C224 631 219 621 219 608 C219 595 224 585 233 576 C242 567 252 562 265 562 C278 562 288 567 297 576 C306 585 311 595 311 608 C311 621 306 631 297 640 C288 649 278 654 265 654 C252 654 242 649 233 640 L233 640 Z " />
<glyph glyph-name="Aring008" unicode="&#xe5;" horiz-adv-x="388" d="M265 90 C265 75 258 68 243 68 L146 68 C131 68 124 75 124 90 L124 190 C124 205 131 212 146 212 L243 212 C258 212 265 205 265 190 L265 90 Z M333 380 C333 405 324 426 307 443 C290 461 268 470 243 470 L89 470 L89 402 L243 402 C258 402 265 395 265 380 L265 242 C258 267 239 280 206 280 L145 280 C119 280 98 272 81 255 C64 238 55 216 55 190 L55 90 C55 65 64 44 83 27 C101 9 122 0 147 0 L206 0 C239 0 258 13 265 38 L265 0 L333 0 L333 380 Z M250 542 C265 557 272 576 272 597 C272 618 264 636 249 651 C234 666 216 674 195 674 C174 674 155 666 140 651 C125 636 117 618 117 597 C117 576 125 557 140 542 C155 527 174 519 195 519 C216 519 235 527 250 542 L250 542 Z M166 568 C158 577 154 586 154 597 C154 608 158 618 166 626 C175 634 184 638 195 638 C206 638 216 634 224 626 C232 618 236 608 236 597 C236 586 232 577 224 568 C216 560 206 556 195 556 C184 556 175 560 166 568 L166 568 Z " />
<glyph glyph-name="AE021" unicode="&#xe6;" horiz-adv-x="598" d="M265 90 C265 75 258 68 243 68 L146 68 C131 68 124 75 124 90 L124 189 C124 204 131 211 146 211 L243 211 C258 211 265 204 265 189 L265 90 Z M333 259 L333 380 C333 395 340 402 355 402 L453 402 C468 402 475 395 475 380 L475 259 L333 259 Z M265 241 C258 266 239 279 206 279 L145 279 C119 279 98 271 81 254 C64 237 55 215 55 189 L55 90 C55 65 64 44 83 27 C101 9 122 0 147 0 L239 0 C274 0 294 16 299 48 C304 16 325 0 360 0 L510 0 L510 68 L355 68 C340 68 333 75 333 90 L333 192 L543 192 L543 380 C543 405 534 426 516 443 C499 461 478 470 453 470 L360 470 C325 470 304 454 299 422 C294 454 274 470 239 470 L89 470 L89 402 L243 402 C258 402 265 395 265 380 L265 241 Z " />
<glyph glyph-name="Ccedilla031" unicode="&#xe7;" horiz-adv-x="388" d="M262 -30 L201 -30 L201 0 L243 0 C268 0 290 9 307 27 C324 44 333 65 333 90 L333 169 L265 169 L265 90 C265 75 258 68 243 68 L145 68 C130 68 123 75 123 90 L123 380 C123 395 130 402 145 402 L243 402 C258 402 265 395 265 380 L265 302 L333 302 L333 380 C333 405 324 426 307 443 C290 461 268 470 243 470 L145 470 C120 470 99 461 82 443 C64 426 55 405 55 380 L55 90 C55 65 64 44 82 27 C99 9 120 0 145 0 L151 0 L151 -75 L212 -75 L212 -105 L126 -105 L126 -155 L223 -155 C234 -155 243 -151 250 -143 C258 -135 262 -126 262 -115 L262 -30 Z " />
<glyph glyph-name="Egrave050" unicode="&#xe8;" horiz-adv-x="388" d="M123 259 L123 380 C123 395 130 402 145 402 L243 402 C258 402 265 395 265 380 L265 259 L123 259 Z M333 380 C333 405 324 426 307 443 C290 461 268 470 243 470 L145 470 C120 470 99 461 82 443 C64 426 55 405 55 380 L55 90 C55 65 64 44 82 27 C99 9 120 0 145 0 L300 0 L300 68 L145 68 C130 68 123 75 123 90 L123 192 L333 192 L333 380 Z M149 688 L114 653 L239 528 L274 563 L149 688 Z " />
<glyph glyph-name="Eacute044" unicode="&#xe9;" horiz-adv-x="388" d="M123 259 L123 380 C123 395 130 402 145 402 L243 402 C258 402 265 395 265 380 L265 259 L123 259 Z M333 380 C333 405 324 426 307 443 C290 461 268 470 243 470 L145 470 C120 470 99 461 82 443 C64 426 55 405 55 380 L55 90 C55 65 64 44 82 27 C99 9 120 0 145 0 L300 0 L300 68 L145 68 C130 68 123 75 123 90 L123 192 L333 192 L333 380 Z M114 563 L149 528 L274 653 L239 688 L114 563 Z " />
<glyph glyph-name="Ecircumflex047" unicode="&#xea;" horiz-adv-x="388" d="M123 259 L123 380 C123 395 130 402 145 402 L243 402 C258 402 265 395 265 380 L265 259 L123 259 Z M333 380 C333 405 324 426 307 443 C290 461 268 470 243 470 L145 470 C120 470 99 461 82 443 C64 426 55 405 55 380 L55 90 C55 65 64 44 82 27 C99 9 120 0 145 0 L300 0 L300 68 L145 68 C130 68 123 75 123 90 L123 192 L333 192 L333 380 Z M194 684 L73 564 L109 528 L194 614 L279 528 L315 564 L194 684 Z " />
<glyph glyph-name="Edieresis048" unicode="&#xeb;" horiz-adv-x="388" d="M123 259 L123 380 C123 395 130 402 145 402 L243 402 C258 402 265 395 265 380 L265 259 L123 259 Z M333 380 C333 405 324 426 307 443 C290 461 268 470 243 470 L145 470 C120 470 99 461 82 443 C64 426 55 405 55 380 L55 90 C55 65 64 44 82 27 C99 9 120 0 145 0 L300 0 L300 68 L145 68 C130 68 123 75 123 90 L123 192 L333 192 L333 380 Z M91 640 C82 631 77 621 77 608 C77 595 82 585 91 576 C100 567 110 562 123 562 C136 562 146 567 155 576 C164 585 169 595 169 608 C169 621 164 631 155 640 C146 649 136 654 123 654 C110 654 100 649 91 640 L91 640 Z M233 640 C224 631 219 621 219 608 C219 595 224 585 233 576 C242 567 252 562 265 562 C278 562 288 567 297 576 C306 585 311 595 311 608 C311 621 306 631 297 640 C288 649 278 654 265 654 C252 654 242 649 233 640 L233 640 Z " />
<glyph glyph-name="Igrave076" unicode="&#xec;" horiz-adv-x="178" d="M123 470 L55 470 L55 0 L123 0 L123 470 Z M44 688 L9 653 L134 528 L169 563 L44 688 Z " />
<glyph glyph-name="Iacute072" unicode="&#xed;" horiz-adv-x="178" d="M123 470 L55 470 L55 0 L123 0 L123 470 Z M9 563 L44 528 L169 653 L134 688 L9 563 Z " />
<glyph glyph-name="Icircumflex074" unicode="&#xee;" horiz-adv-x="178" d="M123 470 L55 470 L55 0 L123 0 L123 470 Z M89 684 L-32 564 L4 528 L89 614 L174 528 L210 564 L89 684 Z " />
<glyph glyph-name="Idieresis075" unicode="&#xef;" horiz-adv-x="178" d="M123 470 L55 470 L55 0 L123 0 L123 470 Z M-14 640 C-23 631 -28 621 -28 608 C-28 595 -23 585 -14 576 C-5 567 5 562 18 562 C31 562 41 567 50 576 C59 585 64 595 64 608 C64 621 59 631 50 640 C41 649 31 654 18 654 C5 654 -5 649 -14 640 L-14 640 Z M128 640 C119 631 114 621 114 608 C114 595 119 585 128 576 C137 567 147 562 160 562 C173 562 183 567 192 576 C201 585 206 595 206 608 C206 621 201 631 192 640 C183 649 173 654 160 654 C147 654 137 649 128 640 L128 640 Z " />
<glyph glyph-name="Eth187" unicode="&#xf0;" horiz-adv-x="378" d="M297 675 L239 648 L215 700 L141 700 L179 620 L106 586 L133 527 L206 561 L259 449 C248 463 229 470 203 470 L151 470 C126 470 105 461 88 443 C70 426 61 405 61 380 L61 90 C61 65 70 44 88 27 C105 9 126 0 151 0 L249 0 C274 0 296 9 313 27 C330 44 339 65 339 90 L339 380 C339 418 334 448 323 470 L267 589 L324 616 L297 675 Z M271 90 C271 75 264 68 249 68 L151 68 C136 68 129 75 129 90 L129 380 C129 395 136 402 151 402 L249 402 C264 402 271 395 271 380 L271 90 Z " />
<glyph glyph-name="Ntilde102" unicode="&#xf1;" horiz-adv-x="388" d="M333 380 C333 405 324 427 307 444 C290 461 268 470 243 470 L195 470 C157 470 133 455 123 425 L123 470 L55 470 L55 0 L123 0 L123 380 C123 395 130 402 145 402 L243 402 C258 402 265 395 265 380 L265 0 L333 0 L333 380 Z M91 558 L150 616 L205 562 C215 552 227 547 241 547 C255 547 266 552 275 562 L332 620 L298 655 L240 598 L185 652 C175 662 163 667 149 667 C136 667 124 662 115 652 L56 592 L91 558 Z " />
<glyph glyph-name="Ograve108" unicode="&#xf2;" horiz-adv-x="388" d="M265 90 C265 75 258 68 243 68 L145 68 C130 68 123 75 123 90 L123 380 C123 395 130 402 145 402 L243 402 C258 402 265 395 265 380 L265 90 Z M333 380 C333 405 324 427 307 444 C290 461 268 470 243 470 L145 470 C120 470 99 461 82 444 C64 427 55 405 55 380 L55 90 C55 65 64 44 82 27 C99 9 120 0 145 0 L243 0 C268 0 290 9 307 27 C324 44 333 65 333 90 L333 380 Z M149 688 L114 653 L239 528 L274 563 L149 688 Z " />
<glyph glyph-name="Oacute104" unicode="&#xf3;" horiz-adv-x="388" d="M265 90 C265 75 258 68 243 68 L145 68 C130 68 123 75 123 90 L123 380 C123 395 130 402 145 402 L243 402 C258 402 265 395 265 380 L265 90 Z M333 380 C333 405 324 427 307 444 C290 461 268 470 243 470 L145 470 C120 470 99 461 82 444 C64 427 55 405 55 380 L55 90 C55 65 64 44 82 27 C99 9 120 0 145 0 L243 0 C268 0 290 9 307 27 C324 44 333 65 333 90 L333 380 Z M114 563 L149 528 L274 653 L239 688 L114 563 Z " />
<glyph glyph-name="Ocircumflex106" unicode="&#xf4;" horiz-adv-x="388" d="M265 90 C265 75 258 68 243 68 L145 68 C130 68 123 75 123 90 L123 380 C123 395 130 402 145 402 L243 402 C258 402 265 395 265 380 L265 90 Z M333 380 C333 405 324 427 307 444 C290 461 268 470 243 470 L145 470 C120 470 99 461 82 444 C64 427 55 405 55 380 L55 90 C55 65 64 44 82 27 C99 9 120 0 145 0 L243 0 C268 0 290 9 307 27 C324 44 333 65 333 90 L333 380 Z M194 684 L73 564 L109 528 L194 614 L279 528 L315 564 L194 684 Z " />
<glyph glyph-name="Otilde111" unicode="&#xf5;" horiz-adv-x="388" d="M265 90 C265 75 258 68 243 68 L145 68 C130 68 123 75 123 90 L123 380 C123 395 130 402 145 402 L243 402 C258 402 265 395 265 380 L265 90 Z M333 380 C333 405 324 427 307 444 C290 461 268 470 243 470 L145 470 C120 470 99 461 82 444 C64 427 55 405 55 380 L55 90 C55 65 64 44 82 27 C99 9 120 0 145 0 L243 0 C268 0 290 9 307 27 C324 44 333 65 333 90 L333 380 Z M91 558 L150 616 L205 562 C215 552 227 547 241 547 C255 547 266 552 275 562 L332 620 L298 655 L240 598 L185 652 C175 662 163 667 149 667 C136 667 124 662 115 652 L56 592 L91 558 Z " />
<glyph glyph-name="Odieresis107" unicode="&#xf6;" horiz-adv-x="388" d="M265 90 C265 75 258 68 243 68 L145 68 C130 68 123 75 123 90 L123 380 C123 395 130 402 145 402 L243 402 C258 402 265 395 265 380 L265 90 Z M333 380 C333 405 324 427 307 444 C290 461 268 470 243 470 L145 470 C120 470 99 461 82 444 C64 427 55 405 55 380 L55 90 C55 65 64 44 82 27 C99 9 120 0 145 0 L243 0 C268 0 290 9 307 27 C324 44 333 65 333 90 L333 380 Z M91 640 C82 631 77 621 77 608 C77 595 82 585 91 576 C100 567 110 562 123 562 C136 562 146 567 155 576 C164 585 169 595 169 608 C169 621 164 631 155 640 C146 649 136 654 123 654 C110 654 100 649 91 640 L91 640 Z M233 640 C224 631 219 621 219 608 C219 595 224 585 233 576 C242 567 252 562 265 562 C278 562 288 567 297 576 C306 585 311 595 311 608 C311 621 306 631 297 640 C288 649 278 654 265 654 C252 654 242 649 233 640 L233 640 Z " />
<glyph glyph-name="divide" unicode="&#xf7;" horiz-adv-x="460" d="M430 201 L430 268 L30 268 L30 201 L430 201 Z M192 100 C182 90 177 78 177 64 C177 50 182 38 192 29 C201 19 213 14 227 14 C241 14 253 19 263 29 C272 38 277 50 277 64 C277 78 272 90 263 100 C253 109 241 114 227 114 C213 114 201 109 192 100 L192 100 Z M192 440 C182 430 177 418 177 404 C177 390 182 378 192 369 C201 359 213 354 227 354 C241 354 253 359 263 369 C272 378 277 390 277 404 C277 418 272 430 263 440 C253 449 241 454 227 454 C213 454 201 449 192 440 L192 440 Z " />
<glyph glyph-name="Oslash112" unicode="&#xf8;" horiz-adv-x="388" d="M9 -53 L52 -53 L92 17 C107 6 125 0 145 0 L243 0 C268 0 290 9 307 27 C324 44 333 65 333 90 L333 380 C333 395 330 409 323 422 L380 523 L337 523 L297 453 C282 464 264 470 243 470 L145 470 C120 470 99 461 82 444 C64 427 55 405 55 380 L55 90 C55 75 59 60 66 47 L9 -53 Z M123 380 C123 395 130 402 145 402 L243 402 C253 402 259 399 262 392 L123 147 L123 380 Z M265 90 C265 75 258 68 243 68 L145 68 C136 68 129 71 126 77 L265 321 L265 90 Z " />
<glyph glyph-name="Ugrave154" unicode="&#xf9;" horiz-adv-x="388" d="M333 470 L265 470 L265 90 C265 75 258 68 243 68 L145 68 C130 68 123 75 123 90 L123 470 L55 470 L55 90 C55 65 64 44 82 27 C99 9 120 0 145 0 L193 0 C231 0 255 15 265 45 L265 0 L333 0 L333 470 Z M149 688 L114 653 L239 528 L274 563 L149 688 Z " />
<glyph glyph-name="Uacute150" unicode="&#xfa;" horiz-adv-x="388" d="M333 470 L265 470 L265 90 C265 75 258 68 243 68 L145 68 C130 68 123 75 123 90 L123 470 L55 470 L55 90 C55 65 64 44 82 27 C99 9 120 0 145 0 L193 0 C231 0 255 15 265 45 L265 0 L333 0 L333 470 Z M114 563 L149 528 L274 653 L239 688 L114 563 Z " />
<glyph glyph-name="Ucircumflex152" unicode="&#xfb;" horiz-adv-x="388" d="M333 470 L265 470 L265 90 C265 75 258 68 243 68 L145 68 C130 68 123 75 123 90 L123 470 L55 470 L55 90 C55 65 64 44 82 27 C99 9 120 0 145 0 L193 0 C231 0 255 15 265 45 L265 0 L333 0 L333 470 Z M194 684 L73 564 L109 528 L194 614 L279 528 L315 564 L194 684 Z " />
<glyph glyph-name="Udieresis153" unicode="&#xfc;" horiz-adv-x="388" d="M333 470 L265 470 L265 90 C265 75 258 68 243 68 L145 68 C130 68 123 75 123 90 L123 470 L55 470 L55 90 C55 65 64 44 82 27 C99 9 120 0 145 0 L193 0 C231 0 255 15 265 45 L265 0 L333 0 L333 470 Z M91 640 C82 631 77 621 77 608 C77 595 82 585 91 576 C100 567 110 562 123 562 C136 562 146 567 155 576 C164 585 169 595 169 608 C169 621 164 631 155 640 C146 649 136 654 123 654 C110 654 100 649 91 640 L91 640 Z M233 640 C224 631 219 621 219 608 C219 595 224 585 233 576 C242 567 252 562 265 562 C278 562 288 567 297 576 C306 585 311 595 311 608 C311 621 306 631 297 640 C288 649 278 654 265 654 C252 654 242 649 233 640 L233 640 Z " />
<glyph glyph-name="Yacute174" unicode="&#xfd;" horiz-adv-x="363" d="M275 470 L181 96 L87 470 L17 470 L145 0 L98 -150 L172 -150 L346 470 L275 470 Z M101 563 L136 528 L261 653 L226 688 L101 563 Z " />
<glyph glyph-name="Thorn188" unicode="&#xfe;" horiz-adv-x="378" d="M271 90 C271 75 264 68 249 68 L151 68 C136 68 129 75 129 90 L129 380 C129 395 136 402 151 402 L249 402 C264 402 271 395 271 380 L271 90 Z M339 380 C339 405 330 426 312 443 C295 461 274 470 249 470 L201 470 C163 470 139 455 129 425 L129 700 L61 700 L61 -150 L129 -150 L129 45 C140 15 164 0 201 0 L249 0 C274 0 295 9 312 27 C330 44 339 65 339 90 L339 380 Z " />
<glyph glyph-name="Ydieresis176" unicode="&#xff;" horiz-adv-x="363" d="M275 470 L181 96 L87 470 L17 470 L145 0 L98 -150 L172 -150 L346 470 L275 470 Z M78 640 C69 631 64 621 64 608 C64 595 69 585 78 576 C87 567 97 562 110 562 C123 562 133 567 142 576 C151 585 156 595 156 608 C156 621 151 631 142 640 C133 649 123 654 110 654 C97 654 87 649 78 640 L78 640 Z M220 640 C211 631 206 621 206 608 C206 595 211 585 220 576 C229 567 239 562 252 562 C265 562 275 567 284 576 C293 585 298 595 298 608 C298 621 293 631 284 640 C275 649 265 654 252 654 C239 654 229 649 220 640 L220 640 Z " />
<glyph glyph-name="Amacron" unicode="&#x100;" horiz-adv-x="425" d="M332 0 L408 0 L258 700 L167 700 L17 0 L93 0 L116 113 L309 113 L332 0 Z M212 583 L293 188 L131 188 L212 583 Z M316 861 L108 861 L108 811 L316 811 L316 861 Z " />
<glyph glyph-name="Amacron007" unicode="&#x101;" horiz-adv-x="388" d="M265 90 C265 75 258 68 243 68 L146 68 C131 68 124 75 124 90 L124 190 C124 205 131 212 146 212 L243 212 C258 212 265 205 265 190 L265 90 Z M333 380 C333 405 324 426 307 443 C290 461 268 470 243 470 L89 470 L89 402 L243 402 C258 402 265 395 265 380 L265 242 C258 267 239 280 206 280 L145 280 C119 280 98 272 81 255 C64 238 55 216 55 190 L55 90 C55 65 64 44 83 27 C101 9 122 0 147 0 L206 0 C239 0 258 13 265 38 L265 0 L333 0 L333 380 Z M298 631 L90 631 L90 581 L298 581 L298 631 Z " />
<glyph glyph-name="Abreve" unicode="&#x102;" horiz-adv-x="425" d="M332 0 L408 0 L258 700 L167 700 L17 0 L93 0 L116 113 L309 113 L332 0 Z M212 583 L293 188 L131 188 L212 583 Z M298 884 C275 861 247 850 212 850 C177 850 149 861 126 884 L92 847 C125 816 165 800 212 800 C259 800 299 816 332 847 L298 884 L298 884 Z " />
<glyph glyph-name="Abreve003" unicode="&#x103;" horiz-adv-x="388" d="M265 90 C265 75 258 68 243 68 L146 68 C131 68 124 75 124 90 L124 190 C124 205 131 212 146 212 L243 212 C258 212 265 205 265 190 L265 90 Z M333 380 C333 405 324 426 307 443 C290 461 268 470 243 470 L89 470 L89 402 L243 402 C258 402 265 395 265 380 L265 242 C258 267 239 280 206 280 L145 280 C119 280 98 272 81 255 C64 238 55 216 55 190 L55 90 C55 65 64 44 83 27 C101 9 122 0 147 0 L206 0 C239 0 258 13 265 38 L265 0 L333 0 L333 380 Z M280 654 C257 631 229 620 194 620 C159 620 131 631 108 654 L74 617 C107 586 147 570 194 570 C241 570 281 586 314 617 L280 654 L280 654 Z " />
<glyph glyph-name="Aogonek" unicode="&#x104;" horiz-adv-x="425" d="M332 0 L355 0 L311 -42 C301 -52 296 -64 296 -77 L296 -105 C296 -118 301 -130 311 -140 C321 -150 332 -155 345 -155 L408 -155 L408 -105 L346 -105 L346 -62 L408 0 L258 700 L167 700 L17 0 L93 0 L116 113 L309 113 L332 0 Z M212 583 L293 188 L131 188 L212 583 Z " />
<glyph glyph-name="Aogonek010" unicode="&#x105;" horiz-adv-x="388" d="M221 -105 C221 -118 226 -130 236 -140 C246 -150 257 -155 270 -155 L333 -155 L333 -105 L271 -105 L271 -62 L333 0 L333 380 C333 405 324 426 307 443 C290 461 268 470 243 470 L89 470 L89 402 L243 402 C258 402 265 395 265 380 L265 242 C258 267 239 280 206 280 L145 280 C119 280 98 272 81 255 C64 238 55 216 55 190 L55 90 C55 65 64 44 83 27 C101 9 122 0 147 0 L206 0 C239 0 258 13 265 38 L265 0 L280 0 L236 -42 C226 -52 221 -64 221 -77 L221 -105 Z M265 90 C265 75 258 68 243 68 L146 68 C131 68 124 75 124 90 L124 190 C124 205 131 212 146 212 L243 212 C258 212 265 205 265 190 L265 90 Z " />
<glyph glyph-name="Cacute" unicode="&#x106;" horiz-adv-x="435" d="M380 188 L305 188 L305 100 C305 83 297 75 280 75 L155 75 C138 75 130 83 130 100 L130 600 C130 617 138 625 155 625 L280 625 C297 625 305 617 305 600 L305 512 L380 512 L380 600 C380 627 370 651 351 671 C331 690 307 700 280 700 L155 700 C128 700 104 690 84 671 C65 651 55 627 55 600 L55 100 C55 73 65 49 84 29 C104 10 128 0 155 0 L280 0 C307 0 331 10 351 29 C370 49 380 73 380 100 L380 188 Z M137 793 L172 758 L297 883 L262 918 L137 793 Z " />
<glyph glyph-name="Cacute029" unicode="&#x107;" horiz-adv-x="388" d="M333 169 L265 169 L265 90 C265 75 258 68 243 68 L145 68 C130 68 123 75 123 90 L123 380 C123 395 130 402 145 402 L243 402 C258 402 265 395 265 380 L265 302 L333 302 L333 380 C333 405 324 426 307 443 C290 461 268 470 243 470 L145 470 C120 470 99 461 82 443 C64 426 55 405 55 380 L55 90 C55 65 64 44 82 27 C99 9 120 0 145 0 L243 0 C268 0 290 9 307 27 C324 44 333 65 333 90 L333 169 Z M114 563 L149 528 L274 653 L239 688 L114 563 Z " />
<glyph glyph-name="Ccircumflex" unicode="&#x108;" horiz-adv-x="435" d="M380 188 L305 188 L305 100 C305 83 297 75 280 75 L155 75 C138 75 130 83 130 100 L130 600 C130 617 138 625 155 625 L280 625 C297 625 305 617 305 600 L305 512 L380 512 L380 600 C380 627 370 651 351 671 C331 690 307 700 280 700 L155 700 C128 700 104 690 84 671 C65 651 55 627 55 600 L55 100 C55 73 65 49 84 29 C104 10 128 0 155 0 L280 0 C307 0 331 10 351 29 C370 49 380 73 380 100 L380 188 Z M217 914 L96 794 L132 758 L217 844 L302 758 L338 794 L217 914 Z " />
<glyph glyph-name="Ccircumflex032" unicode="&#x109;" horiz-adv-x="388" d="M333 169 L265 169 L265 90 C265 75 258 68 243 68 L145 68 C130 68 123 75 123 90 L123 380 C123 395 130 402 145 402 L243 402 C258 402 265 395 265 380 L265 302 L333 302 L333 380 C333 405 324 426 307 443 C290 461 268 470 243 470 L145 470 C120 470 99 461 82 443 C64 426 55 405 55 380 L55 90 C55 65 64 44 82 27 C99 9 120 0 145 0 L243 0 C268 0 290 9 307 27 C324 44 333 65 333 90 L333 169 Z M194 684 L73 564 L109 528 L194 614 L279 528 L315 564 L194 684 Z " />
<glyph glyph-name="Cdotaccent" unicode="&#x10a;" horiz-adv-x="435" d="M380 188 L305 188 L305 100 C305 83 297 75 280 75 L155 75 C138 75 130 83 130 100 L130 600 C130 617 138 625 155 625 L280 625 C297 625 305 617 305 600 L305 512 L380 512 L380 600 C380 627 370 651 351 671 C331 690 307 700 280 700 L155 700 C128 700 104 690 84 671 C65 651 55 627 55 600 L55 100 C55 73 65 49 84 29 C104 10 128 0 155 0 L280 0 C307 0 331 10 351 29 C370 49 380 73 380 100 L380 188 Z M185 870 C176 861 171 851 171 838 C171 825 176 815 185 806 C194 797 204 792 217 792 C230 792 240 797 249 806 C258 815 263 825 263 838 C263 851 258 861 249 870 C240 879 230 884 217 884 C204 884 194 879 185 870 L185 870 Z " />
<glyph glyph-name="Cdotaccent033" unicode="&#x10b;" horiz-adv-x="388" d="M333 169 L265 169 L265 90 C265 75 258 68 243 68 L145 68 C130 68 123 75 123 90 L123 380 C123 395 130 402 145 402 L243 402 C258 402 265 395 265 380 L265 302 L333 302 L333 380 C333 405 324 426 307 443 C290 461 268 470 243 470 L145 470 C120 470 99 461 82 443 C64 426 55 405 55 380 L55 90 C55 65 64 44 82 27 C99 9 120 0 145 0 L243 0 C268 0 290 9 307 27 C324 44 333 65 333 90 L333 169 Z M162 640 C153 631 148 621 148 608 C148 595 153 585 162 576 C171 567 181 562 194 562 C207 562 217 567 226 576 C235 585 240 595 240 608 C240 621 235 631 226 640 C217 649 207 654 194 654 C181 654 171 649 162 640 L162 640 Z " />
<glyph glyph-name="Ccaron" unicode="&#x10c;" horiz-adv-x="435" d="M380 188 L305 188 L305 100 C305 83 297 75 280 75 L155 75 C138 75 130 83 130 100 L130 600 C130 617 138 625 155 625 L280 625 C297 625 305 617 305 600 L305 512 L380 512 L380 600 C380 627 370 651 351 671 C331 690 307 700 280 700 L155 700 C128 700 104 690 84 671 C65 651 55 627 55 600 L55 100 C55 73 65 49 84 29 C104 10 128 0 155 0 L280 0 C307 0 331 10 351 29 C370 49 380 73 380 100 L380 188 Z M217 758 L338 878 L302 914 L217 828 L132 914 L96 878 L217 758 Z " />
<glyph glyph-name="Ccaron030" unicode="&#x10d;" horiz-adv-x="388" d="M333 169 L265 169 L265 90 C265 75 258 68 243 68 L145 68 C130 68 123 75 123 90 L123 380 C123 395 130 402 145 402 L243 402 C258 402 265 395 265 380 L265 302 L333 302 L333 380 C333 405 324 426 307 443 C290 461 268 470 243 470 L145 470 C120 470 99 461 82 443 C64 426 55 405 55 380 L55 90 C55 65 64 44 82 27 C99 9 120 0 145 0 L243 0 C268 0 290 9 307 27 C324 44 333 65 333 90 L333 169 Z M194 528 L315 648 L279 684 L194 598 L109 684 L73 648 L194 528 Z " />
<glyph glyph-name="Dcaron" unicode="&#x10e;" horiz-adv-x="435" d="M305 100 C305 83 297 75 280 75 L130 75 L130 625 L280 625 C297 625 305 617 305 600 L305 100 Z M380 600 C380 627 370 651 351 671 C331 690 307 700 280 700 L55 700 L55 0 L280 0 C307 0 331 10 351 29 C370 49 380 73 380 100 L380 600 Z M217 758 L338 878 L302 914 L217 828 L132 914 L96 878 L217 758 Z " />
<glyph glyph-name="Dcaron041" unicode="&#x10f;" horiz-adv-x="430" d="M265 90 C265 75 258 68 243 68 L145 68 C130 68 123 75 123 90 L123 380 C123 395 130 402 145 402 L243 402 C258 402 265 395 265 380 L265 90 Z M333 700 L265 700 L265 425 C256 455 232 470 193 470 L145 470 C120 470 99 461 82 443 C64 426 55 405 55 380 L55 90 C55 65 64 44 82 27 C99 9 120 0 145 0 L193 0 C231 0 255 15 265 45 L265 0 L333 0 L333 700 Z M453 640 C456 647 457 653 457 660 C457 674 452 686 443 696 C433 705 421 710 407 710 C393 710 381 705 372 696 C362 686 357 674 357 660 C357 647 361 636 369 627 C376 619 384 614 393 613 L362 520 L397 520 L453 640 L453 640 Z " />
<glyph glyph-name="Dcroat" unicode="&#x110;" horiz-adv-x="435" d="M380 600 C380 627 370 651 351 671 C331 690 307 700 280 700 L55 700 L55 395 L-10 395 L-10 345 L55 345 L55 0 L280 0 C307 0 331 10 351 29 C370 49 380 73 380 100 L380 600 Z M198 395 L130 395 L130 625 L280 625 C297 625 305 617 305 600 L305 100 C305 83 297 75 280 75 L130 75 L130 345 L198 345 L198 395 Z " />
<glyph glyph-name="Dcroat042" unicode="&#x111;" horiz-adv-x="388" d="M403 608 L333 608 L333 700 L265 700 L265 608 L195 608 L195 558 L265 558 L265 425 C256 455 232 470 193 470 L145 470 C120 470 99 461 82 443 C64 426 55 405 55 380 L55 90 C55 65 64 44 82 27 C99 9 120 0 145 0 L193 0 C231 0 255 15 265 45 L265 0 L333 0 L333 558 L403 558 L403 608 Z M265 90 C265 75 258 68 243 68 L145 68 C130 68 123 75 123 90 L123 380 C123 395 130 402 145 402 L243 402 C258 402 265 395 265 380 L265 90 Z " />
<glyph glyph-name="Emacron" unicode="&#x112;" horiz-adv-x="360" d="M330 75 L130 75 L130 333 L280 333 L280 408 L130 408 L130 625 L330 625 L330 700 L55 700 L55 0 L330 0 L330 75 Z M296 861 L88 861 L88 811 L296 811 L296 861 Z " />
<glyph glyph-name="Emacron051" unicode="&#x113;" horiz-adv-x="388" d="M123 259 L123 380 C123 395 130 402 145 402 L243 402 C258 402 265 395 265 380 L265 259 L123 259 Z M333 380 C333 405 324 426 307 443 C290 461 268 470 243 470 L145 470 C120 470 99 461 82 443 C64 426 55 405 55 380 L55 90 C55 65 64 44 82 27 C99 9 120 0 145 0 L300 0 L300 68 L145 68 C130 68 123 75 123 90 L123 192 L333 192 L333 380 Z M298 631 L90 631 L90 581 L298 581 L298 631 Z " />
<glyph glyph-name="Ebreve" unicode="&#x114;" horiz-adv-x="360" d="M330 75 L130 75 L130 333 L280 333 L280 408 L130 408 L130 625 L330 625 L330 700 L55 700 L55 0 L330 0 L330 75 Z M278 884 C255 861 227 850 192 850 C157 850 129 861 106 884 L72 847 C105 816 145 800 192 800 C239 800 279 816 312 847 L278 884 L278 884 Z " />
<glyph glyph-name="Ebreve045" unicode="&#x115;" horiz-adv-x="388" d="M123 259 L123 380 C123 395 130 402 145 402 L243 402 C258 402 265 395 265 380 L265 259 L123 259 Z M333 380 C333 405 324 426 307 443 C290 461 268 470 243 470 L145 470 C120 470 99 461 82 443 C64 426 55 405 55 380 L55 90 C55 65 64 44 82 27 C99 9 120 0 145 0 L300 0 L300 68 L145 68 C130 68 123 75 123 90 L123 192 L333 192 L333 380 Z M280 654 C257 631 229 620 194 620 C159 620 131 631 108 654 L74 617 C107 586 147 570 194 570 C241 570 281 586 314 617 L280 654 L280 654 Z " />
<glyph glyph-name="Edotaccent" unicode="&#x116;" horiz-adv-x="360" d="M330 75 L130 75 L130 333 L280 333 L280 408 L130 408 L130 625 L330 625 L330 700 L55 700 L55 0 L330 0 L330 75 Z M160 870 C151 861 146 851 146 838 C146 825 151 815 160 806 C169 797 179 792 192 792 C205 792 215 797 224 806 C233 815 238 825 238 838 C238 851 233 861 224 870 C215 879 205 884 192 884 C179 884 169 879 160 870 L160 870 Z " />
<glyph glyph-name="Edotaccent049" unicode="&#x117;" horiz-adv-x="388" d="M123 259 L123 380 C123 395 130 402 145 402 L243 402 C258 402 265 395 265 380 L265 259 L123 259 Z M333 380 C333 405 324 426 307 443 C290 461 268 470 243 470 L145 470 C120 470 99 461 82 443 C64 426 55 405 55 380 L55 90 C55 65 64 44 82 27 C99 9 120 0 145 0 L300 0 L300 68 L145 68 C130 68 123 75 123 90 L123 192 L333 192 L333 380 Z M162 640 C153 631 148 621 148 608 C148 595 153 585 162 576 C171 567 181 562 194 562 C207 562 217 567 226 576 C235 585 240 595 240 608 C240 621 235 631 226 640 C217 649 207 654 194 654 C181 654 171 649 162 640 L162 640 Z " />
<glyph glyph-name="Eogonek" unicode="&#x118;" horiz-adv-x="360" d="M218 -105 C218 -118 223 -130 233 -140 C243 -150 254 -155 267 -155 L330 -155 L330 -105 L268 -105 L268 -62 L330 0 L330 75 L130 75 L130 333 L280 333 L280 408 L130 408 L130 625 L330 625 L330 700 L55 700 L55 0 L277 0 L233 -42 C223 -52 218 -64 218 -77 L218 -105 Z " />
<glyph glyph-name="Eogonek052" unicode="&#x119;" horiz-adv-x="388" d="M188 -105 C188 -118 193 -130 203 -140 C213 -150 224 -155 237 -155 L300 -155 L300 -105 L238 -105 L238 -62 L300 0 L300 68 L145 68 C130 68 123 75 123 90 L123 192 L333 192 L333 380 C333 405 324 426 307 443 C290 461 268 470 243 470 L145 470 C120 470 99 461 82 443 C64 426 55 405 55 380 L55 90 C55 65 64 44 82 27 C99 9 120 0 145 0 L247 0 L203 -42 C193 -52 188 -64 188 -77 L188 -105 Z M123 259 L123 380 C123 395 130 402 145 402 L243 402 C258 402 265 395 265 380 L265 259 L123 259 Z " />
<glyph glyph-name="Ecaron" unicode="&#x11a;" horiz-adv-x="360" d="M330 75 L130 75 L130 333 L280 333 L280 408 L130 408 L130 625 L330 625 L330 700 L55 700 L55 0 L330 0 L330 75 Z M192 758 L313 878 L277 914 L192 828 L107 914 L71 878 L192 758 Z " />
<glyph glyph-name="Ecaron046" unicode="&#x11b;" horiz-adv-x="388" d="M123 259 L123 380 C123 395 130 402 145 402 L243 402 C258 402 265 395 265 380 L265 259 L123 259 Z M333 380 C333 405 324 426 307 443 C290 461 268 470 243 470 L145 470 C120 470 99 461 82 443 C64 426 55 405 55 380 L55 90 C55 65 64 44 82 27 C99 9 120 0 145 0 L300 0 L300 68 L145 68 C130 68 123 75 123 90 L123 192 L333 192 L333 380 Z M194 528 L315 648 L279 684 L194 598 L109 684 L73 648 L194 528 Z " />
<glyph glyph-name="Gcircumflex" unicode="&#x11c;" horiz-adv-x="435" d="M380 358 L217 358 L217 283 L305 283 L305 100 C305 83 297 75 280 75 L155 75 C138 75 130 83 130 100 L130 600 C130 617 138 625 155 625 L280 625 C297 625 305 617 305 600 L305 500 L380 500 L380 600 C380 627 370 651 351 671 C331 690 307 700 280 700 L155 700 C128 700 104 690 84 671 C65 651 55 627 55 600 L55 100 C55 73 65 49 84 29 C104 10 128 0 155 0 L280 0 C307 0 331 10 351 29 C370 49 380 73 380 100 L380 358 Z M217 914 L96 794 L132 758 L217 844 L302 758 L338 794 L217 914 Z " />
<glyph glyph-name="Gcircumflex065" unicode="&#x11d;" horiz-adv-x="388" d="M265 90 C265 75 258 68 243 68 L145 68 C130 68 123 75 123 90 L123 380 C123 395 130 402 145 402 L243 402 C258 402 265 395 265 380 L265 90 Z M333 470 L265 470 L265 425 C256 455 232 470 193 470 L145 470 C120 470 99 461 82 443 C64 426 55 405 55 380 L55 90 C55 65 64 44 82 27 C99 9 120 0 145 0 L193 0 C231 0 255 15 265 45 L265 -60 C265 -75 258 -82 243 -82 L111 -82 L111 -150 L243 -150 C268 -150 289 -141 306 -123 C324 -105 333 -84 333 -60 L333 470 Z M194 684 L73 564 L109 528 L194 614 L279 528 L315 564 L194 684 Z " />
<glyph glyph-name="Gbreve" unicode="&#x11e;" horiz-adv-x="435" d="M380 358 L217 358 L217 283 L305 283 L305 100 C305 83 297 75 280 75 L155 75 C138 75 130 83 130 100 L130 600 C130 617 138 625 155 625 L280 625 C297 625 305 617 305 600 L305 500 L380 500 L380 600 C380 627 370 651 351 671 C331 690 307 700 280 700 L155 700 C128 700 104 690 84 671 C65 651 55 627 55 600 L55 100 C55 73 65 49 84 29 C104 10 128 0 155 0 L280 0 C307 0 331 10 351 29 C370 49 380 73 380 100 L380 358 Z M303 884 C280 861 252 850 217 850 C182 850 154 861 131 884 L97 847 C130 816 170 800 217 800 C264 800 304 816 337 847 L303 884 L303 884 Z " />
<glyph glyph-name="Gbreve064" unicode="&#x11f;" horiz-adv-x="388" d="M265 90 C265 75 258 68 243 68 L145 68 C130 68 123 75 123 90 L123 380 C123 395 130 402 145 402 L243 402 C258 402 265 395 265 380 L265 90 Z M333 470 L265 470 L265 425 C256 455 232 470 193 470 L145 470 C120 470 99 461 82 443 C64 426 55 405 55 380 L55 90 C55 65 64 44 82 27 C99 9 120 0 145 0 L193 0 C231 0 255 15 265 45 L265 -60 C265 -75 258 -82 243 -82 L111 -82 L111 -150 L243 -150 C268 -150 289 -141 306 -123 C324 -105 333 -84 333 -60 L333 470 Z M280 654 C257 631 229 620 194 620 C159 620 131 631 108 654 L74 617 C107 586 147 570 194 570 C241 570 281 586 314 617 L280 654 L280 654 Z " />
<glyph glyph-name="Gdotaccent" unicode="&#x120;" horiz-adv-x="435" d="M380 358 L217 358 L217 283 L305 283 L305 100 C305 83 297 75 280 75 L155 75 C138 75 130 83 130 100 L130 600 C130 617 138 625 155 625 L280 625 C297 625 305 617 305 600 L305 500 L380 500 L380 600 C380 627 370 651 351 671 C331 690 307 700 280 700 L155 700 C128 700 104 690 84 671 C65 651 55 627 55 600 L55 100 C55 73 65 49 84 29 C104 10 128 0 155 0 L280 0 C307 0 331 10 351 29 C370 49 380 73 380 100 L380 358 Z M185 870 C176 861 171 851 171 838 C171 825 176 815 185 806 C194 797 204 792 217 792 C230 792 240 797 249 806 C258 815 263 825 263 838 C263 851 258 861 249 870 C240 879 230 884 217 884 C204 884 194 879 185 870 L185 870 Z " />
<glyph glyph-name="Gdotaccent067" unicode="&#x121;" horiz-adv-x="388" d="M265 90 C265 75 258 68 243 68 L145 68 C130 68 123 75 123 90 L123 380 C123 395 130 402 145 402 L243 402 C258 402 265 395 265 380 L265 90 Z M333 470 L265 470 L265 425 C256 455 232 470 193 470 L145 470 C120 470 99 461 82 443 C64 426 55 405 55 380 L55 90 C55 65 64 44 82 27 C99 9 120 0 145 0 L193 0 C231 0 255 15 265 45 L265 -60 C265 -75 258 -82 243 -82 L111 -82 L111 -150 L243 -150 C268 -150 289 -141 306 -123 C324 -105 333 -84 333 -60 L333 470 Z M162 640 C153 631 148 621 148 608 C148 595 153 585 162 576 C171 567 181 562 194 562 C207 562 217 567 226 576 C235 585 240 595 240 608 C240 621 235 631 226 640 C217 649 207 654 194 654 C181 654 171 649 162 640 L162 640 Z " />
<glyph glyph-name="Gcommaaccent" unicode="&#x122;" horiz-adv-x="435" d="M380 358 L217 358 L217 283 L305 283 L305 100 C305 83 297 75 280 75 L155 75 C138 75 130 83 130 100 L130 600 C130 617 138 625 155 625 L280 625 C297 625 305 617 305 600 L305 500 L380 500 L380 600 C380 627 370 651 351 671 C331 690 307 700 280 700 L155 700 C128 700 104 690 84 671 C65 651 55 627 55 600 L55 100 C55 73 65 49 84 29 C104 10 128 0 155 0 L280 0 C307 0 331 10 351 29 C370 49 380 73 380 100 L380 358 Z M263 -95 C266 -88 267 -82 267 -75 C267 -61 262 -49 253 -39 C243 -30 231 -25 217 -25 C203 -25 191 -30 182 -39 C172 -49 167 -61 167 -75 C167 -88 171 -99 179 -108 C186 -116 194 -121 203 -122 L177 -200 L214 -200 L263 -95 L263 -95 Z " />
<glyph glyph-name="Gcommaaccent066" unicode="&#x123;" horiz-adv-x="388" d="M265 90 C265 75 258 68 243 68 L145 68 C130 68 123 75 123 90 L123 380 C123 395 130 402 145 402 L243 402 C258 402 265 395 265 380 L265 90 Z M333 470 L265 470 L265 425 C256 455 232 470 193 470 L145 470 C120 470 99 461 82 443 C64 426 55 405 55 380 L55 90 C55 65 64 44 82 27 C99 9 120 0 145 0 L193 0 C231 0 255 15 265 45 L265 -60 C265 -75 258 -82 243 -82 L111 -82 L111 -150 L243 -150 C268 -150 289 -141 306 -123 C324 -105 333 -84 333 -60 L333 470 Z M150 595 C147 588 146 582 146 575 C146 561 151 549 161 540 C170 530 182 525 196 525 C210 525 222 530 232 540 C241 549 246 561 246 575 C246 588 242 599 234 608 C227 616 219 621 210 622 L236 700 L199 700 L150 595 L150 595 Z " />
<glyph glyph-name="Hcircumflex" unicode="&#x124;" horiz-adv-x="435" d="M380 700 L305 700 L305 408 L130 408 L130 700 L55 700 L55 0 L130 0 L130 333 L305 333 L305 0 L380 0 L380 700 Z M217 914 L96 794 L132 758 L217 844 L302 758 L338 794 L217 914 Z " />
<glyph glyph-name="Hcircumflex070" unicode="&#x125;" horiz-adv-x="388" d="M333 380 C333 405 324 427 307 444 C290 461 268 470 243 470 L195 470 C157 470 133 455 123 425 L123 700 L55 700 L55 0 L123 0 L123 380 C123 395 130 402 145 402 L243 402 C258 402 265 395 265 380 L265 0 L333 0 L333 380 Z M194 915 L73 795 L109 759 L194 845 L279 759 L315 795 L194 915 Z " />
<glyph glyph-name="Hbar" unicode="&#x126;" horiz-adv-x="435" d="M425 579 L380 579 L380 700 L305 700 L305 579 L130 579 L130 700 L55 700 L55 579 L9 579 L9 529 L55 529 L55 0 L130 0 L130 333 L305 333 L305 0 L380 0 L380 529 L425 529 L425 579 Z M130 408 L130 529 L305 529 L305 408 L130 408 Z " />
<glyph glyph-name="Hbar069" unicode="&#x127;" horiz-adv-x="388" d="M193 608 L123 608 L123 700 L55 700 L55 608 L-15 608 L-15 558 L55 558 L55 0 L123 0 L123 380 C123 395 130 402 145 402 L243 402 C258 402 265 395 265 380 L265 0 L333 0 L333 380 C333 405 324 427 307 444 C290 461 268 470 243 470 L195 470 C157 470 133 455 123 425 L123 558 L193 558 L193 608 Z " />
<glyph glyph-name="Itilde" unicode="&#x128;" horiz-adv-x="185" d="M130 700 L55 700 L55 0 L130 0 L130 700 Z M-11 788 L48 846 L103 792 C113 782 125 777 139 777 C153 777 164 782 173 792 L230 850 L196 885 L138 828 L83 882 C73 892 61 897 47 897 C34 897 22 892 13 882 L-46 822 L-11 788 Z " />
<glyph glyph-name="Itilde078" unicode="&#x129;" horiz-adv-x="178" d="M123 470 L55 470 L55 0 L123 0 L123 470 Z M-14 558 L45 616 L100 562 C110 552 122 547 136 547 C150 547 161 552 170 562 L227 620 L193 655 L135 598 L80 652 C70 662 58 667 44 667 C31 667 19 662 10 652 L-49 592 L-14 558 Z " />
<glyph glyph-name="Imacron" unicode="&#x12a;" horiz-adv-x="185" d="M130 700 L55 700 L55 0 L130 0 L130 700 Z M196 861 L-12 861 L-12 811 L196 811 L196 861 Z " />
<glyph glyph-name="Imacron077" unicode="&#x12b;" horiz-adv-x="178" d="M123 470 L55 470 L55 0 L123 0 L123 470 Z M193 631 L-15 631 L-15 581 L193 581 L193 631 Z " />
<glyph glyph-name="Ibreve" unicode="&#x12c;" horiz-adv-x="185" d="M130 700 L55 700 L55 0 L130 0 L130 700 Z M178 884 C155 861 127 850 92 850 C57 850 29 861 6 884 L-28 847 C5 816 45 800 92 800 C139 800 179 816 212 847 L178 884 L178 884 Z " />
<glyph glyph-name="Ibreve073" unicode="&#x12d;" horiz-adv-x="178" d="M123 470 L55 470 L55 0 L123 0 L123 470 Z M175 654 C152 631 124 620 89 620 C54 620 26 631 3 654 L-31 617 C2 586 42 570 89 570 C136 570 176 586 209 617 L175 654 L175 654 Z " />
<glyph glyph-name="Iogonek" unicode="&#x12e;" horiz-adv-x="185" d="M18 -105 C18 -118 23 -130 33 -140 C43 -150 54 -155 67 -155 L130 -155 L130 -105 L68 -105 L68 -62 L130 0 L130 700 L55 700 L55 0 L77 0 L33 -42 C23 -52 18 -64 18 -77 L18 -105 Z " />
<glyph glyph-name="Iogonek079" unicode="&#x12f;" horiz-adv-x="178" d="M11 -105 C11 -118 16 -130 26 -140 C36 -150 47 -155 60 -155 L123 -155 L123 -105 L61 -105 L61 -62 L123 0 L123 470 L55 470 L55 0 L70 0 L26 -42 C16 -52 11 -64 11 -77 L11 -105 Z M58 640 C49 631 44 621 44 608 C44 595 49 585 58 576 C67 567 77 562 90 562 C103 562 113 567 122 576 C131 585 136 595 136 608 C136 621 131 631 122 640 C113 649 103 654 90 654 C77 654 67 649 58 640 L58 640 Z " />
<glyph glyph-name="Idotaccent" unicode="&#x130;" horiz-adv-x="185" d="M130 700 L55 700 L55 0 L130 0 L130 700 Z M60 870 C51 861 46 851 46 838 C46 825 51 815 60 806 C69 797 79 792 92 792 C105 792 115 797 124 806 C133 815 138 825 138 838 C138 851 133 861 124 870 C115 879 105 884 92 884 C79 884 69 879 60 870 L60 870 Z " />
<glyph glyph-name="dotlessi" unicode="&#x131;" horiz-adv-x="178" d="M123 470 L55 470 L55 0 L123 0 L123 470 Z " />
<glyph glyph-name="IJ" unicode="&#x132;" horiz-adv-x="571" d="M130 700 L55 700 L55 0 L130 0 L130 700 Z M516 700 L441 700 L441 100 C441 83 433 75 416 75 L316 75 C299 75 291 83 291 100 L291 200 L216 200 L216 100 C216 73 226 49 245 29 C265 10 289 0 316 0 L416 0 C443 0 467 10 487 29 C506 49 516 73 516 100 L516 700 Z " />
<glyph glyph-name="IJ080" unicode="&#x133;" horiz-adv-x="356" d="M123 470 L55 470 L55 0 L123 0 L123 470 Z M58 640 C49 631 44 621 44 608 C44 595 49 585 58 576 C67 567 77 562 90 562 C103 562 113 567 122 576 C131 585 136 595 136 608 C136 621 131 631 122 640 C113 649 103 654 90 654 C77 654 67 649 58 640 L58 640 Z M301 470 L233 470 L233 -60 C233 -75 226 -82 211 -82 L143 -82 L143 -150 L211 -150 C236 -150 257 -141 274 -123 C292 -105 301 -84 301 -60 L301 470 Z M236 640 C227 631 222 621 222 608 C222 595 227 585 236 576 C245 567 255 562 268 562 C281 562 291 567 300 576 C309 585 314 595 314 608 C314 621 309 631 300 640 C291 649 281 654 268 654 C255 654 245 649 236 640 L236 640 Z " />
<glyph glyph-name="Jcircumflex" unicode="&#x134;" horiz-adv-x="386" d="M331 700 L256 700 L256 100 C256 83 248 75 231 75 L131 75 C114 75 106 83 106 100 L106 200 L31 200 L31 100 C31 73 41 49 60 29 C80 10 104 0 131 0 L231 0 C258 0 282 10 302 29 C321 49 331 73 331 100 L331 700 Z M295 914 L174 794 L210 758 L295 844 L380 758 L416 794 L295 914 Z " />
<glyph glyph-name="Jcircumflex083" unicode="&#x135;" horiz-adv-x="178" d="M123 470 L55 470 L55 -60 C55 -75 48 -82 33 -82 L-35 -82 L-35 -150 L33 -150 C58 -150 79 -141 96 -123 C114 -105 123 -84 123 -60 L123 470 Z M89 684 L-32 564 L4 528 L89 614 L174 528 L210 564 L89 684 Z " />
<glyph glyph-name="Kcommaaccent" unicode="&#x136;" horiz-adv-x="437" d="M420 700 L337 700 L130 291 L130 700 L55 700 L55 0 L130 0 L130 150 L209 299 L345 0 L431 0 L251 379 L420 700 Z M289 -95 C292 -88 293 -82 293 -75 C293 -61 288 -49 279 -39 C269 -30 257 -25 243 -25 C229 -25 217 -30 208 -39 C198 -49 193 -61 193 -75 C193 -88 197 -99 205 -108 C212 -116 220 -121 229 -122 L203 -200 L240 -200 L289 -95 L289 -95 Z " />
<glyph glyph-name="Kcommaaccent087" unicode="&#x137;" horiz-adv-x="348" d="M339 470 L265 470 L123 214 L123 700 L55 700 L55 0 L123 0 L123 99 L187 209 L265 0 L343 0 L227 279 L339 470 Z M245 -95 C248 -88 249 -82 249 -75 C249 -61 244 -49 235 -39 C225 -30 213 -25 199 -25 C185 -25 173 -30 164 -39 C154 -49 149 -61 149 -75 C149 -88 153 -99 161 -108 C168 -116 176 -121 185 -122 L159 -200 L196 -200 L245 -95 L245 -95 Z " />
<glyph glyph-name="kgreenlandic" unicode="&#x138;" horiz-adv-x="348" d="M339 470 L265 470 L123 214 L123 470 L55 470 L55 0 L123 0 L123 99 L187 209 L265 0 L343 0 L227 279 L339 470 Z " />
<glyph glyph-name="Lacute" unicode="&#x139;" horiz-adv-x="360" d="M330 75 L130 75 L130 700 L55 700 L55 0 L330 0 L330 75 Z M112 793 L147 758 L272 883 L237 918 L112 793 Z " />
<glyph glyph-name="Lacute092" unicode="&#x13a;" horiz-adv-x="178" d="M123 700 L55 700 L55 0 L123 0 L123 700 Z M9 793 L44 758 L169 883 L134 918 L9 793 Z " />
<glyph glyph-name="Lcommaaccent" unicode="&#x13b;" horiz-adv-x="360" d="M330 75 L130 75 L130 700 L55 700 L55 0 L330 0 L330 75 Z M238 -95 C241 -88 242 -82 242 -75 C242 -61 237 -49 228 -39 C218 -30 206 -25 192 -25 C178 -25 166 -30 157 -39 C147 -49 142 -61 142 -75 C142 -88 146 -99 154 -108 C161 -116 169 -121 178 -122 L152 -200 L189 -200 L238 -95 L238 -95 Z " />
<glyph glyph-name="Lcommaaccent094" unicode="&#x13c;" horiz-adv-x="178" d="M123 700 L55 700 L55 0 L123 0 L123 700 Z M135 -95 C138 -88 139 -82 139 -75 C139 -61 134 -49 125 -39 C115 -30 103 -25 89 -25 C75 -25 63 -30 54 -39 C44 -49 39 -61 39 -75 C39 -88 43 -99 51 -108 C58 -116 66 -121 75 -122 L49 -200 L86 -200 L135 -95 L135 -95 Z " />
<glyph glyph-name="Lcaron" unicode="&#x13d;" horiz-adv-x="360" d="M330 75 L130 75 L130 700 L55 700 L55 0 L330 0 L330 75 Z M291 640 C294 647 295 653 295 660 C295 674 290 686 281 696 C271 705 259 710 245 710 C231 710 219 705 210 696 C200 686 195 674 195 660 C195 647 199 636 207 627 C214 619 222 614 231 613 L200 520 L235 520 L291 640 L291 640 Z " />
<glyph glyph-name="Lcaron093" unicode="&#x13e;" horiz-adv-x="219" d="M123 700 L55 700 L55 0 L123 0 L123 700 Z M243 640 C246 647 247 653 247 660 C247 674 242 686 233 696 C223 705 211 710 197 710 C183 710 171 705 162 696 C152 686 147 674 147 660 C147 647 151 636 159 627 C166 619 174 614 183 613 L152 520 L187 520 L243 640 L243 640 Z " />
<glyph glyph-name="Ldot" unicode="&#x13f;" horiz-adv-x="360" d="M330 75 L130 75 L130 700 L55 700 L55 0 L330 0 L330 75 Z M241 385 C231 375 226 363 226 349 C226 335 231 323 241 314 C250 304 262 299 276 299 C290 299 302 304 312 314 C321 323 326 335 326 349 C326 363 321 375 312 385 C302 394 290 399 276 399 C262 399 250 394 241 385 L241 385 Z " />
<glyph glyph-name="Ldot095" unicode="&#x140;" horiz-adv-x="252" d="M123 700 L55 700 L55 0 L123 0 L123 700 Z M180 271 C170 261 165 249 165 235 C165 221 170 209 180 200 C189 190 201 185 215 185 C229 185 241 190 251 200 C260 209 265 221 265 235 C265 249 260 261 251 271 C241 280 229 285 215 285 C201 285 189 280 180 271 L180 271 Z " />
<glyph glyph-name="Lslash" unicode="&#x141;" horiz-adv-x="360" d="M330 75 L130 75 L130 343 L196 381 L196 439 L130 401 L130 700 L55 700 L55 357 L-12 319 L-12 261 L55 299 L55 0 L330 0 L330 75 Z " />
<glyph glyph-name="Lslash091" unicode="&#x142;" horiz-adv-x="178" d="M193 439 L123 398 L123 700 L55 700 L55 359 L-15 319 L-15 261 L55 301 L55 0 L123 0 L123 340 L193 381 L193 439 Z " />
<glyph glyph-name="Nacute" unicode="&#x143;" horiz-adv-x="435" d="M380 700 L305 700 L305 228 L138 700 L55 700 L55 0 L130 0 L130 518 L317 0 L380 0 L380 700 Z M137 793 L172 758 L297 883 L262 918 L137 793 Z " />
<glyph glyph-name="Nacute098" unicode="&#x144;" horiz-adv-x="388" d="M333 380 C333 405 324 427 307 444 C290 461 268 470 243 470 L195 470 C157 470 133 455 123 425 L123 470 L55 470 L55 0 L123 0 L123 380 C123 395 130 402 145 402 L243 402 C258 402 265 395 265 380 L265 0 L333 0 L333 380 Z M114 563 L149 528 L274 653 L239 688 L114 563 Z " />
<glyph glyph-name="Ncommaaccent" unicode="&#x145;" horiz-adv-x="435" d="M380 700 L305 700 L305 228 L138 700 L55 700 L55 0 L130 0 L130 518 L317 0 L380 0 L380 700 Z M263 -95 C266 -88 267 -82 267 -75 C267 -61 262 -49 253 -39 C243 -30 231 -25 217 -25 C203 -25 191 -30 182 -39 C172 -49 167 -61 167 -75 C167 -88 171 -99 179 -108 C186 -116 194 -121 203 -122 L177 -200 L214 -200 L263 -95 L263 -95 Z " />
<glyph glyph-name="Ncommaaccent100" unicode="&#x146;" horiz-adv-x="388" d="M333 380 C333 405 324 427 307 444 C290 461 268 470 243 470 L195 470 C157 470 133 455 123 425 L123 470 L55 470 L55 0 L123 0 L123 380 C123 395 130 402 145 402 L243 402 C258 402 265 395 265 380 L265 0 L333 0 L333 380 Z M240 -95 C243 -88 244 -82 244 -75 C244 -61 239 -49 230 -39 C220 -30 208 -25 194 -25 C180 -25 168 -30 159 -39 C149 -49 144 -61 144 -75 C144 -88 148 -99 156 -108 C163 -116 171 -121 180 -122 L154 -200 L191 -200 L240 -95 L240 -95 Z " />
<glyph glyph-name="Ncaron" unicode="&#x147;" horiz-adv-x="435" d="M380 700 L305 700 L305 228 L138 700 L55 700 L55 0 L130 0 L130 518 L317 0 L380 0 L380 700 Z M217 758 L338 878 L302 914 L217 828 L132 914 L96 878 L217 758 Z " />
<glyph glyph-name="Ncaron099" unicode="&#x148;" horiz-adv-x="388" d="M333 380 C333 405 324 427 307 444 C290 461 268 470 243 470 L195 470 C157 470 133 455 123 425 L123 470 L55 470 L55 0 L123 0 L123 380 C123 395 130 402 145 402 L243 402 C258 402 265 395 265 380 L265 0 L333 0 L333 380 Z M194 528 L315 648 L279 684 L194 598 L109 684 L73 648 L194 528 Z " />
<glyph glyph-name="napostrophe" unicode="&#x149;" horiz-adv-x="388" d="M333 380 C333 405 324 427 307 444 C290 461 268 470 243 470 L195 470 C157 470 133 455 123 425 L123 470 L55 470 L55 0 L123 0 L123 380 C123 395 130 402 145 402 L243 402 C258 402 265 395 265 380 L265 0 L333 0 L333 380 Z M139 640 C142 647 143 653 143 660 C143 674 138 686 129 696 C119 705 107 710 93 710 C79 710 67 705 58 696 C48 686 43 674 43 660 C43 647 47 636 55 627 C62 619 70 614 79 613 L48 520 L83 520 L139 640 L139 640 Z " />
<glyph glyph-name="Eng" unicode="&#x14a;" horiz-adv-x="435" d="M380 700 L305 700 L305 228 L138 700 L55 700 L55 0 L130 0 L130 518 L305 33 L305 -50 C305 -67 297 -75 280 -75 L155 -75 L155 -150 L280 -150 C307 -150 331 -140 351 -121 C370 -101 380 -77 380 -50 L380 700 Z " />
<glyph glyph-name="Eng101" unicode="&#x14b;" horiz-adv-x="388" d="M265 -60 C265 -75 258 -82 243 -82 L175 -82 L175 -150 L243 -150 C268 -150 289 -141 306 -123 C324 -105 333 -84 333 -60 L333 380 C333 405 324 427 307 444 C290 461 268 470 243 470 L195 470 C157 470 133 455 123 425 L123 470 L55 470 L55 0 L123 0 L123 380 C123 395 130 402 145 402 L243 402 C258 402 265 395 265 380 L265 -60 Z " />
<glyph glyph-name="Omacron" unicode="&#x14c;" horiz-adv-x="435" d="M305 100 C305 83 297 75 280 75 L155 75 C138 75 130 83 130 100 L130 600 C130 617 138 625 155 625 L280 625 C297 625 305 617 305 600 L305 100 Z M380 600 C380 627 370 651 351 671 C331 690 307 700 280 700 L155 700 C128 700 104 690 84 671 C65 651 55 627 55 600 L55 100 C55 73 65 49 84 29 C104 10 128 0 155 0 L280 0 C307 0 331 10 351 29 C370 49 380 73 380 100 L380 600 Z M321 861 L113 861 L113 811 L321 811 L321 861 Z " />
<glyph glyph-name="Omacron110" unicode="&#x14d;" horiz-adv-x="388" d="M265 90 C265 75 258 68 243 68 L145 68 C130 68 123 75 123 90 L123 380 C123 395 130 402 145 402 L243 402 C258 402 265 395 265 380 L265 90 Z M333 380 C333 405 324 427 307 444 C290 461 268 470 243 470 L145 470 C120 470 99 461 82 444 C64 427 55 405 55 380 L55 90 C55 65 64 44 82 27 C99 9 120 0 145 0 L243 0 C268 0 290 9 307 27 C324 44 333 65 333 90 L333 380 Z M298 631 L90 631 L90 581 L298 581 L298 631 Z " />
<glyph glyph-name="Obreve" unicode="&#x14e;" horiz-adv-x="435" d="M305 100 C305 83 297 75 280 75 L155 75 C138 75 130 83 130 100 L130 600 C130 617 138 625 155 625 L280 625 C297 625 305 617 305 600 L305 100 Z M380 600 C380 627 370 651 351 671 C331 690 307 700 280 700 L155 700 C128 700 104 690 84 671 C65 651 55 627 55 600 L55 100 C55 73 65 49 84 29 C104 10 128 0 155 0 L280 0 C307 0 331 10 351 29 C370 49 380 73 380 100 L380 600 Z M303 884 C280 861 252 850 217 850 C182 850 154 861 131 884 L97 847 C130 816 170 800 217 800 C264 800 304 816 337 847 L303 884 L303 884 Z " />
<glyph glyph-name="Obreve105" unicode="&#x14f;" horiz-adv-x="388" d="M265 90 C265 75 258 68 243 68 L145 68 C130 68 123 75 123 90 L123 380 C123 395 130 402 145 402 L243 402 C258 402 265 395 265 380 L265 90 Z M333 380 C333 405 324 427 307 444 C290 461 268 470 243 470 L145 470 C120 470 99 461 82 444 C64 427 55 405 55 380 L55 90 C55 65 64 44 82 27 C99 9 120 0 145 0 L243 0 C268 0 290 9 307 27 C324 44 333 65 333 90 L333 380 Z M280 654 C257 631 229 620 194 620 C159 620 131 631 108 654 L74 617 C107 586 147 570 194 570 C241 570 281 586 314 617 L280 654 L280 654 Z " />
<glyph glyph-name="Ohungarumlaut" unicode="&#x150;" horiz-adv-x="435" d="M305 100 C305 83 297 75 280 75 L155 75 C138 75 130 83 130 100 L130 600 C130 617 138 625 155 625 L280 625 C297 625 305 617 305 600 L305 100 Z M380 600 C380 627 370 651 351 671 C331 690 307 700 280 700 L155 700 C128 700 104 690 84 671 C65 651 55 627 55 600 L55 100 C55 73 65 49 84 29 C104 10 128 0 155 0 L280 0 C307 0 331 10 351 29 C370 49 380 73 380 100 L380 600 Z M103 766 L148 747 L217 910 L172 929 L103 766 Z M218 766 L263 747 L332 910 L287 929 L218 766 Z " />
<glyph glyph-name="Ohungarumlaut109" unicode="&#x151;" horiz-adv-x="388" d="M265 90 C265 75 258 68 243 68 L145 68 C130 68 123 75 123 90 L123 380 C123 395 130 402 145 402 L243 402 C258 402 265 395 265 380 L265 90 Z M333 380 C333 405 324 427 307 444 C290 461 268 470 243 470 L145 470 C120 470 99 461 82 444 C64 427 55 405 55 380 L55 90 C55 65 64 44 82 27 C99 9 120 0 145 0 L243 0 C268 0 290 9 307 27 C324 44 333 65 333 90 L333 380 Z M80 536 L125 517 L194 680 L149 699 L80 536 Z M195 536 L240 517 L309 680 L264 699 L195 536 Z " />
<glyph glyph-name="OE" unicode="&#x152;" horiz-adv-x="609" d="M579 75 L379 75 L379 333 L529 333 L529 408 L379 408 L379 625 L579 625 L579 700 L342 700 L342 646 C336 682 316 700 281 700 L155 700 C127 700 103 690 84 671 C65 651 55 627 55 600 L55 100 C55 73 65 49 84 29 C103 10 127 0 155 0 L281 0 C316 0 336 18 342 54 L342 0 L579 0 L579 75 Z M304 100 C304 83 296 75 279 75 L154 75 C137 75 129 83 129 100 L129 600 C129 617 137 625 154 625 L279 625 C296 625 304 617 304 600 L304 100 Z " />
<glyph glyph-name="OE114" unicode="&#x153;" horiz-adv-x="598" d="M475 261 L333 261 L333 380 C333 395 340 402 355 402 L453 402 C468 402 475 395 475 380 L475 261 Z M265 90 C265 75 258 68 243 68 L145 68 C130 68 123 75 123 90 L123 380 C123 395 130 402 145 402 L243 402 C258 402 265 395 265 380 L265 90 Z M361 470 C326 470 305 454 300 422 C295 454 275 470 240 470 L145 470 C120 470 99 461 81 444 C64 427 55 405 55 380 L55 90 C55 65 64 44 81 26 C99 9 120 0 145 0 L240 0 C275 0 295 16 300 48 C305 16 326 0 361 0 L510 0 L510 68 L355 68 C340 68 333 75 333 90 L333 193 L543 193 L543 380 C543 405 534 427 517 444 C500 461 478 470 453 470 L361 470 Z " />
<glyph glyph-name="Racute" unicode="&#x154;" horiz-adv-x="435" d="M380 600 C380 627 370 651 351 671 C332 690 308 700 280 700 L55 700 L55 0 L130 0 L130 293 L235 293 L299 0 L379 0 L308 297 C329 303 347 315 360 332 C373 350 380 370 380 393 L380 600 Z M305 393 C305 376 297 368 280 368 L130 368 L130 625 L280 625 C297 625 305 617 305 600 L305 393 Z M137 793 L172 758 L297 883 L262 918 L137 793 Z " />
<glyph glyph-name="Racute119" unicode="&#x155;" horiz-adv-x="256" d="M243 470 L195 470 C157 470 133 455 123 425 L123 470 L55 470 L55 0 L123 0 L123 380 C123 395 130 402 145 402 L243 402 L243 470 Z M69 563 L104 528 L229 653 L194 688 L69 563 Z " />
<glyph glyph-name="Rcommaaccent" unicode="&#x156;" horiz-adv-x="435" d="M380 600 C380 627 370 651 351 671 C332 690 308 700 280 700 L55 700 L55 0 L130 0 L130 293 L235 293 L299 0 L379 0 L308 297 C329 303 347 315 360 332 C373 350 380 370 380 393 L380 600 Z M305 393 C305 376 297 368 280 368 L130 368 L130 625 L280 625 C297 625 305 617 305 600 L305 393 Z M263 -95 C266 -88 267 -82 267 -75 C267 -61 262 -49 253 -39 C243 -30 231 -25 217 -25 C203 -25 191 -30 182 -39 C172 -49 167 -61 167 -75 C167 -88 171 -99 179 -108 C186 -116 194 -121 203 -122 L177 -200 L214 -200 L263 -95 L263 -95 Z " />
<glyph glyph-name="Rcommaaccent121" unicode="&#x157;" horiz-adv-x="256" d="M243 470 L195 470 C157 470 133 455 123 425 L123 470 L55 470 L55 0 L123 0 L123 380 C123 395 130 402 145 402 L243 402 L243 470 Z M195 -95 C198 -88 199 -82 199 -75 C199 -61 194 -49 185 -39 C175 -30 163 -25 149 -25 C135 -25 123 -30 114 -39 C104 -49 99 -61 99 -75 C99 -88 103 -99 111 -108 C118 -116 126 -121 135 -122 L109 -200 L146 -200 L195 -95 L195 -95 Z " />
<glyph glyph-name="Rcaron" unicode="&#x158;" horiz-adv-x="435" d="M380 600 C380 627 370 651 351 671 C332 690 308 700 280 700 L55 700 L55 0 L130 0 L130 293 L235 293 L299 0 L379 0 L308 297 C329 303 347 315 360 332 C373 350 380 370 380 393 L380 600 Z M305 393 C305 376 297 368 280 368 L130 368 L130 625 L280 625 C297 625 305 617 305 600 L305 393 Z M217 758 L338 878 L302 914 L217 828 L132 914 L96 878 L217 758 Z " />
<glyph glyph-name="Rcaron120" unicode="&#x159;" horiz-adv-x="256" d="M243 470 L195 470 C157 470 133 455 123 425 L123 470 L55 470 L55 0 L123 0 L123 380 C123 395 130 402 145 402 L243 402 L243 470 Z M149 528 L270 648 L234 684 L149 598 L64 684 L28 648 L149 528 Z " />
<glyph glyph-name="Sacute" unicode="&#x15a;" horiz-adv-x="435" d="M305 100 C305 83 297 75 280 75 L155 75 C138 75 130 83 130 100 L130 200 L55 200 L55 100 C55 73 65 49 84 29 C104 10 128 0 155 0 L280 0 C307 0 331 10 351 29 C370 49 380 73 380 100 L380 200 C380 237 369 267 346 288 L142 491 C134 499 130 510 130 523 L130 600 C130 617 138 625 155 625 L280 625 C297 625 305 617 305 600 L305 500 L380 500 L380 600 C380 627 370 651 351 671 C331 690 307 700 280 700 L155 700 C128 700 104 690 84 671 C65 651 55 627 55 600 L55 523 C55 486 66 457 89 436 L293 233 C301 225 305 214 305 200 L305 100 Z M137 793 L172 758 L297 883 L262 918 L137 793 Z " />
<glyph glyph-name="Sacute127" unicode="&#x15b;" horiz-adv-x="388" d="M265 90 C265 75 258 68 243 68 L145 68 C130 68 123 75 123 90 L123 148 L55 148 L55 90 C55 65 64 44 82 27 C99 9 120 0 145 0 L243 0 C268 0 290 9 307 27 C324 44 333 65 333 90 L333 156 C333 175 327 192 315 206 C306 217 294 226 278 234 L137 302 C128 307 123 315 123 327 L123 380 C123 395 130 402 145 402 L243 402 C258 402 265 395 265 380 L265 322 L333 322 L333 380 C333 405 324 426 307 443 C290 461 268 470 243 470 L145 470 C120 470 99 461 82 443 C64 426 55 405 55 380 L55 318 C55 299 61 282 73 268 C82 257 94 248 110 240 L251 172 C260 167 265 159 265 148 L265 90 Z M114 563 L149 528 L274 653 L239 688 L114 563 Z " />
<glyph glyph-name="Scircumflex" unicode="&#x15c;" horiz-adv-x="435" d="M305 100 C305 83 297 75 280 75 L155 75 C138 75 130 83 130 100 L130 200 L55 200 L55 100 C55 73 65 49 84 29 C104 10 128 0 155 0 L280 0 C307 0 331 10 351 29 C370 49 380 73 380 100 L380 200 C380 237 369 267 346 288 L142 491 C134 499 130 510 130 523 L130 600 C130 617 138 625 155 625 L280 625 C297 625 305 617 305 600 L305 500 L380 500 L380 600 C380 627 370 651 351 671 C331 690 307 700 280 700 L155 700 C128 700 104 690 84 671 C65 651 55 627 55 600 L55 523 C55 486 66 457 89 436 L293 233 C301 225 305 214 305 200 L305 100 Z M217 914 L96 794 L132 758 L217 844 L302 758 L338 794 L217 914 Z " />
<glyph glyph-name="Scircumflex130" unicode="&#x15d;" horiz-adv-x="388" d="M265 90 C265 75 258 68 243 68 L145 68 C130 68 123 75 123 90 L123 148 L55 148 L55 90 C55 65 64 44 82 27 C99 9 120 0 145 0 L243 0 C268 0 290 9 307 27 C324 44 333 65 333 90 L333 156 C333 175 327 192 315 206 C306 217 294 226 278 234 L137 302 C128 307 123 315 123 327 L123 380 C123 395 130 402 145 402 L243 402 C258 402 265 395 265 380 L265 322 L333 322 L333 380 C333 405 324 426 307 443 C290 461 268 470 243 470 L145 470 C120 470 99 461 82 443 C64 426 55 405 55 380 L55 318 C55 299 61 282 73 268 C82 257 94 248 110 240 L251 172 C260 167 265 159 265 148 L265 90 Z M194 684 L73 564 L109 528 L194 614 L279 528 L315 564 L194 684 Z " />
<glyph glyph-name="Scedilla" unicode="&#x15e;" horiz-adv-x="435" d="M285 -30 L224 -30 L224 0 L280 0 C307 0 331 10 351 29 C370 49 380 73 380 100 L380 200 C380 237 369 267 346 288 L142 491 C134 499 130 510 130 523 L130 600 C130 617 138 625 155 625 L280 625 C297 625 305 617 305 600 L305 500 L380 500 L380 600 C380 627 370 651 351 671 C331 690 307 700 280 700 L155 700 C128 700 104 690 84 671 C65 651 55 627 55 600 L55 523 C55 486 66 457 89 436 L293 233 C301 225 305 214 305 200 L305 100 C305 83 297 75 280 75 L155 75 C138 75 130 83 130 100 L130 200 L55 200 L55 100 C55 73 65 49 84 29 C104 10 128 0 155 0 L174 0 L174 -75 L235 -75 L235 -105 L149 -105 L149 -155 L246 -155 C257 -155 266 -151 273 -143 C281 -135 285 -126 285 -115 L285 -30 Z " />
<glyph glyph-name="Scedilla129" unicode="&#x15f;" horiz-adv-x="388" d="M333 156 C333 175 327 192 315 206 C306 217 294 226 278 234 L137 302 C128 307 123 315 123 327 L123 380 C123 395 130 402 145 402 L243 402 C258 402 265 395 265 380 L265 322 L333 322 L333 380 C333 405 324 426 307 443 C290 461 268 470 243 470 L145 470 C120 470 99 461 82 443 C64 426 55 405 55 380 L55 318 C55 299 61 282 73 268 C82 257 94 248 110 240 L251 172 C260 167 265 159 265 148 L265 90 C265 75 258 68 243 68 L145 68 C130 68 123 75 123 90 L123 148 L55 148 L55 90 C55 65 64 44 82 27 C99 9 120 0 145 0 L151 0 L151 -75 L212 -75 L212 -105 L126 -105 L126 -155 L223 -155 C234 -155 243 -151 250 -143 C258 -135 262 -126 262 -115 L262 -30 L201 -30 L201 0 L243 0 C268 0 290 9 307 27 C324 44 333 65 333 90 L333 156 Z " />
<glyph glyph-name="Scaron" unicode="&#x160;" horiz-adv-x="435" d="M305 100 C305 83 297 75 280 75 L155 75 C138 75 130 83 130 100 L130 200 L55 200 L55 100 C55 73 65 49 84 29 C104 10 128 0 155 0 L280 0 C307 0 331 10 351 29 C370 49 380 73 380 100 L380 200 C380 237 369 267 346 288 L142 491 C134 499 130 510 130 523 L130 600 C130 617 138 625 155 625 L280 625 C297 625 305 617 305 600 L305 500 L380 500 L380 600 C380 627 370 651 351 671 C331 690 307 700 280 700 L155 700 C128 700 104 690 84 671 C65 651 55 627 55 600 L55 523 C55 486 66 457 89 436 L293 233 C301 225 305 214 305 200 L305 100 Z M217 758 L338 878 L302 914 L217 828 L132 914 L96 878 L217 758 Z " />
<glyph glyph-name="Scaron128" unicode="&#x161;" horiz-adv-x="388" d="M265 90 C265 75 258 68 243 68 L145 68 C130 68 123 75 123 90 L123 148 L55 148 L55 90 C55 65 64 44 82 27 C99 9 120 0 145 0 L243 0 C268 0 290 9 307 27 C324 44 333 65 333 90 L333 156 C333 175 327 192 315 206 C306 217 294 226 278 234 L137 302 C128 307 123 315 123 327 L123 380 C123 395 130 402 145 402 L243 402 C258 402 265 395 265 380 L265 322 L333 322 L333 380 C333 405 324 426 307 443 C290 461 268 470 243 470 L145 470 C120 470 99 461 82 443 C64 426 55 405 55 380 L55 318 C55 299 61 282 73 268 C82 257 94 248 110 240 L251 172 C260 167 265 159 265 148 L265 90 Z M194 528 L315 648 L279 684 L194 598 L109 684 L73 648 L194 528 Z " />
<glyph glyph-name="Tcedilla" unicode="&#x162;" horiz-adv-x="385" d="M266 -30 L205 -30 L205 0 L230 0 L230 625 L355 625 L355 700 L30 700 L30 625 L155 625 L155 -75 L216 -75 L216 -105 L130 -105 L130 -155 L227 -155 C238 -155 247 -151 254 -143 C262 -135 266 -126 266 -115 L266 -30 Z " />
<glyph glyph-name="Tcedilla147" unicode="&#x163;" horiz-adv-x="269" d="M223 -30 L162 -30 L162 0 L242 0 L242 68 L174 68 C159 68 152 75 152 90 L152 402 L242 402 L242 470 L152 470 L152 610 L84 610 L84 470 L14 470 L14 402 L84 402 L84 90 C84 65 93 44 112 25 L112 -75 L173 -75 L173 -105 L87 -105 L87 -155 L184 -155 C195 -155 204 -151 211 -143 C219 -135 223 -126 223 -115 L223 -30 Z " />
<glyph glyph-name="Tcaron" unicode="&#x164;" horiz-adv-x="385" d="M355 700 L30 700 L30 625 L155 625 L155 0 L230 0 L230 625 L355 625 L355 700 Z M192 758 L313 878 L277 914 L192 828 L107 914 L71 878 L192 758 Z " />
<glyph glyph-name="Tcaron146" unicode="&#x165;" horiz-adv-x="269" d="M242 68 L174 68 C159 68 152 75 152 90 L152 402 L242 402 L242 470 L152 470 L152 610 L84 610 L84 470 L14 470 L14 402 L84 402 L84 90 C84 65 93 44 111 27 C128 9 149 0 174 0 L242 0 L242 68 Z M271 640 C274 647 275 653 275 660 C275 674 270 686 261 696 C251 705 239 710 225 710 C211 710 199 705 190 696 C180 686 175 674 175 660 C175 647 179 636 187 627 C194 619 202 614 211 613 L180 520 L215 520 L271 640 L271 640 Z " />
<glyph glyph-name="Tbar" unicode="&#x166;" horiz-adv-x="385" d="M296 375 L230 375 L230 625 L355 625 L355 700 L30 700 L30 625 L155 625 L155 375 L88 375 L88 325 L155 325 L155 0 L230 0 L230 325 L296 325 L296 375 Z " />
<glyph glyph-name="Tbar145" unicode="&#x167;" horiz-adv-x="269" d="M232 260 L152 260 L152 402 L242 402 L242 470 L152 470 L152 610 L84 610 L84 470 L14 470 L14 402 L84 402 L84 260 L24 260 L24 210 L84 210 L84 90 C84 65 93 44 111 27 C128 9 149 0 174 0 L242 0 L242 68 L174 68 C159 68 152 75 152 90 L152 210 L232 210 L232 260 Z " />
<glyph glyph-name="Utilde" unicode="&#x168;" horiz-adv-x="435" d="M380 700 L305 700 L305 100 C305 83 297 75 280 75 L155 75 C138 75 130 83 130 100 L130 700 L55 700 L55 100 C55 73 65 49 84 29 C104 10 128 0 155 0 L280 0 C307 0 331 10 351 29 C370 49 380 73 380 100 L380 700 Z M114 788 L173 846 L228 792 C238 782 250 777 264 777 C278 777 289 782 298 792 L355 850 L321 885 L263 828 L208 882 C198 892 186 897 172 897 C159 897 147 892 138 882 L79 822 L114 788 Z " />
<glyph glyph-name="Utilde158" unicode="&#x169;" horiz-adv-x="388" d="M333 470 L265 470 L265 90 C265 75 258 68 243 68 L145 68 C130 68 123 75 123 90 L123 470 L55 470 L55 90 C55 65 64 44 82 27 C99 9 120 0 145 0 L193 0 C231 0 255 15 265 45 L265 0 L333 0 L333 470 Z M91 558 L150 616 L205 562 C215 552 227 547 241 547 C255 547 266 552 275 562 L332 620 L298 655 L240 598 L185 652 C175 662 163 667 149 667 C136 667 124 662 115 652 L56 592 L91 558 Z " />
<glyph glyph-name="Umacron" unicode="&#x16a;" horiz-adv-x="435" d="M380 700 L305 700 L305 100 C305 83 297 75 280 75 L155 75 C138 75 130 83 130 100 L130 700 L55 700 L55 100 C55 73 65 49 84 29 C104 10 128 0 155 0 L280 0 C307 0 331 10 351 29 C370 49 380 73 380 100 L380 700 Z M321 861 L113 861 L113 811 L321 811 L321 861 Z " />
<glyph glyph-name="Umacron156" unicode="&#x16b;" horiz-adv-x="388" d="M333 470 L265 470 L265 90 C265 75 258 68 243 68 L145 68 C130 68 123 75 123 90 L123 470 L55 470 L55 90 C55 65 64 44 82 27 C99 9 120 0 145 0 L193 0 C231 0 255 15 265 45 L265 0 L333 0 L333 470 Z M298 631 L90 631 L90 581 L298 581 L298 631 Z " />
<glyph glyph-name="Ubreve" unicode="&#x16c;" horiz-adv-x="435" d="M380 700 L305 700 L305 100 C305 83 297 75 280 75 L155 75 C138 75 130 83 130 100 L130 700 L55 700 L55 100 C55 73 65 49 84 29 C104 10 128 0 155 0 L280 0 C307 0 331 10 351 29 C370 49 380 73 380 100 L380 700 Z M303 884 C280 861 252 850 217 850 C182 850 154 861 131 884 L97 847 C130 816 170 800 217 800 C264 800 304 816 337 847 L303 884 L303 884 Z " />
<glyph glyph-name="Ubreve151" unicode="&#x16d;" horiz-adv-x="388" d="M333 470 L265 470 L265 90 C265 75 258 68 243 68 L145 68 C130 68 123 75 123 90 L123 470 L55 470 L55 90 C55 65 64 44 82 27 C99 9 120 0 145 0 L193 0 C231 0 255 15 265 45 L265 0 L333 0 L333 470 Z M280 654 C257 631 229 620 194 620 C159 620 131 631 108 654 L74 617 C107 586 147 570 194 570 C241 570 281 586 314 617 L280 654 L280 654 Z " />
<glyph glyph-name="Uring" unicode="&#x16e;" horiz-adv-x="435" d="M380 700 L305 700 L305 100 C305 83 297 75 280 75 L155 75 C138 75 130 83 130 100 L130 700 L55 700 L55 100 C55 73 65 49 84 29 C104 10 128 0 155 0 L280 0 C307 0 331 10 351 29 C370 49 380 73 380 100 L380 700 Z M273 772 C288 787 295 806 295 827 C295 848 287 866 272 881 C257 896 239 904 218 904 C197 904 178 896 163 881 C148 866 140 848 140 827 C140 806 148 787 163 772 C178 757 197 749 218 749 C239 749 258 757 273 772 L273 772 Z M189 798 C181 807 177 816 177 827 C177 838 181 848 189 856 C198 864 207 868 218 868 C229 868 239 864 247 856 C255 848 259 838 259 827 C259 816 255 807 247 798 C239 790 229 786 218 786 C207 786 198 790 189 798 L189 798 Z " />
<glyph glyph-name="Uring157" unicode="&#x16f;" horiz-adv-x="388" d="M333 470 L265 470 L265 90 C265 75 258 68 243 68 L145 68 C130 68 123 75 123 90 L123 470 L55 470 L55 90 C55 65 64 44 82 27 C99 9 120 0 145 0 L193 0 C231 0 255 15 265 45 L265 0 L333 0 L333 470 Z M250 542 C265 557 272 576 272 597 C272 618 264 636 249 651 C234 666 216 674 195 674 C174 674 155 666 140 651 C125 636 117 618 117 597 C117 576 125 557 140 542 C155 527 174 519 195 519 C216 519 235 527 250 542 L250 542 Z M166 568 C158 577 154 586 154 597 C154 608 158 618 166 626 C175 634 184 638 195 638 C206 638 216 634 224 626 C232 618 236 608 236 597 C236 586 232 577 224 568 C216 560 206 556 195 556 C184 556 175 560 166 568 L166 568 Z " />
<glyph glyph-name="Uhungarumlaut" unicode="&#x170;" horiz-adv-x="435" d="M380 700 L305 700 L305 100 C305 83 297 75 280 75 L155 75 C138 75 130 83 130 100 L130 700 L55 700 L55 100 C55 73 65 49 84 29 C104 10 128 0 155 0 L280 0 C307 0 331 10 351 29 C370 49 380 73 380 100 L380 700 Z M103 766 L148 747 L217 910 L172 929 L103 766 Z M218 766 L263 747 L332 910 L287 929 L218 766 Z " />
<glyph glyph-name="Uhungarumlaut155" unicode="&#x171;" horiz-adv-x="388" d="M333 470 L265 470 L265 90 C265 75 258 68 243 68 L145 68 C130 68 123 75 123 90 L123 470 L55 470 L55 90 C55 65 64 44 82 27 C99 9 120 0 145 0 L193 0 C231 0 255 15 265 45 L265 0 L333 0 L333 470 Z M80 536 L125 517 L194 680 L149 699 L80 536 Z M195 536 L240 517 L309 680 L264 699 L195 536 Z " />
<glyph glyph-name="Uogonek" unicode="&#x172;" horiz-adv-x="435" d="M380 700 L305 700 L305 100 C305 83 297 75 280 75 L155 75 C138 75 130 83 130 100 L130 700 L55 700 L55 100 C55 73 65 49 84 29 C104 10 128 0 155 0 L267 0 L224 -42 C214 -52 209 -64 209 -77 L209 -105 C209 -118 214 -130 224 -140 C234 -150 245 -155 258 -155 L321 -155 L321 -105 L259 -105 L259 -62 L352 31 C359 38 366 48 371 59 C377 72 380 86 380 100 L380 700 Z " />
<glyph glyph-name="Uogonek159" unicode="&#x173;" horiz-adv-x="388" d="M221 -105 C221 -118 226 -130 236 -140 C246 -150 257 -155 270 -155 L333 -155 L333 -105 L271 -105 L271 -62 L333 0 L333 470 L265 470 L265 90 C265 75 258 68 243 68 L145 68 C130 68 123 75 123 90 L123 470 L55 470 L55 90 C55 65 64 44 82 27 C99 9 120 0 145 0 L193 0 C231 0 255 15 265 45 L265 0 L280 0 L236 -42 C226 -52 221 -64 221 -77 L221 -105 Z " />
<glyph glyph-name="Wcircumflex" unicode="&#x174;" horiz-adv-x="639" d="M549 700 L450 122 L354 700 L286 700 L189 122 L92 700 L17 700 L137 0 L233 0 L319 506 L406 0 L502 0 L622 700 L549 700 Z M319 914 L198 794 L234 758 L319 844 L404 758 L440 794 L319 914 Z " />
<glyph glyph-name="Wcircumflex163" unicode="&#x175;" horiz-adv-x="520" d="M432 470 L359 99 L285 470 L235 470 L161 99 L88 470 L17 470 L115 0 L195 0 L260 311 L325 0 L405 0 L503 470 L432 470 Z M260 684 L139 564 L175 528 L260 614 L345 528 L381 564 L260 684 Z " />
<glyph glyph-name="Ycircumflex" unicode="&#x176;" horiz-adv-x="384" d="M301 700 L192 355 L84 700 L5 700 L154 270 L154 0 L228 0 L228 270 L379 700 L301 700 Z M192 914 L71 794 L107 758 L192 844 L277 758 L313 794 L192 914 Z " />
<glyph glyph-name="Ycircumflex175" unicode="&#x177;" horiz-adv-x="363" d="M275 470 L181 96 L87 470 L17 470 L145 0 L98 -150 L172 -150 L346 470 L275 470 Z M181 684 L60 564 L96 528 L181 614 L266 528 L302 564 L181 684 Z " />
<glyph glyph-name="Ydieresis" unicode="&#x178;" horiz-adv-x="384" d="M301 700 L192 355 L84 700 L5 700 L154 270 L154 0 L228 0 L228 270 L379 700 L301 700 Z M89 870 C80 861 75 851 75 838 C75 825 80 815 89 806 C98 797 108 792 121 792 C134 792 144 797 153 806 C162 815 167 825 167 838 C167 851 162 861 153 870 C144 879 134 884 121 884 C108 884 98 879 89 870 L89 870 Z M231 870 C222 861 217 851 217 838 C217 825 222 815 231 806 C240 797 250 792 263 792 C276 792 286 797 295 806 C304 815 309 825 309 838 C309 851 304 861 295 870 C286 879 276 884 263 884 C250 884 240 879 231 870 L231 870 Z " />
<glyph glyph-name="Zacute" unicode="&#x179;" horiz-adv-x="393" d="M363 75 L112 75 L355 625 L355 700 L38 700 L38 625 L272 625 L30 75 L30 0 L363 0 L363 75 Z M116 793 L151 758 L276 883 L241 918 L116 793 Z " />
<glyph glyph-name="Zacute184" unicode="&#x17a;" horiz-adv-x="332" d="M305 68 L109 68 L298 402 L298 470 L35 470 L35 402 L218 402 L27 68 L27 0 L305 0 L305 68 Z M86 563 L121 528 L246 653 L211 688 L86 563 Z " />
<glyph glyph-name="Zdotaccent" unicode="&#x17b;" horiz-adv-x="393" d="M363 75 L112 75 L355 625 L355 700 L38 700 L38 625 L272 625 L30 75 L30 0 L363 0 L363 75 Z M164 870 C155 861 150 851 150 838 C150 825 155 815 164 806 C173 797 183 792 196 792 C209 792 219 797 228 806 C237 815 242 825 242 838 C242 851 237 861 228 870 C219 879 209 884 196 884 C183 884 173 879 164 870 L164 870 Z " />
<glyph glyph-name="Zdotaccent186" unicode="&#x17c;" horiz-adv-x="332" d="M305 68 L109 68 L298 402 L298 470 L35 470 L35 402 L218 402 L27 68 L27 0 L305 0 L305 68 Z M134 640 C125 631 120 621 120 608 C120 595 125 585 134 576 C143 567 153 562 166 562 C179 562 189 567 198 576 C207 585 212 595 212 608 C212 621 207 631 198 640 C189 649 179 654 166 654 C153 654 143 649 134 640 L134 640 Z " />
<glyph glyph-name="Zcaron" unicode="&#x17d;" horiz-adv-x="393" d="M363 75 L112 75 L355 625 L355 700 L38 700 L38 625 L272 625 L30 75 L30 0 L363 0 L363 75 Z M196 758 L317 878 L281 914 L196 828 L111 914 L75 878 L196 758 Z " />
<glyph glyph-name="Zcaron185" unicode="&#x17e;" horiz-adv-x="332" d="M305 68 L109 68 L298 402 L298 470 L35 470 L35 402 L218 402 L27 68 L27 0 L305 0 L305 68 Z M166 528 L287 648 L251 684 L166 598 L81 684 L45 648 L166 528 Z " />
<glyph glyph-name="florin" unicode="&#x192;" horiz-adv-x="296" d="M108 -60 C108 -75 101 -82 86 -82 L18 -82 L18 -150 L86 -150 C111 -150 133 -141 150 -123 C167 -106 176 -85 176 -60 L176 316 L266 316 L266 384 L176 384 L176 610 C176 625 183 632 198 632 L266 632 L266 700 L198 700 C173 700 151 691 134 673 C117 656 108 635 108 610 L108 384 L18 384 L18 316 L108 316 L108 -60 Z " />
<glyph glyph-name="Ohorn" unicode="&#x1a0;" horiz-adv-x="435" d="M305 100 C305 83 297 75 280 75 L155 75 C138 75 130 83 130 100 L130 600 C130 617 138 625 155 625 L280 625 C297 625 305 617 305 600 L305 100 Z M366 652 C373 655 378 658 381 661 C393 673 399 689 399 708 L399 754 L344 754 L344 708 C344 702 329 699 300 698 C293 699 287 700 280 700 L155 700 C128 700 104 690 84 671 C65 651 55 627 55 600 L55 100 C55 73 65 49 84 29 C104 10 128 0 155 0 L280 0 C307 0 331 10 351 29 C370 49 380 73 380 100 L380 600 C380 619 375 637 366 652 L366 652 Z " />
<glyph glyph-name="Ohorn212" unicode="&#x1a1;" horiz-adv-x="388" d="M265 90 C265 75 258 68 243 68 L145 68 C130 68 123 75 123 90 L123 380 C123 395 130 402 145 402 L243 402 C258 402 265 395 265 380 L265 90 Z M322 425 C325 426 327 428 329 430 C341 442 347 458 347 477 L347 523 L292 523 L292 477 C292 472 283 469 264 468 C257 469 250 470 243 470 L145 470 C120 470 99 461 82 444 C64 427 55 405 55 380 L55 90 C55 65 64 44 82 27 C99 9 120 0 145 0 L243 0 C268 0 290 9 307 27 C324 44 333 65 333 90 L333 380 C333 397 329 412 322 425 L322 425 Z " />
<glyph glyph-name="Uhorn" unicode="&#x1af;" horiz-adv-x="435" d="M380 645 C405 648 422 653 430 661 C442 673 448 689 448 708 L448 754 L393 754 L393 708 C393 704 387 701 376 700 L305 700 L305 100 C305 83 297 75 280 75 L155 75 C138 75 130 83 130 100 L130 700 L55 700 L55 100 C55 73 65 49 84 29 C104 10 128 0 155 0 L280 0 C307 0 331 10 351 29 C370 49 380 73 380 100 L380 645 L380 645 Z " />
<glyph glyph-name="Uhorn225" unicode="&#x1b0;" horiz-adv-x="388" d="M333 413 C363 416 382 421 391 430 C403 442 409 458 409 477 L409 523 L354 523 L354 477 C354 473 347 470 333 468 L333 470 L265 470 L265 90 C265 75 258 68 243 68 L145 68 C130 68 123 75 123 90 L123 470 L55 470 L55 90 C55 65 64 44 82 27 C99 9 120 0 145 0 L193 0 C231 0 255 15 265 45 L265 0 L333 0 L333 413 L333 413 Z " />
<glyph glyph-name="AEacute" unicode="&#x1fc;" horiz-adv-x="645" d="M175 188 L339 580 L339 188 L175 188 Z M614 75 L414 75 L414 333 L564 333 L564 408 L414 408 L414 625 L614 625 L614 700 L316 700 L9 0 L92 0 L142 113 L339 113 L339 0 L614 0 L614 75 Z M296 793 L331 758 L456 883 L421 918 L296 793 Z " />
<glyph glyph-name="AEacute022" unicode="&#x1fd;" horiz-adv-x="598" d="M265 90 C265 75 258 68 243 68 L146 68 C131 68 124 75 124 90 L124 189 C124 204 131 211 146 211 L243 211 C258 211 265 204 265 189 L265 90 Z M333 259 L333 380 C333 395 340 402 355 402 L453 402 C468 402 475 395 475 380 L475 259 L333 259 Z M265 241 C258 266 239 279 206 279 L145 279 C119 279 98 271 81 254 C64 237 55 215 55 189 L55 90 C55 65 64 44 83 27 C101 9 122 0 147 0 L239 0 C274 0 294 16 299 48 C304 16 325 0 360 0 L510 0 L510 68 L355 68 C340 68 333 75 333 90 L333 192 L543 192 L543 380 C543 405 534 426 516 443 C499 461 478 470 453 470 L360 470 C325 470 304 454 299 422 C294 454 274 470 239 470 L89 470 L89 402 L243 402 C258 402 265 395 265 380 L265 241 Z M219 563 L254 528 L379 653 L344 688 L219 563 Z " />
<glyph glyph-name="Oslashacute" unicode="&#x1fe;" horiz-adv-x="435" d="M364 773 L330 687 C314 696 297 700 280 700 L155 700 C128 700 104 690 84 671 C65 651 55 627 55 600 L55 100 C55 80 61 61 73 42 L27 -74 L71 -74 L105 13 C120 4 136 0 155 0 L280 0 C307 0 331 10 351 29 C370 49 380 73 380 100 L380 600 C380 621 374 640 362 657 L408 773 L364 773 Z M130 600 C130 617 138 625 155 625 L280 625 C290 625 297 621 301 614 L130 184 L130 600 Z M305 100 C305 83 297 75 280 75 L155 75 C145 75 138 78 134 85 L305 514 L305 100 Z M137 793 L172 758 L297 883 L262 918 L137 793 Z " />
<glyph glyph-name="Oslashacute113" unicode="&#x1ff;" horiz-adv-x="388" d="M9 -53 L52 -53 L92 17 C107 6 125 0 145 0 L243 0 C268 0 290 9 307 27 C324 44 333 65 333 90 L333 380 C333 395 330 409 323 422 L380 523 L337 523 L297 453 C282 464 264 470 243 470 L145 470 C120 470 99 461 82 444 C64 427 55 405 55 380 L55 90 C55 75 59 60 66 47 L9 -53 Z M123 380 C123 395 130 402 145 402 L243 402 C253 402 259 399 262 392 L123 147 L123 380 Z M265 90 C265 75 258 68 243 68 L145 68 C136 68 129 71 126 77 L265 321 L265 90 Z M114 563 L149 528 L274 653 L239 688 L114 563 Z " />
<glyph glyph-name="Scommaaccent" unicode="&#x218;" horiz-adv-x="435" d="M305 100 C305 83 297 75 280 75 L155 75 C138 75 130 83 130 100 L130 200 L55 200 L55 100 C55 73 65 49 84 29 C104 10 128 0 155 0 L280 0 C307 0 331 10 351 29 C370 49 380 73 380 100 L380 200 C380 237 369 267 346 288 L142 491 C134 499 130 510 130 523 L130 600 C130 617 138 625 155 625 L280 625 C297 625 305 617 305 600 L305 500 L380 500 L380 600 C380 627 370 651 351 671 C331 690 307 700 280 700 L155 700 C128 700 104 690 84 671 C65 651 55 627 55 600 L55 523 C55 486 66 457 89 436 L293 233 C301 225 305 214 305 200 L305 100 Z M263 -95 C266 -88 267 -82 267 -75 C267 -61 262 -49 253 -39 C243 -30 231 -25 217 -25 C203 -25 191 -30 182 -39 C172 -49 167 -61 167 -75 C167 -88 171 -99 179 -108 C186 -116 194 -121 203 -122 L177 -200 L214 -200 L263 -95 L263 -95 Z " />
<glyph glyph-name="Scommaaccent131" unicode="&#x219;" horiz-adv-x="388" d="M265 90 C265 75 258 68 243 68 L145 68 C130 68 123 75 123 90 L123 148 L55 148 L55 90 C55 65 64 44 82 27 C99 9 120 0 145 0 L243 0 C268 0 290 9 307 27 C324 44 333 65 333 90 L333 156 C333 175 327 192 315 206 C306 217 294 226 278 234 L137 302 C128 307 123 315 123 327 L123 380 C123 395 130 402 145 402 L243 402 C258 402 265 395 265 380 L265 322 L333 322 L333 380 C333 405 324 426 307 443 C290 461 268 470 243 470 L145 470 C120 470 99 461 82 443 C64 426 55 405 55 380 L55 318 C55 299 61 282 73 268 C82 257 94 248 110 240 L251 172 C260 167 265 159 265 148 L265 90 Z M240 -95 C243 -88 244 -82 244 -75 C244 -61 239 -49 230 -39 C220 -30 208 -25 194 -25 C180 -25 168 -30 159 -39 C149 -49 144 -61 144 -75 C144 -88 148 -99 156 -108 C163 -116 171 -121 180 -122 L154 -200 L191 -200 L240 -95 L240 -95 Z " />
<glyph glyph-name="Tcommaaccent" unicode="&#x21a;" horiz-adv-x="385" d="M355 700 L30 700 L30 625 L155 625 L155 0 L230 0 L230 625 L355 625 L355 700 Z M238 -95 C241 -88 242 -82 242 -75 C242 -61 237 -49 228 -39 C218 -30 206 -25 192 -25 C178 -25 166 -30 157 -39 C147 -49 142 -61 142 -75 C142 -88 146 -99 154 -108 C161 -116 169 -121 178 -122 L152 -200 L189 -200 L238 -95 L238 -95 Z " />
<glyph glyph-name="Tcommaaccent148" unicode="&#x21b;" horiz-adv-x="269" d="M242 68 L174 68 C159 68 152 75 152 90 L152 402 L242 402 L242 470 L152 470 L152 610 L84 610 L84 470 L14 470 L14 402 L84 402 L84 90 C84 65 93 44 111 27 C128 9 149 0 174 0 L242 0 L242 68 Z M164 -95 C167 -88 168 -82 168 -75 C168 -61 163 -49 154 -39 C144 -30 132 -25 118 -25 C104 -25 92 -30 83 -39 C73 -49 68 -61 68 -75 C68 -88 72 -99 80 -108 C87 -116 95 -121 104 -122 L78 -200 L115 -200 L164 -95 L164 -95 Z " />
<glyph glyph-name="circumflex" unicode="&#x2c6;" horiz-adv-x="388" d="M194 684 L73 564 L109 528 L194 614 L279 528 L315 564 L194 684 Z " />
<glyph glyph-name="caron" unicode="&#x2c7;" horiz-adv-x="388" d="M194 528 L315 648 L279 684 L194 598 L109 684 L73 648 L194 528 Z " />
<glyph glyph-name="breve" unicode="&#x2d8;" horiz-adv-x="388" d="M280 654 C257 631 229 620 194 620 C159 620 131 631 108 654 L74 617 C107 586 147 570 194 570 C241 570 281 586 314 617 L280 654 L280 654 Z " />
<glyph glyph-name="dotaccent" unicode="&#x2d9;" horiz-adv-x="388" d="M162 640 C153 631 148 621 148 608 C148 595 153 585 162 576 C171 567 181 562 194 562 C207 562 217 567 226 576 C235 585 240 595 240 608 C240 621 235 631 226 640 C217 649 207 654 194 654 C181 654 171 649 162 640 L162 640 Z " />
<glyph glyph-name="ring" unicode="&#x2da;" horiz-adv-x="388" d="M250 542 C265 557 272 576 272 597 C272 618 264 636 249 651 C234 666 216 674 195 674 C174 674 155 666 140 651 C125 636 117 618 117 597 C117 576 125 557 140 542 C155 527 174 519 195 519 C216 519 235 527 250 542 L250 542 Z M166 568 C158 577 154 586 154 597 C154 608 158 618 166 626 C175 634 184 638 195 638 C206 638 216 634 224 626 C232 618 236 608 236 597 C236 586 232 577 224 568 C216 560 206 556 195 556 C184 556 175 560 166 568 L166 568 Z " />
<glyph glyph-name="ogonek" unicode="&#x2db;" horiz-adv-x="388" d="M138 -105 C138 -118 143 -130 153 -140 C163 -150 174 -155 187 -155 L250 -155 L250 -105 L188 -105 L188 -62 L250 0 L197 0 L153 -42 C143 -52 138 -64 138 -77 L138 -105 Z " />
<glyph glyph-name="tilde" unicode="&#x2dc;" horiz-adv-x="388" d="M91 558 L150 616 L205 562 C215 552 227 547 241 547 C255 547 266 552 275 562 L332 620 L298 655 L240 598 L185 652 C175 662 163 667 149 667 C136 667 124 662 115 652 L56 592 L91 558 Z " />
<glyph glyph-name="hungarumlaut" unicode="&#x2dd;" horiz-adv-x="388" d="M80 536 L125 517 L194 680 L149 699 L80 536 Z M195 536 L240 517 L309 680 L264 699 L195 536 Z " />
<glyph glyph-name="gravecomb" unicode="&#x300;" d="M-307 688 L-342 653 L-217 528 L-182 563 L-307 688 Z " />
<glyph glyph-name="acutecomb" unicode="&#x301;" d="M-327 563 L-292 528 L-167 653 L-202 688 L-327 563 Z " />
<glyph glyph-name="tildecomb" unicode="&#x303;" d="M-336 558 L-277 616 L-222 562 C-212 552 -200 547 -186 547 C-172 547 -161 552 -152 562 L-95 620 L-129 655 L-187 598 L-242 652 C-252 662 -264 667 -278 667 C-291 667 -303 662 -312 652 L-371 592 L-336 558 Z " />
<glyph glyph-name="hookabovecomb" unicode="&#x309;" horiz-adv-x="385" d="M252 620 C252 633 247 645 238 654 C229 663 217 668 204 668 L156 668 C143 668 131 663 122 654 C113 645 108 633 108 620 L108 577 L155 577 L155 620 C155 621 155 621 156 621 L204 621 C205 621 205 621 205 620 L205 590 C205 587 204 585 203 584 L149 531 L181 497 L234 551 C246 563 252 576 252 591 L252 620 Z " />
<glyph glyph-name="uni031B" unicode="&#x31b;" horiz-adv-x="305" d="M238 481 C287 481 318 487 330 499 C342 512 348 527 348 546 L348 592 L293 592 L293 546 C293 539 275 536 238 536 L238 481 Z " />
<glyph glyph-name="dotbelowcomb" unicode="&#x323;" d="M-258 -65 C-268 -74 -273 -86 -273 -100 C-273 -114 -268 -126 -258 -136 C-249 -145 -237 -150 -223 -150 C-209 -150 -197 -145 -187 -136 C-178 -126 -173 -114 -173 -100 C-173 -86 -178 -74 -187 -65 C-197 -55 -209 -50 -223 -50 C-237 -50 -249 -55 -258 -65 L-258 -65 Z " />
<glyph glyph-name="uni0326" unicode="&#x326;" horiz-adv-x="388" d="M240 -95 C243 -88 244 -82 244 -75 C244 -61 239 -49 230 -39 C220 -30 208 -25 194 -25 C180 -25 168 -30 159 -39 C149 -49 144 -61 144 -75 C144 -88 148 -99 156 -108 C163 -116 171 -121 180 -122 L154 -200 L191 -200 L240 -95 L240 -95 Z " />
<glyph glyph-name="Omega.1" unicode="&#x3a9;" horiz-adv-x="434" d="M379 0 L379 75 L279 75 L279 148 C306 148 330 158 350 177 C369 197 379 221 379 248 L379 600 C379 627 369 651 350 671 C330 690 306 700 279 700 L154 700 C127 700 103 690 84 671 C65 651 55 627 55 600 L55 248 C55 221 65 197 84 177 C103 158 127 148 154 148 L154 75 L55 75 L55 0 L193 0 L193 223 L154 223 C137 223 129 231 129 248 L129 600 C129 617 137 625 154 625 L280 625 C297 625 305 617 305 600 L305 248 C305 231 297 223 280 223 L242 223 L242 0 L379 0 Z " />
<glyph glyph-name="pi" unicode="&#x3c0;" horiz-adv-x="388" d="M333 470 L55 470 L55 0 L123 0 L123 402 L265 402 L265 0 L333 0 L333 470 Z " />
<glyph glyph-name="Wgrave" unicode="&#x1e80;" horiz-adv-x="639" d="M549 700 L450 122 L354 700 L286 700 L189 122 L92 700 L17 700 L137 0 L233 0 L319 506 L406 0 L502 0 L622 700 L549 700 Z M274 918 L239 883 L364 758 L399 793 L274 918 Z " />
<glyph glyph-name="Wgrave165" unicode="&#x1e81;" horiz-adv-x="520" d="M432 470 L359 99 L285 470 L235 470 L161 99 L88 470 L17 470 L115 0 L195 0 L260 311 L325 0 L405 0 L503 470 L432 470 Z M215 688 L180 653 L305 528 L340 563 L215 688 Z " />
<glyph glyph-name="Wacute" unicode="&#x1e82;" horiz-adv-x="639" d="M549 700 L450 122 L354 700 L286 700 L189 122 L92 700 L17 700 L137 0 L233 0 L319 506 L406 0 L502 0 L622 700 L549 700 Z M239 793 L274 758 L399 883 L364 918 L239 793 Z " />
<glyph glyph-name="Wacute162" unicode="&#x1e83;" horiz-adv-x="520" d="M432 470 L359 99 L285 470 L235 470 L161 99 L88 470 L17 470 L115 0 L195 0 L260 311 L325 0 L405 0 L503 470 L432 470 Z M180 563 L215 528 L340 653 L305 688 L180 563 Z " />
<glyph glyph-name="Wdieresis" unicode="&#x1e84;" horiz-adv-x="639" d="M549 700 L450 122 L354 700 L286 700 L189 122 L92 700 L17 700 L137 0 L233 0 L319 506 L406 0 L502 0 L622 700 L549 700 Z M216 870 C207 861 202 851 202 838 C202 825 207 815 216 806 C225 797 235 792 248 792 C261 792 271 797 280 806 C289 815 294 825 294 838 C294 851 289 861 280 870 C271 879 261 884 248 884 C235 884 225 879 216 870 L216 870 Z M358 870 C349 861 344 851 344 838 C344 825 349 815 358 806 C367 797 377 792 390 792 C403 792 413 797 422 806 C431 815 436 825 436 838 C436 851 431 861 422 870 C413 879 403 884 390 884 C377 884 367 879 358 870 L358 870 Z " />
<glyph glyph-name="Wdieresis164" unicode="&#x1e85;" horiz-adv-x="520" d="M432 470 L359 99 L285 470 L235 470 L161 99 L88 470 L17 470 L115 0 L195 0 L260 311 L325 0 L405 0 L503 470 L432 470 Z M157 640 C148 631 143 621 143 608 C143 595 148 585 157 576 C166 567 176 562 189 562 C202 562 212 567 221 576 C230 585 235 595 235 608 C235 621 230 631 221 640 C212 649 202 654 189 654 C176 654 166 649 157 640 L157 640 Z M299 640 C290 631 285 621 285 608 C285 595 290 585 299 576 C308 567 318 562 331 562 C344 562 354 567 363 576 C372 585 377 595 377 608 C377 621 372 631 363 640 C354 649 344 654 331 654 C318 654 308 649 299 640 L299 640 Z " />
<glyph glyph-name="A.dotbl" unicode="&#x1ea0;" horiz-adv-x="425" d="M332 0 L408 0 L258 700 L167 700 L17 0 L93 0 L116 113 L309 113 L332 0 Z M212 583 L293 188 L131 188 L212 583 Z M177 -65 C168 -74 163 -86 163 -100 C163 -114 168 -126 177 -136 C187 -145 199 -150 213 -150 C227 -150 239 -145 248 -136 C258 -126 263 -114 263 -100 C263 -86 258 -74 248 -65 C239 -55 227 -50 213 -50 C199 -50 187 -55 177 -65 L177 -65 Z " />
<glyph glyph-name="A.dotbl189" unicode="&#x1ea1;" horiz-adv-x="388" d="M265 90 C265 75 258 68 243 68 L146 68 C131 68 124 75 124 90 L124 190 C124 205 131 212 146 212 L243 212 C258 212 265 205 265 190 L265 90 Z M333 380 C333 405 324 426 307 443 C290 461 268 470 243 470 L89 470 L89 402 L243 402 C258 402 265 395 265 380 L265 242 C258 267 239 280 206 280 L145 280 C119 280 98 272 81 255 C64 238 55 216 55 190 L55 90 C55 65 64 44 83 27 C101 9 122 0 147 0 L206 0 C239 0 258 13 265 38 L265 0 L333 0 L333 380 Z M159 -65 C149 -74 144 -86 144 -100 C144 -114 149 -126 159 -136 C168 -145 180 -150 194 -150 C208 -150 220 -145 230 -136 C239 -126 244 -114 244 -100 C244 -86 239 -74 230 -65 C220 -55 208 -50 194 -50 C180 -50 168 -55 159 -65 L159 -65 Z " />
<glyph glyph-name="A.hook" unicode="&#x1ea2;" horiz-adv-x="425" d="M332 0 L408 0 L258 700 L167 700 L17 0 L93 0 L116 113 L309 113 L332 0 Z M212 583 L293 188 L131 188 L212 583 Z M285 850 C285 863 280 875 270 884 C261 893 250 898 237 898 L188 898 C175 898 164 893 155 884 C146 875 141 863 141 850 L141 807 L188 807 L188 850 C188 851 188 851 188 851 L237 851 C237 851 237 851 237 850 L237 820 C237 817 236 815 235 814 L182 761 L214 727 L267 781 C279 793 285 806 285 821 L285 850 Z " />
<glyph glyph-name="A.hook190" unicode="&#x1ea3;" horiz-adv-x="388" d="M265 90 C265 75 258 68 243 68 L146 68 C131 68 124 75 124 90 L124 190 C124 205 131 212 146 212 L243 212 C258 212 265 205 265 190 L265 90 Z M333 380 C333 405 324 426 307 443 C290 461 268 470 243 470 L89 470 L89 402 L243 402 C258 402 265 395 265 380 L265 242 C258 267 239 280 206 280 L145 280 C119 280 98 272 81 255 C64 238 55 216 55 190 L55 90 C55 65 64 44 83 27 C101 9 122 0 147 0 L206 0 C239 0 258 13 265 38 L265 0 L333 0 L333 380 Z M266 620 C266 633 261 645 252 654 C243 663 231 668 218 668 L170 668 C157 668 145 663 136 654 C127 645 122 633 122 620 L122 577 L169 577 L169 620 C169 621 169 621 170 621 L218 621 C219 621 219 621 219 620 L219 590 C219 587 218 585 217 584 L163 531 L195 497 L248 551 C260 563 266 576 266 591 L266 620 Z " />
<glyph glyph-name="Acir.acute" unicode="&#x1ea4;" horiz-adv-x="425" d="M332 0 L408 0 L258 700 L167 700 L17 0 L93 0 L116 113 L309 113 L332 0 Z M212 583 L293 188 L131 188 L212 583 Z M213 899 L92 779 L128 743 L213 829 L298 743 L334 779 L213 899 Z M322 858 L357 823 L482 948 L447 983 L322 858 Z " />
<glyph glyph-name="Acir.acute191" unicode="&#x1ea5;" horiz-adv-x="388" d="M265 90 C265 75 258 68 243 68 L146 68 C131 68 124 75 124 90 L124 190 C124 205 131 212 146 212 L243 212 C258 212 265 205 265 190 L265 90 Z M333 380 C333 405 324 426 307 443 C290 461 268 470 243 470 L89 470 L89 402 L243 402 C258 402 265 395 265 380 L265 242 C258 267 239 280 206 280 L145 280 C119 280 98 272 81 255 C64 238 55 216 55 190 L55 90 C55 65 64 44 83 27 C101 9 122 0 147 0 L206 0 C239 0 258 13 265 38 L265 0 L333 0 L333 380 Z M194 684 L73 564 L109 528 L194 614 L279 528 L315 564 L194 684 Z M285 683 L320 648 L445 773 L410 808 L285 683 Z " />
<glyph glyph-name="Acir.grave" unicode="&#x1ea6;" horiz-adv-x="425" d="M332 0 L408 0 L258 700 L167 700 L17 0 L93 0 L116 113 L309 113 L332 0 Z M212 583 L293 188 L131 188 L212 583 Z M213 899 L92 779 L128 743 L213 829 L298 743 L334 779 L213 899 Z M216 1054 L181 1019 L306 894 L341 929 L216 1054 Z " />
<glyph glyph-name="Acir.grave192" unicode="&#x1ea7;" horiz-adv-x="388" d="M265 90 C265 75 258 68 243 68 L146 68 C131 68 124 75 124 90 L124 190 C124 205 131 212 146 212 L243 212 C258 212 265 205 265 190 L265 90 Z M333 380 C333 405 324 426 307 443 C290 461 268 470 243 470 L89 470 L89 402 L243 402 C258 402 265 395 265 380 L265 242 C258 267 239 280 206 280 L145 280 C119 280 98 272 81 255 C64 238 55 216 55 190 L55 90 C55 65 64 44 83 27 C101 9 122 0 147 0 L206 0 C239 0 258 13 265 38 L265 0 L333 0 L333 380 Z M194 684 L73 564 L109 528 L194 614 L279 528 L315 564 L194 684 Z M199 834 L164 799 L289 674 L324 709 L199 834 Z " />
<glyph glyph-name="Acir.hook" unicode="&#x1ea8;" horiz-adv-x="425" d="M332 0 L408 0 L258 700 L167 700 L17 0 L93 0 L116 113 L309 113 L332 0 Z M212 583 L293 188 L131 188 L212 583 Z M212 900 L91 780 L127 744 L212 830 L297 744 L333 780 L212 900 Z M418 942 C418 955 413 967 403 976 C394 985 383 990 370 990 L321 990 C308 990 297 985 288 976 C279 967 274 955 274 942 L274 899 L321 899 L321 942 C321 943 321 943 321 943 L370 943 C370 943 370 943 370 942 L370 912 C370 909 369 907 368 906 L315 853 L347 819 L400 873 C412 885 418 898 418 913 L418 942 Z " />
<glyph glyph-name="Acir.hook193" unicode="&#x1ea9;" horiz-adv-x="388" d="M265 90 C265 75 258 68 243 68 L146 68 C131 68 124 75 124 90 L124 190 C124 205 131 212 146 212 L243 212 C258 212 265 205 265 190 L265 90 Z M333 380 C333 405 324 426 307 443 C290 461 268 470 243 470 L89 470 L89 402 L243 402 C258 402 265 395 265 380 L265 242 C258 267 239 280 206 280 L145 280 C119 280 98 272 81 255 C64 238 55 216 55 190 L55 90 C55 65 64 44 83 27 C101 9 122 0 147 0 L206 0 C239 0 258 13 265 38 L265 0 L333 0 L333 380 Z M194 684 L73 564 L109 528 L194 614 L279 528 L315 564 L194 684 Z M380 761 C380 774 375 786 366 795 C357 804 345 809 332 809 L284 809 C271 809 259 804 250 795 C241 786 236 774 236 761 L236 718 L283 718 L283 761 C283 762 283 762 284 762 L332 762 C333 762 333 762 333 761 L333 731 C333 728 332 726 331 725 L277 672 L309 638 L362 692 C374 704 380 717 380 732 L380 761 Z " />
<glyph glyph-name="Acir.tilde" unicode="&#x1eaa;" horiz-adv-x="425" d="M332 0 L408 0 L258 700 L167 700 L17 0 L93 0 L116 113 L309 113 L332 0 Z M212 583 L293 188 L131 188 L212 583 Z M212 898 L91 778 L127 742 L212 828 L297 742 L333 778 L212 898 Z M143 910 L202 968 L257 914 C267 904 279 899 293 899 C307 899 318 904 327 914 L384 972 L350 1007 L292 950 L237 1004 C227 1014 215 1019 201 1019 C188 1019 176 1014 167 1004 L108 944 L143 910 Z " />
<glyph glyph-name="Acir.tilde194" unicode="&#x1eab;" horiz-adv-x="388" d="M265 90 C265 75 258 68 243 68 L146 68 C131 68 124 75 124 90 L124 190 C124 205 131 212 146 212 L243 212 C258 212 265 205 265 190 L265 90 Z M333 380 C333 405 324 426 307 443 C290 461 268 470 243 470 L89 470 L89 402 L243 402 C258 402 265 395 265 380 L265 242 C258 267 239 280 206 280 L145 280 C119 280 98 272 81 255 C64 238 55 216 55 190 L55 90 C55 65 64 44 83 27 C101 9 122 0 147 0 L206 0 C239 0 258 13 265 38 L265 0 L333 0 L333 380 Z M194 684 L73 564 L109 528 L194 614 L279 528 L315 564 L194 684 Z M91 725 L150 783 L205 729 C215 719 227 714 241 714 C255 714 266 719 275 729 L332 787 L298 822 L240 765 L185 819 C175 829 163 834 149 834 C136 834 124 829 115 819 L56 759 L91 725 Z " />
<glyph glyph-name="Acir.dotbl" unicode="&#x1eac;" horiz-adv-x="425" d="M332 0 L408 0 L258 700 L167 700 L17 0 L93 0 L116 113 L309 113 L332 0 Z M212 583 L293 188 L131 188 L212 583 Z M213 914 L92 794 L128 758 L213 844 L298 758 L334 794 L213 914 Z M177 -65 C168 -74 163 -86 163 -100 C163 -114 168 -126 177 -136 C187 -145 199 -150 213 -150 C227 -150 239 -145 248 -136 C258 -126 263 -114 263 -100 C263 -86 258 -74 248 -65 C239 -55 227 -50 213 -50 C199 -50 187 -55 177 -65 L177 -65 Z " />
<glyph glyph-name="Acir.dotbl195" unicode="&#x1ead;" horiz-adv-x="388" d="M265 90 C265 75 258 68 243 68 L146 68 C131 68 124 75 124 90 L124 190 C124 205 131 212 146 212 L243 212 C258 212 265 205 265 190 L265 90 Z M333 380 C333 405 324 426 307 443 C290 461 268 470 243 470 L89 470 L89 402 L243 402 C258 402 265 395 265 380 L265 242 C258 267 239 280 206 280 L145 280 C119 280 98 272 81 255 C64 238 55 216 55 190 L55 90 C55 65 64 44 83 27 C101 9 122 0 147 0 L206 0 C239 0 258 13 265 38 L265 0 L333 0 L333 380 Z M194 684 L73 564 L109 528 L194 614 L279 528 L315 564 L194 684 Z M159 -65 C149 -74 144 -86 144 -100 C144 -114 149 -126 159 -136 C168 -145 180 -150 194 -150 C208 -150 220 -145 230 -136 C239 -126 244 -114 244 -100 C244 -86 239 -74 230 -65 C220 -55 208 -50 194 -50 C180 -50 168 -55 159 -65 L159 -65 Z " />
<glyph glyph-name="Abrv.acute" unicode="&#x1eae;" horiz-adv-x="425" d="M332 0 L408 0 L258 700 L167 700 L17 0 L93 0 L116 113 L309 113 L332 0 Z M212 583 L293 188 L131 188 L212 583 Z M298 826 C275 803 247 792 212 792 C177 792 149 803 126 826 L92 789 C125 758 165 742 212 742 C259 742 299 758 332 789 L298 826 L298 826 Z M185 868 L220 833 L345 958 L310 993 L185 868 Z " />
<glyph glyph-name="Abrv.acute196" unicode="&#x1eaf;" horiz-adv-x="388" d="M265 90 C265 75 258 68 243 68 L146 68 C131 68 124 75 124 90 L124 190 C124 205 131 212 146 212 L243 212 C258 212 265 205 265 190 L265 90 Z M333 380 C333 405 324 426 307 443 C290 461 268 470 243 470 L89 470 L89 402 L243 402 C258 402 265 395 265 380 L265 242 C258 267 239 280 206 280 L145 280 C119 280 98 272 81 255 C64 238 55 216 55 190 L55 90 C55 65 64 44 83 27 C101 9 122 0 147 0 L206 0 C239 0 258 13 265 38 L265 0 L333 0 L333 380 Z M280 603 C257 580 229 569 194 569 C159 569 131 580 108 603 L74 566 C107 535 147 519 194 519 C241 519 281 535 314 566 L280 603 L280 603 Z M165 662 L200 627 L325 752 L290 787 L165 662 Z " />
<glyph glyph-name="Abrv.grave" unicode="&#x1eb0;" horiz-adv-x="425" d="M332 0 L408 0 L258 700 L167 700 L17 0 L93 0 L116 113 L309 113 L332 0 Z M212 583 L293 188 L131 188 L212 583 Z M298 826 C275 803 247 792 212 792 C177 792 149 803 126 826 L92 789 C125 758 165 742 212 742 C259 742 299 758 332 789 L298 826 L298 826 Z M123 996 L88 961 L213 836 L248 871 L123 996 Z " />
<glyph glyph-name="Abrv.grave197" unicode="&#x1eb1;" horiz-adv-x="388" d="M265 90 C265 75 258 68 243 68 L146 68 C131 68 124 75 124 90 L124 190 C124 205 131 212 146 212 L243 212 C258 212 265 205 265 190 L265 90 Z M333 380 C333 405 324 426 307 443 C290 461 268 470 243 470 L89 470 L89 402 L243 402 C258 402 265 395 265 380 L265 242 C258 267 239 280 206 280 L145 280 C119 280 98 272 81 255 C64 238 55 216 55 190 L55 90 C55 65 64 44 83 27 C101 9 122 0 147 0 L206 0 C239 0 258 13 265 38 L265 0 L333 0 L333 380 Z M280 600 C257 577 229 566 194 566 C159 566 131 577 108 600 L74 563 C107 532 147 516 194 516 C240 516 280 532 314 563 L280 600 L280 600 Z M107 796 L72 761 L197 636 L232 671 L107 796 Z " />
<glyph glyph-name="Abrv.hook" unicode="&#x1eb2;" horiz-adv-x="425" d="M332 0 L408 0 L258 700 L167 700 L17 0 L93 0 L116 113 L309 113 L332 0 Z M212 583 L293 188 L131 188 L212 583 Z M299 828 C276 805 248 794 213 794 C178 794 150 805 127 828 L93 791 C126 760 166 744 213 744 C259 744 299 760 333 791 L299 828 L299 828 Z M289 920 C289 930 284 939 274 946 C265 953 254 956 241 956 L192 956 C179 956 168 953 159 946 C150 939 145 930 145 920 L145 888 L192 888 L192 920 C192 921 192 921 192 921 L241 921 C241 921 241 921 241 920 L241 897 C241 895 240 894 239 893 L186 853 L218 828 L271 868 C283 877 289 887 289 898 L289 920 Z " />
<glyph glyph-name="Abrv.hook198" unicode="&#x1eb3;" horiz-adv-x="388" d="M265 90 C265 75 258 68 243 68 L146 68 C131 68 124 75 124 90 L124 190 C124 205 131 212 146 212 L243 212 C258 212 265 205 265 190 L265 90 Z M333 380 C333 405 324 426 307 443 C290 461 268 470 243 470 L89 470 L89 402 L243 402 C258 402 265 395 265 380 L265 242 C258 267 239 280 206 280 L145 280 C119 280 98 272 81 255 C64 238 55 216 55 190 L55 90 C55 65 64 44 83 27 C101 9 122 0 147 0 L206 0 C239 0 258 13 265 38 L265 0 L333 0 L333 380 Z M280 608 C257 585 229 574 194 574 C159 574 131 585 108 608 L74 571 C107 540 147 524 194 524 C241 524 281 540 314 571 L280 608 L280 608 Z M263 752 C263 765 258 777 249 786 C240 795 228 800 215 800 L167 800 C154 800 142 795 133 786 C124 777 119 765 119 752 L119 709 L166 709 L166 752 C166 753 166 753 167 753 L215 753 C216 753 216 753 216 752 L216 722 C216 719 215 717 214 716 L160 663 L192 629 L245 683 C257 695 263 708 263 723 L263 752 Z " />
<glyph glyph-name="Abrv.tilde" unicode="&#x1eb4;" horiz-adv-x="425" d="M332 0 L408 0 L258 700 L167 700 L17 0 L93 0 L116 113 L309 113 L332 0 Z M212 583 L293 188 L131 188 L212 583 Z M299 828 C276 805 248 794 213 794 C178 794 150 805 127 828 L93 791 C126 760 166 744 213 744 C259 744 299 760 333 791 L299 828 L299 828 Z M108 875 L167 933 L222 879 C232 869 244 864 258 864 C271 864 283 869 292 879 L349 937 L315 972 L257 915 L202 969 C192 979 180 984 166 984 C152 984 141 979 132 969 L73 909 L108 875 Z " />
<glyph glyph-name="Abrv.tilde199" unicode="&#x1eb5;" horiz-adv-x="388" d="M265 90 C265 75 258 68 243 68 L146 68 C131 68 124 75 124 90 L124 190 C124 205 131 212 146 212 L243 212 C258 212 265 205 265 190 L265 90 Z M333 380 C333 405 324 426 307 443 C290 461 268 470 243 470 L89 470 L89 402 L243 402 C258 402 265 395 265 380 L265 242 C258 267 239 280 206 280 L145 280 C119 280 98 272 81 255 C64 238 55 216 55 190 L55 90 C55 65 64 44 83 27 C101 9 122 0 147 0 L206 0 C239 0 258 13 265 38 L265 0 L333 0 L333 380 Z M280 606 C257 583 229 572 194 572 C159 572 131 583 108 606 L74 569 C107 538 147 522 194 522 C241 522 281 538 314 569 L280 606 L280 606 Z M83 660 L142 718 L197 664 C207 654 219 649 233 649 C247 649 258 654 267 664 L324 722 L290 757 L232 700 L177 754 C167 764 155 769 141 769 C128 769 116 764 107 754 L48 694 L83 660 Z " />
<glyph glyph-name="Abrv.dotbl" unicode="&#x1eb6;" horiz-adv-x="425" d="M332 0 L408 0 L258 700 L167 700 L17 0 L93 0 L116 113 L309 113 L332 0 Z M212 583 L293 188 L131 188 L212 583 Z M299 827 C276 804 248 793 213 793 C178 793 150 804 127 827 L93 790 C126 759 166 743 213 743 C259 743 299 759 333 790 L299 827 L299 827 Z M177 -65 C168 -74 163 -86 163 -100 C163 -114 168 -126 177 -136 C187 -145 199 -150 213 -150 C227 -150 239 -145 248 -136 C258 -126 263 -114 263 -100 C263 -86 258 -74 248 -65 C239 -55 227 -50 213 -50 C199 -50 187 -55 177 -65 L177 -65 Z " />
<glyph glyph-name="Abrv.dotbl200" unicode="&#x1eb7;" horiz-adv-x="388" d="M265 90 C265 75 258 68 243 68 L146 68 C131 68 124 75 124 90 L124 190 C124 205 131 212 146 212 L243 212 C258 212 265 205 265 190 L265 90 Z M333 380 C333 405 324 426 307 443 C290 461 268 470 243 470 L89 470 L89 402 L243 402 C258 402 265 395 265 380 L265 242 C258 267 239 280 206 280 L145 280 C119 280 98 272 81 255 C64 238 55 216 55 190 L55 90 C55 65 64 44 83 27 C101 9 122 0 147 0 L206 0 C239 0 258 13 265 38 L265 0 L333 0 L333 380 Z M290 611 C267 588 239 577 204 577 C169 577 141 588 118 611 L84 574 C117 543 157 527 204 527 C251 527 291 543 324 574 L290 611 L290 611 Z M159 -65 C149 -74 144 -86 144 -100 C144 -114 149 -126 159 -136 C168 -145 180 -150 194 -150 C208 -150 220 -145 230 -136 C239 -126 244 -114 244 -100 C244 -86 239 -74 230 -65 C220 -55 208 -50 194 -50 C180 -50 168 -55 159 -65 L159 -65 Z " />
<glyph glyph-name="E.dotbl" unicode="&#x1eb8;" horiz-adv-x="360" d="M330 75 L130 75 L130 333 L280 333 L280 408 L130 408 L130 625 L330 625 L330 700 L55 700 L55 0 L330 0 L330 75 Z M157 -65 C148 -74 143 -86 143 -100 C143 -114 148 -126 157 -136 C167 -145 179 -150 193 -150 C207 -150 219 -145 228 -136 C238 -126 243 -114 243 -100 C243 -86 238 -74 228 -65 C219 -55 207 -50 193 -50 C179 -50 167 -55 157 -65 L157 -65 Z " />
<glyph glyph-name="E.dotbl201" unicode="&#x1eb9;" horiz-adv-x="388" d="M123 259 L123 380 C123 395 130 402 145 402 L243 402 C258 402 265 395 265 380 L265 259 L123 259 Z M333 380 C333 405 324 426 307 443 C290 461 268 470 243 470 L145 470 C120 470 99 461 82 443 C64 426 55 405 55 380 L55 90 C55 65 64 44 82 27 C99 9 120 0 145 0 L300 0 L300 68 L145 68 C130 68 123 75 123 90 L123 192 L333 192 L333 380 Z M159 -65 C149 -74 144 -86 144 -100 C144 -114 149 -126 159 -136 C168 -145 180 -150 194 -150 C208 -150 220 -145 230 -136 C239 -126 244 -114 244 -100 C244 -86 239 -74 230 -65 C220 -55 208 -50 194 -50 C180 -50 168 -55 159 -65 L159 -65 Z " />
<glyph glyph-name="E.hook" unicode="&#x1eba;" horiz-adv-x="360" d="M330 75 L130 75 L130 333 L280 333 L280 408 L130 408 L130 625 L330 625 L330 700 L55 700 L55 0 L330 0 L330 75 Z M265 850 C265 863 260 875 250 884 C241 893 230 898 217 898 L168 898 C155 898 144 893 135 884 C126 875 121 863 121 850 L121 807 L168 807 L168 850 C168 851 168 851 168 851 L217 851 C217 851 217 851 217 850 L217 820 C217 817 216 815 215 814 L162 761 L194 727 L247 781 C259 793 265 806 265 821 L265 850 Z " />
<glyph glyph-name="E.hook202" unicode="&#x1ebb;" horiz-adv-x="388" d="M123 259 L123 380 C123 395 130 402 145 402 L243 402 C258 402 265 395 265 380 L265 259 L123 259 Z M333 380 C333 405 324 426 307 443 C290 461 268 470 243 470 L145 470 C120 470 99 461 82 443 C64 426 55 405 55 380 L55 90 C55 65 64 44 82 27 C99 9 120 0 145 0 L300 0 L300 68 L145 68 C130 68 123 75 123 90 L123 192 L333 192 L333 380 Z M266 620 C266 633 261 645 252 654 C243 663 231 668 218 668 L170 668 C157 668 145 663 136 654 C127 645 122 633 122 620 L122 577 L169 577 L169 620 C169 621 169 621 170 621 L218 621 C219 621 219 621 219 620 L219 590 C219 587 218 585 217 584 L163 531 L195 497 L248 551 C260 563 266 576 266 591 L266 620 Z " />
<glyph glyph-name="E.tilde" unicode="&#x1ebc;" horiz-adv-x="360" d="M330 75 L130 75 L130 333 L280 333 L280 408 L130 408 L130 625 L330 625 L330 700 L55 700 L55 0 L330 0 L330 75 Z M90 788 L149 846 L204 792 C214 782 226 777 240 777 C253 777 265 782 274 792 L331 850 L297 885 L239 828 L184 882 C174 892 162 897 148 897 C134 897 123 892 114 882 L55 822 L90 788 Z " />
<glyph glyph-name="E.tilde203" unicode="&#x1ebd;" horiz-adv-x="388" d="M123 259 L123 380 C123 395 130 402 145 402 L243 402 C258 402 265 395 265 380 L265 259 L123 259 Z M333 380 C333 405 324 426 307 443 C290 461 268 470 243 470 L145 470 C120 470 99 461 82 443 C64 426 55 405 55 380 L55 90 C55 65 64 44 82 27 C99 9 120 0 145 0 L300 0 L300 68 L145 68 C130 68 123 75 123 90 L123 192 L333 192 L333 380 Z M91 558 L150 616 L205 562 C215 552 227 547 241 547 C255 547 266 552 275 562 L332 620 L298 655 L240 598 L185 652 C175 662 163 667 149 667 C136 667 124 662 115 652 L56 592 L91 558 Z " />
<glyph glyph-name="Ecir.acute" unicode="&#x1ebe;" horiz-adv-x="360" d="M330 75 L130 75 L130 333 L280 333 L280 408 L130 408 L130 625 L330 625 L330 700 L55 700 L55 0 L330 0 L330 75 Z M193 899 L72 779 L108 743 L193 829 L278 743 L314 779 L193 899 Z M302 858 L337 823 L462 948 L427 983 L302 858 Z " />
<glyph glyph-name="Ecir.acute204" unicode="&#x1ebf;" horiz-adv-x="388" d="M123 259 L123 380 C123 395 130 402 145 402 L243 402 C258 402 265 395 265 380 L265 259 L123 259 Z M333 380 C333 405 324 426 307 443 C290 461 268 470 243 470 L145 470 C120 470 99 461 82 443 C64 426 55 405 55 380 L55 90 C55 65 64 44 82 27 C99 9 120 0 145 0 L300 0 L300 68 L145 68 C130 68 123 75 123 90 L123 192 L333 192 L333 380 Z M194 684 L73 564 L109 528 L194 614 L279 528 L315 564 L194 684 Z M297 669 L332 634 L457 759 L422 794 L297 669 Z " />
<glyph glyph-name="Ecir.grave" unicode="&#x1ec0;" horiz-adv-x="360" d="M330 75 L130 75 L130 333 L280 333 L280 408 L130 408 L130 625 L330 625 L330 700 L55 700 L55 0 L330 0 L330 75 Z M193 899 L72 779 L108 743 L193 829 L278 743 L314 779 L193 899 Z M196 1054 L161 1019 L286 894 L321 929 L196 1054 Z " />
<glyph glyph-name="Ecir.grave205" unicode="&#x1ec1;" horiz-adv-x="388" d="M123 259 L123 380 C123 395 130 402 145 402 L243 402 C258 402 265 395 265 380 L265 259 L123 259 Z M333 380 C333 405 324 426 307 443 C290 461 268 470 243 470 L145 470 C120 470 99 461 82 443 C64 426 55 405 55 380 L55 90 C55 65 64 44 82 27 C99 9 120 0 145 0 L300 0 L300 68 L145 68 C130 68 123 75 123 90 L123 192 L333 192 L333 380 Z M194 684 L73 564 L109 528 L194 614 L279 528 L315 564 L194 684 Z M212 839 L177 804 L302 679 L337 714 L212 839 Z " />
<glyph glyph-name="Ecir.hook" unicode="&#x1ec2;" horiz-adv-x="360" d="M330 75 L130 75 L130 333 L280 333 L280 408 L130 408 L130 625 L330 625 L330 700 L55 700 L55 0 L330 0 L330 75 Z M192 900 L71 780 L107 744 L192 830 L277 744 L313 780 L192 900 Z M398 942 C398 955 393 967 383 976 C374 985 363 990 350 990 L301 990 C288 990 277 985 268 976 C259 967 254 955 254 942 L254 899 L301 899 L301 942 C301 943 301 943 301 943 L350 943 C350 943 350 943 350 942 L350 912 C350 909 349 907 348 906 L295 853 L327 819 L380 873 C392 885 398 898 398 913 L398 942 Z " />
<glyph glyph-name="Ecir.hook206" unicode="&#x1ec3;" horiz-adv-x="388" d="M123 259 L123 380 C123 395 130 402 145 402 L243 402 C258 402 265 395 265 380 L265 259 L123 259 Z M333 380 C333 405 324 426 307 443 C290 461 268 470 243 470 L145 470 C120 470 99 461 82 443 C64 426 55 405 55 380 L55 90 C55 65 64 44 82 27 C99 9 120 0 145 0 L300 0 L300 68 L145 68 C130 68 123 75 123 90 L123 192 L333 192 L333 380 Z M194 684 L73 564 L109 528 L194 614 L279 528 L315 564 L194 684 Z M383 759 C383 772 378 784 369 793 C360 802 348 807 335 807 L287 807 C274 807 262 802 253 793 C244 784 239 772 239 759 L239 716 L286 716 L286 759 C286 760 286 760 287 760 L335 760 C336 760 336 760 336 759 L336 729 C336 726 335 724 334 723 L280 670 L312 636 L365 690 C377 702 383 715 383 730 L383 759 Z " />
<glyph glyph-name="Ecir.tilde" unicode="&#x1ec4;" horiz-adv-x="360" d="M330 75 L130 75 L130 333 L280 333 L280 408 L130 408 L130 625 L330 625 L330 700 L55 700 L55 0 L330 0 L330 75 Z M192 898 L71 778 L107 742 L192 828 L277 742 L313 778 L192 898 Z M123 910 L182 968 L237 914 C247 904 259 899 273 899 C287 899 298 904 307 914 L364 972 L330 1007 L272 950 L217 1004 C207 1014 195 1019 181 1019 C168 1019 156 1014 147 1004 L88 944 L123 910 Z " />
<glyph glyph-name="Ecir.tilde207" unicode="&#x1ec5;" horiz-adv-x="388" d="M123 259 L123 380 C123 395 130 402 145 402 L243 402 C258 402 265 395 265 380 L265 259 L123 259 Z M333 380 C333 405 324 426 307 443 C290 461 268 470 243 470 L145 470 C120 470 99 461 82 443 C64 426 55 405 55 380 L55 90 C55 65 64 44 82 27 C99 9 120 0 145 0 L300 0 L300 68 L145 68 C130 68 123 75 123 90 L123 192 L333 192 L333 380 Z M194 684 L73 564 L109 528 L194 614 L279 528 L315 564 L194 684 Z M91 725 L150 783 L205 729 C215 719 227 714 241 714 C255 714 266 719 275 729 L332 787 L298 822 L240 765 L185 819 C175 829 163 834 149 834 C136 834 124 829 115 819 L56 759 L91 725 Z " />
<glyph glyph-name="Ecir.dotbl" unicode="&#x1ec6;" horiz-adv-x="360" d="M330 75 L130 75 L130 333 L280 333 L280 408 L130 408 L130 625 L330 625 L330 700 L55 700 L55 0 L330 0 L330 75 Z M193 914 L72 794 L108 758 L193 844 L278 758 L314 794 L193 914 Z M157 -65 C148 -74 143 -86 143 -100 C143 -114 148 -126 157 -136 C167 -145 179 -150 193 -150 C207 -150 219 -145 228 -136 C238 -126 243 -114 243 -100 C243 -86 238 -74 228 -65 C219 -55 207 -50 193 -50 C179 -50 167 -55 157 -65 L157 -65 Z " />
<glyph glyph-name="Ecir.dotbl208" unicode="&#x1ec7;" horiz-adv-x="388" d="M123 259 L123 380 C123 395 130 402 145 402 L243 402 C258 402 265 395 265 380 L265 259 L123 259 Z M333 380 C333 405 324 426 307 443 C290 461 268 470 243 470 L145 470 C120 470 99 461 82 443 C64 426 55 405 55 380 L55 90 C55 65 64 44 82 27 C99 9 120 0 145 0 L300 0 L300 68 L145 68 C130 68 123 75 123 90 L123 192 L333 192 L333 380 Z M194 684 L73 564 L109 528 L194 614 L279 528 L315 564 L194 684 Z M159 -65 C149 -74 144 -86 144 -100 C144 -114 149 -126 159 -136 C168 -145 180 -150 194 -150 C208 -150 220 -145 230 -136 C239 -126 244 -114 244 -100 C244 -86 239 -74 230 -65 C220 -55 208 -50 194 -50 C180 -50 168 -55 159 -65 L159 -65 Z " />
<glyph glyph-name="I.hook" unicode="&#x1ec8;" horiz-adv-x="185" d="M130 700 L55 700 L55 0 L130 0 L130 700 Z M165 850 C165 863 160 875 150 884 C141 893 130 898 117 898 L68 898 C55 898 44 893 35 884 C26 875 21 863 21 850 L21 807 L68 807 L68 850 C68 851 68 851 68 851 L117 851 C117 851 117 851 117 850 L117 820 C117 817 116 815 115 814 L62 761 L94 727 L147 781 C159 793 165 806 165 821 L165 850 Z " />
<glyph glyph-name="I.hook209" unicode="&#x1ec9;" horiz-adv-x="178" d="M123 470 L55 470 L55 0 L123 0 L123 470 Z M161 620 C161 633 156 645 147 654 C138 663 126 668 113 668 L65 668 C52 668 40 663 31 654 C22 645 17 633 17 620 L17 577 L64 577 L64 620 C64 621 64 621 65 621 L113 621 C114 621 114 621 114 620 L114 590 C114 587 113 585 112 584 L58 531 L90 497 L143 551 C155 563 161 576 161 591 L161 620 Z " />
<glyph glyph-name="I.dotbl" unicode="&#x1eca;" horiz-adv-x="185" d="M130 700 L55 700 L55 0 L130 0 L130 700 Z M57 -65 C48 -74 43 -86 43 -100 C43 -114 48 -126 57 -136 C67 -145 79 -150 93 -150 C107 -150 119 -145 128 -136 C138 -126 143 -114 143 -100 C143 -86 138 -74 128 -65 C119 -55 107 -50 93 -50 C79 -50 67 -55 57 -65 L57 -65 Z " />
<glyph glyph-name="I.dotbl210" unicode="&#x1ecb;" horiz-adv-x="178" d="M123 470 L55 470 L55 0 L123 0 L123 470 Z M58 640 C49 631 44 621 44 608 C44 595 49 585 58 576 C67 567 77 562 90 562 C103 562 113 567 122 576 C131 585 136 595 136 608 C136 621 131 631 122 640 C113 649 103 654 90 654 C77 654 67 649 58 640 L58 640 Z M55 -65 C45 -74 40 -86 40 -100 C40 -114 45 -126 55 -136 C64 -145 76 -150 90 -150 C104 -150 116 -145 126 -136 C135 -126 140 -114 140 -100 C140 -86 135 -74 126 -65 C116 -55 104 -50 90 -50 C76 -50 64 -55 55 -65 L55 -65 Z " />
<glyph glyph-name="O.dotbl" unicode="&#x1ecc;" horiz-adv-x="435" d="M305 100 C305 83 297 75 280 75 L155 75 C138 75 130 83 130 100 L130 600 C130 617 138 625 155 625 L280 625 C297 625 305 617 305 600 L305 100 Z M380 600 C380 627 370 651 351 671 C331 690 307 700 280 700 L155 700 C128 700 104 690 84 671 C65 651 55 627 55 600 L55 100 C55 73 65 49 84 29 C104 10 128 0 155 0 L280 0 C307 0 331 10 351 29 C370 49 380 73 380 100 L380 600 Z M182 -65 C173 -74 168 -86 168 -100 C168 -114 173 -126 182 -136 C192 -145 204 -150 218 -150 C232 -150 244 -145 253 -136 C263 -126 268 -114 268 -100 C268 -86 263 -74 253 -65 C244 -55 232 -50 218 -50 C204 -50 192 -55 182 -65 L182 -65 Z " />
<glyph glyph-name="O.dotbl211" unicode="&#x1ecd;" horiz-adv-x="388" d="M265 90 C265 75 258 68 243 68 L145 68 C130 68 123 75 123 90 L123 380 C123 395 130 402 145 402 L243 402 C258 402 265 395 265 380 L265 90 Z M333 380 C333 405 324 427 307 444 C290 461 268 470 243 470 L145 470 C120 470 99 461 82 444 C64 427 55 405 55 380 L55 90 C55 65 64 44 82 27 C99 9 120 0 145 0 L243 0 C268 0 290 9 307 27 C324 44 333 65 333 90 L333 380 Z M159 -65 C149 -74 144 -86 144 -100 C144 -114 149 -126 159 -136 C168 -145 180 -150 194 -150 C208 -150 220 -145 230 -136 C239 -126 244 -114 244 -100 C244 -86 239 -74 230 -65 C220 -55 208 -50 194 -50 C180 -50 168 -55 159 -65 L159 -65 Z " />
<glyph glyph-name="O.hook" unicode="&#x1ece;" horiz-adv-x="435" d="M305 100 C305 83 297 75 280 75 L155 75 C138 75 130 83 130 100 L130 600 C130 617 138 625 155 625 L280 625 C297 625 305 617 305 600 L305 100 Z M380 600 C380 627 370 651 351 671 C331 690 307 700 280 700 L155 700 C128 700 104 690 84 671 C65 651 55 627 55 600 L55 100 C55 73 65 49 84 29 C104 10 128 0 155 0 L280 0 C307 0 331 10 351 29 C370 49 380 73 380 100 L380 600 Z M290 850 C290 863 285 875 275 884 C266 893 255 898 242 898 L193 898 C180 898 169 893 160 884 C151 875 146 863 146 850 L146 807 L193 807 L193 850 C193 851 193 851 193 851 L242 851 C242 851 242 851 242 850 L242 820 C242 817 241 815 240 814 L187 761 L219 727 L272 781 C284 793 290 806 290 821 L290 850 Z " />
<glyph glyph-name="O.hook213" unicode="&#x1ecf;" horiz-adv-x="388" d="M265 90 C265 75 258 68 243 68 L145 68 C130 68 123 75 123 90 L123 380 C123 395 130 402 145 402 L243 402 C258 402 265 395 265 380 L265 90 Z M333 380 C333 405 324 427 307 444 C290 461 268 470 243 470 L145 470 C120 470 99 461 82 444 C64 427 55 405 55 380 L55 90 C55 65 64 44 82 27 C99 9 120 0 145 0 L243 0 C268 0 290 9 307 27 C324 44 333 65 333 90 L333 380 Z M266 620 C266 633 261 645 252 654 C243 663 231 668 218 668 L170 668 C157 668 145 663 136 654 C127 645 122 633 122 620 L122 577 L169 577 L169 620 C169 621 169 621 170 621 L218 621 C219 621 219 621 219 620 L219 590 C219 587 218 585 217 584 L163 531 L195 497 L248 551 C260 563 266 576 266 591 L266 620 Z " />
<glyph glyph-name="Ocir.acute" unicode="&#x1ed0;" horiz-adv-x="435" d="M305 100 C305 83 297 75 280 75 L155 75 C138 75 130 83 130 100 L130 600 C130 617 138 625 155 625 L280 625 C297 625 305 617 305 600 L305 100 Z M380 600 C380 627 370 651 351 671 C331 690 307 700 280 700 L155 700 C128 700 104 690 84 671 C65 651 55 627 55 600 L55 100 C55 73 65 49 84 29 C104 10 128 0 155 0 L280 0 C307 0 331 10 351 29 C370 49 380 73 380 100 L380 600 Z M218 899 L97 779 L133 743 L218 829 L303 743 L339 779 L218 899 Z M327 858 L362 823 L487 948 L452 983 L327 858 Z " />
<glyph glyph-name="Ocir.acute214" unicode="&#x1ed1;" horiz-adv-x="388" d="M265 90 C265 75 258 68 243 68 L145 68 C130 68 123 75 123 90 L123 380 C123 395 130 402 145 402 L243 402 C258 402 265 395 265 380 L265 90 Z M333 380 C333 405 324 427 307 444 C290 461 268 470 243 470 L145 470 C120 470 99 461 82 444 C64 427 55 405 55 380 L55 90 C55 65 64 44 82 27 C99 9 120 0 145 0 L243 0 C268 0 290 9 307 27 C324 44 333 65 333 90 L333 380 Z M194 684 L73 564 L109 528 L194 614 L279 528 L315 564 L194 684 Z M291 676 L326 641 L451 766 L416 801 L291 676 Z " />
<glyph glyph-name="Ocir.grave" unicode="&#x1ed2;" horiz-adv-x="435" d="M305 100 C305 83 297 75 280 75 L155 75 C138 75 130 83 130 100 L130 600 C130 617 138 625 155 625 L280 625 C297 625 305 617 305 600 L305 100 Z M380 600 C380 627 370 651 351 671 C331 690 307 700 280 700 L155 700 C128 700 104 690 84 671 C65 651 55 627 55 600 L55 100 C55 73 65 49 84 29 C104 10 128 0 155 0 L280 0 C307 0 331 10 351 29 C370 49 380 73 380 100 L380 600 Z M218 899 L97 779 L133 743 L218 829 L303 743 L339 779 L218 899 Z M221 1054 L186 1019 L311 894 L346 929 L221 1054 Z " />
<glyph glyph-name="Ocir.grave215" unicode="&#x1ed3;" horiz-adv-x="388" d="M265 90 C265 75 258 68 243 68 L145 68 C130 68 123 75 123 90 L123 380 C123 395 130 402 145 402 L243 402 C258 402 265 395 265 380 L265 90 Z M333 380 C333 405 324 427 307 444 C290 461 268 470 243 470 L145 470 C120 470 99 461 82 444 C64 427 55 405 55 380 L55 90 C55 65 64 44 82 27 C99 9 120 0 145 0 L243 0 C268 0 290 9 307 27 C324 44 333 65 333 90 L333 380 Z M194 684 L73 564 L109 528 L194 614 L279 528 L315 564 L194 684 Z M229 766 L194 731 L319 606 L354 641 L229 766 Z " />
<glyph glyph-name="Ocir.hook" unicode="&#x1ed4;" horiz-adv-x="435" d="M305 100 C305 83 297 75 280 75 L155 75 C138 75 130 83 130 100 L130 600 C130 617 138 625 155 625 L280 625 C297 625 305 617 305 600 L305 100 Z M380 600 C380 627 370 651 351 671 C331 690 307 700 280 700 L155 700 C128 700 104 690 84 671 C65 651 55 627 55 600 L55 100 C55 73 65 49 84 29 C104 10 128 0 155 0 L280 0 C307 0 331 10 351 29 C370 49 380 73 380 100 L380 600 Z M217 900 L96 780 L132 744 L217 830 L302 744 L338 780 L217 900 Z M423 942 C423 955 418 967 408 976 C399 985 388 990 375 990 L326 990 C313 990 302 985 293 976 C284 967 279 955 279 942 L279 899 L326 899 L326 942 C326 943 326 943 326 943 L375 943 C375 943 375 943 375 942 L375 912 C375 909 374 907 373 906 L320 853 L352 819 L405 873 C417 885 423 898 423 913 L423 942 Z " />
<glyph glyph-name="Ocir.hook216" unicode="&#x1ed5;" horiz-adv-x="388" d="M265 90 C265 75 258 68 243 68 L145 68 C130 68 123 75 123 90 L123 380 C123 395 130 402 145 402 L243 402 C258 402 265 395 265 380 L265 90 Z M333 380 C333 405 324 427 307 444 C290 461 268 470 243 470 L145 470 C120 470 99 461 82 444 C64 427 55 405 55 380 L55 90 C55 65 64 44 82 27 C99 9 120 0 145 0 L243 0 C268 0 290 9 307 27 C324 44 333 65 333 90 L333 380 Z M194 684 L73 564 L109 528 L194 614 L279 528 L315 564 L194 684 Z M381 763 C381 776 376 788 367 797 C358 806 346 811 333 811 L285 811 C272 811 260 806 251 797 C242 788 237 776 237 763 L237 720 L284 720 L284 763 C284 764 284 764 285 764 L333 764 C334 764 334 764 334 763 L334 733 C334 730 333 728 332 727 L278 674 L310 640 L363 694 C375 706 381 719 381 734 L381 763 Z " />
<glyph glyph-name="Ocir.tilde" unicode="&#x1ed6;" horiz-adv-x="435" d="M305 100 C305 83 297 75 280 75 L155 75 C138 75 130 83 130 100 L130 600 C130 617 138 625 155 625 L280 625 C297 625 305 617 305 600 L305 100 Z M380 600 C380 627 370 651 351 671 C331 690 307 700 280 700 L155 700 C128 700 104 690 84 671 C65 651 55 627 55 600 L55 100 C55 73 65 49 84 29 C104 10 128 0 155 0 L280 0 C307 0 331 10 351 29 C370 49 380 73 380 100 L380 600 Z M217 898 L96 778 L132 742 L217 828 L302 742 L338 778 L217 898 Z M148 910 L207 968 L262 914 C272 904 284 899 298 899 C312 899 323 904 332 914 L389 972 L355 1007 L297 950 L242 1004 C232 1014 220 1019 206 1019 C193 1019 181 1014 172 1004 L113 944 L148 910 Z " />
<glyph glyph-name="Ocir.tilde217" unicode="&#x1ed7;" horiz-adv-x="388" d="M265 90 C265 75 258 68 243 68 L145 68 C130 68 123 75 123 90 L123 380 C123 395 130 402 145 402 L243 402 C258 402 265 395 265 380 L265 90 Z M333 380 C333 405 324 427 307 444 C290 461 268 470 243 470 L145 470 C120 470 99 461 82 444 C64 427 55 405 55 380 L55 90 C55 65 64 44 82 27 C99 9 120 0 145 0 L243 0 C268 0 290 9 307 27 C324 44 333 65 333 90 L333 380 Z M194 684 L73 564 L109 528 L194 614 L279 528 L315 564 L194 684 Z M91 725 L150 783 L205 729 C215 719 227 714 241 714 C255 714 266 719 275 729 L332 787 L298 822 L240 765 L185 819 C175 829 163 834 149 834 C136 834 124 829 115 819 L56 759 L91 725 Z " />
<glyph glyph-name="Ocir.dotbl" unicode="&#x1ed8;" horiz-adv-x="435" d="M305 100 C305 83 297 75 280 75 L155 75 C138 75 130 83 130 100 L130 600 C130 617 138 625 155 625 L280 625 C297 625 305 617 305 600 L305 100 Z M380 600 C380 627 370 651 351 671 C331 690 307 700 280 700 L155 700 C128 700 104 690 84 671 C65 651 55 627 55 600 L55 100 C55 73 65 49 84 29 C104 10 128 0 155 0 L280 0 C307 0 331 10 351 29 C370 49 380 73 380 100 L380 600 Z M218 914 L97 794 L133 758 L218 844 L303 758 L339 794 L218 914 Z M182 -65 C173 -74 168 -86 168 -100 C168 -114 173 -126 182 -136 C192 -145 204 -150 218 -150 C232 -150 244 -145 253 -136 C263 -126 268 -114 268 -100 C268 -86 263 -74 253 -65 C244 -55 232 -50 218 -50 C204 -50 192 -55 182 -65 L182 -65 Z " />
<glyph glyph-name="Ocir.dotbl219" unicode="&#x1ed9;" horiz-adv-x="388" d="M265 90 C265 75 258 68 243 68 L145 68 C130 68 123 75 123 90 L123 380 C123 395 130 402 145 402 L243 402 C258 402 265 395 265 380 L265 90 Z M333 380 C333 405 324 427 307 444 C290 461 268 470 243 470 L145 470 C120 470 99 461 82 444 C64 427 55 405 55 380 L55 90 C55 65 64 44 82 27 C99 9 120 0 145 0 L243 0 C268 0 290 9 307 27 C324 44 333 65 333 90 L333 380 Z M194 684 L73 564 L109 528 L194 614 L279 528 L315 564 L194 684 Z M159 -65 C149 -74 144 -86 144 -100 C144 -114 149 -126 159 -136 C168 -145 180 -150 194 -150 C208 -150 220 -145 230 -136 C239 -126 244 -114 244 -100 C244 -86 239 -74 230 -65 C220 -55 208 -50 194 -50 C180 -50 168 -55 159 -65 L159 -65 Z " />
<glyph glyph-name="Ohorn.acute" unicode="&#x1eda;" horiz-adv-x="435" d="M305 100 C305 83 297 75 280 75 L155 75 C138 75 130 83 130 100 L130 600 C130 617 138 625 155 625 L280 625 C297 625 305 617 305 600 L305 100 Z M366 652 C373 655 378 658 381 661 C393 673 399 689 399 708 L399 754 L344 754 L344 708 C344 702 329 699 300 698 C293 699 287 700 280 700 L155 700 C128 700 104 690 84 671 C65 651 55 627 55 600 L55 100 C55 73 65 49 84 29 C104 10 128 0 155 0 L280 0 C307 0 331 10 351 29 C370 49 380 73 380 100 L380 600 C380 619 375 637 366 652 L366 652 Z M174 793 L209 758 L334 883 L299 918 L174 793 Z " />
<glyph glyph-name="Ohorn.acute220" unicode="&#x1edb;" horiz-adv-x="388" d="M265 90 C265 75 258 68 243 68 L145 68 C130 68 123 75 123 90 L123 380 C123 395 130 402 145 402 L243 402 C258 402 265 395 265 380 L265 90 Z M322 425 C325 426 327 428 329 430 C341 442 347 458 347 477 L347 523 L292 523 L292 477 C292 472 283 469 264 468 C257 469 250 470 243 470 L145 470 C120 470 99 461 82 444 C64 427 55 405 55 380 L55 90 C55 65 64 44 82 27 C99 9 120 0 145 0 L243 0 C268 0 290 9 307 27 C324 44 333 65 333 90 L333 380 C333 397 329 412 322 425 L322 425 Z M122 563 L157 528 L282 653 L247 688 L122 563 Z " />
<glyph glyph-name="Ohorn.grave" unicode="&#x1edc;" horiz-adv-x="435" d="M305 100 C305 83 297 75 280 75 L155 75 C138 75 130 83 130 100 L130 600 C130 617 138 625 155 625 L280 625 C297 625 305 617 305 600 L305 100 Z M366 652 C373 655 378 658 381 661 C393 673 399 689 399 708 L399 754 L344 754 L344 708 C344 702 329 699 300 698 C293 699 287 700 280 700 L155 700 C128 700 104 690 84 671 C65 651 55 627 55 600 L55 100 C55 73 65 49 84 29 C104 10 128 0 155 0 L280 0 C307 0 331 10 351 29 C370 49 380 73 380 100 L380 600 C380 619 375 637 366 652 L366 652 Z M155 918 L120 883 L245 758 L280 793 L155 918 Z " />
<glyph glyph-name="Ohorn.grave218" unicode="&#x1edd;" horiz-adv-x="388" d="M265 90 C265 75 258 68 243 68 L145 68 C130 68 123 75 123 90 L123 380 C123 395 130 402 145 402 L243 402 C258 402 265 395 265 380 L265 90 Z M322 425 C325 426 327 428 329 430 C341 442 347 458 347 477 L347 523 L292 523 L292 477 C292 472 283 469 264 468 C257 469 250 470 243 470 L145 470 C120 470 99 461 82 444 C64 427 55 405 55 380 L55 90 C55 65 64 44 82 27 C99 9 120 0 145 0 L243 0 C268 0 290 9 307 27 C324 44 333 65 333 90 L333 380 C333 397 329 412 322 425 L322 425 Z M83 688 L48 653 L173 528 L208 563 L83 688 Z " />
<glyph glyph-name="Ohorn.hook" unicode="&#x1ede;" horiz-adv-x="435" d="M305 100 C305 83 297 75 280 75 L155 75 C138 75 130 83 130 100 L130 600 C130 617 138 625 155 625 L280 625 C297 625 305 617 305 600 L305 100 Z M366 652 C373 655 378 658 381 661 C393 673 399 689 399 708 L399 754 L344 754 L344 708 C344 702 329 699 300 698 C293 699 287 700 280 700 L155 700 C128 700 104 690 84 671 C65 651 55 627 55 600 L55 100 C55 73 65 49 84 29 C104 10 128 0 155 0 L280 0 C307 0 331 10 351 29 C370 49 380 73 380 100 L380 600 C380 619 375 637 366 652 L366 652 Z M299 850 C299 863 294 875 285 884 C276 893 264 898 251 898 L203 898 C190 898 178 893 169 884 C160 875 155 863 155 850 L155 807 L202 807 L202 850 C202 851 202 851 203 851 L251 851 C252 851 252 851 252 850 L252 820 C252 817 251 815 250 814 L196 761 L228 727 L281 781 C293 793 299 806 299 821 L299 850 Z " />
<glyph glyph-name="Ohorn.hook221" unicode="&#x1edf;" horiz-adv-x="388" d="M265 90 C265 75 258 68 243 68 L145 68 C130 68 123 75 123 90 L123 380 C123 395 130 402 145 402 L243 402 C258 402 265 395 265 380 L265 90 Z M322 425 C325 426 327 428 329 430 C341 442 347 458 347 477 L347 523 L292 523 L292 477 C292 472 283 469 264 468 C257 469 250 470 243 470 L145 470 C120 470 99 461 82 444 C64 427 55 405 55 380 L55 90 C55 65 64 44 82 27 C99 9 120 0 145 0 L243 0 C268 0 290 9 307 27 C324 44 333 65 333 90 L333 380 C333 397 329 412 322 425 L322 425 Z M256 620 C256 633 251 645 242 654 C233 663 221 668 208 668 L160 668 C147 668 135 663 126 654 C117 645 112 633 112 620 L112 577 L159 577 L159 620 C159 621 159 621 160 621 L208 621 C209 621 209 621 209 620 L209 590 C209 587 208 585 207 584 L153 531 L185 497 L238 551 C250 563 256 576 256 591 L256 620 Z " />
<glyph glyph-name="Ohorn.tilde" unicode="&#x1ee0;" horiz-adv-x="435" d="M305 100 C305 83 297 75 280 75 L155 75 C138 75 130 83 130 100 L130 600 C130 617 138 625 155 625 L280 625 C297 625 305 617 305 600 L305 100 Z M366 652 C373 655 378 658 381 661 C393 673 399 689 399 708 L399 754 L344 754 L344 708 C344 702 329 699 300 698 C293 699 287 700 280 700 L155 700 C128 700 104 690 84 671 C65 651 55 627 55 600 L55 100 C55 73 65 49 84 29 C104 10 128 0 155 0 L280 0 C307 0 331 10 351 29 C370 49 380 73 380 100 L380 600 C380 619 375 637 366 652 L366 652 Z M124 788 L183 846 L238 792 C248 782 260 777 274 777 C288 777 299 782 308 792 L365 850 L331 885 L273 828 L218 882 C208 892 196 897 182 897 C169 897 157 892 148 882 L89 822 L124 788 Z " />
<glyph glyph-name="Ohorn.tilde222" unicode="&#x1ee1;" horiz-adv-x="388" d="M265 90 C265 75 258 68 243 68 L145 68 C130 68 123 75 123 90 L123 380 C123 395 130 402 145 402 L243 402 C258 402 265 395 265 380 L265 90 Z M322 425 C325 426 327 428 329 430 C341 442 347 458 347 477 L347 523 L292 523 L292 477 C292 472 283 469 264 468 C257 469 250 470 243 470 L145 470 C120 470 99 461 82 444 C64 427 55 405 55 380 L55 90 C55 65 64 44 82 27 C99 9 120 0 145 0 L243 0 C268 0 290 9 307 27 C324 44 333 65 333 90 L333 380 C333 397 329 412 322 425 L322 425 Z M61 558 L120 616 L175 562 C185 552 197 547 211 547 C225 547 236 552 245 562 L302 620 L268 655 L210 598 L155 652 C145 662 133 667 119 667 C106 667 94 662 85 652 L26 592 L61 558 Z " />
<glyph glyph-name="Ohorn.dotbl" unicode="&#x1ee2;" horiz-adv-x="435" d="M305 100 C305 83 297 75 280 75 L155 75 C138 75 130 83 130 100 L130 600 C130 617 138 625 155 625 L280 625 C297 625 305 617 305 600 L305 100 Z M366 652 C373 655 378 658 381 661 C393 673 399 689 399 708 L399 754 L344 754 L344 708 C344 702 329 699 300 698 C293 699 287 700 280 700 L155 700 C128 700 104 690 84 671 C65 651 55 627 55 600 L55 100 C55 73 65 49 84 29 C104 10 128 0 155 0 L280 0 C307 0 331 10 351 29 C370 49 380 73 380 100 L380 600 C380 619 375 637 366 652 L366 652 Z M192 -65 C182 -74 177 -86 177 -100 C177 -114 182 -126 192 -136 C201 -145 213 -150 227 -150 C241 -150 253 -145 263 -136 C272 -126 277 -114 277 -100 C277 -86 272 -74 263 -65 C253 -55 241 -50 227 -50 C213 -50 201 -55 192 -65 L192 -65 Z " />
<glyph glyph-name="Ohorn.dotbl223" unicode="&#x1ee3;" horiz-adv-x="388" d="M265 90 C265 75 258 68 243 68 L145 68 C130 68 123 75 123 90 L123 380 C123 395 130 402 145 402 L243 402 C258 402 265 395 265 380 L265 90 Z M322 425 C325 426 327 428 329 430 C341 442 347 458 347 477 L347 523 L292 523 L292 477 C292 472 283 469 264 468 C257 469 250 470 243 470 L145 470 C120 470 99 461 82 444 C64 427 55 405 55 380 L55 90 C55 65 64 44 82 27 C99 9 120 0 145 0 L243 0 C268 0 290 9 307 27 C324 44 333 65 333 90 L333 380 C333 397 329 412 322 425 L322 425 Z M129 -65 C119 -74 114 -86 114 -100 C114 -114 119 -126 129 -136 C138 -145 150 -150 164 -150 C178 -150 190 -145 200 -136 C209 -126 214 -114 214 -100 C214 -86 209 -74 200 -65 C190 -55 178 -50 164 -50 C150 -50 138 -55 129 -65 L129 -65 Z " />
<glyph glyph-name="U.dotbl" unicode="&#x1ee4;" horiz-adv-x="435" d="M380 700 L305 700 L305 100 C305 83 297 75 280 75 L155 75 C138 75 130 83 130 100 L130 700 L55 700 L55 100 C55 73 65 49 84 29 C104 10 128 0 155 0 L280 0 C307 0 331 10 351 29 C370 49 380 73 380 100 L380 700 Z M182 -65 C173 -74 168 -86 168 -100 C168 -114 173 -126 182 -136 C192 -145 204 -150 218 -150 C232 -150 244 -145 253 -136 C263 -126 268 -114 268 -100 C268 -86 263 -74 253 -65 C244 -55 232 -50 218 -50 C204 -50 192 -55 182 -65 L182 -65 Z " />
<glyph glyph-name="U.dotbl224" unicode="&#x1ee5;" horiz-adv-x="388" d="M333 470 L265 470 L265 90 C265 75 258 68 243 68 L145 68 C130 68 123 75 123 90 L123 470 L55 470 L55 90 C55 65 64 44 82 27 C99 9 120 0 145 0 L193 0 C231 0 255 15 265 45 L265 0 L333 0 L333 470 Z M159 -65 C149 -74 144 -86 144 -100 C144 -114 149 -126 159 -136 C168 -145 180 -150 194 -150 C208 -150 220 -145 230 -136 C239 -126 244 -114 244 -100 C244 -86 239 -74 230 -65 C220 -55 208 -50 194 -50 C180 -50 168 -55 159 -65 L159 -65 Z " />
<glyph glyph-name="U.hook" unicode="&#x1ee6;" horiz-adv-x="435" d="M380 700 L305 700 L305 100 C305 83 297 75 280 75 L155 75 C138 75 130 83 130 100 L130 700 L55 700 L55 100 C55 73 65 49 84 29 C104 10 128 0 155 0 L280 0 C307 0 331 10 351 29 C370 49 380 73 380 100 L380 700 Z M290 850 C290 863 285 875 275 884 C266 893 255 898 242 898 L193 898 C180 898 169 893 160 884 C151 875 146 863 146 850 L146 807 L193 807 L193 850 C193 851 193 851 193 851 L242 851 C242 851 242 851 242 850 L242 820 C242 817 241 815 240 814 L187 761 L219 727 L272 781 C284 793 290 806 290 821 L290 850 Z " />
<glyph glyph-name="U.hook226" unicode="&#x1ee7;" horiz-adv-x="388" d="M333 470 L265 470 L265 90 C265 75 258 68 243 68 L145 68 C130 68 123 75 123 90 L123 470 L55 470 L55 90 C55 65 64 44 82 27 C99 9 120 0 145 0 L193 0 C231 0 255 15 265 45 L265 0 L333 0 L333 470 Z M266 620 C266 633 261 645 252 654 C243 663 231 668 218 668 L170 668 C157 668 145 663 136 654 C127 645 122 633 122 620 L122 577 L169 577 L169 620 C169 621 169 621 170 621 L218 621 C219 621 219 621 219 620 L219 590 C219 587 218 585 217 584 L163 531 L195 497 L248 551 C260 563 266 576 266 591 L266 620 Z " />
<glyph glyph-name="Uhorn.acute" unicode="&#x1ee8;" horiz-adv-x="435" d="M380 645 C405 648 422 653 430 661 C442 673 448 689 448 708 L448 754 L393 754 L393 708 C393 704 387 701 376 700 L305 700 L305 100 C305 83 297 75 280 75 L155 75 C138 75 130 83 130 100 L130 700 L55 700 L55 100 C55 73 65 49 84 29 C104 10 128 0 155 0 L280 0 C307 0 331 10 351 29 C370 49 380 73 380 100 L380 645 L380 645 Z M198 793 L233 758 L358 883 L323 918 L198 793 Z " />
<glyph glyph-name="Uhorn.acute227" unicode="&#x1ee9;" horiz-adv-x="388" d="M333 413 C363 416 382 421 391 430 C403 442 409 458 409 477 L409 523 L354 523 L354 477 C354 473 347 470 333 468 L333 470 L265 470 L265 90 C265 75 258 68 243 68 L145 68 C130 68 123 75 123 90 L123 470 L55 470 L55 90 C55 65 64 44 82 27 C99 9 120 0 145 0 L193 0 C231 0 255 15 265 45 L265 0 L333 0 L333 413 L333 413 Z M172 563 L207 528 L332 653 L297 688 L172 563 Z " />
<glyph glyph-name="Uhorn.grave" unicode="&#x1eea;" horiz-adv-x="435" d="M380 645 C405 648 422 653 430 661 C442 673 448 689 448 708 L448 754 L393 754 L393 708 C393 704 387 701 376 700 L305 700 L305 100 C305 83 297 75 280 75 L155 75 C138 75 130 83 130 100 L130 700 L55 700 L55 100 C55 73 65 49 84 29 C104 10 128 0 155 0 L280 0 C307 0 331 10 351 29 C370 49 380 73 380 100 L380 645 L380 645 Z M180 918 L145 883 L270 758 L305 793 L180 918 Z " />
<glyph glyph-name="Uhorn.grave228" unicode="&#x1eeb;" horiz-adv-x="388" d="M333 413 C363 416 382 421 391 430 C403 442 409 458 409 477 L409 523 L354 523 L354 477 C354 473 347 470 333 468 L333 470 L265 470 L265 90 C265 75 258 68 243 68 L145 68 C130 68 123 75 123 90 L123 470 L55 470 L55 90 C55 65 64 44 82 27 C99 9 120 0 145 0 L193 0 C231 0 255 15 265 45 L265 0 L333 0 L333 413 L333 413 Z M131 688 L96 653 L221 528 L256 563 L131 688 Z " />
<glyph glyph-name="Uhorn.hook" unicode="&#x1eec;" horiz-adv-x="435" d="M380 645 C405 648 422 653 430 661 C442 673 448 689 448 708 L448 754 L393 754 L393 708 C393 704 387 701 376 700 L305 700 L305 100 C305 83 297 75 280 75 L155 75 C138 75 130 83 130 100 L130 700 L55 700 L55 100 C55 73 65 49 84 29 C104 10 128 0 155 0 L280 0 C307 0 331 10 351 29 C370 49 380 73 380 100 L380 645 L380 645 Z M287 851 C287 864 282 875 273 884 C264 893 253 898 240 898 L191 898 C178 898 167 893 158 884 C148 875 143 864 143 851 L143 808 L191 808 L191 851 C191 851 191 851 191 851 L240 851 C240 851 240 851 240 851 L240 820 C240 817 239 815 238 814 L185 761 L217 727 L270 781 C281 793 287 806 287 821 L287 851 Z " />
<glyph glyph-name="Uhorn.hook229" unicode="&#x1eed;" horiz-adv-x="388" d="M333 413 C363 416 382 421 391 430 C403 442 409 458 409 477 L409 523 L354 523 L354 477 C354 473 347 470 333 468 L333 470 L265 470 L265 90 C265 75 258 68 243 68 L145 68 C130 68 123 75 123 90 L123 470 L55 470 L55 90 C55 65 64 44 82 27 C99 9 120 0 145 0 L193 0 C231 0 255 15 265 45 L265 0 L333 0 L333 413 L333 413 Z M299 620 C299 633 294 645 285 654 C276 663 264 668 251 668 L203 668 C190 668 178 663 169 654 C160 645 155 633 155 620 L155 577 L202 577 L202 620 C202 621 202 621 203 621 L251 621 C252 621 252 621 252 620 L252 590 C252 587 251 585 250 584 L196 531 L228 497 L281 551 C293 563 299 576 299 591 L299 620 Z " />
<glyph glyph-name="Uhorn.tilde" unicode="&#x1eee;" horiz-adv-x="435" d="M380 645 C405 648 422 653 430 661 C442 673 448 689 448 708 L448 754 L393 754 L393 708 C393 704 387 701 376 700 L305 700 L305 100 C305 83 297 75 280 75 L155 75 C138 75 130 83 130 100 L130 700 L55 700 L55 100 C55 73 65 49 84 29 C104 10 128 0 155 0 L280 0 C307 0 331 10 351 29 C370 49 380 73 380 100 L380 645 L380 645 Z M123 775 L182 833 L237 779 C247 769 259 764 273 764 C286 764 298 769 307 779 L364 837 L330 872 L272 815 L217 869 C207 879 195 884 181 884 C167 884 156 879 147 869 L88 809 L123 775 Z " />
<glyph glyph-name="Uhorn.tilde230" unicode="&#x1eef;" horiz-adv-x="388" d="M333 413 C363 416 382 421 391 430 C403 442 409 458 409 477 L409 523 L354 523 L354 477 C354 473 347 470 333 468 L333 470 L265 470 L265 90 C265 75 258 68 243 68 L145 68 C130 68 123 75 123 90 L123 470 L55 470 L55 90 C55 65 64 44 82 27 C99 9 120 0 145 0 L193 0 C231 0 255 15 265 45 L265 0 L333 0 L333 413 L333 413 Z M112 558 L171 616 L226 562 C236 552 248 547 262 547 C276 547 287 552 296 562 L353 620 L319 655 L261 598 L206 652 C196 662 184 667 170 667 C157 667 145 662 136 652 L77 592 L112 558 Z " />
<glyph glyph-name="Uhorn.dotbl" unicode="&#x1ef0;" horiz-adv-x="435" d="M380 645 C405 648 422 653 430 661 C442 673 448 689 448 708 L448 754 L393 754 L393 708 C393 704 387 701 376 700 L305 700 L305 100 C305 83 297 75 280 75 L155 75 C138 75 130 83 130 100 L130 700 L55 700 L55 100 C55 73 65 49 84 29 C104 10 128 0 155 0 L280 0 C307 0 331 10 351 29 C370 49 380 73 380 100 L380 645 L380 645 Z M186 -65 C176 -74 171 -86 171 -100 C171 -114 176 -126 186 -136 C195 -145 207 -150 221 -150 C235 -150 247 -145 257 -136 C266 -126 271 -114 271 -100 C271 -86 266 -74 257 -65 C247 -55 235 -50 221 -50 C207 -50 195 -55 186 -65 L186 -65 Z " />
<glyph glyph-name="Uhorn.dotbl231" unicode="&#x1ef1;" horiz-adv-x="388" d="M333 413 C363 416 382 421 391 430 C403 442 409 458 409 477 L409 523 L354 523 L354 477 C354 473 347 470 333 468 L333 470 L265 470 L265 90 C265 75 258 68 243 68 L145 68 C130 68 123 75 123 90 L123 470 L55 470 L55 90 C55 65 64 44 82 27 C99 9 120 0 145 0 L193 0 C231 0 255 15 265 45 L265 0 L333 0 L333 413 L333 413 Z M162 -65 C152 -74 147 -86 147 -100 C147 -114 152 -126 162 -136 C171 -145 183 -150 197 -150 C211 -150 223 -145 233 -136 C242 -126 247 -114 247 -100 C247 -86 242 -74 233 -65 C223 -55 211 -50 197 -50 C183 -50 171 -55 162 -65 L162 -65 Z " />
<glyph glyph-name="Ygrave" unicode="&#x1ef2;" horiz-adv-x="384" d="M301 700 L192 355 L84 700 L5 700 L154 270 L154 0 L228 0 L228 270 L379 700 L301 700 Z M147 918 L112 883 L237 758 L272 793 L147 918 Z " />
<glyph glyph-name="Ygrave177" unicode="&#x1ef3;" horiz-adv-x="363" d="M275 470 L181 96 L87 470 L17 470 L145 0 L98 -150 L172 -150 L346 470 L275 470 Z M136 688 L101 653 L226 528 L261 563 L136 688 Z " />
<glyph glyph-name="Y.dotbl" unicode="&#x1ef4;" horiz-adv-x="384" d="M301 700 L192 355 L84 700 L5 700 L154 270 L154 0 L228 0 L228 270 L379 700 L301 700 Z M157 -65 C147 -74 142 -86 142 -100 C142 -114 147 -126 157 -136 C166 -145 178 -150 192 -150 C206 -150 218 -145 228 -136 C237 -126 242 -114 242 -100 C242 -86 237 -74 228 -65 C218 -55 206 -50 192 -50 C178 -50 166 -55 157 -65 L157 -65 Z " />
<glyph glyph-name="Y.dotbl232" unicode="&#x1ef5;" horiz-adv-x="363" d="M275 470 L181 96 L87 470 L17 470 L145 0 L98 -150 L172 -150 L346 470 L275 470 Z M244 -65 C235 -74 230 -86 230 -100 C230 -114 235 -126 244 -136 C254 -145 266 -150 280 -150 C294 -150 306 -145 315 -136 C325 -126 330 -114 330 -100 C330 -86 325 -74 315 -65 C306 -55 294 -50 280 -50 C266 -50 254 -55 244 -65 L244 -65 Z " />
<glyph glyph-name="Y.hook" unicode="&#x1ef6;" horiz-adv-x="384" d="M301 700 L192 355 L84 700 L5 700 L154 270 L154 0 L228 0 L228 270 L379 700 L301 700 Z M264 850 C264 863 259 875 250 884 C241 893 229 898 216 898 L168 898 C155 898 143 893 134 884 C125 875 120 863 120 850 L120 807 L167 807 L167 850 C167 851 167 851 168 851 L216 851 C217 851 217 851 217 850 L217 820 C217 817 216 815 215 814 L161 761 L193 727 L246 781 C258 793 264 806 264 821 L264 850 Z " />
<glyph glyph-name="Y.hook233" unicode="&#x1ef7;" horiz-adv-x="363" d="M275 470 L181 96 L87 470 L17 470 L145 0 L98 -150 L172 -150 L346 470 L275 470 Z M254 620 C254 633 249 645 239 654 C230 663 219 668 206 668 L157 668 C144 668 133 663 124 654 C115 645 110 633 110 620 L110 577 L157 577 L157 620 C157 621 157 621 157 621 L206 621 C206 621 206 621 206 620 L206 590 C206 587 205 585 204 584 L151 531 L183 497 L236 551 C248 563 254 576 254 591 L254 620 Z " />
<glyph glyph-name="Ytilde" unicode="&#x1ef8;" horiz-adv-x="384" d="M301 700 L192 355 L84 700 L5 700 L154 270 L154 0 L228 0 L228 270 L379 700 L301 700 Z M89 788 L148 846 L203 792 C213 782 225 777 239 777 C253 777 264 782 273 792 L330 850 L296 885 L238 828 L183 882 C173 892 161 897 147 897 C134 897 122 892 113 882 L54 822 L89 788 Z " />
<glyph glyph-name="Ytilde234" unicode="&#x1ef9;" horiz-adv-x="363" d="M275 470 L181 96 L87 470 L17 470 L145 0 L98 -150 L172 -150 L346 470 L275 470 Z M79 558 L138 616 L193 562 C203 552 215 547 229 547 C242 547 254 552 263 562 L320 620 L286 655 L228 598 L173 652 C163 662 151 667 137 667 C123 667 112 662 103 652 L44 592 L79 558 Z " />
<glyph glyph-name="endash" unicode="&#x2013;" horiz-adv-x="438" d="M408 269 L30 269 L30 201 L408 201 L408 269 Z " />
<glyph glyph-name="emdash" unicode="&#x2014;" horiz-adv-x="642" d="M612 269 L30 269 L30 201 L612 201 L612 269 Z " />
<glyph glyph-name="quoteleft" unicode="&#x2018;" horiz-adv-x="186" d="M47 580 C44 573 43 567 43 560 C43 546 48 534 58 525 C67 515 79 510 93 510 C107 510 119 515 129 525 C138 534 143 546 143 560 C143 573 139 584 131 593 C124 601 116 606 107 607 L138 700 L103 700 L47 580 L47 580 Z " />
<glyph glyph-name="quoteright" unicode="&#x2019;" horiz-adv-x="186" d="M139 640 C142 647 143 653 143 660 C143 674 138 686 129 696 C119 705 107 710 93 710 C79 710 67 705 58 696 C48 686 43 674 43 660 C43 647 47 636 55 627 C62 619 70 614 79 613 L48 520 L83 520 L139 640 L139 640 Z " />
<glyph glyph-name="quotesinglbase" unicode="&#x201a;" horiz-adv-x="182" d="M137 20 C140 27 141 33 141 40 C141 54 136 66 127 76 C117 85 105 90 91 90 C77 90 65 85 56 76 C46 66 41 54 41 40 C41 27 45 16 53 7 C60 -1 68 -6 77 -7 L46 -100 L81 -100 L137 20 L137 20 Z " />
<glyph glyph-name="quotedblleft" unicode="&#x201c;" horiz-adv-x="322" d="M47 580 C44 573 43 567 43 560 C43 546 48 534 58 525 C67 515 79 510 93 510 C107 510 119 515 129 525 C138 534 143 546 143 560 C143 573 139 584 131 593 C124 601 116 606 107 607 L138 700 L103 700 L47 580 L47 580 Z M183 580 C180 573 179 567 179 560 C179 546 184 534 194 525 C203 515 215 510 229 510 C243 510 255 515 265 525 C274 534 279 546 279 560 C279 573 275 584 267 593 C260 601 252 606 243 607 L274 700 L239 700 L183 580 L183 580 Z " />
<glyph glyph-name="quotedblright" unicode="&#x201d;" horiz-adv-x="322" d="M275 640 C278 647 279 653 279 660 C279 674 274 686 265 696 C255 705 243 710 229 710 C215 710 203 705 194 696 C184 686 179 674 179 660 C179 647 183 636 191 627 C198 619 206 614 215 613 L184 520 L219 520 L275 640 L275 640 Z M139 640 C142 647 143 653 143 660 C143 674 138 686 129 696 C119 705 107 710 93 710 C79 710 67 705 58 696 C48 686 43 674 43 660 C43 647 47 636 55 627 C62 619 70 614 79 613 L48 520 L83 520 L139 640 L139 640 Z " />
<glyph glyph-name="quotedblbase" unicode="&#x201e;" horiz-adv-x="318" d="M273 20 C276 27 277 33 277 40 C277 54 272 66 263 76 C253 85 241 90 227 90 C213 90 201 85 192 76 C182 66 177 54 177 40 C177 27 181 16 189 7 C196 -1 204 -6 213 -7 L182 -100 L217 -100 L273 20 L273 20 Z M137 20 C140 27 141 33 141 40 C141 54 136 66 127 76 C117 85 105 90 91 90 C77 90 65 85 56 76 C46 66 41 54 41 40 C41 27 45 16 53 7 C60 -1 68 -6 77 -7 L46 -100 L81 -100 L137 20 L137 20 Z " />
<glyph glyph-name="dagger" unicode="&#x2020;" horiz-adv-x="339" d="M310 583 L193 583 L193 700 L146 700 L146 583 L29 583 L29 536 L146 536 L146 200 L193 200 L193 536 L310 536 L310 583 Z " />
<glyph glyph-name="daggerdbl" unicode="&#x2021;" horiz-adv-x="339" d="M29 317 L146 317 L146 200 L193 200 L193 317 L310 317 L310 364 L193 364 L193 536 L310 536 L310 583 L193 583 L193 700 L146 700 L146 583 L29 583 L29 536 L146 536 L146 364 L29 364 L29 317 Z " />
<glyph glyph-name="bullet" unicode="&#x2022;" horiz-adv-x="380" d="M292 133 C320 161 334 195 334 235 C334 275 320 309 292 338 C264 366 230 380 190 380 C150 380 116 366 88 338 C60 309 46 275 46 235 C46 195 60 161 88 133 C116 104 150 90 190 90 C230 90 264 104 292 133 L292 133 Z " />
<glyph glyph-name="ellipsis" unicode="&#x2026;" horiz-adv-x="570" d="M60 76 C50 66 45 54 45 40 C45 26 50 14 60 5 C69 -5 81 -10 95 -10 C109 -10 121 -5 131 5 C140 14 145 26 145 40 C145 54 140 66 131 76 C121 85 109 90 95 90 C81 90 69 85 60 76 L60 76 Z M250 76 C240 66 235 54 235 40 C235 26 240 14 250 5 C259 -5 271 -10 285 -10 C299 -10 311 -5 321 5 C330 14 335 26 335 40 C335 54 330 66 321 76 C311 85 299 90 285 90 C271 90 259 85 250 76 L250 76 Z M440 76 C430 66 425 54 425 40 C425 26 430 14 440 5 C449 -5 461 -10 475 -10 C489 -10 501 -5 511 5 C520 14 525 26 525 40 C525 54 520 66 511 76 C501 85 489 90 475 90 C461 90 449 85 440 76 L440 76 Z " />
<glyph glyph-name="perthousand" unicode="&#x2030;" horiz-adv-x="893" d="M212 416 C212 405 207 399 196 399 L123 399 C112 399 107 405 107 416 L107 633 C107 644 112 649 123 649 L196 649 C207 649 212 644 212 633 L212 416 Z M407 700 L175 0 L223 0 L454 700 L407 700 Z M264 633 C264 652 257 667 244 680 C231 693 215 700 196 700 L123 700 C104 700 88 693 75 680 C62 667 55 652 55 633 L55 416 C55 397 62 382 75 369 C88 356 104 349 123 349 L196 349 C215 349 231 356 244 369 C257 382 264 397 264 416 L264 633 Z M522 67 C522 56 517 50 506 50 L433 50 C422 50 417 56 417 67 L417 284 C417 295 422 300 433 300 L506 300 C517 300 522 295 522 284 L522 67 Z M574 284 C574 303 567 318 554 331 C541 344 525 351 506 351 L433 351 C414 351 398 344 385 331 C372 318 365 303 365 284 L365 67 C365 48 372 33 385 20 C398 7 414 0 433 0 L506 0 C525 0 541 7 554 20 C567 33 574 48 574 67 L574 284 Z M786 67 C786 56 781 50 770 50 L697 50 C686 50 681 56 681 67 L681 284 C681 295 686 300 697 300 L770 300 C781 300 786 295 786 284 L786 67 Z M838 284 C838 303 831 318 818 331 C805 344 789 351 770 351 L697 351 C678 351 662 344 649 331 C636 318 629 303 629 284 L629 67 C629 48 636 33 649 20 C662 7 678 0 697 0 L770 0 C789 0 805 7 818 20 C831 33 838 48 838 67 L838 284 Z " />
<glyph glyph-name="guilsinglleft" unicode="&#x2039;" horiz-adv-x="217" d="M101 235 L186 320 L152 356 L31 235 L152 114 L186 150 L101 235 Z " />
<glyph glyph-name="guilsinglright" unicode="&#x203a;" horiz-adv-x="217" d="M116 235 L31 150 L65 114 L186 235 L65 356 L31 320 L116 235 Z " />
<glyph glyph-name="fraction" unicode="&#x2044;" horiz-adv-x="74" d="M126 700 L-106 0 L-53 0 L179 700 L126 700 Z " />
<glyph glyph-name="uni2070" unicode="&#x2070;" horiz-adv-x="305" d="M200 345 C200 338 197 335 190 335 L115 335 C108 335 105 338 105 345 L105 635 C105 642 108 645 115 645 L190 645 C197 645 200 642 200 635 L200 345 Z M255 635 C255 654 249 670 237 682 C225 694 209 700 190 700 L115 700 C96 700 81 694 68 682 C56 670 50 654 50 635 L50 345 C50 326 56 311 68 298 C81 286 96 280 115 280 L190 280 C209 280 225 286 237 298 C249 311 255 326 255 345 L255 635 Z " />
<glyph glyph-name="uni2074" unicode="&#x2074;" horiz-adv-x="294" d="M94 427 L172 599 L172 427 L94 427 Z M257 427 L227 427 L227 700 L169 700 L37 423 L37 372 L172 372 L172 280 L227 280 L227 372 L257 372 L257 427 Z " />
<glyph glyph-name="uni2075" unicode="&#x2075;" horiz-adv-x="305" d="M255 502 C255 521 249 537 237 549 C225 561 209 567 190 567 L147 567 C127 567 113 557 105 537 L105 645 L255 645 L255 700 L50 700 L50 475 L105 475 L105 502 C105 509 108 512 115 512 L190 512 C197 512 200 509 200 502 L200 345 C200 338 197 335 190 335 L115 335 C108 335 105 338 105 345 L105 393 L50 393 L50 345 C50 326 56 311 68 298 C81 286 96 280 115 280 L190 280 C209 280 225 286 237 298 C249 311 255 326 255 345 L255 502 Z " />
<glyph glyph-name="uni2076" unicode="&#x2076;" horiz-adv-x="305" d="M200 345 C200 338 197 335 190 335 L115 335 C108 335 105 338 105 345 L105 465 C105 472 108 475 115 475 L190 475 C197 475 200 472 200 465 L200 345 Z M255 465 C255 484 249 500 237 512 C225 524 209 530 190 530 L147 530 C127 530 113 520 105 500 L105 635 C105 642 108 645 115 645 L190 645 C197 645 200 642 200 635 L200 590 L255 590 L255 635 C255 654 249 670 237 682 C225 694 209 700 190 700 L115 700 C96 700 81 694 68 682 C56 670 50 654 50 635 L50 345 C50 326 56 311 68 298 C81 286 96 280 115 280 L190 280 C209 280 225 286 237 298 C249 310 255 326 255 345 L255 465 Z " />
<glyph glyph-name="uni2077" unicode="&#x2077;" horiz-adv-x="279" d="M242 700 L37 700 L37 582 L92 582 L92 645 L181 645 L97 280 L158 280 L242 655 L242 700 Z " />
<glyph glyph-name="uni2078" unicode="&#x2078;" horiz-adv-x="305" d="M200 345 C200 338 197 335 190 335 L115 335 C108 335 105 338 105 345 L105 457 C105 464 108 467 115 467 L190 467 C197 467 200 464 200 457 L200 345 Z M200 532 C200 525 197 522 190 522 L115 522 C108 522 105 525 105 532 L105 635 C105 642 108 645 115 645 L190 645 C197 645 200 642 200 635 L200 532 Z M255 456 C255 481 243 496 220 502 C243 510 255 525 255 548 L255 635 C255 654 249 670 237 682 C225 694 209 700 190 700 L115 700 C96 700 81 694 68 682 C56 670 50 654 50 635 L50 548 C50 523 62 508 85 502 C62 494 50 479 50 456 L50 345 C50 326 56 311 68 298 C81 286 96 280 115 280 L190 280 C209 280 225 286 237 298 C249 311 255 326 255 345 L255 456 Z " />
<glyph glyph-name="uni2079" unicode="&#x2079;" horiz-adv-x="305" d="M105 635 C105 642 108 645 115 645 L190 645 C197 645 200 642 200 635 L200 515 C200 508 197 505 190 505 L115 505 C108 505 105 508 105 515 L105 635 Z M50 515 C50 496 56 480 68 468 C80 456 96 450 115 450 L158 450 C178 450 192 460 200 480 L200 345 C200 338 197 335 190 335 L115 335 C108 335 105 338 105 345 L105 398 L50 398 L50 345 C50 326 56 311 68 298 C81 286 96 280 115 280 L190 280 C209 280 225 286 237 298 C249 311 255 326 255 345 L255 635 C255 654 249 670 237 682 C225 694 209 700 190 700 L115 700 C96 700 80 694 68 682 C56 670 50 654 50 635 L50 515 Z " />
<glyph glyph-name="zero.sinf" unicode="&#x2080;" horiz-adv-x="305" d="M200 -85 C200 -92 197 -95 190 -95 L115 -95 C108 -95 105 -92 105 -85 L105 205 C105 212 108 215 115 215 L190 215 C197 215 200 212 200 205 L200 -85 Z M255 205 C255 224 249 240 237 252 C225 264 209 270 190 270 L115 270 C96 270 81 264 68 252 C56 240 50 224 50 205 L50 -85 C50 -104 56 -119 68 -132 C81 -144 96 -150 115 -150 L190 -150 C209 -150 225 -144 237 -132 C249 -119 255 -104 255 -85 L255 205 Z " />
</font>
</svg>
